<?xml version="1.0" encoding="UTF-8"?><svg xmlns="http://www.w3.org/2000/svg" viewBox="0 0 273.64 165.99"><defs><style>.d{fill:#0835f2;}</style></defs><g id="a"/><g id="b"><g id="c"><g><g><path class="d" d="M56.41,65.63l-9.49-22.08H16.41l-9.58,22.08H0L28.03,0h7.36l28.2,65.63h-7.18ZM31.75,7.45l-12.86,30.15h25.45L31.75,7.45Z"/><path class="d" d="M81.51,65.63L54.46,0h7.27l23.15,57.47L108.12,0h7.09l-27.23,65.63h-6.47Z"/><path class="d" d="M162.67,65.63l-9.49-22.08h-30.51l-9.58,22.08h-6.83L134.29,0h7.36l28.2,65.63h-7.18ZM138.02,7.45l-12.86,30.15h25.45l-12.59-30.15Z"/><path class="d" d="M223.17,65.63L184.24,7.89h-.18v57.74h-6.56V0h8.87l36.63,54.46h.18V0h6.56V65.63h-6.56Z"/><path class="d" d="M252.09,65.63V5.94h-15.08V0h36.63V5.94h-14.99v59.69h-6.56Z"/></g><g><path class="d" d="M81.51,164.62v-63.77h-.19l-20.42,30.04h14.68c-1.17,19.54-17.21,35.1-37.33,35.1S.62,150.24,.62,128.75s16.53-37.43,37.04-37.43c9.72,0,19.93,4.28,27.22,11.37l-4.18,5.74c-7-7.29-14.58-10.5-22.85-10.5-16.72,0-30.04,13.81-30.04,30.82,0,14.87,9.53,27.41,24.89,30.23l14.97-21.48H26v-6.61h26.25l26.64-38.21h9.82v71.94h-7.19Zm-25.18-27.12l-15.17,21.78c10.79-.58,23.14-10.4,25.86-21.78h-10.69Z"/><path class="d" d="M141.6,164.62l-24.4-32.57h7c12.74,0,20.32-6.51,20.32-16.33,0-6.8-4.18-16.53-20.71-16.53h-13.71v65.43h-7.2V92.68h21.68c18.76,0,27.12,11.08,27.12,23.24s-8.75,20.9-21.39,21.87l20.32,26.83h-9.04Z"/><path class="d" d="M162.32,164.62V92.68h21.29c8.65,0,17.4,2.14,23.82,6.32,9.72,6.42,15.65,17.89,15.65,30.04,0,8.94-3.4,17.6-10.4,24.79-7,7.29-17.21,10.79-29.36,10.79h-21Zm20.42-6.51c11.96,0,19.93-3.11,25.18-8.65,5.45-5.83,7.97-13.32,7.97-20.8,0-9.33-3.89-17.5-11.47-23.33-5.06-3.89-12.74-6.12-21.97-6.12h-12.93v58.91h13.22Z"/><path class="d" d="M234.27,164.62V92.68h39.37v6.51h-32.18v25.86h31.11v6.51h-31.11v26.54h32.18v6.51h-39.37Z"/></g></g></g></g></svg>