<?xml version="1.0" encoding="UTF-8"?><svg xmlns="http://www.w3.org/2000/svg" viewBox="0 0 386.66 38.51"><defs><style>.d{fill:#eecaa2;}.e{fill:none;stroke:#eecaa2;stroke-miterlimit:10;}</style></defs><g id="a"/><g id="b"><g id="c"><g><circle class="e" cx="247.75" cy="19.25" r="8.24"/><circle class="e" cx="146.07" cy="20.14" r="8.24"/><path class="d" d="M217.49,19.25c-15.31,2.18-17.07,3.94-19.25,19.25-2.18-15.31-3.94-17.07-19.25-19.25,15.31-2.18,17.07-3.94,19.25-19.25,2.18,15.31,3.94,17.07,19.25,19.25Z"/><path class="e" d="M280.68,19.09c0-4.55,3.69-8.24,8.24-8.24,4.55,0,8.24,3.69,8.24,8.24"/><path class="e" d="M94.39,19.04c0-4.55,3.69-8.24,8.24-8.24,4.55,0,8.24,3.69,8.24,8.24"/></g><line class="e" y1="19.27" x2="386.66" y2="19.27"/></g></g></svg>