<?xml version="1.0" encoding="utf-8"?>
<!-- Generator: Adobe Illustrator 26.2.1, SVG Export Plug-In . SVG Version: 6.00 Build 0)  -->
<svg version="1.1" id="Calque_1" xmlns="http://www.w3.org/2000/svg" xmlns:xlink="http://www.w3.org/1999/xlink" x="0px" y="0px"
	 viewBox="0 0 180.9 98.5" style="enable-background:new 0 0 180.9 98.5;" xml:space="preserve">
<style type="text/css">
	.st0{font-family:'CabinetGrotesk-Black';}
	.st1{font-size:120px;}
	.st2{fill:#282828;}
	.st3{font-family:'CabinetGrotesk-Bold';}
	.st4{fill:#545454;}
	.st5{fill:#686868;}
	.st6{font-family:'CabinetGrotesk-Medium';}
	.st7{fill:#909191;}
	.st8{font-family:'CabinetGrotesk-Regular';}
	.st9{fill:#C6C6C6;}
	.st10{font-family:'CabinetGrotesk-Light';}
	.st11{fill:#E0E2E2;}
	.st12{fill:#FFFFFF;}
	.st13{font-family:'CabinetGrotesk-Thin';}
</style>
<text transform="matrix(1 0 0 1 0.8242 75.0111)" class="st0 st1">a</text>
<text transform="matrix(1 0 0 1 62.1442 75.0111)" class="st0 st1">g</text>
<text transform="matrix(1 0 0 1 13.0341 74.531)" class="st2 st3 st1">a</text>
<text transform="matrix(1 0 0 1 74.2342 74.531)" class="st2 st3 st1">g</text>
<text transform="matrix(1 0 0 1 26.5542 74.531)" class="st4 st3 st1">a</text>
<text transform="matrix(1 0 0 1 87.5142 74.531)" class="st4 st3 st1">g</text>
<text transform="matrix(1 0 0 1 36.0242 74.531)" class="st5 st6 st1">a</text>
<text transform="matrix(1 0 0 1 96.6241 74.531)" class="st5 st6 st1">g</text>
<text transform="matrix(1 0 0 1 48.1941 74.531)" class="st7 st8 st1">a</text>
<text transform="matrix(1 0 0 1 107.4741 74.531)" class="st7 st8 st1">g</text>
<text transform="matrix(1 0 0 1 57.6542 74.531)" class="st9 st10 st1">a</text>
<text transform="matrix(1 0 0 1 115.8541 74.531)" class="st9 st10 st1">g</text>
<text transform="matrix(1 0 0 1 63.0641 74.531)" class="st11 st10 st1">a</text>
<text transform="matrix(1 0 0 1 120.3042 74.531)" class="st11 st10 st1">g</text>
<text transform="matrix(1 0 0 1 68.4741 74.531)" class="st12 st13 st1">a</text>
<text transform="matrix(1 0 0 1 124.8741 74.531)" class="st12 st13 st1">g</text>
</svg>
