<?xml version="1.0" encoding="UTF-8"?><svg xmlns="http://www.w3.org/2000/svg" viewBox="0 0 280.94 579.16"><defs><style>.d{fill:#0835f2;}</style></defs><g id="a"/><g id="b"><g id="c"><g><path class="d" d="M76.38,94.43h-1.53l10.65-36.48h1.77l10.65,36.48h-1.53l-3.8-13.01h-12.42l-3.8,13.01Zm10.01-35.15l-5.72,20.8h11.44l-5.72-20.8Z"/><path class="d" d="M118.14,94.43h-1.38c0-3.25,0-5.03,.1-6.56-1.18,4.44-4.19,7.2-8.04,7.2-5.57,0-9.12-6.21-9.12-13.66s3.55-13.76,9.12-13.76c3.4,0,6.36,1.87,8.04,7.2-.1-2.02-.1-3.89-.1-6.56h1.38v26.13Zm-17.06-13.01c0,6.01,2.61,12.37,7.84,12.37,2.61,0,4.59-1.58,5.87-3.94,1.33-2.37,1.97-5.47,1.97-8.48s-.64-6.16-1.97-8.48c-1.28-2.37-3.25-3.94-5.87-3.94-5.23,0-7.84,6.36-7.84,12.42v.05Z"/><path class="d" d="M173.76,94.43h-1.53l17.4-36.48h1.77l3.89,36.48h-1.53l-1.38-13.01h-12.42l-6.21,13.01Zm16.52-35.15l-9.56,20.8h11.44l-1.87-20.8Z"/><path class="d" d="M215.52,94.43h-1.38c.59-3.25,.94-5.03,1.33-6.56-2.02,4.44-5.52,7.2-9.37,7.2-5.57,0-7.99-6.21-6.61-13.66,1.38-7.59,6.11-13.76,11.68-13.76,3.4,0,6.01,1.87,6.71,7.2,.25-2.02,.59-3.89,1.08-6.56h1.38l-4.83,26.13Zm-14.64-13.01c-1.13,6.01,.3,12.37,5.52,12.37,2.61,0,4.88-1.58,6.61-3.94,1.77-2.37,3.01-5.47,3.55-8.48,.59-3.06,.49-6.16-.39-8.48-.84-2.37-2.51-3.94-5.13-3.94-5.23,0-9.02,6.36-10.16,12.42v.05Z"/></g><g><path class="d" d="M74.9,215.42h-3.8l10.4-36.48h3.65l10.55,36.48h-3.75l-3.11-10.8h-10.94l-3.01,10.8Zm8.48-31.7l-4.49,17.55h8.97l-4.49-17.55Z"/><path class="d" d="M116.51,215.42h-3.06c0-2.37,0-3.85,.05-5.13-1.18,3.65-3.7,5.77-7.1,5.77-5.32,0-8.97-5.62-8.97-14s3.35-14.1,8.97-14.1c3.01,0,5.67,1.53,7.1,5.82-.05-1.63-.05-3.16-.05-5.18h3.06v26.82Zm-15.78-13.36c0,6.06,2.17,10.75,6.26,10.75,2.12,0,3.6-1.13,4.68-2.96,1.13-1.87,1.53-4.34,1.53-7.84s-.39-6.01-1.53-7.84c-1.08-1.82-2.56-2.96-4.68-2.96-4.09,0-6.26,4.68-6.26,10.8v.05Z"/><path class="d" d="M174.31,215.42h-3.8l17.16-36.48h3.65l3.8,36.48h-3.75l-1.08-10.8h-10.95l-5.03,10.8Zm14.35-31.7l-7.74,17.55h8.97l-1.23-17.55Z"/><path class="d" d="M215.92,215.42h-3.06c.44-2.37,.69-3.85,.99-5.13-1.82,3.65-4.73,5.77-8.14,5.77-5.32,0-7.94-5.62-6.41-14,1.53-8.28,5.97-14.1,11.58-14.1,3.01,0,5.37,1.53,6.01,5.82,.25-1.63,.54-3.16,.94-5.18h3.06l-4.98,26.82Zm-13.31-13.36c-1.13,6.06,.2,10.75,4.29,10.75,2.12,0,3.8-1.13,5.23-2.96,1.48-1.87,2.32-4.34,2.96-7.84,.69-3.55,.74-6.01-.05-7.84-.74-1.82-2.02-2.96-4.14-2.96-4.09,0-7.15,4.68-8.28,10.8v.05Z"/></g><g><path class="d" d="M72.51,336.4h-4.98l10.26-36.48h4.68l10.5,36.48h-4.98l-2.71-9.56h-10.11l-2.66,9.56Zm7.69-29.83l-3.8,15.78h7.59l-3.8-15.78Z"/><path class="d" d="M114.12,336.4h-3.99v-4.34c-1.18,3.2-3.4,4.93-6.56,4.93-5.23,0-8.92-5.23-8.92-14.15s3.3-14.25,8.92-14.25c2.76,0,5.32,1.28,6.56,5.08v-4.49h3.99v27.21Zm-15.14-13.56c0,6.11,1.92,9.86,5.42,9.86,1.87,0,3.11-.89,4.04-2.42,1.04-1.58,1.33-3.7,1.33-7.49s-.3-5.92-1.33-7.49c-.94-1.48-2.17-2.42-4.04-2.42-3.5,0-5.42,3.8-5.42,9.91v.05Z"/><path class="d" d="M174.63,336.4h-4.98l17.01-36.48h4.68l3.75,36.48h-4.98l-.94-9.56h-10.11l-4.44,9.56Zm13.21-29.83l-6.7,15.78h7.59l-.89-15.78Z"/><path class="d" d="M216.24,336.4h-3.99l.79-4.34c-1.77,3.2-4.29,4.93-7.44,4.93-5.23,0-7.99-5.23-6.31-14.15,1.63-8.68,5.97-14.25,11.59-14.25,2.76,0,5.08,1.28,5.57,5.08l.84-4.49h3.99l-5.03,27.21Zm-12.62-13.56c-1.13,6.11,.1,9.86,3.6,9.86,1.87,0,3.25-.89,4.49-2.42,1.33-1.58,2.02-3.7,2.71-7.49,.69-3.8,.79-5.92,.05-7.49-.64-1.48-1.73-2.42-3.6-2.42-3.5,0-6.11,3.8-7.25,9.91v.05Z"/></g><g><path class="d" d="M77.11,457.34h-6.11l10.11-36.48h5.67l10.4,36.48h-6.11l-2.32-8.43h-9.37l-2.27,8.43Zm6.9-28.05l-3.16,14.1h6.31l-3.16-14.1Z"/><path class="d" d="M118.67,457.34h-4.88c0-1.48,0-2.56,.05-3.6-1.23,2.76-3.16,4.19-6.06,4.19-5.18,0-8.92-4.93-8.92-14.35s3.2-14.4,8.92-14.4c2.47,0,4.93,1.08,6.06,4.34-.05-1.23-.05-2.37-.05-3.75h4.88v27.56Zm-14.5-13.71c0,6.11,1.68,9.02,4.63,9.02,1.68,0,2.56-.69,3.4-1.92,.99-1.33,1.13-3.11,1.13-7.15s-.15-5.87-1.13-7.2c-.84-1.18-1.73-1.87-3.4-1.87-2.96,0-4.63,2.86-4.63,9.07v.05Z"/><path class="d" d="M180.71,457.63h-6.11l16.86-36.48h5.67l3.65,36.48h-6.11l-.74-8.43h-9.37l-3.85,8.43Zm12.08-28.05l-5.77,14.1h6.31l-.54-14.1Z"/><path class="d" d="M222.27,457.63h-4.88c.3-1.48,.49-2.56,.74-3.6-1.77,2.76-3.94,4.19-6.85,4.19-5.18,0-8.04-4.93-6.26-14.35,1.68-9.02,5.87-14.4,11.59-14.4,2.47,0,4.73,1.08,5.28,4.34,.15-1.23,.35-2.37,.64-3.75h4.88l-5.13,27.56Zm-11.93-13.71c-1.13,6.11,0,9.02,2.96,9.02,1.68,0,2.66-.69,3.75-1.92,1.23-1.33,1.73-3.11,2.47-7.15,.74-4.09,.94-5.87,.2-7.2-.64-1.18-1.38-1.87-3.06-1.87-2.96,0-5.18,2.86-6.31,9.07v.05Z"/></g><g><path class="d" d="M71.8,578.57h-7.59l9.96-36.48h6.9l10.35,36.48h-7.59l-1.87-6.95h-8.38l-1.77,6.95Zm5.92-25.78l-2.32,11.93h4.63l-2.32-11.93Z"/><path class="d" d="M113.31,578.57h-6.01v-2.66c-1.23,2.27-2.81,3.25-5.42,3.25-5.03,0-8.83-4.54-8.83-14.59,0-9.47,3.11-14.59,8.83-14.59,2.22,0,4.49,.84,5.42,3.45v-2.86h6.01v28Zm-13.66-13.95c0,6.16,1.38,7.94,3.6,7.94,1.33,0,1.92-.39,2.61-1.23,.84-1.04,.84-2.37,.84-6.75s0-5.72-.84-6.75c-.69-.84-1.28-1.23-2.61-1.23-2.22,0-3.6,1.77-3.6,7.99v.05Z"/><path class="d" d="M174.71,578.57h-7.59l16.71-36.48h6.9l3.6,36.48h-7.59l-.59-6.95h-8.38l-3.06,6.95Zm10.7-25.78l-4.54,11.93h4.63l-.1-11.93Z"/><path class="d" d="M216.22,578.57h-6.01l.49-2.66c-1.68,2.27-3.4,3.25-6.01,3.25-5.03,0-7.99-4.54-6.11-14.59,1.73-9.47,5.77-14.59,11.49-14.59,2.22,0,4.34,.84,4.83,3.45l.49-2.86h6.01l-5.18,28Zm-11.09-13.95c-1.13,6.16-.05,7.94,2.17,7.94,1.33,0,1.97-.39,2.81-1.23,1.04-1.04,1.28-2.37,2.12-6.75,.79-4.39,1.04-5.72,.39-6.75-.54-.84-1.04-1.23-2.37-1.23-2.22,0-3.94,1.77-5.08,7.99l-.05,.05Z"/></g><rect class="d" x="5.94" y="0" width="275" height="3" rx="1.5" ry="1.5"/><g><path class="d" d="M245.04,25.98V11.17h3.8c3.1,0,4.76,1.7,4.76,3.94,0,1.22-.44,2.04-1.62,2.98,1.58,.66,2.46,2.06,2.46,3.64,0,2.02-1.14,4.24-5,4.24h-4.4Zm3.82-8.42c2.84,0,3.26-1.64,3.26-2.5,0-1.1-.64-2.54-3.38-2.54h-2.22v5.04h2.34Zm.46,7.08c1.9,0,3.64-.76,3.64-2.9,0-1.68-1.46-2.84-3.64-2.84h-2.8v5.74h2.8Z"/><path class="d" d="M264.54,25.98v-1.7h-.04c-.62,1.26-1.9,1.96-3.48,1.96-2.34,0-4.74-1.24-4.74-4.94v-6.26h1.4v6.1c0,2.48,1.06,3.84,3.34,3.84,1.88,0,3.44-1.32,3.44-3.94v-6h1.4v10.94h-1.32Z"/><path class="d" d="M269.86,29.82l1.9-4.2-4.26-10.58h1.48l3.48,8.72,3.72-8.72h1.48l-6.34,14.78h-1.46Z"/></g><path class="d" d="M0,31.2H4.42v.35H.39v4.25H4.42v.35H.39v4.32H4.42v.35H0v-9.62Z"/><path class="d" d="M6.93,37.36l-1.79-3.43h.36l1.61,3.08,1.61-3.08h.36l-1.78,3.43,1.78,3.46h-.36l-1.61-3.09-1.61,3.09h-.36l1.79-3.46Z"/><path class="d" d="M10.49,34.27h-1.1v-.34h1.1v-2.73h.36v2.73h1.1v.34h-1.1v6.55h-.36v-6.55Z"/><path class="d" d="M13.1,33.93h.36c0,.86,0,1.3-.04,1.79,.39-1.65,1.46-1.94,1.89-1.96v.34h-.06c-.56,0-1.78,.85-1.78,3.24v3.48h-.36v-6.89Z"/><path class="d" d="M20.63,40.82h-.36c0-.86,0-1.33,.03-1.73-.31,1.17-1.1,1.9-2.12,1.9-1.47,0-2.41-1.64-2.41-3.6s.94-3.63,2.41-3.63c.9,0,1.68,.49,2.12,1.9-.03-.53-.03-1.03-.03-1.73h.36v6.89Zm-4.5-3.43c0,1.59,.69,3.26,2.07,3.26,.69,0,1.21-.42,1.55-1.04,.35-.62,.52-1.44,.52-2.24s-.17-1.62-.52-2.24c-.34-.62-.86-1.04-1.55-1.04-1.38,0-2.07,1.68-2.07,3.28h0Z"/><path class="d" d="M25.31,31.2h.39v9.27h3.39v.35h-3.78v-9.62Z"/><path class="d" d="M30.19,31.2h.36v1.17h-.36v-1.17Zm0,2.73h.36v6.89h-.36v-6.89Z"/><path class="d" d="M36.91,40.65c0,1.14-.2,1.81-.55,2.26-.44,.57-1.07,.84-1.85,.84-.64,0-2.24-.38-2.29-2.33h.34c.04,.62,.17,1.01,.49,1.38,.43,.47,1.01,.61,1.51,.61,.73,0,1.98-.26,1.98-2.56,0-.44,0-1.1,.03-1.77-.31,1.17-1.11,1.9-2.12,1.9-1.47,0-2.41-1.64-2.41-3.6s.94-3.63,2.41-3.63c.9,0,1.68,.49,2.12,1.9-.03-.53-.03-1.03-.03-1.73h.36v6.72Zm-4.5-3.26c0,1.59,.69,3.26,2.07,3.26,.69,0,1.21-.42,1.55-1.04,.35-.62,.52-1.44,.52-2.24s-.17-1.62-.52-2.24c-.34-.62-.86-1.04-1.55-1.04-1.38,0-2.07,1.68-2.07,3.28h0Z"/><path class="d" d="M38.73,31.2h.36v2.73c0,.49,0,.95-.04,1.51,.4-1.27,1.38-1.68,2.25-1.68,.62,0,1.17,.21,1.55,.64,.43,.48,.55,1.16,.55,2.2v4.23h-.36v-4.12c0-.96-.07-1.56-.43-2.05-.35-.48-.99-.55-1.29-.55-.38,0-1.07,.01-1.65,.79-.39,.53-.57,1.12-.57,2.48v3.45h-.36v-9.62Z"/><path class="d" d="M45.59,34.27h-1.1v-.34h1.1v-2.73h.36v2.73h1.1v.34h-1.1v6.55h-.36v-6.55Z"/><path class="d" d="M56.65,38.04c0,1.35-.85,2.95-2.73,2.95-2.02,0-3.25-1.79-3.25-4.98,0-2.86,.98-4.98,3.25-4.98,1.85,0,2.73,1.66,2.73,3.24h-.35c0-.99-.49-2.89-2.38-2.89-2.15,0-2.86,2.09-2.86,4.77,0,2.98,1.2,4.48,2.86,4.48s2.33-1.38,2.38-2.6h.35Z"/><path class="d" d="M57.43,37.36c0-1.95,.79-3.6,2.67-3.6s2.65,1.65,2.65,3.61-.79,3.61-2.65,3.61-2.67-1.65-2.67-3.61h0Zm.36,.01c0,1.95,.75,3.26,2.3,3.26s2.29-1.31,2.29-3.28-.75-3.28-2.29-3.28-2.3,1.31-2.3,3.28h0Z"/><path class="d" d="M64.18,33.93h.36c0,.49,0,.95-.04,1.51,.42-1.27,1.48-1.68,2.25-1.68,1.23,0,2.09,.73,2.09,2.56v4.5h-.36v-4.38c0-.84-.09-2.34-1.72-2.34-1.35,0-2.22,1-2.22,2.98v3.74h-.36v-6.89Z"/><path class="d" d="M75.09,40.82h-.36c0-.86,0-1.33,.03-1.73-.31,1.17-1.11,1.9-2.12,1.9-1.47,0-2.41-1.64-2.41-3.6s.94-3.63,2.41-3.63c.9,0,1.68,.49,2.12,1.9-.03-.53-.03-1.03-.03-1.73v-2.73h.36v9.62Zm-4.5-3.45c0,1.59,.69,3.26,2.07,3.26,.69,0,1.21-.42,1.55-1.04,.35-.62,.52-1.44,.52-2.24s-.17-1.62-.52-2.24c-.34-.62-.86-1.04-1.55-1.04-1.38,0-2.07,1.68-2.07,3.28h0Z"/><path class="d" d="M76.88,37.42c0,1.91,.83,3.24,2.27,3.24,1.08,0,1.77-.75,1.98-1.69h.34c-.12,.55-.38,1.05-.77,1.43-.39,.36-.9,.6-1.55,.6-1.96,0-2.64-1.96-2.64-3.6,0-2.24,1.09-3.63,2.59-3.63,.74,0,1.35,.34,1.76,.88,.58,.78,.7,1.82,.7,2.77h-4.68Zm4.32-.34c-.05-2.07-.98-2.98-2.16-2.98-1.27,0-2.12,1.35-2.16,2.98h4.32Z"/><path class="d" d="M82.95,33.93h.36c0,.49,0,.95-.04,1.51,.42-1.27,1.48-1.68,2.25-1.68,1.24,0,2.09,.73,2.09,2.56v4.5h-.36v-4.38c0-.84-.09-2.34-1.72-2.34-1.35,0-2.22,1-2.22,2.98v3.74h-.36v-6.89Z"/><path class="d" d="M92.29,35.56c0-1.1-.61-1.46-1.35-1.46s-1.27,.55-1.27,1.34c0,.9,.57,1.31,1.44,1.57,.74,.22,1.7,.69,1.7,2.05,0,1.17-.79,1.92-1.82,1.92-1.21,0-1.91-.75-1.91-2.08h.34c0,1.2,.65,1.74,1.55,1.74s1.48-.61,1.48-1.53c0-.99-.47-1.47-1.47-1.79-.94-.3-1.68-.73-1.68-1.87,0-1.07,.81-1.69,1.65-1.69,.98,0,1.68,.56,1.68,1.79h-.34Z"/><path class="d" d="M94.29,37.42c0,1.91,.83,3.24,2.28,3.24,1.08,0,1.77-.75,1.98-1.69h.34c-.12,.55-.38,1.05-.77,1.43-.39,.36-.9,.6-1.55,.6-1.96,0-2.64-1.96-2.64-3.6,0-2.24,1.09-3.63,2.59-3.63,.74,0,1.35,.34,1.76,.88,.58,.78,.7,1.82,.7,2.77h-4.68Zm4.32-.34c-.05-2.07-.98-2.98-2.16-2.98-1.27,0-2.12,1.35-2.16,2.98h4.32Z"/><path class="d" d="M104.83,40.82h-.36c0-.86,0-1.33,.03-1.73-.31,1.17-1.1,1.9-2.12,1.9-1.47,0-2.41-1.64-2.41-3.6s.94-3.63,2.41-3.63c.9,0,1.68,.49,2.12,1.9-.03-.53-.03-1.03-.03-1.73v-2.73h.36v9.62Zm-4.5-3.45c0,1.59,.69,3.26,2.07,3.26,.69,0,1.21-.42,1.55-1.04,.35-.62,.52-1.44,.52-2.24s-.17-1.62-.52-2.24c-.34-.62-.86-1.04-1.55-1.04-1.38,0-2.07,1.68-2.07,3.28h0Z"/><g><path class="d" d="M0,516.26H1.46c.94,0,1.35,.13,1.68,.35,.74,.47,.94,1.35,.94,2.07,0,1.33-.73,1.82-1.18,2.11,1.57,.52,1.69,2.08,1.69,2.54-.01,1.18-.49,1.94-1.27,2.31-.35,.17-.91,.25-1.47,.25H0v-9.62Zm.39,4.41H1.79c.46,0,.83-.06,1.09-.25,.65-.46,.79-1.12,.79-1.79,0-.87-.4-1.48-.77-1.73-.23-.16-.52-.29-1.44-.29H.39v4.06Zm0,4.86H1.85c.6,0,.99-.06,1.3-.21,.65-.29,1.03-.94,1.04-2,0-.96-.46-1.74-1.05-2.07-.34-.18-.75-.23-1.47-.23H.39v4.51Z"/><path class="d" d="M5.64,522.42c0-1.95,.79-3.6,2.67-3.6s2.65,1.65,2.65,3.61-.79,3.61-2.65,3.61-2.67-1.65-2.67-3.61h0Zm.36,.01c0,1.95,.75,3.26,2.3,3.26s2.29-1.31,2.29-3.28-.75-3.28-2.29-3.28-2.3,1.31-2.3,3.28h0Z"/><path class="d" d="M12.45,516.26h.36v9.62h-.36v-9.62Z"/><path class="d" d="M19.17,525.88h-.36c0-.86,0-1.33,.03-1.73-.31,1.17-1.1,1.9-2.12,1.9-1.47,0-2.41-1.64-2.41-3.6s.94-3.63,2.41-3.63c.9,0,1.68,.49,2.12,1.9-.03-.53-.03-1.03-.03-1.73v-2.73h.36v9.62Zm-4.5-3.45c0,1.59,.69,3.26,2.07,3.26,.69,0,1.21-.42,1.55-1.04,.35-.62,.52-1.44,.52-2.24s-.17-1.62-.52-2.24c-.34-.62-.86-1.04-1.55-1.04-1.38,0-2.07,1.68-2.07,3.28h0Z"/><path class="d" d="M29.44,523.09c0,1.35-.85,2.95-2.73,2.95-2.02,0-3.25-1.79-3.25-4.98,0-2.86,.98-4.98,3.25-4.98,1.85,0,2.73,1.66,2.73,3.24h-.35c0-.99-.49-2.89-2.38-2.89-2.15,0-2.86,2.09-2.86,4.77,0,2.98,1.2,4.48,2.86,4.48s2.33-1.38,2.38-2.6h.35Z"/><path class="d" d="M30.22,522.42c0-1.95,.79-3.6,2.67-3.6s2.65,1.65,2.65,3.61-.79,3.61-2.65,3.61-2.67-1.65-2.67-3.61h0Zm.36,.01c0,1.95,.75,3.26,2.3,3.26s2.29-1.31,2.29-3.28-.75-3.28-2.29-3.28-2.3,1.31-2.3,3.28h0Z"/><path class="d" d="M36.97,518.99h.36c0,.49,0,.95-.04,1.51,.42-1.27,1.48-1.68,2.25-1.68,1.23,0,2.09,.73,2.09,2.56v4.5h-.36v-4.38c0-.84-.09-2.34-1.72-2.34-1.35,0-2.22,1-2.22,2.98v3.74h-.36v-6.89Z"/><path class="d" d="M47.88,525.88h-.36c0-.86,0-1.33,.03-1.73-.31,1.17-1.11,1.9-2.12,1.9-1.47,0-2.41-1.64-2.41-3.6s.94-3.63,2.41-3.63c.9,0,1.68,.49,2.12,1.9-.03-.53-.03-1.03-.03-1.73v-2.73h.36v9.62Zm-4.5-3.45c0,1.59,.69,3.26,2.07,3.26,.69,0,1.21-.42,1.55-1.04,.35-.62,.52-1.44,.52-2.24s-.17-1.62-.52-2.24c-.34-.62-.86-1.04-1.55-1.04-1.38,0-2.07,1.68-2.07,3.28h0Z"/><path class="d" d="M49.67,522.47c0,1.91,.83,3.24,2.27,3.24,1.08,0,1.77-.75,1.98-1.69h.34c-.12,.55-.38,1.05-.77,1.43-.39,.36-.9,.6-1.55,.6-1.96,0-2.64-1.96-2.64-3.6,0-2.24,1.09-3.63,2.59-3.63,.74,0,1.35,.34,1.76,.88,.58,.78,.7,1.82,.7,2.77h-4.68Zm4.32-.34c-.05-2.07-.98-2.98-2.16-2.98-1.27,0-2.12,1.35-2.16,2.98h4.32Z"/><path class="d" d="M55.74,518.99h.36c0,.49,0,.95-.04,1.51,.42-1.27,1.48-1.68,2.25-1.68,1.24,0,2.09,.73,2.09,2.56v4.5h-.36v-4.38c0-.84-.09-2.34-1.72-2.34-1.35,0-2.22,1-2.22,2.98v3.74h-.36v-6.89Z"/><path class="d" d="M65.08,520.61c0-1.1-.61-1.46-1.35-1.46s-1.27,.55-1.27,1.34c0,.9,.57,1.31,1.44,1.57,.74,.22,1.7,.69,1.7,2.05,0,1.17-.79,1.92-1.82,1.92-1.21,0-1.91-.75-1.91-2.08h.34c0,1.2,.65,1.74,1.55,1.74s1.48-.61,1.48-1.53c0-.99-.47-1.47-1.47-1.79-.94-.3-1.68-.73-1.68-1.87,0-1.07,.81-1.69,1.65-1.69,.98,0,1.68,.56,1.68,1.79h-.34Z"/><path class="d" d="M67.08,522.47c0,1.91,.83,3.24,2.28,3.24,1.08,0,1.77-.75,1.98-1.69h.34c-.12,.55-.38,1.05-.77,1.43-.39,.36-.9,.6-1.55,.6-1.96,0-2.64-1.96-2.64-3.6,0-2.24,1.09-3.63,2.59-3.63,.74,0,1.35,.34,1.76,.88,.58,.78,.7,1.82,.7,2.77h-4.68Zm4.32-.34c-.05-2.07-.98-2.98-2.16-2.98-1.27,0-2.12,1.35-2.16,2.98h4.32Z"/><path class="d" d="M77.62,525.88h-.36c0-.86,0-1.33,.03-1.73-.31,1.17-1.1,1.9-2.12,1.9-1.47,0-2.41-1.64-2.41-3.6s.94-3.63,2.41-3.63c.9,0,1.68,.49,2.12,1.9-.03-.53-.03-1.03-.03-1.73v-2.73h.36v9.62Zm-4.5-3.45c0,1.59,.69,3.26,2.07,3.26,.69,0,1.21-.42,1.55-1.04,.35-.62,.52-1.44,.52-2.24s-.17-1.62-.52-2.24c-.34-.62-.86-1.04-1.55-1.04-1.38,0-2.07,1.68-2.07,3.28h0Z"/></g><g><path class="d" d="M0,395.68H1.88c1.21,0,2.47,.19,3.25,1.38,.48,.71,.78,1.81,.78,3.43,0,4.29-2.08,4.81-4.03,4.81H0v-9.62Zm.39,9.27H1.75c2.67,0,3.77-1.14,3.77-4.46,0-1.59-.25-2.67-.81-3.38-.6-.77-1.57-1.08-2.96-1.08H.39v8.92Z"/><path class="d" d="M7.32,401.9c0,1.91,.83,3.24,2.27,3.24,1.08,0,1.77-.75,1.98-1.69h.34c-.12,.55-.38,1.05-.77,1.43-.39,.36-.9,.6-1.55,.6-1.96,0-2.64-1.96-2.64-3.6,0-2.24,1.09-3.63,2.59-3.63,.74,0,1.35,.34,1.76,.88,.58,.78,.7,1.82,.7,2.77H7.32Zm4.32-.34c-.05-2.07-.98-2.98-2.16-2.98-1.27,0-2.12,1.35-2.16,2.98h4.32Z"/><path class="d" d="M13.39,398.41h.36c0,.42,0,.83-.04,1.33,.44-1.31,1.43-1.49,1.96-1.49s.99,.18,1.34,.57c.22,.25,.38,.65,.4,1.05,.16-.51,.35-.86,.66-1.13,.35-.3,.81-.49,1.35-.49,.86,0,1.39,.48,1.64,1.01,.2,.43,.2,1.35,.2,2.16v3.89h-.36v-3.97c0-.64,0-1.26-.12-1.7-.17-.68-.74-1.05-1.38-1.05-.49,0-1,.13-1.44,.81-.4,.62-.46,1.46-.46,2.11v3.81h-.36v-3.91c0-.7,.01-1.18-.12-1.74-.16-.68-.74-1.07-1.37-1.07-.56,0-1.03,.18-1.44,.78-.42,.62-.47,1.46-.47,2.18v3.76h-.36v-6.89Z"/><path class="d" d="M23.1,395.68h.36v1.17h-.36v-1.17Zm0,2.73h.36v6.89h-.36v-6.89Z"/><path class="d" d="M33.8,402.52c0,1.35-.84,2.95-2.73,2.95-2.02,0-3.25-1.79-3.25-4.98,0-2.86,.98-4.98,3.25-4.98,1.85,0,2.73,1.66,2.73,3.24h-.35c0-.99-.49-2.89-2.38-2.89-2.15,0-2.86,2.09-2.86,4.77,0,2.98,1.2,4.48,2.86,4.48s2.33-1.38,2.38-2.6h.35Z"/><path class="d" d="M34.58,401.85c0-1.95,.79-3.6,2.67-3.6s2.65,1.65,2.65,3.61-.79,3.61-2.65,3.61-2.67-1.65-2.67-3.61h0Zm.36,.01c0,1.95,.75,3.26,2.3,3.26s2.29-1.31,2.29-3.28-.75-3.28-2.29-3.28-2.3,1.31-2.3,3.28h0Z"/><path class="d" d="M41.33,398.41h.36c0,.49,0,.95-.04,1.51,.42-1.27,1.48-1.68,2.25-1.68,1.24,0,2.09,.73,2.09,2.56v4.5h-.36v-4.38c0-.84-.09-2.34-1.72-2.34-1.35,0-2.22,1-2.22,2.98v3.74h-.36v-6.89Z"/><path class="d" d="M52.23,405.3h-.36c0-.86,0-1.33,.03-1.73-.31,1.17-1.1,1.9-2.12,1.9-1.47,0-2.41-1.64-2.41-3.6s.94-3.63,2.41-3.63c.9,0,1.68,.49,2.12,1.9-.03-.53-.03-1.03-.03-1.73v-2.73h.36v9.62Zm-4.5-3.45c0,1.59,.69,3.26,2.07,3.26,.69,0,1.21-.42,1.55-1.04,.35-.62,.52-1.44,.52-2.24s-.17-1.62-.52-2.24c-.34-.62-.86-1.04-1.55-1.04-1.38,0-2.07,1.68-2.07,3.28h0Z"/><path class="d" d="M54.03,401.9c0,1.91,.83,3.24,2.28,3.24,1.08,0,1.77-.75,1.98-1.69h.34c-.12,.55-.38,1.05-.77,1.43-.39,.36-.9,.6-1.55,.6-1.96,0-2.64-1.96-2.64-3.6,0-2.24,1.09-3.63,2.59-3.63,.74,0,1.35,.34,1.76,.88,.58,.78,.7,1.82,.7,2.77h-4.68Zm4.32-.34c-.05-2.07-.98-2.98-2.16-2.98-1.27,0-2.12,1.35-2.16,2.98h4.32Z"/><path class="d" d="M60.1,398.41h.36c0,.49,0,.95-.04,1.51,.42-1.27,1.48-1.68,2.25-1.68,1.23,0,2.09,.73,2.09,2.56v4.5h-.36v-4.38c0-.84-.09-2.34-1.72-2.34-1.35,0-2.22,1-2.22,2.98v3.74h-.36v-6.89Z"/><path class="d" d="M69.43,400.04c0-1.1-.61-1.46-1.35-1.46s-1.27,.55-1.27,1.34c0,.9,.57,1.31,1.44,1.57,.74,.22,1.7,.69,1.7,2.05,0,1.17-.79,1.92-1.82,1.92-1.21,0-1.91-.75-1.91-2.08h.34c0,1.2,.65,1.74,1.55,1.74s1.48-.61,1.48-1.53c0-.99-.47-1.47-1.47-1.79-.94-.3-1.68-.73-1.68-1.87,0-1.07,.81-1.69,1.65-1.69,.98,0,1.68,.56,1.68,1.79h-.34Z"/><path class="d" d="M71.43,401.9c0,1.91,.83,3.24,2.27,3.24,1.08,0,1.77-.75,1.98-1.69h.34c-.12,.55-.38,1.05-.77,1.43-.39,.36-.9,.6-1.55,.6-1.96,0-2.64-1.96-2.64-3.6,0-2.24,1.09-3.63,2.59-3.63,.74,0,1.35,.34,1.76,.88,.58,.78,.7,1.82,.7,2.77h-4.68Zm4.32-.34c-.05-2.07-.98-2.98-2.16-2.98-1.27,0-2.12,1.35-2.16,2.98h4.32Z"/><path class="d" d="M81.98,405.3h-.36c0-.86,0-1.33,.03-1.73-.31,1.17-1.11,1.9-2.12,1.9-1.47,0-2.41-1.64-2.41-3.6s.94-3.63,2.41-3.63c.9,0,1.68,.49,2.12,1.9-.03-.53-.03-1.03-.03-1.73v-2.73h.36v9.62Zm-4.5-3.45c0,1.59,.69,3.26,2.07,3.26,.69,0,1.21-.42,1.55-1.04,.35-.62,.52-1.44,.52-2.24s-.17-1.62-.52-2.24c-.34-.62-.86-1.04-1.55-1.04-1.38,0-2.07,1.68-2.07,3.28h0Z"/></g><g><path class="d" d="M0,154.54H1.46c.94,0,1.35,.13,1.68,.35,.74,.47,.94,1.35,.94,2.07,0,1.33-.73,1.82-1.18,2.11,1.57,.52,1.69,2.08,1.69,2.54-.01,1.18-.49,1.94-1.27,2.31-.35,.17-.91,.25-1.47,.25H0v-9.62Zm.39,4.41H1.79c.46,0,.83-.06,1.09-.25,.65-.46,.79-1.12,.79-1.79,0-.87-.4-1.48-.77-1.73-.23-.16-.52-.29-1.44-.29H.39v4.06Zm0,4.86H1.85c.6,0,.99-.06,1.3-.21,.65-.29,1.03-.94,1.04-2,0-.96-.46-1.74-1.05-2.07-.34-.18-.75-.23-1.47-.23H.39v4.51Z"/><path class="d" d="M5.64,160.7c0-1.95,.79-3.6,2.67-3.6s2.65,1.65,2.65,3.61-.79,3.61-2.65,3.61-2.67-1.65-2.67-3.61h0Zm.36,.01c0,1.95,.75,3.26,2.3,3.26s2.29-1.31,2.29-3.28-.75-3.28-2.29-3.28-2.3,1.31-2.3,3.28h0Z"/><path class="d" d="M12,160.7c0-1.95,.79-3.6,2.67-3.6s2.65,1.65,2.65,3.61-.79,3.61-2.65,3.61-2.67-1.65-2.67-3.61h0Zm.36,.01c0,1.95,.75,3.26,2.3,3.26s2.29-1.31,2.29-3.28-.75-3.28-2.29-3.28-2.3,1.31-2.3,3.28h0Z"/><path class="d" d="M18.75,154.54h.36v5.75l2.76-3.02h.43l-2.76,3.03,2.99,3.86h-.44l-2.98-3.85v3.85h-.36v-9.62Z"/><path class="d" d="M31.94,161.38c0,1.35-.85,2.95-2.73,2.95-2.02,0-3.25-1.79-3.25-4.98,0-2.86,.98-4.98,3.25-4.98,1.85,0,2.73,1.66,2.73,3.24h-.35c0-.99-.49-2.89-2.38-2.89-2.15,0-2.86,2.09-2.86,4.77,0,2.98,1.2,4.48,2.86,4.48s2.33-1.38,2.38-2.6h.35Z"/><path class="d" d="M32.72,160.7c0-1.95,.79-3.6,2.67-3.6s2.65,1.65,2.65,3.61-.79,3.61-2.65,3.61-2.67-1.65-2.67-3.61h0Zm.36,.01c0,1.95,.75,3.26,2.3,3.26s2.29-1.31,2.29-3.28-.75-3.28-2.29-3.28-2.3,1.31-2.3,3.28h0Z"/><path class="d" d="M39.47,157.27h.36c0,.49,0,.95-.04,1.51,.42-1.27,1.48-1.68,2.25-1.68,1.23,0,2.09,.73,2.09,2.56v4.5h-.36v-4.38c0-.84-.09-2.34-1.72-2.34-1.35,0-2.22,1-2.22,2.98v3.74h-.36v-6.89Z"/><path class="d" d="M50.37,164.16h-.36c0-.86,0-1.33,.03-1.73-.31,1.17-1.11,1.9-2.12,1.9-1.47,0-2.41-1.64-2.41-3.6s.94-3.63,2.41-3.63c.9,0,1.68,.49,2.12,1.9-.03-.53-.03-1.03-.03-1.73v-2.73h.36v9.62Zm-4.5-3.45c0,1.59,.69,3.26,2.07,3.26,.69,0,1.21-.42,1.55-1.04,.35-.62,.52-1.44,.52-2.24s-.17-1.62-.52-2.24c-.34-.62-.86-1.04-1.55-1.04-1.38,0-2.07,1.68-2.07,3.28h0Z"/><path class="d" d="M52.17,160.76c0,1.91,.83,3.24,2.27,3.24,1.08,0,1.77-.75,1.98-1.69h.34c-.12,.55-.38,1.05-.77,1.43-.39,.36-.9,.6-1.55,.6-1.96,0-2.64-1.96-2.64-3.6,0-2.24,1.09-3.63,2.59-3.63,.74,0,1.35,.34,1.76,.88,.58,.78,.7,1.82,.7,2.77h-4.68Zm4.32-.34c-.05-2.07-.98-2.98-2.16-2.98-1.27,0-2.12,1.35-2.16,2.98h4.32Z"/><path class="d" d="M58.24,157.27h.36c0,.49,0,.95-.04,1.51,.42-1.27,1.48-1.68,2.25-1.68,1.24,0,2.09,.73,2.09,2.56v4.5h-.36v-4.38c0-.84-.09-2.34-1.72-2.34-1.35,0-2.22,1-2.22,2.98v3.74h-.36v-6.89Z"/><path class="d" d="M67.57,158.9c0-1.1-.61-1.46-1.35-1.46s-1.27,.55-1.27,1.34c0,.9,.57,1.31,1.44,1.57,.74,.22,1.7,.69,1.7,2.05,0,1.17-.79,1.92-1.82,1.92-1.21,0-1.91-.75-1.91-2.08h.34c0,1.2,.65,1.74,1.55,1.74s1.48-.61,1.48-1.53c0-.99-.47-1.47-1.47-1.79-.94-.3-1.68-.73-1.68-1.87,0-1.07,.81-1.69,1.65-1.69,.98,0,1.68,.56,1.68,1.79h-.34Z"/><path class="d" d="M69.57,160.76c0,1.91,.83,3.24,2.28,3.24,1.08,0,1.77-.75,1.98-1.69h.34c-.12,.55-.38,1.05-.77,1.43-.39,.36-.9,.6-1.55,.6-1.96,0-2.64-1.96-2.64-3.6,0-2.24,1.09-3.63,2.59-3.63,.74,0,1.35,.34,1.76,.88,.58,.78,.7,1.82,.7,2.77h-4.68Zm4.32-.34c-.05-2.07-.98-2.98-2.16-2.98-1.27,0-2.12,1.35-2.16,2.98h4.32Z"/><path class="d" d="M80.12,164.16h-.36c0-.86,0-1.33,.03-1.73-.31,1.17-1.1,1.9-2.12,1.9-1.47,0-2.41-1.64-2.41-3.6s.94-3.63,2.41-3.63c.9,0,1.68,.49,2.12,1.9-.03-.53-.03-1.03-.03-1.73v-2.73h.36v9.62Zm-4.5-3.45c0,1.59,.69,3.26,2.07,3.26,.69,0,1.21-.42,1.55-1.04,.35-.62,.52-1.44,.52-2.24s-.17-1.62-.52-2.24c-.34-.62-.86-1.04-1.55-1.04-1.38,0-2.07,1.68-2.07,3.28h0Z"/></g><g><path class="d" d="M0,284.73v-9.62H.73l2.81,9.37,2.56-9.37h.73v9.62h-.39v-9.46l-2.59,9.46h-.61l-2.85-9.46v9.46h-.39Z"/><path class="d" d="M8.62,281.33c0,1.91,.83,3.24,2.28,3.24,1.08,0,1.77-.75,1.98-1.69h.34c-.12,.55-.38,1.05-.77,1.43-.39,.36-.9,.6-1.55,.6-1.96,0-2.64-1.96-2.64-3.6,0-2.24,1.09-3.63,2.59-3.63,.74,0,1.35,.34,1.76,.88,.58,.78,.7,1.82,.7,2.77h-4.68Zm4.32-.34c-.05-2.07-.98-2.98-2.16-2.98-1.27,0-2.12,1.35-2.16,2.98h4.32Z"/><path class="d" d="M19.16,284.73h-.36c0-.86,0-1.33,.03-1.73-.31,1.17-1.1,1.9-2.12,1.9-1.47,0-2.41-1.64-2.41-3.6s.94-3.63,2.41-3.63c.9,0,1.68,.49,2.12,1.9-.03-.53-.03-1.03-.03-1.73v-2.73h.36v9.62Zm-4.5-3.45c0,1.59,.69,3.26,2.07,3.26,.69,0,1.21-.42,1.55-1.04,.35-.62,.52-1.44,.52-2.24s-.17-1.62-.52-2.24c-.34-.62-.86-1.04-1.55-1.04-1.38,0-2.07,1.68-2.07,3.28h0Z"/><path class="d" d="M21.05,275.11h.36v1.17h-.36v-1.17Zm0,2.73h.36v6.89h-.36v-6.89Z"/><path class="d" d="M27.91,284.73h-.36c0-.49,0-.95,.04-1.51-.42,1.27-1.48,1.68-2.25,1.68-1.23,0-2.09-.73-2.09-2.56v-4.5h.36v4.38c0,.85,.09,2.34,1.72,2.34,1.35,0,2.22-1,2.22-2.98v-3.74h.36v6.89Z"/><path class="d" d="M29.73,277.84h.36c0,.42,0,.83-.04,1.33,.44-1.31,1.43-1.49,1.96-1.49s.99,.18,1.34,.57c.22,.25,.38,.65,.4,1.05,.16-.51,.35-.86,.66-1.13,.35-.3,.81-.49,1.35-.49,.86,0,1.39,.48,1.64,1.01,.19,.43,.19,1.35,.19,2.16v3.89h-.36v-3.97c0-.64,0-1.26-.12-1.7-.17-.68-.74-1.05-1.38-1.05-.49,0-1,.13-1.44,.81-.4,.62-.46,1.46-.46,2.11v3.81h-.36v-3.91c0-.7,.01-1.18-.12-1.74-.16-.68-.74-1.07-1.37-1.07-.56,0-1.03,.18-1.44,.78-.42,.62-.47,1.46-.47,2.18v3.76h-.36v-6.89Z"/><path class="d" d="M47.83,281.95c0,1.35-.84,2.95-2.73,2.95-2.02,0-3.25-1.79-3.25-4.98,0-2.86,.98-4.98,3.25-4.98,1.85,0,2.73,1.66,2.73,3.24h-.35c0-.99-.49-2.89-2.38-2.89-2.15,0-2.86,2.09-2.86,4.77,0,2.98,1.2,4.48,2.86,4.48s2.33-1.38,2.38-2.6h.35Z"/><path class="d" d="M48.61,281.28c0-1.95,.79-3.6,2.67-3.6s2.65,1.65,2.65,3.61-.79,3.61-2.65,3.61-2.67-1.65-2.67-3.61h0Zm.36,.01c0,1.95,.75,3.26,2.3,3.26s2.29-1.31,2.29-3.28-.75-3.28-2.29-3.28-2.3,1.31-2.3,3.28h0Z"/><path class="d" d="M55.35,277.84h.36c0,.49,0,.95-.04,1.51,.42-1.27,1.48-1.68,2.25-1.68,1.24,0,2.09,.73,2.09,2.56v4.5h-.36v-4.38c0-.84-.09-2.34-1.72-2.34-1.35,0-2.22,1-2.22,2.98v3.74h-.36v-6.89Z"/><path class="d" d="M66.26,284.73h-.36c0-.86,0-1.33,.03-1.73-.31,1.17-1.1,1.9-2.12,1.9-1.47,0-2.41-1.64-2.41-3.6s.94-3.63,2.41-3.63c.9,0,1.68,.49,2.12,1.9-.03-.53-.03-1.03-.03-1.73v-2.73h.36v9.62Zm-4.5-3.45c0,1.59,.69,3.26,2.07,3.26,.69,0,1.21-.42,1.55-1.04,.35-.62,.52-1.44,.52-2.24s-.17-1.62-.52-2.24c-.34-.62-.86-1.04-1.55-1.04-1.38,0-2.07,1.68-2.07,3.28h0Z"/><path class="d" d="M68.05,281.33c0,1.91,.83,3.24,2.28,3.24,1.08,0,1.77-.75,1.98-1.69h.34c-.12,.55-.38,1.05-.77,1.43-.39,.36-.9,.6-1.55,.6-1.96,0-2.64-1.96-2.64-3.6,0-2.24,1.09-3.63,2.59-3.63,.74,0,1.35,.34,1.76,.88,.58,.78,.7,1.82,.7,2.77h-4.68Zm4.32-.34c-.05-2.07-.98-2.98-2.16-2.98-1.27,0-2.12,1.35-2.16,2.98h4.32Z"/><path class="d" d="M74.13,277.84h.36c0,.49,0,.95-.04,1.51,.42-1.27,1.48-1.68,2.25-1.68,1.23,0,2.09,.73,2.09,2.56v4.5h-.36v-4.38c0-.84-.09-2.34-1.72-2.34-1.35,0-2.22,1-2.22,2.98v3.74h-.36v-6.89Z"/><path class="d" d="M83.46,279.47c0-1.1-.61-1.46-1.35-1.46s-1.27,.55-1.27,1.34c0,.9,.57,1.31,1.44,1.57,.74,.22,1.7,.69,1.7,2.05,0,1.17-.79,1.92-1.82,1.92-1.21,0-1.91-.75-1.91-2.08h.34c0,1.2,.65,1.74,1.55,1.74s1.48-.61,1.48-1.53c0-.99-.47-1.47-1.47-1.79-.94-.3-1.68-.73-1.68-1.87,0-1.07,.81-1.69,1.65-1.69,.98,0,1.68,.56,1.68,1.79h-.34Z"/><path class="d" d="M85.46,281.33c0,1.91,.83,3.24,2.27,3.24,1.08,0,1.77-.75,1.98-1.69h.34c-.12,.55-.38,1.05-.77,1.43-.39,.36-.9,.6-1.55,.6-1.96,0-2.64-1.96-2.64-3.6,0-2.24,1.09-3.63,2.59-3.63,.74,0,1.35,.34,1.76,.88,.58,.78,.7,1.82,.7,2.77h-4.68Zm4.32-.34c-.05-2.07-.98-2.98-2.16-2.98-1.27,0-2.12,1.35-2.16,2.98h4.32Z"/><path class="d" d="M96,284.73h-.36c0-.86,0-1.33,.03-1.73-.31,1.17-1.11,1.9-2.12,1.9-1.47,0-2.41-1.64-2.41-3.6s.94-3.63,2.41-3.63c.9,0,1.68,.49,2.12,1.9-.03-.53-.03-1.03-.03-1.73v-2.73h.36v9.62Zm-4.5-3.45c0,1.59,.69,3.26,2.07,3.26,.69,0,1.21-.42,1.55-1.04,.35-.62,.52-1.44,.52-2.24s-.17-1.62-.52-2.24c-.34-.62-.86-1.04-1.55-1.04-1.38,0-2.07,1.68-2.07,3.28h0Z"/></g></g></g></svg>