<?xml version="1.0" encoding="UTF-8"?><svg xmlns="http://www.w3.org/2000/svg" viewBox="0 0 207.15 28.34"><g id="a"/><g id="b"><g id="c"><path d="M14.88,12.77l-.74-.19c.06-.84,.02-1.7,.19-2.52,.44-2.18,1.11-4.33,1.38-6.53,.12-1.01-.24-2.28-.84-3.1-.31-.42-2.09-.43-2.41-.01-.62,.8-1.02,2.08-.9,3.08,.28,2.28,.98,4.51,1.42,6.78,.15,.77,.02,1.58,.02,2.38-1.46-.96-2.23-2.17-3.29-3.03-.48-.39-1.52-.09-2.31-.11,.25,.73,.29,1.72,.8,2.12,.79,.62,1.9,.84,2.35,1.02-3.02,2.2-6.19,4.35-9.17,6.74-1.76,1.42-1.77,3.32-.41,4.5,1.45,1.27,3.77,.86,4.96-.91,.27-.41,.44-.89,.65-1.33,.91-1.85,1.66-3.8,2.79-5.52,.52-.79,1.75-1.12,2.66-1.66,.21,1.02,.74,2.1,.56,3.05-.45,2.5-1.4,4.92-1.78,7.43-.28,1.8,.58,3.31,2.74,3.35,2.09,.04,2.98-1.22,2.93-3.17-.02-.89-.2-1.8-.43-2.67-.42-1.59-1.11-3.14-1.32-4.76-.13-1.04,.38-2.16,.61-3.24,.94,.64,2.17,1.09,2.76,1.97,1.24,1.84,1.95,4.04,3.24,5.83,.76,1.04,2.15,1.86,3.41,2.19,.56,.15,2.19-1.2,2.15-1.78-.09-1.3-.59-2.95-1.54-3.73-2.81-2.31-5.92-4.26-8.75-6.25,.4-.17,1.37-.45,2.19-.96,.56-.35,1.02-.98,1.3-1.59,.09-.2-.53-1.04-.81-1.03-.66,.02-1.48,.19-1.93,.62-.94,.9-1.67,2-2.49,3.01Zm48.07-.09c-3.07,2.24-6.29,4.45-9.34,6.89-1.45,1.16-1.78,2.83-.25,4.31,1.31,1.27,3.63,.93,4.82-.66,.34-.46,.54-1.02,.79-1.54,.91-1.85,1.66-3.8,2.78-5.52,.52-.79,1.75-1.13,2.66-1.68,.22,1.02,.76,2.09,.59,3.04-.43,2.42-1.36,4.76-1.76,7.18-.37,2.24,.81,3.57,2.69,3.63,1.95,.06,3.02-1.14,2.96-3.42-.02-.81-.21-1.63-.43-2.42-.45-1.67-1.15-3.3-1.4-4.99-.14-.95,.42-2.01,.67-3.01,.9,.57,2.11,.93,2.64,1.74,1.31,1.99,2.13,4.31,3.5,6.25,.69,.98,2.07,1.77,3.26,2,.63,.12,2.17-1.14,2.17-1.78,0-1.21-.45-2.84-1.33-3.56-2.89-2.36-6.05-4.39-8.94-6.42,.37-.16,1.34-.44,2.17-.95,.56-.35,1.03-.97,1.31-1.58,.09-.2-.51-1.05-.79-1.04-.66,0-1.48,.17-1.94,.6-.98,.92-1.76,2.04-2.63,3.08l-.6-.23c.05-.84,.01-1.7,.17-2.51,.45-2.26,1.12-4.49,1.42-6.77,.12-.93-.24-2.17-.85-2.85-.39-.43-2.02-.45-2.43-.03-.63,.66-1.05,1.9-.93,2.82,.31,2.36,.99,4.67,1.44,7.02,.15,.77,.02,1.59,.02,2.39-1.4-.89-2.15-1.97-3.09-2.87-.46-.43-1.26-.64-1.92-.67-.29-.01-.94,.81-.86,1.02,.26,.61,.7,1.26,1.25,1.61,.81,.51,1.78,.77,2.17,.93Zm56.16,.11l-.72-.25c.05-.77,.02-1.55,.18-2.3,.43-2.1,1.1-4.17,1.33-6.29,.13-1.17-.26-2.51-.81-3.57-.18-.34-2.21-.32-2.39,.04-.54,1.08-.9,2.44-.77,3.63,.24,2.12,.93,4.18,1.34,6.29,.15,.75,.02,1.54,.02,2.32-1.51-1-2.29-2.21-3.35-3.07-.46-.37-1.51-.03-2.29-.02,.28,.72,.36,1.69,.88,2.1,.77,.61,1.86,.82,3.41,1.44-4.73,1.05-7.54,3.93-10.51,6.5-1.32,1.14-1.72,2.74-.3,4.14,1.31,1.3,2.88,1.2,4.28,.1,.55-.43,.94-1.14,1.27-1.79,.97-1.91,1.71-3.97,2.87-5.75,.55-.85,1.85-1.21,2.81-1.8,.18,1.03,.66,2.12,.49,3.08-.46,2.58-1.4,5.09-1.76,7.68-.24,1.73,.8,3.05,2.79,3.05,1.94,0,2.87-1.13,2.87-2.99,0-.89-.15-1.81-.37-2.68-.43-1.68-1.13-3.3-1.4-4.99-.16-.98,.29-2.07,.47-3.11,.96,.57,2.21,.92,2.83,1.74,1.03,1.36,1.66,3.03,2.46,4.56,.38,.73,.75,1.48,1.2,2.16,1.12,1.71,3.05,2.13,4.48,1.03,1.47-1.13,1.62-3.13-.07-4.49-3.07-2.48-6.36-4.68-9.4-6.88,.39-.16,1.37-.43,2.19-.95,.55-.35,.98-1.01,1.24-1.63,.08-.2-.58-1.02-.86-1-.66,.04-1.46,.25-1.92,.69-.93,.89-1.68,1.99-2.5,3Zm48.78,.33c-4.83,1.04-7.63,3.94-10.59,6.53-1.32,1.15-1.63,2.71-.24,4.15,1.21,1.25,3.42,1.1,4.66-.31,.42-.48,.69-1.12,.98-1.7,.91-1.85,1.64-3.82,2.78-5.52,.56-.83,1.86-1.16,2.83-1.72,.16,1.04,.61,2.13,.43,3.1-.44,2.42-1.36,4.76-1.73,7.19-.34,2.18,.94,3.56,2.84,3.5,2.11-.07,2.89-1.38,2.83-3.3-.03-.81-.18-1.64-.39-2.43-.45-1.67-1.14-3.3-1.4-4.99-.15-.98,.33-2.05,.53-3.08,.96,.59,2.25,.96,2.81,1.81,1.4,2.13,2.28,4.6,3.75,6.68,.61,.86,2.21,1.48,3.29,1.39,.79-.07,2.02-1.47,2.04-2.3,.02-1.03-.75-2.4-1.61-3.07-2.91-2.26-6.01-4.28-8.92-6.31,.47-.19,1.36-.45,2.12-.92,.58-.35,1.14-.91,1.41-1.51,.11-.24-.58-1.2-.9-1.2-.65,0-1.44,.29-1.9,.73-.93,.9-1.67,1.98-2.49,2.99-.52-.98-.65-1.83-.5-2.63,.46-2.43,1.11-4.83,1.51-7.26,.26-1.55-.26-2.92-2.14-2.93-1.85-.01-2.45,1.3-2.2,2.88,.36,2.28,.98,4.51,1.41,6.78,.18,.97,.18,1.98,.25,2.98l-.63,.21c-.88-1.06-1.7-2.18-2.67-3.15-.4-.4-1.17-.68-1.71-.6-.4,.06-1.03,.84-.97,1.2,.1,.54,.62,1.14,1.12,1.44,.84,.49,1.81,.76,3.44,1.41Zm-130.38,1.97c0,1.49,.11,2.24-.02,2.96-.35,1.95-.84,3.87-1.19,5.81-.3,1.68,.13,3.02,2.11,3.19,1.75,.15,2.96-1.28,2.63-3.36-.27-1.7-.81-3.37-1.42-4.99-.67-1.79-.07-2.38,1.73-2.49,2.32-.14,4.67-.27,6.91-.82,1-.24,2.01-1.35,2.54-2.32,.27-.5-.32-2.12-.8-2.26-1.07-.3-2.46-.31-3.46,.14-1.64,.74-3.17,1.83-4.59,2.95-1.9,1.5-3.58,1.83-5.82,.43-2.48-1.55-5.66-.9-6.85,1.27-.51,.92-.5,2.67,.08,3.47,.43,.6,2.23,.57,3.26,.28,.84-.23,1.45-1.28,2.19-1.94,.7-.63,1.42-1.22,2.72-2.32Zm51.95-.04c0,1.46,.1,2.14-.02,2.77-.37,1.94-1,3.85-1.19,5.81-.09,.99,.3,2.31,.97,2.98,.45,.45,2.18,.37,2.65-.12,.68-.72,1.08-2.05,.99-3.06-.14-1.53-.69-3.07-1.28-4.51-.83-2.04-.12-2.64,1.91-2.72,2.23-.09,4.51-.26,6.66-.81,1-.26,2-1.36,2.52-2.33,.27-.5-.33-2.12-.82-2.25-1.07-.3-2.47-.3-3.46,.16-1.71,.79-3.29,1.93-4.8,3.09-1.77,1.36-3.32,1.66-5.39,.37-2.59-1.62-5.85-1.04-7.08,1.19-.51,.92-.48,2.67,.1,3.47,.43,.6,2.23,.56,3.27,.26,.84-.24,1.45-1.29,2.18-1.95,.7-.62,1.42-1.21,2.77-2.35Zm50.91,9.13c-.01,1.7,.62,2.87,2.41,2.86,1.66,0,2.76-1.05,2.53-2.71-.27-1.94-.83-3.86-1.46-5.73-.55-1.65-.07-2.27,1.62-2.38,2.32-.15,4.68-.23,6.91-.79,1.07-.27,2.08-1.45,2.69-2.47,.27-.45-.41-2.09-.9-2.21-1.09-.27-2.48-.24-3.47,.24-1.78,.85-3.41,2.05-5,3.24-1.65,1.25-3.09,1.41-4.96,.26-2.56-1.58-5.42-1.12-7.05,.75-1.04,1.19-1.41,2.51-.3,3.8,1.13,1.31,2.54,1.13,3.78,.17,.91-.7,1.58-1.7,2.46-2.43,.51-.43,1.24-.6,1.88-.89,.11,.67,.4,1.38,.28,2.01-.39,2.1-.93,4.18-1.42,6.27Zm52.66-8.59l.78,.38c-.06,.75-.06,1.52-.2,2.25-.35,1.86-.82,3.7-1.15,5.57-.32,1.79,.14,3.29,2.28,3.25,1.98-.04,2.75-1.46,2.47-3.26-.23-1.46-.74-2.87-1.18-4.29-.92-3.02-.91-2.99,2.14-3.29,2.23-.21,4.47-.41,6.65-.89,1.77-.39,2.79-1.77,2.1-3.56-.74-1.92-2.43-1.83-3.96-.97-1.74,.97-3.44,2.02-5.01,3.23-1.86,1.43-3.46,1.69-5.61,.36-2.55-1.58-5.88-.87-7.04,1.36-.46,.89-.46,2.64,.12,3.28,.58,.63,2.23,.66,3.27,.39,.84-.22,1.47-1.26,2.2-1.93,.7-.64,1.42-1.26,2.13-1.89ZM39.46,13.33l-.96-.11c-.2-.86-.44-1.71-.6-2.58-.36-1.86-.48-3.8-1.1-5.56-.32-.9-1.44-1.9-2.35-2.08-.79-.16-2.2,.56-2.6,1.3-.39,.71-.16,2.14,.35,2.89,1.54,2.25,3.22,4.42,5.11,6.38,.54,.56,2.41,.76,2.88,.31,2.21-2.1,4.22-4.43,6.14-6.8,1.01-1.24,.95-2.69-.51-3.66-1.57-1.04-3.1-.75-4.06,.85-.53,.88-.67,2.01-.92,3.04-.48,2-.92,4.01-1.37,6.02Zm51.79,0l-.75-.03c-.23-.82-.53-1.63-.69-2.46-.38-1.94-.5-3.96-1.14-5.81-.31-.89-1.44-1.81-2.38-2.06-.71-.19-2.1,.46-2.45,1.13-.4,.75-.34,2.18,.14,2.89,1.57,2.32,3.39,4.48,5.18,6.65,.96,1.17,2.13,1.25,3.19,.1,1.91-2.07,3.88-4.09,5.58-6.32,.59-.77,.85-2.27,.49-3.12-.3-.71-1.78-1.44-2.6-1.31-.94,.15-2.1,1.09-2.48,1.98-.66,1.57-.76,3.36-1.16,5.04-.26,1.12-.62,2.21-.94,3.32Zm52.45-.03l-.85-.02c-.22-.83-.49-1.66-.65-2.5-.38-1.94-.53-3.95-1.14-5.81-.27-.84-1.35-1.83-2.18-1.97-.84-.14-2.23,.46-2.68,1.17-.42,.68-.28,2.16,.21,2.88,1.58,2.32,3.39,4.48,5.19,6.64,.98,1.17,2.15,1.15,3.2,0,1.84-2.01,3.78-3.96,5.4-6.14,.62-.84,.88-2.36,.57-3.32-.22-.67-1.86-1.44-2.61-1.24-1,.27-2.08,1.3-2.52,2.27-.63,1.39-.68,3.04-1.03,4.56-.27,1.16-.61,2.31-.91,3.47Zm52-.02h-.94c-.23-.82-.51-1.63-.67-2.46-.38-1.94-.5-3.96-1.14-5.81-.31-.88-1.46-1.8-2.4-2.04-.71-.18-2.1,.48-2.44,1.14-.39,.76-.32,2.17,.17,2.89,1.57,2.32,3.31,4.56,5.24,6.58,.52,.54,2.39,.69,2.89,.23,2.16-2.03,4.14-4.28,6-6.6,1.14-1.41,1.12-2.98-.69-3.97-1.69-.92-3.1-.35-3.97,1.26-.42,.77-.52,1.73-.71,2.61-.46,2.05-.89,4.11-1.33,6.16Zm-154.69,3.95l-.4,.83c.91,1.36,1.77,2.75,2.74,4.07,.99,1.33,2.44,1.74,3.63,.59,1.18-1.14,.63-2.64-.66-3.34-1.66-.91-3.53-1.45-5.31-2.14Zm51.87,.04l-.38,.78c.91,1.36,1.67,2.85,2.79,4.02,.63,.66,1.81,.93,2.78,1.06,.37,.05,1.29-.89,1.22-1.22-.21-.96-.55-2.25-1.27-2.67-1.57-.9-3.41-1.35-5.13-1.98Zm52.45-.06l-.46,.82c.96,1.42,1.7,3.09,2.95,4.18,.75,.66,2.7,.97,3.38,.46,1.29-.95,.72-2.56-.56-3.28-1.66-.93-3.53-1.47-5.31-2.18Zm51.93-.05l-.51,.86c1.01,1.49,1.82,3.19,3.11,4.37,.66,.61,2.18,.3,3.31,.4-.14-1.09,.12-2.75-.49-3.17-1.6-1.11-3.58-1.68-5.41-2.46ZM10.7,8.67l.51-.33c-.74-1.4-1.37-2.89-2.29-4.16-.3-.42-1.37-.3-2.08-.43,.06,.71-.16,1.7,.22,2.08,1.08,1.08,2.41,1.91,3.64,2.84Zm5.33-.29l.47,.38c1.22-.92,2.55-1.73,3.59-2.81,.43-.44,.23-1.48,.32-2.24-.71,.16-1.75,.08-2.07,.52-.93,1.27-1.56,2.75-2.31,4.15Zm47,.26l.51-.36c-.7-1.36-1.26-2.81-2.17-4.01-.34-.45-1.48-.31-2.25-.44,.12,.71,0,1.67,.42,2.09,1.03,1.04,2.31,1.83,3.49,2.73Zm5.4-.33l.47,.44c1.23-.93,2.56-1.77,3.64-2.85,.41-.41,.27-1.37,.38-2.08-.77,.14-1.89,.01-2.24,.47-.93,1.2-1.53,2.66-2.26,4.02Zm46.54,.37l.42-.42c-.6-1.23-1.11-2.53-1.85-3.67-.35-.54-1.1-.91-1.75-1.12-.24-.08-1.03,.6-.99,.83,.11,.65,.38,1.41,.86,1.85,1.02,.94,2.2,1.7,3.32,2.54Zm5.35-.38l.46,.45c1.23-.93,2.55-1.76,3.63-2.84,.42-.41,.29-1.37,.41-2.08-.77,.13-1.89,0-2.24,.44-.93,1.21-1.54,2.67-2.27,4.02Zm46.55,.37l.46-.46c-.72-1.36-1.33-2.8-2.23-4.03-.31-.43-1.37-.31-2.08-.44,.05,.71-.18,1.7,.21,2.08,1.08,1.08,2.41,1.92,3.65,2.85Zm5.36-.28l.43,.37c1.21-.91,2.54-1.72,3.58-2.79,.43-.45,.26-1.48,.36-2.25-.76,.21-1.86,.18-2.23,.67-.89,1.2-1.45,2.65-2.14,4Z"/></g></g></svg>