<?xml version="1.0" encoding="UTF-8"?><svg xmlns="http://www.w3.org/2000/svg" viewBox="0 0 375.73 60.2"><defs><style>.d{fill:#eecaa2;}.e{fill:#221b11;opacity:.79;}</style></defs><g id="a"/><g id="b"><g id="c"><rect class="e" x="1.21" width="374.52" height="60.2"/><path class="d" d="M.61,59.28H359.19c4.85,0,9.69,.02,14.54,0,.21,0,.42,0,.64,0,.47,0,1.27-.88,.54-.88H16.33c-4.85,0-9.69-.02-14.54,0-.21,0-.42,0-.64,0-.47,0-1.27,.88-.54,.88H.61Z"/><path class="d" d="M.65,3.12H359.23c4.85,0,9.69,0,14.54,0,.21,0,.42,0,.64,0,.81,0,.48-1-.17-1H15.65c-4.85,0-9.69,0-14.54,0-.21,0-.42,0-.64,0C-.33,2.12,0,3.12,.65,3.12H.65Z"/></g></g></svg>