<?xml version="1.0" encoding="UTF-8"?><svg xmlns="http://www.w3.org/2000/svg" viewBox="0 0 182.29 129.41"><defs><style>.d{fill:#fff;}</style></defs><g id="a"/><g id="b"><g id="c"><path class="d" d="M182.29,94.43c-11.5,21.46-34.13,34.98-57.61,34.98-10.32,0-20.28-2.2-29.23-6.77-9.29,4.57-19.26,6.77-29.4,6.77C31.42,129.41,0,101.37,0,65.22S30.07,0,66.22,0c10.14,0,20.28,2.53,29.23,6.75C104.41,2.71,113.87,.17,124.5,.17c26.86,0,49.34,16.73,57.28,34.13h-14.03c-10.47-15.54-27.53-22.81-43.58-22.81-5.57,0-11.16,.85-16.56,2.87,16.22,13.01,24.66,31.25,24.66,50.35s-8.78,37.5-24.83,50.35c5.57,2.02,11.32,3.04,16.89,3.04,16.89,0,31.93-7.94,43.92-23.66h14.03Zm-122.99-29.56c0-20.1,8.78-38.35,24.15-50.68-5.41-1.86-11.32-2.87-17.57-2.87-28.21,0-53.39,23.48-53.39,54.06,0,28.21,23.99,52.71,53.55,52.71,6.08,0,11.99-1.02,17.57-3.04-15.54-12.16-24.32-30.58-24.32-50.18Zm12.5,.17c0,17.4,9.12,33.8,24.15,43.94,15.03-10.32,23.82-26.53,23.82-44.1s-8.95-34.29-23.99-44.43c-14.7,9.97-23.99,27.03-23.99,44.6Z"/></g></g></svg>