<?xml version="1.0" encoding="UTF-8"?><svg xmlns="http://www.w3.org/2000/svg" viewBox="0 0 191.57 129.41"><defs><style>.d{fill:#fff;}</style></defs><g id="a"/><g id="b"><g id="c"><path class="d" d="M66.05,129.41C31.42,129.41,0,101.37,0,65.22S30.07,0,66.05,0c10.3,0,20.28,2.37,29.74,6.93C105.08,2.71,115.22,0,125.36,0c35.48,0,66.22,28.21,66.22,64.71s-30.07,64.71-66.22,64.71c-10.3,0-20.28-2.37-29.56-7.1-9.3,4.73-19.44,7.1-29.74,7.1Zm-6.75-64.03c0-20.44,8.61-38.35,24.66-51.02-5.41-2.02-11.32-3.04-18.07-3.04-28.21,0-53.39,23.48-53.39,54.06,0,27.7,23.65,52.71,53.55,52.71,6.25,0,12.16-1.18,18.07-3.22-15.71-12.33-24.83-30.56-24.83-49.49Zm12.5,0c0,16.73,8.27,32.94,23.99,43.76,15.37-10.3,23.98-26.7,23.98-44.27s-8.94-34.13-23.98-44.43c-15.54,10.48-23.99,27.37-23.99,44.94Zm53.55,52.71c29.56,0,53.72-24.33,53.72-53.22S155.75,11.32,125.19,11.32c-5.91,0-11.99,1.02-17.58,3.04,16.4,13.34,24.66,31.25,24.66,50.35s-8.45,37.17-24.49,50.35c5.57,2.02,11.31,3.04,17.57,3.04Z"/></g></g></svg>