<?xml version="1.0" encoding="utf-8"?>
<!-- Generator: Adobe Illustrator 26.1.0, SVG Export Plug-In . SVG Version: 6.00 Build 0)  -->
<svg version="1.1" id="Calque_1" xmlns="http://www.w3.org/2000/svg" xmlns:xlink="http://www.w3.org/1999/xlink" x="0px" y="0px"
	 viewBox="0 0 205.8 6.2" style="enable-background:new 0 0 205.8 6.2;" xml:space="preserve">
<rect x="82" y="1652.4" style="fill:none;" width="312.6" height="12.4"/>
<text transform="matrix(1 0 0 1 81.9557 1656.5826)" style="font-family:'RocGrotesk-ExtraWideLight'; font-size:6px; letter-spacing:60;">2022</text>
<g>
	<path d="M3,2.7C5.2,2.4,5.4,2,5.4,1.5c0-0.5-0.7-1-2-1C1.9,0.6,1.1,1,1.1,1.7c0,0.2,0,0.3,0.1,0.4H0.7c0-0.1-0.1-0.2-0.1-0.5
		c0-0.8,0.9-1.5,2.7-1.5c1.7,0,2.5,0.7,2.5,1.4c0,0.6-0.3,1.1-2.6,1.5C1.1,3.4,1.1,3.5,1.1,3.8H6v0.4H0.6C0.6,3.4,0.6,3.2,3,2.7z"/>
	<path d="M67,2.2c0-1.2,1.1-2,2.9-2c1.8,0,2.9,0.8,2.9,2c0,1.3-1.1,2.1-2.9,2.1C68.1,4.3,67,3.5,67,2.2z M72.4,2.2
		c0-1-0.9-1.6-2.5-1.6c-1.5,0-2.4,0.6-2.4,1.6c0,1,0.9,1.7,2.4,1.7C71.5,3.9,72.4,3.2,72.4,2.2z"/>
	<path d="M136.3,2.7c2.2-0.4,2.3-0.7,2.3-1.2c0-0.5-0.7-1-2-1c-1.5,0-2.3,0.4-2.3,1.1c0,0.2,0,0.3,0.1,0.4H134
		c0-0.1-0.1-0.2-0.1-0.5c0-0.8,0.9-1.5,2.7-1.5c1.7,0,2.5,0.7,2.5,1.4c0,0.6-0.3,1.1-2.6,1.5c-2.1,0.4-2.2,0.5-2.2,0.7h4.9v0.4h-5.4
		C133.8,3.4,133.9,3.2,136.3,2.7z"/>
	<path d="M202.9,2.7c2.2-0.4,2.3-0.7,2.3-1.2c0-0.5-0.7-1-2-1c-1.5,0-2.3,0.4-2.3,1.1c0,0.2,0,0.3,0.1,0.4h-0.4
		c0-0.1-0.1-0.2-0.1-0.5c0-0.8,0.9-1.5,2.7-1.5c1.7,0,2.5,0.7,2.5,1.4c0,0.6-0.3,1.1-2.6,1.5c-2.1,0.4-2.2,0.5-2.2,0.7h4.9v0.4h-5.4
		C200.4,3.4,200.5,3.2,202.9,2.7z"/>
</g>
</svg>
