<svg xmlns="http://www.w3.org/2000/svg" viewBox="0 0 263.09 318.29"><defs><style>.cls-1{fill:#222521;}.cls-2,.cls-3{fill:#6dac45;}.cls-3{font-size:30px;font-family:AvianoFutureBold, Aviano Future;}</style></defs><g id="Calque_2" data-name="Calque 2"><g id="texte"><rect class="cls-1" width="263.09" height="318.29"/><path class="cls-2" d="M132.41,84.86l4.09-4.41L143.25,87S231.9,208.31,132,210.7s-12-122-12-122l8-9.14"/><path d="M156.44,147.85a1.81,1.81,0,0,0-.19-.29c-6.21-7.29-16.09-9-16.09-9-14.53-2.28-21.46,5.6-21.46,5.6-7.89,6.27-5.73,18.59-5.18,20.1a2.21,2.21,0,0,0,.16.35c5.2,9.32,12.46,6.06,13.84,5.32a1.91,1.91,0,0,0,.41-.29l1.35-1.22a2.36,2.36,0,0,1,2.27-.4,1,1,0,0,0,.82-.24c.55-.41.9-.12,1.12.31a2.09,2.09,0,0,0,1.86,1.13h1.5l0-.1a2.11,2.11,0,0,1,.85-2.13l1.34-.94c1.73-2-.43-4.72-1.63-6a2.3,2.3,0,0,0-1.42-.64,4.17,4.17,0,0,1-2.43-1.59,2,2,0,0,0-1.23-.7c-3.49-.54-4.21-2.2-4.32-3.24a2.07,2.07,0,0,1,.3-1.28,8.34,8.34,0,0,1,9.14-3.77c11.47,1.32,14.4,11.55,14.82,13.32a2.16,2.16,0,0,0,.2.52L159.1,175l-2.95-3a2.1,2.1,0,0,0-3.26.3h0c-.58,1.88-1.45,1.88-2.17,3.75s-3.75,3.47-4.33,4.77a12.72,12.72,0,0,1-2.46,3.18c-1,1.16-3.9,1-5.2,1.73s-2.17.58-5.06,1c-2.71.41-9-1-9.75-1.13l-.15,0c-8.92-2.49-16.53-11.86-17.26-22.08a28,28,0,0,1,5.21-17.77C119.45,133.74,135.51,134,138,134.4l.37,0c18.45,3.07,22.22,16.72,22.22,16.72,1.31,2.21-.31,1.13-2.66-.9a2.35,2.35,0,0,1-.49-.6Z"/><text class="cls-3" transform="translate(76.25 283.92)">Alien</text></g></g></svg>