<?xml version="1.0" encoding="utf-8"?>
<!-- Generator: Adobe Illustrator 25.4.1, SVG Export Plug-In . SVG Version: 6.00 Build 0)  -->
<svg version="1.1" id="Calque_1" xmlns="http://www.w3.org/2000/svg" xmlns:xlink="http://www.w3.org/1999/xlink" x="0px" y="0px"
	 viewBox="0 0 4600 70" style="enable-background:new 0 0 4600 70;" xml:space="preserve">
<style type="text/css">
	.st0{enable-background:new    ;}
	.st1{fill:#222221;}
</style>
<g class="st0">
	<path class="st1" d="M717.3,41.9c-0.9,5.4-4.4,9-9.5,9c-5.8,0-10.2-4.3-10.2-12.5c0-8.1,4-13,10.3-13c5.5,0,9,3.8,9.5,8.6h-1.5
		c-0.5-4.2-3.6-7.3-7.9-7.3c-5.5,0-8.8,4.4-8.8,11.6c0,7.3,3.6,11.2,8.6,11.2c4.2,0,7.1-3,8-7.7H717.3z"/>
	<path class="st1" d="M718.7,41.2c0-5.6,3.2-9.3,8.4-9.3c5.1,0,8.3,3.7,8.3,9.3c0,5.6-3.2,9.3-8.3,9.3
		C721.8,50.6,718.7,46.7,718.7,41.2z M734,41.2c0-5-2.6-8.1-6.9-8.1s-6.9,3.1-6.9,8.1c0,4.9,2.6,8.1,6.9,8.1
		C731.4,49.3,734,46.2,734,41.2z"/>
	<path class="st1" d="M737.4,41.2c0-5.6,3.2-9.3,8.4-9.3c5.1,0,8.3,3.7,8.3,9.3c0,5.6-3.2,9.3-8.3,9.3
		C740.6,50.6,737.4,46.7,737.4,41.2z M752.7,41.2c0-5-2.6-8.1-6.9-8.1s-6.9,3.1-6.9,8.1c0,4.9,2.6,8.1,6.9,8.1
		C750.1,49.3,752.7,46.2,752.7,41.2z"/>
	<path class="st1" d="M756.5,50.1V25.9h1.4v24.2H756.5z"/>
	<path class="st1" d="M767.3,50.1l-7.5-17.7h1.7l6.6,15.8l6.4-15.8h1.6l-7.3,17.7H767.3z"/>
	<path class="st1" d="M791.8,44.9c-1,3.6-3.7,5.7-7.2,5.7c-5.5,0-8.2-3.2-8.2-9.6c0-5.5,2.9-9,8-9c5,0,7.7,3.8,7.7,9.6h-14.2
		c0.1,5.2,2.4,7.9,6.7,7.9c2.8,0,4.9-1.6,5.7-4.5H791.8z M790.6,40.5c-0.1-4.5-2.3-7.3-6.2-7.3c-4,0-6.4,2.8-6.4,7.3H790.6z"/>
	<path class="st1" d="M806.3,38.4h1.4v5c0,3.7-2,7.1-6.6,7.1c-4.8,0-6.7-3.3-6.7-7.1V27.6h1.4v4.8h11.9v1.1h-11.9v9.8
		c0,3.3,1.5,6,5.3,6c3.7,0,5.3-2.7,5.3-5.9V38.4z"/>
	<path class="st1" d="M810.3,30.3v-4.4h1.4v4.4H810.3z M810.3,50.1V32.4h1.4v17.7H810.3z"/>
	<path class="st1" d="M829.3,43.7c-0.5,4.1-3.6,6.9-7.5,6.9c-4.5,0-7.5-3.2-7.5-9.5c0-6.3,3.1-9.1,7.7-9.1c4.2,0,7.2,2.6,7.4,6.8
		h-1.5c-0.3-3.6-2.7-5.5-6-5.5c-3.7,0-6.2,2.3-6.2,7.8c0,5.5,2.5,8.3,6.1,8.3c3.1,0,5.7-2.2,6.1-5.7H829.3z"/>
	<path class="st1" d="M844.2,50.1c0-0.1,0-3.9-0.1-4.1c-0.7,2.6-3.6,4.5-7.2,4.5c-4.4,0-6-2-6-5c0-4.2,2.8-5.1,7.4-5.6
		c3.3-0.3,5.7-0.3,5.8-1.5c0-3.5-1.5-5.4-5.6-5.4c-4.1,0-5.6,1.9-5.8,5h-1.4c0.1-3.7,1.9-6.2,7.2-6.2c5.2,0,7,2.5,7,7v11.2H844.2z
		 M844.1,40c-0.6,0.8-2.7,0.7-5.8,1c-3.8,0.4-6,1.1-6,4.4c0,2.5,1.4,4,4.9,4c3.3,0,6.7-2,6.9-5.7V40z"/>
	<path class="st1" d="M856.3,50.1V26.2h16.2v1.3h-14.8v9.4h13.8v1.3h-13.8v10.6h15.3v1.3H856.3z"/>
	<path class="st1" d="M888.4,50.1l-6.3-7.8l-6.3,7.8H874l7.2-8.9l-7-8.8h1.8l6.2,7.7l6.2-7.7h1.7l-7.1,8.8l7.2,8.9H888.4z"/>
	<path class="st1" d="M903.6,38.4h1.4v5c0,3.7-2,7.1-6.6,7.1c-4.8,0-6.7-3.3-6.7-7.1V27.6h1.4v4.8H905v1.1h-11.9v9.8
		c0,3.3,1.5,6,5.3,6c3.7,0,5.3-2.7,5.3-5.9V38.4z"/>
	<path class="st1" d="M907.5,50.1V32.4h1.4v5.2c1.1-4.4,4.2-5.7,7-5.7h1.2v1.5c-0.3,0-0.8-0.1-1.3-0.1c-4.6,0-6.7,3.8-6.7,7.8v8.9
		H907.5z"/>
	<path class="st1" d="M930.3,50.1c0-0.1,0-3.9-0.1-4.1c-0.7,2.6-3.6,4.5-7.2,4.5c-4.4,0-6-2-6-5c0-4.2,2.8-5.1,7.4-5.6
		c3.3-0.3,5.7-0.3,5.8-1.5c0-3.5-1.5-5.4-5.6-5.4c-4.1,0-5.6,1.9-5.8,5h-1.4c0.1-3.7,1.9-6.2,7.2-6.2c5.2,0,7,2.5,7,7v11.2H930.3z
		 M930.3,40c-0.6,0.8-2.7,0.7-5.8,1c-3.8,0.4-6,1.1-6,4.4c0,2.5,1.4,4,4.9,4c3.3,0,6.7-2,6.9-5.7V40z"/>
	<path class="st1" d="M934.3,50.1V26.2h1.5v22.6h14.1v1.3H934.3z"/>
	<path class="st1" d="M952,30.3v-4.4h1.4v4.4H952z M952,50.1V32.4h1.4v17.7H952z"/>
	<path class="st1" d="M970.5,44.7c-0.9,4.1-4.2,5.5-6.9,5.5c-4.9,0-7.8-3.3-7.8-9.1c0-5.9,3.3-9.2,7.7-9.2c2.6,0,5.9,1.3,6.9,5.6
		v-5.1h1.4v17.9c0,5.3-3.6,8.2-8.1,8.2c-4.6,0-8-2.8-8-7.4h1.4c0,3.9,2.9,6.2,6.5,6.2c3.8,0,6.8-2.4,6.8-6.8V44.7z M970.6,41.2
		c0-5.3-2.8-8-6.7-8c-3.9,0-6.6,2.7-6.6,8c0,5.2,2.7,7.8,6.6,7.8C968.4,49,970.6,45.2,970.6,41.2z"/>
	<path class="st1" d="M987.9,50.1V38.8c0-4.5-2-5.7-5.3-5.7c-4.8,0-6.5,4.3-6.5,8.4v8.5h-1.4V25.9h1.4v11.7c0.9-4.1,4.1-5.7,6.9-5.7
		c3.9,0,6.4,1.5,6.4,6.5v11.7H987.9z"/>
	<path class="st1" d="M1004,38.4h1.4v5c0,3.7-2,7.1-6.6,7.1c-4.8,0-6.7-3.3-6.7-7.1V27.6h1.4v4.8h11.9v1.1h-11.9v9.8
		c0,3.3,1.5,6,5.3,6c3.7,0,5.3-2.7,5.3-5.9V38.4z"/>
</g>
<g class="st0">
	<path class="st1" d="M48.4,41.8c-0.9,5.4-4.3,9-9.2,9c-5.7,0-10-4.3-10-12.5c0-8.1,3.9-13,10-13c5.4,0,8.7,3.8,9.2,8.6H48
		c-0.5-4.8-3.9-8.3-8.8-8.3c-5.9,0-9.7,4.8-9.7,12.7c0,8,4.2,12.1,9.6,12.1c4.6,0,7.9-3.4,8.9-8.7H48.4z"/>
	<path class="st1" d="M50,41.1c0-5.6,3.2-9.3,8.2-9.3c5,0,8.1,3.7,8.1,9.3c0,5.6-3.1,9.3-8.1,9.3C53.1,50.5,50,46.7,50,41.1z
		 M66,41.1c0-5.4-3-9-7.7-9c-4.8,0-7.8,3.6-7.8,9c0,5.3,2.9,9,7.8,9C63,50.1,66,46.5,66,41.1z"/>
	<path class="st1" d="M68.5,41.1c0-5.6,3.2-9.3,8.2-9.3c5,0,8.1,3.7,8.1,9.3c0,5.6-3.1,9.3-8.1,9.3C71.6,50.5,68.5,46.7,68.5,41.1z
		 M84.5,41.1c0-5.4-3-9-7.7-9c-4.8,0-7.8,3.6-7.8,9c0,5.3,2.9,9,7.8,9C81.5,50.1,84.5,46.5,84.5,41.1z"/>
	<path class="st1" d="M87.4,50V25.8h0.4V50H87.4z"/>
	<path class="st1" d="M97.7,50l-7.8-17.7h0.5l7.6,17.2l7.3-17.2h0.5L98.1,50H97.7z"/>
	<path class="st1" d="M121.2,44.8c-1,3.6-3.6,5.7-7,5.7c-5.3,0-8-3.2-8-9.6c0-5.5,2.8-9,7.7-9s7.5,3.9,7.5,9.2h-14.9
		c0.1,6,2.6,9.1,7.6,9.1c3.2,0,5.6-1.9,6.6-5.3H121.2z M121.1,40.7c-0.1-5-2.5-8.5-7.1-8.5c-4.7,0-7.4,3.3-7.4,8.5H121.1z"/>
	<path class="st1" d="M136.6,38.3h0.4v5c0,3.7-1.9,7.1-6.4,7.1c-4.6,0-6.5-3.3-6.5-7.1V27.5h0.4v4.8H137v0.4h-12.6v10.7
		c0,3.6,1.8,6.8,6.2,6.8c4.2,0,6.1-3.2,6.1-6.7V38.3z"/>
	<path class="st1" d="M139.8,30.2v-4.4h0.4v4.4H139.8z M139.8,50V32.3h0.4V50H139.8z"/>
	<path class="st1" d="M157.6,43.6c-0.5,4.1-3.5,6.9-7.3,6.9c-4.4,0-7.3-3.2-7.3-9.5c0-6.3,3-9.1,7.5-9.1c4.1,0,7,2.6,7.2,6.8h-0.4
		c-0.3-4.1-3-6.4-6.8-6.4c-4.2,0-7.1,2.7-7.1,8.7c0,6.1,2.8,9.2,7,9.2c3.6,0,6.4-2.5,6.9-6.5H157.6z"/>
	<path class="st1" d="M173.3,50v-4.9c-0.6,3-3.9,5.4-7.8,5.4c-4.5,0-6.1-2-6.1-5c0-3.9,2.6-4.9,7.2-5.3c3.7-0.3,6.6,0,6.8-1.3
		c0-4.2-1.6-6.6-6.4-6.6c-4.7,0-6.5,2.2-6.6,5.9h-0.4c0.1-3.7,1.9-6.2,7-6.2c5.1,0,6.8,2.5,6.8,7V50H173.3z M173.3,39.4
		c-0.6,0.9-3.2,0.8-6.7,1c-4.2,0.4-6.8,1.2-6.8,5c0,2.8,1.5,4.7,5.8,4.7c3.6,0,7.5-2.1,7.8-6.3V39.4z"/>
	<path class="st1" d="M201.5,26.1h0.4V42c0,5.8-3.2,8.8-8.9,8.8c-5.2,0-8.5-2.7-8.5-8.5V26.1h0.4v16.2c0,5.5,3.1,8.1,8.1,8.1
		c5.4,0,8.5-2.9,8.5-8.4V26.1z"/>
	<path class="st1" d="M204.7,50V25.8h0.4V50H204.7z"/>
	<path class="st1" d="M220.5,38.3h0.4v5c0,3.7-1.9,7.1-6.4,7.1c-4.6,0-6.5-3.3-6.5-7.1V27.5h0.4v4.8h12.6v0.4h-12.6v10.7
		c0,3.6,1.8,6.8,6.2,6.8c4.2,0,6.1-3.2,6.1-6.7V38.3z"/>
	<path class="st1" d="M223.7,50V32.3h0.4v6.2c1-5,4.6-6.7,7.6-6.7h1.3v0.4c-0.3,0-0.7,0-1.3,0c-5.2,0-7.6,4.6-7.6,9V50H223.7z"/>
	<path class="st1" d="M246.9,50v-4.9c-0.6,3-3.9,5.4-7.8,5.4c-4.5,0-6.1-2-6.1-5c0-3.9,2.6-4.9,7.2-5.3c3.7-0.3,6.6,0,6.8-1.3
		c0-4.2-1.6-6.6-6.4-6.6c-4.7,0-6.5,2.2-6.6,5.9h-0.4c0.1-3.7,1.9-6.2,7-6.2c5.1,0,6.8,2.5,6.8,7V50H246.9z M246.9,39.4
		c-0.6,0.9-3.2,0.8-6.7,1c-4.2,0.4-6.8,1.2-6.8,5c0,2.8,1.5,4.7,5.8,4.7c3.6,0,7.5-2.1,7.8-6.3V39.4z"/>
	<path class="st1" d="M250.1,50V26.1h0.4v23.5h14.8V50H250.1z"/>
	<path class="st1" d="M267.6,30.2v-4.4h0.4v4.4H267.6z M267.6,50V32.3h0.4V50H267.6z"/>
	<path class="st1" d="M285.9,43.6c-1,4.9-4.8,6.6-7.6,6.6c-4.6,0-7.7-3-7.7-9.1s3.2-9.2,7.7-9.2c2.8,0,6.6,1.4,7.6,6.6v-6.1h0.4
		v17.9c0,5.3-3.5,8.2-7.9,8.2c-4.5,0-7.7-2.8-7.7-7.4h0.4c0,4.5,3.3,7.1,7.4,7.1c4.2,0,7.6-2.7,7.6-7.8V43.6z M285.9,41
		c0-5.8-3.3-8.8-7.6-8.8c-4.3,0-7.4,3-7.4,8.9s3,8.7,7.4,8.7C283.6,49.8,285.9,45.3,285.9,41z"/>
	<path class="st1" d="M303.1,50V38.6c0-5.1-2.4-6.4-6.1-6.4c-5.2,0-7.5,4.6-7.5,9V50h-0.4V25.8h0.4v12.7c0.9-5,4.5-6.7,7.5-6.7
		c3.9,0,6.4,1.3,6.4,6.7V50H303.1z"/>
	<path class="st1" d="M319,38.3h0.4v5c0,3.7-1.9,7.1-6.4,7.1c-4.6,0-6.5-3.3-6.5-7.1V27.5h0.4v4.8h12.6v0.4h-12.6v10.7
		c0,3.6,1.8,6.8,6.2,6.8c4.2,0,6.1-3.2,6.1-6.7V38.3z"/>
</g>
<g class="st0">
	<path class="st1" d="M1051.9,43.2c-1.7,4.8-5.3,8-9.9,8c-4.4,0-7.4-3-7.4-8.6c0-8.2,4.8-14,11.5-14c4.6,0,7.1,3,7.1,6.9
		c0,0.3,0,0.5,0,0.7h-1.4c0-0.3,0-0.5,0-0.7c0-3.7-2.3-5.7-5.9-5.7c-6,0-9.9,5.3-9.9,12.7c0,5.3,2.4,7.6,6.2,7.6
		c3.7,0,6.8-2.7,8.4-6.8H1051.9z"/>
	<path class="st1" d="M1053.1,44.3c0-5.7,3.8-9.9,9.1-9.9c3.9,0,6.1,2.6,6.1,6.6c0,5.8-3.7,10-9,10
		C1055.2,50.9,1053.1,48.2,1053.1,44.3z M1067,41.1c0-3.9-1.8-5.6-5-5.6c-4.5,0-7.6,3.6-7.6,8.7c0,3.6,1.8,5.7,5.1,5.7
		C1064,49.8,1067,46.2,1067,41.1z"/>
	<path class="st1" d="M1069.7,44.3c0-5.7,3.8-9.9,9.1-9.9c3.9,0,6.1,2.6,6.1,6.6c0,5.8-3.7,10-9,10
		C1071.9,50.9,1069.7,48.2,1069.7,44.3z M1083.7,41.1c0-3.9-1.8-5.6-5-5.6c-4.5,0-7.6,3.6-7.6,8.7c0,3.6,1.8,5.7,5.1,5.7
		C1080.6,49.8,1083.7,46.2,1083.7,41.1z"/>
	<path class="st1" d="M1085.5,50.5l3.8-21.5h1.3l-3.8,21.5H1085.5z"/>
	<path class="st1" d="M1095,50.5l-3.8-15.7h1.4l3.4,14l8.2-14h1.5l-9.3,15.7H1095z"/>
	<path class="st1" d="M1117.6,45.9c-1.4,3.2-4.2,5.1-7.3,5.1c-4,0-6-2.2-6-6.4c0-6.1,3.5-10.2,8.7-10.2c3.7,0,5.5,2.3,5.5,6
		c0,0.8-0.1,1.6-0.2,2.5h-12.8c-0.1,0.6-0.1,1.2-0.1,1.7c0,3.5,1.7,5.3,5,5.3c2.5,0,4.6-1.4,5.8-4H1117.6z M1117.2,42
		c0.1-0.7,0.2-1.3,0.2-1.9c0-3-1.7-4.6-4.6-4.6c-3.9,0-6.3,2.8-7.1,6.5H1117.2z"/>
	<path class="st1" d="M1131.5,40.1h1.2l-0.8,4.5c-0.6,3.3-2.9,6.3-7,6.3c-3.6,0-5-2.1-5-4.7c0-0.5,0.1-1.1,0.2-1.6l2.5-14.1h1.2
		l-0.7,4.3h10.6l-0.2,1h-10.6l-1.5,8.7c-0.1,0.6-0.2,1.1-0.2,1.6c0,2.4,1.2,3.7,3.9,3.7c3.3,0,5.1-2.4,5.6-5.3L1131.5,40.1z"/>
	<path class="st1" d="M1133.3,50.5l2.8-15.7h1.3l-2.8,15.7H1133.3z M1136.4,32.9l0.7-3.9h1.3l-0.7,3.9H1136.4z"/>
	<path class="st1" d="M1151.1,44.8c-1.1,3.6-4.2,6.1-7.7,6.1c-3.3,0-5.4-2.2-5.4-6.4c0-6.8,3.5-10.1,8.5-10.1c3.5,0,5.6,2,5.6,5.2
		c0,0.3,0,0.6,0,0.9h-1.3c0-0.3,0.1-0.6,0.1-0.9c0-2.8-1.9-4-4.5-4c-4,0-6.9,2.8-6.9,8.8c0,4,1.7,5.5,4.3,5.5c2.8,0,5.3-1.9,6.3-5
		H1151.1z"/>
	<path class="st1" d="M1163.4,50.5c0-0.1,0.6-3.5,0.6-3.6c-1,2.3-3.9,4-7.1,4c-3.4,0-4.7-1.4-4.7-3.6c0-4.4,2.7-5.3,7.6-5.8
		c3-0.3,5.1-0.3,5.4-1.3c0.1-0.6,0.1-1.1,0.1-1.5c0-2.3-1.2-3.3-4.3-3.3c-3.6,0-5.3,1.7-5.9,4.5h-1.2c0.6-3.3,2.7-5.5,7.4-5.5
		c3.8,0,5.3,1.5,5.3,4.3c0,0.6-0.1,1.2-0.2,1.9l-1.8,10H1163.4z M1164.9,41.5c-0.5,0.5-2.5,0.6-5.3,0.9c-4,0.4-6.1,1.2-6.1,4.6
		c0,2.1,1.1,2.8,3.8,2.8c2.9,0,6.2-1.8,7-5L1164.9,41.5z"/>
	<path class="st1" d="M1174.2,50.5l3.7-21.2h14.4l-0.2,1.2h-13.1l-1.5,8.3h12.3l-0.2,1.2h-12.3l-1.6,9.4h13.6l-0.2,1.2H1174.2z"/>
	<path class="st1" d="M1202.8,50.5l-4.4-6.9l-6.8,6.9h-1.6l7.8-7.9l-4.9-7.8h1.5l4.3,6.8l6.7-6.8h1.6l-7.7,7.8l5,7.9H1202.8z"/>
	<path class="st1" d="M1218,40.1h1.2l-0.8,4.5c-0.6,3.3-2.9,6.3-7,6.3c-3.6,0-5-2.1-5-4.7c0-0.5,0.1-1.1,0.2-1.6l2.5-14.1h1.2
		l-0.7,4.3h10.6l-0.2,1h-10.6l-1.5,8.7c-0.1,0.6-0.2,1.1-0.2,1.6c0,2.4,1.2,3.7,3.9,3.7c3.3,0,5.1-2.4,5.6-5.3L1218,40.1z"/>
	<path class="st1" d="M1219.7,50.5l2.8-15.7h1.2l-0.8,4.6c1.7-3.9,4.7-5.1,7.1-5.1h1l-0.2,1.3c-0.3,0-0.7-0.1-1.2-0.1
		c-4.1,0-6.6,3.4-7.2,6.9l-1.4,7.9H1219.7z"/>
	<path class="st1" d="M1240,50.5c0-0.1,0.6-3.5,0.6-3.6c-1,2.3-3.9,4-7.1,4c-3.4,0-4.7-1.4-4.7-3.6c0-4.4,2.7-5.3,7.6-5.8
		c3-0.3,5.1-0.3,5.4-1.3c0.1-0.6,0.1-1.1,0.1-1.5c0-2.3-1.2-3.3-4.3-3.3c-3.6,0-5.3,1.7-5.9,4.5h-1.2c0.6-3.3,2.7-5.5,7.4-5.5
		c3.8,0,5.3,1.5,5.3,4.3c0,0.6-0.1,1.2-0.2,1.9l-1.8,10H1240z M1241.5,41.5c-0.5,0.5-2.5,0.6-5.3,0.9c-4,0.4-6.1,1.2-6.1,4.6
		c0,2.1,1.1,2.8,3.8,2.8c2.9,0,6.2-1.8,7-5L1241.5,41.5z"/>
	<path class="st1" d="M1243.5,50.5l3.7-21.2h1.3l-3.5,20.1h12.5l-0.2,1.2H1243.5z"/>
	<path class="st1" d="M1259.2,50.5l2.8-15.7h1.3l-2.8,15.7H1259.2z M1262.3,32.9l0.7-3.9h1.3l-0.7,3.9H1262.3z"/>
	<path class="st1" d="M1276.5,45.7c-1.3,3.4-4.6,4.9-7,4.9c-3.7,0-5.7-2.3-5.7-6.2c0-6.3,3.9-10,8.5-10c2.3,0,5.1,1.2,5.3,5l0.8-4.6
		h1.3l-2.8,15.9c-0.8,4.7-4.5,7.3-8.5,7.3c-3.6,0-6-2-6-5.3c0-0.4,0-0.9,0.1-1.3h1.2c-0.1,0.5-0.1,0.9-0.1,1.3
		c0,2.9,2.1,4.1,4.9,4.1c3.3,0,6.5-2.1,7.1-6.1L1276.5,45.7z M1277.3,41c0-3.8-1.9-5.5-4.8-5.5c-4.2,0-7.3,3.2-7.3,8.7
		c0,4,1.9,5.4,4.8,5.4C1274.6,49.6,1277.3,44.6,1277.3,41z"/>
	<path class="st1" d="M1291.1,50.5l1.8-10c0.1-0.7,0.2-1.3,0.2-1.9c0-2.7-1.6-3.1-4-3.1c-4.3,0-6.4,3.8-7.1,7.5l-1.3,7.6h-1.3
		l3.8-21.5h1.3l-1.8,10.4c1.4-3.7,4.5-5.1,7-5.1c2.9,0,4.8,1,4.8,4c0,0.5-0.1,1.1-0.2,1.7l-1.8,10.4H1291.1z"/>
	<path class="st1" d="M1307.3,40.1h1.2l-0.8,4.5c-0.6,3.3-2.9,6.3-7,6.3c-3.6,0-5-2.1-5-4.7c0-0.5,0.1-1.1,0.2-1.6l2.5-14.1h1.2
		l-0.7,4.3h10.6l-0.2,1h-10.6l-1.5,8.7c-0.1,0.6-0.2,1.1-0.2,1.6c0,2.4,1.2,3.7,3.9,3.7c3.3,0,5.1-2.4,5.6-5.3L1307.3,40.1z"/>
	<path class="st1" d="M1316.3,50.5l2.8-15.7h1.3l-2.8,15.7H1316.3z M1319.4,32.9l0.7-3.9h1.3l-0.7,3.9H1319.4z"/>
	<path class="st1" d="M1332.5,40.1h1.2l-0.8,4.5c-0.6,3.3-2.9,6.3-7,6.3c-3.6,0-5-2.1-5-4.7c0-0.5,0.1-1.1,0.2-1.6l2.5-14.1h1.2
		l-0.7,4.3h10.6l-0.2,1h-10.6l-1.5,8.7c-0.1,0.6-0.2,1.1-0.2,1.6c0,2.4,1.2,3.7,3.9,3.7c3.3,0,5.1-2.4,5.6-5.3L1332.5,40.1z"/>
	<path class="st1" d="M1345.6,50.5c0-0.1,0.6-3.5,0.6-3.6c-1,2.3-3.9,4-7.1,4c-3.4,0-4.7-1.4-4.7-3.6c0-4.4,2.7-5.3,7.6-5.8
		c3-0.3,5.1-0.3,5.4-1.3c0.1-0.6,0.1-1.1,0.1-1.5c0-2.3-1.2-3.3-4.3-3.3c-3.6,0-5.3,1.7-5.9,4.5h-1.2c0.6-3.3,2.7-5.5,7.4-5.5
		c3.8,0,5.3,1.5,5.3,4.3c0,0.6-0.1,1.2-0.2,1.9l-1.8,10H1345.6z M1347.1,41.5c-0.5,0.5-2.5,0.6-5.3,0.9c-4,0.4-6.1,1.2-6.1,4.6
		c0,2.1,1.1,2.8,3.8,2.8c2.9,0,6.2-1.8,7-5L1347.1,41.5z"/>
	<path class="st1" d="M1349.3,50.5L1353,29h1.3l-3.8,21.5H1349.3z"/>
	<path class="st1" d="M1353,50.5l2.8-15.7h1.3l-2.8,15.7H1353z M1356.1,32.9l0.7-3.9h1.3l-0.7,3.9H1356.1z"/>
	<path class="st1" d="M1370.9,44.8c-1.1,3.6-4.2,6.1-7.7,6.1c-3.3,0-5.4-2.2-5.4-6.4c0-6.8,3.5-10.1,8.5-10.1c3.5,0,5.6,2,5.6,5.2
		c0,0.3,0,0.6,0,0.9h-1.3c0-0.3,0.1-0.6,0.1-0.9c0-2.8-1.9-4-4.5-4c-4,0-6.9,2.8-6.9,8.8c0,4,1.7,5.5,4.3,5.5c2.8,0,5.3-1.9,6.3-5
		H1370.9z"/>
</g>
<g class="st0">
	<path class="st1" d="M366.5,42.8c-1.6,4.8-5.2,8-9.6,8c-4.3,0-7.2-3-7.2-8.6c0-8.3,4.7-14.1,11.3-14.1c4.4,0,6.8,3,6.8,6.9
		c0,0.3,0,0.5,0,0.8h-0.3c0-0.3,0-0.5,0-0.8c0-4.1-2.4-6.6-6.6-6.6c-6.4,0-10.9,5.7-10.9,13.7c0,5.6,2.8,8.4,6.9,8.4s7.5-3,9.2-7.7
		H366.5z"/>
	<path class="st1" d="M367.9,43.9c0-5.8,3.7-10,9-10c3.8,0,5.9,2.6,5.9,6.6c0,5.8-3.7,10-8.8,10C370,50.5,367.9,47.8,367.9,43.9z
		 M382.4,40.5c0-3.9-2-6.3-5.7-6.3c-5,0-8.5,4-8.5,9.6c0,3.9,2,6.3,5.7,6.3C378.9,50.2,382.4,46.1,382.4,40.5z"/>
	<path class="st1" d="M384.3,43.9c0-5.8,3.7-10,9-10c3.8,0,5.9,2.6,5.9,6.6c0,5.8-3.7,10-8.8,10C386.5,50.5,384.3,47.8,384.3,43.9z
		 M398.9,40.5c0-3.9-2-6.3-5.7-6.3c-5,0-8.5,4-8.5,9.6c0,3.9,2,6.3,5.7,6.3C395.4,50.2,398.9,46.1,398.9,40.5z"/>
	<path class="st1" d="M399.9,50.1l3.8-21.5h0.3l-3.8,21.5H399.9z"/>
	<path class="st1" d="M409.1,50.1l-4.2-15.7h0.4l4,15.3l9.2-15.3h0.4l-9.6,15.7H409.1z"/>
	<path class="st1" d="M418.3,42.1c-0.1,0.7-0.1,1.4-0.1,2.1c0,3.9,1.8,6,5.6,6c2.8,0,5.5-1.7,6.7-4.7h0.4c-1.3,3.2-4.1,5.1-7.1,5.1
		c-3.9,0-5.9-2.1-5.9-6.3c0-6.2,3.4-10.3,8.5-10.3c3.6,0,5.4,2.4,5.4,6c0,0.7-0.1,1.4-0.2,2.2H418.3z M418.4,41.8h13
		c0.1-0.7,0.2-1.3,0.2-1.9c0-3.5-1.7-5.6-5.2-5.6C421.7,34.2,419.1,37.6,418.4,41.8z"/>
	<path class="st1" d="M445.5,39.7h0.3l-0.8,4.5c-0.6,3.3-2.8,6.3-6.8,6.3c-3.5,0-4.8-2-4.8-4.7c0-0.5,0.1-1.1,0.2-1.6l2.5-14.1h0.3
		l-0.7,4.3h11.2l-0.1,0.3h-11.2l-1.7,9.5c-0.1,0.6-0.2,1.1-0.2,1.7c0,2.5,1.3,4.4,4.5,4.4c3.8,0,5.9-2.8,6.5-6L445.5,39.7z"/>
	<path class="st1" d="M446.5,50.1l2.8-15.7h0.3l-2.8,15.7H446.5z M449.6,32.4l0.7-3.9h0.3l-0.7,3.9H449.6z"/>
	<path class="st1" d="M463.3,44.4c-1.1,3.6-4.1,6.1-7.6,6.1c-3.2,0-5.3-2.2-5.3-6.4c0-6.8,3.4-10.2,8.3-10.2c3.4,0,5.4,2,5.4,5.2
		c0,0.3,0,0.6,0,0.9h-0.4c0-0.3,0.1-0.6,0.1-0.9c0-3.2-2-4.8-5.2-4.8c-4.6,0-7.9,3.3-7.9,9.8c0,4.2,1.9,6.1,5,6.1
		c3.2,0,6.1-2.2,7.2-5.8H463.3z"/>
	<path class="st1" d="M476.3,50.1l0.8-4.4c-1,2.7-4.3,4.8-7.8,4.8c-3.4,0-4.8-1.4-4.8-3.6c0-4.2,2.6-5.2,7.3-5.6
		c3.3-0.3,5.9,0,6.2-1.2c0.1-0.7,0.2-1.4,0.2-2c0-2.7-1.4-3.9-4.9-3.9c-4.2,0-6.1,2-6.8,5.2h-0.3c0.6-3.3,2.6-5.5,7.2-5.5
		c3.7,0,5.2,1.5,5.2,4.3c0,0.6-0.1,1.2-0.2,2l-1.8,10H476.3z M477.9,40.7c-0.7,0.8-3,0.7-6.1,0.9c-4.4,0.4-7,1.2-7,5.2
		c0,2.1,1.3,3.3,4.5,3.3c3.2,0,7-1.9,7.9-5.6L477.9,40.7z"/>
	<path class="st1" d="M505,28.8h0.3L502.9,43c-0.9,5.2-4.2,7.8-9.2,7.8c-4,0-6.4-1.8-6.4-5.6c0-0.6,0.1-1.3,0.2-2l2.5-14.4h0.3
		l-2.5,14.4c-0.1,0.7-0.2,1.4-0.2,2c0,3.7,2.3,5.3,6.1,5.3c4.8,0,8-2.6,8.9-7.5L505,28.8z"/>
	<path class="st1" d="M504.1,50.1l3.8-21.5h0.3l-3.8,21.5H504.1z"/>
	<path class="st1" d="M520.1,39.7h0.3l-0.8,4.5c-0.6,3.3-2.8,6.3-6.8,6.3c-3.5,0-4.8-2-4.8-4.7c0-0.5,0.1-1.1,0.2-1.6l2.5-14.1h0.3
		l-0.7,4.3h11.2l-0.1,0.3h-11.2l-1.7,9.5c-0.1,0.6-0.2,1.1-0.2,1.7c0,2.5,1.3,4.4,4.5,4.4c3.8,0,5.9-2.8,6.5-6L520.1,39.7z"/>
	<path class="st1" d="M521,50.1l2.8-15.7h0.3l-1,5.5c1.7-4.4,5.1-6,7.8-6h1.2l-0.1,0.4c-0.3,0-0.6,0-1.2,0c-4.6,0-7.5,4.1-8.1,8
		l-1.4,7.9H521z"/>
	<path class="st1" d="M541.7,50.1l0.8-4.4c-1,2.7-4.3,4.8-7.8,4.8c-3.4,0-4.8-1.4-4.8-3.6c0-4.2,2.6-5.2,7.3-5.6
		c3.3-0.3,5.9,0,6.2-1.2c0.1-0.7,0.2-1.4,0.2-2c0-2.7-1.4-3.9-4.9-3.9c-4.2,0-6.1,2-6.8,5.2h-0.3c0.6-3.3,2.6-5.5,7.2-5.5
		c3.7,0,5.2,1.5,5.2,4.3c0,0.6-0.1,1.2-0.2,2l-1.8,10H541.7z M543.3,40.7c-0.7,0.8-3,0.7-6.1,0.9c-4.4,0.4-7,1.2-7,5.2
		c0,2.1,1.3,3.3,4.5,3.3c3.2,0,7-1.9,7.9-5.6L543.3,40.7z"/>
	<path class="st1" d="M544.5,50.1l3.7-21.2h0.3l-3.7,20.9h13.2l-0.1,0.3H544.5z"/>
	<path class="st1" d="M560.1,50.1l2.8-15.7h0.3l-2.8,15.7H560.1z M563.2,32.4l0.7-3.9h0.3l-0.7,3.9H563.2z"/>
	<path class="st1" d="M577.4,44.3c-1.7,4.4-5.3,5.9-7.8,5.9c-3.5,0-5.7-2.1-5.7-6.2c0-6.5,3.7-10.1,8.5-10.1c2.5,0,5.6,1.2,5.7,5.9
		l1-5.4h0.3l-2.8,15.9c-0.8,4.7-4.4,7.3-8.3,7.3c-3.5,0-5.9-2-5.9-5.2c0-0.4,0-0.9,0.1-1.3h0.3c-0.1,0.5-0.1,0.9-0.1,1.4
		c0,3.2,2.4,4.9,5.6,4.9c3.7,0,7.1-2.4,7.9-7L577.4,44.3z M578,40.4c0-4.5-2.3-6.2-5.5-6.2c-4.6,0-8.2,3.5-8.2,9.7
		c0,4.1,2.1,6,5.4,6C575.1,49.9,578,44.1,578,40.4z"/>
	<path class="st1" d="M591.7,50.1l1.8-10.2c0.1-0.7,0.2-1.4,0.2-1.9c0-3.1-1.8-3.7-4.6-3.7c-4.6,0-7.4,4.1-8,8l-1.4,7.9h-0.3
		l3.8-21.5h0.3l-2,11.3c1.6-4.4,5.1-6,7.7-6c2.9,0,4.9,0.9,4.9,4c0,0.6-0.1,1.2-0.2,2L592,50.1H591.7z"/>
	<path class="st1" d="M607.6,39.7h0.3l-0.8,4.5c-0.6,3.3-2.8,6.3-6.8,6.3c-3.5,0-4.8-2-4.8-4.7c0-0.5,0.1-1.1,0.2-1.6l2.5-14.1h0.3
		l-0.7,4.3h11.2l-0.1,0.3h-11.2l-1.7,9.5c-0.1,0.6-0.2,1.1-0.2,1.7c0,2.5,1.3,4.4,4.5,4.4c3.8,0,5.9-2.8,6.5-6L607.6,39.7z"/>
	<path class="st1" d="M615.8,50.1l2.8-15.7h0.3l-2.8,15.7H615.8z M618.9,32.4l0.7-3.9h0.3l-0.7,3.9H618.9z"/>
	<path class="st1" d="M631.9,39.7h0.3l-0.8,4.5c-0.6,3.3-2.8,6.3-6.8,6.3c-3.5,0-4.8-2-4.8-4.7c0-0.5,0.1-1.1,0.2-1.6l2.5-14.1h0.3
		l-0.7,4.3h11.2l-0.1,0.3h-11.2l-1.7,9.5c-0.1,0.6-0.2,1.1-0.2,1.7c0,2.5,1.3,4.4,4.5,4.4c3.8,0,5.9-2.8,6.5-6L631.9,39.7z"/>
	<path class="st1" d="M644.8,50.1l0.8-4.4c-1,2.7-4.3,4.8-7.8,4.8c-3.4,0-4.8-1.4-4.8-3.6c0-4.2,2.6-5.2,7.3-5.6
		c3.3-0.3,5.9,0,6.2-1.2c0.1-0.7,0.2-1.4,0.2-2c0-2.7-1.4-3.9-4.9-3.9c-4.2,0-6.1,2-6.8,5.2h-0.3c0.6-3.3,2.6-5.5,7.2-5.5
		c3.7,0,5.2,1.5,5.2,4.3c0,0.6-0.1,1.2-0.2,2l-1.8,10H644.8z M646.4,40.7c-0.7,0.8-3,0.7-6.1,0.9c-4.4,0.4-7,1.2-7,5.2
		c0,2.1,1.3,3.3,4.5,3.3c3.2,0,7-1.9,7.9-5.6L646.4,40.7z"/>
	<path class="st1" d="M647.7,50.1l3.8-21.5h0.3L648,50.1H647.7z"/>
	<path class="st1" d="M650.7,50.1l2.8-15.7h0.3l-2.8,15.7H650.7z M653.8,32.4l0.7-3.9h0.3l-0.7,3.9H653.8z"/>
	<path class="st1" d="M667.5,44.4c-1.1,3.6-4.1,6.1-7.6,6.1c-3.2,0-5.3-2.2-5.3-6.4c0-6.8,3.4-10.2,8.3-10.2c3.4,0,5.4,2,5.4,5.2
		c0,0.3,0,0.6,0,0.9H668c0-0.3,0.1-0.6,0.1-0.9c0-3.2-2-4.8-5.2-4.8c-4.6,0-7.9,3.3-7.9,9.8c0,4.2,1.9,6.1,5,6.1
		c3.2,0,6.1-2.2,7.2-5.8H667.5z"/>
</g>
<g class="st0">
	<path class="st1" d="M1421.1,42c-1,5.4-4.5,9-9.8,9c-5.9,0-10.5-4.3-10.5-12.5c0-8.1,4.1-13,10.6-13c5.7,0,9.3,3.8,9.7,8.6h-2.7
		c-0.6-3.7-3.3-6.3-7-6.3c-5,0-7.9,4-7.9,10.5c0,6.6,3.1,10.3,7.7,10.3c3.8,0,6.3-2.6,7.2-6.7H1421.1z"/>
	<path class="st1" d="M1422.2,41.3c0-5.6,3.3-9.3,8.7-9.3c5.3,0,8.5,3.7,8.5,9.3c0,5.6-3.3,9.3-8.5,9.3
		C1425.5,50.6,1422.2,46.8,1422.2,41.3z M1436.9,41.3c0-4.5-2.2-7.2-6-7.2c-3.9,0-6.1,2.7-6.1,7.2c0,4.5,2.2,7.2,6.1,7.2
		C1434.7,48.5,1436.9,45.8,1436.9,41.3z"/>
	<path class="st1" d="M1441.1,41.3c0-5.6,3.3-9.3,8.7-9.3c5.3,0,8.5,3.7,8.5,9.3c0,5.6-3.3,9.3-8.5,9.3
		C1444.4,50.6,1441.1,46.8,1441.1,41.3z M1455.8,41.3c0-4.5-2.2-7.2-6-7.2c-3.9,0-6.1,2.7-6.1,7.2c0,4.5,2.2,7.2,6.1,7.2
		C1453.6,48.5,1455.8,45.8,1455.8,41.3z"/>
	<path class="st1" d="M1460.5,50.2V26h2.5v24.2H1460.5z"/>
	<path class="st1" d="M1471.7,50.2l-7.1-17.7h2.8l5.7,14.4l5.5-14.4h2.7l-7,17.7H1471.7z"/>
	<path class="st1" d="M1497.2,45c-1,3.6-3.8,5.7-7.4,5.7c-5.6,0-8.4-3.2-8.4-9.6c0-5.5,3-9,8.2-9c5.1,0,7.9,3.7,7.9,9.9H1484
		c0.1,4.4,2.2,6.7,5.8,6.7c2.3,0,4.2-1.3,4.9-3.7H1497.2z M1494.9,40.2c-0.1-3.9-2.2-6.2-5.4-6.2c-3.3,0-5.4,2.4-5.5,6.2H1494.9z"/>
	<path class="st1" d="M1510.9,38.5h2.3v5c0,3.7-2.1,7.1-6.8,7.1c-4.9,0-6.9-3.3-6.9-7.1V27.7h2.5v4.8h11.2v1.8H1502v9
		c0,2.9,1.3,5.1,4.4,5.1c3.1,0,4.4-2.2,4.4-5.1V38.5z"/>
	<path class="st1" d="M1515.7,30.3V26h2.5v4.4H1515.7z M1515.7,50.2V32.5h2.5v17.7H1515.7z"/>
	<path class="st1" d="M1535.9,43.8c-0.5,4.1-3.7,6.9-7.7,6.9c-4.6,0-7.7-3.2-7.7-9.5c0-6.3,3.2-9.1,7.9-9.1c4.4,0,7.3,2.6,7.6,6.8
		h-2.6c-0.3-3-2.3-4.7-5.1-4.7c-3.1,0-5.3,2-5.3,6.9c0,5,2.2,7.5,5.2,7.5c2.7,0,4.9-1.8,5.2-4.8H1535.9z"/>
	<path class="st1" d="M1550,50.2c-0.1-0.2-0.1-3-0.1-3.2c-0.8,2.1-3.4,3.7-6.6,3.7c-4.2,0-6-2-6-4.9c0-4.5,3-5.3,7.7-5.8
		c3-0.3,4.7-0.6,4.9-1.7c0-2.7-1.4-4.2-4.7-4.2c-3.4,0-4.8,1.6-4.9,4.2h-2.4c0.1-3.7,2-6.2,7.4-6.2c5.4,0,7.2,2.5,7.2,7v11.2H1550z
		 M1549.9,40.6c-0.5,0.7-2.3,0.7-4.9,1c-3.4,0.4-5.2,1.1-5.2,3.9c0,2.1,1.2,3.3,4,3.3c3,0,5.8-1.9,6-5L1549.9,40.6z"/>
	<path class="st1" d="M1563.1,50.2V26.3h2.7v21.6h13.3v2.3H1563.1z"/>
	<path class="st1" d="M1580.9,30.3V26h2.5v4.4H1580.9z M1580.9,50.2V32.5h2.5v17.7H1580.9z"/>
	<path class="st1" d="M1599.7,45.8c-0.8,3.2-3.7,4.5-6.2,4.5c-5.2,0-7.8-3.7-7.8-9.1c0-5.8,3.3-9.2,7.7-9.2c2.5,0,5.2,1.2,6.3,4.6
		v-4.2h2.5v17.9c0,5.3-3.7,8.2-8.4,8.2c-4.7,0-8.2-2.8-8.2-7.4h2.4c0,3.3,2.4,5.2,5.6,5.2c3.3,0,6-2.1,6-5.8V45.8z M1599.8,41.5
		c0-4.8-2.3-7.2-5.8-7.2c-3.5,0-5.7,2.3-5.7,7.1c0,4.5,2.3,6.9,5.7,6.9C1597.7,48.3,1599.8,45.1,1599.8,41.5z"/>
	<path class="st1" d="M1617.3,50.2V39c0-3.9-1.7-4.9-4.6-4.9c-4.4,0-5.5,4.1-5.5,7.9v8.2h-2.5V26h2.5v10.8c0.8-3.3,3.7-4.8,6.3-4.8
		c3.8,0,6.3,1.7,6.3,6.2v12H1617.3z"/>
	<path class="st1" d="M1633.7,38.5h2.3v5c0,3.7-2.1,7.1-6.8,7.1c-4.9,0-6.9-3.3-6.9-7.1V27.7h2.5v4.8h11.2v1.8h-11.2v9
		c0,2.9,1.3,5.1,4.4,5.1c3.1,0,4.4-2.2,4.4-5.1V38.5z"/>
</g>
<g class="st0">
	<path class="st1" d="M1684.8,42.3c-1.9,5.4-6.1,9-11.4,9c-5.1,0-8.6-3.4-8.6-9.8c0-9.2,5.5-15.7,13.2-15.7c5.4,0,8.2,3.4,8.2,7.8
		c0,0.3,0,0.5,0,0.8h-2.7c0-4.2-2.2-6.3-5.9-6.3c-6.2,0-10,5.6-10,13.1c0,5.6,2.3,7.8,6.2,7.8c3.8,0,6.8-2.6,8.4-6.7H1684.8z"/>
	<path class="st1" d="M1685.9,43.4c0-6.4,4.4-11.1,10.5-11.1c4.5,0,7.1,3,7.1,7.5c0,6.5-4.3,11.2-10.4,11.2
		C1688.4,51,1685.9,47.9,1685.9,43.4z M1701,40c0-4.1-1.7-5.5-5-5.5c-4.6,0-7.5,3.6-7.5,8.8c0,3.9,1.7,5.6,5,5.6
		C1698,48.8,1701,45.2,1701,40z"/>
	<path class="st1" d="M1704.8,43.4c0-6.4,4.4-11.1,10.5-11.1c4.5,0,7.1,3,7.1,7.5c0,6.5-4.3,11.2-10.4,11.2
		C1707.4,51,1704.8,47.9,1704.8,43.4z M1719.9,40c0-4.1-1.7-5.5-5-5.5c-4.6,0-7.5,3.6-7.5,8.8c0,3.9,1.7,5.6,5,5.6
		C1717,48.8,1719.9,45.2,1719.9,40z"/>
	<path class="st1" d="M1722.8,50.5l4.2-24.2h2.5l-4.2,24.2H1722.8z"/>
	<path class="st1" d="M1734,50.5l-4-17.7h2.8l3.1,14.4l8.1-14.4h2.8l-10.2,17.7H1734z"/>
	<path class="st1" d="M1747.7,42.2c-0.1,0.6-0.1,1.2-0.1,1.8c0,3.2,1.7,4.9,4.8,4.9c2.3,0,4.4-1.3,5.5-3.7h2.6
		c-1.7,3.6-4.8,5.7-8.4,5.7c-4.7,0-7-2.4-7-7.2c0-7.3,4-11.4,10-11.4c4.2,0,6.4,2.6,6.4,6.9c0,0.9-0.1,1.9-0.3,3H1747.7z M1759,40.6
		c0.1-0.7,0.2-1.3,0.2-1.9c0-3.1-1.8-4.3-4.5-4.3c-3.4,0-6,1.8-6.8,6.2H1759z"/>
	<path class="st1" d="M1775.2,38.8h2.3l-0.9,5c-0.7,3.7-3.3,7.1-8,7.1c-4.1,0-5.8-2.3-5.8-5.4c0-0.5,0.1-1.1,0.2-1.7l2.8-15.8h2.5
		l-0.8,4.8h11.2l-0.3,1.8h-11.2l-1.6,9c-0.1,0.6-0.2,1.2-0.2,1.7c0,2.3,1.1,3.4,3.7,3.4c3,0,4.9-2.2,5.4-5.1L1775.2,38.8z"/>
	<path class="st1" d="M1778,50.5l3.1-17.7h2.5l-3.1,17.7H1778z M1781.5,30.7l0.8-4.4h2.5l-0.8,4.4H1781.5z"/>
	<path class="st1" d="M1799.4,44.1c-1.2,4.1-4.9,6.9-8.9,6.9c-3.9,0-6.3-2.5-6.3-7.3c0-7.6,4.1-11.3,9.8-11.3c4,0,6.5,2.3,6.5,5.9
		c0,0.3,0,0.6,0,0.9h-2.6c0-0.2,0-0.4,0-0.6c0-2.8-1.7-4.1-4.3-4.1c-3.9,0-6.8,2.8-6.8,8.9c0,4.1,1.7,5.5,4.1,5.5
		c2.7,0,5.2-1.8,6-4.8H1799.4z"/>
	<path class="st1" d="M1812.3,50.5c0-0.3,0.4-3,0.4-3.2c-1.2,2.1-4.1,3.7-7.2,3.7c-3.7,0-5.3-1.6-5.3-4c0-5.2,3.3-6.2,8.8-6.7
		c3.1-0.3,4.8-0.6,5.2-1.7c0.1-0.5,0.1-0.9,0.1-1.3c0-2.1-1.3-3-4.1-3c-3.4,0-5,1.6-5.6,4.2h-2.4c0.7-3.7,3.1-6.2,8.5-6.2
		c4.5,0,6.2,1.8,6.2,4.9c0,0.6-0.1,1.3-0.2,2.1l-2,11.2H1812.3z M1813.9,40.9c-0.6,0.7-2.4,0.7-5.1,1c-4.1,0.5-5.9,1.3-5.9,4.5
		c0,1.9,1,2.7,3.5,2.7c3,0,6.2-1.9,6.9-5L1813.9,40.9z"/>
	<path class="st1" d="M1825.4,50.5l4.2-23.9h2.7l-3.8,21.6h13.3l-0.4,2.3H1825.4z"/>
	<path class="st1" d="M1843.2,50.5l3.1-17.7h2.5l-3.1,17.7H1843.2z M1846.7,30.7l0.8-4.4h2.5l-0.8,4.4H1846.7z"/>
	<path class="st1" d="M1862.8,46.1c-1.4,3.2-4.5,4.5-7,4.5c-4.4,0-6.4-2.9-6.4-7.1c0-6.9,4.5-11.3,9.6-11.3c2.5,0,5,1.2,5.4,4.6
		l0.8-4.2h2.5l-3.2,17.9c-0.9,5.3-5.1,8.2-9.8,8.2c-4.2,0-7-2.3-7-6c0-0.5,0-0.9,0.1-1.4h2.4c-0.1,0.4-0.1,0.8-0.1,1.2
		c0,2.8,2,4,4.8,4c3.4,0,6.3-2.1,7-5.8L1862.8,46.1z M1863.8,40c0-3.8-1.8-5.5-4.7-5.5c-4.3,0-7.1,3.2-7.1,8.7
		c0,3.8,1.8,5.4,4.6,5.4C1861,48.6,1863.8,44.6,1863.8,40z"/>
	<path class="st1" d="M1879.6,50.5l2-11.2c0.1-0.7,0.1-1.3,0.2-1.8c0-2.6-1.5-3.1-3.9-3.1c-4.4,0-6.3,4.1-6.9,7.9l-1.4,8.2h-2.5
		l4.2-24.2h2.5l-1.9,10.8c1.4-3.3,4.5-4.8,7.2-4.8c3.3,0,5.4,1.3,5.4,4.5c0,0.5,0,1-0.1,1.7l-2.1,12H1879.6z"/>
	<path class="st1" d="M1898,38.8h2.3l-0.9,5c-0.7,3.7-3.3,7.1-8,7.1c-4.1,0-5.8-2.3-5.8-5.4c0-0.5,0.1-1.1,0.2-1.7l2.8-15.8h2.5
		l-0.8,4.8h11.2l-0.3,1.8h-11.2l-1.6,9c-0.1,0.6-0.2,1.2-0.2,1.7c0,2.3,1.1,3.4,3.7,3.4c3,0,4.9-2.2,5.4-5.1L1898,38.8z"/>
	<path class="st1" d="M1909.1,50.5l3.1-17.7h2.5l-3.1,17.7H1909.1z M1912.6,30.7l0.8-4.4h2.5l-0.8,4.4H1912.6z"/>
	<path class="st1" d="M1927.6,38.8h2.3l-0.9,5c-0.7,3.7-3.3,7.1-8,7.1c-4.1,0-5.8-2.3-5.8-5.4c0-0.5,0.1-1.1,0.2-1.7l2.8-15.8h2.5
		l-0.8,4.8h11.2l-0.3,1.8h-11.2l-1.6,9c-0.1,0.6-0.2,1.2-0.2,1.7c0,2.3,1.1,3.4,3.7,3.4c3,0,4.9-2.2,5.4-5.1L1927.6,38.8z"/>
	<path class="st1" d="M1942.5,50.5c0-0.3,0.4-3,0.4-3.2c-1.2,2.1-4.1,3.7-7.2,3.7c-3.7,0-5.3-1.6-5.3-4c0-5.2,3.3-6.2,8.8-6.7
		c3.1-0.3,4.8-0.6,5.2-1.7c0.1-0.5,0.1-0.9,0.1-1.3c0-2.1-1.3-3-4.1-3c-3.4,0-5,1.6-5.6,4.2h-2.4c0.7-3.7,3.1-6.2,8.5-6.2
		c4.5,0,6.2,1.8,6.2,4.9c0,0.6-0.1,1.3-0.2,2.1l-2,11.2H1942.5z M1944,40.9c-0.6,0.7-2.4,0.7-5.1,1c-4.1,0.5-5.9,1.3-5.9,4.5
		c0,1.9,1,2.7,3.5,2.7c3,0,6.2-1.9,6.9-5L1944,40.9z"/>
	<path class="st1" d="M1947.4,50.5l4.2-24.2h2.5l-4.2,24.2H1947.4z"/>
	<path class="st1" d="M1952.4,50.5l3.1-17.7h2.5l-3.1,17.7H1952.4z M1955.9,30.7l0.8-4.4h2.5l-0.8,4.4H1955.9z"/>
	<path class="st1" d="M1973.8,44.1c-1.2,4.1-4.9,6.9-8.9,6.9c-3.9,0-6.3-2.5-6.3-7.3c0-7.6,4.1-11.3,9.8-11.3c4,0,6.5,2.3,6.5,5.9
		c0,0.3,0,0.6,0,0.9h-2.6c0-0.2,0-0.4,0-0.6c0-2.8-1.7-4.1-4.3-4.1c-3.9,0-6.8,2.8-6.8,8.9c0,4.1,1.7,5.5,4.1,5.5
		c2.7,0,5.2-1.8,6-4.8H1973.8z"/>
</g>
<g class="st0">
	<path class="st1" d="M2024.4,42.3c-1,5.5-4.7,9-10.2,9c-6,0-10.7-4.2-10.7-12.6c0-7.9,4.2-12.9,10.9-12.9c5.8,0,9.5,3.8,10,8.6
		h-3.9c-0.3-3.3-2.7-5.3-6.1-5.3c-4.6,0-6.9,3.6-6.9,9.5c0,6,2.4,9.3,6.9,9.3c3.6,0,5.7-2.2,6.2-5.7H2024.4z"/>
	<path class="st1" d="M2025.3,41.6c0-5.6,3.4-9.3,8.9-9.3c5.4,0,8.8,3.7,8.8,9.3c0,5.7-3.4,9.4-8.8,9.4
		C2028.6,50.9,2025.3,47.1,2025.3,41.6z M2039.3,41.6c0-4-1.8-6.3-5.1-6.3s-5.2,2.2-5.2,6.3c0,4,1.8,6.3,5.2,6.3
		C2037.5,47.9,2039.3,45.7,2039.3,41.6z"/>
	<path class="st1" d="M2044.4,41.6c0-5.6,3.4-9.3,8.9-9.3c5.4,0,8.8,3.7,8.8,9.3c0,5.7-3.4,9.4-8.8,9.4
		C2047.7,50.9,2044.4,47.1,2044.4,41.6z M2058.4,41.6c0-4-1.8-6.3-5.1-6.3c-3.3,0-5.2,2.2-5.2,6.3c0,4,1.8,6.3,5.2,6.3
		C2056.6,47.9,2058.4,45.7,2058.4,41.6z"/>
	<path class="st1" d="M2064,50.5V26.3h3.6v24.2H2064z"/>
	<path class="st1" d="M2075.7,50.5l-6.7-17.7h4l4.7,13.1l4.6-13.1h3.8l-6.7,17.7H2075.7z"/>
	<path class="st1" d="M2089.6,42.5c0.1,3.5,1.9,5.6,4.8,5.6c2.1,0,3.6-1,4.1-2.8h3.7c-1.1,3.6-3.6,5.7-7.8,5.7
		c-5.5,0-8.4-3.5-8.4-9.3c0-5.9,3.1-9.3,8.3-9.3c5.4,0,8.2,3.6,8.2,10.2H2089.6z M2098.7,40.2c-0.1-3.2-2-5-4.5-5
		c-2.6,0-4.4,1.9-4.6,5H2098.7z"/>
	<path class="st1" d="M2114.9,38.8h3.3v5c0,3.7-2.1,7.1-7,7.1c-5,0-7.1-3.3-7.1-7.1V28h3.6v4.8h10.5v2.6h-10.5v8.1
		c0,2.6,1,4.3,3.6,4.3c2.4,0,3.6-1.7,3.6-4.3V38.8z"/>
	<path class="st1" d="M2120.5,30.6v-4.4h3.6v4.4H2120.5z M2120.5,50.5V32.8h3.6v17.7H2120.5z"/>
	<path class="st1" d="M2142,44.1c-0.5,4.1-3.7,6.9-8,6.9c-4.6,0-7.9-3.2-7.9-9.5c0-6.3,3.3-9.1,8-9.1c4.5,0,7.6,2.5,7.9,6.8h-3.6
		c-0.3-2.6-2.1-3.8-4.2-3.8c-2.5,0-4.4,1.6-4.4,6c0,4.4,1.9,6.6,4.4,6.6c2,0,4-1.3,4.2-3.9H2142z"/>
	<path class="st1" d="M2155.3,50.5c-0.1-0.3-0.2-2-0.2-2.4c-0.9,1.6-2.9,2.9-6.2,2.9c-4,0-5.8-1.9-5.8-5.2c0-4.6,3.7-5.2,7.9-5.8
		c2.6-0.4,3.8-0.5,3.9-1.8c0-1.9-1.3-3-3.9-3c-2.8,0-3.9,1.3-4.1,3.4h-3.3c0.1-3.7,2-6.2,7.6-6.2c5.5,0,7.4,2.5,7.4,7v11.2H2155.3z
		 M2155,41.3c-0.5,0.6-2.1,0.8-4,1c-2.8,0.5-4.4,1.1-4.4,3.3c0,1.8,1,2.7,3.1,2.7c3,0,5.1-1.9,5.2-4.5L2155,41.3z"/>
	<path class="st1" d="M2169.3,50.5V26.6h11.3c4.7,0,7,2.6,7,6.1c0,2.9-1.7,4.4-3.3,4.9c1.9,0.6,4.1,2.1,4.1,5.9c0,4.4-2.8,7-8.7,7
		H2169.3z M2173,29.8v6.5h7.2c2.4,0,3.7-1.2,3.7-3.3c0-2.1-1.2-3.2-4-3.2H2173z M2179.9,47.3c3.1,0,4.7-1.7,4.7-4.2
		c0-2.6-1.7-3.7-4.3-3.7h-7.3v7.9H2179.9z"/>
	<path class="st1" d="M2189.2,41.6c0-5.6,3.4-9.3,8.9-9.3c5.4,0,8.8,3.7,8.8,9.3c0,5.7-3.4,9.4-8.8,9.4
		C2192.5,50.9,2189.2,47.1,2189.2,41.6z M2203.2,41.6c0-4-1.8-6.3-5.1-6.3c-3.3,0-5.2,2.2-5.2,6.3c0,4,1.8,6.3,5.2,6.3
		C2201.4,47.9,2203.2,45.7,2203.2,41.6z"/>
	<path class="st1" d="M2208.3,41.6c0-5.6,3.4-9.3,8.9-9.3c5.4,0,8.8,3.7,8.8,9.3c0,5.7-3.4,9.4-8.8,9.4
		C2211.7,50.9,2208.3,47.1,2208.3,41.6z M2222.4,41.6c0-4-1.8-6.3-5.1-6.3s-5.2,2.2-5.2,6.3c0,4,1.8,6.3,5.2,6.3
		C2220.6,47.9,2222.4,45.7,2222.4,41.6z"/>
	<path class="st1" d="M2239.6,50.5l-4.8-8.6l-3.3,3.2v5.4h-3.6V26.3h3.6v14.6l7.8-8.1h4.4l-6.3,6.6l6.2,11.1H2239.6z"/>
</g>
<g class="st0">
	<path class="st1" d="M2640.2,42.3c-1,5.4-4.8,9-10.3,9c-6.3,0-11-4.3-11-12.5c0-8.1,4.3-13,11.1-13c6,0,9.8,3.8,10.2,8.6h-5
		c-0.7-2.7-2.8-4.3-5.2-4.3c-4.1,0-6.1,3.2-6.1,8.4c0,5.3,1.9,8.4,5.8,8.4c3,0,4.8-1.7,5.4-4.7H2640.2z"/>
	<path class="st1" d="M2640.9,41.6c0-5.6,3.5-9.3,9.1-9.3c5.5,0,9,3.7,9,9.3c0,5.6-3.5,9.3-9,9.3
		C2644.3,50.9,2640.9,47.1,2640.9,41.6z M2654.3,41.6c0-3.6-1.4-5.4-4.3-5.4c-2.8,0-4.3,1.8-4.3,5.4s1.4,5.4,4.3,5.4
		C2652.9,47,2654.3,45.2,2654.3,41.6z"/>
	<path class="st1" d="M2660.4,41.6c0-5.6,3.5-9.3,9.1-9.3c5.5,0,9,3.7,9,9.3c0,5.6-3.5,9.3-9,9.3
		C2663.7,50.9,2660.4,47.1,2660.4,41.6z M2673.7,41.6c0-3.6-1.4-5.4-4.3-5.4c-2.8,0-4.3,1.8-4.3,5.4s1.4,5.4,4.3,5.4
		C2672.3,47,2673.7,45.2,2673.7,41.6z"/>
	<path class="st1" d="M2680.2,50.5V26.3h4.7v24.2H2680.2z"/>
	<path class="st1" d="M2692.3,50.5l-6.3-17.7h5.2l3.7,11.7l3.7-11.7h4.9l-6.4,17.7H2692.3z"/>
	<path class="st1" d="M2707.9,42.8c0.1,2.7,1.7,4.4,4,4.4c1.5,0,2.8-0.8,3.2-2h4.8c-1.1,3.6-4,5.7-7.8,5.7c-5.9,0-8.9-3.2-8.9-9.6
		c0-5.5,3.1-9,8.6-9s8.3,3.5,8.3,10.5H2707.9z M2715.3,39.9c-0.1-2.6-1.8-3.9-3.6-3.9c-1.9,0-3.4,1.4-3.6,3.9H2715.3z"/>
	<path class="st1" d="M2731.8,38.8h4.4v5c0,3.7-2.2,7.1-7.2,7.1c-5.2,0-7.2-3.3-7.2-7.1V28h4.6v4.8h9.8v3.3h-9.8v7.3
		c0,2.2,0.8,3.5,2.7,3.5c1.9,0,2.7-1.3,2.7-3.5V38.8z"/>
	<path class="st1" d="M2738.1,30.6v-4.4h4.7v4.4H2738.1z M2738.1,50.5V32.7h4.7v17.7H2738.1z"/>
	<path class="st1" d="M2760.9,44c-0.5,4.1-3.9,6.9-8.1,6.9c-4.8,0-8.1-3.2-8.1-9.5c0-6.3,3.3-9.1,8.3-9.1c4.6,0,7.7,2.6,8,6.8h-4.7
		c-0.3-1.8-1.6-2.9-3.3-2.9c-2,0-3.6,1.3-3.6,5.1s1.6,5.7,3.5,5.7s3.3-1,3.5-3H2760.9z"/>
	<path class="st1" d="M2773.4,50.5c-0.1-0.4-0.3-1-0.3-1.6c-1.1,1.2-3,2.1-5.4,2.1c-4,0-5.9-2-5.9-4.9c0-5.1,3.4-5.7,8.1-6.3
		c2.3-0.3,3-0.8,3-2c0-1.2-1.2-1.8-3-1.8c-2.1,0-3,1-3.2,2.6h-4.4c0.1-3.7,2.1-6.2,7.8-6.2c5.6,0,7.6,2.5,7.6,7v11.2H2773.4z
		 M2773,41.8c-0.5,0.5-1.3,0.7-3,1c-2.7,0.5-3.5,1.3-3.5,2.8c0,1.3,0.8,2,2.3,2c2.4,0,4.2-1.8,4.2-3.9L2773,41.8z"/>
	<path class="st1" d="M2802.3,50.5v-6.2c0-2.3-0.9-3.2-3.7-3.2h-5.3v9.4h-4.9V26.6h12.1c4.4,0,7.3,3,7.3,6.9c0,2.6-1.3,4.7-3.6,5.5
		c2.1,0.7,2.9,1.9,2.9,4.7v6.8H2802.3z M2793.2,30.7v6.4h6.3c2.7,0,3.7-1.3,3.7-3.2c0-1.9-1-3.2-3.5-3.2H2793.2z"/>
	<path class="st1" d="M2813.5,42.8c0.1,2.7,1.7,4.4,4,4.4c1.5,0,2.8-0.8,3.2-2h4.8c-1.1,3.6-4,5.7-7.8,5.7c-5.9,0-8.9-3.2-8.9-9.6
		c0-5.5,3.1-9,8.6-9s8.3,3.5,8.3,10.5H2813.5z M2820.9,39.9c-0.1-2.6-1.8-3.9-3.6-3.9c-1.9,0-3.4,1.4-3.6,3.9H2820.9z"/>
	<path class="st1" d="M2839.7,48.1c-0.6,1.6-2.6,2.5-4.9,2.5c-5.8,0-7.8-4.5-7.8-9.1c0-5.5,3.5-9.2,7.7-9.2c2.2,0,3.9,0.9,5,2.7
		v-2.2h4.7v17.9c0,5.3-3.9,8.2-8.8,8.2c-4.9,0-8.6-2.8-8.6-7.4h4.4c0,2.1,1.5,3.4,3.9,3.4c2.5,0,4.5-1.5,4.5-3.8V48.1z M2839.8,42
		c0-3.9-1.3-5.7-4-5.7c-2.6,0-4,1.8-4,5.4c0,3.2,1.7,5.2,4,5.2C2838.1,46.9,2839.8,45,2839.8,42z"/>
	<path class="st1" d="M2858,50.5V48c-1.2,2-3.1,3-5.5,3c-3.5,0-6-2.6-6-6.5V32.7h4.7v10.9c0,2.2,1,3.3,3,3.3c2.4,0,3.6-1.7,3.6-4
		V32.7h4.6v17.7H2858z"/>
	<path class="st1" d="M2864.4,50.5V26.3h4.7v24.2H2864.4z"/>
	<path class="st1" d="M2882.2,50.5c-0.1-0.4-0.3-1-0.3-1.6c-1.1,1.2-3,2.1-5.4,2.1c-4,0-5.9-2-5.9-4.9c0-5.1,3.4-5.7,8.1-6.3
		c2.3-0.3,3-0.8,3-2c0-1.2-1.2-1.8-3-1.8c-2.1,0-3,1-3.2,2.6h-4.4c0.1-3.7,2.1-6.2,7.8-6.2c5.6,0,7.6,2.5,7.6,7v11.2H2882.2z
		 M2881.9,41.8c-0.5,0.5-1.3,0.7-3,1c-2.7,0.5-3.5,1.3-3.5,2.8c0,1.3,0.8,2,2.3,2c2.4,0,4.2-1.8,4.2-3.9L2881.9,41.8z"/>
	<path class="st1" d="M2888.6,50.5V32.7h4.4v2.1c1.5-2.4,3.3-2.6,5.3-2.6h0.6v4.8c-0.4-0.1-0.9-0.1-1.3-0.1c-2.9,0-4.3,1.4-4.3,4.3
		v9.2H2888.6z"/>
</g>
<g class="st0">
	<path class="st1" d="M2293.6,42.6c-1.9,5.4-6.2,9-11.6,9c-5.3,0-8.9-3.4-8.9-9.8c0-9.3,5.6-15.7,13.5-15.7c5.5,0,8.5,3.4,8.5,7.9
		c0,0.3,0,0.5,0,0.8h-3.9c0-0.3,0-0.5,0-0.7c0-3.4-2-4.6-5.2-4.6c-5.8,0-9,5.2-9,11.9c0,5,1.9,6.9,5.4,6.9c3.8,0,6.2-2.2,7.3-5.7
		H2293.6z"/>
	<path class="st1" d="M2294.4,43.7c0-6.4,4.4-11.1,10.7-11.1c4.7,0,7.3,3,7.3,7.5c0,6.5-4.4,11.1-10.6,11.1
		C2297,51.2,2294.4,48.1,2294.4,43.7z M2308.8,40.4c0-3.5-1.4-4.7-4.2-4.7c-4.1,0-6.5,3.1-6.5,7.8c0,3.4,1.5,4.8,4.3,4.8
		C2306.4,48.2,2308.8,45.1,2308.8,40.4z"/>
	<path class="st1" d="M2313.5,43.7c0-6.4,4.4-11.1,10.7-11.1c4.7,0,7.3,3,7.3,7.5c0,6.5-4.4,11.1-10.6,11.1
		C2316.2,51.2,2313.5,48.1,2313.5,43.7z M2327.9,40.4c0-3.5-1.4-4.7-4.2-4.7c-4.1,0-6.5,3.1-6.5,7.8c0,3.4,1.5,4.8,4.3,4.8
		C2325.6,48.2,2327.9,45.1,2327.9,40.4z"/>
	<path class="st1" d="M2331.7,50.8l4.2-24.2h3.6l-4.2,24.2H2331.7z"/>
	<path class="st1" d="M2343.4,50.8l-3.6-17.7h4l2.4,13.1l6.9-13.1h3.9l-9.8,17.7H2343.4z"/>
	<path class="st1" d="M2358.6,42.8c0,0.4,0,0.8,0,1.1c0,3.3,1.4,4.5,4,4.5c1.9,0,3.7-1,4.5-2.8h3.7c-1.7,3.6-4.9,5.7-8.6,5.7
		c-4.8,0-7.2-2.5-7.2-7.3c0-7.2,4.4-11.4,10.3-11.4c4.4,0,6.6,2.5,6.6,7.1c0,1-0.1,2-0.3,3.2H2358.6z M2368.3,40.5
		c0.1-0.6,0.1-1.1,0.1-1.5c0-2.8-1.5-3.5-3.7-3.5c-2.7,0-4.9,1.7-5.7,5H2368.3z"/>
	<path class="st1" d="M2384.7,39.1h3.3l-0.9,5c-0.7,3.7-3.3,7.1-8.2,7.1c-4.3,0-6-2.4-6-5.4c0-0.5,0.1-1.1,0.2-1.7l2.8-15.8h3.6
		l-0.8,4.8h10.5l-0.5,2.6h-10.5l-1.4,8.1c-0.1,0.6-0.1,1.1-0.1,1.6c0,1.9,0.9,2.7,3,2.7c2.4,0,3.9-1.7,4.3-4.3L2384.7,39.1z"/>
	<path class="st1" d="M2388.3,50.8l3.1-17.7h3.6l-3.1,17.7H2388.3z M2391.8,30.9l0.8-4.4h3.6l-0.8,4.4H2391.8z"/>
	<path class="st1" d="M2410.9,44.4c-1.2,4.1-4.9,6.9-9.1,6.9c-4,0-6.6-2.5-6.6-7.3c0-7.6,4.1-11.3,10-11.3c4.1,0,6.7,2.3,6.7,5.9
		c0,0.3,0,0.6,0,0.9h-3.6V39c0-2.5-1.4-3.3-3.6-3.3c-3.2,0-5.7,2.3-5.7,8.1c0,3.3,1.4,4.5,3.4,4.5c2.3,0,4.3-1.4,5-3.9H2410.9z"/>
	<path class="st1" d="M2423,50.8c0-0.3,0.2-2,0.2-2.4c-1.3,1.7-3.7,2.9-6.5,2.9c-3.6,0-5.2-1.6-5.2-4c0-5.5,3.5-6.3,9.1-6.9
		c3.4-0.4,4.3-0.8,4.3-2.7c0-1.6-1.2-2.2-3.4-2.2c-2.8,0-4.1,1.3-4.6,3.4h-3.3c0.7-3.7,3.1-6.2,8.6-6.2c4.6,0,6.3,1.8,6.3,4.9
		c0,0.6-0.1,1.3-0.2,2.1l-2,11.2H2423z M2424.4,41.6c-0.6,0.6-1.9,0.7-4.1,1c-3.7,0.5-5,1.4-5,3.9c0,1.6,0.9,2.1,2.7,2.1
		c2.6,0,5.4-1.8,5.9-4.5L2424.4,41.6z"/>
	<path class="st1" d="M2437,50.8l4.2-23.9h11.3c4.1,0,6,2,6,5.1c0,3.2-2.2,5.3-4.3,5.9c1.7,0.5,3.2,1.9,3.2,4.7
		c0,4.9-3.3,8.2-10.1,8.2H2437z M2442.7,39.7l-1.4,7.9h6.9c3.5,0,5.5-2.1,5.5-4.9c0-2.5-1.4-3.1-3.7-3.1H2442.7z M2444.4,30.1
		l-1.2,6.5h7.2c2.8,0,4.4-1.5,4.4-4c0-2.1-1-2.6-3.5-2.6H2444.4z"/>
	<path class="st1" d="M2458.3,43.7c0-6.4,4.4-11.1,10.7-11.1c4.7,0,7.3,3,7.3,7.5c0,6.5-4.4,11.1-10.6,11.1
		C2461,51.2,2458.3,48.1,2458.3,43.7z M2472.7,40.4c0-3.5-1.4-4.7-4.2-4.7c-4.1,0-6.5,3.1-6.5,7.8c0,3.4,1.5,4.8,4.3,4.8
		C2470.4,48.2,2472.7,45.1,2472.7,40.4z"/>
	<path class="st1" d="M2477.5,43.7c0-6.4,4.4-11.1,10.7-11.1c4.7,0,7.3,3,7.3,7.5c0,6.5-4.4,11.1-10.6,11.1
		C2480.1,51.2,2477.5,48.1,2477.5,43.7z M2491.9,40.4c0-3.5-1.4-4.7-4.2-4.7c-4.1,0-6.5,3.1-6.5,7.8c0,3.4,1.5,4.8,4.3,4.8
		C2489.5,48.2,2491.9,45.1,2491.9,40.4z"/>
	<path class="st1" d="M2507.5,50.8l-3.3-8.7l-3.9,3.3l-1,5.4h-3.6l4.2-24.2h3.6l-2.5,14.5l9.1-8h4.6l-7.5,6.6l4.2,11.1H2507.5z"/>
	<path class="st1" d="M2521.5,50.8l3.1-17.7h3.6l-3.1,17.7H2521.5z M2525,30.9l0.8-4.4h3.6l-0.8,4.4H2525z"/>
	<path class="st1" d="M2540.1,39.1h3.3l-0.9,5c-0.7,3.7-3.3,7.1-8.2,7.1c-4.3,0-6-2.4-6-5.4c0-0.5,0.1-1.1,0.2-1.7l2.8-15.8h3.6
		l-0.8,4.8h10.5l-0.5,2.6h-10.5l-1.4,8.1c-0.1,0.6-0.1,1.1-0.1,1.6c0,1.9,0.9,2.7,3,2.7c2.4,0,3.9-1.7,4.3-4.3L2540.1,39.1z"/>
	<path class="st1" d="M2555.3,50.8c0-0.3,0.2-2,0.2-2.4c-1.3,1.7-3.7,2.9-6.5,2.9c-3.6,0-5.2-1.6-5.2-4c0-5.5,3.5-6.3,9.1-6.9
		c3.4-0.4,4.3-0.8,4.3-2.7c0-1.6-1.2-2.2-3.4-2.2c-2.8,0-4.1,1.3-4.6,3.4h-3.3c0.7-3.7,3.1-6.2,8.6-6.2c4.6,0,6.3,1.8,6.3,4.9
		c0,0.6-0.1,1.3-0.2,2.1l-2,11.2H2555.3z M2556.6,41.6c-0.6,0.6-1.9,0.7-4.1,1c-3.7,0.5-5,1.4-5,3.9c0,1.6,0.9,2.1,2.7,2.1
		c2.6,0,5.4-1.8,5.9-4.5L2556.6,41.6z"/>
	<path class="st1" d="M2560.9,50.8l4.2-24.2h3.6l-4.2,24.2H2560.9z"/>
	<path class="st1" d="M2566.8,50.8l3.1-17.7h3.6l-3.1,17.7H2566.8z M2570.3,30.9l0.8-4.4h3.6l-0.8,4.4H2570.3z"/>
	<path class="st1" d="M2589.4,44.4c-1.2,4.1-4.9,6.9-9.1,6.9c-4,0-6.6-2.5-6.6-7.3c0-7.6,4.1-11.3,10-11.3c4.1,0,6.7,2.3,6.7,5.9
		c0,0.3,0,0.6,0,0.9h-3.6V39c0-2.5-1.4-3.3-3.6-3.3c-3.2,0-5.7,2.3-5.7,8.1c0,3.3,1.4,4.5,3.4,4.5c2.3,0,4.3-1.4,5-3.9H2589.4z"/>
</g>
<g class="st0">
	<path class="st1" d="M2947.7,42.3c-1.8,5.1-6,8.5-11.2,8.5c-5.1,0-8.6-3.3-8.6-9.3c0-8.7,5.3-14.8,13-14.8c5.3,0,8.3,3.2,8.3,7.4
		c0,0.2,0,0.5,0,0.7h-4.7c-0.2-3.1-1.9-4.1-4.2-4.1c-5.1,0-7.4,4.6-7.4,10.2c0,4.2,1.4,5.7,4.4,5.7c2.8,0,4.8-1.6,5.9-4.4H2947.7z"
		/>
	<path class="st1" d="M2948.3,43.3c0-6.1,4.2-10.4,10.3-10.4c4.5,0,7.1,2.8,7.1,7.1c0,6.1-4.2,10.5-10.2,10.5
		C2950.8,50.5,2948.3,47.6,2948.3,43.3z M2961.3,40.3c0-3-1.1-3.7-3.3-3.7c-3.5,0-5.1,2.5-5.1,6.4c0,2.9,1.1,3.7,3.3,3.7
		C2959.6,46.8,2961.3,44.3,2961.3,40.3z"/>
	<path class="st1" d="M2966.6,43.3c0-6.1,4.2-10.4,10.3-10.4c4.5,0,7.1,2.8,7.1,7.1c0,6.1-4.2,10.5-10.2,10.5
		C2969.2,50.5,2966.6,47.6,2966.6,43.3z M2979.6,40.3c0-3-1.1-3.7-3.3-3.7c-3.5,0-5.1,2.5-5.1,6.4c0,2.9,1.1,3.7,3.3,3.7
		C2977.9,46.8,2979.6,44.3,2979.6,40.3z"/>
	<path class="st1" d="M2984,50l4-22.8h4.4l-4,22.8H2984z"/>
	<path class="st1" d="M2995.5,50l-3-16.7h4.8l1.5,11l5.5-11h4.8l-9,16.7H2995.5z"/>
	<path class="st1" d="M3011.5,42.8v0.8c0,2.4,1.1,3.4,3.1,3.4c1.4,0,2.8-0.7,3.3-1.9h4.6c-1.6,3.4-4.7,5.4-8.3,5.4
		c-4.7,0-7-2.4-7-6.9c0-6.5,3.9-10.7,9.9-10.7c4.2,0,6.4,2.2,6.4,6.7c0,1-0.1,2.1-0.3,3.3H3011.5z M3019,40c0.1-0.4,0.1-0.7,0.1-1
		c0-2.1-1.4-2.7-2.9-2.7c-2.2,0-3.6,1.6-4.2,3.7H3019z"/>
	<path class="st1" d="M3038,43.8c-0.6,3.5-3.2,6.7-7.9,6.7c-4.1,0-5.8-2.2-5.8-5.1c0-0.5,0-1.1,0.1-1.6l2.6-15h4.4l-0.8,4.5h9.2
		l-0.5,3.1h-9.2l-1.2,6.9c-0.1,0.5-0.1,1-0.1,1.3c0,1.5,0.7,2,2.1,2c1.7,0,2.8-1.2,3.2-3.3l0.7-4.4h4.1L3038,43.8z"/>
	<path class="st1" d="M3038.8,50l3-16.7h4.4l-3,16.7H3038.8z M3042.1,31.3l0.7-4.1h4.4l-0.7,4.1H3042.1z"/>
	<path class="st1" d="M3057.8,39.3c0-0.2,0-0.3,0-0.5c0-1.7-1.2-2.3-2.7-2.3c-2.3,0-4.4,1.7-4.4,6.3c0,3,1.1,3.9,2.5,3.9
		c1.7,0,3.3-1,3.7-2.8h4.5c-1.2,3.9-4.8,6.5-8.8,6.5c-3.9,0-6.3-2.4-6.3-7c0-7.2,3.9-10.6,9.6-10.6c4,0,6.5,2.1,6.5,5.6
		c0,0.3,0,0.5,0,0.8H3057.8z"/>
	<path class="st1" d="M3072,50c0-0.2-0.1-0.4-0.1-0.7c0-0.2,0-0.5,0.1-0.8c-1.3,1.2-3.2,1.9-5.4,1.9c-3.3,0-4.9-1.5-4.9-3.8
		c0-5,3.5-6.1,8.8-6.8c3-0.4,3.2-1,3.2-1.9c0-1.4-1-1.7-2.5-1.7c-2,0-3,1-3.4,2.5h-4.1c0.7-3.5,3-5.9,8.4-5.9c4.5,0,6.2,1.7,6.2,4.7
		c0,0.6-0.1,1.2-0.2,1.9l-1.9,10.6H3072z M3073.2,41.8c-0.5,0.4-1.3,0.7-3,1c-3.2,0.6-3.8,1.4-3.8,3c0,1.1,0.8,1.5,2,1.5
		c2.1,0,4.1-1.7,4.5-3.6L3073.2,41.8z"/>
	<path class="st1" d="M3099.3,50l1-5.8c0.1-0.4,0.1-0.8,0.1-1.1c0-1.5-0.9-1.9-3.1-1.9h-5l-1.6,8.8h-4.6l4-22.6h11.5
		c3.7,0,5.9,2.3,5.9,5.5c0,2.8-1.7,5.3-4.4,6.3c1.5,0.5,2.1,1.3,2.1,2.9c0,0.4-0.1,1-0.2,1.6L3104,50H3099.3z M3094.1,31.4l-1.1,6
		h5.9c3,0,4-1.6,4-3.6c0-1.9-0.8-2.4-2.8-2.4H3094.1z"/>
	<path class="st1" d="M3111.2,42.8v0.8c0,2.4,1.1,3.4,3.1,3.4c1.4,0,2.8-0.7,3.3-1.9h4.6c-1.6,3.4-4.7,5.4-8.3,5.4
		c-4.7,0-7-2.4-7-6.9c0-6.5,3.9-10.7,9.9-10.7c4.2,0,6.4,2.2,6.4,6.7c0,1-0.1,2.1-0.3,3.3H3111.2z M3118.7,40c0.1-0.4,0.1-0.7,0.1-1
		c0-2.1-1.4-2.7-2.9-2.7c-2.2,0-3.6,1.6-4.2,3.7H3118.7z"/>
	<path class="st1" d="M3135.1,47.8c-0.9,1.5-2.9,2.4-5,2.4c-4.5,0-6.1-3.2-6.1-6.7c0-6.3,4.4-10.6,9-10.6c2.1,0,3.5,0.8,4.2,2.5
		l0.4-2.1h4.4l-3,16.9c-0.9,5-5,7.8-9.7,7.8c-4.2,0-7-2.1-7-5.7c0-0.4,0.1-0.9,0.1-1.3h4.1c0,0.2,0,0.4,0,0.6c0,1.8,1.2,2.5,3.2,2.5
		c2.4,0,4.4-1.4,4.8-3.6L3135.1,47.8z M3136.4,40.4c0-2.6-1-3.7-3-3.7c-3.2,0-4.8,2.5-4.8,6.2c0,2.8,1.2,3.8,3,3.8
		C3134.1,46.7,3136.4,44.4,3136.4,40.4z"/>
	<path class="st1" d="M3151.9,50l0.4-2.3c-1.5,1.9-3.4,2.8-5.7,2.8c-2.9,0-4.7-1.9-4.7-4.8c0-0.4,0-0.9,0.1-1.4l1.9-11h4.4
		l-1.8,10.3c-0.1,0.4-0.1,0.8-0.1,1.2c0,1.6,0.8,2,2.4,2c2.2,0,3.7-1.6,4.1-3.8l1.7-9.7h4.4l-3,16.7H3151.9z"/>
	<path class="st1" d="M3158.1,50l4-22.8h4.4l-4,22.8H3158.1z"/>
	<path class="st1" d="M3174.8,50c0-0.2-0.1-0.4-0.1-0.7c0-0.2,0-0.5,0.1-0.8c-1.3,1.2-3.2,1.9-5.4,1.9c-3.3,0-4.9-1.5-4.9-3.8
		c0-5,3.5-6.1,8.8-6.8c3-0.4,3.2-1,3.2-1.9c0-1.4-1-1.7-2.5-1.7c-2,0-3,1-3.4,2.5h-4.1c0.7-3.5,3-5.9,8.4-5.9c4.5,0,6.2,1.7,6.2,4.7
		c0,0.6-0.1,1.2-0.2,1.9l-1.9,10.6H3174.8z M3175.9,41.8c-0.5,0.4-1.3,0.7-3,1c-3.2,0.6-3.8,1.4-3.8,3c0,1.1,0.8,1.5,2,1.5
		c2.1,0,4.1-1.7,4.5-3.6L3175.9,41.8z"/>
	<path class="st1" d="M3180.9,50l3-16.7h4.1l-0.4,2c1.9-2.2,3.6-2.4,5.4-2.4h0.6l-0.8,4.5c-0.4-0.1-0.8-0.1-1.2-0.1
		c-2.7,0-4.3,1.4-4.8,4l-1.5,8.7H3180.9z"/>
	<path class="st1" d="M3200.1,50l3-16.7h4.4l-3,16.7H3200.1z M3203.4,31.3l0.7-4.1h4.4l-0.7,4.1H3203.4z"/>
	<path class="st1" d="M3221.2,43.8c-0.6,3.5-3.2,6.7-7.9,6.7c-4.1,0-5.8-2.2-5.8-5.1c0-0.5,0-1.1,0.1-1.6l2.6-15h4.4l-0.8,4.5h9.2
		l-0.5,3.1h-9.2l-1.2,6.9c-0.1,0.5-0.1,1-0.1,1.3c0,1.5,0.7,2,2.1,2c1.7,0,2.8-1.2,3.2-3.3l0.7-4.4h4.1L3221.2,43.8z"/>
	<path class="st1" d="M3232.4,50c0-0.2-0.1-0.4-0.1-0.7c0-0.2,0-0.5,0.1-0.8c-1.3,1.2-3.2,1.9-5.4,1.9c-3.3,0-4.9-1.5-4.9-3.8
		c0-5,3.5-6.1,8.8-6.8c3-0.4,3.2-1,3.2-1.9c0-1.4-1-1.7-2.5-1.7c-2,0-3,1-3.4,2.5h-4.1c0.7-3.5,3-5.9,8.4-5.9c4.5,0,6.2,1.7,6.2,4.7
		c0,0.6-0.1,1.2-0.2,1.9l-1.9,10.6H3232.4z M3233.5,41.8c-0.5,0.4-1.3,0.7-3,1c-3.2,0.6-3.8,1.4-3.8,3c0,1.1,0.8,1.5,2,1.5
		c2.1,0,4.1-1.7,4.5-3.6L3233.5,41.8z"/>
	<path class="st1" d="M3238.4,50l4-22.8h4.4l-4,22.8H3238.4z"/>
	<path class="st1" d="M3244.8,50l3-16.7h4.4l-3,16.7H3244.8z M3248.1,31.3l0.7-4.1h4.4l-0.7,4.1H3248.1z"/>
	<path class="st1" d="M3263.8,39.3c0-0.2,0-0.3,0-0.5c0-1.7-1.2-2.3-2.7-2.3c-2.3,0-4.4,1.7-4.4,6.3c0,3,1.1,3.9,2.5,3.9
		c1.7,0,3.3-1,3.7-2.8h4.5c-1.2,3.9-4.8,6.5-8.8,6.5c-3.9,0-6.3-2.4-6.3-7c0-7.2,3.9-10.6,9.6-10.6c4,0,6.5,2.1,6.5,5.6
		c0,0.3,0,0.5,0,0.8H3263.8z"/>
</g>
<g class="st0">
	<path class="st1" d="M3319,42.1c-1,5.4-4.8,9-10.4,9c-6.3,0-11.2-4.3-11.2-12.5c0-8.1,4.3-13,11.2-13c6,0,9.9,3.8,10.4,8.6h-5.6
		c-0.6-2.5-2.5-3.8-4.8-3.8c-3.9,0-5.6,3-5.6,7.9c0,5,1.7,8,5.4,8c2.8,0,4.4-1.5,5-4.2H3319z"/>
	<path class="st1" d="M3319.6,41.5c0-5.6,3.5-9.3,9.2-9.3c5.6,0,9.1,3.7,9.1,9.3c0,5.6-3.5,9.3-9.1,9.3
		C3323,50.8,3319.6,47,3319.6,41.5z M3332.6,41.5c0-3.4-1.3-4.9-3.9-4.9s-3.9,1.5-3.9,4.9c0,3.4,1.3,5,3.9,5
		S3332.6,44.9,3332.6,41.5z"/>
	<path class="st1" d="M3339.1,41.5c0-5.6,3.5-9.3,9.2-9.3c5.6,0,9.1,3.7,9.1,9.3c0,5.6-3.5,9.3-9.1,9.3
		C3342.5,50.8,3339.1,47,3339.1,41.5z M3352.1,41.5c0-3.4-1.3-4.9-3.9-4.9s-3.9,1.5-3.9,4.9c0,3.4,1.3,5,3.9,5
		S3352.1,44.9,3352.1,41.5z"/>
	<path class="st1" d="M3359,50.4V26.2h5.2v24.2H3359z"/>
	<path class="st1" d="M3371.4,50.4l-6.1-17.7h5.8l3.2,11l3.3-11h5.5l-6.2,17.7H3371.4z"/>
	<path class="st1" d="M3387.9,42.8c0.1,2.2,1.5,3.9,3.5,3.9c1.3,0,2.5-0.6,2.7-1.5h5.4c-1.1,3.6-4,5.7-7.8,5.7c-6,0-9-3.2-9-9.6
		c0-5.5,3.2-9,8.6-9c5.4,0,8.4,3.3,8.4,9.9v0.8H3387.9z M3394.4,39.7c-0.1-2.3-1.4-3.4-3.2-3.4s-3.1,1.2-3.2,3.4H3394.4z"/>
	<path class="st1" d="M3415.8,43.7c0,3.7-2,7.1-7.3,7.1c-5.3,0-7.3-3.3-7.3-7.1V27.9h5.1v4.8h9.5v3.7h-9.5v7.2
		c0,1.8,0.7,2.8,2.3,2.8c1.6,0,2.3-1,2.3-2.8v-4.8h4.9V43.7z"/>
	<path class="st1" d="M3417.7,30.5v-4.4h5.2v4.4H3417.7z M3417.7,50.4V32.6h5.2v17.7H3417.7z"/>
	<path class="st1" d="M3435.9,39c-0.3-1.5-1.4-2.5-2.9-2.5c-1.7,0-3.2,1.1-3.2,4.7c0,3.6,1.5,5.3,3,5.3c1.6,0,2.9-0.9,3-2.5h5.3
		c-0.5,4.1-3.9,6.9-8.2,6.9c-4.9,0-8.2-3.2-8.2-9.5c0-6.3,3.3-9.1,8.4-9.1c4.7,0,7.8,2.6,8.1,6.8H3435.9z"/>
	<path class="st1" d="M3453.5,50.4c-0.2-0.4-0.3-1-0.4-1.5c-0.9,1.2-2.7,2-5.3,2c-4.1,0-5.9-1.9-5.9-5.1c0-4.6,3.5-5.5,8.2-6.2
		c2-0.3,2.6-0.7,2.6-1.8c0-1-1.2-1.5-2.6-1.5c-2,0-2.7,0.9-2.9,2.2h-4.7c0.1-3.7,2.1-6.2,7.9-6.2c5.7,0,7.6,2.5,7.6,7v11.2H3453.5z
		 M3452.9,42c-0.4,0.4-1.1,0.6-2.6,0.9c-2.5,0.5-3.2,1.2-3.2,2.5c0,1.1,0.7,1.7,1.9,1.7c2.5,0,3.8-1.7,3.9-3.6L3452.9,42z"/>
	<path class="st1" d="M3468.7,50.4V26.5h12c5.1,0,7.3,2.6,7.3,6.3c0,2.2-1.3,4-3.1,4.7c2.1,0.7,3.8,2.4,3.8,5.8c0,4.3-2.7,7.1-9,7.1
		H3468.7z M3474.1,31.1v4.7h5.8c1.7,0,2.7-0.8,2.7-2.4c0-1.6-0.9-2.3-2.8-2.3H3474.1z M3474.1,39.9v5.9h6c2.1,0,3.2-1.2,3.2-3.1
		c0-1.8-1.1-2.8-3.2-2.8H3474.1z"/>
	<path class="st1" d="M3489.3,41.5c0-5.6,3.5-9.3,9.2-9.3c5.6,0,9.1,3.7,9.1,9.3c0,5.6-3.5,9.3-9.1,9.3
		C3492.8,50.8,3489.3,47,3489.3,41.5z M3502.4,41.5c0-3.4-1.3-4.9-3.9-4.9s-3.9,1.5-3.9,4.9c0,3.4,1.3,5,3.9,5
		S3502.4,44.9,3502.4,41.5z"/>
	<path class="st1" d="M3509.2,50.4V26.2h5.2v24.2H3509.2z"/>
	<path class="st1" d="M3528.3,50.4l0-2.1c-1,1.8-2.8,2.6-4.6,2.6c-4.5,0-7.7-3.6-7.7-9.5c0-5.3,2.6-9.1,7.2-9.1c2.1,0,3.9,0.8,5,2.6
		v-8.6h5.1v24.2H3528.3z M3528.4,41.8c0-3.5-1.3-5.1-3.6-5.1c-2.3,0-3.5,1.5-3.5,5c0,3.2,1.4,5,3.5,5
		C3526.9,46.6,3528.4,44.9,3528.4,41.8z"/>
</g>
<g class="st0">
	<path class="st1" d="M3582.1,41.8c-2,5.4-6.4,9-12.1,9c-5.5,0-9.3-3.2-9.3-9.3c0-1,0.1-2.1,0.3-3.2c1.4-8.1,6.6-13,13.5-13
		c5.7,0,8.9,3.4,8.9,7.8c0,0.3,0,0.5,0,0.8h-5.6c-0.2-2.5-1.8-3.8-4.1-3.8c-3.9,0-6.2,3-7,7.9c-0.2,1-0.3,2-0.3,2.9
		c0,3.2,1.3,5.1,4.2,5.1c2.8,0,4.6-1.5,5.8-4.2H3582.1z"/>
	<path class="st1" d="M3582.6,43.2c0-6.7,4.8-11.4,11.1-11.4c4.9,0,7.6,2.8,7.6,7.2c0,6.8-4.8,11.5-10.9,11.5
		C3585.3,50.5,3582.6,47.6,3582.6,43.2z M3595.9,41.1c0.1-0.6,0.1-1.2,0.1-1.7c0-2.2-1-3.2-3.1-3.2c-2.6,0-4.1,1.5-4.7,4.9
		c-0.1,0.6-0.2,1.2-0.2,1.7c0,2.2,1.1,3.2,3.2,3.2C3593.8,46.1,3595.3,44.5,3595.9,41.1z"/>
	<path class="st1" d="M3602.2,43.2c0-6.7,4.8-11.4,11.1-11.4c4.9,0,7.6,2.8,7.6,7.2c0,6.8-4.8,11.5-10.9,11.5
		C3604.9,50.5,3602.2,47.6,3602.2,43.2z M3615.4,41.1c0.1-0.6,0.1-1.2,0.1-1.7c0-2.2-1-3.2-3.1-3.2c-2.6,0-4.1,1.5-4.7,4.9
		c-0.1,0.6-0.2,1.2-0.2,1.7c0,2.2,1.1,3.2,3.2,3.2C3613.3,46.1,3614.8,44.5,3615.4,41.1z"/>
	<path class="st1" d="M3620.7,50l4.2-24.2h5.2l-4.2,24.2H3620.7z"/>
	<path class="st1" d="M3633.1,50l-3-17.7h5.8l1.3,11l5.2-11h5.5l-9.3,17.7H3633.1z"/>
	<path class="st1" d="M3650.9,42.5c0,0.2,0,0.4,0,0.6c0,1.9,1,3.2,2.8,3.2c1.3,0,2.6-0.6,3-1.5h5.4c-1.7,3.6-5,5.7-8.9,5.7
		c-5,0-7.5-2.3-7.5-6.8c0-7,4.2-11.8,10.5-11.8c4.5,0,6.9,2.3,6.9,6.9c0,0.9-0.1,1.9-0.3,3l-0.1,0.8H3650.9z M3658,39.3
		c0-0.2,0-0.4,0-0.6c0-1.9-1.1-2.8-2.7-2.8c-1.8,0-3.2,1.2-3.8,3.4H3658z"/>
	<path class="st1" d="M3678.7,43.4c-0.7,3.7-3.3,7.1-8.5,7.1c-4.5,0-6.2-2.3-6.2-5.4c0-0.6,0.1-1.1,0.2-1.7l2.8-15.8h5.1l-0.9,4.8
		h9.5L3680,36h-9.5l-1.3,7.2c-0.1,0.4-0.1,0.7-0.1,1c0,1.2,0.6,1.8,1.9,1.8c1.6,0,2.5-1,2.8-2.8l0.9-4.8h4.9L3678.7,43.4z"/>
	<path class="st1" d="M3679.4,50l3.1-17.7h5.2l-3.1,17.7H3679.4z M3682.9,30.2l0.8-4.4h5.2l-0.8,4.4H3682.9z"/>
	<path class="st1" d="M3699.6,38.6c0-1.5-0.9-2.5-2.5-2.5c-1.7,0-3.3,1.1-4,4.7c-0.1,0.6-0.2,1.3-0.2,1.8c0,2.4,1,3.5,2.3,3.5
		c1.6,0,3-0.9,3.5-2.5h5.3c-1.2,4.1-5.1,6.9-9.5,6.9c-4.1,0-6.8-2.3-6.8-6.9c0-0.8,0.1-1.7,0.3-2.6c1.1-6.3,5-9.1,10-9.1
		c4.3,0,6.9,2.3,6.9,5.9c0,0.3,0,0.6,0,0.9H3699.6z"/>
	<path class="st1" d="M3715.2,50c-0.1-0.3-0.1-0.6-0.1-1c0-0.2,0-0.4,0-0.5c-1.1,1.2-3,2-5.7,2c-3.5,0-5.1-1.5-5.1-3.9
		c0-0.4,0-0.8,0.1-1.2c0.8-4.6,4.5-5.5,9.4-6.2c2.1-0.3,2.9-0.8,2.9-2c0-0.9-1-1.3-2.3-1.3c-2,0-2.9,0.9-3.3,2.2h-4.7
		c0.7-3.7,3.2-6.2,9-6.2c4.8,0,6.6,1.8,6.6,5c0,0.6-0.1,1.3-0.2,2l-1.9,11.2H3715.2z M3716,41.7c-0.5,0.4-1.2,0.6-2.7,0.9
		c-2.8,0.6-3.7,1.4-3.7,2.9c0,0.8,0.6,1.3,1.6,1.3c2.5,0,4.1-1.7,4.5-3.6L3716,41.7z"/>
	<path class="st1" d="M3730.4,50l4.2-23.9h12c4.4,0,6.3,1.9,6.3,4.9c0,2.9-1.7,5.3-4,6.1c1.6,0.6,2.9,1.9,2.9,4.4
		c0,5.1-3.6,8.6-10.4,8.6H3730.4z M3737.6,39.5l-1,5.9h6c2.2,0,3.8-1.5,3.8-3.8c0-1.4-1-2.2-2.7-2.2H3737.6z M3739.2,30.7l-0.8,4.7
		h5.8c1.8,0,3.2-0.9,3.2-2.9c0-1.2-0.8-1.8-2.5-1.8H3739.2z"/>
	<path class="st1" d="M3752.4,43.2c0-6.7,4.8-11.4,11.1-11.4c4.9,0,7.6,2.8,7.6,7.2c0,6.8-4.8,11.5-10.9,11.5
		C3755.1,50.5,3752.4,47.6,3752.4,43.2z M3765.7,41.1c0.1-0.6,0.1-1.2,0.1-1.7c0-2.2-1-3.2-3.1-3.2c-2.6,0-4.1,1.5-4.7,4.9
		c-0.1,0.6-0.2,1.2-0.2,1.7c0,2.2,1.1,3.2,3.2,3.2C3763.5,46.1,3765,44.5,3765.7,41.1z"/>
	<path class="st1" d="M3771,50l4.2-24.2h5.2l-4.2,24.2H3771z"/>
	<path class="st1" d="M3790,50l0.3-2.1c-1.4,1.8-3.2,2.6-5.1,2.6c-3.8,0-6.2-2.6-6.2-7c0-6.4,3.9-11.7,9.1-11.7
		c2.1,0,3.7,0.8,4.5,2.6l1.5-8.6h5.1L3795,50H3790z M3791.8,39.6c0-2.2-1-3.3-2.8-3.3c-2.3,0-3.8,1.5-4.4,5
		c-0.1,0.6-0.1,1.1-0.1,1.6c0,2.2,1,3.4,2.8,3.4C3789.5,46.2,3791.8,43.8,3791.8,39.6z"/>
	<path class="st1" d="M3805.9,50l3.1-17.7h5.2l-3.1,17.7H3805.9z M3809.4,30.2l0.8-4.4h5.2l-0.8,4.4H3809.4z"/>
	<path class="st1" d="M3828.9,43.4c-0.7,3.7-3.3,7.1-8.5,7.1c-4.5,0-6.2-2.3-6.2-5.4c0-0.6,0.1-1.1,0.2-1.7l2.8-15.8h5.1l-0.9,4.8
		h9.5l-0.6,3.7h-9.5l-1.3,7.2c-0.1,0.4-0.1,0.7-0.1,1c0,1.2,0.6,1.8,1.9,1.8c1.6,0,2.5-1,2.8-2.8l0.9-4.8h4.9L3828.9,43.4z"/>
	<path class="st1" d="M3840.6,50c-0.1-0.3-0.1-0.6-0.1-1c0-0.2,0-0.4,0-0.5c-1.1,1.2-3,2-5.7,2c-3.5,0-5.1-1.5-5.1-3.9
		c0-0.4,0-0.8,0.1-1.2c0.8-4.6,4.5-5.5,9.4-6.2c2.1-0.3,2.9-0.8,2.9-2c0-0.9-1-1.3-2.3-1.3c-2,0-2.9,0.9-3.3,2.2h-4.7
		c0.7-3.7,3.2-6.2,9-6.2c4.8,0,6.6,1.8,6.6,5c0,0.6-0.1,1.3-0.2,2l-1.9,11.2H3840.6z M3841.4,41.7c-0.5,0.4-1.2,0.6-2.7,0.9
		c-2.8,0.6-3.7,1.4-3.7,2.9c0,0.8,0.6,1.3,1.6,1.3c2.5,0,4.1-1.7,4.5-3.6L3841.4,41.7z"/>
	<path class="st1" d="M3847.2,50l4.2-24.2h5.2l-4.2,24.2H3847.2z"/>
	<path class="st1" d="M3854.4,50l3.1-17.7h5.2l-3.1,17.7H3854.4z M3857.9,30.2l0.8-4.4h5.2l-0.8,4.4H3857.9z"/>
	<path class="st1" d="M3874.6,38.6c0-1.5-0.9-2.5-2.5-2.5c-1.7,0-3.3,1.1-4,4.7c-0.1,0.6-0.2,1.3-0.2,1.8c0,2.4,1,3.5,2.3,3.5
		c1.6,0,3-0.9,3.5-2.5h5.3c-1.2,4.1-5.1,6.9-9.5,6.9c-4.1,0-6.8-2.3-6.8-6.9c0-0.8,0.1-1.7,0.3-2.6c1.1-6.3,5-9.1,10-9.1
		c4.3,0,6.9,2.3,6.9,5.9c0,0.3,0,0.6,0,0.9H3874.6z"/>
</g>
<g class="st0">
	<path class="st1" d="M3929.7,41.9c-1,5.4-4.9,9-10.5,9c-6.4,0-11.3-4.3-11.3-12.5c0-8.1,4.4-13,11.4-13c6.1,0,10,3.8,10.5,8.6h-6.2
		c-0.5-2.3-2.2-3.3-4.3-3.3c-3.7,0-5.2,2.8-5.2,7.4c0,4.6,1.4,7.5,4.9,7.5c2.7,0,4-1.4,4.6-3.7H3929.7z"/>
	<path class="st1" d="M3930.3,41.2c0-5.6,3.6-9.3,9.3-9.3c5.7,0,9.2,3.7,9.2,9.3c0,5.6-3.6,9.3-9.2,9.3
		C3933.7,50.6,3930.3,46.7,3930.3,41.2z M3943,41.2c0-3.2-1.1-4.5-3.4-4.5s-3.4,1.3-3.4,4.5c0,3.2,1,4.5,3.4,4.5
		C3942,45.7,3943,44.4,3943,41.2z"/>
	<path class="st1" d="M3949.9,41.2c0-5.6,3.6-9.3,9.3-9.3c5.7,0,9.2,3.7,9.2,9.3c0,5.6-3.6,9.3-9.2,9.3
		C3953.4,50.6,3949.9,46.7,3949.9,41.2z M3962.7,41.2c0-3.2-1.1-4.5-3.4-4.5s-3.4,1.3-3.4,4.5c0,3.2,1,4.5,3.4,4.5
		C3961.6,45.7,3962.7,44.4,3962.7,41.2z"/>
	<path class="st1" d="M3970,50.1V25.9h5.8v24.2H3970z"/>
	<path class="st1" d="M3982.7,50.1l-5.9-17.7h6.4l2.7,10.3l2.8-10.3h6l-6,17.7H3982.7z"/>
	<path class="st1" d="M4000,42.7c0.1,1.8,1.4,3.3,3,3.3c1.1,0,2.2-0.5,2.3-1.1h5.9c-1.1,3.6-4.1,5.7-8,5.7c-6,0-9.1-3.3-9.1-9.6
		c0-5.5,3.2-9,8.7-9c5,0,8.6,3,8.6,8.9c0,0.6,0,1.3-0.1,1.9H4000z M4005.8,39.3c-0.2-2-1.1-2.9-2.8-2.9c-1.7,0-2.7,0.9-2.9,2.9
		H4005.8z"/>
	<path class="st1" d="M4022.4,38.4h5.4v5c0,3.7-1.9,7.1-7.3,7.1c-5.5,0-7.4-3.3-7.4-7.1V27.6h5.7v4.8h9.1v4h-9.1v7
		c0,1.4,0.5,2.1,1.9,2.1c1.3,0,1.9-0.7,1.9-2.1V38.4z"/>
	<path class="st1" d="M4029.5,30.3v-4.4h5.8v4.4H4029.5z M4029.5,50.1V32.4h5.8v17.7H4029.5z"/>
	<path class="st1" d="M4053.6,43.7c-0.5,4.1-4,6.9-8.4,6.9c-4.9,0-8.3-3.2-8.3-9.5c0-6.3,3.4-9.1,8.5-9.1c4.8,0,8,2.6,8.2,6.8h-5.8
		c-0.3-1.3-1.2-2.1-2.5-2.1c-1.4,0-2.7,0.9-2.7,4.2c0,3.3,1.3,4.9,2.6,4.9c1.4,0,2.5-0.7,2.6-2.1H4053.6z"/>
	<path class="st1" d="M4065.8,50.1c-0.3-0.4-0.4-0.9-0.4-1.5c-0.7,1.1-2.4,1.9-5.3,1.9c-4.1,0-5.8-1.9-5.8-5.4c0-4.1,3.6-5.3,8.4-6
		c1.7-0.3,2.2-0.6,2.2-1.6c0-0.9-1.2-1.3-2.3-1.3c-1.8,0-2.5,0.7-2.6,1.8h-5.1c0.1-3.7,2.1-6.2,8-6.2c5.8,0,7.7,2.5,7.7,7v11.2
		H4065.8z M4064.9,42.1c-0.3,0.3-0.9,0.5-2.2,0.8c-2.3,0.6-2.9,1.2-2.9,2.2c0,0.9,0.6,1.4,1.6,1.4c2.6,0,3.4-1.7,3.5-3.2
		L4064.9,42.1z"/>
	<path class="st1" d="M4094.9,50.1V39.8h-7.5v10.3h-6.2V26.2h6.2v8.5h7.5v-8.5h6.2v23.9H4094.9z"/>
	<path class="st1" d="M4108.2,42.7c0.1,1.8,1.4,3.3,3,3.3c1.1,0,2.2-0.5,2.3-1.1h5.9c-1.1,3.6-4.1,5.7-8,5.7c-6,0-9.1-3.3-9.1-9.6
		c0-5.5,3.2-9,8.7-9c5,0,8.6,3,8.6,8.9c0,0.6,0,1.3-0.1,1.9H4108.2z M4114,39.3c-0.2-2-1.1-2.9-2.8-2.9c-1.7,0-2.7,0.9-2.9,2.9H4114
		z"/>
	<path class="st1" d="M4132.2,50.1c-0.3-0.4-0.4-0.9-0.4-1.5c-0.7,1.1-2.4,1.9-5.3,1.9c-4.1,0-5.8-1.9-5.8-5.4c0-4.1,3.6-5.3,8.4-6
		c1.7-0.3,2.2-0.6,2.2-1.6c0-0.9-1.2-1.3-2.3-1.3c-1.8,0-2.5,0.7-2.6,1.8h-5.1c0.1-3.7,2.1-6.2,8-6.2c5.8,0,7.7,2.5,7.7,7v11.2
		H4132.2z M4131.3,42.1c-0.3,0.3-0.9,0.5-2.2,0.8c-2.3,0.6-2.9,1.2-2.9,2.2c0,0.9,0.6,1.4,1.6,1.4c2.6,0,3.4-1.7,3.5-3.2
		L4131.3,42.1z"/>
	<path class="st1" d="M4142.6,50.1l-5.9-17.7h6.4l2.7,10.3l2.8-10.3h6l-6,17.7H4142.6z"/>
	<path class="st1" d="M4166.3,48.3c-0.7,1.4-2.7,2-4.2,2c-4.4,0-6.4-2.7-6.4-6.2V32.4h5.8v10.9c0,1.4,0.6,2.4,2.2,2.4
		c1.4,0,2.7-1.2,2.7-2.4V32.4h5.8v18.2c0,4.9-3,7.8-8.3,7.8c-5.7,0-7.9-2.8-7.9-7.4h5.3c0,1.5,0.8,2.4,2.6,2.4
		c1.6,0,2.6-0.6,2.6-2.8V48.3z"/>
</g>
<g class="st0">
	<path class="st1" d="M4221.7,42.1c-1.8,5.1-6.1,8.5-11.5,8.5c-5.2,0-8.9-3.3-8.9-9.4c0-8.7,5.4-14.7,13.2-14.7
		c5.5,0,8.5,3.3,8.5,7.5c0,0.2,0,0.4,0,0.7h-5.8c-0.1-2.2-1.5-3.2-3.5-3.2c-4.7,0-6.4,4.4-6.4,9.1c0,3,1.1,4.9,3.6,4.9
		s4-1.3,4.9-3.5H4221.7z"/>
	<path class="st1" d="M4222.1,43.1c0-6.1,4.3-10.4,10.5-10.4c4.7,0,7.3,2.8,7.3,7.2c0,6.1-4.3,10.4-10.4,10.4
		C4224.7,50.3,4222.1,47.4,4222.1,43.1z M4234.5,40.2c0-2-0.9-2.9-2.7-2.9c-3.2,0-4.1,2.2-4.1,5.5c0,2,0.8,2.9,2.6,2.9
		C4233.5,45.7,4234.5,43.5,4234.5,40.2z"/>
	<path class="st1" d="M4240.7,43.1c0-6.1,4.3-10.4,10.5-10.4c4.7,0,7.3,2.8,7.3,7.2c0,6.1-4.3,10.4-10.4,10.4
		C4243.3,50.3,4240.7,47.4,4240.7,43.1z M4253,40.2c0-2-0.9-2.9-2.7-2.9c-3.2,0-4.1,2.2-4.1,5.5c0,2,0.8,2.9,2.6,2.9
		C4252.1,45.7,4253,43.5,4253,40.2z"/>
	<path class="st1" d="M4258.3,49.8l4-22.8h5.4l-4,22.8H4258.3z"/>
	<path class="st1" d="M4270.3,49.8l-2.7-16.7h6.1l0.8,9.8l4.4-9.8h5.7l-8.7,16.7H4270.3z"/>
	<path class="st1" d="M4287.9,42.8c0,0.1,0,0.2,0,0.3c0,1.5,0.9,2.8,2.3,2.8c1.1,0,2.1-0.4,2.4-1.1h5.6c-1.7,3.4-4.8,5.4-8.5,5.4
		c-4.8,0-7.2-2.4-7.2-7c0-6.4,3.9-10.6,10-10.6c4.1,0,6.8,2.3,6.8,6.7c0,1.2-0.2,2.2-0.6,3.5H4287.9z M4293.9,39.7
		c0-0.2,0-0.3,0-0.5c0-1.5-0.7-2.2-2.2-2.2c-1.6,0-2.7,0.8-3.2,2.7H4293.9z"/>
	<path class="st1" d="M4313.9,43.6c-0.6,3.5-2.9,6.7-8.1,6.7c-4.4,0-6-2.2-6-5.1c0-0.5,0.1-1.1,0.2-1.6l2.6-15h5.3l-0.8,4.5h8.6
		l-0.7,3.8h-8.6l-1.2,6.6c0,0.3-0.1,0.5-0.1,0.7c0,0.9,0.4,1.3,1.5,1.3c1.2,0,1.9-0.6,2.1-2l0.8-4.7h5.1L4313.9,43.6z"/>
	<path class="st1" d="M4314.5,49.8l3-16.7h5.4l-3,16.7H4314.5z M4317.8,31.1l0.7-4.1h5.4l-0.7,4.1H4317.8z"/>
	<path class="st1" d="M4333.7,39.1c0-1.2-0.8-1.9-2-1.9c-1.7,0-3.4,1.3-3.4,5.3c0,2.2,0.8,3.3,1.8,3.3c1.3,0,2.5-0.6,2.8-1.9h5.5
		c-1.2,3.9-4.9,6.5-9,6.5c-4,0-6.5-2.4-6.5-7c0-7.1,4-10.6,9.7-10.6c4.2,0,6.7,2.1,6.7,5.6c0,0.2,0,0.5,0,0.8H4333.7z"/>
	<path class="st1" d="M4348.8,49.8c-0.1-0.3-0.2-0.6-0.2-1c0-0.1,0-0.3,0-0.4c-0.8,1.1-2.5,1.8-5.3,1.8c-3.3,0-4.8-1.5-4.8-4
		c0-4.8,3.8-6,9-6.8c1.7-0.2,2.3-0.7,2.3-1.6c0-0.7-1-1.1-1.9-1.1c-1.7,0-2.5,0.7-2.8,1.7h-4.8c0.7-3.5,3-5.9,8.6-5.9
		c4.6,0,6.3,1.7,6.3,4.7c0,0.6-0.1,1.2-0.2,1.9l-1.9,10.6H4348.8z M4349.3,42.3c-0.3,0.3-0.9,0.5-2.2,0.7c-2.7,0.6-3.1,1.4-3.1,2.3
		c0,0.7,0.5,1.1,1.3,1.1c2.4,0,3.5-1.6,3.8-3.1L4349.3,42.3z"/>
	<path class="st1" d="M4376.3,49.8l1.7-9.7h-7.1l-1.7,9.7h-5.8l4-22.6h5.8l-1.4,8.1h7.1l1.4-8.1h5.8l-4,22.6H4376.3z"/>
	<path class="st1" d="M4390.1,42.8c0,0.1,0,0.2,0,0.3c0,1.5,0.9,2.8,2.3,2.8c1.1,0,2.1-0.4,2.4-1.1h5.6c-1.7,3.4-4.8,5.4-8.5,5.4
		c-4.8,0-7.2-2.4-7.2-7c0-6.4,3.9-10.6,10-10.6c4.1,0,6.8,2.3,6.8,6.7c0,1.2-0.2,2.2-0.6,3.5H4390.1z M4396.1,39.7
		c0-0.2,0-0.3,0-0.5c0-1.5-0.7-2.2-2.2-2.2c-1.6,0-2.7,0.8-3.2,2.7H4396.1z"/>
	<path class="st1" d="M4411.5,49.8c-0.1-0.3-0.2-0.6-0.2-1c0-0.1,0-0.3,0-0.4c-0.8,1.1-2.5,1.8-5.3,1.8c-3.3,0-4.8-1.5-4.8-4
		c0-4.8,3.8-6,9-6.8c1.7-0.2,2.3-0.7,2.3-1.6c0-0.7-1-1.1-1.9-1.1c-1.7,0-2.5,0.7-2.8,1.7h-4.8c0.7-3.5,3-5.9,8.6-5.9
		c4.6,0,6.3,1.7,6.3,4.7c0,0.6-0.1,1.2-0.2,1.9l-1.9,10.6H4411.5z M4412,42.3c-0.3,0.3-0.9,0.5-2.2,0.7c-2.7,0.6-3.1,1.4-3.1,2.3
		c0,0.7,0.5,1.1,1.3,1.1c2.4,0,3.5-1.6,3.8-3.1L4412,42.3z"/>
	<path class="st1" d="M4421.3,49.8l-2.7-16.7h6.1l0.8,9.8l4.4-9.8h5.7l-8.7,16.7H4421.3z"/>
	<path class="st1" d="M4444,48.1c-0.9,1.4-2.9,1.9-4.3,1.9c-3.6,0-5.2-1.9-5.2-4.5c0-0.4,0-0.9,0.1-1.3l2-11.1h5.4l-1.8,10.3
		c-0.1,0.2-0.1,0.5-0.1,0.7c0,1,0.5,1.5,1.7,1.5c1.3,0,2.7-1.2,2.9-2.2l1.8-10.3h5.4l-3.1,17.2c-0.8,4.6-4.1,7.4-9.1,7.4
		c-4.6,0-6.4-1.9-6.4-5.2c0-0.6,0.1-1.2,0.2-1.8h5c0,0.2-0.1,0.4-0.1,0.6c0,1.1,0.6,1.7,2.1,1.7c1.5,0,2.5-0.6,2.9-2.7L4444,48.1z"
		/>
	<path class="st1" d="M4459.4,49.8l3-16.7h5.4l-3,16.7H4459.4z M4462.7,31.1l0.7-4.1h5.4l-0.7,4.1H4462.7z"/>
	<path class="st1" d="M4481.8,43.6c-0.6,3.5-2.9,6.7-8.1,6.7c-4.4,0-6-2.2-6-5.1c0-0.5,0.1-1.1,0.2-1.6l2.6-15h5.3l-0.8,4.5h8.6
		l-0.7,3.8h-8.6l-1.2,6.6c0,0.3-0.1,0.5-0.1,0.7c0,0.9,0.4,1.3,1.5,1.3c1.2,0,1.9-0.6,2.1-2l0.8-4.7h5.1L4481.8,43.6z"/>
	<path class="st1" d="M4492.7,49.8c-0.1-0.3-0.2-0.6-0.2-1c0-0.1,0-0.3,0-0.4c-0.8,1.1-2.5,1.8-5.3,1.8c-3.3,0-4.8-1.5-4.8-4
		c0-4.8,3.8-6,9-6.8c1.7-0.2,2.3-0.7,2.3-1.6c0-0.7-1-1.1-1.9-1.1c-1.7,0-2.5,0.7-2.8,1.7h-4.8c0.7-3.5,3-5.9,8.6-5.9
		c4.6,0,6.3,1.7,6.3,4.7c0,0.6-0.1,1.2-0.2,1.9l-1.9,10.6H4492.7z M4493.2,42.3c-0.3,0.3-0.9,0.5-2.2,0.7c-2.7,0.6-3.1,1.4-3.1,2.3
		c0,0.7,0.5,1.1,1.3,1.1c2.4,0,3.5-1.6,3.8-3.1L4493.2,42.3z"/>
	<path class="st1" d="M4499,49.8l4-22.8h5.4l-4,22.8H4499z"/>
	<path class="st1" d="M4506.3,49.8l3-16.7h5.4l-3,16.7H4506.3z M4509.6,31.1l0.7-4.1h5.4l-0.7,4.1H4509.6z"/>
	<path class="st1" d="M4525.5,39.1c0-1.2-0.8-1.9-2-1.9c-1.7,0-3.4,1.3-3.4,5.3c0,2.2,0.8,3.3,1.8,3.3c1.3,0,2.5-0.6,2.8-1.9h5.5
		c-1.2,3.9-4.9,6.5-9,6.5c-4,0-6.5-2.4-6.5-7c0-7.1,4-10.6,9.7-10.6c4.2,0,6.7,2.1,6.7,5.6c0,0.2,0,0.5,0,0.8H4525.5z"/>
</g>
</svg>
