<?xml version="1.0" encoding="utf-8"?>
<!-- Generator: Adobe Illustrator 25.4.1, SVG Export Plug-In . SVG Version: 6.00 Build 0)  -->
<svg version="1.1" id="Calque_1" xmlns="http://www.w3.org/2000/svg" xmlns:xlink="http://www.w3.org/1999/xlink" x="0px" y="0px"
	 viewBox="0 0 4600 70" style="enable-background:new 0 0 4600 70;" xml:space="preserve">
<style type="text/css">
	.st0{font-family:'CoolveticaEl-Regular';}
	.st1{font-size:36px;}
	.st2{font-family:'CoolveticaUl-Regular';}
	.st3{font-family:'CoolveticaEl-Italic';}
	.st4{font-size:32px;}
	.st5{font-family:'CoolveticaUl-Italic';}
	.st6{font-family:'CoolveticaLt-Regular';}
	.st7{font-family:'CoolveticaLt-Italic';}
	.st8{font-family:'CoolveticaBk-Regular';}
	.st9{font-family:'CoolveticaRg-Regular';}
	.st10{font-family:'CoolveticaBk-Italic';}
	.st11{font-family:'CoolveticaRg-Italic';}
	.st12{font-size:34px;}
	.st13{font-family:'CoolveticaRg-Bold';}
	.st14{font-family:'CoolveticaRg-BoldItalic';}
	.st15{font-family:'CoolveticaHv-Regular';}
	.st16{font-family:'CoolveticaHv-Italic';}
</style>
<text transform="matrix(1 0 0 1 696.6375 50.0901)" class="st0 st1">Coolvetica ExtraLight</text>
<text transform="matrix(1 0 0 1 28.0906 50.0042)" class="st2 st1">Coolvetica UltraLight</text>
<text transform="matrix(1 0 0 1 1032.239 50.4964)" class="st3 st4">Coolvetica ExtraLight italic</text>
<text transform="matrix(1 0 0 1 347.1921 50.0667)" class="st5 st4">Coolvetica UltraLight italic</text>
<text transform="matrix(1 0 0 1 1399.9656 50.1761)" class="st6 st1">Coolvetica Light</text>
<text transform="matrix(1 0 0 1 1662.2781 50.5042)" class="st7 st1">Coolvetica Light italic</text>
<text transform="matrix(1 0 0 1 2002.864 50.4808)" class="st8 st1">Coolvetica Book</text>
<text transform="matrix(1 0 0 1 2618.3406 50.4573)" class="st9 st1">Coolvetica Regular</text>
<text transform="matrix(1 0 0 1 2270.6218 50.7776)" class="st10 st1">Coolvetica Book italic</text>
<text transform="matrix(1 0 0 1 2925.6453 50.0355)" class="st11 st12">Coolvetica Regular italic</text>
<text transform="matrix(1 0 0 1 3296.8171 50.3558)" class="st13 st1">Coolvetica Bold</text>
<text transform="matrix(1 0 0 1 3558.5203 50.0042)" class="st14 st1">Coolvetica Bold italic</text>
<text transform="matrix(1 0 0 1 3907.3406 50.0901)" class="st15 st1">Coolvetica Heavy</text>
<text transform="matrix(1 0 0 1 4199.1455 49.848)" class="st16 st12">Coolvetica Heavy italic</text>
</svg>
