<?xml version="1.0" encoding="UTF-8"?><svg xmlns="http://www.w3.org/2000/svg" viewBox="0 0 276.97 53.7"><g id="a"/><g id="b"><g id="c"><path d="M59.35,45.6c-2.2,4.2-6.35,8.11-13.35,8.11-21.6,0-22.6-32.18-29.7-32.18-.51,0-1.05,.14-1.6,.43v17.79h3.9v.1H0v-.1H4.4V4.91H0v-.1H18.6v.1h-3.9V21.87L30.45,4.91h-7.3v-.1h14.65v.1h-7.2L15.08,21.63c2.44-1.45,5.62-1.91,7.67-1.91,12.6,0,11.2,27.98,30.25,27.98,2.4,0,5.1-.45,6.25-2.1h.1Z"/><path d="M138.53,39.84v-.1h3.8V1.8l6.35-.75v-.05c-3.9-.45-5.55-.65-7.2-.65-3.75,0-5.5,1.15-5.5,3.45,0,1.5,1.15,2.6,2.35,3.1-.15,3.15-2.55,4.6-5.05,4.6s-4.95-1.9-4.95-5c0-4.71,4.7-6.51,9.65-6.51s9.95,.95,11.75,.95c.75,0,1.45-.25,1.85-.6V39.74h3.8v.1h-16.85Z"/><path d="M276.97,33.28c0,4.6-2.05,6.86-7,6.86-4.25,0-6.06-2.59-6.24-5.98-.5,3.32-4.6,6.08-9.25,6.08s-7.7-2.3-7.7-6.61c0-7.91,11.25-6.56,16.9-10.46v-3.5c0-2.95-.4-6.46-3.75-6.46-2.85,0-4.1,2.25-4.1,4.35,0,1.4,.7,2.55,1.75,3.05-.15,2.85-2.2,4.2-4.45,4.2-2.7,0-4.7-1.8-4.7-4.6,0-5.76,7.6-7.11,11.5-7.11,6.95,0,13.05,1.95,13.05,7.76v11.96c0,3.15,.1,5.16,1.6,5.16,2.05,0,2.3-3.2,2.3-4.71h.1Zm-13.3,.4v-10.41c-3.55,2.3-6.7,2.85-6.7,8.66,0,2.1,.7,5.55,3.5,5.55,1.95,0,3.2-2.15,3.2-3.8Z"/></g></g></svg>