<?xml version="1.0" encoding="UTF-8"?><svg xmlns="http://www.w3.org/2000/svg" viewBox="0 0 281.87 54"><g id="a"/><g id="b"><g id="c"><path d="M52.9,42.29c2.65,0,5.05,1.65,5.05,5.05,0,4.6-5.3,6.66-10.5,6.66-26.7,0-26.9-29.73-32.3-29.73-.68,0-1.2,.17-2,.57v14.59h2.95v.1H.1v-.1H3.9V.67L0,.9v-.1L13.25,0l-.15,24.68,11.65-11.37h-6.1v-.1h12.15v.1h-5.9l-11.68,11.4c2.9-1.48,5.26-2.09,7.53-2.09,13.7,0,13.4,31.28,26.7,31.28,1.7,0,3.1-.95,3.1-3.2,0-1.85-1.5-3.3-2.8-3.7,.15-3.25,2.65-4.7,5.15-4.7h0Z"/><path d="M155.33,46.6c0,4.8-5.75,6.66-10.5,6.66-6.45,0-13.95-5.05-13.95-14.81V.67l-3.9,.24v-.1L140.13,0V40.79c0,7.01,.25,12.36,4.7,12.36,1.7,0,3.1-.95,3.1-3.2,0-1.85-1.5-3.3-2.8-3.7,.15-3.25,2.65-4.71,5.15-4.71,2.65,0,5.05,1.65,5.05,5.05Z"/><path d="M276.82,41.54c2.65,0,5.05,1.65,5.05,5.05,0,4.8-5.75,6.66-10.5,6.66-6.45,0-13.95-5.1-13.95-14.81v-4.54c-.53,3.3-4.62,6.04-9.25,6.04s-7.7-2.3-7.7-6.61c0-7.91,11.25-6.56,16.9-10.46v-3.5c0-2.95-.4-6.46-3.75-6.46-2.85,0-4.1,2.25-4.1,4.35,0,1.4,.7,2.55,1.75,3.05-.15,2.85-2.2,4.2-4.45,4.2-2.7,0-4.7-1.8-4.7-4.6,0-5.76,7.6-7.11,11.5-7.11,6.95,0,13.05,1.95,13.05,7.76v20.22c0,7.01,.25,12.36,4.7,12.36,1.7,0,3.1-.95,3.1-3.2,0-1.85-1.5-3.3-2.8-3.7,.15-3.25,2.65-4.71,5.15-4.71h0Zm-19.45-8.16v-10.41c-3.55,2.3-6.7,2.85-6.7,8.66,0,2.1,.7,5.56,3.5,5.56,1.95,0,3.2-2.15,3.2-3.8Z"/></g></g></svg>