<?xml version="1.0" encoding="UTF-8"?><svg xmlns="http://www.w3.org/2000/svg" viewBox="0 0 276.59 39.94"><g id="a"/><g id="b"><g id="c"><path d="M50.55,30.01c0,4.65-2.05,6.86-8.35,6.86s-8.45-2.2-10.45-7.86c-1.75-5-2.8-10.86-5.9-10.86-.52,0-1.08,.15-1.65,.46v17.76h3.9v.1H9.5v-.1h4.4V2.18l6.45-.65v-.05c-3.9-.45-5.55-.65-7.2-.65-3.75,0-5.5,1.15-5.5,3.45,0,1.5,1.15,2.6,2.35,3.1-.15,3.15-2.55,4.6-5.05,4.6S0,10.09,0,6.99C0,2.28,4.7,.48,9.65,.48s9.95,.95,11.75,.95h6.7v.1h-3.9V18.49L39.95,1.53h-7.3v-.1h14.65v.1h-7.2l-15.58,16.79c2.45-1.5,5.7-1.98,7.78-1.98,5.05,0,7.45,3,10.4,9.86,3.4,7.96,4.2,8.51,5.3,8.51,2.2,0,2.45-3.1,2.45-4.7h.1Z"/><path d="M145.86,39.44h3.8v.1h-16.85v-.1h3.8V.67l-3.9,.24v-.1l13.15-.8V39.44Z"/><path d="M273.29,39.44h3.3v.1h-12.55l.05-5.81h-.03c-.61,3.81-2.99,6.21-7.37,6.21-6.15,0-10.9-4.71-10.9-12.61,0-8.71,5.8-14.51,14.65-14.51,1.68,0,4.6,.66,7.71,3.41l5.14-3.36v26.58Zm-9.25-6.36v-11.81c0-3.5-.3-8.36-3.6-8.36-3,0-4.45,3.5-4.45,13.71,0,8.96,1,12.46,3.5,12.46,2.25,0,4.35-2.7,4.55-6.01Z"/></g></g></svg>