<?xml version="1.0" encoding="UTF-8"?><svg xmlns="http://www.w3.org/2000/svg" viewBox="0 0 281.19 53.4"><g id="a"/><g id="b"><g id="c"><path d="M55.25,45.29c-2.65,4.96-7.5,8.11-14.05,8.11-20.35,0-18.95-29.13-26.05-29.13-.58,0-1.11,.19-2,.65v14.52h2.95v.1H.1v-.1H3.9V.67L0,.9v-.1L13.25,0l-.15,24.68,11.65-11.37h-6.1v-.1h12.15v.1h-5.9l-11.75,11.46v.04c3-1.56,5.37-2.2,7.6-2.2,13.8,0,9.7,24.77,27.8,24.77,3.05,0,5.7-.7,6.6-2.15l.1,.05Z"/><path d="M154.66,36.33c0,10.06-25.4,13.01-25.8-2.25V.67l-3.9,.24v-.1l13.15-.8V39.54h-7.6c3.9,6.41,16.75,6.61,16.75,.3,0-2.15-1.5-3.25-2.8-3.65,.15-3.25,2.65-4.7,5.1-4.7,2.75,0,5.1,1.8,5.1,4.85Z"/><path d="M276.09,31.48c2.75,0,5.1,1.8,5.1,4.85,0,10.03-25.54,13.14-25.8-2.45-.52,3.31-4.61,6.06-9.25,6.06s-7.7-2.3-7.7-6.61c0-7.91,11.25-6.56,16.9-10.46v-3.5c0-2.95-.4-6.46-3.75-6.46-2.85,0-4.1,2.25-4.1,4.35,0,1.4,.7,2.55,1.75,3.05-.15,2.85-2.2,4.2-4.45,4.2-2.7,0-4.7-1.8-4.7-4.6,0-5.76,7.6-7.11,11.5-7.11,6.95,0,13.05,1.95,13.05,7.76v18.97h-7.6c3.9,6.41,16.75,6.61,16.75,.3,0-2.15-1.5-3.25-2.8-3.65,.15-3.25,2.65-4.7,5.1-4.7h0Zm-20.75,1.9v-10.41c-3.55,2.3-6.7,2.85-6.7,8.66,0,2.1,.7,5.55,3.5,5.55,1.95,0,3.2-2.15,3.2-3.8Z"/></g></g></svg>