<?xml version="1.0" encoding="UTF-8"?><svg xmlns="http://www.w3.org/2000/svg" viewBox="0 0 232.2 138"><defs><style>.d{fill:#fff;}</style></defs><g id="a"/><g id="b"><g id="c"><path class="d" d="M232.2,134.2v3.6c-1.8,.2-3.2,.2-3.4,.2-19.4,0-43.2-7.2-67.2-19-24.4,12-53.2,18-79.8,18C34.8,137,0,121.6,0,92c0-23.6,22.4-38.6,74.8-37-9.6-11.2-11.2-18.6-11.2-24.8C63.6,12,82.8,0,115.2,0c29.6,0,47.2,10.8,47.2,28,0,18.8-18.2,33-78.6,31.2h-.4c21,21,49.6,41.4,78,55.6,24.6-12.4,44.6-30.6,52.4-55h4c-8,25-27.6,44-52.2,57,22.4,10.8,44.8,17.6,63,17.6,.4,0,1.8,0,3.6-.2Zm-150.4-.8c24.6,0,51.8-5.6,75.6-16.6-27.4-13.8-54.6-33.2-76-54.6-1.2-1.2-2.2-2.4-3.4-3.4C25,56.8,3.6,70.6,3.6,92c0,27.2,33.6,41.4,78.2,41.4Zm-14.6-103.2c0,5.6,2,13.8,13,25.6,70.2,1.8,78.6-15,78.6-27.8,0-15-16.2-24.4-43.6-24.4-30.2,0-48,10.8-48,26.6Z"/></g></g></svg>