<?xml version="1.0" encoding="utf-8"?>
<!-- Generator: Adobe Illustrator 26.2.1, SVG Export Plug-In . SVG Version: 6.00 Build 0)  -->
<svg version="1.1" id="Calque_1" xmlns="http://www.w3.org/2000/svg" xmlns:xlink="http://www.w3.org/1999/xlink" x="0px" y="0px"
	 viewBox="0 0 100 100" style="enable-background:new 0 0 100 100;" xml:space="preserve">
<style type="text/css">
	.st0{fill:#FFFFFF;}
</style>
<path class="st0" d="M50.75,42.02L79.1,20.26c2.63-2.02,5.35-3.98,8.01-5.98c2.7-2.04,6.16-3.02,8.42-0.41
	c1.14,1.31,0.55,4.7-0.99,5.91C81.81,29.74,68.67,39.4,55.69,49.17c-3.42,2.57-6.53,2.17-9.73-0.25
	c-12.64-9.54-25.33-19.04-38-28.55c-2.76-2.07-4.67-4.34-1.07-6.81c3.66-2.51,6.36-0.57,8.98,1.47
	C27.2,23.84,38.58,32.62,50.75,42.02z"/>
<path class="st0" d="M50.8,61.62c10.13-7.81,19.21-14.81,28.3-21.79c2.63-2.02,5.35-3.98,8.01-5.98c2.7-2.04,6.16-3.02,8.42-0.41
	c1.14,1.31,0.55,4.7-0.99,5.91C81.82,49.31,68.68,58.97,55.7,68.74c-3.42,2.57-6.53,2.17-9.73-0.25
	c-12.64-9.54-25.33-19.04-38-28.55c-2.76-2.07-4.67-4.34-1.07-6.81c3.66-2.51,6.36-0.57,8.98,1.47
	C27.22,43.42,38.62,52.2,50.8,61.62z"/>
<path class="st0" d="M50.32,79.33c10.13-7.81,19.21-14.81,28.3-21.79c2.63-2.02,5.35-3.98,8.01-5.98c2.7-2.04,6.16-3.02,8.42-0.41
	c1.14,1.31,0.55,4.7-0.99,5.91C81.33,67.02,68.2,76.68,55.22,86.45c-3.42,2.57-6.53,2.17-9.73-0.25
	c-12.64-9.54-25.33-19.04-38-28.55c-2.76-2.07-4.67-4.34-1.07-6.81c3.66-2.51,6.36-0.57,8.98,1.47
	C26.74,61.13,38.13,69.91,50.32,79.33z"/>
</svg>
