<svg xmlns="http://www.w3.org/2000/svg" viewBox="0 0 195.24 214.5"><defs><style>.cls-1,.cls-2{fill:#a3a3a3;}.cls-2{stroke:#a3a3a3;}.cls-2,.cls-4,.cls-5{stroke-miterlimit:10;}.cls-2,.cls-5{stroke-width:0.75px;}.cls-3,.cls-5{fill:#090909;}.cls-4{fill:#cd6621;}.cls-4,.cls-5{stroke:#090909;}</style></defs><g id="Calque_2" data-name="Calque 2"><g id="tracée"><path class="cls-1" d="M12.78,138.66,193.37.05,172.93,33.87,70,108.19l88.81-58.71L138,80.69l-76.92,45,65.77-34.93-18.2,25.81-52.77,25.1,47.19-19.32L170,74.74l-29.73,41.79-39.76,23.24,58.71-30.1-31.58,32L93.78,155.38l-40.5,43.47-.71.79,3.51,3.84-.26,11L53,205.19l-5-3.67-9.57,1.37-4,11.54L36,200.32l10.69-1.19L43,195.19l-6.58-.08-7.18,5.64,7-8.38,10.08-.25,3.25,4,2.82-6.66s-16.41-12.14-46,9.06c0,0,4-9.75,10.69-9.66,0,0-2.74-3.93-16.16-2.82,0,0,2.65-15.39,23.51-16.42l8.72-7.26L13.59,154Z"/><path class="cls-2" d="M11,188.16s-7.11-.94-10-.11c0,0-2.35,6.37,2.62,9.74A9.16,9.16,0,0,1,11,188.16Z"/><path class="cls-3" d="M14.54,138.68,195.24,0,174.79,33.83,71.8,108.2l88.87-58.75L139.84,80.68l-77,45,65.81-34.95-18.22,25.83-52.8,25.11,47.22-19.33,66.93-47.6-29.74,41.82L102.29,139.8,161,109.68l-31.61,32L95.6,155.42l-40.53,43.5-.7.78,3.5,3.85-.25,10.95-2.83-9.24-5-3.68L40.25,203l-4,11.55,1.54-14.11,10.69-1.2-3.67-3.94-6.59-.08L31,200.81l7-8.38,10.09-.26,3.25,4,2.83-6.67s-16.43-12.14-46,9.07c0,0,4-9.75,10.69-9.67,0,0-2.74-3.93-16.17-2.82,0,0,2.66-15.39,23.53-16.42L35,162.41,15.36,154Z"/><path class="cls-4" d="M8.78,183.19l4.53-4.79s2.4-.08,1.63,3-4.54,2.73-4.54,2.73S8.78,183.9,8.78,183.19Z"/><path class="cls-5" d="M12.73,188.22s-7.1-.95-10-.11c0,0-2.35,6.37,2.63,9.75A9.15,9.15,0,0,1,12.73,188.22Z"/></g></g></svg>