<svg xmlns="http://www.w3.org/2000/svg" viewBox="0 0 263.89 319.16"><defs><style>.cls-1{fill:#fff;}.cls-2,.cls-4{fill:#ffa534;}.cls-2{opacity:0.47;}.cls-3,.cls-4{stroke:#ffa534;stroke-miterlimit:10;}.cls-5{fill:#cb4e34;}</style></defs><g id="Calque_2" data-name="Calque 2"><g id="texte"><rect class="cls-1" x="0.5" width="263.09" height="318.29"/><circle class="cls-2" cx="66.36" cy="108.66" r="26.46"/><polygon class="cls-3" points="252.94 89.84 255.95 89.84 255.95 113.75 258.48 113.75 258.48 126.9 258.48 136.08 259.75 136.08 263.39 132.12 263.39 318.66 0.5 318.66 0.5 107.94 6.43 102.02 6.43 107.37 6.43 110.65 11.56 110.65 11.56 119.02 24.49 119.02 24.49 131.52 32.33 131.52 32.33 119.97 45.15 119.97 60.62 104.51 66.65 104.51 71.1 108.96 71.1 126.01 77.35 126.01 77.35 150.06 81.38 150.06 81.38 114.47 87.63 114.47 91.29 110.81 92.5 110.81 92.5 94.02 95.47 94.02 95.47 110.65 105.75 110.65 105.75 114.82 113.89 114.82 113.89 109.63 119.77 103.75 124.7 103.75 124.7 145.01 124.7 148.61 135.93 148.61 135.93 127.85 142.6 127.85 142.6 119.9 148.22 119.9 148.22 187.81 154.68 187.81 154.68 120.75 156.9 120.75 156.9 126.05 160.72 126.05 160.72 187.39 162.62 187.39 162.62 144.91 168.45 144.91 168.45 128.06 172.79 128.06 172.79 116.72 177.56 116.72 177.56 130.34 184.59 130.34 184.59 146.63 187.39 146.63 187.39 134.92 192.04 130.27 195.8 130.27 198.18 132.66 198.18 146.25 208.65 146.25 208.65 176.3 219.47 176.3 219.47 118.63 221.26 118.63 221.26 129.32 224.06 129.32 224.06 138.74 233.99 138.74 233.99 177.44 237.3 177.44 237.3 130.34 242.01 130.34 246.66 125.69 246.66 102.71 252.7 102.71 252.94 89.84"/><path class="cls-4" d="M60.09,120.57,40.31,161.49v27.92H25.38V159.55s-2.91,1.36-2.91,0V149.08l-5.72-5.72h-9v9.79h-6V317.46h115V178.55l-10.5-10.5V148H91.62v-17.6H88.57v21l-4.07,4.06v25.08H78.4V161.27l-5.08-5.08V140.27l-3.73-3.73v-16.6Z"/><path class="cls-4" d="M203.56,121.07,223.34,162v27.93h14.93V160.05s2.91,1.36,2.91,0V149.58l5.72-5.72h9v9.79h6V318H147V179.05l10.5-10.5v-20H172v-17.6h3.05v21l4.06,4.06v25.08h6.1V161.77l5.08-5.08V140.77l3.73-3.73v-16.6Z"/><path class="cls-5" d="M12.52,276.65l.07-1.22a12.4,12.4,0,0,1,3.59.25,14.55,14.55,0,0,1,3.57,1.26c.11,2.86.17,5.77.17,8.53,0,1.59-.09,4.08-.17,8.29L10,291.69l-1.52,2-.34-.06C8,290.48,8,286.88,8,283.52c0-2.36,0-4.85.16-7.27a9.31,9.31,0,0,1,3.25.08A9.5,9.5,0,0,1,12.52,276.65Zm4.79,3.72a5.3,5.3,0,0,0-1.13-.36,5,5,0,0,0-1.15-.13c-.08,1.38-.08,2.72-.08,4.37v4.13l2.34.5c.1-1.26.11-2.36.11-3.94C17.4,283.18,17.39,281.82,17.31,280.37Zm-5,7.45v-3.88c0-.6,0-1.21,0-1.83l0-.93a4,4,0,0,0-.94-.34,6.55,6.55,0,0,0-.89-.1c-.06.74-.06,1.45-.06,2.28v1.05c0,1.37,0,2.29.1,3.36Z"/><path class="cls-5" d="M9.57,266.91l1.69.35c1.67.36,3.59.75,5.25,1.05a10.49,10.49,0,0,0,.17-2.32,11.51,11.51,0,0,0-.17-2.39c-.25-.05-.54-.15-.8-.23v-4.52c1.27.3,2.47.66,3.86,1.13a58.73,58.73,0,0,1,.34,6.7,54.9,54.9,0,0,1-.34,6.56c-2.62-.34-5.51-.86-8.14-1.42l-1.54,1.92-.32-.06Z"/><path class="cls-5" d="M9.57,244l10.18-2v4.5l-1.35.28V254l1.35.81v4.53l-8.23-5.12-.09,0-1.52,1.93-.33-.07c-.11-2.31-.16-4.59-.17-6.85v-.77C9.41,247,9.44,245.6,9.57,244Zm3.12,6.55,2.66,1.64v-4.84l-2.66.52a12.31,12.31,0,0,0,0,1.32C12.64,249.52,12.65,250.28,12.69,250.51Z"/><path class="cls-5" d="M10.07,224.37a8.85,8.85,0,0,1,4.59-.18,11.57,11.57,0,0,1,4.59,2.13,41.81,41.81,0,0,1,.66,7.59c0,1.3-.05,2.47-.16,7.3l-8.32-1.76-1.52,1.93-.33-.07c-.11-2.89-.16-6.25-.17-9.13v-.55A36.39,36.39,0,0,1,10.07,224.37Zm6.61,5.76a5.72,5.72,0,0,0-2-.85,4.06,4.06,0,0,0-2,0,17.88,17.88,0,0,0-.16,3.05,22.17,22.17,0,0,0,.16,2.86l4,.86a22.65,22.65,0,0,0,.16-2.8A20.44,20.44,0,0,0,16.68,230.13Z"/><path class="cls-5" d="M16.63,207.38l3.1.66c.13,2.48.18,4.8.18,7.18s-.05,5-.18,7.41l-8.3-1.76-1.52,1.92-.33-.06c-.11-2.7-.16-6.3-.17-9.16v-1.21c0-2.15,0-4.22.17-6.4l3.11.66c-.17,1.75-.17,4-.17,5.77,0,1.37,0,2.84,0,4.18l1,.23v-6.57l2.3.46v6.59l.95.21v-4.78C16.79,211.07,16.79,209.09,16.63,207.38Z"/><path class="cls-5" d="M19.75,193.86v4.5l-8.32-1.76-1.54,1.92-.32-.06V188.6a50.18,50.18,0,0,1,.42-7.44,18.85,18.85,0,0,1,3.16.34,19.68,19.68,0,0,1,4.06,1.19l.08,1.84,2.46-2.18V188l-4.82,4.38-.32-.07,0-4.22v-.17c0-.47,0-.94-.05-1.41a7.67,7.67,0,0,0-1-.29,9.3,9.3,0,0,0-1-.15c-.06,1-.06,1.86-.06,3.15v3.06Z"/><path class="cls-5" d="M19.25,179.15c-2.54-.29-5.3-.79-7.82-1.32l-1.54,1.9-.32-.06v-6.84l1.86.39c1.61.34,3.47.7,5.08,1a16.89,16.89,0,0,0,.17-2.94,17.82,17.82,0,0,0-.17-3c-1.61-.41-3.47-.84-5.08-1.18l-1.86-.39v-4.6l1.86.39c2.53.53,5.28,1.45,7.82,2a40,40,0,0,1,.66,7.45A35.83,35.83,0,0,1,19.25,179.15Z"/><path class="cls-5" d="M19.75,145.16v4.5l-6.92,5a2.8,2.8,0,0,0,0,.53l7,1.47v4.53l-8.32-1.77-1.54,1.93-.32-.07v-2.74c0-2.33.06-4.46.21-7.29l4.1-2.81-4.31-.9V143Z"/><path class="cls-5" d="M19.75,126v4.51l-6.92,5a2.86,2.86,0,0,0,0,.54l7,1.46V142l-8.32-1.76-1.54,1.92-.32-.07v-2.74c0-2.33.06-4.46.21-7.29l4.1-2.81-4.31-.9v-4.51Z"/><path class="cls-5" d="M16.63,107.7l3.1.66c.13,2.48.18,4.8.18,7.18s-.05,5-.18,7.41l-8.3-1.76-1.52,1.92-.33-.06c-.11-2.7-.16-6.3-.17-9.16v-1.21c0-2.15,0-4.22.17-6.4l3.11.66c-.17,1.75-.17,4-.17,5.77,0,1.37,0,2.84,0,4.18l1,.23v-6.58l2.3.47v6.59l.95.21V113C16.79,111.38,16.79,109.41,16.63,107.7Z"/><path class="cls-5" d="M19.75,101.12v4.51l-8.32-1.76-1.54,1.92-.32-.06V95.87A50.39,50.39,0,0,1,10,88.42a20,20,0,0,1,3.16.34A20.37,20.37,0,0,1,17.21,90l.08,1.84,2.46-2.18v5.65l-4.82,4.38-.32-.06,0-4.22v-.18c0-.46,0-.93-.05-1.4a7.67,7.67,0,0,0-1-.29,7.45,7.45,0,0,0-1-.15c-.06,1-.06,1.86-.06,3.15v3.06Z"/><path class="cls-5" d="M17,75c0-.63,0-1,0-2.07a38.25,38.25,0,0,0-.23-5.34l2.89.63c.2,2.21.28,4.36.28,6.51s-.1,4.59-.24,6.86l-3-.63-4.6-9.67-.37-.1c-.2-.05-.41-.06-.59-.11a4.45,4.45,0,0,0-.22,1.73,5.45,5.45,0,0,0,.22,1.81c.2,0,.39.11.6.16l.21.05v4.6l-.21,0a21.09,21.09,0,0,1-3.29-1A37.47,37.47,0,0,1,8,72.14a33.39,33.39,0,0,1,.49-6,19.28,19.28,0,0,1,3.26.42,7.71,7.71,0,0,1,1.92.67Z"/><path class="cls-5" d="M19.92,59.79a40.12,40.12,0,0,1-.51,6.7c-1.86-.25-3.62-.59-5.46-1s-3.59-.81-5.45-1.33A44.53,44.53,0,0,1,8,57.24a40.5,40.5,0,0,1,.55-6.71c1.86.29,3.6.62,5.45,1s3.6.83,5.46,1.31A44.81,44.81,0,0,1,19.92,59.79Zm-3.41,1.39a10.77,10.77,0,0,0,.2-2.07,12.49,12.49,0,0,0-.2-2.16c-.88-.25-1.68-.42-2.56-.62s-1.68-.34-2.57-.48a9.66,9.66,0,0,0-.21,2.08,10.51,10.51,0,0,0,.21,2.15c.89.26,1.68.45,2.57.63S15.63,61.05,16.51,61.18Z"/><path class="cls-5" d="M14.12,37.49v-1.6l3.25.68v1.59l2.38.5v4.52l-2.36-.5v8c-1.72-.23-3.43-.55-5.12-.91A36.06,36.06,0,0,1,8,48.72V44.29c1.66.41,2.94.7,4.3,1a17.4,17.4,0,0,0,1.87.32V42L8,40.68V36.17Z"/><path class="cls-5" d="M19.75,28.93v5.8l-4.08-7v.44a49.16,49.16,0,0,1-.41,6.67,30.61,30.61,0,0,1-3.43-.55,30,30,0,0,1-3.43-.9A53.65,53.65,0,0,1,8,26.47,49.49,49.49,0,0,1,8.4,19.8c1.18.16,2.27.34,3.43.58s2.26.53,3.43.87Zm-7.26.84c.07-.73.1-1.54.1-2.31s0-1.55-.1-2.35a4.56,4.56,0,0,0-.66-.21c-.24,0-.42-.06-.68-.08-.06.78-.1,1.57-.1,2.31s0,1.6.1,2.35a2.23,2.23,0,0,0,.68.24A1.83,1.83,0,0,0,12.49,29.77Z"/></g></g></svg>