<?xml version="1.0" encoding="UTF-8"?><svg xmlns="http://www.w3.org/2000/svg" viewBox="0 0 168.78 189.03"><defs><style>.d{fill:#fff;}</style></defs><g id="a"/><g id="b"><g id="c"><path class="d" d="M77.82,2.69l.07,4.9,.19,13.41,.28,19.74,.35,24.08,.38,26.51,.38,26.63,.36,24.84,.3,21.09,.22,15.09c.03,2.39,.02,4.78,.1,7.16,0,.1,0,.21,0,.31,.05,3.42,5.37,3.43,5.32,0l-.07-4.9-.19-13.41-.28-19.74-.35-24.08-.38-26.51-.38-26.63-.36-24.84-.3-21.09-.22-15.09c-.03-2.39-.02-4.78-.1-7.16,0-.1,0-.21,0-.31-.05-3.42-5.37-3.43-5.32,0h0Z"/><path class="d" d="M4.51,98.24l7.77-9.35,18.58-22.35,22.46-27.03,19.48-23.44c3.14-3.78,6.32-7.53,9.42-11.34,.04-.05,.09-.11,.13-.16,.92-1.1,1.08-2.68,0-3.76-.94-.94-2.84-1.11-3.76,0l-7.77,9.35-18.58,22.35-22.46,27.03-19.48,23.44c-3.14,3.78-6.32,7.53-9.42,11.34-.04,.05-.09,.11-.13,.16-.92,1.1-1.08,2.68,0,3.76,.94,.94,2.84,1.11,3.76,0h0Z"/><path class="d" d="M168.02,89.97l-8.53-8.88-20.49-21.33-24.69-25.7-21.36-22.23c-3.47-3.61-6.83-7.39-10.44-10.86-.05-.05-.1-.1-.15-.15-2.38-2.47-6.13,1.29-3.76,3.76l8.53,8.88,20.49,21.33,24.69,25.7,21.36,22.23c3.47,3.61,6.83,7.39,10.44,10.86,.05,.05,.1,.1,.15,.15,2.38,2.47,6.13-1.29,3.76-3.76h0Z"/></g></g></svg>