<?xml version="1.0" encoding="UTF-8"?><svg xmlns="http://www.w3.org/2000/svg" viewBox="0 0 314.5 105.5"><defs><style>.d{fill:none;stroke:#2b4798;stroke-miterlimit:10;}</style></defs><g id="a"/><g id="b"><g id="c"><path d="M20.64,16.62c.44,.63,.58,1.23,.58,2.48,0,1.17-.12,4.94-.12,5.27,0,1.38,.94,1.5,1.17,1.5,.12,0,.79-.21,1.11-.45,.09-.06,.12,0,.17,.09,.09,.09,.09,.27,.09,.3,0,.57-1.32,1.86-2.63,1.86-.67,0-1.52-.39-1.87-1.5,0-.03-.12-.15-.17-.12-1.08,.78-2.34,1.29-2.63,1.38-.32,.12-1.02,.18-1.17,.18-1.02,0-2.02-1.29-2.02-2.78,0-.54,.23-1.11,.56-1.53,.29-.39,.73-.54,1.17-.75,.44-.18,2.78-.84,3.42-1.05,.67-.21,.85-.36,.85-.54,.03-.27,.06-2.09,.06-2.45,0-.75-.85-2-2.28-2-.61,0-.99,.18-1.2,.33-.18,.09-.26,.63-.21,1.23,0,.09-.12,.27-.17,.33-.29,.24-1.76,.99-1.9,.99-.18,0-.35-.24-.35-.39,0-.87,.82-1.71,2.19-2.63,.85-.63,2.16-1.14,2.72-1.14,1.46,0,2.19,.75,2.63,1.41Zm-1.93,8.92c.18-.12,.35-.69,.35-.75,.06-.72,.06-1.74,.06-2.33,0-.09-.12-.24-.23-.24-.82,0-2.22,.51-3.01,.9-.29,.21-.58,.42-.58,1.14,0,1.32,1.23,1.79,1.84,1.79,.44,0,1.02-.21,1.58-.51Z"/><path d="M55.44,26.03c-1.2,1.02-2.95,1.35-3.98,1.35s-3.04-.36-3.71-.6c-.12-.06-.38-.03-.61,.09-.12,.06-.29,.09-.35,.09-.12,0-.18-.18-.18-.39,.15-2.33,.18-7.48,.18-9.93,0-2.84-.09-7.27-.15-7.69-.03-.15-.18-.54-.73-1.02-.44-.33-.58-.42-.58-.57,0-.03,.26-.39,.35-.42,.82-.3,1.81-.57,2.4-.93,.38-.24,.67-.36,.73-.36,.12,0,.32,.27,.32,.39-.09,1.97-.26,4.82-.26,7.21,0,.78,0,2.24,.06,2.57,0,.06,.15,.15,.18,.12,.96-.66,2.37-1.02,3.33-1.02,1.37,0,2.69,.48,3.63,1.32,1.32,1.14,1.93,2.81,1.93,4.52,0,2.48-1.26,4.25-2.54,5.27Zm-1.32-8.5c-.67-.69-1.81-1.29-3.19-1.29-.96,0-1.52,.27-1.75,.45-.09,.06-.21,.24-.23,.45-.03,.27-.06,1.11-.06,1.74,0,1.56,.09,3.17,.23,4.79,.03,.63,.21,1.11,.58,1.5,.82,.87,2.19,1.26,2.72,1.26,.32,0,1.11-.39,1.78-1.02,.82-.81,1.35-2.66,1.35-4.01,0-1.08-.44-2.75-1.43-3.86Z"/><path d="M92.11,15.99c.29,.21,.44,.72,.44,.9,0,.48-.85,1.2-.97,1.2-.17,0-.67-.24-1.14-.57-.96-.72-1.46-1.17-2.46-1.17-.47,0-1.35,.42-1.81,1.02-.79,.9-1.23,2.12-1.23,3.44,0,1.74,.64,2.81,.76,2.99,.73,1.26,2.16,2,3.69,2,1.08,0,1.84-.36,2.6-.9,.32-.24,.56-.15,.56,0,0,.33-.15,.63-.38,.87-1.02,1.17-2.69,1.86-4.21,1.86-1.84,0-3.39-.99-4.33-2.39-.5-.84-.91-2.24-.91-3.5,0-2.18,1.14-4.01,2.84-5.18,1.14-.84,3.04-1.26,3.83-1.26,.88,0,2.16,.24,2.72,.69Z"/><path d="M126.13,15.33c.12,.03,.21-.18,.23-.33,.15-.81,.06-5.39-.03-6.1-.03-.15-.03-.51-1.38-1.23-.26-.15-.29-.21-.29-.27,0-.12,.32-.48,.5-.51,.67-.09,2.22-.54,2.98-.84,.18-.06,.26-.09,.38-.09,.09,0,.26,.21,.23,.48-.15,1.59-.26,2.66-.26,11.82,0,5.77,.06,6.25,.06,6.82,.06,1.11,.29,1.23,.47,1.23,.32,0,1.29-.21,1.58-.24,.12,0,.18,.15,.18,.18,0,.21-.35,.72-.5,.75-.56,.09-2.08,.39-2.63,.6-.67,.24-.91,.3-1.05,.3-.12,0-.32-.24-.32-.39,0-.27,.06-.81,.06-1.23,0-.12-.12-.18-.18-.18-1.35,1.23-2.84,1.5-3.8,1.5-1.4,0-2.75-.66-3.66-1.65-.94-1.08-1.4-2.6-1.4-4.1,0-2.93,1.67-4.64,3.1-5.5,1.34-.84,3.07-1.14,3.86-1.14,1.05,0,1.52,.06,1.87,.12Zm-5.24,1.92c-.56,.57-1.23,2.09-1.23,3.77,0,2.39,1.64,5.15,4.15,5.15,.94,0,1.61-.33,2.14-.72,.06-.06,.44-1.02,.47-1.97,.03-1.92,0-3.56-.09-4.97-.03-.24-.29-.78-.64-1.14-.82-.84-1.93-1.17-2.52-1.17-.94,0-1.75,.51-2.28,1.05Z"/><path d="M162.16,16.38c.64,.63,1.02,1.47,1.02,2.51,0,.18-.23,.51-.56,.51s-5.32,0-6.67-.03c-.09,0-.21,.15-.23,.24-.09,.24-.15,.75-.15,1.05,0,1.17,.47,2.54,1.11,3.41,.64,.9,1.87,1.65,3.28,1.65,1.29,0,2.17-.33,2.66-1.08,.12-.18,.26-.36,.38-.36,.18,0,.23,.21,.23,.36,0,.24-.12,.57-.21,.72-1.02,1.53-2.57,2.24-4.24,2.24-3.16,0-5.27-2.45-5.27-5.95,0-2.39,1.23-4.79,3.51-5.87,.76-.36,1.73-.54,2.22-.54,1.02,0,2.17,.39,2.9,1.14Zm-6.14,1.86c-.06,.15,.06,.33,.12,.33,.76,.03,2.31,.03,3.77,0,.7,0,1-.15,1-.75,0-.84-.88-1.8-1.93-1.8-1.32,0-2.43,.84-2.96,2.21Z"/><path d="M194.74,15.6c.21,0,.41,.63,.41,1.26,0,.09-.29,.3-.44,.3-.2,0-3.1-.09-3.42-.09-.06,0-.21,.18-.21,.24-.06,.6,.03,7.15,.09,7.66,.12,1.05,.32,1.32,1.96,1.59,.5,.09,.67,.33,.67,.45,0,.3-.41,.36-.76,.36s-1.7-.06-2.43-.06c-1.05,0-2.63,.15-2.92,.15-.41,0-.73-.12-.73-.33,0-.15,.29-.36,.61-.48,1.26-.36,1.29-.66,1.32-2,.03-1.23,.06-4.82,.06-6.43,0-1.02-.18-1.11-.29-1.11-.29,0-.91,0-1.23,.06-.15,0-.35-.3-.26-.51,.03-.12,.76-.45,1.43-.99,.21-.18,.38-.36,.38-.51,.06-1.8,.2-3.17,.73-4.46,.61-1.5,1.35-2.57,2.63-3.53,1.17-.9,2.22-1.23,3.33-1.23,.61,0,1.4,.18,1.87,.57,.29,.24,.5,.66,.5,1.02,0,.42-.38,1.11-.79,1.26-.15,.06-.35,.09-.53,.09-.21,0-.38-.18-.79-.6-.56-.51-1.29-.93-2.05-.93-.7,0-1.29,.36-1.81,1.23-.7,1.26-.97,2.87-.97,6.79,0,.12,.09,.27,.18,.27,1.78,0,3.33-.03,3.45-.03Z"/><path d="M229.41,13.45c.32,.06,.61,.15,.82,.18,.64,.06,2.78,.09,3.39,.24,.17,.03,.26,.21,.26,.33,0,.42-.41,.96-.53,.96-.18,0-1.23,0-1.96-.06-.12,0-.21,.15-.18,.24,.15,.45,.23,.99,.23,1.5,0,1.65-.5,2.87-1.64,3.77-1.29,1.02-2.49,1.14-3.19,1.14-.18,0-.82-.03-1.02-.03-.17-.03-.32-.03-.44,.03-.29,.15-.94,.78-.94,1.02,0,.78,.88,1.32,1.2,1.35,1.29,.06,4.45,.09,5.38,.24,.23,.03,.88,.3,1.4,.72,.82,.72,1.23,1.86,1.23,2.63,0,2.24-1.49,3.77-2.75,4.61-1.61,1.08-3.16,1.29-4.21,1.29s-2.43-.18-3.66-1.11c-.82-.66-1.35-1.77-1.35-2.6,0-1.32,.58-1.68,.85-1.88,.73-.63,1.64-1.29,2.02-1.62,.06-.06,0-.15-.09-.21-.21-.12-.76-.3-1.14-.6-.58-.42-.99-1.26-.99-2.21,0-.06,.09-.21,.15-.27,.44-.36,1.7-1.08,2.16-1.56,.06-.06-.03-.18-.12-.27-.82-.48-2.22-1.62-2.22-3.8,0-1.47,.64-2.54,1.78-3.41,.82-.63,1.84-.96,2.98-.96s1.7,.15,2.54,.36Zm.47,18.34c1.17-.78,1.61-1.92,1.61-2.78,0-.39-.06-1.08-.41-1.56-.29-.39-.85-.78-1.55-.93-.79-.15-1.73-.15-2.95-.15-.94,0-1.4,.18-1.58,.3-.94,.66-1.32,1.77-1.32,2.45,0,.96,.41,1.74,1.02,2.27,.79,.63,1.78,.93,2.87,.93,1.14,0,1.99-.36,2.31-.54Zm-4.71-17.24c-.44,.48-.76,1.26-.76,2.66,0,1.5,1,3.74,2.9,3.74,.2,0,.56-.15,.96-.42,.73-.48,1.11-1.95,1.11-3.17,0-.54-.17-1.53-.64-2.24-.56-.84-1.26-1.32-2.11-1.32-.53,0-1.2,.39-1.46,.75Z"/><path d="M265.78,16.38c.59,.81,.85,1.94,.85,3.23,.03,1.88,.09,3.74,.12,5.54,0,.75,.38,.99,1.14,1.17,.58,.12,.82,.3,.82,.48,0,.27-.23,.39-.79,.39-.99,0-1.32-.09-2.31-.09-.67,0-1.26,.06-2.11,.06-.44,0-.58-.15-.58-.36,0-.18,.26-.33,.61-.42,.73-.24,.82-.33,.94-1.47,.06-.57,0-3.86,0-4.34,0-1.65-.15-2.6-.47-2.99-.47-.57-1.23-.99-2.37-.99-1.26,0-2.22,.57-2.34,.69-.06,.06-.44,.54-.47,1.47-.09,1.26-.09,5.15-.06,6.22,.06,.99,.47,1.17,1.14,1.35,.41,.12,.64,.33,.64,.48,0,.27-.32,.36-.73,.36-.23,0-1.7-.06-2.4-.06s-1.73,.09-2.22,.09c-.26,0-.67-.09-.67-.39,0-.15,.23-.33,.85-.51,.76-.27,1.05-.6,1.14-1.71,.09-1.26,.29-5.3,.29-8.32,0-1.2,.03-6.25-.09-7.12-.09-.78-.15-.84-.96-1.38-.12-.06-.29-.36-.29-.6,0-.06,.03-.12,.09-.15,.91-.27,2.22-.57,2.92-1.05,.12-.06,.38-.21,.56-.21,.12,0,.18,.24,.18,.33-.29,2.15-.41,9.61-.41,10.47,0,.18,.17,.21,.2,.18,1.2-1.11,2.46-1.74,3.69-1.74,1.46,0,2.49,.51,3.1,1.38Z"/><path d="M295.59,27.42c-.47,0-.76-.12-.76-.33,0-.18,.2-.33,.7-.48,.67-.18,1.11-.54,1.17-.84,.09-.42,.12-2.21,.12-3.08s.03-4.31-.03-4.67c-.03-.21-.35-.45-1.2-1.08-.18-.12-.23-.21-.23-.33,0-.21,.26-.45,.58-.51,1.08-.24,2.46-.9,2.9-1.02,.12,0,.26,.3,.26,.33,0,.33-.18,4.22-.18,5.92s.03,2.93,.06,3.98c.03,.96,.67,1.02,1.4,1.26,.47,.15,.64,.3,.64,.51,0,.18-.35,.3-.67,.3-.21,0-1.67-.09-2.28-.09-.97,0-1.99,.12-2.49,.12Zm3.71-16.82c0,.81-.82,1.47-1.4,1.47-.21,0-.67-.12-.94-.36-.23-.27-.44-.6-.44-1.11,0-.27,.12-.75,.35-1.08,.29-.27,.73-.39,1.14-.39,.79,0,1.29,.93,1.29,1.47Z"/><path d="M16.05,51.3c.7-.21,2.25-.69,2.75-.96,.21-.12,.35-.15,.5-.15,.03,0,.21,.24,.21,.33-.06,1.68-.12,10.05-.15,10.8-.06,2.45-.56,4.28-1.29,5.54-.7,1.23-1.64,2.27-2.75,3.08-.47,.36-.85,.54-1,.54s-.5-.03-.64-.15c-.06-.09-.03-.27,.03-.33,1.11-.72,1.61-1.17,1.87-1.5,.79-1.02,1.58-3.02,1.58-7.48,0-1.44,0-7.06-.12-7.9-.03-.24-.18-.48-1.2-1.08-.12-.06-.29-.18-.29-.3s.23-.36,.5-.45Zm3.57-5.66c0,1.11-.91,1.47-1.43,1.47-.5,0-1.38-.6-1.4-1.44,0-.45,.23-.93,.56-1.23,.17-.18,.38-.27,.73-.27,1.2,0,1.55,1.08,1.55,1.47Z"/><path d="M53.78,50.39c1.93,0,2.95-.36,3.95-.36,.12,0,.21,.12,.21,.21,0,.36-.47,.63-.58,.66-1.58,.36-2.08,.66-3.39,1.59-.88,.66-2.25,2.06-2.37,2.27-.06,.12-.06,.24-.03,.3,.99,1.26,3.8,4.37,4.71,5.3,.53,.51,1.05,.87,1.99,1.08,.5,.12,.7,.36,.7,.48,0,.3-.38,.36-.73,.36-.67,0-2.13-.18-3.66-.18h-1.32c-.41,0-.73-.12-.73-.39,0-.18,.26-.33,.64-.42,.62-.15,.7-.42,.38-.84-.32-.42-1.84-2.06-3.31-3.8-.29-.36-.58-.69-.73-.69-.12,0-.15,.18-.15,.24-.15,.39-.15,3.26,.03,4.16,.09,.6,.29,.78,1.08,.99,.35,.09,.64,.21,.64,.45,0,.27-.38,.33-.7,.33-.73,0-1.7-.06-2.43-.06-1.02,0-1.81,.12-2.46,.12-.35,0-.67-.09-.67-.33,0-.21,.29-.33,.67-.45,1.17-.3,1.38-.57,1.52-1.32,.12-.57,.21-6.28,.21-10.26s-.09-5.54-.18-6.31c0-.09-.06-.27-.88-.78-.23-.18-.38-.33-.38-.42,0-.12,.15-.3,.38-.39,.29-.09,1.75-.42,2.54-.93,.29-.18,.44-.27,.58-.27,.06,0,.23,.27,.2,.39-.15,.72-.26,8.44-.26,11.01,0,1.17,0,2.75,.09,3.02,.06,.18,.09,.27,.23,.27s.38-.21,.58-.39c.97-.93,2.57-2.45,3.1-3.23,.12-.15,.21-.45-1.11-.66-.18-.03-.26-.12-.26-.21,0-.12,.29-.54,.5-.54h1.38Z"/><path d="M85.33,42.17c1.35-.48,2.22-.66,3.01-1.17,.09-.06,.26,.18,.26,.3-.09,.75-.26,4.13-.26,8.14,0,4.37-.06,10.08,.09,10.89,.12,.6,.23,.96,1.49,1.32,.44,.12,.67,.27,.67,.45,0,.21-.41,.33-.76,.33-.7,0-1.96-.09-2.49-.09-.67,0-1.96,.09-2.57,.09s-.82-.09-.82-.33c0-.21,.32-.36,.64-.42,1.34-.3,1.4-.84,1.52-2.33,.09-1.23,.18-4.37,.18-9.1,0-2.21,0-5.45-.09-6.25-.03-.24-.03-.42-.7-.84-.5-.36-.58-.45-.58-.57s.09-.33,.41-.42Z"/><path d="M114.5,51.33c.58-.24,1.9-1.02,2.22-1.23,.12-.09,.18-.12,.23-.12,.15,.03,.35,.24,.35,.3,0,.42-.12,1.26-.12,1.56,0,.09,.06,.3,.18,.18,.73-.6,2.54-1.74,3.92-1.74,1.05,0,1.75,.21,2.28,.6,.53,.39,.82,.84,.94,1.05,.06,.12,.12,.18,.23,.12,.56-.42,1.32-.9,2.08-1.29,.67-.33,1.35-.48,1.87-.48,1.08,0,1.9,.36,2.52,1.02,.64,.75,.91,1.79,.96,2.87,.12,1.56,.06,3.65,.06,6.1,.03,.54,.21,1.11,1.26,1.41,.38,.12,.56,.24,.56,.42,0,.21-.26,.33-.82,.33-.58,0-1.38-.09-2.11-.09-.88,0-1.32,.06-1.99,.06-.56,0-.73-.18-.73-.39,0-.18,.32-.3,.64-.39,.94-.3,1.05-.66,1.05-1.71,0-.72-.06-4.07-.06-5.06,0-1.05-.18-1.47-.47-2-.35-.57-.99-1.05-2.22-1.05-1.32,0-1.84,.57-2.25,.93-.09,.09-.29,.66-.29,.87s-.06,5.87,0,6.52c.09,.96,.23,1.26,1.23,1.5,.32,.09,.61,.27,.61,.42,0,.21-.23,.36-.7,.36-.64,0-1.52-.06-2.19-.06-.61,0-1.46,.06-2.08,.06-.67,0-.76-.24-.76-.36,0-.09,.12-.3,.58-.42,1-.24,1.11-.54,1.11-1.62v-5.87c0-.87-.18-1.26-.38-1.53-.38-.51-1.14-.9-2.19-.9-.97,0-1.64,.36-2.34,.93-.21,.18-.29,.42-.32,.75-.06,.78-.06,4.55-.06,6.82,0,.57,.12,1.05,1.05,1.35,.56,.18,.79,.3,.79,.54,0,.21-.41,.3-.79,.3-.12,0-1.2-.06-2.31-.06-.96,0-1.55,.09-2.19,.09-.44,0-.73-.12-.73-.33,0-.12,.18-.33,.7-.45,.94-.24,1.11-.69,1.23-1.97,.06-.87,.09-3.86,.09-5.92,0-.15,.06-.54-.21-.81-.82-.78-1.02-.93-1.02-1.08,0-.18,.26-.36,.58-.54Z"/><path d="M152.64,51.09c.5-.18,1.55-.57,1.96-.87,.29-.18,.56-.33,.7-.33s.29,.33,.29,.45c0,.51-.12,1.23-.12,1.5,0,.15,.15,.09,.18,.09,1.17-.81,2.69-1.65,3.92-1.65,1.43,0,2.25,.66,2.66,1.14,.64,.78,1.02,2.15,1.02,3.65,0,.57,.06,5.03,.09,5.45,.06,.45,.35,.84,1.08,1.05,.56,.15,.73,.3,.73,.51s-.41,.33-.88,.33c-.67,0-1.35-.06-2.17-.06-.73,0-1.64,.06-2.02,.06-.26,0-.67-.12-.67-.36,0-.21,.32-.39,.67-.51,.7-.27,.85-.51,.91-1.5s.09-4.61,.09-5.48c0-1.08-.53-1.94-.88-2.21-.32-.24-1.2-.57-1.87-.57-1.29,0-2.05,.45-2.6,.96-.09,.09-.29,.45-.29,.72,0,.39,0,6.82,.03,7.18,.03,.42,.15,.66,1.08,.93,.29,.09,.53,.27,.53,.45,0,.21-.32,.36-.73,.36-.35,0-1.17-.03-1.78-.03-1.08,0-1.93,.09-2.43,.09-.44,0-.76-.12-.76-.39,0-.21,.29-.36,.61-.45,.96-.3,1.14-.6,1.23-1.68,.09-.9,.15-3.5,.15-6.55,0-.33-.06-.63-.7-1.17-.38-.27-.56-.42-.56-.51,0-.21,.32-.51,.53-.6Z"/><path d="M198.5,56.36c0,2.48-1.46,4.43-2.54,5.15-1.17,.87-2.31,1.2-3.63,1.2s-2.81-.63-3.89-1.56c-1.26-1.05-2.17-3.08-2.17-4.58,0-2.27,.94-3.71,2.05-4.67,.91-.81,2.37-1.65,4.33-1.65,2.9,0,5.85,2.33,5.85,6.1Zm-8.31-4.34c-.76,.72-1.43,2.27-1.43,3.83,0,.99,.12,1.92,.35,2.66,.73,2.24,2.4,3.32,3.8,3.32,.32,0,.96-.15,1.78-.99,.73-.81,1.32-2.66,1.32-3.95,0-1.56-.35-3.26-1.46-4.58-.64-.72-1.7-1.17-2.46-1.17-.61,0-1.29,.33-1.9,.87Z"/><path d="M233,49.99c.7,.81,1.38,2.27,1.38,3.92,0,1.5-.61,3.71-2.49,5.15-1.61,1.29-3.33,1.53-4.65,1.53-.67,0-1.26-.06-1.64-.12-.09,0-.2,.24-.2,.39,0,2.9,.03,4.13,.12,4.97,.09,.78,.29,1.17,1.4,1.53,.58,.18,.82,.3,.82,.51,0,.24-.38,.39-.76,.39-.64,0-2.34-.15-3.48-.15-.7,0-1,.09-1.87,.09-.44,0-.88-.09-.88-.39,0-.12,.21-.36,.67-.45,1.55-.33,1.7-.6,1.81-2.72,.06-.99,.09-3.47,.09-6.52,0-2.04,.03-4.28,0-6.04,0-1.26-.15-1.47-.23-1.53-.73-.54-1.08-.81-1.08-.96s.29-.51,.41-.54c.44-.12,1.73-.75,2.22-1.05,.29-.15,.53-.27,.58-.27,.09,0,.32,.24,.32,.36-.06,.48-.06,1.05-.09,1.53,0,.12,.12,.24,.23,.15,.7-.48,1.49-.9,1.9-1.08,.47-.21,1.35-.36,2.17-.36,1.05,0,2.37,.69,3.25,1.68Zm-7.14,.39c-.15,.12-.29,.36-.38,.9-.15,.9-.18,4.16-.06,5.39,.06,.54,.17,1.05,.38,1.32,.79,1.14,2.19,1.65,2.92,1.65,.32,0,.94-.15,1.35-.51,1.46-1.26,1.99-3.5,1.99-4.4,0-.69,0-2.3-1.2-3.65-.76-.81-1.96-1.23-2.63-1.23-1.23,0-2.05,.27-2.37,.54Z"/><path d="M263.93,48.59c.53,.18,.94,.33,1.11,.33,.06,0,.35-.15,.7-.48,.21-.18,.53-.39,.7-.39,.12,0,.26,.21,.15,.6-.29,1.02-.32,7.9-.32,10.56,0,2.09,0,4.49,.09,6.43,.03,1.08,.15,1.38,1.52,1.62,.23,.03,.64,.24,.64,.42,0,.21-.29,.39-.73,.39-2.34,0-4.42,.36-5.62,.36-.32,0-.73-.09-.73-.33,0-.21,.35-.42,.73-.48,1.78-.39,1.84-1.05,1.9-1.71,.06-.63,.15-4.07,.15-5.99,0-.18-.06-.33-.15-.3-1.11,.57-2.4,1.11-3.36,1.11-1.9,0-3.33-.81-4.27-1.8-.91-.99-1.46-2.66-1.46-4.13,0-3.2,1.99-4.88,3.07-5.51,.88-.54,2.43-1.02,3.36-1.02s1.84,.09,2.52,.3Zm-4.91,1.26c-.73,.66-1.61,1.83-1.61,4.28,0,1.77,.58,3.02,1.46,3.98,.85,.87,2.17,1.29,3.31,1.29,.38,0,1.38-.21,1.75-.51,.12-.06,.29-.72,.29-.93,0-1.11-.06-4.46-.15-5.39-.03-.3-.32-1.47-.5-1.74-.58-.93-1.81-1.62-2.87-1.62-.5,0-1.14,.12-1.7,.63Z"/><path d="M293.64,51.3c.96-.33,1.87-.78,2.17-.96,.35-.24,.5-.36,.58-.36,.12,0,.26,.27,.26,.36,0,.54-.06,1.08-.06,1.65,0,.12,.15,.15,.21,.12,1.14-1.11,2.43-1.86,3.33-1.86,1.2,0,1.46,.75,1.46,1.02,0,.06-.09,.27-.17,.42-.32,.48-1.02,1.29-1.2,1.38-.06,.03-.32-.03-.41-.09-.32-.3-1.02-.66-1.61-.66-.5,0-1,.09-1.29,.42-.21,.24-.29,.51-.29,.66,0,.6,.15,6.01,.18,6.46,.06,.87,.23,1.44,.76,1.53,.38,.09,.91,.24,1.35,.36,.47,.15,.53,.36,.53,.48,0,.15-.26,.27-.7,.27-.73,0-1.75-.15-3.45-.15-.88,0-1.23,.12-1.93,.12-.32,0-.61-.12-.61-.36,0-.18,.35-.3,.59-.39,1.14-.39,1.23-.69,1.26-2.48v-5.71c0-.3,0-.69-.32-.9-.7-.57-.99-.69-.99-.81,0-.09,.06-.39,.38-.51Z"/><path d="M19.82,85.47c.32,.06,.88,.3,.94,.33,.06,.03,.23,.24,.23,.42,0,.54,.09,1.56,.09,1.77,0,.27-.12,.54-.35,.54-.12,0-.29-.18-.44-.51-.64-1.41-1.38-2-2.34-2-1.2,0-1.75,1.23-1.75,1.85,0,1.02,.94,1.8,2.9,2.9,1.64,.99,2.28,2,2.28,3.35s-.96,2.39-1.7,2.93c-.53,.36-1.55,.69-2.46,.69s-2.34-.24-2.84-.66c-.09-.15-.44-1.41-.44-2.27,0-.33,.06-.63,.23-.63,.23,0,.44,.36,.61,.69,.82,1.53,1.61,2.12,2.66,2.12,.38,0,.85-.21,1.17-.45,.44-.36,.67-1.08,.67-1.65,0-.81-.41-1.44-1.32-2-.7-.51-.88-.66-1.78-1.26-.88-.57-1.81-1.62-1.81-3.02,0-1.02,.5-2,1.61-2.69,.56-.36,1.35-.63,2.34-.63,.56,0,1.17,.09,1.49,.18Z"/><path d="M53.63,85.31s.32,.15,.32,.24c0-.09,.09,.75,.09,1.14,0,.27-.56,.33-.76,.33h-3.19c-.15,0-.26,.15-.26,.21-.03,.6-.06,5-.06,6.43,0,.75,.17,1.14,.5,1.47,.56,.51,1.17,.57,1.78,.57,.38,0,.99-.18,1.43-.45,.26-.15,.32-.18,.44-.18,.03,0,.18,.06,.18,.33,0,.24-.21,.54-.41,.75-.79,.78-1.81,1.32-3.13,1.32-1.2,0-2.22-.75-2.57-1.41-.32-.51-.38-1.14-.38-1.98,0-1.11,.12-5.6,.12-6.64,0-.21-.53-.42-1.11-.6-.23-.09-.41-.24-.41-.33,0-.12,.09-.24,.18-.33,1.02-.84,1.93-1.56,2.34-2.06,.35-.42,.56-.66,.67-.66,.15,0,.41,.27,.41,.33v1.41c0,.09,.12,.24,.23,.24,.64,0,3.48-.12,3.6-.12Z"/><path d="M117.97,85.56c.53,0,2.11,.15,2.43,.15,.76,0,1.49-.06,1.81-.06,.44,0,.67,.12,.67,.33s-.26,.33-.64,.45c-.85,.24-.76,.66-.64,1.02,.85,2.57,2.4,6.13,2.6,6.31,.06,.09,.18,0,.23-.12,.38-.93,1.96-5.09,2.22-6.01,.23-.78-.03-.96-.91-1.29-.23-.09-.47-.21-.47-.39s.2-.33,.58-.33c.58,0,.85,.09,1.58,.09,.53,0,1.43-.15,1.99-.15,.29,0,.58,.15,.58,.33s-.18,.27-.61,.45c-.7,.27-1.02,.63-1.46,1.17-.41,.66-1.52,3.56-2.4,5.66-.82,2.12-.82,2.42-1.32,4.01-.15,.48-.47,.78-.7,.78-.12,0-.29-.21-.38-.54-.32-.99-.38-1.32-1.05-3.05-.7-1.92-2.25-5.6-3.04-7.03-.21-.39-.5-.78-1.23-.99-.44-.15-.56-.27-.56-.45,0-.21,.44-.33,.7-.33Z"/><path d="M153.27,85.62c.53,0,.76,.18,.76,.33,0,.18-.23,.36-.73,.48-.64,.12-.79,.48-.53,1.17,.35,1.17,2.31,6.28,2.52,6.64,.09,.18,.21,.15,.26,0,.32-.66,1.46-3.2,2.05-4.55,.15-.33,.15-.48,.15-.6-.03-.21-.23-.99-.47-1.44-.32-.6-.56-1.08-1.23-1.26-.38-.12-.64-.24-.64-.48,0-.21,.21-.3,.7-.3,.41,0,1.29,.09,1.96,.09,.53,0,1.4-.09,2.05-.09,.44,0,.7,.15,.7,.33,0,.21-.2,.39-.7,.48-.76,.18-.85,.54-.85,.66,0,.21,.15,.51,.35,1.08,.18,.45,1.64,4.52,2.25,5.98,.06,.21,.17,.15,.26-.03,.5-1.08,1.38-3.47,1.96-5,.32-.87,.5-1.53,.5-1.79,0-.3-.06-.66-1.14-.93-.26-.09-.67-.21-.67-.48,0-.18,.38-.3,.67-.3,.32,0,1.38,.09,1.81,.09,.97,0,1.7-.15,2.17-.15,.35,0,.61,.12,.61,.3,0,.27-.32,.36-.67,.45-.97,.3-1.08,.63-1.55,1.44-.96,1.77-1.93,4.22-2.81,6.43-.5,1.26-.94,2.24-1.23,3.23-.09,.3-.23,.36-.38,.36s-.38-.21-.56-.45c-.12-.33-.47-1.5-.76-2.21-.38-.96-1.32-3.35-1.81-4.58-.03-.06-.17-.06-.2,.03-.7,1.5-1.78,3.8-2.66,6.04-.12,.33-.47,1.23-.73,1.23s-.41-.09-.53-.45c-.06-.15-.44-1.26-.88-2.57-.2-.6-1.9-4.94-2.52-6.4-.47-1.11-.82-1.8-1.64-2-.41-.09-.73-.27-.73-.45,0-.27,.29-.36,.85-.36,.5,0,1.35,.12,1.99,.12,.73,0,1.55-.09,2.05-.09Z"/><path d="M187.4,85.53c.35,0,1.84,.18,2.54,.18,.61,0,1.23-.06,1.73-.06,.35,0,.64,.09,.64,.27,0,.21-.23,.42-.56,.51-.64,.21-.58,.48-.58,.63,0,.18,1.14,2.15,1.55,2.75,.03,.06,.15,.03,.2-.03,.47-.63,1.26-1.88,1.55-2.45,.29-.48,.15-.63-.21-.78-.64-.27-.79-.36-.79-.57s.26-.33,.58-.33c.29,0,.73,.06,1.26,.06,.7,0,2.08-.15,2.54-.15,.32,0,.61,.09,.61,.33s-.41,.36-.56,.42c-1.17,.33-1.9,.63-2.54,1.44-.73,.93-1.26,1.62-2.05,2.75-.06,.12-.06,.24-.03,.33,.29,.66,1.52,2.93,2.43,4.25,.88,1.29,1.61,1.5,2.22,1.65,.5,.12,.67,.3,.67,.45,0,.21-.23,.36-.7,.36-.99,0-2.05-.15-3.16-.15-.58,0-.91,.06-1.49,.06-.41,0-.61-.18-.61-.39,0-.12,.15-.27,.56-.39,.5-.18,.85-.3,.29-1.2-.29-.57-1.23-2.39-1.43-2.57-.06-.06-.12-.09-.21,0-.47,.48-1.81,2.54-1.84,2.96,0,.36,.18,.6,.76,.84,.17,.06,.41,.27,.41,.45,0,.24-.41,.3-.61,.3-.61,0-.79-.06-1.26-.06-.96,0-1.81,.12-2.37,.12-.38,0-.85-.09-.85-.33,0-.21,.38-.39,.73-.48,1.02-.3,1.61-.69,2.19-1.38,.59-.69,1.55-2.15,2.43-3.32,.06-.09,.06-.18,0-.3-.12-.27-1.17-2.24-2.02-3.56-.73-1.11-1.32-1.56-2.05-1.79-.56-.15-.76-.33-.76-.54,0-.18,.35-.27,.76-.27Z"/><path d="M221.36,84.59c.73,0,1.43,.12,2.28,.12s1.7-.06,2.05-.06c.23,0,.64,.09,.64,.33,0,.21-.21,.39-.67,.51-.82,.24-.91,.39-.61,1.17,.44,1.44,2.31,6.13,2.54,6.49,.03,.06,.15,.06,.23-.12,.35-.81,2.16-5.66,2.31-6.13,.26-.84,.03-1.2-1.11-1.47-.35-.09-.61-.3-.61-.42,0-.27,.38-.33,.73-.33,.56,0,1.34,.03,1.73,.03,.41,0,1.08-.12,1.84-.12,.38,0,.58,.06,.58,.27,0,.27-.29,.39-.64,.51-.61,.21-.99,.57-1.43,1.56-.96,2.24-2.54,6.25-3.22,7.99-1.02,2.72-2.11,5.8-3.04,8.35-.12,.39-.67,.84-1.52,.84-1,0-1.32-.84-1.32-1.47,0-.51,.47-1.32,1.29-1.32,.15,0,.76,.03,1.05,.03,.26,0,.32-.21,.44-.51,.26-.48,1.2-3.11,1.4-3.86,.09-.42,.21-.81,.09-1.08-.09-.21-.32-.9-.44-1.23-.61-1.76-2.43-6.22-3.33-8.11-.26-.54-.41-.84-1.38-1.17-.41-.15-.58-.27-.58-.45,0-.12,.09-.36,.7-.36Z"/><path d="M261.59,85.71c2.14,0,3.42-.15,4.07-.12q.12,0,.23,.09c.12,.09,.17,.33,.09,.45-.5,.69-1.02,1.29-1.75,2.39-.79,1.2-3.25,5.3-4.48,7.33-.12,.12,0,.27,.09,.3,.23,.09,2.57,.24,3.74,.24,.29,0,.47-.12,.7-.36,.41-.42,.94-1.05,1.43-1.77,.26-.39,.5-.66,.61-.66,.23,0,.26,.39,.23,.57-.09,.45-.58,1.92-.79,2.99,0,.12-.26,.36-.38,.36-.2,0-4.42-.15-5.82-.15-1.29,0-2.05,.09-2.72,.12-.12,0-.38-.27-.38-.42,0-.18,1.17-1.89,2.05-3.2,.85-1.2,2.9-4.61,4.27-6.88,.06-.09,.03-.21-.09-.24-.21-.06-2.4-.18-3.77-.18-.26,0-1.23,1.05-1.73,1.88-.09,.18-.23,.48-.44,.48-.12,0-.29-.27-.29-.51,0-.27,.09-.57,.23-1.02,.18-.6,.29-1.35,.29-1.86,0-.03,0-.15,.09-.24,.17-.15,.29-.15,.32-.12,.35,.27,1,.51,1.52,.51h2.66Z"/><rect class="d" x=".5" y=".5" width="34.83" height="34.83"/><rect class="d" x="35.33" y=".5" width="34.83" height="34.83"/><rect class="d" x="70.17" y=".5" width="34.83" height="34.83"/><rect class="d" x="105" y=".5" width="34.83" height="34.83"/><rect class="d" x="139.84" y=".5" width="34.83" height="34.83"/><rect class="d" x="174.67" y=".5" width="34.83" height="34.83"/><rect class="d" x="209.5" y=".5" width="34.83" height="34.83"/><rect class="d" x="244.34" y=".5" width="34.83" height="34.83"/><rect class="d" x="279.17" y=".5" width="34.83" height="34.83"/><rect class="d" x=".5" y="35.33" width="34.83" height="34.83"/><rect class="d" x="35.33" y="35.33" width="34.83" height="34.83"/><rect class="d" x="70.17" y="35.33" width="34.83" height="34.83"/><rect class="d" x="105" y="35.33" width="34.83" height="34.83"/><rect class="d" x="139.84" y="35.33" width="34.83" height="34.83"/><rect class="d" x="174.67" y="35.33" width="34.83" height="34.83"/><rect class="d" x="209.5" y="35.33" width="34.83" height="34.83"/><rect class="d" x="244.34" y="35.33" width="34.83" height="34.83"/><rect class="d" x="279.17" y="35.33" width="34.83" height="34.83"/><rect class="d" x=".5" y="70.17" width="34.83" height="34.83"/><rect class="d" x="35.33" y="70.17" width="34.83" height="34.83"/><rect class="d" x="70.17" y="70.17" width="34.83" height="34.83"/><rect class="d" x="105" y="70.17" width="34.83" height="34.83"/><rect class="d" x="139.84" y="70.17" width="34.83" height="34.83"/><rect class="d" x="174.67" y="70.17" width="34.83" height="34.83"/><rect class="d" x="209.5" y="70.17" width="34.83" height="34.83"/><rect class="d" x="244.33" y="70.17" width="34.83" height="34.83"/><path d="M89.78,96.11c.17-.14,.42-.56,.42-.67l.06-6.44c0-.17-.31-.56-.48-.62-.42-.11-1.04-.28-1.29-.34-.2-.06-.56-.22-.56-.45,0-.11,.36-.25,.64-.25,1.12,0,2.35-.14,3-.31,.28-.08,.48-.11,.67-.11,.14,0,.2,.31,.2,.42-.06,.78-.28,7-.28,9.3,0,.06,.11,.39,.34,.39,.2,0,1.06-.14,1.4-.14,.11,0,.31,.45,.34,.53,0,.08-.2,.28-.31,.28-.73,.06-1.9,.36-2.55,.53-.48,.14-.92,.25-.98,.25-.11,0-.28-.2-.28-.39,0-.17,.08-.7,.11-1.18,0-.14-.08-.22-.14-.2-.81,.56-1.93,1.29-2.3,1.43-.48,.2-1.09,.34-1.88,.34-1.01,0-1.9-.45-2.46-1.32-.2-.31-.39-.87-.39-1.32,0-2.02,0-5.18-.06-6.66-.03-.78-.56-.9-1.04-1.09-.25-.11-.5-.25-.5-.5,0-.08,.14-.25,.48-.25,.78,0,2.86-.31,2.97-.31s.22,.25,.22,.42c.03,.95-.08,6.24-.08,7.5,0,.64,.31,1.29,.7,1.57,.73,.56,1.23,.56,1.9,.56s1.43-.36,2.13-.98Z"/></g></g></svg>