<?xml version="1.0" encoding="UTF-8"?><svg xmlns="http://www.w3.org/2000/svg" viewBox="0 0 314.27 70.62"><defs><style>.d{fill:none;stroke:#ffdc00;stroke-miterlimit:10;}</style></defs><g id="a"/><g id="b"><g id="c"><g><path d="M21.71,21.18c0,3.56-2.63,6.46-6.14,6.46s-5.9-2.87-5.9-6.28c0-3.74,3.13-6.22,5.99-6.22,4.91,0,6.05,4.27,6.05,6.04Zm-10.55,0c0,1.46,.56,2.66,1.37,3.53,.88,.96,2.42,1.4,3.39,1.4,2.22,0,4.27-2.12,4.27-4.57,0-1.34-.44-2.75-1.29-3.59-.85-.84-1.96-1.32-3.39-1.32-2.46,0-4.35,2.03-4.35,4.54Z"/><path d="M47.42,15.25c.55,0,1.23,.09,2.31,.09,.82,0,1.64-.12,2.46-.12,.41,0,.61,.03,.61,.27s-.17,.39-.61,.54c-.85,.3-1.23,.36-1.26,1.76-.03,1.08-.06,1.79-.06,3.23v3.86c0,.63,0,.99,1.32,1.32,.61,.15,.76,.3,.76,.54,0,.27-.47,.36-.79,.36-.88,0-1.64-.09-2.54-.09-.96,0-1.84,.12-2.37,.12-.58,0-.79-.12-.79-.36,0-.15,.18-.36,.61-.48,1.31-.33,1.37-.63,1.52-1.97,.09-.69,.2-3.14,.2-4.54,0-.72,0-1.38-.03-1.88-.03-1.25-.17-1.43-1.26-1.76-.55-.15-.79-.3-.79-.63,0-.15,.26-.24,.7-.24Z"/><path d="M84.57,15.56c1.17,.72,1.64,2.18,1.64,3.14,0,1.32-.85,2.48-1.26,3.05-.38,.57-1.64,1.91-2.98,3.32-.09,.12-.15,.27,0,.27,1.46,0,4.41,.06,5.03,.03,.56,0,1.05-.15,1.84-1.11,.06-.06,.26-.3,.58-.3,.12,0,.23,.24,.03,.78-.21,.45-.7,1.7-.82,2.21-.03,.18-.38,.39-.5,.39s-2.31-.06-5.29-.06c-1.55,0-2.42,.09-2.86,.09-.64,0-.85-.18-.85-.3,0-.18,.21-.45,.5-.72,.32-.24,.7-.69,1.43-1.43,1.87-1.94,3.07-3.68,3.07-5.53,0-1.14-.7-2.12-1.96-2.12-.91,0-1.52,.45-1.96,.78-.26,.21-.47,.42-.53,.42-.18,0-.35-.12-.35-.27,0-.27,.7-1.38,1.64-2.15,.5-.39,1.23-.84,2.28-.84,.53,0,1.05,.24,1.32,.36Z"/><path d="M119.49,17.9c0,1.49-1.11,2.54-2.95,4.04-.03,.06-.03,.21,.06,.21,.17-.03,.99,.06,1.55,.24,1.49,.42,2.42,1.58,2.42,3.17,0,2.36-2.16,4.99-4.65,6.25-.7,.36-1.72,.69-1.99,.69s-.64-.18-.64-.39c0-.27,.44-.93,.7-.93,.99,0,1.64-.15,1.81-.24,1.93-1.05,2.51-2.6,2.51-4.33,0-.87-.26-1.64-.82-2.15-.53-.48-1.34-.81-2.04-.81-.26,0-1.11,.18-1.61,.39-.12,.06-.32-.06-.32-.15,0-.21,.2-.54,.41-.75,.58-.48,1.34-1.02,2.19-1.73,.99-.81,1.29-1.91,1.29-2.63,0-1.02-.94-1.82-1.78-1.82-1.17,0-1.99,.96-2.22,1.17-.17,.15-.26,.24-.38,.24-.29,0-.35-.12-.35-.33,0-.09,.76-1.34,1.78-2.09,.79-.57,1.64-.72,2.28-.72,2.34,0,2.75,2,2.75,2.69Z"/><path d="M158.68,31.74c0,.33-1.37,.54-1.84,.54-.23,0-.41-.15-.41-.48,0-.21,.09-3.47,.09-5.11,0-.12-.09-.24-.15-.24-.12,0-5.67,.03-6.84,.09-.23,0-.47-.24-.47-.36,0-.09,.15-.3,.67-.84,.82-.78,4.38-5.11,5.55-6.55,.94-1.14,1.43-1.76,1.93-2.42,.5-.66,.88-1.26,1.02-1.26,.12,0,.38,.15,.47,.36,.15,.36-.03,6.25-.03,8.94,0,.12,.06,.3,.15,.3h3.74c.12,0,.26,.18,.26,.45,0,.24-.15,1.29-.47,1.29h-3.54c-.09,0-.15,.18-.15,.24v5.05Zm-2.13-7.32c0-1.85,.12-3.95,.12-5.68,0-.12-.12-.18-.29,0-.88,.84-4.29,5.32-4.5,5.59-.15,.18,.03,.33,.12,.33,.7,.09,4.06,.06,4.38,.06,.15,0,.18-.24,.18-.3Z"/><path d="M188.22,16.85c.03-.12,.41-.51,.55-.57,.79-.48,3.71-1.14,4.5-1.14,.09,0,.21,.18,.21,.21-.06,.72-.53,2.21-1.43,2.36-.58,.12-2.69,.24-3.36,.3-.15,0-.5,.75-.5,1.02,0,.15,.12,.51,.5,.72,1.46,.81,3.24,1.91,4.21,2.87,1.08,1.05,1.61,2.42,1.61,3.74,0,2.18-1.43,4.04-3.24,5.17-.76,.42-2.25,.9-3.1,.9-.61,0-.88-.12-.88-.36,.03-.18,.26-.33,.64-.42,.96-.27,2.02-.66,2.69-1.14,1.05-.72,1.75-2.03,1.75-3.23,0-2.24-1.78-3.47-3.65-4.72-1.52-1.05-1.61-1.64-1.61-1.85,0-.54,.64-3.14,1.11-3.86Z"/><path d="M226.91,26.5c-1.2,.9-2.54,1.14-3.07,1.14-3.21,0-5.03-2.66-5.03-5.83,0-2.42,1.14-5.5,3.33-7.89,2.89-3.17,6.14-4.57,7.13-4.57,.21,0,.5,.12,.5,.33,0,.15-.35,.33-.64,.51-2.6,1.5-4.27,2.9-5.73,4.81-1.67,2.21-2.22,4.63-2.22,6.64,0,.99,.15,1.88,.7,2.9,.61,1.11,1.7,1.91,2.81,1.91,.7,0,1.14-.24,1.61-.66,.64-.63,.99-1.76,.99-2.72,0-2.09-1.08-3.26-2.6-3.26-.38,0-.88,.09-1.26,.27-.2,.12-.35,.21-.44,.21-.12,0-.23-.18-.23-.33,0-.33,.41-.78,.73-.99,1.05-.69,1.67-1.11,2.6-1.11,1.75,0,3.36,1.82,3.36,3.83,0,2.57-1.58,4.1-2.54,4.81Z"/><path d="M262.31,15.5c.26,0,.35,.06,.38,.15,.09,.24,.06,.39-.06,.63-.12,.33-.7,1.4-1.52,2.93-2.25,4.3-6.2,11.96-6.52,12.64-.15,.45-.41,.66-.53,.66-.23,0-.61-.33-.61-.6,0-.18,.15-.48,.56-1.23,.41-.69,5.46-10.16,6.43-12.4,.03-.09,.09-.36-.03-.39-.56-.12-3.89-.21-6.69-.21-.64,0-1.17,.48-1.58,.87-.18,.18-.38,.3-.61,.3-.15,0-.26-.33-.06-.81,.17-.45,.67-1.55,.73-2.06,.03-.24,.2-.51,.35-.51,.53,0,2.92,.15,6.52,.15,1.4,0,2.08-.03,3.24-.12Z"/><path d="M302.1,13.83c0,1.2-.61,2.09-1.34,2.75-.53,.48-1.14,.78-1.64,1.2-.09,.06-.06,.21,.03,.27,1.32,1.08,3.13,2.78,3.13,4.96,0,1.58-.85,2.78-1.9,3.56-1.08,.87-2.22,1.08-3.04,1.08-3.13,0-4.53-2.18-4.53-4.09,0-1.67,1.14-2.87,1.75-3.35,.38-.3,1.32-1.02,1.58-1.2,.03-.03,.03-.15-.03-.21-1.46-1.34-2.95-2.6-2.95-4.69,0-1.4,.64-2.42,1.4-3.11,.99-.81,2.13-1.26,3.27-1.26,2.42,0,4.27,1.7,4.27,4.1Zm-1.9,10.07c0-2-1.64-3.35-3.04-4.33-.2-.15-.44-.12-.53-.03-.94,.66-1.75,2.33-1.75,3.71,0,.9,.35,1.79,.85,2.42,.53,.66,1.29,1.11,1.99,1.11,1.58,0,2.48-1.26,2.48-2.87Zm-4.97-10.55c0,1.91,2.13,3.41,2.92,4.01,.06,.03,.23,.06,.29,.03,.29-.18,.7-.69,.93-1.05,.21-.33,.73-1.38,.73-2.69,0-.6-.61-3.08-2.6-3.08-1.17,0-2.28,.9-2.28,2.78Z"/><path d="M23.05,55.72c0,2.45-1.11,5.83-3.97,8.49-2.04,1.94-4.88,3.41-5.96,3.41-.44,0-.55-.18-.55-.3,0-.15,.06-.21,.5-.45,1.58-.81,3.65-2.06,5.49-4.66,1.99-2.78,2.13-5.44,2.13-6.64,0-2.15-1.17-4.27-3.3-4.27-1.34,0-2.4,1.32-2.4,3.41s1.34,3.17,2.46,3.17c.58,0,1.08-.09,1.34-.24,.23-.12,.35-.15,.35,.09,0,.39-.09,.63-.79,1.2-.67,.54-1.58,.75-2.22,.75-1.69,0-3.36-1.61-3.36-3.98,0-1.73,.88-3.14,2.16-4.18,1.11-.87,2.43-1.29,3.51-1.29,3.18,0,4.62,3.17,4.62,5.5Z"/><rect class="d" x=".5" y=".5" width="34.81" height="34.81"/><rect class="d" x="35.31" y=".5" width="34.81" height="34.81"/><rect class="d" x="70.12" y=".5" width="34.81" height="34.81"/><rect class="d" x="104.92" y=".5" width="34.81" height="34.81"/><rect class="d" x="139.73" y=".5" width="34.81" height="34.81"/><rect class="d" x="174.54" y=".5" width="34.81" height="34.81"/><rect class="d" x="209.35" y=".5" width="34.81" height="34.81"/><rect class="d" x="244.16" y=".5" width="34.81" height="34.81"/><rect class="d" x="278.96" y=".5" width="34.81" height="34.81"/><rect class="d" x=".5" y="35.31" width="34.81" height="34.81"/></g></g></g></svg>