<?xml version="1.0" encoding="UTF-8"?><svg xmlns="http://www.w3.org/2000/svg" viewBox="0 0 314.4 140.29"><defs><style>.d{fill:none;stroke:#e20613;stroke-miterlimit:10;}</style></defs><g id="a"/><g id="b"><g id="c"><g><path d="M18.71,8.92c.23,.81,.73,2.15,1.29,3.71,1.52,4.37,3.71,10.29,4.21,11.51,.96,2.45,1.43,2.69,2.75,3.02,.47,.15,.7,.3,.7,.51s-.21,.39-.94,.39c-.96,0-2.4-.15-3.68-.15-.94,0-1.34,.06-2.08,.06s-.91-.21-.91-.36,.18-.39,.7-.48c1.4-.3,1.29-.9,1.17-1.53-.23-1.23-.96-3.2-1.64-5.11-.03-.12-.15-.3-.99-.3-1.61,0-4.18,.03-4.79,.12-.12,0-.26,.15-.32,.24-.76,1.94-1.52,4.49-1.52,5.23,0,.36,.12,.87,1.43,1.29,.5,.15,.79,.33,.79,.54,0,.3-.44,.39-.82,.39-.5,0-1.23-.09-2.31-.09s-2.6,.15-3.04,.15c-.53,0-.67-.12-.67-.3s.2-.45,.64-.6c1.46-.51,1.84-.6,2.69-2.54,.67-1.53,4-10.56,5.23-13.61,.18-.42,.21-.6,.26-.78,.03-.09,.09-.27,.2-.51,.18-.3,.5-.87,.7-1.2,.21-.24,.32-.39,.47-.39,.12,0,.23,.12,.47,.78Zm.94,9.69c-.5-1.53-2.02-6.01-2.28-6.43-.09-.18-.15-.21-.23,0-.53,1.44-2.05,5.62-2.28,6.55-.03,.12,.03,.21,.15,.21,1.17-.03,3.6,0,4.56-.09,.03,0,.12-.15,.09-.24Zm1.99-15.7c.26,.18,.94,.66,.94,1.08,0,.24-.35,.69-.67,.87-1.32,.9-2.87,1.73-4.27,2.39-.23,.09-.76,.3-1.05,0-.03-.03-.12-.36,.35-.81,.94-.93,2.57-2.36,3.77-3.32,.41-.33,.79-.24,.94-.21Z"/><path d="M55.48,8.64c.23,.81,.73,2.15,1.29,3.71,1.52,4.37,3.71,10.29,4.21,11.51,.96,2.45,1.43,2.69,2.75,3.02,.47,.15,.7,.3,.7,.51s-.21,.39-.94,.39c-.96,0-2.4-.15-3.68-.15-.94,0-1.34,.06-2.08,.06s-.91-.21-.91-.36,.18-.39,.7-.48c1.4-.3,1.29-.9,1.17-1.53-.23-1.23-.96-3.2-1.64-5.11-.03-.12-.15-.3-.99-.3-1.61,0-4.18,.03-4.79,.12-.12,0-.26,.15-.32,.24-.76,1.94-1.52,4.49-1.52,5.23,0,.36,.12,.87,1.43,1.29,.5,.15,.79,.33,.79,.54,0,.3-.44,.39-.82,.39-.5,0-1.23-.09-2.31-.09s-2.6,.15-3.04,.15c-.53,0-.67-.12-.67-.3s.2-.45,.64-.6c1.46-.51,1.84-.6,2.69-2.54,.67-1.53,4-10.56,5.23-13.61,.18-.42,.21-.6,.26-.78,.03-.09,.09-.27,.2-.51,.18-.3,.5-.87,.7-1.2,.2-.24,.32-.39,.47-.39,.12,0,.23,.12,.47,.78Zm.7-4.4c.44,.42,1.49,1.32,2.6,2.3,.47,.3,.58,.87,.06,.87-.21,0-.64-.18-.88-.27-.99-.45-1.93-.96-2.87-1.41-.21-.12-.38-.03-.53,.03-.79,.36-1.84,.9-2.75,1.35-.23,.06-.61,.3-.88,.3-.56,0-.58-.3,.06-.9,.7-.54,1.99-1.74,2.78-2.36,.44-.36,.88-.66,1.17-.66,.26,0,.67,.3,1.23,.75Zm.23,14.09c-.5-1.53-2.02-6.01-2.28-6.43-.09-.18-.15-.21-.23,0-.53,1.44-2.05,5.62-2.28,6.55-.03,.12,.03,.21,.15,.21,1.17-.03,3.6,0,4.56-.09,.03,0,.12-.15,.09-.24Z"/><path d="M88.55,8.92c.23,.81,.73,2.15,1.29,3.71,1.52,4.37,3.71,10.29,4.21,11.51,.96,2.45,1.43,2.69,2.75,3.02,.47,.15,.7,.3,.7,.51s-.21,.39-.94,.39c-.96,0-2.4-.15-3.68-.15-.94,0-1.34,.06-2.08,.06s-.91-.21-.91-.36,.18-.39,.7-.48c1.4-.3,1.29-.9,1.17-1.53-.23-1.23-.96-3.2-1.64-5.11-.03-.12-.15-.3-.99-.3-1.61,0-4.18,.03-4.79,.12-.12,0-.26,.15-.32,.24-.76,1.94-1.52,4.49-1.52,5.23,0,.36,.12,.87,1.43,1.29,.5,.15,.79,.33,.79,.54,0,.3-.44,.39-.82,.39-.5,0-1.23-.09-2.31-.09s-2.6,.15-3.04,.15c-.53,0-.67-.12-.67-.3s.2-.45,.64-.6c1.46-.51,1.84-.6,2.69-2.54,.67-1.53,4-10.56,5.23-13.61,.18-.42,.21-.6,.26-.78,.03-.09,.09-.27,.2-.51,.18-.3,.5-.87,.7-1.2,.21-.24,.32-.39,.47-.39,.12,0,.23,.12,.47,.78Zm-2.25-2.87c0,.93-.67,1.35-1.37,1.35-.53,0-1.2-.45-1.2-1.38,0-.72,.56-1.38,1.32-1.38,.7,0,1.26,.69,1.26,1.41Zm3.19,12.56c-.5-1.53-2.02-6.01-2.28-6.43-.09-.18-.15-.21-.23,0-.53,1.44-2.05,5.62-2.28,6.55-.03,.12,.03,.21,.15,.21,1.17-.03,3.6,0,4.56-.09,.03,0,.12-.15,.09-.24Zm2.66-12.56c0,.75-.61,1.35-1.32,1.35-.61,0-1.26-.51-1.26-1.32s.61-1.41,1.34-1.41c.67,0,1.23,.69,1.23,1.38Z"/><path d="M123.07,8.92c.23,.81,.73,2.15,1.29,3.71,1.52,4.37,3.71,10.29,4.21,11.51,.96,2.45,1.43,2.69,2.75,3.02,.47,.15,.7,.3,.7,.51s-.21,.39-.94,.39c-.96,0-2.4-.15-3.68-.15-.94,0-1.34,.06-2.08,.06s-.91-.21-.91-.36,.18-.39,.7-.48c1.4-.3,1.29-.9,1.17-1.53-.23-1.23-.96-3.2-1.64-5.11-.03-.12-.15-.3-.99-.3-1.61,0-4.18,.03-4.79,.12-.12,0-.26,.15-.32,.24-.76,1.94-1.52,4.49-1.52,5.23,0,.36,.12,.87,1.43,1.29,.5,.15,.79,.33,.79,.54,0,.3-.44,.39-.82,.39-.5,0-1.23-.09-2.31-.09s-2.6,.15-3.04,.15c-.53,0-.67-.12-.67-.3s.2-.45,.64-.6c1.46-.51,1.84-.6,2.69-2.54,.67-1.53,4-10.56,5.23-13.61,.18-.42,.21-.6,.26-.78,.03-.09,.09-.27,.2-.51,.18-.3,.5-.87,.7-1.2,.21-.24,.32-.39,.47-.39,.12,0,.23,.12,.47,.78Zm-2.54-5.11c.67,.63,1.9,1.73,2.78,2.66,.21,.24,.41,.57,.29,.75-.18,.24-.7,.21-1.05,.03-1.17-.57-3.45-2.03-3.92-2.36-.35-.24-.61-.45-.61-.72s.23-.48,.56-.75c.2-.18,.67-.45,.82-.45,.2,0,.38,.15,1.14,.84Zm3.48,14.8c-.5-1.53-2.02-6.01-2.28-6.43-.09-.18-.15-.21-.23,0-.53,1.44-2.05,5.62-2.28,6.55-.03,.12,.03,.21,.15,.21,1.17-.03,3.6,0,4.56-.09,.03,0,.12-.15,.09-.24Z"/><path d="M158.3,8.92c.23,.81,.73,2.15,1.29,3.71,1.52,4.37,3.71,10.29,4.21,11.51,.96,2.45,1.43,2.69,2.75,3.02,.47,.15,.7,.3,.7,.51s-.21,.39-.94,.39c-.96,0-2.4-.15-3.68-.15-.94,0-1.34,.06-2.08,.06s-.91-.21-.91-.36,.18-.39,.7-.48c1.4-.3,1.29-.9,1.17-1.53-.23-1.23-.96-3.2-1.64-5.11-.03-.12-.15-.3-.99-.3-1.61,0-4.18,.03-4.79,.12-.12,0-.26,.15-.32,.24-.76,1.94-1.52,4.49-1.52,5.23,0,.36,.12,.87,1.43,1.29,.5,.15,.79,.33,.79,.54,0,.3-.44,.39-.82,.39-.5,0-1.23-.09-2.31-.09s-2.6,.15-3.04,.15c-.53,0-.67-.12-.67-.3s.2-.45,.64-.6c1.46-.51,1.84-.6,2.69-2.54,.67-1.53,4-10.56,5.23-13.61,.18-.42,.21-.6,.26-.78,.03-.09,.09-.27,.2-.51,.18-.3,.5-.87,.7-1.2,.21-.24,.32-.39,.47-.39,.12,0,.23,.12,.47,.78Zm.94,9.69c-.5-1.53-2.02-6.01-2.28-6.43-.09-.18-.15-.21-.23,0-.53,1.44-2.05,5.62-2.28,6.55-.03,.12,.03,.21,.15,.21,1.17-.03,3.6,0,4.56-.09,.03,0,.12-.15,.09-.24Zm.96-13.7c0,1.35-.99,2.57-2.51,2.57s-2.48-1.23-2.48-2.57,.96-2.51,2.48-2.51,2.51,1.2,2.51,2.51Zm-3.86,0c0,1.05,.61,1.65,1.34,1.65s1.34-.57,1.34-1.71c0-.87-.58-1.55-1.34-1.55s-1.34,.69-1.34,1.61Z"/><path d="M195.93,8.92c.23,.81,.73,2.15,1.29,3.71,1.52,4.37,3.71,10.29,4.21,11.51,.96,2.45,1.43,2.69,2.75,3.02,.47,.15,.7,.3,.7,.51s-.21,.39-.94,.39c-.96,0-2.4-.15-3.68-.15-.94,0-1.34,.06-2.08,.06s-.91-.21-.91-.36,.18-.39,.7-.48c1.4-.3,1.29-.9,1.17-1.53-.23-1.23-.96-3.2-1.64-5.11-.03-.12-.15-.3-.99-.3-1.61,0-4.18,.03-4.79,.12-.12,0-.26,.15-.32,.24-.76,1.94-1.52,4.49-1.52,5.23,0,.36,.12,.87,1.43,1.29,.5,.15,.79,.33,.79,.54,0,.3-.44,.39-.82,.39-.5,0-1.23-.09-2.31-.09s-2.6,.15-3.04,.15c-.53,0-.67-.12-.67-.3s.2-.45,.64-.6c1.46-.51,1.84-.6,2.69-2.54,.67-1.53,4-10.56,5.23-13.61,.18-.42,.21-.6,.26-.78,.03-.09,.09-.27,.2-.51,.18-.3,.5-.87,.7-1.2,.2-.24,.32-.39,.47-.39,.12,0,.23,.12,.47,.78Zm-3.36-3.95c.18-.18,.38-.3,.82-.3,1.78,0,3.83,.06,4.53-.12,.58-.18,.88-.81,1.05-.96,.09-.12,.15-.24,.29-.24s.41,.3,.47,.45c.06,.12,0,.36-.12,.48-.38,.42-1.32,1.79-1.64,2.09-.21,.18-.26,.18-.44,.18-.88,0-4.24-.06-4.68,.06-.26,.06-.58,.39-.94,.9-.09,.15-.21,.24-.26,.24-.35,0-.5-.3-.5-.42,0-.09,.09-.33,.38-.81,.26-.45,.79-1.26,1.02-1.55Zm4.3,13.64c-.5-1.53-2.02-6.01-2.28-6.43-.09-.18-.15-.21-.23,0-.53,1.44-2.05,5.62-2.28,6.55-.03,.12,.03,.21,.15,.21,1.17-.03,3.6,0,4.56-.09,.03,0,.12-.15,.09-.24Z"/><path d="M232.85,6.69c.76,.12,1.78,.51,2.22,.57,.15,0,.44,.21,.44,.9,0,.63,.15,1.94,.21,2.6,.03,.63-.21,.99-.44,.99-.15,0-.32-.33-.47-.78-.26-1.05-.82-1.94-1.2-2.24-1.61-1.23-3.1-1.55-4.68-1.55-4.71,0-7.72,3.98-7.72,8.49,0,2,.38,3.62,1.02,4.93,1.67,3.41,5.03,4.79,7.4,4.79,.55,0,1.99-.12,3.22-.81,1.26-.69,1.99-1.65,2.69-2.9,.38-.63,.44-.75,.64-.75,.29,0,.29,.63,.23,.96-.09,.75-.76,2.3-1.14,3.02-.15,.3-.61,.63-.94,.78-.44,.21-2.46,.72-4.71,.81-.41,.57-.7,.96-.76,1.05-.06,.15,0,.27,.21,.39,1.02,.54,1.96,1.02,1.96,2.36,0,1.05-.85,2.03-1.52,2.6-.99,.78-1.58,.99-2.13,.99-.26,0-.53-.12-.73-.45-.18-.3-.12-.72,0-.93,.15-.24,.23-.3,.41-.27,.47,.09,.99,.21,1.23,.21,.76,0,1.14-.63,1.14-1.23,0-.87-.91-1.5-1.78-1.5-.15,0-.29,0-.53,.03-.12,0-.44-.3-.44-.45,0-.12,0-.18,.2-.42,.5-.72,1.26-1.65,1.81-2.36-3.95-.12-6.84-2.12-7.98-3.5-1.11-1.32-2.46-3.47-2.46-6.88s1.99-6.13,3.22-7.18c2.51-2.09,5.23-2.75,7.92-2.75,1.02,0,2.34,.21,3.45,.48Z"/><path d="M263.76,8.68c.96,0,2.25-.03,2.69-.09,.09-.03,.23,.18,.26,.33,0,1.38,.06,2.24,.06,2.84,0,.42-.17,.78-.44,.78s-.41-.42-.47-.72c-.38-1.58-1.02-1.88-1.96-2.03-.76-.12-2.87-.18-4.15-.12-.06,0-.38,.15-.44,.84-.06,.75-.15,6.37-.09,6.82,.03,.12,.06,.3,.2,.3h1.9c2.75,0,2.87-.12,3.39-1.5,.17-.45,.35-.63,.53-.63,.2,0,.26,.42,.23,.66-.06,.84-.09,1.44-.09,2.15,0,.81,.06,1.23,.09,1.83,.03,.54-.12,.87-.32,.87s-.41-.33-.5-.66c-.41-1.38-.53-1.47-2.31-1.56-.94-.06-2.11-.06-2.89-.06-.12,0-.26,.21-.26,.27-.12,.63-.09,3.41-.09,4.7,0,.87,.12,2,.29,2.48,.12,.36,.35,.6,.56,.66,.5,.09,1.49,.21,2.66,.21,.35,0,2.13-.03,2.78-.21,.94-.24,1.73-.81,2.43-2.21,.32-.66,.5-.84,.67-.84,.2,0,.29,.48,.23,.81-.03,.24-.85,2.93-1.05,3.2-.09,.12-.35,.36-.5,.36-.32,0-4.74-.24-9.5-.24-1.55,0-2.19,.15-3.3,.15-.56,0-.88-.06-.88-.39,0-.21,.35-.36,.82-.48,1.46-.36,2.02-.57,2.13-2.18,.09-1.26,.23-4.79,.23-8.49s.03-4.19-.03-5.05c-.06-1.32-.35-1.67-1.64-1.97-.61-.15-.85-.27-.85-.51,0-.27,.41-.42,.82-.42,1.37,0,2.51,.12,4.47,.12h4.3Zm.88-5.71c.26,.18,.91,.66,.91,1.08,0,.24-.32,.66-.64,.84-1.32,.9-2.89,1.76-4.27,2.39-.23,.12-.76,.3-1.05,0-.06,0-.12-.36,.35-.81,.94-.9,2.57-2.36,3.77-3.32,.41-.33,.76-.21,.94-.18Z"/><path d="M300.23,8.68c.96,0,2.25-.03,2.69-.09,.09-.03,.23,.18,.26,.33,0,1.38,.06,2.24,.06,2.84,0,.42-.17,.78-.44,.78s-.41-.42-.47-.72c-.38-1.58-1.02-1.88-1.96-2.03-.76-.12-2.87-.18-4.15-.12-.06,0-.38,.15-.44,.84-.06,.75-.15,6.37-.09,6.82,.03,.12,.06,.3,.2,.3h1.9c2.75,0,2.87-.12,3.39-1.5,.17-.45,.35-.63,.53-.63,.2,0,.26,.42,.23,.66-.06,.84-.09,1.44-.09,2.15,0,.81,.06,1.23,.09,1.83,.03,.54-.12,.87-.32,.87s-.41-.33-.5-.66c-.41-1.38-.53-1.47-2.31-1.56-.94-.06-2.11-.06-2.89-.06-.12,0-.26,.21-.26,.27-.12,.63-.09,3.41-.09,4.7,0,.87,.12,2,.29,2.48,.12,.36,.35,.6,.56,.66,.5,.09,1.49,.21,2.66,.21,.35,0,2.13-.03,2.78-.21,.94-.24,1.73-.81,2.43-2.21,.32-.66,.5-.84,.67-.84,.2,0,.29,.48,.23,.81-.03,.24-.85,2.93-1.05,3.2-.09,.12-.35,.36-.5,.36-.32,0-4.74-.24-9.5-.24-1.55,0-2.19,.15-3.3,.15-.56,0-.88-.06-.88-.39,0-.21,.35-.36,.82-.48,1.46-.36,2.02-.57,2.13-2.18,.09-1.26,.23-4.79,.23-8.49s.03-4.19-.03-5.05c-.06-1.32-.35-1.67-1.64-1.97-.61-.15-.85-.27-.85-.51,0-.27,.41-.42,.82-.42,1.37,0,2.51,.12,4.47,.12h4.3Zm-1.17-4.55c.44,.42,1.49,1.32,2.6,2.3,.47,.3,.58,.87,.06,.87-.21,0-.64-.21-.85-.3-1.02-.42-1.96-.93-2.89-1.38-.21-.12-.38-.03-.53,.03-.76,.36-1.84,.9-2.75,1.35-.23,.06-.61,.3-.88,.3-.56,0-.56-.3,.06-.9,.7-.54,1.99-1.74,2.78-2.36,.44-.36,.88-.66,1.17-.66,.26,0,.7,.3,1.23,.75Z"/><path d="M18.74,43.71c.96,0,2.25-.03,2.69-.09,.09-.03,.23,.18,.26,.33,0,1.38,.06,2.24,.06,2.84,0,.42-.17,.78-.44,.78s-.41-.42-.47-.72c-.38-1.58-1.02-1.88-1.96-2.03-.76-.12-2.87-.18-4.15-.12-.06,0-.38,.15-.44,.84-.06,.75-.15,6.37-.09,6.82,.03,.12,.06,.3,.2,.3h1.9c2.75,0,2.87-.12,3.39-1.5,.17-.45,.35-.63,.53-.63,.2,0,.26,.42,.23,.66-.06,.84-.09,1.44-.09,2.15,0,.81,.06,1.23,.09,1.82,.03,.54-.12,.87-.32,.87s-.41-.33-.5-.66c-.41-1.38-.53-1.47-2.31-1.56-.94-.06-2.11-.06-2.89-.06-.12,0-.26,.21-.26,.27-.12,.63-.09,3.41-.09,4.7,0,.87,.12,2,.29,2.48,.12,.36,.35,.6,.56,.66,.5,.09,1.49,.21,2.66,.21,.35,0,2.13-.03,2.78-.21,.94-.24,1.73-.81,2.43-2.21,.32-.66,.5-.84,.67-.84,.2,0,.29,.48,.23,.81-.03,.24-.85,2.93-1.05,3.2-.09,.12-.35,.36-.5,.36-.32,0-4.74-.24-9.5-.24-1.55,0-2.19,.15-3.3,.15-.56,0-.88-.06-.88-.39,0-.21,.35-.36,.82-.48,1.46-.36,2.02-.57,2.13-2.18,.09-1.26,.23-4.79,.23-8.49s.03-4.19-.03-5.05c-.06-1.32-.35-1.67-1.64-1.97-.61-.15-.85-.27-.85-.51,0-.27,.41-.42,.82-.42,1.37,0,2.51,.12,4.47,.12h4.3Zm-4.15-2.99c0,.93-.67,1.35-1.37,1.35-.53,0-1.2-.45-1.2-1.38,0-.72,.56-1.38,1.32-1.38,.67,0,1.26,.69,1.26,1.41Zm5.85,0c0,.75-.61,1.35-1.32,1.35-.61,0-1.26-.54-1.26-1.32,0-.84,.58-1.41,1.34-1.41,.67,0,1.23,.69,1.23,1.38Z"/><path d="M55.51,43.43c.96,0,2.25-.03,2.69-.09,.09-.03,.23,.18,.26,.33,0,1.38,.06,2.24,.06,2.84,0,.42-.17,.78-.44,.78s-.41-.42-.47-.72c-.38-1.58-1.02-1.88-1.96-2.03-.76-.12-2.87-.18-4.15-.12-.06,0-.38,.15-.44,.84-.06,.75-.15,6.37-.09,6.82,.03,.12,.06,.3,.2,.3h1.9c2.75,0,2.87-.12,3.39-1.5,.17-.45,.35-.63,.53-.63,.2,0,.26,.42,.23,.66-.06,.84-.09,1.44-.09,2.15,0,.81,.06,1.23,.09,1.83,.03,.54-.12,.87-.32,.87s-.41-.33-.5-.66c-.41-1.38-.53-1.47-2.31-1.56-.94-.06-2.11-.06-2.89-.06-.12,0-.26,.21-.26,.27-.12,.63-.09,3.41-.09,4.7,0,.87,.12,2,.29,2.48,.12,.36,.35,.6,.56,.66,.5,.09,1.49,.21,2.66,.21,.35,0,2.13-.03,2.78-.21,.94-.24,1.73-.81,2.43-2.21,.32-.66,.5-.84,.67-.84,.2,0,.29,.48,.23,.81-.03,.24-.85,2.93-1.05,3.2-.09,.12-.35,.36-.5,.36-.32,0-4.74-.24-9.5-.24-1.55,0-2.19,.15-3.3,.15-.56,0-.88-.06-.88-.39,0-.21,.35-.36,.82-.48,1.46-.36,2.02-.57,2.13-2.18,.09-1.26,.23-4.79,.23-8.49s.03-4.19-.03-5.05c-.06-1.32-.35-1.67-1.64-1.97-.61-.15-.85-.27-.85-.51,0-.27,.41-.42,.82-.42,1.37,0,2.51,.12,4.47,.12h4.3Zm-3.98-5.08c.64,.63,1.87,1.73,2.75,2.66,.23,.24,.44,.57,.29,.75-.15,.24-.67,.24-1.05,.03-1.14-.57-3.42-2.03-3.89-2.36-.38-.24-.61-.45-.61-.72s.23-.48,.56-.75c.2-.18,.67-.45,.79-.45,.23,0,.38,.15,1.17,.84Z"/><path d="M87.07,46.64c-.09-1.38-.09-1.82-1.72-2.12-.64-.12-.82-.33-.82-.54,0-.24,.32-.36,.73-.36,.76,0,2.22,.09,3.19,.09,1.43,0,2.11-.09,3.13-.09,.47,0,.73,.12,.73,.36s-.29,.42-.76,.51c-1.7,.36-1.67,1.11-1.78,1.91-.15,.99-.17,2.93-.17,8.79,0,1.65,.03,3.5,.09,4.46,.09,1.62,.23,2.18,2.13,2.57,.53,.09,.76,.3,.76,.51,0,.24-.44,.39-.79,.39-1.49,0-3.57-.18-4.36-.18-.88,0-1.14,.06-2.22,.06-.56,0-.76-.21-.76-.42s.29-.39,.88-.51c1.46-.33,1.58-.78,1.7-2.18,.09-1.05,.15-4.16,.15-6.7,0-1.85-.03-5.56-.09-6.55Zm4.79-8.94c.29,.18,.94,.66,.94,1.08,0,.24-.32,.66-.64,.84-1.32,.93-2.89,1.76-4.27,2.39-.23,.12-.79,.3-1.08,0-.03,0-.12-.36,.38-.78,.94-.93,2.54-2.36,3.77-3.35,.38-.3,.76-.21,.91-.18Z"/><path d="M124.89,38.96c.44,.42,1.49,1.32,2.6,2.3,.47,.3,.58,.87,.06,.87-.21,0-.67-.18-.88-.27-.99-.45-1.93-.96-2.86-1.41-.21-.12-.38-.03-.53,.03-.79,.36-1.84,.9-2.75,1.35-.23,.06-.61,.3-.88,.3-.55,0-.58-.3,.06-.9,.7-.54,1.96-1.73,2.78-2.36,.44-.36,.85-.66,1.17-.66,.26,0,.67,.3,1.23,.75Zm-2.78,7.69c-.09-1.38-.09-1.82-1.72-2.12-.64-.12-.82-.33-.82-.54,0-.24,.32-.36,.73-.36,.76,0,2.22,.09,3.19,.09,1.43,0,2.11-.09,3.13-.09,.47,0,.73,.12,.73,.36s-.29,.42-.76,.51c-1.7,.36-1.67,1.11-1.78,1.91-.15,.99-.17,2.93-.17,8.79,0,1.65,.03,3.5,.09,4.46,.09,1.62,.23,2.18,2.13,2.57,.53,.09,.76,.3,.76,.51,0,.24-.44,.39-.79,.39-1.49,0-3.57-.18-4.36-.18-.88,0-1.14,.06-2.22,.06-.56,0-.76-.21-.76-.42s.29-.39,.88-.51c1.46-.33,1.58-.78,1.7-2.18,.09-1.05,.15-4.16,.15-6.7,0-1.85-.03-5.56-.09-6.55Z"/><path d="M157.11,40.75c0,.9-.67,1.32-1.37,1.32-.56,0-1.23-.45-1.23-1.38,0-.72,.56-1.38,1.32-1.38,.7,0,1.29,.69,1.29,1.44Zm.23,5.89c-.09-1.38-.09-1.82-1.72-2.12-.64-.12-.82-.33-.82-.54,0-.24,.32-.36,.73-.36,.76,0,2.22,.09,3.19,.09,1.43,0,2.11-.09,3.13-.09,.47,0,.73,.12,.73,.36s-.29,.42-.76,.51c-1.7,.36-1.67,1.11-1.78,1.91-.15,.99-.17,2.93-.17,8.79,0,1.65,.03,3.5,.09,4.46,.09,1.62,.23,2.18,2.13,2.57,.53,.09,.76,.3,.76,.51,0,.24-.44,.39-.79,.39-1.49,0-3.57-.18-4.36-.18-.88,0-1.14,.06-2.22,.06-.56,0-.76-.21-.76-.42s.29-.39,.88-.51c1.46-.33,1.58-.78,1.7-2.18,.09-1.05,.15-4.16,.15-6.7,0-1.85-.03-5.56-.09-6.55Zm5.58-5.89c0,.72-.61,1.32-1.32,1.32-.61,0-1.26-.51-1.26-1.32s.61-1.41,1.37-1.41c.67,0,1.2,.69,1.2,1.41Z"/><path d="M193.88,38.57c.67,.6,1.9,1.73,2.75,2.66,.23,.21,.44,.54,.32,.72-.18,.27-.7,.24-1.05,.03-1.17-.57-3.45-2.03-3.92-2.36-.38-.24-.61-.45-.61-.69,0-.3,.23-.51,.56-.75,.2-.21,.67-.48,.79-.48,.23,0,.41,.15,1.17,.87Zm.12,8.07c-.09-1.38-.09-1.82-1.72-2.12-.64-.12-.82-.33-.82-.54,0-.24,.32-.36,.73-.36,.76,0,2.22,.09,3.19,.09,1.43,0,2.11-.09,3.13-.09,.47,0,.73,.12,.73,.36s-.29,.42-.76,.51c-1.7,.36-1.67,1.11-1.78,1.91-.15,.99-.17,2.93-.17,8.79,0,1.65,.03,3.5,.09,4.46,.09,1.62,.23,2.18,2.13,2.57,.53,.09,.76,.3,.76,.51,0,.24-.44,.39-.79,.39-1.49,0-3.57-.18-4.36-.18-.88,0-1.14,.06-2.22,.06-.56,0-.76-.21-.76-.42s.29-.39,.88-.51c1.46-.33,1.58-.78,1.7-2.18,.09-1.05,.15-4.16,.15-6.7,0-1.85-.03-5.56-.09-6.55Z"/><path d="M218.2,43.62c.64,0,2.08,.09,3.57,.09,.18,0,.44,.21,.61,.39,.44,.54,1.17,1.44,2.31,2.96,1.32,1.71,7.75,8.88,9.71,11.07,.18,.18,.29-.12,.29-.21,.15-.96,.06-4.19,.06-8.49,0-1.02-.06-2.06-.15-2.99-.03-.63-.23-1.35-1.84-1.82-.58-.18-.79-.42-.79-.66,0-.21,.41-.27,.76-.27,.76,0,1.58,.03,2.51,.03,1.05,0,1.99-.12,2.75-.12,.5,0,.67,.09,.67,.33,0,.18-.17,.45-.7,.6-1.26,.3-1.78,.57-1.87,2.18-.06,1.08-.32,6.97-.32,12.11,0,1.26,.21,3.5,.21,3.98,0,.3-.15,.63-.41,.63-.41,0-1.05-.6-1.32-.96-.5-.63-1.02-1.41-1.81-2.39-2.75-3.35-7.81-9.18-10.44-12.41-.12-.15-.32-.09-.32,.06-.03,.81-.12,1.64-.15,3.98,0,2.69-.09,7.3-.03,8.22,.12,1.38,.44,1.82,1.84,2.24,.61,.15,.73,.36,.73,.54,0,.3-.38,.39-.94,.39-.85,0-2.08-.15-3.13-.15-.64,0-1.4,.06-1.9,.06-.41,0-.76-.03-.76-.33,0-.24,.29-.42,.58-.51,1.37-.48,1.93-.6,2.05-2.81,.15-2.42,.56-9.6,.56-12.08,0-1.08-.15-1.35-.21-1.44-.82-.99-1.14-1.02-2.46-1.38-.32-.09-.64-.24-.64-.48s.29-.36,.96-.36Zm7.48-3.92c.18-.18,.38-.3,.82-.3,1.78,0,3.83,.06,4.53-.12,.58-.18,.88-.81,1.05-.99,.09-.09,.15-.24,.29-.24s.41,.3,.47,.45c.06,.15,0,.39-.12,.51-.38,.42-1.32,1.79-1.64,2.06-.2,.21-.26,.21-.44,.21-.88,0-4.24-.09-4.68,.03-.26,.06-.58,.42-.94,.93-.09,.15-.2,.24-.26,.24-.35,0-.5-.33-.5-.45,0-.09,.09-.3,.38-.78,.26-.48,.79-1.26,1.02-1.56Z"/><path d="M272.33,53.07c0,4.19-2.02,7.12-4.15,8.67-1.84,1.32-4.27,1.73-5.76,1.73-2.98,0-5.82-1.32-7.6-3.41-1.55-1.76-2.43-4.19-2.43-6.76,0-3.68,1.58-6.22,3.8-8.04,1.43-1.2,3.95-2.09,5.99-2.09,5.61,0,10.14,4.22,10.14,9.9Zm-14.82-7.21c-1.29,1.29-2.28,3.53-2.28,7.03,0,4.46,3.22,9.57,7.89,9.57,2.43,0,3.54-1.08,3.86-1.44,1.17-1.08,2.48-3.5,2.48-7.06,0-3.26-1.37-6.4-3.54-8.2-1.2-.99-3.04-1.62-4.39-1.62-1.23,0-3.01,.66-4.03,1.71Zm7.83-8.43c.26,.15,.94,.63,.94,1.05,0,.27-.35,.69-.67,.87-1.32,.9-2.87,1.73-4.27,2.39-.23,.12-.76,.3-1.05,0-.03-.03-.12-.36,.35-.81,.94-.93,2.57-2.36,3.77-3.32,.41-.33,.79-.24,.94-.18Z"/><path d="M307.62,53.07c0,4.19-2.02,7.12-4.15,8.67-1.84,1.32-4.27,1.73-5.76,1.73-2.98,0-5.82-1.32-7.6-3.41-1.55-1.76-2.43-4.19-2.43-6.76,0-3.68,1.58-6.22,3.8-8.04,1.43-1.2,3.95-2.09,5.99-2.09,5.61,0,10.14,4.22,10.14,9.9Zm-14.82-7.21c-1.29,1.29-2.28,3.53-2.28,7.03,0,4.46,3.22,9.57,7.89,9.57,2.43,0,3.54-1.08,3.86-1.44,1.17-1.08,2.48-3.5,2.48-7.06,0-3.26-1.37-6.4-3.54-8.2-1.2-.99-3.04-1.62-4.39-1.62-1.23,0-3.01,.66-4.03,1.71Zm6.26-7.12c.44,.42,1.49,1.35,2.63,2.33,.47,.3,.56,.87,.06,.87-.23,0-.67-.21-.88-.3-.99-.42-1.93-.96-2.87-1.41-.21-.12-.38-.03-.53,.03-.79,.36-1.87,.9-2.75,1.38-.23,.06-.64,.3-.88,.3-.58,0-.58-.33,.03-.9,.73-.57,1.99-1.74,2.78-2.36,.44-.39,.88-.66,1.2-.66,.26,0,.67,.3,1.2,.72Z"/><path d="M28.35,88.1c0,4.19-2.02,7.12-4.15,8.67-1.84,1.32-4.27,1.73-5.76,1.73-2.98,0-5.82-1.32-7.6-3.41-1.55-1.76-2.43-4.19-2.43-6.76,0-3.68,1.58-6.22,3.8-8.04,1.43-1.2,3.95-2.09,5.99-2.09,5.61,0,10.14,4.22,10.14,9.9Zm-14.82-7.21c-1.29,1.29-2.28,3.53-2.28,7.03,0,4.46,3.22,9.57,7.89,9.57,2.43,0,3.54-1.08,3.86-1.44,1.17-1.08,2.48-3.5,2.48-7.06,0-3.26-1.37-6.4-3.54-8.2-1.2-.99-3.04-1.62-4.39-1.62-1.23,0-3.01,.66-4.03,1.71Zm3.3-5.41c0,.9-.67,1.32-1.37,1.32-.56,0-1.2-.45-1.2-1.38,0-.72,.53-1.38,1.29-1.38,.7,0,1.29,.69,1.29,1.44Zm5.85,0c0,.72-.64,1.32-1.34,1.32-.61,0-1.26-.51-1.26-1.32s.61-1.41,1.37-1.41c.67,0,1.23,.69,1.23,1.41Z"/><path d="M64.16,87.82c0,4.19-2.02,7.12-4.15,8.67-1.84,1.32-4.27,1.73-5.76,1.73-2.98,0-5.82-1.32-7.6-3.41-1.55-1.76-2.43-4.19-2.43-6.76,0-3.68,1.58-6.22,3.8-8.04,1.43-1.2,3.95-2.09,5.99-2.09,5.61,0,10.14,4.22,10.14,9.9Zm-14.82-7.21c-1.29,1.29-2.28,3.53-2.28,7.03,0,4.46,3.22,9.57,7.89,9.57,2.43,0,3.54-1.08,3.86-1.44,1.17-1.08,2.48-3.5,2.48-7.06,0-3.26-1.37-6.4-3.54-8.2-1.2-.99-3.04-1.62-4.39-1.62-1.23,0-3.01,.66-4.03,1.71Zm3.77-7.63c.67,.63,1.9,1.73,2.78,2.66,.2,.24,.41,.57,.29,.75-.17,.24-.7,.21-1.05,.03-1.17-.57-3.45-2.03-3.92-2.36-.35-.24-.61-.45-.61-.72s.23-.48,.56-.75c.21-.18,.67-.45,.82-.45,.21,0,.38,.15,1.14,.84Z"/><path d="M98.2,88.1c0,4.19-2.02,7.12-4.15,8.67-1.84,1.32-4.27,1.73-5.76,1.73-2.98,0-5.82-1.32-7.6-3.41-1.55-1.76-2.43-4.19-2.43-6.76,0-3.68,1.58-6.22,3.8-8.04,1.43-1.2,3.95-2.09,5.99-2.09,5.61,0,10.14,4.22,10.14,9.9Zm-14.82-7.21c-1.29,1.29-2.28,3.53-2.28,7.03,0,4.46,3.22,9.57,7.89,9.57,2.43,0,3.54-1.08,3.86-1.44,1.17-1.08,2.48-3.5,2.48-7.06,0-3.26-1.37-6.4-3.54-8.2-1.2-.99-3.04-1.62-4.39-1.62-1.23,0-3.01,.66-4.03,1.71Zm1.93-6.76c.15-.18,.38-.3,.82-.3,1.78,0,3.83,.09,4.53-.12,.58-.15,.88-.81,1.02-.96,.09-.09,.15-.24,.29-.24s.41,.3,.47,.45c.06,.12,.03,.36-.09,.51-.38,.42-1.34,1.79-1.64,2.06-.2,.21-.29,.18-.47,.18-.85,0-4.24-.06-4.68,.06-.23,.06-.56,.42-.94,.93-.09,.15-.2,.24-.26,.24-.35,0-.47-.33-.47-.45,0-.09,.06-.3,.35-.78s.79-1.26,1.05-1.58Z"/><path d="M124.74,78.74c.18,.06,.35,.51,.35,.57,.06,.57,.29,2.3,.29,2.42,0,.51,0,.81-.2,.81-.23,0-.58-.21-.7-.63-.35-1.08-1.14-1.97-1.43-2.15-.53-.42-1.23-.69-2.08-.69-1.96,0-3.36,1.5-3.36,3.5,0,2.12,1.49,3.05,4.06,4.82,2.25,1.55,4.03,3.11,4.03,5.8,0,1.5-.82,3.17-2.4,4.22-.94,.63-2.66,1.08-3.98,1.08-.94,0-2.92-.33-3.83-.78-.29-.18-.67-.84-.67-.96-.15-1.02-.44-2.33-.44-2.81,0-.12,.29-.57,.41-.57,.23,0,.67,.78,1.08,1.7,.76,1.65,2.69,2.39,3.8,2.39,2.02,0,3.54-1.46,3.54-3.62,0-1.26-.58-2.6-3.65-4.61-2.49-1.64-4.24-3.38-4.24-5.92,0-1.41,.61-2.75,1.61-3.65,.91-.84,2.28-1.46,4.33-1.46,1.43,0,2.95,.45,3.48,.54Zm-5.12-2.51c-.44-.39-1.58-1.35-2.69-2.33-.47-.33-.5-.9,.03-.9,.21,0,.64,.24,.85,.3,.99,.45,1.96,.99,2.87,1.47,.21,.09,.38,.06,.56-.03,.76-.39,1.84-.9,2.72-1.41,.23-.06,.64-.3,.91-.3,.56,0,.61,.33,0,.9-.73,.63-2.05,1.74-2.84,2.39-.44,.36-.88,.6-1.2,.6-.26,0-.67-.27-1.2-.69Z"/><path d="M148.48,78.65c1.23,0,1.93,.09,3.01,.09s2.19-.06,2.84-.06c.56,0,.91,.09,.91,.33s-.32,.45-.88,.57c-1.05,.21-1.61,.51-1.78,1.7-.15,.99-.12,4.1-.12,8.34,0,3.38,.73,4.67,1.64,5.71,.82,.93,2.72,1.64,4.24,1.64,1.9,0,4.74-.9,5.47-4.19,.35-1.58,.64-4.1,.64-7.51,0-1.94-.09-3.5-.12-3.86-.09-1.14-.29-1.55-1.93-1.94-.29-.06-.61-.33-.61-.54,0-.18,.18-.3,.67-.3,.73,0,1.55,.09,2.49,.09,1.2,0,1.81-.06,2.63-.06,.47,0,.73,.09,.73,.33,0,.18-.23,.39-.64,.54-1.26,.36-1.84,.87-1.9,2.75-.03,1.29-.21,4.61-.26,6.16-.15,5.2-1.55,7.84-3.65,9.03-1.34,.78-2.92,.96-4.21,.96-2.63,0-4.59-1.11-5.29-1.76-1.64-1.58-2.34-3.77-2.34-8.79,0-4.31-.09-6.7-.12-7.09-.06-.57-.47-1.05-1.58-1.29-.35-.09-.67-.24-.67-.51,0-.24,.38-.36,.85-.36Zm13.1-5.68c.26,.18,.94,.66,.94,1.08,0,.24-.32,.66-.64,.84-1.32,.93-2.89,1.76-4.27,2.39-.23,.12-.79,.3-1.08,0-.03,0-.12-.36,.38-.78,.91-.93,2.54-2.36,3.77-3.35,.38-.3,.76-.21,.91-.18Z"/><path d="M184.73,78.65c1.23,0,1.93,.09,3.01,.09s2.19-.06,2.84-.06c.56,0,.91,.09,.91,.33s-.32,.45-.88,.57c-1.05,.21-1.61,.51-1.78,1.7-.15,.99-.12,4.1-.12,8.34,0,3.38,.73,4.67,1.64,5.71,.82,.93,2.72,1.64,4.24,1.64,1.9,0,4.74-.9,5.47-4.19,.35-1.58,.64-4.1,.64-7.51,0-1.94-.09-3.5-.12-3.86-.09-1.14-.29-1.55-1.93-1.94-.29-.06-.61-.33-.61-.54,0-.18,.18-.3,.67-.3,.73,0,1.55,.09,2.49,.09,1.2,0,1.81-.06,2.63-.06,.47,0,.73,.09,.73,.33,0,.18-.23,.39-.64,.54-1.26,.36-1.84,.87-1.9,2.75-.03,1.29-.21,4.61-.26,6.16-.15,5.2-1.55,7.84-3.65,9.03-1.34,.78-2.92,.96-4.21,.96-2.63,0-4.59-1.11-5.29-1.76-1.64-1.58-2.34-3.77-2.34-8.79,0-4.31-.09-6.7-.12-7.09-.06-.57-.47-1.05-1.58-1.29-.35-.09-.67-.24-.67-.51,0-.24,.38-.36,.85-.36Zm11.11-4.7c.44,.42,1.49,1.35,2.63,2.33,.47,.3,.55,.87,.03,.87-.2,0-.64-.21-.85-.3-.99-.42-1.96-.93-2.87-1.41-.2-.12-.41-.03-.55,.03-.76,.39-1.84,.9-2.72,1.38-.23,.06-.64,.3-.91,.3-.55,0-.55-.33,.06-.9,.7-.57,1.99-1.73,2.78-2.36,.44-.39,.88-.66,1.17-.66,.26,0,.7,.3,1.23,.72Z"/><path d="M217.41,78.65c1.23,0,1.93,.09,3.01,.09s2.19-.06,2.84-.06c.56,0,.91,.09,.91,.33s-.32,.45-.88,.57c-1.05,.21-1.61,.51-1.78,1.7-.15,.99-.12,4.1-.12,8.34,0,3.38,.73,4.67,1.64,5.71,.82,.93,2.72,1.64,4.24,1.64,1.9,0,4.74-.9,5.47-4.19,.35-1.58,.64-4.1,.64-7.51,0-1.94-.09-3.5-.12-3.86-.09-1.14-.29-1.55-1.93-1.94-.29-.06-.61-.33-.61-.54,0-.18,.18-.3,.67-.3,.73,0,1.55,.09,2.49,.09,1.2,0,1.81-.06,2.63-.06,.47,0,.73,.09,.73,.33,0,.18-.23,.39-.64,.54-1.26,.36-1.84,.87-1.9,2.75-.03,1.29-.21,4.61-.26,6.16-.15,5.2-1.55,7.84-3.65,9.03-1.34,.78-2.92,.96-4.21,.96-2.63,0-4.59-1.11-5.29-1.76-1.64-1.58-2.34-3.77-2.34-8.79,0-4.31-.09-6.7-.12-7.09-.06-.57-.47-1.05-1.58-1.29-.35-.09-.67-.24-.67-.51,0-.24,.38-.36,.85-.36Zm8.33-2.87c0,.93-.67,1.32-1.4,1.32-.53,0-1.2-.42-1.2-1.35,0-.72,.55-1.38,1.32-1.38,.7,0,1.29,.69,1.29,1.41Zm5.82,0c0,.75-.61,1.32-1.32,1.32-.61,0-1.26-.51-1.26-1.29,0-.84,.61-1.41,1.37-1.41,.64,0,1.2,.69,1.2,1.38Z"/><path d="M251.89,78.65c1.23,0,1.93,.09,3.01,.09s2.19-.06,2.84-.06c.56,0,.91,.09,.91,.33s-.32,.45-.88,.57c-1.05,.21-1.61,.51-1.78,1.7-.15,.99-.12,4.1-.12,8.34,0,3.38,.73,4.67,1.64,5.71,.82,.93,2.72,1.64,4.24,1.64,1.9,0,4.74-.9,5.47-4.19,.35-1.58,.64-4.1,.64-7.51,0-1.94-.09-3.5-.12-3.86-.09-1.14-.29-1.55-1.93-1.94-.29-.06-.61-.33-.61-.54,0-.18,.18-.3,.67-.3,.73,0,1.55,.09,2.49,.09,1.2,0,1.81-.06,2.63-.06,.47,0,.73,.09,.73,.33,0,.18-.23,.39-.64,.54-1.26,.36-1.84,.87-1.9,2.75-.03,1.29-.21,4.61-.26,6.16-.15,5.2-1.55,7.84-3.65,9.03-1.34,.78-2.92,.96-4.21,.96-2.63,0-4.59-1.11-5.29-1.76-1.64-1.58-2.34-3.77-2.34-8.79,0-4.31-.09-6.7-.12-7.09-.06-.57-.47-1.05-1.58-1.29-.35-.09-.67-.24-.67-.51,0-.24,.38-.36,.85-.36Zm8.27-4.96c.67,.63,1.9,1.73,2.78,2.66,.23,.24,.41,.57,.29,.75-.15,.24-.7,.21-1.05,.03-1.14-.6-3.45-2.06-3.92-2.36-.35-.27-.58-.45-.58-.72s.21-.48,.53-.75c.23-.18,.67-.45,.82-.45,.2,0,.38,.15,1.14,.84Z"/><path d="M289.43,78.59c.44,0,1.96,.15,3.33,.15,.82,0,1.05-.06,2.22-.06,.47,0,.64,.12,.64,.3,0,.21-.21,.48-.64,.6-1.05,.24-.85,.6-.44,1.38,.35,.69,2.51,4.37,3.83,6.55,.06,.09,.23,.06,.29-.06,.82-1.2,3.04-4.93,3.77-6.16,.61-1.08,.29-1.44-.85-1.7-.44-.12-.61-.39-.61-.6s.35-.27,.67-.27c.76,0,1.23,.03,1.9,.03,1.08,0,2.78-.12,3.25-.12,.32,0,.61,.12,.61,.3,0,.24-.26,.39-.76,.54-1.37,.36-2.22,1.11-3.19,2.33-1.37,1.76-2.89,4.4-3.89,5.86-.32,.48-.73,1.44-.73,1.83,0,1.67,.06,5.38,.18,6.34,.12,.63,.44,.99,2.08,1.41,.58,.15,.79,.33,.79,.54,0,.24-.29,.33-.88,.33-.44,0-1.87-.12-2.54-.12-1.75,0-3.65,.18-4.09,.18-.5,0-.73-.15-.73-.33s.21-.42,.82-.54c1.58-.36,1.87-1.02,1.9-1.44,.09-1.23,.09-4.46,.09-6.19,0-.15-.17-.84-.26-1.08-.5-1.08-2.31-4.1-3.71-6.28-1.37-2.09-1.73-2.51-3.01-2.81-.56-.12-.82-.36-.82-.6,0-.18,.29-.3,.79-.3Zm12.28-5.56c.26,.18,.91,.66,.91,1.08,0,.24-.32,.66-.64,.84-1.32,.9-2.89,1.76-4.27,2.39-.23,.12-.76,.3-1.05,0-.06,0-.12-.36,.35-.81,.94-.9,2.57-2.36,3.77-3.32,.41-.33,.76-.21,.94-.18Z"/><path d="M9.94,113.41c.44,0,1.96,.15,3.33,.15,.82,0,1.05-.06,2.22-.06,.47,0,.64,.12,.64,.3,0,.21-.21,.48-.64,.6-1.05,.24-.85,.6-.44,1.38,.35,.69,2.51,4.37,3.83,6.55,.06,.09,.23,.06,.29-.06,.82-1.2,3.04-4.93,3.77-6.16,.61-1.08,.29-1.44-.85-1.7-.44-.12-.61-.39-.61-.6s.35-.27,.67-.27c.76,0,1.23,.03,1.9,.03,1.08,0,2.78-.12,3.25-.12,.32,0,.61,.12,.61,.3,0,.24-.26,.39-.76,.54-1.37,.36-2.22,1.11-3.19,2.33-1.37,1.76-2.89,4.4-3.89,5.86-.32,.48-.73,1.44-.73,1.82,0,1.68,.06,5.38,.18,6.34,.12,.63,.44,.99,2.08,1.41,.58,.15,.79,.33,.79,.54,0,.24-.29,.33-.88,.33-.44,0-1.87-.12-2.54-.12-1.75,0-3.65,.18-4.09,.18-.5,0-.73-.15-.73-.33s.21-.42,.82-.54c1.58-.36,1.87-1.02,1.9-1.44,.09-1.23,.09-4.46,.09-6.19,0-.15-.17-.84-.26-1.08-.5-1.08-2.31-4.1-3.71-6.28-1.37-2.09-1.73-2.51-3.01-2.81-.56-.12-.82-.36-.82-.6,0-.18,.29-.3,.79-.3Zm7.4-2.81c0,.9-.67,1.32-1.37,1.32-.56,0-1.2-.45-1.2-1.38,0-.72,.56-1.38,1.29-1.38s1.29,.69,1.29,1.44Zm5.85,0c0,.72-.61,1.32-1.34,1.32-.61,0-1.26-.51-1.26-1.32s.61-1.41,1.37-1.41c.67,0,1.23,.69,1.23,1.41Z"/><path d="M60.48,113.47c.35-.03,.5,.03,.5,.15s-.06,.39-.32,.75c-.38,.39-1.34,1.82-2.6,3.65-2.95,4.55-7.46,11.78-8.22,12.98-.09,.12-.03,.3,.12,.39,.29,.18,2.63,.33,4.36,.33,1.02,0,3.19,0,3.71-.09,1.4-.18,1.84-.33,3.62-2.87,.35-.48,.5-.78,.76-.78,.17,0,.26,.27,.26,.66,0,.48-.61,1.88-1.46,3.8-.15,.27-.44,.51-1.7,.51-2.31,0-9.06-.12-10.41-.12h-2.78c-.21,0-.5-.18-.5-.42s.61-.96,1.26-1.88c1.08-1.44,9.15-14,9.85-15.31,.15-.24,0-.39-.12-.42-1.11-.12-4.12-.15-5.29-.15-.5,0-1.72,.06-2.13,.15-.88,.21-1.78,.69-2.63,2.27-.23,.48-.47,.66-.64,.66s-.41-.27-.17-1.02c.09-.3,.88-2.24,1.17-3.56,.03-.21,.21-.36,.38-.36,.09,0,.35,.12,.47,.24,.32,.36,.67,.42,1.46,.48,.79,.03,2.81,.06,4.62,.06,2.19,0,5.79-.03,6.43-.09Zm-7.75-2.09c-.44-.39-1.58-1.32-2.72-2.33-.47-.3-.47-.87,.03-.87,.23,0,.67,.21,.88,.3,.99,.45,1.93,.96,2.87,1.44,.21,.09,.38,.06,.53-.03,.79-.39,1.87-.9,2.75-1.38,.23-.06,.64-.3,.88-.3,.58,0,.64,.3,0,.87-.7,.63-2.02,1.74-2.81,2.39-.47,.36-.88,.63-1.2,.63-.26,0-.67-.27-1.2-.72Z"/><rect class="d" x=".5" y=".5" width="34.82" height="34.82"/><rect class="d" x="35.32" y=".5" width="34.82" height="34.82"/><rect class="d" x="70.15" y=".5" width="34.82" height="34.82"/><rect class="d" x="104.97" y=".5" width="34.82" height="34.82"/><rect class="d" x="139.79" y=".5" width="34.82" height="34.82"/><rect class="d" x="174.61" y=".5" width="34.82" height="34.82"/><rect class="d" x="209.44" y=".5" width="34.82" height="34.82"/><rect class="d" x="244.26" y=".5" width="34.82" height="34.82"/><rect class="d" x="279.08" y=".5" width="34.82" height="34.82"/><rect class="d" x=".5" y="35.32" width="34.82" height="34.82"/><rect class="d" x="35.32" y="35.32" width="34.82" height="34.82"/><rect class="d" x="70.15" y="35.32" width="34.82" height="34.82"/><rect class="d" x="104.97" y="35.32" width="34.82" height="34.82"/><rect class="d" x="139.79" y="35.32" width="34.82" height="34.82"/><rect class="d" x="174.61" y="35.32" width="34.82" height="34.82"/><rect class="d" x="209.44" y="35.32" width="34.82" height="34.82"/><rect class="d" x="244.26" y="35.32" width="34.82" height="34.82"/><rect class="d" x="279.08" y="35.32" width="34.82" height="34.82"/><rect class="d" x=".5" y="70.15" width="34.82" height="34.82"/><rect class="d" x="35.32" y="70.15" width="34.82" height="34.82"/><rect class="d" x="70.15" y="70.15" width="34.82" height="34.82"/><rect class="d" x="104.97" y="70.15" width="34.82" height="34.82"/><rect class="d" x="139.79" y="70.15" width="34.82" height="34.82"/><rect class="d" x="174.61" y="70.15" width="34.82" height="34.82"/><rect class="d" x="209.44" y="70.15" width="34.82" height="34.82"/><rect class="d" x="244.26" y="70.15" width="34.82" height="34.82"/><rect class="d" x="279.08" y="70.15" width="34.82" height="34.82"/><rect class="d" x=".56" y="104.96" width="34.82" height="34.82"/><rect class="d" x="35.4" y="104.96" width="34.82" height="34.82"/></g></g></g></svg>