<?xml version="1.0" encoding="UTF-8"?><svg xmlns="http://www.w3.org/2000/svg" viewBox="0 0 315.41 70.87"><defs><style>.d{fill:none;stroke:#ffdc00;stroke-miterlimit:10;}</style></defs><g id="a"/><g id="b"><g id="c"><g><path d="M21.11,17.81c0,4.83-1.7,8.01-3.34,9.09-.85,.57-1.82,.87-2.7,.84-4.4-.09-6.01-5.64-6.01-9.48,0-4.83,1.7-7.8,3.55-9,.79-.51,1.58-.81,2.7-.81,4.63,0,5.81,6.15,5.81,9.36Zm-8.09-7.32c-.7,1.08-1.5,2.97-1.5,7.41,0,3.33,.97,9.03,3.96,9.03,1,0,1.82-1.29,1.91-1.44,.67-1.32,1.14-3.66,1.14-7.5,0-4.92-1.41-7.5-2.2-8.07-.47-.33-.94-.57-1.53-.57-.67,0-1.17,.27-1.79,1.14Z"/><path d="M48.94,26.35c1.44-.33,1.85-.66,1.99-1.92,.12-.99,.21-2.97,.21-8.49,0-3.18-.03-4.2-.12-4.62-.06-.3-.32-.57-.65-.63-.47-.09-1.03-.15-1.32-.24-.44-.12-.56-.21-.56-.39s.29-.39,.59-.45c1.11-.27,2.23-.39,3.08-.87,.59-.3,1.06-.57,1.2-.57s.23,.15,.23,.3c0,.6-.12,1.26-.09,3.45,0,2.13,0,8.1,.03,11.64,0,2.04,.09,2.34,1.91,2.79,.41,.09,.76,.27,.76,.54,0,.21-.26,.33-.7,.33-.73,0-1.94-.12-2.84-.12-1.67,0-3.55,.15-3.96,.15-.32,0-.73-.06-.73-.3s.29-.42,.97-.6Z"/><path d="M79.01,27.14c-.06-.18,.15-.48,.38-.69,1.32-1.23,3.26-3.72,4.66-5.52,1.64-2.16,3.02-4.59,3.02-6.69,0-2.61-1.58-3.69-3.37-3.69-1.67,0-2.9,.93-3.61,1.86-.32,.42-.5,.63-.62,.63-.09,0-.32-.3-.32-.42,0-.27,.09-.57,.38-.99,1.32-2.07,3.14-3.18,5.28-3.18,2.64,0,4.69,2.34,4.69,5.07,0,1.74-1.14,3.84-2.32,5.28-1.64,1.95-3.29,3.96-5.31,6.24-.09,.06-.03,.21,.06,.24,1.26,.12,5.75,.12,6.72-.03,.88-.15,1.32-.36,2.05-1.17,.21-.24,.44-.51,.59-.51,.26,0,.38,.39,.09,.96-.53,1.17-.79,1.89-.91,2.7-.06,.24-.32,.27-.44,.27-.15,0-6.07-.12-7.45-.12-.67,0-1.91,0-2.96,.09-.18,.03-.59-.12-.62-.33Z"/><path d="M122.76,12.2c0,1.23-.65,2.13-1.03,2.55-.53,.57-1.03,1.02-1.73,1.5-.09,.12-.09,.24,.06,.3,.94,.21,2.55,.63,3.55,1.89,.5,.63,.82,1.56,.82,2.76,0,2.46-1.7,4.95-4.22,6.45-1.5,.9-3.17,1.26-4.34,1.26-1.61,0-2.96-.66-2.96-1.5,0-.18,.12-.51,.24-.69,.23-.36,.56-.57,.79-.57,.12,0,.47,.21,.7,.42,.97,.87,2.05,1.08,2.96,1.08,.62,0,1.67-.24,2.43-.87,1.38-1.11,1.91-2.88,1.91-4.08s-.32-2.46-1.06-3.27c-.73-.81-1.58-1.02-2.64-1.02-.47,0-1.55,.18-2.29,.51-.15,.06-.26-.09-.24-.24,0-.24,.26-.63,.44-.78,.38-.27,.82-.51,1.44-.84,2.2-1.14,2.82-2.34,2.82-3.78,0-1.65-1.29-2.97-2.84-2.97-1.17,0-2.29,.51-3.23,1.68-.32,.42-.53,.54-.62,.54-.18,0-.26-.12-.26-.42,0-.33,.65-1.38,1.61-2.25,1-.9,2.23-1.41,3.61-1.41,2.79,0,4.08,2.31,4.08,3.75Z"/><path d="M159.04,19.91c0,.09,.09,.24,.15,.24l2.64-.06c.09,0,.18,.12,.18,.27,0,.3-.21,1.05-.47,1.17l-2.32-.03c-.06,0-.18,.15-.18,.21,0,.36-.03,1.8,0,2.46,.09,2.07,.23,2.22,1.55,2.49,.5,.12,.65,.3,.65,.48,0,.15-.15,.36-.67,.36-.67,.03-1.88-.12-2.76-.12-1.03,0-2.05,.15-3.05,.15-.47,0-.76-.18-.76-.39,0-.15,.29-.39,.76-.48,1.76-.33,1.67-.87,1.79-2.37,.03-.6,.09-2.19,.09-2.37,0-.27-.03-.36-.15-.39-.53-.06-6.51-.09-7.77,.06-.26,.03-.53-.09-.53-.24,0-.3,.38-.75,.79-1.32l9.41-13.17c.15-.21,.35-.42,.56-.42h.32c.26,0,.41,.09,.41,.24,0,.09-.06,.21-.15,.33l-9.3,12.84c-.09,.15-.03,.21,.06,.24,1.32,.12,5.66,.09,6.22,.06,.06,0,.15-.15,.15-.21l.03-5.73c0-.09,.18-.39,.26-.45,.32-.24,1.35-.54,1.82-.54,.15,0,.26,.18,.26,.78v5.91Z"/><path d="M195.52,26.75c-1.91,1.62-4.96,2.34-6.54,2.34-.29,0-.59,0-.67-.03-.29-.03-.41-.09-.41-.24,0-.12,.32-.54,.59-.6,3.64-.33,7.24-2.28,7.24-5.94,0-1.89-1.12-3.51-2.96-4.35-1.44-.63-2.88-1.14-4.72-1.47-.12-.03-.38-.54-.38-.69,0-.84,.91-3.84,1.47-5.19,.15-.33,.5-.99,.64-1.02,.7-.3,5.07-1.08,7.04-1.08,.06,0,.23,.24,.23,.27,0,1.2-1.17,2.34-1.5,2.37-1.73,.12-4.63,.3-5.57,.39-.12,0-.32,.15-.35,.27-.26,.78-.59,1.77-.62,1.89-.03,.21,.06,.39,.21,.42,1.88,.42,4.72,1.53,5.84,2.22,2.02,1.23,3.08,3.18,3.08,5.19,0,2.34-1.23,4.08-2.61,5.25Z"/><path d="M230.78,21.14c0,2.46-1.14,4.23-2.64,5.34-1.14,.9-2.23,1.29-3.61,1.29-3.64,0-5.87-2.85-5.87-7.05,0-5.07,3.61-9.57,7.13-11.88,1.96-1.26,3.81-2.01,4.78-2.01,.21,0,.59,.06,.59,.33,0,.21-.24,.3-.59,.48-1.32,.54-2.93,1.38-4.93,3.21-2.67,2.46-4.49,6.09-4.49,9.69,0,2.88,1.58,6.06,4.34,6.06,.41,0,1.06-.09,1.58-.48,.79-.6,1.5-1.8,1.5-3.66,0-2.76-1.53-4.14-3.37-4.14-.5,0-1.67,.42-2.14,.66-.06,.03-.26-.06-.26-.24,0-.21,.06-.36,.32-.66s1.08-.87,1.67-1.11c.53-.3,1.35-.54,1.85-.54,2.76,0,4.13,2.22,4.13,4.71Z"/><path d="M262.43,8.75c.76-.03,1.44-.06,1.53-.06,.23,0,.47,.09,.5,.18,0,.15-.15,.42-.24,.57-.44,.63-4.16,8.16-6.22,12.6-1.58,3.39-2.76,5.88-2.93,6.33-.15,.33-.35,.42-.41,.42-.41,0-.73-.36-.73-.6,0-.15,.12-.42,.26-.69,2.7-5.55,5.78-11.46,7.86-16.11,.03-.03-.06-.21-.12-.21-.26-.03-2.46-.21-6.19-.21-.53,0-1.32,.03-1.76,.12-.79,.06-1.11,.48-1.82,1.56-.15,.27-.47,.66-.62,.66-.18,0-.26-.18-.26-.39s.15-.69,.32-1.17c.44-1.08,.53-2.01,.62-2.43,.03-.27,.15-.54,.29-.69,.12-.09,.26-.06,.41,0,.44,.18,3.7,.21,4.69,.21,2.08,.03,4.11-.06,4.81-.09Z"/><path d="M303.81,12.38c0,1.38-.76,2.34-1.61,3.06-.53,.51-1.38,1.02-1.99,1.44-.12,.06-.12,.21-.06,.27,1.5,1.14,3.9,3.09,3.9,5.58,0,1.65-.97,3.06-2.11,3.9-1.2,.93-2.7,1.14-3.61,1.14-3.64,0-5.28-2.49-5.28-4.47s1.23-3.03,2.05-3.72c.47-.39,1.53-1.26,1.88-1.5,.03-.03,0-.15-.03-.18-.79-.57-1.7-1.35-2.35-2.19-.67-.84-1.08-1.8-1.08-3,0-1.53,.7-2.7,1.58-3.42,1.06-.93,2.49-1.38,3.72-1.38,2.82,0,4.99,1.86,4.99,4.47Zm-2.14,11.28c0-2.22-1.88-3.72-3.58-4.98-.12-.09-.38-.21-.44-.15-1.14,.81-2.35,2.82-2.35,4.44,0,.96,.41,1.95,.94,2.73,.65,.72,1.67,1.23,2.49,1.23,1.94,0,2.93-1.47,2.93-3.27Zm-6.01-11.82c0,2.04,1.55,3.3,3.46,4.65,.09,.06,.26,.12,.35,.06,.38-.3,1.03-.9,1.32-1.38,.21-.36,.85-1.5,.85-3,0-.66-.76-3.45-3.11-3.45-1.38,0-2.88,1.05-2.88,3.12Z"/><path d="M23.99,50.67c0,4.26-3.2,9.66-7.21,12.21-1.58,1.02-2.52,1.35-3.52,1.35-.21,0-.56-.15-.56-.33,0-.09,.23-.24,.41-.3,2.08-1.05,3.78-2.55,5.04-4.11,1.85-2.19,3.25-5.61,3.25-8.67,0-1.86-.59-4.26-2.02-5.46-.59-.48-1.41-.66-1.99-.66-1.85,0-3.11,1.98-3.11,3.78,0,2.91,1.52,4.41,3.72,4.41,.82,0,1.35-.33,1.73-.51,.15-.06,.32,.03,.32,.15s-.06,.33-.15,.51c-.06,.15-.18,.33-.53,.63-.82,.72-2.17,1.14-2.9,1.14-2.64,0-4.34-2.16-4.34-4.89,0-1.77,.76-4.11,3.17-5.52,.91-.54,2.23-.81,3.05-.81,3.84,0,5.63,3.66,5.63,7.08Z"/><rect class="d" x=".5" y=".5" width="34.93" height="34.93"/><rect class="d" x="35.43" y=".5" width="34.93" height="34.93"/><rect class="d" x="70.37" y=".5" width="34.93" height="34.93"/><rect class="d" x="105.3" y=".5" width="34.93" height="34.93"/><rect class="d" x="140.24" y=".5" width="34.93" height="34.93"/><rect class="d" x="175.17" y=".5" width="34.93" height="34.93"/><rect class="d" x="210.1" y=".5" width="34.93" height="34.93"/><rect class="d" x="245.04" y=".5" width="34.93" height="34.93"/><rect class="d" x="279.97" y=".5" width="34.93" height="34.93"/><rect class="d" x=".5" y="35.43" width="34.93" height="34.93"/></g></g></g></svg>