<?xml version="1.0" encoding="UTF-8"?><svg xmlns="http://www.w3.org/2000/svg" viewBox="0 0 314.75 105.55"><defs><style>.d{fill:none;stroke:#e20613;stroke-miterlimit:10;}</style></defs><g id="a"/><g id="b"><g id="c"><g><path d="M18.82,8.3c.23,.81,.73,2.16,1.29,3.71,1.52,4.37,3.72,10.3,4.21,11.53,.97,2.46,1.43,2.69,2.75,3.02,.47,.15,.7,.3,.7,.51s-.21,.39-.94,.39c-.97,0-2.4-.15-3.69-.15-.94,0-1.35,.06-2.08,.06s-.91-.21-.91-.36,.18-.39,.7-.48c1.41-.3,1.29-.9,1.17-1.53-.23-1.23-.97-3.2-1.64-5.12-.03-.12-.15-.3-1-.3-1.61,0-4.19,.03-4.8,.12-.12,0-.26,.15-.32,.24-.76,1.95-1.52,4.49-1.52,5.24,0,.36,.12,.87,1.43,1.29,.5,.15,.79,.33,.79,.54,0,.3-.44,.39-.82,.39-.5,0-1.23-.09-2.31-.09s-2.6,.15-3.04,.15c-.53,0-.67-.12-.67-.3s.21-.45,.64-.6c1.46-.51,1.84-.6,2.69-2.54,.67-1.53,4.01-10.57,5.24-13.62,.18-.42,.2-.6,.26-.78,.03-.09,.09-.27,.21-.51,.18-.3,.5-.87,.7-1.2,.21-.24,.32-.39,.47-.39,.12,0,.23,.12,.47,.78Zm.94,9.7c-.5-1.53-2.02-6.02-2.28-6.44-.09-.18-.15-.21-.23,0-.53,1.44-2.05,5.63-2.28,6.56-.03,.12,.03,.21,.15,.21,1.17-.03,3.6,0,4.57-.09,.03,0,.12-.15,.09-.24Z"/><path d="M57.09,16.17c-.09,.03-.03,.21,.06,.24,1.43,.66,3.6,2.04,3.6,4.94,0,2.13-.94,3.5-2.34,4.46-1.41,1.02-3.78,1.38-5.24,1.38-.82,0-3.63-.12-4.98-.12-.67,0-1.38,.03-1.87,.03-.44,0-.85-.12-.85-.39,0-.24,.41-.42,.73-.48,2.08-.39,2.08-.78,2.19-1.83,.09-.63,.23-3.86,.23-9.82,0-2.57-.09-4.28-.18-4.73-.15-.66-.23-.99-1.84-1.2-.38-.06-.76-.24-.76-.48s.38-.39,.79-.39h1.96c.94,0,3.45-.21,4.65-.21,1.73,0,3.25,.3,4.13,.87,1.43,.9,2.08,2.43,2.08,3.77,0,2.33-1.35,3.38-2.37,3.95Zm-1.52,1.59c-.79-.42-2.02-.57-3.1-.57-.67,0-1.23,.15-1.29,.21-.06,.09-.15,.21-.21,.87-.09,1.08-.03,4.97,.12,6.02,.03,.21,.18,.72,.47,.99,.61,.69,1.61,1.02,1.99,1.02,2.46,0,4.45-1.77,4.45-4.64,0-1.8-1.02-3.17-2.43-3.89Zm-2.84-9.25c-.18,0-.94,.12-1.26,.24-.06,.03-.32,.36-.35,.48-.06,.48-.18,1.83-.18,6.65,0,.15,.06,.39,.32,.39,1.29,0,3.4-.27,4.13-.75,.94-.63,1.61-1.83,1.61-3.08,0-2.42-1.55-3.92-4.27-3.92Z"/><path d="M93.99,8.01c.76,.12,1.79,.51,2.22,.57,.15,0,.44,.21,.44,.9,0,.63,.15,1.95,.21,2.6,.03,.63-.21,.99-.44,.99-.15,0-.32-.33-.47-.78-.26-1.05-.82-1.95-1.2-2.25-1.61-1.23-3.1-1.56-4.68-1.56-4.71,0-7.73,3.98-7.73,8.5,0,2.01,.38,3.62,1.02,4.94,1.64,3.44,5.03,4.79,7.4,4.79,.56,0,1.99-.09,3.19-.81,1.29-.69,2.02-1.65,2.72-2.9,.38-.63,.5-.78,.61-.78,.29,0,.32,.66,.26,.99-.09,.75-.76,2.33-1.17,3.02-.12,.27-.61,.63-.91,.78-.47,.21-2.84,.84-5.33,.84-4.13,0-7.14-2.1-8.31-3.5-1.11-1.32-2.46-3.47-2.46-6.89s1.99-6.14,3.22-7.18c2.52-2.1,5.24-2.75,7.93-2.75,1.02,0,2.34,.21,3.45,.48Z"/><path d="M129.51,10.7c1.58,1.56,2.66,4.25,2.66,6.62,0,4.34-2.63,7.48-4.68,8.65-1.73,1.02-4.16,1.68-6.97,1.68-1.2,0-3.8-.09-5.74-.24-.56-.03-1.08-.03-1.55-.03-.67,0-.94-.21-.94-.45s.29-.39,.64-.42c2.02-.24,2.17-.81,2.25-3.17,.06-1.41,.09-2.33,.09-4.1s-.06-5.24-.15-7.69c-.06-1.92-.09-2.33-1.87-2.6-.32-.06-.67-.27-.67-.48,0-.24,.26-.39,.7-.39h.82c1.46,0,4.77-.27,7.29-.27,4.1,0,6.94,1.8,8.11,2.9Zm-11.41-1.74c-.21,.15-.26,.21-.29,.39-.06,.36-.12,3.02-.12,5.69v4.34c0,2.1,.03,3.86,.12,5.18,.09,.93,.56,1.35,.64,1.41,.56,.42,1.76,.78,2.4,.78,1.35,0,3.83-.54,5.47-1.95,1.76-1.53,3.01-4.13,3.01-7.48,0-2.58-1.26-5.39-3.13-6.83-1.46-1.11-3.92-1.77-6.09-1.77-1.05,0-1.76,.09-2.02,.24Z"/><path d="M158.56,8.06c.97,0,2.25-.03,2.69-.09,.09-.03,.23,.18,.26,.33,0,1.38,.06,2.25,.06,2.84,0,.42-.18,.78-.44,.78s-.41-.42-.47-.72c-.38-1.59-1.02-1.89-1.96-2.04-.76-.12-2.87-.18-4.16-.12-.06,0-.38,.15-.44,.84-.06,.75-.15,6.38-.09,6.83,.03,.12,.06,.3,.21,.3h1.9c2.75,0,2.87-.12,3.39-1.5,.18-.45,.35-.63,.53-.63,.21,0,.26,.42,.23,.66-.06,.84-.09,1.44-.09,2.16,0,.81,.06,1.23,.09,1.83,.03,.54-.12,.87-.32,.87s-.41-.33-.5-.66c-.41-1.38-.53-1.47-2.31-1.56-.94-.06-2.11-.06-2.9-.06-.12,0-.26,.21-.26,.27-.12,.63-.09,3.41-.09,4.7,0,.87,.12,2.01,.29,2.49,.12,.36,.35,.6,.56,.66,.5,.09,1.49,.21,2.66,.21,.35,0,2.14-.03,2.78-.21,.94-.24,1.73-.81,2.43-2.21,.32-.66,.5-.84,.67-.84,.21,0,.29,.48,.23,.81-.03,.24-.85,2.93-1.05,3.2-.09,.12-.35,.36-.5,.36-.32,0-4.74-.24-9.51-.24-1.55,0-2.2,.15-3.31,.15-.56,0-.88-.06-.88-.39,0-.21,.35-.36,.82-.48,1.46-.36,2.02-.57,2.14-2.19,.09-1.26,.23-4.79,.23-8.5s.03-4.19-.03-5.06c-.06-1.32-.35-1.68-1.64-1.98-.62-.15-.85-.27-.85-.51,0-.27,.41-.42,.82-.42,1.38,0,2.52,.12,4.48,.12h4.3Z"/><path d="M194.37,8.06c1.76,0,4.45-.09,4.68-.09,.15-.03,.35,.12,.35,.3-.06,.87,.06,1.92,.09,2.93,.03,.39-.15,.81-.41,.81-.23,0-.47-.33-.64-.93-.47-1.47-.79-1.74-1.76-1.89-1-.15-3.92-.12-4.54-.06-.29,.03-.47,.3-.47,.39-.06,.72-.12,4.64-.12,6.62,0,.81,.15,1.11,.29,1.11,1.14,0,3.51,.03,4.21-.03,.91-.09,1.17-.36,1.58-1.38,.18-.42,.29-.72,.56-.72,.21,0,.26,.3,.26,.66,0,.39-.15,1.35-.15,1.89,0,1.44,.06,1.71,.06,2.37,0,.33-.15,.69-.44,.69-.15,0-.32-.21-.44-.63-.29-1.14-.64-1.29-1.2-1.44-.32-.06-1.38-.15-1.96-.15-.56,0-1.96,0-2.58,.09-.09,0-.21,.24-.23,.36-.03,.57,.09,4.76,.12,5.63,.03,.93,.09,1.53,1.99,1.89,.44,.09,.7,.3,.7,.57,0,.18-.26,.36-.82,.36-.76,0-1.67-.09-2.78-.09-1.17,0-2.87,.18-3.48,.18s-.82-.12-.82-.3c0-.24,.32-.48,.79-.6,1.58-.39,1.64-1.08,1.67-1.47,.09-.93,.23-3.14,.23-9.07,0-2.81,0-4.58-.06-5.36-.06-1.02-.56-1.53-1.84-1.86-.58-.15-.73-.3-.73-.51,0-.24,.35-.36,.82-.36,1.29,0,2.34,.09,3.25,.09h3.8Z"/><path d="M234.13,8.18c.58,.12,.79,.15,1.11,.24,.12,0,.35,.24,.35,.72,.03,.72,.41,2.16,.41,3.29,0,.39-.18,.66-.38,.66-.18,0-.35-.24-.53-.69-.29-.81-.67-1.53-1.11-2.1-.64-.81-2.34-1.86-4.68-1.86-5,0-7.96,4.19-7.96,8.92,0,2.13,.47,4.01,1.32,5.45,1.55,2.69,4.36,4.13,7.08,4.13,.35,0,1.82-.18,2.63-.72,.23-.15,.61-1.17,.61-1.56,0-1.05-.03-2.75-.09-3.11-.21-.69-.44-1.26-2.63-1.41-.44-.03-.76-.27-.76-.51,0-.21,.32-.42,.88-.42,.53,0,2.66,.12,3.51,.12,.7,0,1.7-.12,2.63-.12,.47,0,.79,.15,.79,.39,0,.21-.32,.39-.67,.51-.88,.27-.94,.6-1.05,.93s-.15,2.48-.15,3.71c0,.48,.26,.78,.41,.87,.53,.3,.5,.39,.5,.54,0,.12-.12,.33-.44,.42-.53,.15-1.52,.39-2.66,.72-1.26,.36-3.07,.54-4.04,.54-3.28,0-6-1.08-7.79-2.72-1.35-1.32-3.01-3.77-3.01-7.36,0-2.67,.91-5.39,3.31-7.54,1.84-1.68,4.65-2.69,7.49-2.69,2.14,0,3.69,.39,4.92,.66Z"/><path d="M256.79,16.93c1.73,0,5.71-.09,10.89-.09,.18,0,.26-.18,.32-.78,.03-.39,.03-4.28-.06-5.45-.09-1.11-.29-1.35-1.61-1.71-.41-.12-.73-.3-.73-.57,0-.21,.29-.33,.91-.33,.38,0,2.25,.06,2.98,.06,1,0,2.34-.09,2.66-.09,.47,0,.82,.09,.82,.33,0,.18-.23,.39-.85,.54-1.23,.3-1.46,.84-1.52,1.71-.15,1.53-.23,4.76-.23,9.85,0,1.32,.12,3.98,.12,4.43,.06,1.17,.35,1.29,1.67,1.68,.41,.15,.67,.36,.67,.57,0,.24-.26,.33-.82,.33-.47,0-1.52-.09-2.43-.09-.64,0-2.84,.18-3.42,.18-.44,0-.73-.06-.73-.33s.32-.45,.64-.54c1.58-.48,1.73-.81,1.81-2.93,.06-1.26,.12-3.32,.12-4.82,0-.54-.12-.63-.35-.63-4.54,0-10.3-.09-10.89-.03-.09,0-.32,.27-.32,.51-.06,.78,0,4.61,0,5.48,.03,1.41,.35,1.95,1.58,2.33,.64,.18,.85,.3,.88,.6,.03,.24-.47,.3-.85,.3-.21,0-1.99-.12-3.04-.12-.67,0-1.9,.12-2.9,.12-.64,0-.88-.12-.88-.3,0-.3,.35-.48,.67-.57,1.49-.39,1.73-.69,1.84-1.86,.09-1.23,.26-4.61,.26-9.49,0-.54,.06-3.29,0-4.61-.06-1.02-.23-1.44-1.46-1.71-.62-.12-.82-.33-.82-.57,0-.21,.38-.33,.85-.33,.82,0,1.9,.06,2.66,.06,1.23,0,2.11-.06,2.78-.06,.61,0,.94,.15,.94,.33,0,.3-.23,.45-.85,.57-1.38,.27-1.46,.72-1.55,1.98-.09,.99-.12,4.94-.09,5.45,.03,.57,.12,.6,.32,.6Z"/><path d="M296.68,11c-.09-1.38-.09-1.83-1.73-2.12-.64-.12-.82-.33-.82-.54,0-.24,.32-.36,.73-.36,.76,0,2.22,.09,3.19,.09,1.43,0,2.11-.09,3.13-.09,.47,0,.73,.12,.73,.36s-.29,.42-.76,.51c-1.7,.36-1.67,1.11-1.79,1.92-.15,.99-.18,2.93-.18,8.8,0,1.65,.03,3.5,.09,4.46,.09,1.62,.23,2.19,2.14,2.57,.53,.09,.76,.3,.76,.51,0,.24-.44,.39-.79,.39-1.49,0-3.57-.18-4.36-.18-.88,0-1.14,.06-2.22,.06-.56,0-.76-.21-.76-.42s.29-.39,.88-.51c1.46-.33,1.58-.78,1.7-2.19,.09-1.05,.15-4.16,.15-6.71,0-1.86-.03-5.57-.09-6.56Z"/><path d="M11.83,66.17c.09-.09,.56-.39,.7-.39,.12,0,.7,.21,.91,.36,.56,.36,1.11,.63,1.52,.63,.5,0,.76-.09,1.17-.57,.47-.51,.73-1.23,.82-2.48,.12-1.86,.18-5.09,.18-9.34s-.06-7.37-.18-8.8c-.06-.6-.23-1.35-1.73-1.62-.67-.12-.91-.33-.91-.57s.23-.36,.79-.36c.91,0,1.96,.09,3.25,.09,1.02,0,2.17-.09,3.07-.09,.35,0,.79,.06,.79,.3,0,.3-.26,.48-.88,.6-1.17,.24-1.67,.66-1.67,2.19,0,2.45-.12,10.99-.12,13.56-.03,3.62-1.67,6.26-3.16,7.42-1.35,1.05-2.58,1.44-3.34,1.44-.97,0-1.9-.6-1.9-1.17,0-.27,.38-.9,.67-1.2Z"/><path d="M45.91,42.75c.7,0,1.93,.09,2.87,.09,.88,0,2.02-.06,2.72-.06,.5,0,.79,.09,.79,.36,0,.24-.38,.39-.85,.51-1,.21-1.35,.48-1.41,1.65-.09,1.14-.09,6.02-.03,6.44,.03,.12,.09,.21,.21,.21s.41-.21,.44-.21c.94-.72,5.62-5.42,6.53-6.47,.76-.87,.64-1.35-.32-1.62-.35-.12-.67-.21-.67-.45,0-.27,.32-.39,.76-.39,.56,0,.58,.03,1.11,.03,.7,0,3.51-.15,4.33-.15,.53,0,.76,.12,.76,.36,0,.18-.35,.42-.79,.54-1.67,.36-2.37,.84-4.24,2.31-1.38,1.11-5.18,4.7-5.53,5.27-.06,.18-.09,.21,0,.3,.64,.84,5.65,6.08,7.84,8.38,1.35,1.38,2.02,1.44,3.07,1.62,.32,.09,.58,.3,.58,.42,0,.3-.41,.45-.73,.45-.79,0-3.48-.24-4.27-.24-1.05,0-1.38,.03-2.05,.03-.41,0-.61-.33-.61-.54,0-.15,.12-.27,1.26-.51,.12-.03,.21-.21,.15-.3-.88-1.14-4.83-5.42-6.35-7-.79-.87-1.08-1.26-1.32-1.26-.15,0-.12,.39-.15,.63-.06,.57,.03,5.42,.06,6.53,.03,.78,.44,1.23,1.76,1.59,.53,.12,.67,.33,.67,.54,0,.24-.29,.39-.76,.39-.64,0-2.69-.09-3.6-.09s-1.9,.09-2.84,.09c-.32,0-.7-.18-.7-.39,0-.27,.23-.36,.85-.51,1.43-.3,1.99-.72,2.08-2.48,.03-1.02,.09-3.83,.09-7.07,0-4.79-.06-5.33-.12-6.41-.06-1.05-.44-1.38-1.61-1.68-.67-.18-.76-.36-.76-.51,0-.27,.35-.39,.79-.39Z"/><path d="M82.08,43.06c.79,0,1.32,.06,2.17,.06,1.14,0,3.13-.09,3.83-.09,.53,0,.73,.12,.73,.33s-.23,.39-.67,.51c-1.7,.39-1.9,.72-1.96,1.17-.18,1.35-.18,4.37-.18,8.8,0,2.33,.09,5.21,.21,6.2,.06,.42,.76,1.11,1,1.14,.76,.12,1.84,.15,2.81,.15,.82,0,1.64-.03,2.08-.09,.23-.03,.58-.03,1.17-.57,.41-.42,.88-.87,1.67-2.01,.32-.54,.58-.66,.73-.66s.23,.33,.12,.81c-.47,1.47-.67,2.1-.91,3.23-.03,.33-.58,.51-.7,.51-.35,0-3.01-.18-8.96-.18-1.99,0-3.37,.15-3.78,.15-.56,0-.85-.06-.85-.33,0-.21,.23-.45,.7-.54,1.61-.33,2.02-.9,2.17-2.07,.06-.75,.15-5.51,.15-9.85,0-1.2,0-3.26-.03-4.25-.03-.66-.18-1.23-1.55-1.5-.59-.12-.82-.36-.82-.57s.23-.36,.88-.36Z"/><path d="M112.77,43.06c1.9,0,2.22,.06,3.92,.06,.06,0,.29,.24,.32,.39,.35,1.11,.53,1.44,1.11,2.72,1.64,3.53,5.03,10.72,5.44,11.29,.06,.09,.23,.18,.29,.09,.26-.51,5.74-11.08,6.2-12.33,.03-.12,.5-1.14,.67-1.74,.03-.15,.26-.42,.32-.42,1.05,0,3.42-.09,3.69-.09,.38,0,.76,.06,.76,.33,0,.21-.23,.39-.76,.48-.47,.09-.88,.21-1.32,.39-.44,.18-.91,.75-.91,2.31,0,8.32,.32,12.12,.41,12.96,.18,1.35,.5,1.65,1.9,2.07,.53,.12,.79,.36,.79,.57,0,.24-.41,.39-.85,.39-.32,0-2.58-.15-3.66-.15-.56,0-1.52,.09-2.22,.09-.32,0-.79-.12-.79-.42,0-.27,.35-.42,.76-.54,1.2-.36,1.26-1.05,1.35-2.16,.12-1.35,.06-10.03-.03-11.56,0-.21-.12-.39-.29-.09-.32,.57-3.6,7.16-4.74,9.61-.7,1.56-1.38,3.11-1.81,4.28-.32,.87-.47,.84-.67,.84-.18,0-.35-.24-.44-.57-.21-.75-.53-1.74-1.08-3.17-1.58-3.95-3.98-8.68-5.06-11.23-.09-.21-.18-.24-.21,.09-.23,1.26-.56,8.8-.47,11.56,.06,1.53,.29,1.95,1.79,2.43,.64,.18,.79,.3,.79,.57,0,.24-.32,.36-.79,.36-.94,0-2.17-.09-2.93-.09-.7,0-1.61,.09-2.34,.09-.44,0-.76-.09-.76-.42,0-.12,.21-.33,.59-.42,1.81-.54,1.99-1.05,2.22-2.75,.29-2.07,.94-10.69,1-12.93,0-.24-.06-1.38-1.32-1.74-.5-.15-.88-.27-1.26-.36-.21-.06-.47-.27-.47-.48,0-.3,.2-.3,.85-.3Z"/><path d="M149.14,43.03c.64,0,2.08,.09,3.57,.09,.18,0,.44,.21,.61,.39,.44,.54,1.17,1.44,2.31,2.96,1.32,1.71,7.75,8.89,9.72,11.08,.18,.18,.29-.12,.29-.21,.15-.96,.06-4.19,.06-8.5,0-1.02-.06-2.07-.15-2.99-.03-.63-.23-1.35-1.84-1.83-.58-.18-.79-.42-.79-.66,0-.21,.41-.27,.76-.27,.76,0,1.58,.03,2.52,.03,1.05,0,1.99-.12,2.75-.12,.5,0,.67,.09,.67,.33,0,.18-.18,.45-.7,.6-1.26,.3-1.79,.57-1.87,2.19-.06,1.08-.32,6.98-.32,12.12,0,1.26,.2,3.5,.2,3.98,0,.3-.15,.63-.41,.63-.41,0-1.05-.6-1.32-.96-.5-.63-1.02-1.41-1.81-2.4-2.75-3.35-7.81-9.19-10.45-12.42-.12-.15-.32-.09-.32,.06-.03,.81-.12,1.65-.15,3.98,0,2.69-.09,7.3-.03,8.23,.12,1.38,.44,1.83,1.84,2.25,.61,.15,.73,.36,.73,.54,0,.3-.38,.39-.94,.39-.85,0-2.08-.15-3.13-.15-.64,0-1.41,.06-1.9,.06-.41,0-.76-.03-.76-.33,0-.24,.29-.42,.59-.51,1.38-.48,1.93-.6,2.05-2.81,.15-2.42,.56-9.61,.56-12.09,0-1.08-.15-1.35-.21-1.44-.82-.99-1.14-1.02-2.46-1.38-.32-.09-.64-.24-.64-.48s.29-.36,.97-.36Z"/><path d="M202.95,52.49c0,4.19-2.02,7.13-4.16,8.68-1.84,1.32-4.27,1.74-5.77,1.74-2.99,0-5.82-1.32-7.61-3.41-1.55-1.77-2.43-4.19-2.43-6.77,0-3.68,1.58-6.23,3.8-8.05,1.43-1.2,3.95-2.1,6-2.1,5.62,0,10.16,4.22,10.16,9.91Zm-14.84-7.21c-1.29,1.29-2.28,3.53-2.28,7.04,0,4.46,3.22,9.58,7.9,9.58,2.43,0,3.54-1.08,3.86-1.44,1.17-1.08,2.49-3.5,2.49-7.07,0-3.26-1.38-6.41-3.54-8.2-1.2-.99-3.04-1.62-4.39-1.62-1.23,0-3.01,.66-4.04,1.71Z"/><path d="M226.44,43.75c-.32,0-.61,.12-.85,.27-.12,.09-.26,.45-.29,1.17-.03,.63-.03,4.34-.06,7.78,0,2.72,.06,5.21,.06,5.96,.03,1.95,.26,2.18,1.76,2.63,.56,.15,.79,.3,.79,.57s-.53,.36-.97,.36c-.73,0-1.79-.12-3.07-.12-.85,0-2.05,.12-2.96,.12-.5,0-.82-.15-.82-.42,0-.21,.29-.39,.58-.48,1.64-.36,1.96-.96,2.05-2.19,.09-1.47,.15-3.92,.15-5.42,0-.99-.06-7.33-.09-8.29-.03-1.08,0-1.5-1.64-1.74-.59-.09-.91-.27-.91-.45,0-.24,.29-.39,.67-.42,.21-.03,.7,0,.97,0,1.17,0,3.42-.24,4.89-.24,2.66,0,4.39,.72,5.47,1.77,1.4,1.38,1.7,3.08,1.7,4.07,0,2.66-1.2,3.89-2.05,4.64-.76,.66-2.11,1.32-3.37,1.32-.32,0-1.08-.03-1.55-.21-.35-.15-.5-.3-.5-.48,0-.12,.12-.27,.35-.27h.73c1.55,0,3.72-1.41,3.72-4.85,0-2.72-2.02-5.09-4.77-5.09Z"/><path d="M271.66,51.53c0,3.47-1.32,5.81-3.07,7.49-.97,.93-2.81,2.09-4.18,2.54-.09,.03-.15,.18-.06,.3,.5,.66,2.37,2.1,3.63,2.9,1.96,1.26,3.66,1.92,5.12,1.92,.91,0,1.55-.21,2.02-.3,.18-.03,.38,.06,.38,.21s-.21,.48-.44,.66c-.7,.57-2.02,1.02-3.07,1.02-2.17,0-4.42-.9-6.44-2.25-1.02-.63-2.43-1.68-4.21-3.08-1.38-1.08-2.58-1.56-3.31-1.8-3.78-1.26-6.29-5.09-6.29-9.25,0-3.8,1.73-6.65,3.98-8.29,1.52-1.11,3.63-1.98,6.15-1.98,5.3,0,9.8,4.28,9.8,9.91Zm-14.14-7.69c-1.96,1.59-2.96,3.89-2.96,7.78,0,2.16,.82,4.55,2.25,6.35,1.26,1.68,3.98,2.9,5.24,2.9,1.7,0,2.81-.45,3.66-1.02,1.96-1.41,3.13-4.7,3.13-7.28,0-3.11-1.14-6.02-3.07-7.84-1.23-1.23-3.28-2.07-4.95-2.07-1.05,0-2.31,.36-3.31,1.17Z"/><path d="M301.18,52.16c-.15,.09-.7,.36-.91,.51-.09,.06-.18,.33-.12,.45,.29,.72,2.75,4.76,4.54,6.8,.79,.96,1.58,1.5,2.87,1.77,.23,.06,.47,.3,.47,.42,0,.18-.23,.3-.41,.39-.35,.15-1,.21-1.61,.21-1.38,0-3.04-.84-3.89-1.95-1.02-1.44-2.52-3.74-3.69-5.63-.41-.63-1-1.38-1.17-1.5-.12-.12-1.2-.39-2.08-.39-.21,0-.35,.27-.35,.36-.03,.51,.03,4.31,.12,6.05,.06,1.26,.38,1.68,1.76,2.01,.5,.15,.7,.36,.7,.51,0,.3-.56,.39-.7,.39-1.23,0-1.79-.18-3.77-.18-.53,0-2.05,.12-2.37,.12-.38,0-.76-.12-.76-.42,0-.24,.26-.3,.64-.45,1.29-.42,1.81-.6,1.9-1.74,.06-.93,.18-4.1,.18-5.9,0-4.61-.06-7.33-.18-8.5-.12-1.11-.38-1.17-1.7-1.5-.44-.12-.7-.27-.7-.51,0-.21,.15-.36,.79-.36h1.64c1.08,0,3.16-.15,4.74-.15,2.02,0,3.6,.27,4.77,1.26,.97,.81,1.67,2.31,1.67,3.74,0,1.62-.94,3.29-2.37,4.19Zm-1.55-7.12c-.7-.69-1.96-1.14-2.9-1.14-.15,0-1.08,.06-1.4,.21-.15,.06-.35,.51-.35,.63-.09,1.05-.17,6.83-.09,7.33,.06,.24,.29,.45,.47,.45,1.7,0,3.25-.51,3.66-.78,.79-.51,1.93-1.83,1.93-3.71,0-.72-.47-2.13-1.32-2.99Z"/><path d="M59.52,78.12c1.05-.06,1.58-.24,1.99-.54,.21-.12,.29-.18,.41-.18,.15,0,.26,.27,.12,.69-.29,.93-.47,1.89-.64,3.44-.03,.27-.26,.57-.5,.57-.21,0-.32-.21-.41-.96-.18-1.56-.56-1.71-2.37-1.8-.5-.03-3.75-.03-4.1,.06-.15,.03-.26,.33-.26,.39v7.33c0,3.47,0,6.32,.12,7.42,.15,1.35,.29,1.71,2.11,2.13,.38,.09,.79,.33,.79,.54,0,.33-.53,.36-.82,.36-.23,0-2.05-.15-3.34-.15-1.46,0-2.96,.21-3.34,.21-.58,0-.88-.18-.88-.36,0-.21,.29-.45,.56-.51,2.05-.48,2.11-.99,2.2-3.23,.06-1.77,.21-7.87,.21-10.18v-3.56c0-.24-.15-.39-.23-.39-.58-.09-3.16-.15-3.63-.15-1.11,0-1.73,.18-2.17,.69-.12,.09-.47,.57-.97,1.56-.26,.63-.44,.6-.56,.6-.18,0-.29-.39-.29-.69,0-.57,.56-2.22,.56-3.98,0-.18,.26-.48,.44-.48,.15,0,.15,.21,.47,.48,.09,.09,.56,.54,1,.57,.76,.09,3.1,.18,6.85,.18,1.52,0,5.5-.03,6.7-.06Z"/><path d="M20.63,77.38c.18,.06,.35,.51,.35,.57,.06,.57,.29,2.31,.29,2.43,0,.51,0,.81-.21,.81-.23,0-.58-.21-.7-.63-.35-1.08-1.14-1.98-1.43-2.16-.53-.42-1.23-.69-2.08-.69-1.96,0-3.37,1.5-3.37,3.5,0,2.13,1.49,3.05,4.07,4.82,2.25,1.56,4.04,3.11,4.04,5.81,0,1.5-.82,3.17-2.4,4.22-.94,.63-2.66,1.08-3.98,1.08-.94,0-2.93-.33-3.83-.78-.29-.18-.67-.84-.67-.96-.15-1.02-.44-2.33-.44-2.81,0-.12,.29-.57,.41-.57,.23,0,.67,.78,1.08,1.71,.76,1.65,2.69,2.4,3.8,2.4,2.02,0,3.54-1.47,3.54-3.62,0-1.26-.58-2.6-3.66-4.61-2.49-1.65-4.24-3.38-4.24-5.93,0-1.41,.61-2.75,1.61-3.65,.91-.84,2.28-1.47,4.33-1.47,1.43,0,2.96,.45,3.48,.54Z"/><path d="M79.1,77.81c1.23,0,1.93,.09,3.01,.09s2.19-.06,2.84-.06c.56,0,.91,.09,.91,.33s-.32,.45-.88,.57c-1.05,.21-1.61,.51-1.79,1.71-.15,.99-.12,4.1-.12,8.35,0,3.38,.73,4.67,1.64,5.72,.82,.93,2.72,1.65,4.24,1.65,1.9,0,4.74-.9,5.47-4.19,.35-1.59,.64-4.1,.64-7.51,0-1.95-.09-3.5-.12-3.86-.09-1.14-.29-1.56-1.93-1.95-.29-.06-.61-.33-.61-.54,0-.18,.18-.3,.67-.3,.73,0,1.55,.09,2.49,.09,1.2,0,1.81-.06,2.63-.06,.47,0,.73,.09,.73,.33,0,.18-.23,.39-.64,.54-1.26,.36-1.84,.87-1.9,2.75-.03,1.29-.2,4.61-.26,6.17-.15,5.21-1.55,7.84-3.66,9.04-1.35,.78-2.93,.96-4.21,.96-2.63,0-4.59-1.11-5.3-1.77-1.64-1.59-2.34-3.77-2.34-8.8,0-4.31-.09-6.71-.12-7.1-.06-.57-.47-1.05-1.58-1.29-.35-.09-.67-.24-.67-.51,0-.24,.38-.36,.85-.36Z"/><path d="M115.52,78.03c.58,0,1.64,.15,3.07,.15,1.02,0,2.22-.06,2.9-.06,.38,0,.7,.15,.7,.36s-.15,.45-.7,.54c-1.55,.3-1.49,.96-1.38,1.44,.5,1.56,3.66,9.94,4.71,12.51,.06,.06,.21,.24,.29,.03,.23-.63,3.42-8.32,4.74-11.56,.7-1.68-.09-2.04-1.35-2.43-.41-.12-.64-.36-.64-.54,0-.21,.38-.36,.85-.36,.67,0,1.35,.06,2.34,.06,.85,0,2.02-.12,2.63-.12,.41,0,.85,.12,.85,.39,0,.24-.35,.42-.76,.51-1.29,.33-1.93,1.05-2.55,2.37-1.35,2.99-2.08,4.28-3.86,8.8-1.7,4.22-2.08,4.97-2.75,7.25-.12,.33-.32,.66-.61,.66-.18,0-.41-.21-.47-.54-.18-.87-.67-2.69-1.52-4.88-1-2.72-3.78-9.97-4.21-11.05-.59-1.5-1.2-2.25-2.49-2.63-.35-.12-.67-.24-.67-.51,0-.24,.44-.39,.88-.39Z"/><path d="M143.16,78.09c1.29,0,1.93,.09,3.13,.09,.67,0,2.2-.09,2.46-.09,.56,0,.73,.15,.73,.36s-.17,.39-.79,.57c-1,.27-1.08,.69-.91,1.2,.59,1.47,3.75,9.1,5.74,13.47,.03,.09,.18,.12,.23,.03,.23-.39,1.55-3.08,2.52-5.3,.03-.06,.06-.27-.03-.42-1.11-2.72-2.46-5.81-2.81-6.59-.85-1.83-1.02-2.07-2.17-2.4-.53-.15-.73-.36-.73-.54,0-.24,.41-.33,.85-.33,.38,0,1.46,.03,2.4,.03,1.35,0,2.49-.09,2.78-.09,.38,0,.73,.12,.73,.33,0,.27-.23,.48-.7,.57-1.26,.24-1.32,.48-.91,1.44,.26,.69,1.02,2.46,2.11,4.91,.03,.09,.17,.06,.23,0,.7-1.47,1.26-2.72,1.84-4.1,.73-1.65,.29-2.01-.91-2.31-.35-.09-.61-.33-.61-.45,0-.21,.18-.36,.85-.36,.53,0,1.08,.06,2.05,.06,.88,0,1.9-.06,2.4-.06,.38,0,.64,.09,.64,.3,0,.3-.23,.42-.82,.57-1.05,.27-1.46,.66-2.28,2.16-.29,.51-1.08,1.92-2.78,5.33-.03,.09,.03,.45,.09,.51,1.05,2.54,2.37,5.48,2.93,6.53,.06,.18,.18,.27,.32,0,1.26-2.75,3.63-8.2,5.36-12.21,.56-1.38,.41-1.95-.94-2.33-.38-.12-.67-.3-.67-.48,0-.27,.26-.36,.76-.36,.67,0,1.43,.06,1.99,.06,.88,0,1.87-.09,2.78-.09,.5,0,.76,.12,.76,.33,0,.24-.21,.42-.73,.54-1.14,.24-1.7,.66-2.52,2.28-.35,.72-2.28,4.4-4.21,8.86-1.99,4.64-2.17,5.06-2.96,7.07-.12,.3-.41,.75-.67,.75-.15,0-.38-.12-.53-.63-.44-1.65-2.08-5.12-3.13-7.63-.06-.09-.17-.15-.23-.06-.91,1.95-2.63,5.48-3.4,7.75-.12,.33-.5,.69-.67,.69-.23,0-.35-.12-.53-.57-.29-.84-.67-2.01-1.81-4.76-1.08-2.69-3.83-9.22-4.89-11.32-.76-1.44-.85-2.1-2.34-2.42-.35-.06-.76-.27-.76-.54,0-.15,.29-.33,.76-.33Z"/><path d="M184.07,78.03c.56,0,2.52,.15,3.54,.15,1.14,0,1.67-.06,2.52-.06,.35,0,.7,.09,.7,.33,0,.21-.12,.36-.67,.51-.61,.18-.91,.51-.56,1.14,.88,1.62,3.22,5.39,3.69,5.87,.09,.09,.26,.12,.29,.06,1-1.14,3.48-4.58,3.98-5.54,.47-.93-.09-1.23-1.14-1.47-.56-.12-.73-.36-.73-.51,0-.24,.29-.39,.85-.39,.88,0,1.81,.06,2.6,.06,.7,0,2.4-.09,3.07-.09,.35,0,.7,.15,.67,.33,0,.24-.32,.45-.64,.54-1.55,.3-2.49,.87-3.6,2.22-1.02,1.23-3.1,3.65-4.54,5.69-.03,.06-.03,.27,0,.36,.17,.48,3.75,5.87,4.39,6.8,1.14,1.59,1.55,2.16,3.51,2.67,.47,.12,.7,.39,.7,.57,0,.21-.23,.36-.88,.36-1.05,0-2.28-.18-4.1-.18-.82,0-2.08,.12-2.43,.12-.53,0-.73-.21-.73-.39,0-.24,.15-.36,.64-.51,.44-.12,.85-.21,1.11-.39,.12-.09,.26-.33,.15-.54-.76-1.32-3.66-5.96-4.01-6.29-.06-.06-.2-.18-.29-.09-.97,1.2-2.37,3.08-3.22,4.37-1.38,2.16-.94,2.45,.23,2.9,.5,.18,.7,.3,.7,.51,0,.27-.35,.39-.73,.39-.73,0-2.08-.09-3.01-.09-1.2,0-2.37,.15-3.04,.15-.53,0-.76-.12-.76-.33,0-.27,.26-.54,1.11-.69,1.38-.27,2.72-1.2,3.42-2.01,1.26-1.41,2.84-3.32,4.65-5.9,.15-.21,.15-.33,.09-.42-.23-.6-3.22-5.39-4.71-7.49-.73-1.02-1.84-1.59-2.9-1.83-.56-.12-.79-.33-.79-.54,0-.18,.15-.36,.85-.36Z"/><path d="M221.08,78.03c.44,0,1.96,.15,3.34,.15,.82,0,1.05-.06,2.22-.06,.47,0,.64,.12,.64,.3,0,.21-.2,.48-.64,.6-1.05,.24-.85,.6-.44,1.38,.35,.69,2.52,4.37,3.83,6.56,.06,.09,.23,.06,.29-.06,.82-1.2,3.04-4.94,3.78-6.17,.62-1.08,.29-1.44-.85-1.71-.44-.12-.61-.39-.61-.6s.35-.27,.67-.27c.76,0,1.23,.03,1.9,.03,1.08,0,2.78-.12,3.25-.12,.32,0,.61,.12,.61,.3,0,.24-.26,.39-.76,.54-1.38,.36-2.22,1.11-3.19,2.33-1.38,1.77-2.9,4.4-3.89,5.87-.32,.48-.73,1.44-.73,1.83,0,1.68,.06,5.39,.18,6.35,.12,.63,.44,.99,2.08,1.41,.58,.15,.79,.33,.79,.54,0,.24-.29,.33-.88,.33-.44,0-1.87-.12-2.55-.12-1.76,0-3.66,.18-4.1,.18-.5,0-.73-.15-.73-.33s.2-.42,.82-.54c1.58-.36,1.87-1.02,1.9-1.44,.09-1.23,.09-4.46,.09-6.2,0-.15-.18-.84-.26-1.08-.5-1.08-2.31-4.1-3.72-6.29-1.38-2.1-1.73-2.51-3.01-2.81-.56-.12-.82-.36-.82-.6,0-.18,.29-.3,.79-.3Z"/><path d="M269.42,78.09c.35-.03,.5,.03,.5,.15s-.06,.39-.32,.75c-.38,.39-1.35,1.83-2.6,3.65-2.96,4.55-7.46,11.79-8.22,12.99-.09,.12-.03,.3,.12,.39,.29,.18,2.63,.33,4.36,.33,1.02,0,3.19,0,3.72-.09,1.4-.18,1.84-.33,3.63-2.87,.35-.48,.5-.78,.76-.78,.18,0,.26,.27,.26,.66,0,.48-.61,1.89-1.46,3.8-.15,.27-.44,.51-1.7,.51-2.31,0-9.07-.12-10.42-.12h-2.78c-.2,0-.5-.18-.5-.42s.61-.96,1.26-1.89c1.08-1.44,9.16-14.01,9.86-15.33,.15-.24,0-.39-.12-.42-1.11-.12-4.13-.15-5.3-.15-.5,0-1.73,.06-2.14,.15-.88,.21-1.79,.69-2.63,2.28-.23,.48-.47,.66-.64,.66s-.41-.27-.18-1.02c.09-.3,.88-2.25,1.17-3.56,.03-.21,.2-.36,.38-.36,.09,0,.35,.12,.47,.24,.32,.36,.67,.42,1.46,.48,.79,.03,2.81,.06,4.62,.06,2.2,0,5.79-.03,6.44-.09Z"/><rect class="d" x=".6" y=".5" width="34.85" height="34.85"/><rect class="d" x="35.45" y=".5" width="34.85" height="34.85"/><rect class="d" x="70.3" y=".5" width="34.85" height="34.85"/><rect class="d" x="105.15" y=".5" width="34.85" height="34.85"/><rect class="d" x="140" y=".5" width="34.85" height="34.85"/><rect class="d" x="174.85" y=".5" width="34.85" height="34.85"/><rect class="d" x="209.7" y=".5" width="34.85" height="34.85"/><rect class="d" x="244.55" y=".5" width="34.85" height="34.85"/><rect class="d" x="279.4" y=".5" width="34.85" height="34.85"/><rect class="d" x=".6" y="35.35" width="34.85" height="34.85"/><rect class="d" x="35.45" y="35.35" width="34.85" height="34.85"/><rect class="d" x="70.3" y="35.35" width="34.85" height="34.85"/><rect class="d" x="105.15" y="35.35" width="34.85" height="34.85"/><rect class="d" x="140" y="35.35" width="34.85" height="34.85"/><rect class="d" x="174.85" y="35.35" width="34.85" height="34.85"/><rect class="d" x="209.7" y="35.35" width="34.85" height="34.85"/><rect class="d" x="244.55" y="35.35" width="34.85" height="34.85"/><rect class="d" x="279.4" y="35.35" width="34.85" height="34.85"/><rect class="d" x="35.41" y="70.2" width="34.85" height="34.85"/><rect class="d" x=".5" y="70.2" width="34.85" height="34.85"/><rect class="d" x="70.26" y="70.2" width="34.85" height="34.85"/><rect class="d" x="105.11" y="70.2" width="34.85" height="34.85"/><rect class="d" x="139.97" y="70.2" width="34.85" height="34.85"/><rect class="d" x="174.82" y="70.2" width="34.85" height="34.85"/><rect class="d" x="209.67" y="70.2" width="34.85" height="34.85"/><rect class="d" x="244.52" y="70.2" width="34.85" height="34.85"/></g></g></g></svg>