<?xml version="1.0" encoding="UTF-8"?><svg xmlns="http://www.w3.org/2000/svg" viewBox="0 0 314.93 105.61"><defs><style>.d{fill:none;stroke:#e20613;stroke-miterlimit:10;}</style></defs><g id="a"/><g id="b"><g id="c"><g><path d="M17.01,13.7c.15,1.02,.29,1.47,.35,1.59,.38,1.11,2.87,7.55,3.6,9.2,.62,1.5,.85,1.74,2.11,2.07,.53,.15,.7,.3,.7,.45,0,.24-.29,.48-.62,.48-1.41,0-2.49-.15-3.46-.15-.7,0-1.2,.09-2.14,.09-.44,0-.7-.21-.7-.42,0-.18,.21-.33,.7-.45,.88-.21,1.17-.69,1.17-1.05,0-.24-.5-1.8-.7-2.28-.06-.18-.18-.27-.7-.3-.38-.03-2.4-.03-3.4,0-.56,.03-.82,.03-.91,.18-.21,.51-.7,1.71-.7,2.31s.18,.87,1.14,1.17c.32,.12,.64,.18,.64,.48,0,.24-.32,.36-.67,.36-.76,0-1.38-.09-2.14-.09-.97,0-1.7,.15-2.43,.15-.26,0-.59-.12-.59-.36s.29-.36,.7-.48c1.03-.27,1.44-.51,2.2-1.95,.47-.96,2.87-6.77,3.25-7.73,.38-.9,.61-1.56,.67-1.95,.03-.15,.15-.33,.35-.54,.18-.27,.53-.51,.73-.78,.23-.33,.35-.36,.5-.36,.12,0,.29,.15,.32,.36Zm.38,7.7c-.53-1.44-1.52-4.01-1.67-4.37,0-.03-.23-.15-.29-.03-.53,1.38-1.32,3.24-1.76,4.46,0,.09,.09,.27,.21,.27,.53,.03,2.84,.06,3.31-.03,.09,0,.26-.15,.21-.3Z"/><path d="M55.68,19.35c-.12,.06-.09,.18,.03,.24,.73,.24,1.26,.6,1.49,.81,.44,.39,1.08,.99,1.08,2.52,0,1.86-1.23,3.06-2.64,3.62-1.17,.48-2.28,.54-3.63,.54-.7,0-1.49-.03-2.37-.03-.97,0-2.4,.15-3.46,.15-.29,0-.41-.15-.41-.3,0-.21,.32-.51,.82-.6,1.38-.21,1.61-.66,1.7-1.95,.03-.66,.12-1.83,.12-4.52,0-1.23-.03-2.91-.06-4.1-.03-.78-.06-1.14-1.7-1.47-.35-.09-.7-.24-.7-.48,0-.09,.23-.33,.79-.33,.59,0,2.14,.09,2.75,.09s2.52-.15,3.51-.15c1.55,0,2.61,.3,3.31,.87,.79,.69,1.11,1.53,1.11,2.31,0,1.35-.73,2.25-1.76,2.79Zm-3.57-5.12c-.41,0-1.2,.33-1.29,.45-.09,.09-.21,.27-.21,.57,0,.51-.03,1.98,0,3.56,0,.21,.18,.51,.38,.51,1.08,0,2.14-.18,2.63-.36,.5-.18,1.38-.99,1.38-2.16,0-.99-.64-2.58-2.9-2.58Zm2.23,6.41c-.29-.24-1.43-.6-3.31-.6-.26,0-.29,.12-.38,1.11-.03,.21-.03,.18-.03,2.61,0,.75,.06,1.11,.29,1.53,.29,.48,1.29,.96,1.64,.96,.64,0,1.08-.21,1.55-.39,.91-.42,1.55-1.62,1.55-2.91,0-1.08-.73-1.83-1.32-2.31Z"/><path d="M82.15,15.29c1.17-1.08,3.37-1.95,5.8-1.95,1.82,0,3.51,.48,4.22,.66,.12,.03,.29,.78,.29,.81,0,.78,.18,2.16,.18,2.34,0,.42-.32,.57-.47,.57-.12,0-.17-.09-.29-.39-.35-.75-.53-1.26-.94-1.74-.73-.78-1.93-1.38-3.4-1.38-1.7,0-2.96,.96-3.46,1.44-.67,.66-1.55,2.43-1.55,4.46s.67,3.86,1.79,4.94c1.26,1.17,2.69,1.77,3.78,1.77,1.26,0,2.58-.45,3.22-1.53,.21-.33,.47-.66,.67-1.08,.17-.36,.56-.63,.79-.63,.12,0,.23,.24,.21,.33-.23,.75-.64,2.4-.79,2.79-.03,.09-.38,.36-.67,.48-1.03,.36-2.37,.63-3.89,.63-2.17,0-4.63-.84-5.97-2.31-1.14-1.23-1.93-2.85-1.93-4.91,0-2.31,1.05-4.04,2.43-5.3Z"/><path d="M124.56,26.13c-1.05,.72-2.75,1.38-5.53,1.38-1.93,0-3.89-.18-4.8-.18-.32,0-.5,.03-.94,.03-.47,0-.79-.15-.79-.39,0-.3,.44-.36,.76-.42,1.73-.3,1.82-.96,1.9-1.56,.06-.63,.09-.93,.09-2.37,0-1.05-.06-5.21-.06-6.65,0-.84-.5-1.08-1.84-1.29-.38-.06-.67-.27-.67-.48,0-.27,.32-.39,.79-.42,.56-.03,1.26,.03,1.84,.03,.97,0,2.87-.18,3.84-.18,2.4,0,4.28,.33,5.62,1.29,1.61,1.11,2.75,3.21,2.75,5.33,0,2.97-1.41,4.79-2.96,5.87Zm-1.32-10c-1.03-1.02-2.37-1.65-3.98-1.65-.21,0-.94,.09-1.26,.27-.23,.12-.38,.3-.38,.42-.06,.57-.12,1.08-.12,5.21,0,1.71,.06,3.42,.12,3.98,.09,.69,.21,1.23,.53,1.47,.73,.6,1.35,.81,1.9,.81,.62,0,1.96-.3,2.69-.81,1-.6,2.2-2.34,2.2-5.27,0-1.77-.7-3.44-1.7-4.43Z"/><path d="M155.36,19.93c1.26,0,1.41-.15,1.82-1.17,.15-.27,.35-.6,.56-.6,.23,0,.26,.3,.26,.69,0,.21-.09,.6-.09,1.38,0,.87,.09,.96,.09,1.59s-.18,.84-.41,.84c-.18,0-.32-.24-.47-.6-.26-.6-.38-.87-.64-.99-.35-.12-2.08-.18-2.55-.12-.09,0-.23,.21-.29,.42-.09,.54-.12,3.56,.06,4.28,.03,.12,.38,.42,.5,.48,.18,.12,1.08,.33,1.76,.33s1.49-.06,1.87-.18c.91-.27,1.26-.42,2.11-1.77,.23-.39,.41-.6,.58-.6,.29,0,.29,.51,.29,.66,0,.48-.59,2.34-.79,2.64-.12,.21-.29,.27-.94,.27-2.75,0-2.72-.15-6.73-.15-.94,0-1.93,.15-2.64,.15-.38,0-.88-.09-.88-.39,0-.27,.35-.42,.67-.51,1.64-.39,1.7-.75,1.79-1.8,.06-.81,.09-2.76,.09-4.7,0-1.38,0-2.91-.06-4.19-.03-.63-.21-1.05-1.43-1.35-.35-.09-.7-.24-.7-.51,0-.21,.32-.33,.79-.33,.53,0,1.46,.12,2.58,.12,5.62,0,5.74,.03,6.44-.12,.18-.03,.35,.15,.35,.27,0,.87,.21,2.13,.21,2.55,0,.36-.21,.54-.29,.54-.15,0-.38-.12-.62-.6-.53-1.11-.88-1.5-1.79-1.62-.41-.03-.73-.12-2.9-.12-.12,0-.23,.27-.26,.39-.09,.45-.12,3.47-.06,4.4,0,.15,.12,.3,.35,.36,.47,.06,1.11,.06,1.38,.06Z"/><path d="M187.3,13.7c.79,0,1.82,.12,2.87,.12,1.17,0,6.24,.06,6.59-.06,.12-.03,.32,.21,.32,.3,0,.78,.06,1.62,.06,2.22,0,.66-.21,.84-.41,.84-.18,0-.32-.18-.53-.75-.41-1.14-.79-1.32-1.17-1.44-.35-.12-1.55-.21-3.28-.21-.18,0-.41,.3-.41,.48-.03,1.23-.06,2.94-.06,4.58,0,.12,.15,.27,.18,.27,.26,.03,1-.06,2.25-.09,.85-.03,1-.57,1.23-1.14,.09-.24,.29-.57,.44-.57,.21,0,.35,.24,.35,.57,0,.51-.06,1.05-.06,1.65,0,.66,.03,1.32,.09,1.8,.03,.24-.06,.69-.41,.69-.18,0-.35-.3-.5-.66-.18-.54-.5-.96-.94-1.08-.32-.09-1.29-.15-2.43-.15-.12,0-.21,.24-.21,.42,0,1.08,0,2.67,.06,3.8,.03,.66,.35,.99,1.49,1.29,.5,.15,.64,.33,.64,.51,0,.27-.41,.36-.76,.36s-1.96-.12-2.9-.12c-.85,0-1.52,.15-2.37,.15-.41,0-.82-.09-.82-.3s.29-.48,.79-.6c1.17-.27,1.35-.48,1.49-1.56,.06-.45,.12-3.23,.12-6.02,0-.93-.06-2.88-.09-3.23-.03-.3-.35-.93-1.49-1.2-.7-.18-.82-.33-.82-.57,0-.12,.26-.3,.67-.3Z"/><path d="M221.73,15.02c1-.81,2.99-1.68,5.24-1.68,1.14,0,2.14,.12,2.87,.33,.7,.18,1.14,.27,1.35,.3,.26,.03,.44,.15,.47,.51,.03,.42,.23,2.22,.26,2.52,0,.33-.15,.69-.38,.69-.21,0-.38-.21-.53-.6-.18-.36-.29-.72-.59-1.17-.85-1.35-2.4-1.77-3.63-1.77s-2.67,.69-3.63,1.86c-.76,.9-1.41,2.46-1.41,4.16,0,2.07,.67,3.8,1.73,4.88,1.11,1.17,2.55,1.89,3.89,1.89,1.02,0,1.32-.21,1.67-.48,.32-.24,.38-.51,.41-.66,.12-.6,.12-1.11,.09-1.74-.06-1.08-.35-1.41-1.73-1.68-.47-.09-.7-.27-.7-.45,0-.27,.38-.36,.76-.36,.73,0,2.02,.09,2.72,.09,.76,0,1.14-.09,1.84-.09,.53,0,.79,.06,.79,.36,0,.21-.44,.36-.67,.45-.79,.21-.82,.57-.82,1.59,0,1.74,0,1.71,.21,1.89,.23,.15,.5,.3,.5,.54,0,.18-.21,.33-.64,.51-1.26,.48-3.13,.9-4.92,.9-2.25,0-4.3-.78-5.56-1.89-1.52-1.32-2.37-3.17-2.37-5.36,0-2.31,1.03-4.07,2.78-5.54Z"/><path d="M252.56,13.73c.73,0,1.55,.09,2.52,.09s1.84-.09,2.63-.09c.41,0,.64,.12,.64,.36,0,.21-.18,.33-.64,.48-.97,.3-1.38,.54-1.43,1.02-.09,.57-.09,1.86-.06,3.92,0,.09,.12,.33,.26,.33h3.02c1.26,0,3.1,.03,3.54,.03,.18,0,.32-.06,.35-.81,.03-.93-.03-2.4-.06-3.24-.03-.75-.21-1.02-.97-1.26-.56-.15-.73-.33-.73-.6,0-.09,.06-.24,.73-.24,.73,0,1.02,.09,2.2,.09,.82,0,1.96-.06,2.75-.12,.26-.03,.47,.03,.47,.24s-.21,.45-.67,.6c-.97,.33-1.29,.48-1.35,1.29-.03,.84-.12,4.22-.12,5.84v1.89c0,2.34,.29,2.64,1.52,3.03,.64,.18,.73,.45,.73,.6s-.21,.27-.47,.27c-.79,0-1.11-.12-2.9-.12-.82,0-1.61,.09-2.43,.09-.56,0-.79-.06-.79-.39,0-.18,.23-.36,.7-.48,.94-.33,1.26-.48,1.32-1.08,.09-.66,.09-3.53,.06-3.86-.03-.3-.03-.33-.29-.39-.47-.18-6.03-.15-6.53-.06-.21,.03-.32,.18-.35,.3-.12,.6-.06,2.58,.03,3.59,.09,1.08,.32,1.17,1.23,1.53,.35,.12,.59,.27,.59,.42,0,.24-.15,.42-.67,.42-1.29,0-1.93-.09-2.84-.09-1.05,0-1.46,.09-2.28,.09-.53,0-.76-.18-.76-.39,0-.24,.23-.33,.62-.45,1.17-.33,1.58-.48,1.7-1.26,.09-.81,.12-2.52,.12-3.95,0-2.96,0-4.61-.09-5.42-.06-.63-.23-1.08-1.32-1.38-.5-.15-.7-.3-.7-.54,0-.12,.26-.3,.73-.3Z"/><path d="M295.04,13.73c.23,.03,2.28,.09,3.13,.09,.91,0,2.2-.09,2.84-.18,.21-.03,.64,.18,.64,.33,0,.21-.38,.48-.73,.54-1.41,.42-1.52,.66-1.58,1.74-.06,.66-.06,2.19-.06,4.13,0,1.71,0,3.24,.03,3.86,.06,1.71,.26,1.98,1.64,2.31,.35,.09,.67,.33,.67,.6,0,.21-.29,.27-.59,.27-.82,0-1.61-.09-2.87-.09-.85,0-2.4,.15-2.96,.15-.44,0-.7-.12-.7-.33,0-.27,.44-.48,.7-.57,1.41-.36,1.67-.69,1.73-1.83,.03-.54,.06-1.47,.06-2.46,0-3.14,0-5.24-.03-5.72-.09-1.29-.59-1.68-1.73-2.01-.53-.18-.62-.39-.62-.57,0-.12,.09-.3,.41-.27Z"/><path d="M15.55,48.75c.56,0,1.84,.15,2.58,.15,1.29,0,2.14-.09,2.69-.09,.38,0,.64,.12,.64,.27,0,.3-.18,.45-.82,.66-.97,.27-1.11,.63-1.14,1.47-.03,.57-.03,7.25-.09,9.5-.06,2.52-1,5-2.75,6.23-1.23,.87-2.14,1.05-2.63,1.05-.7,0-1.9-.3-1.9-1.11,0-.45,1.05-1.47,1.43-1.47,.15,0,.56,.21,.88,.39,.53,.3,.88,.51,1.35,.51,.7,0,1.17-.54,1.32-2.4,.06-.72,.09-3.21,.09-4.85,0-2.97-.09-7.79-.12-8.06,0-.69-.38-1.11-1.52-1.38-.56-.15-.76-.27-.76-.54,0-.24,.44-.33,.76-.33Z"/><path d="M46.04,48.5c1.17,0,1.17,.12,2.84,.12,.85,0,1.26-.09,2.08-.09,.41,0,.76,.18,.76,.36,0,.24-.38,.42-.73,.51-1,.24-1.23,.45-1.26,1.11-.06,1.17-.09,2.7-.09,3.8,0,.21,.09,.45,.23,.45s.76-.42,1.52-1.08c1.23-1.14,2.99-2.88,3.4-3.5,.21-.3-.06-.51-.5-.63-.61-.21-.76-.33-.76-.6,0-.24,.38-.33,.67-.33h1.73c1.29,0,2.99-.18,3.19-.18,.26,0,.67,0,.67,.3,0,.24-.17,.42-.97,.57-.79,.15-1.38,.54-2.08,.9-1.14,.63-3.25,2.49-4.63,3.86-.12,.09-.12,.33,.03,.51,1.05,1.29,2.78,3.26,3.89,4.43,1.35,1.44,1.82,2.04,3.57,2.37,.53,.12,.82,.33,.82,.51,0,.3-.47,.42-.82,.42-.53,0-3.1-.18-3.87-.18s-1.08,.06-1.44,.06c-.41,0-.67-.15-.67-.36,0-.15,.21-.33,.64-.51,.32-.18,.41-.42,0-.96-.47-.66-2.96-3.35-3.98-4.58-.21-.24-.32-.36-.5-.36-.12,0-.18,.18-.18,.42,0,.33-.09,2.82-.06,4.1,.03,.81,.35,1.11,1.38,1.38,.38,.09,.64,.24,.64,.51,0,.15-.12,.39-.76,.39s-1.67-.09-2.37-.09c-.91,0-2.2,.15-2.81,.15-.38,0-.82-.12-.82-.39,0-.3,.35-.48,.85-.57,1.02-.18,1.46-.66,1.58-1.5,.15-1.2,.18-4.07,.18-5.78,0-1.83,0-2.82-.06-3.29-.09-.66-.21-1.05-1.32-1.35-.62-.18-.79-.36-.82-.6,0-.15,.35-.3,.79-.3Z"/><path d="M82,48.78c.38,0,1.23,.12,2.55,.12,1,0,2.25-.06,3.04-.12,.23-.03,.44,.12,.44,.27,0,.21-.23,.45-.94,.63-.73,.18-1.23,.6-1.29,1.11-.12,1.17-.15,5.21-.15,7.19,0,.99,.06,1.92,.12,2.79,0,.18,.32,.6,.64,.63,.88,.12,2.11,.12,2.69,.03,.5-.06,.88-.06,1.29-.39,.47-.36,1-.96,1.44-1.71,.35-.57,.56-.69,.76-.69,.18,0,.26,.54,.15,.81-.35,.66-.7,1.53-1.08,2.52-.12,.3-.29,.51-.41,.54-.29,.09-.97,.06-1.84,.06-1.11,0-2.52-.15-4.57-.15s-2.28,.12-3.28,.12c-.5,0-.79-.15-.79-.36,0-.24,.17-.42,.82-.54,1.49-.24,1.7-.87,1.76-1.65,.03-.6,.09-1.14,.09-5.21,0-1.17,0-2.43-.03-3.59-.03-.9-.29-1.26-1.32-1.5-.76-.15-.85-.42-.85-.63,0-.15,.26-.27,.76-.27Z"/><path d="M112.85,48.72c.5,0,1.84,.18,3.54,.18,.12,0,.35,.3,.38,.42,.12,.36,.35,1.14,.79,2.16,.64,1.53,2.75,5.75,3.48,7.13,.03,.12,.21,.03,.29-.09,.38-.6,3.13-6.29,3.57-7.25,.38-.78,.59-1.47,.73-2.04,.03-.15,.23-.33,.32-.33,1.67,0,2.37-.18,3.63-.18,.29,0,.62,.09,.62,.33,0,.18-.23,.36-1,.51-1.35,.24-1.67,1.02-1.67,1.5,0,3.62,.06,6.26,.18,8.21,.09,1.65,.35,2.22,1.7,2.43,.62,.09,.85,.24,.85,.48,0,.3-.56,.39-.85,.39-1.11,0-2.08-.15-2.87-.15-.85,0-1.35,.09-2.17,.09-.53,0-.79-.18-.79-.42s.18-.33,.79-.54c.61-.21,1.05-.72,1.08-1.65,.03-.99,.06-4.88,.06-7.34,0-.21-.21-.15-.29-.03-1.96,4.28-3.66,7.61-4.19,9.2-.15,.45-.47,.81-.7,.81s-.59-.57-1.17-2.22c-.7-2.01-2.46-5.48-3.46-7.76-.09-.21-.23,.03-.29,.09-.2,1.86-.29,5.9-.23,7.52,.03,.51,.15,1.2,1.38,1.5,.26,.06,.61,.24,.61,.45,0,.3-.29,.42-.73,.42-.59,0-1.38-.12-1.96-.12-.38,0-2.17,.15-2.52,.15-.38,0-.67-.15-.67-.39,0-.21,.35-.36,.79-.48,1.11-.3,1.55-.84,1.76-2.07,.35-2.16,.79-7.79,.79-8.42,0-.87-.26-1.32-1.7-1.68-.7-.18-.82-.3-.82-.51,0-.12,.18-.3,.73-.3Z"/><path d="M149.1,48.75c.67,0,2.64,.15,3.31,.15,.23,0,.38,.15,.58,.42,.56,.72,1.2,1.38,1.96,2.28,.79,.96,4.6,5.18,6.09,6.8,.03,.03,.21,.06,.21-.12,.03-1.65,.18-5.57,.03-7.01-.09-.87-.41-1.35-1.82-1.68-.23-.09-.62-.21-.62-.48,0-.33,.62-.33,.7-.33,1,0,1.76,.12,2.49,.12,.59,0,1.32-.12,2.05-.12,.29,0,.62,.12,.62,.33s-.15,.3-.62,.48c-1.14,.33-1.38,.72-1.49,1.89-.12,1.14-.26,4.97-.26,6.71s.09,3.65,.09,3.86c0,.48-.12,.81-.38,.81-.2,0-.64-.24-.88-.45-.5-.6-1.64-2.19-3.25-3.95-1.35-1.5-3.4-4.07-5.12-5.93-.06-.09-.26-.09-.26,.12-.03,1.02-.17,5.36-.03,7.34,.09,.96,.76,1.38,1.64,1.68,.32,.12,.53,.24,.53,.45,0,.3-.41,.39-.67,.39-.09,0-1-.09-1.82-.09-.73,0-1.96,.18-2.61,.18-.38,0-.7-.09-.7-.39,0-.15,.12-.27,.67-.42,1.41-.36,1.58-.9,1.67-1.65,.06-.75,.23-3.59,.23-6.2,0-1.41-.03-2.25-.06-2.49s-.47-.99-1.05-1.44c-.26-.21-.59-.36-1.2-.48-.53-.09-.76-.24-.76-.48,0-.12,.35-.3,.73-.3Z"/><path d="M197.96,55.46c0,2.49-.76,4.16-2.34,5.63-1.61,1.56-3.98,1.8-4.71,1.8-4.83,0-7.53-3.62-7.53-7.22,0-2.1,.79-3.89,2.11-5.15,1.7-1.65,3.69-2.1,5.15-2.1,4.1,0,7.32,3.12,7.32,7.04Zm-10.48-4.79c-.73,.78-1.43,2.16-1.43,4.7,0,4.22,2.99,6.62,4.95,6.62,.7,0,2.08-.21,3.19-1.65,.79-1.05,1.14-2.91,1.14-4.73s-1.29-6.32-5.04-6.32c-.7,0-1.96,.39-2.81,1.38Z"/><path d="M221.38,48.84c.61,0,1.26,.06,1.84,.06,1,0,2.2-.12,3.02-.12,1.93,0,3.25,.42,3.98,1.08,.91,.84,1.32,1.92,1.32,3.09,0,1.38-.73,2.46-1.46,3.08-.62,.63-1.76,.84-2.37,.84-.32,0-.61-.06-.91-.15-.35-.12-.47-.27-.47-.42,0-.18,.18-.33,.64-.33,1.14,0,2.31-1.2,2.31-2.85,0-1.11-.38-2.01-.97-2.61-.53-.54-1.52-.96-2.11-.96-.23,0-.79,.15-1.02,.27-.09,.06-.21,.33-.23,.48-.15,1.14-.06,8.87-.06,9.5,0,1.23,.32,1.56,1.61,1.86,.32,.09,.62,.24,.62,.45,0,.3-.5,.39-.73,.39-1.2,0-1.73-.09-2.28-.09-.76,0-2.25,.12-3.1,.12-.47,0-.7-.09-.7-.36,0-.18,.15-.33,.7-.51,1.08-.27,1.49-.54,1.58-1.62,.06-.75,.09-1.17,.09-2.1,0-.63-.03-6.32-.06-6.95-.03-.72-.09-1.02-1.43-1.29-.38-.09-.62-.27-.62-.48,0-.33,.56-.39,.82-.39Z"/><path d="M266.74,54.43c0,2.37-.85,4.25-2.43,5.54-.73,.66-1.41,.93-2.37,1.38-.15,.06-.12,.18,0,.36,.5,.51,2.96,2.43,5.09,3.47,1.55,.72,2.67,.9,3.63,.9,.56,0,1.14-.15,1.46-.21,.26-.06,.47-.03,.47,.15,0,.3-.32,.69-.47,.78-.73,.42-1.52,.69-2.87,.69s-2.49-.27-4.01-.93c-1.73-.75-4.07-2.4-5.65-3.62-.64-.48-1.73-1.17-2.25-1.35-3.07-1.05-5.18-3.5-5.18-6.74,0-2.22,.82-4.1,2.14-5.36,1.49-1.47,3.84-2.04,5.21-2.04,3.75,0,7.23,2.85,7.23,6.98Zm-10.51-4.79c-.88,.99-1.41,2.52-1.41,4.73,0,3.68,2.2,6.62,5.68,6.62,.35,0,1.43-.24,2.4-1.62,.64-.93,1.23-2.94,1.23-4.58,0-1.77-1.2-6.44-5.04-6.44-1.11,0-1.96,.3-2.87,1.29Z"/><path d="M292.21,48.84c.7,0,1.32,.03,1.64,.03,.7,0,1.84-.12,4.28-.12,1.9,0,3.19,.45,3.81,1.11,.73,.69,1.05,1.47,1.05,2.37,0,2.1-1.64,3.02-2.52,3.29-.06,.03-.15,.15-.12,.18,.58,1.14,1.76,3.09,2.96,4.46,.67,.75,1.61,1.5,2.43,1.65,.44,.09,.53,.15,.53,.42,0,.36-.67,.54-1.76,.54-1.2,0-2.28-.42-3.54-1.86-.53-.6-2.17-3.29-2.63-4.01-.26-.42-1.11-.81-1.79-.81-.12,0-.26,.03-.47,.21-.06,.06-.12,.15-.12,.24,0,.63,.03,2.22,.09,3.83,.03,.9,.53,1.02,1.29,1.26,.23,.06,.59,.21,.59,.45,0,.36-.5,.42-.79,.42-.94,0-1.55-.09-2.28-.09-.91,0-1.82,.21-2.72,.21-.5,0-.79-.15-.79-.36,0-.18,.23-.42,.73-.54,1.32-.33,1.52-.6,1.58-1.92,.03-.6,.15-3.21,.15-6.02,0-1.29,.03-2.04-.03-2.76-.06-.63-.09-1.11-1.55-1.35-.44-.09-.73-.27-.73-.48s.35-.36,.73-.36Zm4.13,.93c-.15,.06-.29,.24-.29,.48,0,.3-.09,4.49-.09,4.76,0,.18,.12,.33,.29,.33,1.29,0,2.78-.24,3.16-.51,.44-.33,1.23-1.11,1.23-2.31,0-1.26-.94-2.91-3.48-2.91-.29,0-.61,.06-.82,.15Z"/><path d="M53.17,83.98c3.31,0,3.57-.21,4.3-.69,.12-.06,.44,.09,.44,.45-.06,1.35,.09,2.58,.09,2.91,0,.42-.26,.66-.41,.66-.21,0-.38-.21-.47-.54-.53-1.56-1-1.65-1.61-1.68-.61-.03-2.25,0-3.19,.09-.12,0-.21,.27-.23,.42-.06,.45-.06,3.77-.06,6.83,0,1.65,.06,2.64,.21,3.15,.18,.69,.44,.81,1.64,1.14,.53,.12,.73,.3,.73,.51s-.41,.39-.79,.39c-1.23,0-1.52-.12-2.93-.12-.76,0-2.34,.15-3.08,.15-.41,0-.73-.18-.73-.42s.44-.39,.82-.48c1.64-.42,1.67-.78,1.73-1.95,.09-2.64,.18-5.75,.18-9.23,0-.06-.12-.33-.29-.36-.53-.09-2.34-.24-2.96-.18-.56,.06-.97,.33-1.46,1.14-.35,.54-.44,.81-.67,.81s-.35-.36-.35-.6c.03-.57,.35-1.98,.35-2.7,0-.36,.35-.51,.44-.51,.21,0,.41,.21,.53,.33,.26,.24,.88,.48,3.95,.48h3.84Z"/><path d="M18.24,83.98c.2,.03,.29,.39,.29,.72,0,.87,.03,1.56-.03,1.95-.09,.57-.32,.66-.41,.66-.26,0-.38-.36-.47-.72-.23-.87-.62-1.35-1-1.68-.38-.33-1.05-.6-1.76-.6-1.46,0-2.46,1.05-2.46,2.34,0,1.02,.82,1.83,1.82,2.4,.94,.54,1.73,.93,2.58,1.44,1.23,.72,2.23,1.83,2.23,3.5,0,1.38-.91,2.52-1.76,3.06-.62,.42-1.96,.93-3.25,.93-1.76,0-3.02-.42-3.69-.93-.23-.15-.29-.45-.32-.63-.03-.36-.26-1.8-.26-2.25,0-.57,.21-.81,.41-.81,.26,0,.35,.33,.47,.66,.15,.39,.44,1.02,.67,1.41,.73,.99,1.76,1.71,3.05,1.71,1.64,0,2.43-1.2,2.43-2.22,0-1.17-.61-1.8-1.7-2.49-.88-.54-1.67-.96-2.31-1.38-1.05-.69-2.4-1.86-2.4-3.65,0-2.25,1.82-3.89,4.74-3.89,1.49,0,2.31,.36,3.13,.48Z"/><path d="M79.23,83.55c.91,0,1.41,.15,2.61,.15,.97,0,1.46-.06,2.22-.06,.62,0,.85,.18,.85,.33,0,.21-.12,.39-.79,.54-.85,.18-1.32,.36-1.32,1.5-.03,1.71,0,3.8,.03,5.72,.03,1.95,.88,3.24,1.35,3.62,.56,.42,1.58,.87,2.58,.87,1.87,0,3.46-.51,3.78-4.1,.15-2.16,.12-5.6,.12-5.96-.09-.96-.23-1.5-1.61-1.74-.32-.06-.62-.24-.62-.45,0-.27,.38-.33,.76-.33,.73,0,.64,.06,1.38,.06,1.17,0,2.2-.15,2.84-.15,.44,0,.67,.21,.67,.3,0,.3-.29,.42-.67,.51-1.08,.27-1.41,.63-1.43,1.86-.03,.84-.15,2.46-.21,4.25-.06,2.49-.56,4.79-2.11,6.05-.85,.72-1.99,1.17-3.54,1.17s-2.93-.51-3.75-1.23c-1.23-1.05-1.87-2.55-1.87-6.2,0-.81-.03-4.22-.09-4.76-.03-.3-.12-.84-1.29-1.11-.35-.09-.67-.33-.67-.48,0-.27,.32-.36,.79-.36Z"/><path d="M115.91,83.83c.56,0,1.73,.15,2.67,.15,.88,0,1.73-.09,2.4-.09,.58,0,.76,.18,.76,.36s-.21,.33-.67,.48c-1.14,.24-1.08,.75-.82,1.44,.38,.96,.82,2.19,1.43,3.71,.67,1.53,1.38,3.54,1.73,3.92,.12,.12,.23,.27,.35-.06,.35-.84,2.28-5.69,2.75-7.07,.44-1.35,.38-1.68-.79-1.98-.26-.09-.61-.3-.61-.48,0-.09,.23-.33,.7-.33,.79,0,1.17,.09,1.9,.09,1.03,0,1.93-.15,2.4-.15,.32,0,.64,.09,.64,.3,0,.3-.35,.42-.76,.54-.94,.24-1.49,.72-2.23,2.13-.67,1.23-1.43,3.29-2.37,5.42-1.41,3.17-1.87,4.7-2.02,5.06-.12,.36-.53,.81-.76,.81-.21,0-.38-.33-.44-.6-.06-.24-.5-1.77-1.08-3.15-.67-1.59-2.72-6.59-3.6-8.36-.35-.66-.76-1.11-1.79-1.35-.26-.09-.64-.24-.64-.45,0-.3,.44-.36,.85-.36Z"/><path d="M156.54,86.28c.5-1.08,.26-1.44-.53-1.65-.26-.06-.56-.27-.56-.42,0-.18,.21-.33,.73-.33,.38,0,.82,.09,1.55,.09s1.35-.09,1.7-.09c.56,0,.7,.18,.7,.27,0,.3-.26,.36-.67,.51-.7,.24-1.05,.51-1.7,1.53-.21,.36-.73,1.14-1.9,3.5-.12,.18-.09,.36-.03,.51,.62,1.38,1.49,3.32,2.08,4.49,.09,.15,.18,.03,.23-.09,.29-.54,2.69-5.72,3.75-8.42,.44-1.08,.18-1.29-.7-1.53-.26-.06-.64-.15-.64-.42s.35-.33,.64-.33c.53,0,1.41,.06,1.82,.06,.67,0,1.52-.12,2.2-.12,.38,0,.73,.09,.73,.3,0,.3-.38,.45-.79,.54-.7,.18-1.35,.48-1.87,1.56-1.35,2.61-2.84,5.45-4.13,8.27-.53,1.26-.88,2.07-1.26,2.97-.09,.3-.56,.6-.73,.6s-.29-.24-.38-.48c-.7-1.77-1.46-3.38-2.28-5.09-.09-.21-.21-.21-.26-.09-.64,1.35-1.84,3.59-2.4,5.06-.09,.27-.32,.6-.62,.6-.17,0-.35-.27-.44-.51-.15-.24-.56-1.38-1.41-3.26-.82-1.83-3.37-6.95-3.89-7.94-.38-.75-1.11-1.5-1.9-1.71-.35-.09-.7-.24-.7-.51,0-.15,.21-.33,.88-.33,.47,0,1.7,.15,2.84,.15,.97,0,1.55-.06,1.76-.06,.41,0,.62,.15,.62,.33s-.03,.3-.64,.51c-.32,.12-.82,.3-.62,.75,.44,1.05,2.72,5.9,4.28,9.08,.06,.12,.18,.09,.23-.03,.15-.27,.76-1.56,1.58-3.29,.06-.15,.12-.24,.03-.42-.82-1.83-1.93-3.98-2.17-4.46-.67-1.29-.91-1.53-1.49-1.68-.41-.12-.64-.27-.64-.48,0-.18,.35-.33,.7-.33,.29,0,1.05,.09,1.76,.09,1.02,0,2.08-.12,2.28-.12,.35,0,.61,.12,.61,.3s-.12,.36-.56,.48c-.76,.18-.85,.45-.62,.96,.21,.42,.73,1.62,1.41,3.15,.06,.12,.23,.15,.29,.03,.47-.9,.82-1.71,1.14-2.49Z"/><path d="M184.17,83.83c.38,0,2.02,.15,2.84,.15,.94,0,1.43-.09,2.43-.09,.23,0,.56,.09,.56,.36,0,.21-.18,.36-.73,.48-.7,.12-.7,.51-.41,1.02,.47,.69,1.58,2.25,2.31,3.35,.09,.15,.23,.09,.32,0,.59-.75,1.61-2.13,2.31-3.35,.32-.51,.21-.87-.53-1.05-.21-.03-.64-.18-.64-.48,0-.18,.32-.33,.67-.33,.76,0,1.17,.09,1.99,.09,.67,0,2.02-.15,2.49-.15,.41,0,.67,.18,.67,.3,0,.27-.26,.45-.64,.51-1.11,.21-2.05,.72-2.61,1.29-.61,.63-2.25,2.75-3.19,4.01-.03,.03-.03,.24,.06,.36,1.35,2.1,2.93,4.19,3.54,4.97,.82,.99,1.38,1.26,2.2,1.44,.44,.12,.85,.3,.85,.51,0,.3-.59,.42-.82,.42-1.17,0-2.81-.15-3.63-.15-1.08,0-1.14,.09-1.96,.09-.5,0-.76-.15-.76-.42,0-.12,.15-.33,.67-.48,1.17-.3,.94-.63,.67-1.05-.53-.78-1.44-2.13-2.34-3.32-.15-.24-.29-.21-.41-.06-.32,.36-1.46,1.86-2.23,3.09-.41,.72-.18,1.08,.79,1.38,.56,.15,.56,.3,.56,.45,0,.3-.38,.42-.64,.42-.82,0-.62-.09-1.49-.09-1.08,0-1.96,.15-3.02,.15-.61,0-.91-.24-.91-.39,0-.27,.47-.42,.91-.51,1.08-.27,1.61-.6,3.08-2.34,1.05-1.26,1.84-2.22,2.52-3.08,.06-.09-.03-.42-.09-.51-.41-.69-1.7-2.76-2.96-4.43-.91-1.17-1.23-1.41-2.52-1.71-.38-.12-.64-.24-.64-.54,0-.12,.44-.3,.73-.3Z"/><path d="M221.23,83.83c.58,0,2.02,.15,2.9,.15,1,0,1.43-.09,2.05-.09,.35,0,.67,.15,.67,.33,0,.24-.29,.45-.64,.54-.85,.21-.79,.63-.59,1.11,.23,.63,1.52,2.94,2.46,4.64,.06,.09,.26,.06,.29,0,.15-.27,2.14-3.8,2.58-4.79,.29-.6,.21-.75-.64-1.02-.53-.15-.62-.3-.62-.48s.26-.33,.7-.33c.73,0,.79,.09,1.64,.09,.47,0,2.14-.12,2.31-.12,.26,0,.7,.09,.7,.3,0,.33-.47,.51-.7,.54-1.38,.24-1.61,.63-2.52,1.8-.79,.99-2.28,3.59-2.87,4.79-.12,.24-.2,.42-.23,1.11-.03,.66-.03,2.4,.03,3.08,.09,.72,.44,.99,1.41,1.23,.47,.12,.82,.21,.82,.48,0,.21-.23,.39-.76,.39-.91,0-1.11-.09-2.2-.09-.82,0-2.31,.15-3.37,.15-.5,0-.76-.09-.76-.39,0-.12,.21-.33,.59-.42,1.52-.33,1.84-.69,1.87-1.2,.03-.57,.09-2.4,.09-2.88,0-.72-.03-.75-.21-1.23-.38-.99-2.14-4.07-2.78-4.94-.82-1.26-1.08-1.62-2.28-1.95-.44-.12-.64-.3-.64-.51,0-.12,.26-.3,.7-.3Z"/><path d="M263.63,83.98c.64,0,1.87,0,2.75-.09,.32-.03,.53,.09,.53,.24s-.35,.78-.62,1.08c-.91,1.17-4.92,7.28-7.26,10.69-.18,.27-.09,.33,.15,.36,.32,.06,3.48,.18,4.1,.18,1.84,0,2.2-.24,2.43-.48,.26-.33,1.05-1.35,1.38-1.86s.5-.75,.67-.75c.26,0,.38,.54,.23,.93-.56,1.53-.88,2.7-.94,2.85-.03,.15-.18,.45-1.02,.45-.62,0-4.42-.09-7.03-.09-1.46,0-1.96,.03-2.63,.03-.53,0-.91-.21-.91-.33s.21-.57,.53-1.02c2.02-2.61,6.33-8.96,7.44-10.75,.12-.27-.12-.3-.18-.3,.03,0-4.77-.15-5.15-.15-.64,0-1.29,.72-2.11,1.95-.12,.21-.23,.51-.5,.51s-.26-.36-.26-.63c0-.48,.76-2.49,1.03-3.05,.06-.15,.38-.36,.47-.33,1,.48,1.26,.57,2.4,.57h4.51Z"/><rect class="d" x=".59" y=".5" width="34.87" height="34.87"/><rect class="d" x="35.46" y=".5" width="34.87" height="34.87"/><rect class="d" x="70.33" y=".5" width="34.87" height="34.87"/><rect class="d" x="105.2" y=".5" width="34.87" height="34.87"/><rect class="d" x="140.07" y=".5" width="34.87" height="34.87"/><rect class="d" x="174.94" y=".5" width="34.87" height="34.87"/><rect class="d" x="209.81" y=".5" width="34.87" height="34.87"/><rect class="d" x="244.68" y=".5" width="34.87" height="34.87"/><rect class="d" x="279.55" y=".5" width="34.87" height="34.87"/><rect class="d" x=".59" y="35.37" width="34.87" height="34.87"/><rect class="d" x="35.46" y="35.37" width="34.87" height="34.87"/><rect class="d" x="70.33" y="35.37" width="34.87" height="34.87"/><rect class="d" x="105.2" y="35.37" width="34.87" height="34.87"/><rect class="d" x="140.07" y="35.37" width="34.87" height="34.87"/><rect class="d" x="174.94" y="35.37" width="34.87" height="34.87"/><rect class="d" x="209.81" y="35.37" width="34.87" height="34.87"/><rect class="d" x="244.68" y="35.37" width="34.87" height="34.87"/><rect class="d" x="279.55" y="35.37" width="34.87" height="34.87"/><rect class="d" x="35.52" y="70.24" width="34.87" height="34.87"/><rect class="d" x=".5" y="70.24" width="34.87" height="34.87"/><rect class="d" x="70.39" y="70.24" width="34.87" height="34.87"/><rect class="d" x="105.26" y="70.24" width="34.87" height="34.87"/><rect class="d" x="140.13" y="70.24" width="34.87" height="34.87"/><rect class="d" x="175" y="70.24" width="34.87" height="34.87"/><rect class="d" x="209.87" y="70.24" width="34.87" height="34.87"/><rect class="d" x="244.74" y="70.24" width="34.87" height="34.87"/></g></g></g></svg>