<?xml version="1.0" encoding="UTF-8"?><svg xmlns="http://www.w3.org/2000/svg" viewBox="0 0 314.75 140.4"><defs><style>.d{fill:none;stroke:#2b4798;stroke-miterlimit:10;}</style></defs><g id="a"/><g id="b"><g id="c"><g><path d="M20.51,16.63c.44,.63,.58,1.23,.58,2.48,0,1.17-.12,4.94-.12,5.27,0,1.38,.94,1.5,1.17,1.5,.12,0,.79-.21,1.11-.45,.09-.06,.12,0,.18,.09,.09,.09,.09,.27,.09,.3,0,.57-1.32,1.86-2.63,1.86-.67,0-1.52-.39-1.87-1.5,0-.03-.12-.15-.18-.12-1.08,.78-2.34,1.29-2.63,1.38-.32,.12-1.02,.18-1.17,.18-1.02,0-2.02-1.29-2.02-2.78,0-.54,.23-1.11,.56-1.53,.29-.39,.73-.54,1.17-.75,.44-.18,2.78-.84,3.42-1.05,.67-.21,.85-.36,.85-.54,.03-.27,.06-2.1,.06-2.46,0-.75-.85-2.01-2.28-2.01-.62,0-1,.18-1.2,.33-.18,.09-.26,.63-.21,1.23,0,.09-.12,.27-.18,.33-.29,.24-1.76,.99-1.9,.99-.17,0-.35-.24-.35-.39,0-.87,.82-1.71,2.19-2.63,.85-.63,2.17-1.14,2.72-1.14,1.46,0,2.2,.75,2.63,1.41Zm-1.93,8.92c.18-.12,.35-.69,.35-.75,.06-.72,.06-1.74,.06-2.33,0-.09-.12-.24-.23-.24-.82,0-2.22,.51-3.01,.9-.29,.21-.59,.42-.59,1.14,0,1.32,1.23,1.8,1.84,1.8,.44,0,1.02-.21,1.58-.51Zm.76-17.6c.26,0,1.05,.06,1.26,.3,.09,.12,0,.51-.15,.81-.59,1.14-1.99,3.47-2.69,4.4-.21,.27-.5,.57-.79,.57-.23,0-.2-.51-.12-.81,.35-1.08,1.23-3.38,1.79-4.64,.2-.42,.53-.63,.7-.63Z"/><path d="M53.46,16.35c.44,.63,.58,1.23,.58,2.48,0,1.17-.12,4.94-.12,5.27,0,1.38,.94,1.5,1.17,1.5,.12,0,.79-.21,1.11-.45,.09-.06,.12,0,.18,.09,.09,.09,.09,.27,.09,.3,0,.57-1.32,1.86-2.63,1.86-.67,0-1.52-.39-1.87-1.5,0-.03-.12-.15-.18-.12-1.08,.78-2.34,1.29-2.63,1.38-.32,.12-1.02,.18-1.17,.18-1.02,0-2.02-1.29-2.02-2.78,0-.54,.23-1.11,.56-1.53,.29-.39,.73-.54,1.17-.75,.44-.18,2.78-.84,3.42-1.05,.67-.21,.85-.36,.85-.54,.03-.27,.06-2.1,.06-2.46,0-.75-.85-2.01-2.28-2.01-.62,0-1,.18-1.2,.33-.18,.09-.26,.63-.21,1.23,0,.09-.12,.27-.18,.33-.29,.24-1.76,.99-1.9,.99-.17,0-.35-.24-.35-.39,0-.87,.82-1.71,2.19-2.63,.85-.63,2.17-1.14,2.72-1.14,1.46,0,2.2,.75,2.63,1.41Zm-2.31-7.25c.32,.6,1.11,2.1,1.9,3.74,.09,.18,.44,.99-.06,.99-.21,0-.64-.33-.79-.54-.56-.78-1.32-1.92-1.84-2.67-.03-.06-.18-.15-.26-.03-.47,.75-1.35,2.07-1.87,2.75-.12,.18-.32,.42-.61,.42-.18,0-.35-.33-.23-.66,.35-.87,1.46-2.99,2.11-4.16,.32-.6,.61-1.02,.82-1.02,.18,0,.5,.45,.85,1.17Zm.38,16.17c.18-.12,.35-.69,.35-.75,.06-.72,.06-1.74,.06-2.33,0-.09-.12-.24-.23-.24-.82,0-2.22,.51-3.01,.9-.29,.21-.59,.42-.59,1.14,0,1.32,1.23,1.8,1.84,1.8,.44,0,1.02-.21,1.58-.51Z"/><path d="M86.57,16.63c.44,.63,.58,1.23,.58,2.48,0,1.17-.12,4.94-.12,5.27,0,1.38,.94,1.5,1.17,1.5,.12,0,.79-.21,1.11-.45,.09-.06,.12,0,.18,.09,.09,.09,.09,.27,.09,.3,0,.57-1.32,1.86-2.63,1.86-.67,0-1.52-.39-1.87-1.5,0-.03-.12-.15-.18-.12-1.08,.78-2.34,1.29-2.63,1.38-.32,.12-1.02,.18-1.17,.18-1.02,0-2.02-1.29-2.02-2.78,0-.54,.23-1.11,.56-1.53,.29-.39,.73-.54,1.17-.75,.44-.18,2.78-.84,3.42-1.05,.67-.21,.85-.36,.85-.54,.03-.27,.06-2.1,.06-2.46,0-.75-.85-2.01-2.28-2.01-.62,0-1,.18-1.2,.33-.18,.09-.26,.63-.21,1.23,0,.09-.12,.27-.18,.33-.29,.24-1.76,.99-1.9,.99-.17,0-.35-.24-.35-.39,0-.87,.82-1.71,2.19-2.63,.85-.63,2.17-1.14,2.72-1.14,1.46,0,2.2,.75,2.63,1.41Zm-4.39-5.9c0,.9-.64,1.32-1.26,1.32-.53,0-1.23-.45-1.23-1.29,0-.72,.5-1.41,1.29-1.41,.7,0,1.2,.69,1.2,1.38Zm2.46,14.82c.18-.12,.35-.69,.35-.75,.06-.72,.06-1.74,.06-2.33,0-.09-.12-.24-.23-.24-.82,0-2.22,.51-3.01,.9-.29,.21-.59,.42-.59,1.14,0,1.32,1.23,1.8,1.84,1.8,.44,0,1.02-.21,1.58-.51Zm2.55-14.82c0,.72-.61,1.32-1.32,1.32-.64,0-1.26-.54-1.26-1.29,0-.87,.7-1.38,1.32-1.38,.67,0,1.26,.69,1.26,1.35Z"/><path d="M120.16,16.63c.44,.63,.58,1.23,.58,2.48,0,1.17-.12,4.94-.12,5.27,0,1.38,.94,1.5,1.17,1.5,.12,0,.79-.21,1.11-.45,.09-.06,.12,0,.18,.09,.09,.09,.09,.27,.09,.3,0,.57-1.32,1.86-2.63,1.86-.67,0-1.52-.39-1.87-1.5,0-.03-.12-.15-.18-.12-1.08,.78-2.34,1.29-2.63,1.38-.32,.12-1.02,.18-1.17,.18-1.02,0-2.02-1.29-2.02-2.78,0-.54,.23-1.11,.56-1.53,.29-.39,.73-.54,1.17-.75,.44-.18,2.78-.84,3.42-1.05,.67-.21,.85-.36,.85-.54,.03-.27,.06-2.1,.06-2.46,0-.75-.85-2.01-2.28-2.01-.62,0-1,.18-1.2,.33-.18,.09-.26,.63-.21,1.23,0,.09-.12,.27-.18,.33-.29,.24-1.76,.99-1.9,.99-.17,0-.35-.24-.35-.39,0-.87,.82-1.71,2.19-2.63,.85-.63,2.17-1.14,2.72-1.14,1.46,0,2.2,.75,2.63,1.41Zm-4.01-7.87c.38,.81,1.35,3.2,1.76,4.46,.09,.27,.12,.75-.12,.75s-.53-.27-.67-.48c-1-1.32-2.52-3.77-2.75-4.19-.21-.39-.26-.51-.23-.78,0-.18,.18-.42,.47-.54,.17-.09,.61-.27,.79-.27,.21,0,.38,.15,.76,1.05Zm2.08,16.79c.18-.12,.35-.69,.35-.75,.06-.72,.06-1.74,.06-2.33,0-.09-.12-.24-.23-.24-.82,0-2.22,.51-3.01,.9-.29,.21-.59,.42-.59,1.14,0,1.32,1.23,1.8,1.84,1.8,.44,0,1.02-.21,1.58-.51Z"/><path d="M156.39,16.63c.44,.63,.58,1.23,.58,2.48,0,1.17-.12,4.94-.12,5.27,0,1.38,.94,1.5,1.17,1.5,.12,0,.79-.21,1.11-.45,.09-.06,.12,0,.18,.09,.09,.09,.09,.27,.09,.3,0,.57-1.32,1.86-2.63,1.86-.67,0-1.52-.39-1.87-1.5,0-.03-.12-.15-.18-.12-1.08,.78-2.34,1.29-2.63,1.38-.32,.12-1.02,.18-1.17,.18-1.02,0-2.02-1.29-2.02-2.78,0-.54,.23-1.11,.56-1.53,.29-.39,.73-.54,1.17-.75,.44-.18,2.78-.84,3.42-1.05,.67-.21,.85-.36,.85-.54,.03-.27,.06-2.1,.06-2.46,0-.75-.85-2.01-2.28-2.01-.62,0-1,.18-1.2,.33-.18,.09-.26,.63-.21,1.23,0,.09-.12,.27-.18,.33-.29,.24-1.76,.99-1.9,.99-.17,0-.35-.24-.35-.39,0-.87,.82-1.71,2.19-2.63,.85-.63,2.17-1.14,2.72-1.14,1.46,0,2.19,.75,2.63,1.41Zm-.82-5.72c0,1.29-.97,2.46-2.4,2.46s-2.4-1.17-2.4-2.46,.97-2.42,2.4-2.42,2.4,1.17,2.4,2.42Zm-1.11,14.64c.18-.12,.35-.69,.35-.75,.06-.72,.06-1.74,.06-2.33,0-.09-.12-.24-.23-.24-.82,0-2.22,.51-3.01,.9-.29,.21-.59,.42-.59,1.14,0,1.32,1.23,1.8,1.84,1.8,.44,0,1.02-.21,1.58-.51Zm-2.6-14.64c0,.99,.58,1.56,1.32,1.56s1.32-.54,1.32-1.62c0-.81-.59-1.5-1.35-1.5s-1.29,.69-1.29,1.56Z"/><path d="M194.05,16.63c.44,.63,.58,1.23,.58,2.48,0,1.17-.12,4.94-.12,5.27,0,1.38,.94,1.5,1.17,1.5,.12,0,.79-.21,1.11-.45,.09-.06,.12,0,.18,.09,.09,.09,.09,.27,.09,.3,0,.57-1.32,1.86-2.63,1.86-.67,0-1.52-.39-1.87-1.5,0-.03-.12-.15-.18-.12-1.08,.78-2.34,1.29-2.63,1.38-.32,.12-1.02,.18-1.17,.18-1.02,0-2.02-1.29-2.02-2.78,0-.54,.23-1.11,.56-1.53,.29-.39,.73-.54,1.17-.75,.44-.18,2.78-.84,3.42-1.05,.67-.21,.85-.36,.85-.54,.03-.27,.06-2.1,.06-2.46,0-.75-.85-2.01-2.28-2.01-.62,0-1,.18-1.2,.33-.18,.09-.26,.63-.21,1.23,0,.09-.12,.27-.18,.33-.29,.24-1.76,.99-1.9,.99-.17,0-.35-.24-.35-.39,0-.87,.82-1.71,2.19-2.63,.85-.63,2.17-1.14,2.72-1.14,1.46,0,2.19,.75,2.63,1.41Zm-6.12-3.95c-.15,.18-.18,.18-.29,.18-.09,0-.38-.42-.38-.48,0-.03,.94-1.38,1.96-2.04,.18-.15,.35-.15,.47-.12,.29,.09,2.17,.3,2.93,.3,.41,0,.64-.03,.85-.18,.26-.24,.62-.6,.76-.78,.15-.15,.62,.3,.62,.42,0,.06,0,.12-.09,.18-.15,.12-1.67,1.77-1.81,1.92s-.23,.21-.35,.21c-.44,0-2.52-.3-3.66-.3-.23,0-.73,.39-1,.69Zm4.19,12.87c.18-.12,.35-.69,.35-.75,.06-.72,.06-1.74,.06-2.33,0-.09-.12-.24-.23-.24-.82,0-2.22,.51-3.01,.9-.29,.21-.59,.42-.59,1.14,0,1.32,1.23,1.8,1.84,1.8,.44,0,1.02-.21,1.58-.51Z"/><path d="M227.56,15.97c.35,.27,.41,.63,.41,.93,0,.33-.56,1.08-1.02,1.08-.32,0-.53-.27-1.26-.81-1-.72-1.41-.84-2.31-.84-.61,0-1.49,.48-1.9,1.02-.79,.96-1.23,2.19-1.23,3.53,0,3.14,1.99,4.94,4.48,4.94,1.17,0,2.25-.54,2.78-1.02,.18-.15,.35-.09,.35,.18,0,.33-.15,.69-.38,.9-.76,.81-1.79,1.38-2.84,1.62-.5,.69-.91,1.2-.97,1.29-.06,.15,0,.24,.18,.36,1,.51,1.87,.96,1.87,2.25,0,.99-.79,1.92-1.43,2.46-.94,.75-1.49,.93-2.02,.93-.23,0-.53-.09-.7-.42-.15-.3-.12-.69-.03-.9,.15-.21,.23-.27,.41-.24,.44,.09,.94,.18,1.17,.18,.7,0,1.05-.57,1.05-1.14,0-.84-.82-1.41-1.64-1.41-.15,0-.29,0-.5,.03-.15,0-.44-.3-.44-.45,0-.09,0-.15,.18-.39,.53-.72,1.29-1.68,1.84-2.37h-.26c-1.96,0-3.54-.99-4.51-2.42-.5-.87-.88-2.19-.88-3.44,0-2.42,1.17-4.13,2.9-5.33,1.14-.84,2.72-1.26,3.63-1.26,1.64,0,2.49,.3,3.07,.75Z"/><path d="M259.82,16.39c.64,.63,1.02,1.47,1.02,2.52,0,.18-.23,.51-.56,.51s-5.33,0-6.67-.03c-.09,0-.2,.15-.23,.24-.09,.24-.15,.75-.15,1.05,0,1.17,.47,2.54,1.11,3.41,.64,.9,1.87,1.65,3.28,1.65,1.29,0,2.17-.33,2.66-1.08,.12-.18,.26-.36,.38-.36,.18,0,.23,.21,.23,.36,0,.24-.12,.57-.21,.72-1.02,1.53-2.58,2.25-4.24,2.25-3.16,0-5.27-2.46-5.27-5.96,0-2.4,1.23-4.79,3.51-5.87,.76-.36,1.73-.54,2.22-.54,1.02,0,2.17,.39,2.9,1.14Zm-6.15,1.86c-.06,.15,.06,.33,.12,.33,.76,.03,2.31,.03,3.78,0,.7,0,1-.15,1-.75,0-.84-.88-1.8-1.93-1.8-1.32,0-2.43,.84-2.96,2.21Zm4.59-10.3c.29,0,1.08,.06,1.26,.3,.12,.12,.03,.51-.12,.81-.58,1.14-2.02,3.47-2.72,4.4-.21,.27-.5,.57-.76,.57-.23,0-.21-.51-.12-.81,.35-1.08,1.2-3.38,1.79-4.64,.18-.42,.53-.63,.67-.63Z"/><path d="M301.82,16.39c.64,.63,1.02,1.47,1.02,2.52,0,.18-.23,.51-.56,.51s-5.33,0-6.67-.03c-.09,0-.2,.15-.23,.24-.09,.24-.15,.75-.15,1.05,0,1.17,.47,2.54,1.11,3.41,.64,.9,1.87,1.65,3.28,1.65,1.29,0,2.17-.33,2.66-1.08,.12-.18,.26-.36,.38-.36,.18,0,.23,.21,.23,.36,0,.24-.12,.57-.21,.72-1.02,1.53-2.58,2.25-4.24,2.25-3.16,0-5.27-2.46-5.27-5.96,0-2.4,1.23-4.79,3.51-5.87,.76-.36,1.73-.54,2.22-.54,1.02,0,2.17,.39,2.9,1.14Zm-2.58-7.12c.32,.6,1.11,2.1,1.9,3.74,.09,.21,.44,1.02-.06,1.02-.21,0-.64-.36-.79-.57-.56-.78-1.32-1.92-1.81-2.66-.06-.06-.2-.15-.29-.03-.47,.75-1.35,2.1-1.87,2.75-.12,.18-.32,.45-.59,.45-.21,0-.38-.36-.23-.69,.32-.87,1.46-2.96,2.08-4.16,.32-.6,.62-.99,.82-.99s.5,.42,.85,1.14Zm-3.57,8.98c-.06,.15,.06,.33,.12,.33,.76,.03,2.31,.03,3.78,0,.7,0,1-.15,1-.75,0-.84-.88-1.8-1.93-1.8-1.32,0-2.43,.84-2.96,2.21Z"/><path d="M21.9,51.46c.64,.63,1.02,1.47,1.02,2.52,0,.18-.23,.51-.56,.51s-5.33,0-6.67-.03c-.09,0-.2,.15-.23,.24-.09,.24-.15,.75-.15,1.05,0,1.17,.47,2.54,1.11,3.41,.64,.9,1.87,1.65,3.28,1.65,1.29,0,2.17-.33,2.66-1.08,.12-.18,.26-.36,.38-.36,.18,0,.23,.21,.23,.36,0,.24-.12,.57-.21,.72-1.02,1.53-2.58,2.25-4.24,2.25-3.16,0-5.27-2.46-5.27-5.96,0-2.4,1.23-4.79,3.51-5.87,.76-.36,1.73-.54,2.22-.54,1.02,0,2.17,.39,2.9,1.14Zm-4.59-5.66c0,.9-.64,1.32-1.26,1.32-.53,0-1.23-.45-1.23-1.29,0-.72,.5-1.41,1.29-1.41,.7,0,1.2,.69,1.2,1.38Zm-1.55,7.51c-.06,.15,.06,.33,.12,.33,.76,.03,2.31,.03,3.78,0,.7,0,1-.15,1-.75,0-.84-.88-1.8-1.93-1.8-1.32,0-2.43,.84-2.96,2.21Zm6.56-7.51c0,.72-.61,1.32-1.32,1.32-.64,0-1.26-.54-1.26-1.29,0-.87,.7-1.38,1.32-1.38,.67,0,1.26,.69,1.26,1.35Z"/><path d="M53.37,51.18c.64,.63,1.02,1.47,1.02,2.52,0,.18-.23,.51-.56,.51s-5.33,0-6.67-.03c-.09,0-.2,.15-.23,.24-.09,.24-.15,.75-.15,1.05,0,1.17,.47,2.54,1.11,3.41,.64,.9,1.87,1.65,3.28,1.65,1.29,0,2.17-.33,2.66-1.08,.12-.18,.26-.36,.38-.36,.18,0,.23,.21,.23,.36,0,.24-.12,.57-.21,.72-1.02,1.53-2.58,2.25-4.24,2.25-3.16,0-5.27-2.46-5.27-5.96,0-2.4,1.23-4.79,3.51-5.87,.76-.36,1.73-.54,2.22-.54,1.02,0,2.17,.39,2.9,1.14Zm-4.21-7.63c.38,.81,1.35,3.2,1.76,4.46,.09,.27,.12,.75-.12,.75s-.53-.27-.67-.48c-1-1.32-2.52-3.77-2.75-4.19-.21-.39-.26-.51-.23-.78,0-.18,.18-.42,.47-.54,.21-.09,.61-.27,.79-.27,.21,0,.38,.15,.76,1.05Zm-1.93,9.49c-.06,.15,.06,.33,.12,.33,.76,.03,2.31,.03,3.78,0,.7,0,1-.15,1-.75,0-.84-.88-1.8-1.93-1.8-1.32,0-2.43,.84-2.96,2.21Z"/><path d="M81.68,51.19c1.08-.24,2.46-.9,2.9-1.02,.12,0,.26,.3,.26,.33,0,.33-.18,4.22-.18,5.93s.03,2.93,.06,3.98c.03,.96,.67,1.02,1.4,1.26,.47,.15,.64,.3,.64,.51,0,.18-.35,.3-.67,.3-.21,0-1.67-.09-2.28-.09-.97,0-1.99,.12-2.49,.12-.47,0-.76-.12-.76-.33,0-.18,.21-.33,.7-.48,.67-.18,1.11-.54,1.17-.84,.09-.42,.12-2.22,.12-3.08,0-.06,.03-4.31-.03-4.67-.03-.21-.29-.45-1.14-1.08-.23-.15-.29-.24-.29-.39,0-.21,.26-.39,.58-.45Zm3.51-8.17c.29,0,1.08,.06,1.26,.3,.12,.12,.03,.51-.12,.81-.58,1.14-2.02,3.47-2.72,4.4-.21,.27-.5,.57-.76,.57-.23,0-.23-.51-.12-.81,.35-1.08,1.2-3.38,1.76-4.64,.21-.42,.53-.63,.7-.63Z"/><path d="M112.37,51.19c1.08-.24,2.46-.9,2.9-1.02,.12,0,.26,.3,.26,.33,0,.33-.18,4.22-.18,5.93s.03,2.93,.06,3.98c.03,.96,.67,1.02,1.4,1.26,.47,.15,.64,.3,.64,.51,0,.18-.35,.3-.67,.3-.21,0-1.67-.09-2.28-.09-.97,0-1.99,.12-2.49,.12-.47,0-.76-.12-.76-.33,0-.18,.21-.33,.7-.48,.67-.18,1.11-.54,1.17-.84,.09-.42,.12-2.22,.12-3.08,0-.06,.03-4.31-.03-4.67-.03-.21-.29-.45-1.14-1.08-.23-.15-.29-.24-.29-.39,0-.21,.26-.39,.58-.45Zm2.72-6.86c.32,.6,1.11,2.1,1.9,3.74,.09,.21,.44,1.02-.06,1.02-.21,0-.64-.36-.79-.57-.56-.78-1.32-1.92-1.84-2.66-.03-.06-.18-.15-.26-.03-.47,.75-1.35,2.1-1.87,2.75-.12,.18-.32,.45-.61,.45-.18,0-.35-.36-.23-.69,.35-.87,1.46-2.96,2.11-4.16,.32-.6,.61-.99,.82-.99,.18,0,.5,.42,.85,1.14Z"/><path d="M150.22,45.8c0,.9-.64,1.32-1.29,1.32-.5,0-1.2-.45-1.2-1.29,0-.72,.5-1.41,1.29-1.41,.7,0,1.2,.69,1.2,1.38Zm-.64,5.39c1.08-.24,2.46-.9,2.9-1.02,.12,0,.26,.3,.26,.33,0,.33-.18,4.22-.18,5.93s.03,2.93,.06,3.98c.03,.96,.67,1.02,1.4,1.26,.47,.15,.64,.3,.64,.51,0,.18-.35,.3-.67,.3-.21,0-1.67-.09-2.28-.09-.97,0-1.99,.12-2.49,.12-.47,0-.76-.12-.76-.33,0-.18,.21-.33,.7-.48,.67-.18,1.11-.54,1.17-.84,.09-.42,.12-2.22,.12-3.08,0-.06,.03-4.31-.03-4.67-.03-.21-.29-.45-1.14-1.08-.23-.15-.29-.24-.29-.39,0-.21,.26-.39,.58-.45Zm5.62-5.39c0,.72-.58,1.32-1.29,1.32s-1.29-.54-1.29-1.29c0-.87,.73-1.38,1.32-1.38,.67,0,1.26,.69,1.26,1.35Z"/><path d="M184.04,43.82c.35,.81,1.32,3.2,1.73,4.46,.09,.27,.12,.75-.12,.75s-.53-.27-.67-.48c-1-1.32-2.49-3.77-2.72-4.19-.23-.39-.26-.51-.26-.78,0-.18,.21-.42,.5-.54,.18-.09,.58-.27,.79-.27,.18,0,.35,.15,.76,1.05Zm-.67,7.37c1.08-.24,2.46-.9,2.9-1.02,.12,0,.26,.3,.26,.33,0,.33-.18,4.22-.18,5.93s.03,2.93,.06,3.98c.03,.96,.67,1.02,1.4,1.26,.47,.15,.64,.3,.64,.51,0,.18-.35,.3-.67,.3-.21,0-1.67-.09-2.28-.09-.97,0-1.99,.12-2.49,.12-.47,0-.76-.12-.76-.33,0-.18,.21-.33,.7-.48,.67-.18,1.11-.54,1.17-.84,.09-.42,.12-2.22,.12-3.08,0-.06,.03-4.31-.03-4.67-.03-.21-.29-.45-1.14-1.08-.23-.15-.29-.24-.29-.39,0-.21,.26-.39,.58-.45Z"/><path d="M221.04,51.13c.5-.18,1.55-.57,1.96-.87,.29-.18,.56-.33,.7-.33s.29,.33,.29,.45c0,.51-.12,1.23-.12,1.5,0,.15,.15,.09,.18,.09,1.17-.81,2.69-1.65,3.92-1.65,1.43,0,2.25,.66,2.66,1.14,.64,.78,1.02,2.16,1.02,3.65,0,.57,.06,5.03,.09,5.45,.06,.45,.35,.84,1.08,1.05,.56,.15,.73,.3,.73,.51s-.41,.33-.88,.33c-.67,0-1.35-.06-2.17-.06-.73,0-1.64,.06-2.02,.06-.26,0-.67-.12-.67-.36,0-.21,.32-.39,.67-.51,.7-.27,.85-.51,.91-1.5,.06-.99,.09-4.61,.09-5.48,0-1.08-.53-1.95-.88-2.21-.32-.24-1.2-.57-1.87-.57-1.29,0-2.05,.45-2.61,.96-.09,.09-.29,.45-.29,.72,0,.39,0,6.83,.03,7.19,.03,.42,.15,.66,1.08,.93,.29,.09,.53,.27,.53,.45,0,.21-.32,.36-.73,.36-.35,0-1.17-.03-1.79-.03-1.08,0-1.93,.09-2.43,.09-.44,0-.76-.12-.76-.39,0-.21,.29-.36,.61-.45,.97-.3,1.14-.6,1.23-1.68,.09-.9,.15-3.5,.15-6.56,0-.33-.06-.63-.7-1.17-.38-.27-.56-.42-.56-.51,0-.21,.32-.51,.53-.6Zm2.43-3.41c-.15,.18-.18,.18-.29,.18-.09,0-.41-.42-.41-.48,0-.03,.97-1.38,1.99-2.04,.18-.15,.35-.15,.44-.12,.32,.09,2.2,.3,2.96,.3,.38,0,.62-.03,.85-.18,.26-.24,.62-.6,.76-.78,.15-.15,.59,.3,.59,.42,0,.06,0,.12-.09,.18-.12,.12-1.67,1.77-1.81,1.92-.12,.15-.21,.21-.32,.21-.44,0-2.55-.3-3.66-.3-.26,0-.73,.39-1,.69Z"/><path d="M263.4,55.43c0,2.48-1.46,4.43-2.55,5.15-1.17,.87-2.31,1.2-3.63,1.2s-2.81-.63-3.89-1.56c-1.26-1.05-2.17-3.08-2.17-4.58,0-2.28,.94-3.71,2.05-4.67,.91-.81,2.37-1.65,4.33-1.65,2.9,0,5.85,2.33,5.85,6.11Zm-8.31-4.34c-.76,.72-1.43,2.27-1.43,3.83,0,.99,.12,1.92,.35,2.66,.73,2.25,2.4,3.32,3.8,3.32,.32,0,.97-.15,1.79-.99,.73-.81,1.32-2.66,1.32-3.95,0-1.56-.35-3.26-1.46-4.58-.64-.72-1.7-1.17-2.46-1.17-.62,0-1.29,.33-1.9,.87Zm3.86-9.04c.26,0,1.05,.06,1.23,.3,.12,.12,.03,.51-.12,.81-.58,1.14-2.02,3.47-2.69,4.4-.2,.27-.53,.57-.79,.57-.23,0-.21-.51-.12-.81,.35-1.08,1.2-3.38,1.79-4.64,.21-.42,.53-.63,.7-.63Z"/><path d="M304.07,56.4c0,2.48-1.46,4.43-2.55,5.15-1.17,.87-2.31,1.2-3.63,1.2s-2.81-.63-3.89-1.56c-1.26-1.05-2.17-3.08-2.17-4.58,0-2.28,.94-3.71,2.05-4.67,.91-.81,2.37-1.65,4.33-1.65,2.9,0,5.85,2.33,5.85,6.11Zm-8.31-4.34c-.76,.72-1.43,2.27-1.43,3.83,0,.99,.12,1.92,.35,2.66,.73,2.25,2.4,3.32,3.8,3.32,.32,0,.97-.15,1.79-.99,.73-.81,1.32-2.66,1.32-3.95,0-1.56-.35-3.26-1.46-4.58-.64-.72-1.7-1.17-2.46-1.17-.62,0-1.29,.33-1.9,.87Zm2.99-7.72c.32,.6,1.11,2.1,1.9,3.74,.09,.21,.44,1.02-.06,1.02-.21,0-.62-.36-.76-.57-.58-.78-1.35-1.92-1.84-2.66-.03-.06-.2-.15-.29-.03-.47,.75-1.35,2.1-1.84,2.75-.15,.18-.35,.45-.62,.45-.17,0-.35-.36-.23-.69,.32-.87,1.46-2.96,2.08-4.16,.32-.6,.62-.99,.85-.99,.18,0,.47,.42,.82,1.14Z"/><path d="M21.1,91.47c0,2.48-1.46,4.43-2.55,5.15-1.17,.87-2.31,1.2-3.63,1.2s-2.81-.63-3.89-1.56c-1.26-1.05-2.17-3.08-2.17-4.58,0-2.28,.94-3.71,2.05-4.67,.91-.81,2.37-1.65,4.33-1.65,2.9,0,5.85,2.33,5.85,6.11Zm-7.29-10.6c0,.9-.67,1.32-1.29,1.32-.53,0-1.2-.45-1.2-1.29,0-.72,.47-1.41,1.29-1.41,.67,0,1.2,.69,1.2,1.38Zm-1.02,6.26c-.76,.72-1.43,2.27-1.43,3.83,0,.99,.12,1.92,.35,2.66,.73,2.25,2.4,3.32,3.8,3.32,.32,0,.97-.15,1.79-.99,.73-.81,1.32-2.66,1.32-3.95,0-1.56-.35-3.26-1.46-4.58-.64-.72-1.7-1.17-2.46-1.17-.62,0-1.29,.33-1.9,.87Zm6-6.26c0,.72-.58,1.32-1.29,1.32s-1.29-.54-1.29-1.29c0-.87,.7-1.38,1.32-1.38,.67,0,1.26,.69,1.26,1.35Z"/><path d="M55.44,91.19c0,2.48-1.46,4.43-2.55,5.15-1.17,.87-2.31,1.2-3.63,1.2s-2.81-.63-3.89-1.56c-1.26-1.05-2.17-3.08-2.17-4.58,0-2.28,.94-3.71,2.05-4.67,.91-.81,2.37-1.65,4.33-1.65,2.9,0,5.85,2.33,5.85,6.11Zm-8.31-4.34c-.76,.72-1.43,2.27-1.43,3.83,0,.99,.12,1.92,.35,2.66,.73,2.25,2.4,3.32,3.8,3.32,.32,0,.97-.15,1.79-.99,.73-.81,1.32-2.66,1.32-3.95,0-1.56-.35-3.26-1.46-4.58-.64-.72-1.7-1.17-2.46-1.17-.62,0-1.29,.33-1.9,.87Zm1.35-8.29c.35,.84,1.32,3.2,1.73,4.46,.12,.27,.15,.75-.12,.75-.23,0-.53-.27-.67-.48-1-1.32-2.49-3.77-2.72-4.19-.23-.39-.26-.51-.26-.78,0-.15,.2-.39,.5-.54,.18-.09,.58-.27,.79-.27,.18,0,.35,.15,.76,1.05Z"/><path d="M92.95,91.47c0,2.48-1.46,4.43-2.55,5.15-1.17,.87-2.31,1.2-3.63,1.2s-2.81-.63-3.89-1.56c-1.26-1.05-2.17-3.08-2.17-4.58,0-2.28,.94-3.71,2.05-4.67,.91-.81,2.37-1.65,4.33-1.65,2.9,0,5.85,2.33,5.85,6.11Zm-9.25-8.44c-.15,.15-.18,.15-.29,.15-.09,0-.41-.42-.41-.48,0-.03,.97-1.38,1.99-2.04,.18-.15,.35-.15,.44-.12,.32,.09,2.2,.3,2.96,.3,.38,0,.64-.03,.85-.18,.26-.21,.61-.6,.76-.78,.15-.15,.58,.33,.58,.42,0,.06,0,.12-.09,.18-.12,.12-1.67,1.8-1.82,1.95-.12,.15-.2,.21-.32,.21-.44,0-2.55-.3-3.66-.3-.23,0-.73,.39-1,.69Zm.94,4.1c-.76,.72-1.43,2.27-1.43,3.83,0,.99,.12,1.92,.35,2.66,.73,2.25,2.4,3.32,3.8,3.32,.32,0,.97-.15,1.79-.99,.73-.81,1.32-2.66,1.32-3.95,0-1.56-.35-3.26-1.46-4.58-.64-.72-1.7-1.17-2.46-1.17-.62,0-1.29,.33-1.9,.87Z"/><path d="M114.48,85.54c.32,.06,.88,.3,.94,.33s.23,.24,.23,.42c0,.54,.09,1.56,.09,1.77,0,.27-.12,.54-.35,.54-.12,0-.29-.18-.44-.51-.64-1.41-1.38-2.01-2.34-2.01-1.2,0-1.76,1.23-1.76,1.86,0,1.02,.94,1.8,2.9,2.9,1.64,.99,2.28,2.01,2.28,3.35s-.97,2.4-1.7,2.93c-.53,.36-1.55,.69-2.46,.69s-2.34-.24-2.84-.66c-.09-.15-.44-1.41-.44-2.27,0-.33,.06-.63,.23-.63,.23,0,.44,.36,.61,.69,.82,1.53,1.61,2.12,2.66,2.12,.38,0,.85-.21,1.17-.45,.44-.36,.67-1.08,.67-1.65,0-.81-.41-1.44-1.32-2.01-.7-.51-.88-.66-1.79-1.26-.88-.57-1.82-1.62-1.82-3.02,0-1.02,.5-2.01,1.61-2.69,.56-.36,1.35-.63,2.34-.63,.56,0,1.17,.09,1.49,.18Zm-2.66-2.51c-.32-.6-1.14-2.1-1.93-3.74-.09-.18-.44-.99,.06-.99,.23,0,.64,.33,.79,.54,.61,.9,1.32,1.89,1.81,2.63,.03,.09,.2,.18,.29,.06,.59-.93,1.17-1.74,1.84-2.72,.12-.18,.44-.45,.73-.45,.17,0,.26,.33,.15,.66-.44,1.26-1.43,2.93-2.11,4.16-.29,.6-.62,1.02-.82,1.02-.18,0-.47-.45-.82-1.17Z"/><path d="M157.1,95.27c.18-.15,.44-.6,.44-.72l.06-6.89c0-.18-.32-.6-.5-.66-.44-.12-1.08-.3-1.35-.36-.2-.06-.58-.24-.58-.48,0-.12,.38-.27,.67-.27,1.17,0,2.46-.15,3.13-.33,.29-.09,.5-.12,.7-.12,.15,0,.21,.33,.21,.45-.06,.84-.29,7.48-.29,9.94,0,.06,.12,.42,.35,.42,.21,0,1.11-.15,1.46-.15,.12,0,.32,.48,.35,.57,0,.09-.21,.3-.32,.3-.76,.06-1.99,.39-2.66,.57-.5,.15-.97,.27-1.02,.27-.12,0-.29-.21-.29-.42,0-.18,.09-.75,.12-1.26,0-.15-.09-.24-.15-.21-.85,.6-2.02,1.38-2.4,1.53-.5,.21-1.14,.36-1.96,.36-1.05,0-1.99-.48-2.58-1.41-.21-.33-.41-.93-.41-1.41,0-2.16,0-5.54-.06-7.12-.03-.84-.59-.96-1.08-1.17-.26-.12-.53-.27-.53-.54,0-.09,.15-.27,.5-.27,.82,0,2.99-.33,3.1-.33s.23,.27,.23,.45c.03,1.02-.09,6.68-.09,8.02,0,.69,.32,1.38,.73,1.68,.76,.6,1.29,.6,1.99,.6s1.49-.39,2.22-1.05Zm-.82-17.21c.29,0,1.08,.06,1.26,.3,.12,.12,.03,.51-.12,.81-.59,1.14-2.02,3.47-2.72,4.4-.2,.27-.5,.57-.76,.57-.23,0-.2-.51-.12-.84,.35-1.05,1.2-3.35,1.79-4.61,.17-.42,.5-.63,.67-.63Z"/><path d="M194.76,95.27c.18-.15,.44-.6,.44-.72l.06-6.89c0-.18-.32-.6-.5-.66-.44-.12-1.08-.3-1.35-.36-.2-.06-.58-.24-.58-.48,0-.12,.38-.27,.67-.27,1.17,0,2.46-.15,3.13-.33,.29-.09,.5-.12,.7-.12,.15,0,.21,.33,.21,.45-.06,.84-.29,7.48-.29,9.94,0,.06,.12,.42,.35,.42,.21,0,1.11-.15,1.46-.15,.12,0,.32,.48,.35,.57,0,.09-.21,.3-.32,.3-.76,.06-1.99,.39-2.66,.57-.5,.15-.97,.27-1.02,.27-.12,0-.29-.21-.29-.42,0-.18,.09-.75,.12-1.26,0-.15-.09-.24-.15-.21-.85,.6-2.02,1.38-2.4,1.53-.5,.21-1.14,.36-1.96,.36-1.05,0-1.99-.48-2.58-1.41-.21-.33-.41-.93-.41-1.41,0-2.16,0-5.54-.06-7.12-.03-.84-.59-.96-1.08-1.17-.26-.12-.53-.27-.53-.54,0-.09,.15-.27,.5-.27,.82,0,2.99-.33,3.1-.33s.23,.27,.23,.45c.03,1.02-.09,6.68-.09,8.02,0,.69,.32,1.38,.73,1.68,.76,.6,1.29,.6,1.99,.6s1.49-.39,2.22-1.05Zm-1.58-15.87c.32,.6,1.11,2.1,1.9,3.74,.09,.21,.44,1.02-.06,1.02-.21,0-.62-.36-.76-.57-.58-.78-1.35-1.92-1.84-2.66-.03-.06-.2-.15-.29-.03-.47,.75-1.35,2.1-1.84,2.75-.15,.18-.35,.45-.62,.45-.17,0-.35-.36-.23-.69,.32-.87,1.46-2.96,2.08-4.16,.32-.6,.62-.99,.85-.99,.18,0,.47,.42,.82,1.14Z"/><path d="M228.38,95.27c.18-.15,.44-.6,.44-.72l.06-6.89c0-.18-.32-.6-.5-.66-.44-.12-1.08-.3-1.35-.36-.2-.06-.58-.24-.58-.48,0-.12,.38-.27,.67-.27,1.17,0,2.46-.15,3.13-.33,.29-.09,.5-.12,.7-.12,.15,0,.21,.33,.21,.45-.06,.84-.29,7.48-.29,9.94,0,.06,.12,.42,.35,.42,.21,0,1.11-.15,1.46-.15,.12,0,.32,.48,.35,.57,0,.09-.21,.3-.32,.3-.76,.06-1.99,.39-2.66,.57-.5,.15-.97,.27-1.02,.27-.12,0-.29-.21-.29-.42,0-.18,.09-.75,.12-1.26,0-.15-.09-.24-.15-.21-.85,.6-2.02,1.38-2.4,1.53-.5,.21-1.14,.36-1.96,.36-1.05,0-1.99-.48-2.58-1.41-.21-.33-.41-.93-.41-1.41,0-2.16,0-5.54-.06-7.12-.03-.84-.58-.96-1.08-1.17-.26-.12-.53-.27-.53-.54,0-.09,.15-.27,.5-.27,.82,0,2.98-.33,3.1-.33s.23,.27,.23,.45c.03,1.02-.09,6.68-.09,8.02,0,.69,.32,1.38,.73,1.68,.76,.6,1.29,.6,1.99,.6s1.49-.39,2.22-1.05Zm-3.78-14.4c0,.9-.64,1.32-1.26,1.32-.53,0-1.23-.45-1.23-1.29,0-.72,.5-1.41,1.29-1.41,.7,0,1.2,.69,1.2,1.38Zm5,0c0,.72-.62,1.32-1.32,1.32-.64,0-1.26-.54-1.26-1.29,0-.87,.7-1.38,1.32-1.38,.67,0,1.26,.69,1.26,1.35Z"/><path d="M263.24,95.27c.18-.15,.44-.6,.44-.72l.06-6.89c0-.18-.32-.6-.5-.66-.44-.12-1.08-.3-1.35-.36-.2-.06-.58-.24-.58-.48,0-.12,.38-.27,.67-.27,1.17,0,2.46-.15,3.13-.33,.29-.09,.5-.12,.7-.12,.15,0,.21,.33,.21,.45-.06,.84-.29,7.48-.29,9.94,0,.06,.12,.42,.35,.42,.21,0,1.11-.15,1.46-.15,.12,0,.32,.48,.35,.57,0,.09-.21,.3-.32,.3-.76,.06-1.99,.39-2.66,.57-.5,.15-.97,.27-1.02,.27-.12,0-.29-.21-.29-.42,0-.18,.09-.75,.12-1.26,0-.15-.09-.24-.15-.21-.85,.6-2.02,1.38-2.4,1.53-.5,.21-1.14,.36-1.96,.36-1.05,0-1.99-.48-2.58-1.41-.21-.33-.41-.93-.41-1.41,0-2.16,0-5.54-.06-7.12-.03-.84-.58-.96-1.08-1.17-.26-.12-.53-.27-.53-.54,0-.09,.15-.27,.5-.27,.82,0,2.98-.33,3.1-.33s.23,.27,.23,.45c.03,1.02-.09,6.68-.09,8.02,0,.69,.32,1.38,.73,1.68,.76,.6,1.29,.6,1.99,.6s1.49-.39,2.22-1.05Zm-3.37-16.38c.38,.81,1.35,3.2,1.76,4.46,.09,.27,.12,.75-.15,.75-.23,0-.53-.27-.67-.48-1-1.32-2.49-3.77-2.72-4.19-.23-.39-.26-.51-.26-.78,0-.18,.2-.42,.5-.54,.18-.09,.62-.27,.79-.27s.38,.15,.76,1.05Z"/><path d="M289.25,85.66c.73,0,1.43,.12,2.28,.12s1.7-.06,2.05-.06c.23,0,.64,.09,.64,.33,0,.21-.21,.39-.67,.51-.82,.24-.91,.39-.62,1.17,.44,1.44,2.31,6.14,2.55,6.5,.03,.06,.15,.06,.23-.12,.35-.81,2.17-5.66,2.31-6.14,.26-.84,.03-1.2-1.11-1.47-.35-.09-.61-.3-.61-.42,0-.27,.38-.33,.73-.33,.56,0,1.35,.03,1.73,.03,.41,0,1.08-.12,1.84-.12,.38,0,.59,.06,.59,.27,0,.27-.29,.39-.64,.51-.61,.21-1,.57-1.43,1.56-.97,2.25-2.55,6.26-3.22,7.99-1.02,2.72-2.11,5.81-3.04,8.35-.12,.39-.67,.84-1.52,.84-1,0-1.32-.84-1.32-1.47,0-.51,.47-1.32,1.29-1.32,.15,0,.76,.03,1.05,.03,.26,0,.32-.21,.44-.51,.26-.48,1.2-3.11,1.4-3.86,.09-.42,.21-.81,.09-1.08-.09-.21-.32-.9-.44-1.23-.61-1.77-2.43-6.23-3.34-8.11-.26-.54-.41-.84-1.38-1.17-.41-.15-.59-.27-.59-.45,0-.12,.09-.36,.7-.36Zm7.84-7.57c.29,0,1.08,.06,1.26,.3,.12,.12,.03,.51-.12,.81-.59,1.14-2.02,3.47-2.72,4.4-.21,.27-.5,.57-.76,.57-.23,0-.23-.51-.12-.81,.35-1.08,1.2-3.38,1.76-4.64,.21-.42,.53-.63,.7-.63Z"/><path d="M10.36,120.48c.73,0,1.43,.12,2.28,.12s1.7-.06,2.05-.06c.23,0,.64,.09,.64,.33,0,.21-.21,.39-.67,.51-.82,.24-.91,.39-.62,1.17,.44,1.44,2.31,6.14,2.55,6.5,.03,.06,.15,.06,.23-.12,.35-.81,2.17-5.66,2.31-6.14,.26-.84,.03-1.2-1.11-1.47-.35-.09-.61-.3-.61-.42,0-.27,.38-.33,.73-.33,.56,0,1.35,.03,1.73,.03,.41,0,1.08-.12,1.84-.12,.38,0,.59,.06,.59,.27,0,.27-.29,.39-.64,.51-.61,.21-1,.57-1.43,1.56-.97,2.25-2.55,6.26-3.22,7.99-1.02,2.72-2.11,5.81-3.04,8.35-.12,.39-.67,.84-1.52,.84-1,0-1.32-.84-1.32-1.47,0-.51,.47-1.32,1.29-1.32,.15,0,.76,.03,1.05,.03,.26,0,.32-.21,.44-.51,.26-.48,1.2-3.11,1.4-3.86,.09-.42,.21-.81,.09-1.08-.09-.21-.32-.9-.44-1.23-.61-1.77-2.43-6.23-3.34-8.11-.26-.54-.41-.84-1.38-1.17-.41-.15-.59-.27-.59-.45,0-.12,.09-.36,.7-.36Zm4.65-4.79c0,.9-.64,1.32-1.26,1.32-.53,0-1.23-.45-1.23-1.29,0-.72,.5-1.41,1.29-1.41,.7,0,1.2,.69,1.2,1.38Zm5,0c0,.72-.61,1.32-1.32,1.32-.64,0-1.26-.54-1.26-1.29,0-.87,.7-1.38,1.32-1.38,.67,0,1.26,.69,1.26,1.35Z"/><path d="M50.68,120.6c2.14,0,3.42-.15,4.07-.12q.12,0,.23,.09c.12,.09,.18,.33,.09,.45-.5,.69-1.02,1.29-1.76,2.4-.79,1.2-3.25,5.3-4.48,7.33-.12,.12,0,.27,.09,.3,.23,.09,2.58,.24,3.75,.24,.29,0,.47-.12,.7-.36,.41-.42,.94-1.05,1.43-1.77,.26-.39,.5-.66,.62-.66,.23,0,.26,.39,.23,.57-.09,.45-.58,1.92-.79,2.99,0,.12-.26,.36-.38,.36-.21,0-4.42-.15-5.82-.15-1.29,0-2.05,.09-2.72,.12-.12,0-.38-.27-.38-.42,0-.18,1.17-1.89,2.05-3.2,.85-1.2,2.9-4.61,4.27-6.89,.06-.09,.03-.21-.09-.24-.2-.06-2.4-.18-3.78-.18-.26,0-1.23,1.05-1.73,1.89-.09,.18-.23,.48-.44,.48-.12,0-.29-.27-.29-.51,0-.27,.09-.57,.23-1.02,.18-.6,.29-1.35,.29-1.86,0-.03,0-.15,.09-.24,.18-.15,.29-.15,.32-.12,.35,.27,1,.51,1.52,.51h2.66Zm-1.11-2.75c-.32-.6-1.11-2.1-1.9-3.74-.09-.18-.44-.99,.06-.99,.21,0,.61,.33,.76,.54,.64,.9,1.32,1.89,1.81,2.63,.06,.09,.23,.18,.32,.06,.58-.93,1.17-1.74,1.84-2.72,.12-.18,.44-.45,.7-.45,.18,0,.26,.33,.15,.66-.44,1.26-1.43,2.93-2.08,4.16-.29,.6-.61,1.02-.82,1.02s-.5-.45-.85-1.17Z"/><rect class="d" x=".5" y=".5" width="34.86" height="34.86"/><rect class="d" x="35.36" y=".5" width="34.86" height="34.86"/><rect class="d" x="70.22" y=".5" width="34.86" height="34.86"/><rect class="d" x="105.08" y=".5" width="34.86" height="34.86"/><rect class="d" x="139.94" y=".5" width="34.86" height="34.86"/><rect class="d" x="174.8" y=".5" width="34.86" height="34.86"/><rect class="d" x="209.65" y=".5" width="34.86" height="34.86"/><rect class="d" x="244.51" y=".5" width="34.86" height="34.86"/><rect class="d" x="279.37" y=".5" width="34.86" height="34.86"/><rect class="d" x=".5" y="35.36" width="34.86" height="34.86"/><rect class="d" x="35.36" y="35.36" width="34.86" height="34.86"/><rect class="d" x="70.22" y="35.36" width="34.86" height="34.86"/><rect class="d" x="105.08" y="35.36" width="34.86" height="34.86"/><rect class="d" x="139.94" y="35.36" width="34.86" height="34.86"/><rect class="d" x="174.8" y="35.36" width="34.86" height="34.86"/><rect class="d" x="209.65" y="35.36" width="34.86" height="34.86"/><rect class="d" x="244.51" y="35.36" width="34.86" height="34.86"/><rect class="d" x="279.37" y="35.36" width="34.86" height="34.86"/><rect class="d" x=".5" y="70.22" width="34.86" height="34.86"/><rect class="d" x="35.36" y="70.22" width="34.86" height="34.86"/><rect class="d" x="70.22" y="70.22" width="34.86" height="34.86"/><rect class="d" x="105.08" y="70.22" width="34.86" height="34.86"/><rect class="d" x="139.94" y="70.22" width="34.86" height="34.86"/><rect class="d" x="174.8" y="70.22" width="34.86" height="34.86"/><rect class="d" x="209.65" y="70.22" width="34.86" height="34.86"/><rect class="d" x="244.51" y="70.22" width="34.86" height="34.86"/><rect class="d" x="279.39" y="70.22" width="34.86" height="34.86"/><rect class="d" x=".5" y="105.05" width="34.86" height="34.86"/><rect class="d" x="35.41" y="105.05" width="34.86" height="34.86"/></g></g></g></svg>