<svg xmlns="http://www.w3.org/2000/svg" viewBox="0 0 102.82 69.42"><defs><style>.cls-1{fill:#fff;}</style></defs><g id="Calque_2" data-name="Calque 2"><g id="Calque_1-2" data-name="Calque 1"><path class="cls-1" d="M51.09,69.42q-22.56,0-45.13,0c-5.16,0-5.95-.82-5.95-6Q0,34.7,0,6C0,.87.86,0,6,0H96.65c5.43,0,6.16.76,6.16,6.24q0,28.67,0,57.35c0,4.9-.9,5.81-5.76,5.81Q74.07,69.44,51.09,69.42Zm.12-3.12c14.76,0,29.52-.1,44.28.07,3.46,0,4.48-1.06,4.46-4.45q-.21-27.22,0-54.43c0-3.44-1.06-4.44-4.48-4.43q-44.07.16-88.14,0C3.87,3,2.85,4.11,2.87,7.51q.21,27.21,0,54.42c0,3.45,1.06,4.47,4.48,4.43C22,66.2,36.59,66.29,51.21,66.3Z"/><path class="cls-1" d="M6.68,64.56c-1,.13-1.4-.61-1-1.5a9.13,9.13,0,0,1,1.87-2.17q13.32-13.3,26.66-26.57c3.35-3.32,4.35-3.14,7.61.38,8.23,8.88,16.58,17.66,24.84,26.52.72.78,2.55,1.61,1.13,2.89-1.2,1.09-2.19-.33-3-1.22-8.1-8.63-16.36-17.13-24.2-26-2.33-2.63-3.36-2-5.36,0-8.42,8.55-17,17-25.46,25.42C8.91,63.17,8.18,64.24,6.68,64.56Z"/><path class="cls-1" d="M82.62,29.85a9.63,9.63,0,0,1-9.68-9.23,9.51,9.51,0,1,1,19-.23A9.38,9.38,0,0,1,82.62,29.85Zm-.12-2.51a7.12,7.12,0,0,0,6.93-6.73c0-3.88-3.64-7.44-7.37-7.26a7.2,7.2,0,0,0-6.64,7.06A6.9,6.9,0,0,0,82.5,27.34Z"/><path class="cls-1" d="M58.08,48.44a35.41,35.41,0,0,1,7.37-8c1.92-1.65,3.78-.29,5.09,1.08,6.34,6.65,12.56,13.42,18.81,20.15.64.68,1.61,1.59.65,2.42-1.11,1-2-.18-2.73-.95-5.85-6.18-11.78-12.29-17.44-18.64-1.9-2.14-3-2-5-.22S62.13,49.24,58.08,48.44Z"/></g></g></svg>