<?xml version="1.0" encoding="UTF-8"?><svg xmlns="http://www.w3.org/2000/svg" viewBox="0 0 79.91 30.14"><defs><style>.d{fill:#fff;}</style></defs><g id="a"/><g id="b"><g id="c"><g><g><path class="d" d="M8.38,8.16c4.41,0,7.87,3.32,7.87,7.65,0,.58,0,1.35-.18,2.48H4.05c0,2.44,1.28,4.41,4.45,4.41,2.26,0,3.1-1.02,3.61-2.22h4.01c-.58,2.92-3.24,5.54-7.62,5.54C2.81,26.02,0,21.72,0,17.09c0-5.1,3.03-8.93,8.38-8.93Zm4.01,7.18c0-2.37-1.68-3.86-4.12-3.86s-4.19,1.35-4.19,3.86H12.39Z"/><path class="d" d="M21.68,0c1.48,0,2.67,1.18,2.67,2.67s-1.18,2.63-2.67,2.63-2.63-1.18-2.63-2.63,1.18-2.67,2.63-2.67Zm-1.97,25.59V8.6h3.97V25.59h-3.97Z"/><path class="d" d="M28.01,25.59V.07h3.97V16.11l6.23-7.51h4.96l-7.07,8.49,7.07,8.49h-4.96l-6.23-7.47v7.47h-3.97Z"/><path class="d" d="M51.9,8.16c5.43,0,9,4.12,9,8.93s-3.57,8.93-9,8.93-8.93-4.12-8.93-8.93,3.54-8.93,8.93-8.93Zm0,14.33c3.03,0,5.03-2.48,5.03-5.39s-2-5.39-5.03-5.39-4.96,2.48-4.96,5.39,1.93,5.39,4.96,5.39Z"/><path class="d" d="M63.82,25.59V8.6h3.97v2.37c1.06-1.86,3.03-2.81,5.54-2.81s4.12,.87,5.1,2.3c.84,1.28,1.09,2.7,1.09,5.03v10.1h-3.97v-8.79c0-2.92-.88-5.14-3.68-5.14s-4.08,2.22-4.08,5.14v8.79h-3.97Z"/></g><g><polygon class="d" points="34.91 28.32 .58 28.32 .58 30.14 35.77 30.14 34.91 28.32"/><polygon class="d" points="37.41 28.32 38.26 30.14 79.91 30.14 79.91 28.32 37.41 28.32"/></g></g></g></g></svg>