<?xml version="1.0" encoding="UTF-8"?><svg xmlns="http://www.w3.org/2000/svg" viewBox="0 0 47.15 35.61"><defs><style>.d{fill:none;stroke:#1d1d1b;stroke-miterlimit:10;}</style></defs><g id="a"/><g id="b"><g id="c"><g><path class="d" d="M23.53,35.08c5.8,0,11.6-.06,17.41,.02,3.35,.05,5.75-2.62,5.71-5.85-.08-7.75-.03-15.51-.02-23.26,0-1.46-.52-2.69-1.46-3.76-.33-.37-.57-.47-1.05-.16-6.37,4.19-12.78,8.32-19.13,12.56-1.07,.71-1.75,.72-2.83,0C15.79,10.4,9.37,6.26,2.98,2.06c-.42-.28-.65-.22-.97,.13-.95,1.06-1.5,2.29-1.5,3.74,0,7.87,0,15.73,0,23.6,0,.51,.06,1.03,.19,1.51,.62,2.44,2.7,4.03,5.26,4.03,5.86,0,11.71,0,17.57,0ZM4.42,.69v.16c.16,.12,.34,.25,.52,.37,1.31,.85,2.63,1.69,3.92,2.57,.41,.28,.81,.38,1.29,.38,4.12-.01,8.24-.01,12.36-.01,4.93,0,9.87,0,14.8,0,.23,0,.48-.07,.67-.19,1.46-.93,2.9-1.88,4.35-2.83,.14-.09,.27-.2,.41-.3l-.05-.2c-.8-.04-1.61-.12-2.41-.12-5.25,0-10.49,0-15.74,0-6.19,0-12.38,0-18.57,0-.52,0-1.04,.11-1.55,.17Z"/><path d="M23.53,35.08c-5.86,0-11.71,0-17.57,0-2.56,0-4.64-1.6-5.26-4.03-.12-.49-.19-1.01-.19-1.51-.01-7.87-.01-15.73,0-23.6,0-1.45,.55-2.68,1.5-3.74,.31-.35,.55-.4,.97-.13,6.39,4.2,12.82,8.34,19.18,12.58,1.07,.72,1.76,.71,2.83,0,6.35-4.23,12.76-8.36,19.13-12.56,.48-.32,.73-.22,1.05,.16,.94,1.07,1.46,2.3,1.46,3.76,0,7.75-.05,15.51,.02,23.26,.03,3.22-2.36,5.9-5.71,5.85-5.8-.09-11.6-.02-17.41-.02Zm17.72-3.67V10.41c-.2,.12-.34,.21-.48,.3-5.59,3.65-11.18,7.3-16.76,10.96-.32,.21-.54,.23-.87,.01-5.6-3.67-11.21-7.33-16.81-10.99-.14-.09-.29-.18-.46-.28V31.41H41.25Z"/><path d="M4.42,.69c.52-.06,1.04-.17,1.55-.17,6.19-.01,12.38,0,18.57,0,5.25,0,10.49,0,15.74,0,.8,0,1.61,.08,2.41,.12l.05,.2c-.14,.1-.27,.21-.41,.3-1.45,.95-2.89,1.9-4.35,2.83-.19,.12-.45,.19-.67,.19-4.93,0-9.87,0-14.8,0-4.12,0-8.24,0-12.36,.01-.48,0-.88-.11-1.29-.38-1.29-.88-2.61-1.71-3.92-2.57-.18-.12-.35-.25-.53-.37v-.16Z"/></g></g></g></svg>