<svg xmlns="http://www.w3.org/2000/svg" viewBox="0 0 925 292.82"><defs><style>.cls-1{fill:#f8f6fb;opacity:0.5;}.cls-2{font-size:56.32px;font-family:MilkmanRegular, Milkman;}.cls-3{letter-spacing:-0.02em;}.cls-4{letter-spacing:-0.02em;}.cls-5{letter-spacing:0em;}.cls-6{letter-spacing:0em;}.cls-7{letter-spacing:-0.05em;}.cls-8{letter-spacing:-0.02em;}.cls-9{letter-spacing:-0.02em;}.cls-10{letter-spacing:-0.02em;}.cls-11{letter-spacing:-0.01em;}.cls-12{letter-spacing:0em;}.cls-13{letter-spacing:-0.04em;}.cls-14{letter-spacing:0.01em;}.cls-15{letter-spacing:-0.02em;}.cls-16,.cls-25{letter-spacing:0em;}.cls-17{letter-spacing:-0.01em;}.cls-18{letter-spacing:-0.02em;}.cls-19{letter-spacing:0.01em;}.cls-20{letter-spacing:-0.04em;}.cls-21{letter-spacing:-0.02em;}.cls-22{letter-spacing:-0.03em;}.cls-23{letter-spacing:-0.05em;}.cls-24{letter-spacing:-0.02em;}.cls-25{font-family:MyriadPro-Regular, Myriad Pro;}.cls-26{font-size:51.99px;}.cls-27{opacity:0.8;}.cls-28{font-size:28.39px;fill:#040000;font-family:MilkmanLight, Milkman;}</style></defs><g id="Calque_2" data-name="Calque 2"><g id="Calque_6" data-name="Calque 6"><rect class="cls-1" width="628" height="292.82"/><text class="cls-2" transform="translate(25.46 101.17)">abc<tspan class="cls-3" x="87.42" y="0">d</tspan><tspan class="cls-4" x="117.42" y="0">e</tspan><tspan class="cls-5" x="144.03" y="0">f</tspan><tspan x="159.18" y="0">ghij</tspan><tspan class="cls-6" x="249.41" y="0">k</tspan><tspan x="280.53" y="0">lm</tspan><tspan class="cls-7" x="346.39" y="0">n</tspan><tspan class="cls-8" x="378.64" y="0">o</tspan><tspan x="407.46" y="0">pq</tspan><tspan class="cls-9" x="468.04" y="0">r</tspan><tspan x="490.42" y="0">s</tspan><tspan class="cls-10" x="517.67" y="0">t</tspan><tspan class="cls-11" x="534.78" y="0">u</tspan><tspan class="cls-12" x="565.22" y="0">vwx</tspan><tspan class="cls-13" x="674.33" y="0">y</tspan><tspan x="705.4" y="0">z</tspan><tspan class="cls-14" x="0" y="67.58">A</tspan><tspan x="36.68" y="67.58">B</tspan><tspan class="cls-15" x="68.77" y="67.58">C</tspan><tspan class="cls-3" x="105.26" y="67.58">D</tspan><tspan class="cls-16" x="140.27" y="67.58">E</tspan><tspan class="cls-17" x="173.7" y="67.58">F</tspan><tspan class="cls-18" x="203.95" y="67.58">G</tspan><tspan x="242.39" y="67.58">HIJ</tspan><tspan class="cls-19" x="308.3" y="67.58">K</tspan><tspan x="344.11" y="67.58">LM</tspan><tspan class="cls-20" x="436.39" y="67.58">N</tspan><tspan class="cls-21" x="471.39" y="67.58">O</tspan><tspan x="508.6" y="67.58">P</tspan><tspan class="cls-21" x="539.56" y="67.58">Q</tspan><tspan x="576.6" y="67.58">RSTUVWXYZ</tspan><tspan class="cls-3" x="0" y="135.16">0</tspan><tspan x="31.98" y="135.16">12</tspan><tspan class="cls-22" x="77.19" y="135.16">3</tspan><tspan x="102.24" y="135.16">45</tspan><tspan class="cls-23" x="159.38" y="135.16">6</tspan><tspan x="186.08" y="135.16">7</tspan><tspan class="cls-24" x="217.09" y="135.16">8</tspan><tspan x="244.4" y="135.16">9.:,;()*!?</tspan><tspan class="cls-25" x="418.38" y="135.16">&apos;</tspan><tspan x="428.96" y="135.16">@#&lt;&gt;$%&amp;^+-=~</tspan><tspan class="cls-26" x="765.51" y="135.16"> </tspan></text><g class="cls-27"><text class="cls-28" transform="translate(11.47 31.06)">milkman</text></g></g></g></svg>