<?xml version="1.0" encoding="utf-8"?>
<!-- Generator: Adobe Illustrator 26.1.0, SVG Export Plug-In . SVG Version: 6.00 Build 0)  -->
<svg version="1.1" id="Calque_1" xmlns="http://www.w3.org/2000/svg" xmlns:xlink="http://www.w3.org/1999/xlink" x="0px" y="0px"
	 viewBox="0 0 158.74 158.74" style="enable-background:new 0 0 158.74 158.74;" xml:space="preserve">
<style type="text/css">
	.st0{opacity:0.18;}
	.st1{fill:#5C63A7;}
</style>
<g class="st0">
	<path class="st1" d="M90.09,72.72c-0.07,0.09-0.11,0.21-0.11,0.33v0.62l46.52-6.16c7.38-0.98,13.93,4.76,13.93,12.21v0
		c0,7.01-6.12,12.44-13.08,11.61l-47.37-5.65v0.61c0,0.12,0.04,0.24,0.12,0.34l29.07,36.35c4.85,6.06,3.14,15.02-3.6,18.87l0,0
		c-6.6,3.77-15,0.95-18-6.03c-7.1-16.56-18.4-42.94-18.4-42.94h-0.8l-20.24,43.92c-3.06,6.64-11.26,9.06-17.44,5.16l0,0
		c-5.98-3.77-7.39-11.88-3.05-17.46l29.81-38.28c0.07-0.09,0.11-0.21,0.11-0.33v-0.61l-45.84,5.89c-7.11,0.91-13.4-4.62-13.4-11.79
		v0c0-7.27,6.39-12.88,13.6-11.95l45.25,5.85v-0.62c0-0.12-0.04-0.24-0.11-0.33l-29.1-37.77c-4.45-5.78-2.78-14.16,3.54-17.79l0,0
		c6.67-3.82,15.18-1.05,18.31,5.97l18.97,42.53h0.8l18.36-42.14c3.24-7.43,12.2-10.42,19.25-6.43l0,0c5.73,3.25,7.28,10.8,3.3,16.04
		L90.09,72.72z"/>
</g>
</svg>
