<?xml version="1.0" encoding="utf-8"?>
<!-- Generator: Adobe Illustrator 26.2.1, SVG Export Plug-In . SVG Version: 6.00 Build 0)  -->
<svg version="1.1" id="Calque_1" xmlns="http://www.w3.org/2000/svg" xmlns:xlink="http://www.w3.org/1999/xlink" x="0px" y="0px"
	 viewBox="0 0 158.7 158.7" style="enable-background:new 0 0 158.7 158.7;" xml:space="preserve">
<style type="text/css">
	.st0{fill:#FFFFFF;}
</style>
<g>
	<path class="st0" d="M90.1,72.7C90,72.8,90,72.9,90,73.1v0.6l46.5-6.2c7.4-1,13.9,4.8,13.9,12.2l0,0c0,7-6.1,12.4-13.1,11.6
		L90,85.7v0.6c0,0.1,0,0.2,0.1,0.3l29.1,36.3c4.8,6.1,3.1,15-3.6,18.9l0,0c-6.6,3.8-15,0.9-18-6c-7.1-16.6-18.4-42.9-18.4-42.9h-0.8
		l-20.2,43.9c-3.1,6.6-11.3,9.1-17.4,5.2l0,0c-6-3.8-7.4-11.9-3-17.5l29.8-38.3c0.1-0.1,0.1-0.2,0.1-0.3v-0.6l-45.8,5.9
		c-7.1,0.9-13.4-4.6-13.4-11.8l0,0c0-7.3,6.4-12.9,13.6-11.9l45.2,5.8v-0.6c0-0.1,0-0.2-0.1-0.3L38,34.6c-4.5-5.8-2.8-14.2,3.5-17.8
		l0,0c6.7-3.8,15.2-1.1,18.3,6l19,42.5h0.8L98,23.2c3.2-7.4,12.2-10.4,19.2-6.4l0,0c5.7,3.2,7.3,10.8,3.3,16L90.1,72.7z"/>
</g>
</svg>
