<?xml version="1.0" encoding="utf-8"?>
<!-- Generator: Adobe Illustrator 26.2.1, SVG Export Plug-In . SVG Version: 6.00 Build 0)  -->
<svg version="1.1" id="Calque_1" xmlns="http://www.w3.org/2000/svg" xmlns:xlink="http://www.w3.org/1999/xlink" x="0px" y="0px"
	 viewBox="0 0 100 20" style="enable-background:new 0 0 100 20;" xml:space="preserve">
<style type="text/css">
	.st0{fill:#FFFFFF;}
</style>
<g>
	<path class="st0" d="M7.8,4.81c0.12-0.12,0.3-0.19,0.53-0.19h0.67c0.17,0,0.29,0,0.38,0s0.2,0,0.36,0c0.19,0,0.33,0,0.43,0
		c0.09,0,0.23,0,0.41,0c0.16,0,0.28,0,0.35,0s0.19,0,0.35,0c0.2,0,0.35,0,0.45,0s0.25,0,0.43,0c0.16,0,0.28,0,0.36,0s0.2,0,0.36,0
		c0.24,0,0.47,0,0.71,0c0.07,0,0.14,0,0.21,0c0.13,0,0.23,0,0.29,0s0.16,0,0.29,0c0.11,0,0.21,0.02,0.29,0.04
		c0.08,0.03,0.16,0.08,0.22,0.14c0.07,0.07,0.12,0.15,0.16,0.25c0.04,0.09,0.05,0.2,0.05,0.32c0,0.26-0.06,0.45-0.18,0.57
		c-0.12,0.12-0.3,0.18-0.54,0.18c-0.23,0-0.46,0-0.71,0c-0.22,0-0.45,0-0.67,0c-0.23,0-0.4,0-0.52,0c-0.12,0-0.29,0-0.52,0
		c-0.21,0-0.43,0-0.65,0c-0.15,0-0.26,0-0.33,0c-0.07,0-0.17,0-0.31,0c-0.1,0-0.17,0-0.22,0s-0.11,0-0.2,0c-0.1,0-0.17,0-0.22,0
		s-0.12,0-0.22,0c-0.15,0-0.28,0.03-0.39,0.08C9.34,6.26,9.25,6.34,9.2,6.45C9.14,6.56,9.12,6.69,9.12,6.84c0,0.08,0,0.14,0,0.17
		s0,0.09,0,0.17s0,0.14,0,0.18s0,0.1,0,0.18c0,0.12,0,0.24,0,0.36c0,0.11,0,0.19,0,0.25c0,0.05,0,0.14,0,0.25
		c0,0.19,0.04,0.35,0.13,0.47c0.08,0.12,0.21,0.2,0.38,0.24c0.04,0.01,0.11,0.02,0.21,0.02c0.18,0,0.31,0,0.4,0s0.21,0,0.38,0
		c0.18,0,0.31,0,0.4,0s0.21,0,0.38,0c0.22,0,0.39-0.06,0.51-0.18c0.12-0.12,0.19-0.28,0.21-0.49V8.37c0-0.18,0.02-0.32,0.08-0.44
		c0.05-0.11,0.13-0.19,0.24-0.24c0.11-0.05,0.25-0.08,0.43-0.08c0.17,0,0.31,0.03,0.42,0.09s0.2,0.15,0.25,0.27
		c0.05,0.1,0.08,0.22,0.08,0.36c0,0.25,0,0.5,0,0.75c0,0.32,0,0.55,0,0.7c0,0.15,0,0.38,0,0.69v0.16c0,0.12,0,0.25,0,0.38
		c0,0.12,0,0.25,0,0.38c0,0.15-0.03,0.28-0.09,0.39c-0.06,0.11-0.15,0.19-0.25,0.25c-0.11,0.06-0.25,0.08-0.41,0.08
		c-0.14,0-0.26-0.02-0.36-0.06c-0.1-0.04-0.18-0.1-0.24-0.18c-0.05-0.07-0.09-0.15-0.11-0.25c-0.02-0.1-0.04-0.2-0.04-0.32
		c0-0.15-0.03-0.28-0.08-0.38c-0.06-0.1-0.14-0.18-0.24-0.23c-0.11-0.05-0.24-0.08-0.4-0.08c-0.22,0-0.45,0-0.67,0
		c-0.29,0-0.59,0-0.89,0c-0.15,0-0.28,0.03-0.39,0.08c-0.11,0.06-0.19,0.14-0.25,0.25c-0.05,0.11-0.08,0.24-0.08,0.39
		c0,0.16,0,0.28,0,0.36s0,0.2,0,0.36c0,0.14,0,0.24,0,0.31s0,0.17,0,0.31c0,0.21,0,0.37,0,0.47s0,0.26,0,0.46c0,0.11,0,0.23,0,0.35
		c0,0.1,0,0.17,0,0.23c0,0.05,0,0.12,0,0.22c0,0.23-0.07,0.41-0.2,0.53c-0.14,0.12-0.32,0.19-0.55,0.19c-0.5,0-0.75-0.24-0.75-0.72
		c0-0.07,0-0.12,0-0.16s0-0.1,0-0.17c0-0.11,0-0.19,0-0.24c0-0.05,0-0.12,0-0.23c0-0.35,0-0.61,0-0.78s0-0.42,0-0.77
		c0-0.26,0-0.51,0-0.77c0-0.17,0-0.3,0-0.38s0-0.21,0-0.37c0-0.25,0-0.49,0-0.73c0-0.24,0-0.48,0-0.72V7.62c0-0.19,0-0.33,0-0.43
		c0-0.09,0-0.24,0-0.43c0-0.22,0-0.44,0-0.66V5.85c0-0.17,0-0.34,0-0.51C7.62,5.11,7.68,4.93,7.8,4.81z"/>
	<path class="st0" d="M16.68,6.53c0.04-0.1,0.1-0.19,0.18-0.26c0.06-0.05,0.13-0.09,0.22-0.11s0.19-0.04,0.29-0.04
		c0.16,0,0.3-0.03,0.42-0.1c0.12-0.06,0.21-0.16,0.25-0.28s0.08-0.25,0.08-0.38c0-0.24,0.06-0.42,0.2-0.56
		c0.13-0.13,0.32-0.19,0.57-0.19c0.13,0,0.26,0,0.39,0c0.09,0,0.16,0,0.2,0s0.11,0,0.2,0c0.16,0,0.28,0,0.35,0c0.08,0,0.19,0,0.35,0
		s0.28,0,0.36,0s0.2,0,0.36,0c0.17,0,0.3,0,0.38,0s0.21,0,0.38,0c0.14,0,0.28,0.02,0.41,0.08c0.12,0.06,0.21,0.15,0.27,0.25
		c0.06,0.11,0.09,0.25,0.09,0.42c0,0.1,0.01,0.19,0.04,0.27c0.02,0.08,0.06,0.15,0.1,0.21c0.06,0.09,0.14,0.16,0.25,0.2
		c0.11,0.04,0.23,0.07,0.37,0.07c0.14,0,0.26,0.02,0.36,0.07s0.18,0.11,0.24,0.2c0.09,0.12,0.13,0.29,0.13,0.5c0,0.11,0,0.19,0,0.24
		c0,0.05,0,0.13,0,0.23c0,0.09,0,0.19,0,0.29c0,0.34,0,0.59,0,0.75s0,0.4,0,0.73v0.03c0,0.24,0,0.42,0,0.54c0,0.12,0,0.24,0,0.37
		s0,0.31,0,0.55c0,0.25,0,0.44,0,0.57s0,0.26,0,0.38s0,0.32,0,0.58c0,0.08,0,0.16,0,0.24c0,0.11,0,0.19,0,0.24s0,0.13,0,0.24
		c0,0.09-0.01,0.18-0.03,0.26c-0.02,0.08-0.04,0.15-0.08,0.21c-0.06,0.1-0.14,0.17-0.25,0.22c-0.1,0.05-0.23,0.08-0.38,0.08
		c-0.17,0-0.31,0.03-0.42,0.09s-0.19,0.15-0.25,0.26c-0.06,0.11-0.08,0.25-0.08,0.4c0,0.16-0.03,0.29-0.09,0.4
		c-0.06,0.11-0.15,0.2-0.26,0.26c-0.11,0.06-0.25,0.09-0.41,0.09c-0.05,0-0.09,0-0.12,0s-0.07,0-0.12,0c-0.11,0-0.19,0-0.24,0
		c-0.05,0-0.12,0-0.22,0c-0.16,0-0.28,0-0.35,0s-0.19,0-0.34,0c-0.18,0-0.31,0-0.4,0s-0.21,0-0.38,0c-0.18,0-0.32,0-0.41,0
		s-0.22,0-0.41,0c-0.13,0-0.25-0.02-0.34-0.05c-0.1-0.03-0.19-0.09-0.25-0.17c-0.05-0.07-0.09-0.15-0.12-0.23s-0.04-0.18-0.04-0.29
		c0-0.13-0.02-0.24-0.06-0.34c-0.04-0.1-0.1-0.17-0.17-0.23c-0.12-0.12-0.3-0.18-0.53-0.18c-0.16,0-0.29-0.03-0.41-0.09
		s-0.19-0.15-0.25-0.26c-0.06-0.11-0.09-0.25-0.09-0.41c0-0.12,0-0.21,0-0.26c0-0.06,0-0.14,0-0.26c0-0.1,0-0.19,0-0.29
		c0-0.17,0-0.29,0-0.38c0-0.08,0-0.2,0-0.36c0-0.13,0-0.23,0-0.29c0-0.06,0-0.16,0-0.29c0-0.19,0-0.33,0-0.43c0-0.1,0-0.24,0-0.43
		c0-0.26,0-0.52,0-0.77c0-0.19,0-0.33,0-0.43s0-0.23,0-0.41c0-0.15,0-0.26,0-0.33c0-0.07,0-0.18,0-0.33c0-0.08,0-0.16,0-0.24
		c0-0.11,0-0.19,0-0.24c0-0.05,0-0.13,0-0.24C16.62,6.76,16.64,6.64,16.68,6.53z M18.26,11.87c0.09,0.13,0.23,0.21,0.41,0.24
		c0.04,0.01,0.11,0.02,0.2,0.02c0.16,0,0.29,0.03,0.41,0.09c0.11,0.06,0.19,0.15,0.25,0.26c0.06,0.11,0.09,0.25,0.09,0.4
		c0,0.11,0.01,0.21,0.04,0.29c0.03,0.08,0.06,0.15,0.11,0.21c0.06,0.08,0.14,0.14,0.25,0.19c0.11,0.04,0.22,0.07,0.35,0.07
		c0.16,0,0.29-0.03,0.41-0.09c0.11-0.06,0.19-0.15,0.25-0.26c0.06-0.11,0.09-0.24,0.09-0.4c0-0.24,0.06-0.42,0.2-0.56
		c0.13-0.13,0.31-0.19,0.55-0.19c0.12,0,0.22-0.02,0.32-0.04c0.09-0.03,0.17-0.08,0.24-0.15c0.06-0.06,0.11-0.14,0.14-0.24
		c0.04-0.1,0.05-0.21,0.05-0.33c0-0.12,0-0.21,0-0.28s0-0.13,0-0.19s0-0.15,0-0.27c0-0.17,0-0.29,0-0.38s0-0.2,0-0.36s0-0.28,0-0.36
		c0-0.08,0-0.2,0-0.36c0-0.2,0-0.4,0-0.58V8.39c0-0.11-0.01-0.21-0.03-0.29c-0.02-0.08-0.05-0.15-0.1-0.21
		c-0.06-0.09-0.14-0.16-0.25-0.2c-0.1-0.04-0.23-0.07-0.37-0.07c-0.16,0-0.29-0.03-0.41-0.09s-0.19-0.15-0.25-0.26
		c-0.06-0.11-0.09-0.24-0.09-0.4c0-0.16-0.03-0.29-0.09-0.4c-0.06-0.11-0.15-0.2-0.25-0.26c-0.11-0.06-0.25-0.09-0.41-0.09
		c-0.21,0-0.38,0.05-0.5,0.15c-0.12,0.1-0.2,0.24-0.23,0.42c-0.01,0.04-0.01,0.1-0.01,0.18c0,0.16-0.03,0.29-0.09,0.4
		c-0.06,0.11-0.15,0.2-0.25,0.26c-0.11,0.06-0.25,0.09-0.41,0.09s-0.29,0.03-0.41,0.09s-0.19,0.15-0.25,0.26
		c-0.06,0.12-0.09,0.25-0.09,0.41c0,0.07,0,0.12,0,0.17s0,0.1,0,0.17c0,0.1,0,0.17,0,0.22s0,0.11,0,0.2c0,0.15,0,0.26,0,0.33
		s0,0.18,0,0.33c0,0.19,0,0.33,0,0.42c0,0.09,0,0.22,0,0.4c0,0.08,0,0.14,0,0.19s0,0.11,0,0.19s0,0.14,0,0.18s0,0.1,0,0.18
		C18.12,11.57,18.16,11.74,18.26,11.87z"/>
	<path class="st0" d="M25.65,5.09c0.03-0.08,0.06-0.16,0.11-0.23c0.07-0.08,0.16-0.14,0.26-0.18c0.11-0.04,0.22-0.06,0.35-0.06
		c0.2,0,0.35,0,0.45,0s0.25,0,0.44,0c0.12,0,0.24,0,0.36,0c0.19,0,0.33,0,0.42,0s0.23,0,0.41,0c0.11,0,0.19,0,0.25,0
		c0.06,0,0.11,0,0.16,0c0.05,0,0.13,0,0.24,0c0.09,0,0.17,0,0.25,0c0.16,0,0.28,0.02,0.38,0.06c0.13,0.06,0.23,0.15,0.29,0.26
		c0.07,0.12,0.1,0.26,0.1,0.44v0.71c0,0.17,0,0.3,0,0.38s0,0.21,0,0.38c0,0.17,0,0.3,0,0.38s0,0.21,0,0.38s0,0.29,0,0.38
		s0,0.21,0,0.38s0,0.29,0,0.38s0,0.21,0,0.38c0,0.12,0,0.21,0,0.26c0,0.05,0,0.14,0,0.26c0,0.19,0,0.33,0,0.43s0,0.24,0,0.43
		c0,0.16,0,0.28,0,0.35c0,0.08,0,0.19,0,0.35c0,0.2,0,0.35,0,0.45s0,0.25,0,0.44c0,0.17,0,0.3,0,0.38s0,0.21,0,0.38
		c0,0.16,0.03,0.3,0.09,0.41c0.06,0.12,0.14,0.2,0.25,0.26s0.25,0.09,0.41,0.09h0.06c0.22-0.01,0.39-0.08,0.51-0.22
		c0.12-0.14,0.18-0.32,0.18-0.55c0-0.12,0-0.23,0-0.34c0-0.14,0-0.28,0-0.42c0-0.19,0-0.33,0-0.43c0-0.09,0-0.23,0-0.41
		c0-0.15,0-0.26,0-0.33c0-0.07,0-0.17,0-0.31v-0.03c0-0.25,0-0.44,0-0.57c0-0.13,0-0.26,0-0.38s0-0.31,0-0.56c0-0.24,0-0.42,0-0.53
		c0-0.12,0-0.29,0-0.52c0-0.12,0-0.21,0-0.26c0-0.05,0-0.14,0-0.26c0-0.15,0-0.26,0-0.34c0-0.07,0-0.19,0-0.34c0-0.16,0-0.28,0-0.35
		c0-0.07,0-0.19,0-0.34V5.39c0-0.14,0.02-0.25,0.06-0.33c0.04-0.14,0.12-0.25,0.24-0.32c0.12-0.07,0.27-0.11,0.45-0.11
		c0.24,0,0.42,0.06,0.55,0.19c0.13,0.13,0.2,0.32,0.2,0.57c0,0.09,0,0.19,0,0.28c0,0.1,0,0.17,0,0.22s0,0.11,0,0.2v0.15
		c0,0.29,0,0.5,0,0.65s0,0.35,0,0.63c0,0.18,0,0.31,0,0.4s0,0.21,0,0.38c0,0.18,0,0.32,0,0.41s0,0.22,0,0.39v1.56
		c0,0.17,0,0.3,0,0.38c0,0.08,0,0.2,0,0.36s0,0.28,0,0.36s0,0.2,0,0.36c0,0.17,0,0.3,0,0.38s0,0.21,0,0.38s0,0.3,0,0.38
		c0,0.09,0,0.21,0,0.38c0,0.08,0,0.14,0,0.18c0,0.04,0,0.1,0,0.18c0,0.12,0,0.24,0,0.36c0,0.18-0.04,0.33-0.11,0.44
		c-0.05,0.1-0.13,0.18-0.25,0.24s-0.25,0.09-0.41,0.09c-0.1,0-0.17,0-0.22,0s-0.11,0-0.2,0c-0.07,0-0.13,0-0.17,0
		c-0.04,0-0.1,0-0.17,0c-0.17,0-0.3,0-0.38,0c-0.08,0-0.2,0-0.36,0c-0.15,0-0.26,0-0.33,0s-0.18,0-0.33,0h-0.83
		c-0.1,0-0.19-0.01-0.28-0.03s-0.16-0.06-0.23-0.1c-0.08-0.07-0.14-0.16-0.19-0.26s-0.07-0.23-0.07-0.37c0-0.16,0-0.28,0-0.35
		c0-0.07,0-0.19,0-0.34c0-0.22,0-0.44,0-0.65c0-0.23,0-0.4,0-0.51s0-0.27,0-0.5c0-0.31,0-0.54,0-0.68c0-0.14,0-0.37,0-0.67
		c0-0.24,0-0.47,0-0.71c0-0.19,0-0.33,0-0.42s0-0.23,0-0.4c0-0.21,0-0.37,0-0.47s0-0.26,0-0.47c0-0.15,0-0.26,0-0.34
		c0-0.07,0-0.19,0-0.34c0-0.07,0-0.12,0-0.16c0-0.03,0-0.09,0-0.16s0-0.12,0-0.16c0-0.03,0-0.09,0-0.16c0-0.25-0.07-0.44-0.2-0.57
		c-0.13-0.13-0.31-0.19-0.55-0.19c-0.16,0-0.29,0.03-0.41,0.08c-0.11,0.06-0.19,0.14-0.25,0.25c-0.06,0.12-0.09,0.27-0.09,0.44
		c0,0.08,0,0.14,0,0.19s0,0.11,0,0.19c0,0.09,0,0.15,0,0.19s0,0.1,0,0.19c0,0.17,0,0.3,0,0.38c0,0.08,0,0.21,0,0.38
		c0,0.17,0,0.3,0,0.38s0,0.21,0,0.38c0,0.25,0,0.44,0,0.56s0,0.3,0,0.54c0,0.14,0,0.28,0,0.42c0,0.16,0,0.28,0,0.35
		c0,0.07,0,0.19,0,0.35c0,0.18,0,0.31,0,0.4s0,0.23,0,0.41c0,0.16,0,0.28,0,0.35c0,0.07,0,0.19,0,0.35c0,0.16,0,0.28,0,0.36
		s0,0.2,0,0.36c0,0.12,0,0.24,0,0.36c0,0.08,0,0.14,0,0.19s0,0.11,0,0.19c0,0.06-0.01,0.14-0.03,0.24c-0.04,0.17-0.12,0.3-0.24,0.39
		c-0.12,0.09-0.28,0.13-0.48,0.13c-0.24,0-0.42-0.06-0.55-0.19c-0.13-0.13-0.2-0.32-0.2-0.57c0-0.16,0-0.32,0-0.48
		c0-0.16,0-0.31,0-0.46c0-0.23,0-0.46,0-0.67c0-0.16,0-0.28,0-0.35c0-0.08,0-0.19,0-0.35c0-0.24,0-0.48,0-0.72c0-0.16,0-0.28,0-0.36
		s0-0.2,0-0.36c0-0.17,0-0.3,0-0.38s0-0.21,0-0.37c0-0.17,0-0.29,0-0.38s0-0.2,0-0.36c0-0.33,0-0.57,0-0.73c0-0.15,0-0.39,0-0.71
		c0-0.26,0-0.46,0-0.58s0-0.26,0-0.39c0-0.13,0-0.32,0-0.58c0-0.24,0-0.48,0-0.72C25.62,5.28,25.63,5.18,25.65,5.09z"/>
	<path class="st0" d="M37.53,6.47c-0.06-0.11-0.15-0.2-0.25-0.26c-0.11-0.06-0.25-0.09-0.41-0.09s-0.29,0.03-0.41,0.09
		s-0.19,0.15-0.25,0.26c-0.06,0.11-0.09,0.25-0.09,0.4c0,0.1-0.02,0.22-0.06,0.36c-0.04,0.09-0.09,0.16-0.16,0.22
		c-0.06,0.06-0.14,0.1-0.23,0.13c-0.09,0.03-0.19,0.04-0.3,0.04c-0.18,0-0.33-0.04-0.44-0.1c-0.12-0.07-0.2-0.17-0.25-0.31
		C34.64,7.11,34.62,7,34.62,6.86c0-0.17,0-0.33,0-0.49c0-0.1,0-0.2,0-0.3c0-0.15,0-0.26,0-0.34s0-0.19,0-0.34
		c0-0.11,0.01-0.21,0.04-0.29c0.03-0.08,0.06-0.16,0.11-0.23c0.07-0.08,0.15-0.14,0.25-0.18c0.1-0.04,0.22-0.06,0.36-0.06h0.86
		c0.23,0,0.46,0,0.69,0c0.15,0,0.26,0,0.34,0s0.19,0,0.34,0c0.2,0,0.35,0,0.44,0c0.09,0,0.24,0,0.43,0c0.21,0,0.41,0,0.61,0
		c0.16,0,0.28,0,0.35,0s0.19,0,0.34,0c0.16,0,0.28,0,0.35,0s0.19,0,0.34,0c0.07,0,0.12,0,0.17,0s0.1,0,0.17,0c0.13,0,0.23,0,0.29,0
		c0.06,0,0.15,0,0.27,0c0.16,0,0.3,0.03,0.41,0.09s0.2,0.15,0.26,0.26c0.06,0.12,0.09,0.25,0.09,0.41c0,0.05,0,0.09,0,0.11
		s0,0.06,0,0.11c0,0.11,0,0.19,0,0.24c0,0.05,0,0.12,0,0.23c0,0.07,0,0.12,0,0.15s0,0.08,0,0.15c0,0.11,0,0.19,0,0.24s0,0.13,0,0.24
		c0,0.16-0.03,0.3-0.09,0.41c-0.06,0.12-0.15,0.2-0.25,0.26c-0.11,0.06-0.25,0.09-0.41,0.09c-0.09,0-0.17-0.01-0.25-0.03
		S40.96,7.54,40.9,7.5c-0.09-0.06-0.16-0.14-0.21-0.25c-0.05-0.1-0.08-0.23-0.08-0.38c0-0.24-0.07-0.42-0.2-0.56
		c-0.13-0.13-0.31-0.19-0.55-0.19c-0.12,0-0.23,0.02-0.32,0.05c-0.1,0.04-0.17,0.08-0.23,0.14c-0.13,0.13-0.2,0.32-0.2,0.57
		c0,0.05,0,0.08,0,0.1s0,0.06,0,0.1c0,0.11,0,0.19,0,0.24c0,0.05,0,0.13,0,0.23c0,0.24,0,0.42,0,0.54s0,0.24,0,0.37s0,0.31,0,0.55
		v0.09c0,0.25,0,0.44,0,0.56c0,0.13,0,0.25,0,0.38c0,0.13,0,0.31,0,0.56c0,0.21,0,0.37,0,0.47s0,0.26,0,0.47c0,0.16,0,0.32,0,0.48
		c0,0.19,0,0.33,0,0.42s0,0.23,0,0.4c0,0.16,0.03,0.3,0.09,0.41c0.06,0.12,0.14,0.2,0.25,0.26s0.25,0.09,0.41,0.09
		c0.07,0,0.16,0.01,0.25,0.03c0.16,0.05,0.28,0.14,0.37,0.26c0.08,0.12,0.13,0.27,0.13,0.46c0,0.16-0.03,0.29-0.09,0.4
		c-0.06,0.11-0.15,0.2-0.26,0.26s-0.25,0.09-0.41,0.09c-0.1,0-0.17,0-0.22,0s-0.12,0-0.22,0c-0.08,0-0.17,0-0.25,0
		c-0.16,0-0.28,0-0.35,0s-0.19,0-0.35,0c-0.18,0-0.31,0-0.41,0c-0.09,0-0.22,0-0.4,0c-0.11,0-0.19,0-0.24,0s-0.12,0-0.22,0
		c-0.1,0-0.2,0-0.3,0c-0.16,0-0.3-0.03-0.41-0.09s-0.2-0.15-0.26-0.26c-0.06-0.11-0.09-0.24-0.09-0.4c0-0.19,0.04-0.35,0.13-0.46
		c0.08-0.12,0.2-0.21,0.35-0.26c0.04-0.01,0.08-0.02,0.13-0.02c0.04,0,0.09-0.01,0.14-0.01c0.08,0,0.14,0,0.18-0.02
		c0.18-0.03,0.32-0.11,0.42-0.24c0.1-0.13,0.15-0.3,0.15-0.51c0-0.19,0-0.33,0-0.43s0-0.23,0-0.41v-0.4c0-0.24,0-0.42,0-0.54
		c0-0.12,0-0.29,0-0.53c0-0.14,0-0.24,0-0.31s0-0.17,0-0.31c0-0.17,0-0.3,0-0.38s0-0.21,0-0.38c0-0.34,0-0.59,0-0.77
		c0-0.17,0-0.42,0-0.75c0-0.11,0-0.19,0-0.25c0-0.06,0-0.14,0-0.25c0-0.09,0-0.18,0-0.27C37.62,6.73,37.59,6.59,37.53,6.47z"/>
	<path class="st0" d="M49.05,4.81c0.12-0.12,0.3-0.19,0.53-0.19c0.12,0,0.24,0,0.36,0c0.11,0,0.19,0,0.24,0c0.05,0,0.13,0,0.24,0
		c0.18,0,0.31,0,0.4,0s0.21,0,0.38,0c0.13,0,0.23,0,0.29,0s0.15,0,0.27,0c0.33,0,0.58,0,0.74,0s0.41,0,0.73,0c0.11,0,0.19,0,0.24,0
		c0.05,0,0.12,0,0.22,0c0.15,0,0.3,0,0.45,0c0.18,0,0.33,0.04,0.45,0.11c0.12,0.08,0.2,0.18,0.24,0.32
		c0.02,0.12,0.03,0.22,0.03,0.29c0,0.18,0,0.31,0,0.4s0,0.22,0,0.39c0,0.23,0,0.4,0,0.52s0,0.24,0,0.35c0,0.12,0,0.29,0,0.53
		c0,0.19,0,0.33,0,0.43c0,0.1,0,0.24,0,0.43c0,0.23-0.07,0.41-0.2,0.53c-0.14,0.12-0.32,0.19-0.55,0.19c-0.19,0-0.34-0.03-0.46-0.1
		c-0.12-0.06-0.2-0.17-0.25-0.31c-0.03-0.09-0.04-0.2-0.04-0.32V7.7c0-0.1,0-0.17,0-0.22s0-0.11,0-0.2c0-0.1,0-0.17,0-0.22
		s0-0.12,0-0.22c0-0.15-0.03-0.28-0.08-0.39c-0.06-0.11-0.14-0.19-0.25-0.25c-0.11-0.05-0.24-0.08-0.39-0.08c-0.1,0-0.18,0-0.23,0
		s-0.12,0-0.22,0c-0.11,0-0.19,0-0.24,0s-0.13,0-0.24,0c-0.06,0-0.1,0-0.13,0c-0.03,0-0.07,0-0.13,0c-0.08,0-0.14,0-0.19,0
		s-0.11,0-0.19,0c-0.09,0-0.17,0.01-0.25,0.03c-0.08,0.02-0.15,0.05-0.21,0.09c-0.08,0.06-0.14,0.14-0.19,0.25s-0.07,0.22-0.07,0.35
		c0,0.11,0,0.19,0,0.25c0,0.06,0,0.14,0,0.25c0,0.1,0,0.2,0,0.3c0,0.16,0,0.28,0,0.35c0,0.07,0,0.19,0,0.34c0,0.19,0,0.33,0,0.43
		c0,0.1,0,0.23,0,0.41c0,0.14,0,0.24,0,0.31s0,0.16,0,0.29c0,0.15,0,0.26,0,0.33s0,0.17,0,0.31c0,0.19,0,0.33,0,0.43
		c0,0.1,0,0.23,0,0.41c0,0.18,0,0.31,0,0.4c0,0.09,0,0.21,0,0.38c0,0.07,0,0.12,0,0.17s0,0.08,0,0.11s0,0.09,0,0.17
		c0,0.1,0,0.17,0,0.22s0,0.11,0,0.2c0,0.1,0.01,0.19,0.03,0.26c0.02,0.08,0.05,0.14,0.1,0.2c0.04,0.06,0.1,0.11,0.16,0.15
		c0.05,0.04,0.11,0.07,0.19,0.08s0.16,0.02,0.25,0.02c0.14,0,0.24,0,0.31,0s0.17,0,0.31,0c0.08,0,0.16,0,0.24,0
		c0.16,0,0.31,0,0.46,0c0.21,0,0.37,0,0.46,0s0.25,0,0.45,0c0.22,0,0.38,0,0.49,0c0.11,0,0.26,0,0.47,0c0.15,0,0.26,0,0.33,0
		c0.07,0,0.17,0,0.31,0c0.12,0,0.24,0,0.35,0c0.09,0,0.15,0,0.19,0s0.1,0,0.18,0c0.16,0,0.29,0.03,0.4,0.08
		c0.1,0.06,0.18,0.14,0.24,0.25c0.05,0.11,0.08,0.25,0.08,0.42c0,0.09-0.01,0.17-0.02,0.25c-0.01,0.07-0.04,0.14-0.08,0.2
		c-0.06,0.1-0.14,0.17-0.25,0.22c-0.1,0.05-0.23,0.08-0.37,0.08c-0.1,0-0.18,0-0.23,0s-0.12,0-0.22,0c-0.09,0-0.16,0-0.2,0
		s-0.1,0-0.19,0c-0.1,0-0.17,0-0.22,0s-0.11,0-0.2,0c-0.18,0-0.31,0-0.4,0s-0.17,0-0.26,0c-0.09,0-0.23,0-0.41,0
		c-0.2,0-0.35,0-0.45,0s-0.25,0-0.43,0c-0.11,0-0.19,0-0.24,0s-0.13,0-0.24,0c-0.21,0-0.37,0-0.47,0c-0.1,0-0.26,0-0.46,0
		c-0.14,0-0.25,0-0.32,0c-0.07,0-0.17,0-0.31,0h-0.27c-0.12,0-0.21,0-0.27,0c-0.06,0-0.15,0-0.27,0c-0.15,0-0.28-0.03-0.39-0.08
		c-0.11-0.05-0.19-0.14-0.25-0.25c-0.05-0.11-0.08-0.24-0.08-0.39c0-0.18,0-0.35,0-0.52v-0.27c0-0.51,0-1.01,0-1.51
		c0-0.2,0-0.35,0-0.45s0-0.25,0-0.44c0-0.16,0-0.28,0-0.35c0-0.07,0-0.19,0-0.35c0-0.17,0-0.29,0-0.38c0-0.08,0-0.2,0-0.36
		c0-0.15,0-0.26,0-0.33c0-0.07,0-0.18,0-0.33s0-0.26,0-0.34s0-0.19,0-0.34c0-0.2,0-0.35,0-0.45c0-0.1,0-0.24,0-0.44
		c0-0.22,0-0.38,0-0.49s0-0.27,0-0.5c0-0.18,0-0.35,0-0.52c0-0.08,0-0.14,0-0.18s0-0.1,0-0.18c0-0.07,0-0.12,0-0.17
		c0-0.04,0-0.09,0-0.16C48.87,5.11,48.93,4.93,49.05,4.81z"/>
	<path class="st0" d="M57.95,4.97c0.06-0.11,0.14-0.2,0.25-0.26c0.11-0.06,0.25-0.09,0.42-0.09c0.23,0,0.41,0.07,0.55,0.2
		c0.13,0.13,0.2,0.32,0.2,0.55c0,0.06,0,0.11,0,0.14s0,0.08,0,0.14c0,0.1,0,0.17,0,0.22c0,0.05,0,0.13,0,0.23c0,0.34,0,0.59,0,0.76
		s0,0.41,0,0.74v0.12c0,0.31,0,0.54,0,0.69s0,0.38,0,0.68c0,0.15,0,0.26,0,0.33c0,0.07,0,0.18,0,0.33c0,0.2,0,0.35,0,0.45
		s0,0.25,0,0.45c0,0.22,0,0.38,0,0.49s0,0.26,0,0.47c0,0.16,0,0.32,0,0.48v0.81c0,0.12,0.01,0.23,0.04,0.32
		c0.03,0.09,0.08,0.16,0.15,0.22c0.12,0.12,0.29,0.18,0.52,0.18c0.15,0,0.26,0,0.34,0s0.15,0,0.22,0s0.19,0,0.34,0
		c0.17,0,0.3,0,0.38,0c0.08,0,0.21,0,0.37,0c0.13,0,0.22,0,0.29,0c0.06,0,0.15,0,0.27,0c0.19,0,0.33,0,0.43,0s0.23,0,0.41,0
		c0.16,0,0.28,0,0.36,0s0.2,0,0.36,0h0.79c0.15,0,0.28,0.03,0.39,0.09s0.19,0.15,0.25,0.26c0.05,0.11,0.08,0.25,0.08,0.4
		c0,0.14-0.02,0.26-0.05,0.36c-0.04,0.1-0.09,0.18-0.16,0.24c-0.06,0.05-0.13,0.09-0.22,0.11c-0.08,0.03-0.18,0.04-0.29,0.04
		c-0.07,0-0.12,0-0.17,0s-0.1,0-0.17,0c-0.1,0-0.17,0-0.22,0s-0.11,0-0.2,0c-0.25,0-0.44,0-0.56,0c-0.12,0-0.3,0-0.54,0h-0.46
		c-0.18,0-0.31,0-0.4,0c-0.09,0-0.22,0-0.39,0s-0.29,0-0.38,0s-0.2,0-0.36,0c-0.13,0-0.23,0-0.29,0c-0.06,0-0.15,0-0.27,0
		c-0.14,0-0.24,0-0.31,0c-0.06,0-0.13,0-0.2,0s-0.17,0-0.32,0c-0.1,0-0.17,0-0.22,0s-0.12,0-0.22,0c-0.09,0-0.16,0-0.2,0
		s-0.11,0-0.2,0c-0.11,0-0.21-0.02-0.3-0.04c-0.09-0.03-0.17-0.07-0.22-0.12c-0.06-0.07-0.11-0.15-0.14-0.24
		c-0.04-0.09-0.05-0.2-0.05-0.32c0-0.09,0-0.16,0-0.2s0-0.11,0-0.2s0-0.15,0-0.19s0-0.1,0-0.2c0-0.23,0-0.4,0-0.52
		c0-0.11,0-0.28,0-0.5c0-0.17,0-0.33,0-0.49c0-0.2,0-0.35,0-0.45s0-0.25,0-0.45c0-0.21,0-0.41,0-0.61c0-0.27,0-0.47,0-0.61
		c0-0.14,0-0.33,0-0.59v-0.3c0-0.19,0-0.33,0-0.43c0-0.09,0-0.23,0-0.41c0-0.15,0-0.26,0-0.33s0-0.17,0-0.31V6.12V5.37
		C57.87,5.21,57.89,5.08,57.95,4.97z"/>
	<path class="st0" d="M66.93,6.53c0.04-0.1,0.1-0.19,0.18-0.26c0.06-0.05,0.13-0.09,0.22-0.11s0.19-0.04,0.29-0.04
		c0.16,0,0.3-0.03,0.42-0.1c0.12-0.06,0.21-0.16,0.25-0.28s0.08-0.25,0.08-0.38c0-0.24,0.06-0.42,0.2-0.56
		c0.13-0.13,0.32-0.19,0.57-0.19c0.13,0,0.26,0,0.39,0c0.09,0,0.16,0,0.2,0s0.11,0,0.2,0c0.16,0,0.28,0,0.35,0c0.08,0,0.19,0,0.35,0
		s0.28,0,0.36,0s0.2,0,0.36,0c0.17,0,0.3,0,0.38,0s0.21,0,0.38,0c0.14,0,0.28,0.02,0.41,0.08c0.12,0.06,0.21,0.15,0.27,0.25
		c0.06,0.11,0.09,0.25,0.09,0.42c0,0.1,0.01,0.19,0.04,0.27c0.02,0.08,0.06,0.15,0.1,0.21c0.06,0.09,0.14,0.16,0.25,0.2
		c0.11,0.04,0.23,0.07,0.37,0.07c0.14,0,0.26,0.02,0.36,0.07s0.18,0.11,0.24,0.2c0.09,0.12,0.13,0.29,0.13,0.5c0,0.11,0,0.19,0,0.24
		c0,0.05,0,0.13,0,0.23c0,0.09,0,0.19,0,0.29c0,0.34,0,0.59,0,0.75s0,0.4,0,0.73v0.03c0,0.24,0,0.42,0,0.54c0,0.12,0,0.24,0,0.37
		s0,0.31,0,0.55c0,0.25,0,0.44,0,0.57s0,0.26,0,0.38s0,0.32,0,0.58c0,0.08,0,0.16,0,0.24c0,0.11,0,0.19,0,0.24s0,0.13,0,0.24
		c0,0.09-0.01,0.18-0.03,0.26c-0.02,0.08-0.04,0.15-0.08,0.21c-0.06,0.1-0.14,0.17-0.25,0.22c-0.1,0.05-0.23,0.08-0.38,0.08
		c-0.17,0-0.31,0.03-0.42,0.09s-0.19,0.15-0.25,0.26c-0.06,0.11-0.08,0.25-0.08,0.4c0,0.16-0.03,0.29-0.09,0.4
		c-0.06,0.11-0.15,0.2-0.26,0.26c-0.11,0.06-0.25,0.09-0.41,0.09c-0.05,0-0.09,0-0.12,0s-0.07,0-0.12,0c-0.11,0-0.19,0-0.24,0
		c-0.05,0-0.12,0-0.22,0c-0.16,0-0.28,0-0.35,0s-0.19,0-0.34,0c-0.18,0-0.31,0-0.4,0s-0.21,0-0.38,0c-0.18,0-0.32,0-0.41,0
		s-0.22,0-0.41,0c-0.13,0-0.25-0.02-0.34-0.05c-0.1-0.03-0.19-0.09-0.25-0.17c-0.05-0.07-0.09-0.15-0.12-0.23s-0.04-0.18-0.04-0.29
		c0-0.13-0.02-0.24-0.06-0.34c-0.04-0.1-0.1-0.17-0.17-0.23c-0.12-0.12-0.3-0.18-0.53-0.18c-0.16,0-0.29-0.03-0.41-0.09
		s-0.19-0.15-0.25-0.26c-0.06-0.11-0.09-0.25-0.09-0.41c0-0.12,0-0.21,0-0.26c0-0.06,0-0.14,0-0.26c0-0.1,0-0.19,0-0.29
		c0-0.17,0-0.29,0-0.38c0-0.08,0-0.2,0-0.36c0-0.13,0-0.23,0-0.29c0-0.06,0-0.16,0-0.29c0-0.19,0-0.33,0-0.43c0-0.1,0-0.24,0-0.43
		c0-0.26,0-0.52,0-0.77c0-0.19,0-0.33,0-0.43s0-0.23,0-0.41c0-0.15,0-0.26,0-0.33c0-0.07,0-0.18,0-0.33c0-0.08,0-0.16,0-0.24
		c0-0.11,0-0.19,0-0.24c0-0.05,0-0.13,0-0.24C66.87,6.76,66.89,6.64,66.93,6.53z M68.51,11.87c0.09,0.13,0.23,0.21,0.41,0.24
		c0.04,0.01,0.11,0.02,0.2,0.02c0.16,0,0.29,0.03,0.41,0.09c0.11,0.06,0.19,0.15,0.25,0.26c0.06,0.11,0.09,0.25,0.09,0.4
		c0,0.11,0.01,0.21,0.04,0.29c0.03,0.08,0.06,0.15,0.11,0.21c0.06,0.08,0.14,0.14,0.25,0.19c0.11,0.04,0.22,0.07,0.35,0.07
		c0.16,0,0.29-0.03,0.41-0.09c0.11-0.06,0.19-0.15,0.25-0.26c0.06-0.11,0.09-0.24,0.09-0.4c0-0.24,0.06-0.42,0.2-0.56
		c0.13-0.13,0.31-0.19,0.55-0.19c0.12,0,0.22-0.02,0.32-0.04c0.09-0.03,0.17-0.08,0.24-0.15c0.06-0.06,0.11-0.14,0.14-0.24
		c0.04-0.1,0.05-0.21,0.05-0.33c0-0.12,0-0.21,0-0.28s0-0.13,0-0.19s0-0.15,0-0.27c0-0.17,0-0.29,0-0.38s0-0.2,0-0.36s0-0.28,0-0.36
		c0-0.08,0-0.2,0-0.36c0-0.2,0-0.4,0-0.58V8.39c0-0.11-0.01-0.21-0.03-0.29c-0.02-0.08-0.05-0.15-0.1-0.21
		c-0.06-0.09-0.14-0.16-0.25-0.2c-0.1-0.04-0.23-0.07-0.37-0.07c-0.16,0-0.29-0.03-0.41-0.09s-0.19-0.15-0.25-0.26
		c-0.06-0.11-0.09-0.24-0.09-0.4c0-0.16-0.03-0.29-0.09-0.4c-0.06-0.11-0.15-0.2-0.25-0.26c-0.11-0.06-0.25-0.09-0.41-0.09
		c-0.21,0-0.38,0.05-0.5,0.15c-0.12,0.1-0.2,0.24-0.23,0.42c-0.01,0.04-0.01,0.1-0.01,0.18c0,0.16-0.03,0.29-0.09,0.4
		c-0.06,0.11-0.15,0.2-0.25,0.26c-0.11,0.06-0.25,0.09-0.41,0.09s-0.29,0.03-0.41,0.09s-0.19,0.15-0.25,0.26
		c-0.06,0.12-0.09,0.25-0.09,0.41c0,0.07,0,0.12,0,0.17s0,0.1,0,0.17c0,0.1,0,0.17,0,0.22s0,0.11,0,0.2c0,0.15,0,0.26,0,0.33
		s0,0.18,0,0.33c0,0.19,0,0.33,0,0.42c0,0.09,0,0.22,0,0.4c0,0.08,0,0.14,0,0.19s0,0.11,0,0.19s0,0.14,0,0.18s0,0.1,0,0.18
		C68.37,11.57,68.41,11.74,68.51,11.87z"/>
	<path class="st0" d="M76.06,4.82c0.13-0.13,0.31-0.19,0.55-0.19c0.16,0,0.29,0.03,0.41,0.09c0.11,0.06,0.19,0.15,0.25,0.26
		c0.06,0.12,0.09,0.25,0.09,0.41c0,0.08,0,0.14,0,0.17s0,0.09,0,0.17c0,0.09,0,0.16,0,0.2s0,0.11,0,0.2c0,0.16,0,0.28,0,0.36
		s0,0.2,0,0.36c0,0.19,0,0.33,0,0.43s0,0.23,0,0.41v1.44c0,0.16,0,0.28,0,0.36s0,0.2,0,0.36c0,0.17,0,0.3,0,0.38
		c0,0.08,0,0.2,0,0.36c0,0.17,0,0.29,0,0.38s0,0.21,0,0.38s0,0.29,0,0.38s0,0.21,0,0.38c0,0.09,0,0.15,0,0.19s0,0.1,0,0.19
		c0,0.08,0,0.14,0,0.19s0,0.11,0,0.19c0,0.19,0.04,0.35,0.13,0.47c0.08,0.12,0.21,0.21,0.37,0.26c0.1,0.02,0.19,0.03,0.27,0.03
		c0.24,0,0.42-0.06,0.56-0.19c0.13-0.13,0.19-0.31,0.19-0.56c0-0.11,0.02-0.21,0.04-0.3c0.05-0.14,0.14-0.25,0.26-0.33
		c0.12-0.08,0.27-0.12,0.46-0.12c0.14,0,0.24,0,0.31,0c0.06,0,0.17,0,0.31,0c0.06,0,0.11,0,0.14,0c0.03,0,0.08,0,0.13,0
		c0.1,0,0.17,0,0.22,0s0.12,0,0.22,0c0.05,0,0.1,0,0.14,0c0.2,0,0.36-0.04,0.49-0.13c0.12-0.09,0.21-0.22,0.25-0.39
		c0.02-0.1,0.03-0.18,0.03-0.24v-0.1c0-0.13,0-0.23,0-0.28c0-0.06,0-0.16,0-0.29c0-0.19,0-0.33,0-0.43c0-0.09,0-0.23,0-0.41
		c0-0.18,0-0.32,0-0.41s0-0.22,0-0.39c0-0.32,0-0.56,0-0.71c0-0.15,0-0.39,0-0.7c0-0.37,0-0.65,0-0.83s0-0.46,0-0.82
		c0-0.07,0-0.12,0-0.15c0-0.03,0-0.08,0-0.15c0-0.07,0-0.12,0-0.15c0-0.03,0-0.08,0-0.15c0-0.15,0.02-0.28,0.08-0.38
		c0.05-0.1,0.12-0.19,0.21-0.26c0.06-0.04,0.13-0.07,0.21-0.09c0.08-0.02,0.17-0.03,0.25-0.03c0.24,0,0.42,0.06,0.55,0.19
		c0.13,0.13,0.2,0.32,0.2,0.57v0.1c0,0.11,0,0.19,0,0.25c0,0.05,0,0.14,0,0.25c0,0.27,0,0.47,0,0.6c0,0.13,0,0.26,0,0.4
		c0,0.14,0,0.34,0,0.61c0,0.33,0,0.58,0,0.74s0,0.41,0,0.73c0,0.17,0,0.29,0,0.38s0,0.21,0,0.38c0,0.17,0,0.3,0,0.38
		c0,0.09,0,0.21,0,0.38c0,0.16,0,0.33,0,0.5c0,0.22,0,0.38,0,0.49c0,0.11,0,0.28,0,0.5c0,0.34,0,0.59,0,0.76c0,0.17,0,0.41,0,0.74
		v0.79c0,0.25-0.07,0.44-0.2,0.57s-0.31,0.19-0.55,0.19c-0.16,0-0.29-0.03-0.41-0.09s-0.19-0.15-0.25-0.26
		c-0.06-0.11-0.09-0.24-0.09-0.4c0-0.16-0.03-0.29-0.09-0.4c-0.06-0.11-0.15-0.2-0.25-0.26c-0.11-0.06-0.25-0.09-0.41-0.09
		c-0.11,0-0.21,0.02-0.3,0.04c-0.09,0.03-0.17,0.07-0.23,0.12c-0.07,0.07-0.12,0.15-0.17,0.25s-0.06,0.21-0.06,0.34
		c0,0.24-0.07,0.43-0.2,0.56c-0.06,0.06-0.14,0.11-0.24,0.14c-0.1,0.04-0.21,0.05-0.33,0.05c-0.13,0-0.23,0-0.29,0
		c-0.06,0-0.15,0-0.27,0c-0.09,0-0.18,0-0.29,0c-0.1,0-0.21,0-0.31,0c-0.25,0-0.44,0-0.56,0s-0.31,0-0.56,0c-0.08,0-0.17,0-0.25,0
		c-0.1,0-0.17,0-0.22,0s-0.12,0-0.22,0c-0.14,0-0.27-0.02-0.39-0.08c-0.12-0.05-0.21-0.13-0.28-0.25c-0.07-0.12-0.1-0.26-0.1-0.44
		c0-0.19,0-0.33,0-0.42s0-0.23,0-0.4c0-0.14,0-0.25,0-0.31s0-0.18,0-0.32c0-0.19,0-0.33,0-0.43c0-0.09,0-0.24,0-0.43
		c0-0.18,0-0.35,0-0.52c0-0.2,0-0.35,0-0.45s0-0.25,0-0.44c0-0.35,0-0.61,0-0.77s0-0.42,0-0.76c0-0.17,0-0.3,0-0.38s0-0.21,0-0.37
		c0-0.17,0-0.3,0-0.38s0-0.21,0-0.38c0-0.25,0-0.44,0-0.57c0-0.13,0-0.26,0-0.38s0-0.31,0-0.56V5.39
		C75.87,5.14,75.93,4.95,76.06,4.82z"/>
	<path class="st0" d="M85.06,4.82c0.13-0.13,0.31-0.19,0.55-0.19c0.08,0,0.16,0.01,0.23,0.02s0.14,0.04,0.19,0.07
		c0.11,0.06,0.19,0.15,0.25,0.26c0.05,0.11,0.08,0.25,0.08,0.4c0,0.11,0.01,0.21,0.04,0.29s0.07,0.16,0.12,0.23
		c0.06,0.07,0.14,0.13,0.24,0.17c0.1,0.04,0.21,0.06,0.34,0.06c0.14,0,0.25-0.02,0.34-0.06c0.13-0.05,0.23-0.13,0.3-0.25
		c0.07-0.12,0.11-0.27,0.11-0.44c0-0.18,0.04-0.33,0.12-0.46c0.06-0.09,0.14-0.16,0.25-0.21c0.11-0.05,0.24-0.08,0.39-0.08
		c0.13,0,0.23,0,0.29,0c0.06,0,0.16,0,0.29,0c0.1,0,0.2,0,0.29,0c0.33,0,0.57,0,0.73,0c0.15,0,0.39,0,0.71,0c0.1,0,0.17,0,0.23,0
		c0.05,0,0.12,0,0.22,0c0.07,0,0.15,0,0.23,0c0.25,0,0.44,0.06,0.57,0.19c0.13,0.13,0.2,0.32,0.2,0.57c0,0.16,0,0.32,0,0.49v0.23
		c0,0.2,0,0.35,0,0.45s0,0.25,0,0.45c0,0.15,0,0.26,0,0.33c0,0.07,0,0.18,0,0.33s0,0.26,0,0.33c0,0.07,0,0.18,0,0.33
		c0,0.1,0,0.17,0,0.23c0,0.05,0,0.12,0,0.22c0,0.38,0,0.66,0,0.84c0,0.18,0,0.46,0,0.82c0,0.19,0,0.33,0,0.43s0,0.23,0,0.41
		c0,0.19,0,0.33,0,0.43c0,0.1,0,0.23,0,0.41c0,0.16,0,0.28,0,0.35s0,0.19,0,0.34c0,0.18,0,0.31,0,0.41c0,0.09,0,0.22,0,0.4
		c0,0.08,0,0.14,0,0.17c0,0.04,0,0.09,0,0.17c0,0.09,0,0.15,0,0.19s0,0.1,0,0.19c0,0.25-0.07,0.44-0.2,0.57s-0.32,0.19-0.57,0.19
		c-0.09,0-0.18,0-0.27,0c-0.12,0-0.21,0-0.26,0c-0.05,0-0.14,0-0.26,0c-0.23,0-0.4,0-0.52,0c-0.12,0-0.23,0-0.35,0s-0.29,0-0.53,0
		h-0.78c-0.16,0-0.3-0.03-0.41-0.09s-0.2-0.15-0.26-0.26c-0.06-0.11-0.09-0.24-0.09-0.4c0-0.16-0.03-0.29-0.09-0.4
		c-0.06-0.11-0.15-0.2-0.25-0.26c-0.11-0.06-0.25-0.09-0.41-0.09c-0.12,0-0.23,0.02-0.32,0.05c-0.1,0.04-0.17,0.08-0.23,0.14
		c-0.07,0.07-0.12,0.15-0.15,0.24s-0.04,0.19-0.04,0.31l-0.01,0.23c-0.04,0.17-0.12,0.3-0.25,0.39c-0.12,0.09-0.29,0.13-0.49,0.13
		c-0.11,0-0.21-0.02-0.29-0.04c-0.08-0.03-0.16-0.07-0.23-0.12c-0.07-0.06-0.12-0.14-0.17-0.24s-0.06-0.22-0.06-0.36
		c0-0.09,0-0.17,0-0.25c0-0.1,0-0.17,0-0.23c0-0.05,0-0.12,0-0.23c0-0.15,0-0.3,0-0.45c0-0.23,0-0.4,0-0.52c0-0.11,0-0.28,0-0.5
		c0-0.19,0-0.33,0-0.43c0-0.09,0-0.24,0-0.43c0-0.15,0-0.26,0-0.33c0-0.07,0-0.18,0-0.33c0-0.17,0-0.3,0-0.38s0-0.21,0-0.38
		c0-0.17,0-0.29,0-0.38c0-0.08,0-0.2,0-0.36c0-0.18,0-0.31,0-0.4s0-0.21,0-0.38c0-0.26,0-0.52,0-0.78c0-0.18,0-0.31,0-0.4
		s0-0.21,0-0.38c0-0.15,0-0.26,0-0.33c0-0.07,0-0.17,0-0.31c0-0.12,0-0.21,0-0.26c0-0.05,0-0.14,0-0.25c0-0.1,0-0.19,0-0.28
		C84.87,5.14,84.93,4.95,85.06,4.82z M86.56,11.93c0.13,0.13,0.32,0.19,0.57,0.19c0.49,0,0.98,0,1.47,0c0.09,0,0.17,0.01,0.25,0.02
		s0.14,0.04,0.2,0.08c0.1,0.06,0.18,0.15,0.23,0.25c0.05,0.11,0.08,0.24,0.08,0.39c0,0.12,0.02,0.23,0.05,0.32
		c0.04,0.1,0.09,0.18,0.16,0.25c0.07,0.06,0.15,0.1,0.24,0.14c0.09,0.03,0.19,0.04,0.3,0.04c0.07,0,0.16-0.01,0.25-0.03
		c0.16-0.05,0.28-0.14,0.37-0.26s0.13-0.28,0.13-0.47c0-0.18,0-0.31,0-0.4s0-0.23,0-0.41c0-0.24,0-0.48,0-0.72c0-0.16,0-0.28,0-0.35
		s0-0.19,0-0.34c0-0.17,0-0.34,0-0.51c0-0.24,0-0.42,0-0.54c0-0.12,0-0.29,0-0.52c0-0.22,0-0.38,0-0.5c0-0.11,0-0.27,0-0.48
		c0-0.15,0-0.29,0-0.44c0-0.05,0-0.08,0-0.1c0-0.02,0-0.05,0-0.1c0-0.13,0-0.22,0-0.28s0-0.15,0-0.27c0-0.1-0.01-0.19-0.03-0.27
		c-0.02-0.08-0.05-0.15-0.09-0.21c-0.06-0.09-0.14-0.16-0.25-0.21c-0.11-0.05-0.24-0.08-0.38-0.08c-0.11,0-0.21,0.02-0.29,0.04
		c-0.08,0.03-0.16,0.07-0.23,0.12c-0.05,0.04-0.09,0.09-0.13,0.15s-0.06,0.13-0.08,0.2c-0.01,0.07-0.02,0.15-0.02,0.23
		c0,0.13-0.02,0.24-0.05,0.34c-0.04,0.1-0.09,0.17-0.16,0.23c-0.07,0.06-0.15,0.1-0.24,0.14c-0.09,0.03-0.19,0.04-0.31,0.04
		c-0.18,0-0.32,0-0.41,0s-0.22,0-0.39,0c-0.15,0-0.26,0-0.34,0s-0.19,0-0.34,0c-0.25,0-0.44,0.06-0.57,0.19
		c-0.13,0.13-0.2,0.32-0.2,0.57c0,0.17,0,0.34,0,0.52c0,0.09,0,0.18,0,0.27c0,0.12,0,0.21,0,0.27s0,0.15,0,0.27
		c0,0.19,0,0.33,0,0.43c0,0.1,0,0.24,0,0.43c0,0.09,0,0.16,0,0.19c0,0.04,0,0.1,0,0.2c0,0.09,0,0.15,0,0.19s0,0.1,0,0.19
		C86.37,11.61,86.43,11.8,86.56,11.93z"/>
</g>
</svg>
