<svg xmlns="http://www.w3.org/2000/svg" viewBox="0 0 250.84 136.13"><defs><style>.cls-1{font-size:40px;fill:#00fefe;font-family:Niagara-Regular, Niagara;}.cls-2{letter-spacing:0em;}.cls-3{letter-spacing:0.02em;}.cls-4{letter-spacing:0.02em;}.cls-5{letter-spacing:-0.02em;}.cls-6{letter-spacing:-0.02em;}.cls-7{letter-spacing:0.08em;}.cls-8{letter-spacing:-0.02em;}.cls-9{letter-spacing:-0.01em;}.cls-10{letter-spacing:0em;}.cls-11{letter-spacing:-0.03em;}.cls-12{letter-spacing:0.08em;}</style></defs><g id="Calque_2" data-name="Calque 2"><g id="maquette"><text class="cls-1" transform="translate(0 34)"><tspan class="cls-2">A</tspan><tspan x="10.8" y="0">a</tspan><tspan class="cls-3" x="21.56" y="0"> </tspan><tspan x="28.21" y="0">Bb</tspan><tspan class="cls-4" x="51.61" y="0"> </tspan><tspan x="58.26" y="0">Cc</tspan><tspan class="cls-3" x="81.18" y="0"> </tspan><tspan x="87.83" y="0">Dd</tspan><tspan class="cls-4" x="111.23" y="0"> </tspan><tspan x="117.88" y="0">Ee</tspan><tspan class="cls-3" x="140.52" y="0"> </tspan><tspan x="147.17" y="0">Ff</tspan><tspan class="cls-3" x="164.89" y="0"> </tspan><tspan x="171.54" y="0">Gg</tspan><tspan class="cls-4" x="194.74" y="0"> </tspan><tspan x="201.39" y="0">Hh</tspan><tspan class="cls-3" x="225.55" y="0"> </tspan><tspan x="232.2" y="0">Ii </tspan><tspan x="0" y="48">Jj</tspan><tspan class="cls-5" x="17.08" y="48"> </tspan><tspan x="22.08" y="48">Kk</tspan><tspan class="cls-6" x="45.72" y="48"> </tspan><tspan x="50.72" y="48">Ll</tspan><tspan class="cls-6" x="67.72" y="48"> </tspan><tspan x="72.72" y="48">Mm</tspan><tspan class="cls-5" x="104.72" y="48"> </tspan><tspan x="109.72" y="48">Nn</tspan><tspan class="cls-6" x="132.76" y="48"> </tspan><tspan x="137.76" y="48">Oo</tspan><tspan class="cls-5" x="160.8" y="48"> </tspan><tspan x="165.8" y="48">Pp</tspan><tspan class="cls-6" x="188.8" y="48"> </tspan><tspan x="193.8" y="48">Qq</tspan><tspan class="cls-6" x="217" y="48"> </tspan><tspan x="222" y="48">Rr </tspan><tspan x="0" y="96">Ss</tspan><tspan class="cls-7" x="21.68" y="96"> </tspan><tspan x="30.84" y="96">Tt</tspan><tspan class="cls-7" x="51.28" y="96"> </tspan><tspan x="60.44" y="96">Uu</tspan><tspan class="cls-7" x="84.2" y="96"> </tspan><tspan class="cls-8" x="93.36" y="96">V</tspan><tspan x="103.64" y="96">v</tspan><tspan class="cls-7" x="114.2" y="96"> </tspan><tspan class="cls-9" x="123.36" y="96">W</tspan><tspan x="138.68" y="96">w</tspan><tspan class="cls-7" x="153.2" y="96"> </tspan><tspan class="cls-10" x="162.36" y="96">Xx</tspan><tspan class="cls-7" x="183.16" y="96"> </tspan><tspan class="cls-11" x="192.33" y="96">Y</tspan><tspan x="202.72" y="96">y</tspan><tspan class="cls-12" x="214" y="96"> </tspan><tspan x="223.16" y="96">Zz</tspan></text></g></g></svg>