<?xml version="1.0" encoding="utf-8"?>
<!-- Generator: Adobe Illustrator 26.2.1, SVG Export Plug-In . SVG Version: 6.00 Build 0)  -->
<svg version="1.1" id="Calque_1" xmlns="http://www.w3.org/2000/svg" xmlns:xlink="http://www.w3.org/1999/xlink" x="0px" y="0px"
	 viewBox="0 0 100 20" style="enable-background:new 0 0 100 20;" xml:space="preserve">
<style type="text/css">
	.st0{display:none;}
	.st1{display:inline;fill:#FFFFFF;}
	.st2{fill:#FFFFFF;}
</style>
<g class="st0">
	<path class="st1" d="M7.8,4.8c0.1-0.1,0.3-0.2,0.5-0.2H9c0.2,0,0.3,0,0.4,0s0.2,0,0.4,0c0.2,0,0.3,0,0.4,0c0.1,0,0.2,0,0.4,0
		c0.2,0,0.3,0,0.4,0s0.2,0,0.4,0c0.2,0,0.4,0,0.4,0s0.2,0,0.4,0c0.2,0,0.3,0,0.4,0s0.2,0,0.4,0c0.2,0,0.5,0,0.7,0c0.1,0,0.1,0,0.2,0
		c0.1,0,0.2,0,0.3,0s0.2,0,0.3,0c0.1,0,0.2,0,0.3,0c0.1,0,0.2,0.1,0.2,0.1C15,4.9,15,4.9,15.1,5c0,0.1,0.1,0.2,0.1,0.3
		c0,0.3-0.1,0.4-0.2,0.6c-0.1,0.1-0.3,0.2-0.5,0.2c-0.2,0-0.5,0-0.7,0c-0.2,0-0.4,0-0.7,0c-0.2,0-0.4,0-0.5,0c-0.1,0-0.3,0-0.5,0
		c-0.2,0-0.4,0-0.6,0c-0.1,0-0.3,0-0.3,0s-0.2,0-0.3,0c-0.1,0-0.2,0-0.2,0s-0.1,0-0.2,0c-0.1,0-0.2,0-0.2,0s-0.1,0-0.2,0
		c-0.1,0-0.3,0-0.4,0.1C9.3,6.3,9.2,6.3,9.2,6.4C9.1,6.6,9.1,6.7,9.1,6.8c0,0.1,0,0.1,0,0.2s0,0.1,0,0.2s0,0.1,0,0.2s0,0.1,0,0.2
		c0,0.1,0,0.2,0,0.4c0,0.1,0,0.2,0,0.2c0,0.1,0,0.1,0,0.2c0,0.2,0,0.4,0.1,0.5C9.3,9,9.5,9.1,9.6,9.1c0,0,0.1,0,0.2,0
		c0.2,0,0.3,0,0.4,0s0.2,0,0.4,0c0.2,0,0.3,0,0.4,0s0.2,0,0.4,0c0.2,0,0.4-0.1,0.5-0.2s0.2-0.3,0.2-0.5V8.4c0-0.2,0-0.3,0.1-0.4
		c0.1-0.1,0.1-0.2,0.2-0.2c0.1-0.1,0.2-0.1,0.4-0.1c0.2,0,0.3,0,0.4,0.1s0.2,0.2,0.2,0.3c0.1,0.1,0.1,0.2,0.1,0.4c0,0.2,0,0.5,0,0.8
		c0,0.3,0,0.6,0,0.7s0,0.4,0,0.7v0.2c0,0.1,0,0.2,0,0.4c0,0.1,0,0.2,0,0.4c0,0.1,0,0.3-0.1,0.4c-0.1,0.1-0.1,0.2-0.2,0.2
		c-0.1,0.1-0.2,0.1-0.4,0.1c-0.1,0-0.3,0-0.4-0.1c-0.1,0-0.2-0.1-0.2-0.2c-0.1-0.1-0.1-0.1-0.1-0.2c0-0.1,0-0.2,0-0.3
		c0-0.1,0-0.3-0.1-0.4c-0.1-0.1-0.1-0.2-0.2-0.2c-0.1-0.1-0.2-0.1-0.4-0.1c-0.2,0-0.4,0-0.7,0c-0.3,0-0.6,0-0.9,0
		c-0.1,0-0.3,0-0.4,0.1c-0.1,0.1-0.2,0.1-0.2,0.2c-0.1,0.1-0.1,0.2-0.1,0.4c0,0.2,0,0.3,0,0.4s0,0.2,0,0.4c0,0.1,0,0.2,0,0.3
		s0,0.2,0,0.3c0,0.2,0,0.4,0,0.5s0,0.3,0,0.5c0,0.1,0,0.2,0,0.4c0,0.1,0,0.2,0,0.2c0,0.1,0,0.1,0,0.2c0,0.2-0.1,0.4-0.2,0.5
		c-0.1,0.1-0.3,0.2-0.6,0.2c-0.5,0-0.8-0.2-0.8-0.7c0-0.1,0-0.1,0-0.2s0-0.1,0-0.2c0-0.1,0-0.2,0-0.2s0-0.1,0-0.2c0-0.4,0-0.6,0-0.8
		s0-0.4,0-0.8c0-0.3,0-0.5,0-0.8c0-0.2,0-0.3,0-0.4s0-0.2,0-0.4c0-0.2,0-0.5,0-0.7s0-0.5,0-0.7V7.6c0-0.2,0-0.3,0-0.4
		c0-0.1,0-0.2,0-0.4c0-0.2,0-0.4,0-0.7V5.8c0-0.2,0-0.3,0-0.5C7.6,5.1,7.7,4.9,7.8,4.8z"/>
	<path class="st1" d="M16.7,6.5c0-0.1,0.1-0.2,0.2-0.3c0.1-0.1,0.1-0.1,0.2-0.1s0.2,0,0.3,0c0.2,0,0.3,0,0.4-0.1
		C17.9,6,18,5.9,18,5.7s0.1-0.2,0.1-0.4c0-0.2,0.1-0.4,0.2-0.6c0.1-0.1,0.3-0.2,0.6-0.2c0.1,0,0.3,0,0.4,0c0.1,0,0.2,0,0.2,0
		s0.1,0,0.2,0c0.2,0,0.3,0,0.4,0c0.1,0,0.2,0,0.4,0s0.3,0,0.4,0s0.2,0,0.4,0c0.2,0,0.3,0,0.4,0s0.2,0,0.4,0c0.1,0,0.3,0,0.4,0.1
		c0.1,0.1,0.2,0.2,0.3,0.2c0.1,0.1,0.1,0.2,0.1,0.4c0,0.1,0,0.2,0,0.3c0,0.1,0.1,0.2,0.1,0.2C22.8,5.9,22.9,6,23,6s0.2,0.1,0.4,0.1
		c0.1,0,0.3,0,0.4,0.1s0.2,0.1,0.2,0.2c0.1,0.1,0.1,0.3,0.1,0.5c0,0.1,0,0.2,0,0.2c0,0.1,0,0.1,0,0.2c0,0.1,0,0.2,0,0.3
		c0,0.3,0,0.6,0,0.7s0,0.4,0,0.7v0c0,0.2,0,0.4,0,0.5s0,0.2,0,0.4s0,0.3,0,0.6c0,0.2,0,0.4,0,0.6s0,0.3,0,0.4s0,0.3,0,0.6
		c0,0.1,0,0.2,0,0.2c0,0.1,0,0.2,0,0.2s0,0.1,0,0.2c0,0.1,0,0.2,0,0.3s0,0.1-0.1,0.2c-0.1,0.1-0.1,0.2-0.2,0.2
		c-0.1,0.1-0.2,0.1-0.4,0.1c-0.2,0-0.3,0-0.4,0.1s-0.2,0.1-0.2,0.3c-0.1,0.1-0.1,0.2-0.1,0.4c0,0.2,0,0.3-0.1,0.4S22.4,15,22.3,15
		s-0.2,0.1-0.4,0.1c0,0-0.1,0-0.1,0s-0.1,0-0.1,0c-0.1,0-0.2,0-0.2,0s-0.1,0-0.2,0c-0.2,0-0.3,0-0.4,0s-0.2,0-0.3,0
		c-0.2,0-0.3,0-0.4,0s-0.2,0-0.4,0c-0.2,0-0.3,0-0.4,0s-0.2,0-0.4,0c-0.1,0-0.2,0-0.3-0.1c-0.1,0-0.2-0.1-0.2-0.2
		c0-0.1-0.1-0.1-0.1-0.2s0-0.2,0-0.3c0-0.1,0-0.2-0.1-0.3c0-0.1-0.1-0.2-0.2-0.2c-0.1-0.1-0.3-0.2-0.5-0.2c-0.2,0-0.3,0-0.4-0.1
		s-0.2-0.1-0.2-0.3c-0.1-0.1-0.1-0.2-0.1-0.4c0-0.1,0-0.2,0-0.3c0-0.1,0-0.1,0-0.3c0-0.1,0-0.2,0-0.3c0-0.2,0-0.3,0-0.4
		c0-0.1,0-0.2,0-0.4c0-0.1,0-0.2,0-0.3s0-0.2,0-0.3c0-0.2,0-0.3,0-0.4s0-0.2,0-0.4c0-0.3,0-0.5,0-0.8c0-0.2,0-0.3,0-0.4s0-0.2,0-0.4
		c0-0.1,0-0.3,0-0.3c0-0.1,0-0.2,0-0.3c0-0.1,0-0.2,0-0.2c0-0.1,0-0.2,0-0.2c0-0.1,0-0.1,0-0.2C16.6,6.8,16.6,6.6,16.7,6.5z
		 M18.3,11.9c0.1,0.1,0.2,0.2,0.4,0.2c0,0,0.1,0,0.2,0c0.2,0,0.3,0,0.4,0.1c0.1,0.1,0.2,0.1,0.2,0.3c0.1,0.1,0.1,0.2,0.1,0.4
		c0,0.1,0,0.2,0,0.3s0.1,0.1,0.1,0.2c0.1,0.1,0.1,0.1,0.2,0.2c0.1,0,0.2,0.1,0.4,0.1c0.2,0,0.3,0,0.4-0.1c0.1-0.1,0.2-0.1,0.2-0.3
		c0.1-0.1,0.1-0.2,0.1-0.4c0-0.2,0.1-0.4,0.2-0.6c0.1-0.1,0.3-0.2,0.5-0.2c0.1,0,0.2,0,0.3,0c0.1,0,0.2-0.1,0.2-0.1
		c0.1-0.1,0.1-0.1,0.1-0.2c0-0.1,0-0.2,0-0.3s0-0.2,0-0.3s0-0.1,0-0.2s0-0.1,0-0.3c0-0.2,0-0.3,0-0.4s0-0.2,0-0.4s0-0.3,0-0.4
		s0-0.2,0-0.4c0-0.2,0-0.4,0-0.6V8.4c0-0.1,0-0.2,0-0.3s0-0.2-0.1-0.2c-0.1-0.1-0.1-0.2-0.2-0.2c-0.1,0-0.2-0.1-0.4-0.1
		c-0.2,0-0.3,0-0.4-0.1s-0.2-0.2-0.2-0.3c-0.1-0.1-0.1-0.2-0.1-0.4c0-0.2,0-0.3-0.1-0.4s-0.1-0.2-0.2-0.3c-0.1-0.1-0.2-0.1-0.4-0.1
		c-0.2,0-0.4,0.1-0.5,0.2s-0.2,0.2-0.2,0.4c0,0,0,0.1,0,0.2c0,0.2,0,0.3-0.1,0.4s-0.1,0.2-0.2,0.3c-0.1,0.1-0.2,0.1-0.4,0.1
		s-0.3,0-0.4,0.1S18.3,7.9,18.2,8c-0.1,0.1-0.1,0.2-0.1,0.4c0,0.1,0,0.1,0,0.2s0,0.1,0,0.2c0,0.1,0,0.2,0,0.2s0,0.1,0,0.2
		c0,0.1,0,0.3,0,0.3s0,0.2,0,0.3c0,0.2,0,0.3,0,0.4s0,0.2,0,0.4c0,0.1,0,0.1,0,0.2s0,0.1,0,0.2s0,0.1,0,0.2s0,0.1,0,0.2
		C18.1,11.6,18.2,11.7,18.3,11.9z"/>
	<path class="st1" d="M25.6,5.1c0-0.1,0.1-0.2,0.1-0.2c0.1-0.1,0.2-0.1,0.3-0.2c0.1,0,0.2-0.1,0.4-0.1c0.2,0,0.4,0,0.5,0
		s0.2,0,0.4,0c0.1,0,0.2,0,0.4,0c0.2,0,0.3,0,0.4,0s0.2,0,0.4,0c0.1,0,0.2,0,0.2,0s0.1,0,0.2,0s0.1,0,0.2,0c0.1,0,0.2,0,0.2,0
		c0.2,0,0.3,0,0.4,0.1C29.9,4.7,30,4.8,30,4.9c0.1,0.1,0.1,0.3,0.1,0.4v0.7c0,0.2,0,0.3,0,0.4s0,0.2,0,0.4s0,0.3,0,0.4s0,0.2,0,0.4
		s0,0.3,0,0.4c0,0.1,0,0.2,0,0.4s0,0.3,0,0.4s0,0.2,0,0.4c0,0.1,0,0.2,0,0.3s0,0.1,0,0.3c0,0.2,0,0.3,0,0.4s0,0.2,0,0.4
		c0,0.2,0,0.3,0,0.4c0,0.1,0,0.2,0,0.4c0,0.2,0,0.4,0,0.4s0,0.2,0,0.4c0,0.2,0,0.3,0,0.4s0,0.2,0,0.4c0,0.2,0,0.3,0.1,0.4
		c0.1,0.1,0.1,0.2,0.2,0.3s0.2,0.1,0.4,0.1h0.1c0.2,0,0.4-0.1,0.5-0.2s0.2-0.3,0.2-0.6c0-0.1,0-0.2,0-0.3c0-0.1,0-0.3,0-0.4
		c0-0.2,0-0.3,0-0.4c0-0.1,0-0.2,0-0.4c0-0.1,0-0.3,0-0.3s0-0.2,0-0.3v0c0-0.2,0-0.4,0-0.6s0-0.3,0-0.4s0-0.3,0-0.6
		c0-0.2,0-0.4,0-0.5c0-0.1,0-0.3,0-0.5c0-0.1,0-0.2,0-0.3s0-0.1,0-0.3c0-0.2,0-0.3,0-0.3c0-0.1,0-0.2,0-0.3c0-0.2,0-0.3,0-0.3
		c0-0.1,0-0.2,0-0.3V5.4c0-0.1,0-0.2,0.1-0.3c0-0.1,0.1-0.2,0.2-0.3s0.3-0.1,0.5-0.1c0.2,0,0.4,0.1,0.5,0.2s0.2,0.3,0.2,0.6
		c0,0.1,0,0.2,0,0.3c0,0.1,0,0.2,0,0.2s0,0.1,0,0.2v0.2c0,0.3,0,0.5,0,0.7s0,0.3,0,0.6c0,0.2,0,0.3,0,0.4s0,0.2,0,0.4
		c0,0.2,0,0.3,0,0.4s0,0.2,0,0.4v1.6c0,0.2,0,0.3,0,0.4s0,0.2,0,0.4s0,0.3,0,0.4s0,0.2,0,0.4c0,0.2,0,0.3,0,0.4s0,0.2,0,0.4
		s0,0.3,0,0.4c0,0.1,0,0.2,0,0.4c0,0.1,0,0.1,0,0.2s0,0.1,0,0.2c0,0.1,0,0.2,0,0.4c0,0.2,0,0.3-0.1,0.4c0,0.1-0.1,0.2-0.2,0.2
		s-0.2,0.1-0.4,0.1c-0.1,0-0.2,0-0.2,0s-0.1,0-0.2,0c-0.1,0-0.1,0-0.2,0s-0.1,0-0.2,0c-0.2,0-0.3,0-0.4,0s-0.2,0-0.4,0
		c-0.1,0-0.3,0-0.3,0s-0.2,0-0.3,0h-0.8c-0.1,0-0.2,0-0.3,0S28.9,15,28.9,15c-0.1-0.1-0.1-0.2-0.2-0.3s-0.1-0.2-0.1-0.4
		c0-0.2,0-0.3,0-0.4c0-0.1,0-0.2,0-0.3c0-0.2,0-0.4,0-0.6c0-0.2,0-0.4,0-0.5s0-0.3,0-0.5c0-0.3,0-0.5,0-0.7s0-0.4,0-0.7
		c0-0.2,0-0.5,0-0.7c0-0.2,0-0.3,0-0.4s0-0.2,0-0.4c0-0.2,0-0.4,0-0.5s0-0.3,0-0.5c0-0.1,0-0.3,0-0.3c0-0.1,0-0.2,0-0.3
		c0-0.1,0-0.1,0-0.2c0,0,0-0.1,0-0.2s0-0.1,0-0.2c0,0,0-0.1,0-0.2c0-0.2-0.1-0.4-0.2-0.6c-0.1-0.1-0.3-0.2-0.5-0.2
		c-0.2,0-0.3,0-0.4,0.1c-0.1,0.1-0.2,0.1-0.2,0.2c-0.1,0.1-0.1,0.3-0.1,0.4c0,0.1,0,0.1,0,0.2s0,0.1,0,0.2c0,0.1,0,0.2,0,0.2
		s0,0.1,0,0.2c0,0.2,0,0.3,0,0.4c0,0.1,0,0.2,0,0.4s0,0.3,0,0.4s0,0.2,0,0.4c0,0.2,0,0.4,0,0.6s0,0.3,0,0.5c0,0.1,0,0.3,0,0.4
		c0,0.2,0,0.3,0,0.4c0,0.1,0,0.2,0,0.4c0,0.2,0,0.3,0,0.4s0,0.2,0,0.4c0,0.2,0,0.3,0,0.4c0,0.1,0,0.2,0,0.4c0,0.2,0,0.3,0,0.4
		s0,0.2,0,0.4c0,0.1,0,0.2,0,0.4c0,0.1,0,0.1,0,0.2s0,0.1,0,0.2c0,0.1,0,0.1,0,0.2c0,0.2-0.1,0.3-0.2,0.4c-0.1,0.1-0.3,0.1-0.5,0.1
		c-0.2,0-0.4-0.1-0.5-0.2c-0.1-0.1-0.2-0.3-0.2-0.6c0-0.2,0-0.3,0-0.5s0-0.3,0-0.5c0-0.2,0-0.5,0-0.7c0-0.2,0-0.3,0-0.4
		c0-0.1,0-0.2,0-0.4c0-0.2,0-0.5,0-0.7c0-0.2,0-0.3,0-0.4s0-0.2,0-0.4c0-0.2,0-0.3,0-0.4s0-0.2,0-0.4c0-0.2,0-0.3,0-0.4s0-0.2,0-0.4
		c0-0.3,0-0.6,0-0.7c0-0.1,0-0.4,0-0.7c0-0.3,0-0.5,0-0.6s0-0.3,0-0.4c0-0.1,0-0.3,0-0.6c0-0.2,0-0.5,0-0.7
		C25.6,5.3,25.6,5.2,25.6,5.1z"/>
	<path class="st1" d="M37.5,6.5c-0.1-0.1-0.2-0.2-0.2-0.3c-0.1-0.1-0.2-0.1-0.4-0.1s-0.3,0-0.4,0.1s-0.2,0.2-0.2,0.3
		s-0.1,0.2-0.1,0.4c0,0.1,0,0.2-0.1,0.4c0,0.1-0.1,0.2-0.2,0.2c-0.1,0.1-0.1,0.1-0.2,0.1s-0.2,0-0.3,0c-0.2,0-0.3,0-0.4-0.1
		c-0.1-0.1-0.2-0.2-0.2-0.3c0-0.1-0.1-0.2-0.1-0.4c0-0.2,0-0.3,0-0.5c0-0.1,0-0.2,0-0.3c0-0.2,0-0.3,0-0.3s0-0.2,0-0.3
		c0-0.1,0-0.2,0-0.3c0-0.1,0.1-0.2,0.1-0.2c0.1-0.1,0.2-0.1,0.2-0.2s0.2-0.1,0.4-0.1h0.9c0.2,0,0.5,0,0.7,0c0.2,0,0.3,0,0.3,0
		s0.2,0,0.3,0c0.2,0,0.3,0,0.4,0s0.2,0,0.4,0c0.2,0,0.4,0,0.6,0c0.2,0,0.3,0,0.3,0s0.2,0,0.3,0c0.2,0,0.3,0,0.3,0s0.2,0,0.3,0
		c0.1,0,0.1,0,0.2,0s0.1,0,0.2,0c0.1,0,0.2,0,0.3,0s0.2,0,0.3,0c0.2,0,0.3,0,0.4,0.1S42,4.9,42,5c0.1,0.1,0.1,0.2,0.1,0.4
		c0,0.1,0,0.1,0,0.1s0,0.1,0,0.1c0,0.1,0,0.2,0,0.2c0,0.1,0,0.1,0,0.2c0,0.1,0,0.1,0,0.2s0,0.1,0,0.2c0,0.1,0,0.2,0,0.2s0,0.1,0,0.2
		c0,0.2,0,0.3-0.1,0.4c-0.1,0.1-0.2,0.2-0.2,0.3c-0.1,0.1-0.2,0.1-0.4,0.1c-0.1,0-0.2,0-0.2,0s-0.2,0-0.2-0.1
		c-0.1-0.1-0.2-0.1-0.2-0.2c0-0.1-0.1-0.2-0.1-0.4c0-0.2-0.1-0.4-0.2-0.6c-0.1-0.1-0.3-0.2-0.5-0.2c-0.1,0-0.2,0-0.3,0.1
		c-0.1,0-0.2,0.1-0.2,0.1c-0.1,0.1-0.2,0.3-0.2,0.6c0,0.1,0,0.1,0,0.1s0,0.1,0,0.1c0,0.1,0,0.2,0,0.2c0,0.1,0,0.1,0,0.2
		c0,0.2,0,0.4,0,0.5c0,0.1,0,0.2,0,0.4s0,0.3,0,0.6v0.1c0,0.2,0,0.4,0,0.6c0,0.1,0,0.2,0,0.4s0,0.3,0,0.6c0,0.2,0,0.4,0,0.5
		s0,0.3,0,0.5c0,0.2,0,0.3,0,0.5c0,0.2,0,0.3,0,0.4s0,0.2,0,0.4c0,0.2,0,0.3,0.1,0.4c0.1,0.1,0.1,0.2,0.2,0.3s0.2,0.1,0.4,0.1
		c0.1,0,0.2,0,0.2,0c0.2,0.1,0.3,0.1,0.4,0.3c0.1,0.1,0.1,0.3,0.1,0.5c0,0.2,0,0.3-0.1,0.4S40.4,15,40.3,15s-0.2,0.1-0.4,0.1
		c-0.1,0-0.2,0-0.2,0s-0.1,0-0.2,0c-0.1,0-0.2,0-0.2,0c-0.2,0-0.3,0-0.3,0s-0.2,0-0.3,0c-0.2,0-0.3,0-0.4,0c-0.1,0-0.2,0-0.4,0
		c-0.1,0-0.2,0-0.2,0s-0.1,0-0.2,0c-0.1,0-0.2,0-0.3,0c-0.2,0-0.3,0-0.4-0.1s-0.2-0.1-0.3-0.3c-0.1-0.1-0.1-0.2-0.1-0.4
		c0-0.2,0-0.4,0.1-0.5c0.1-0.1,0.2-0.2,0.3-0.3c0,0,0.1,0,0.1,0c0,0,0.1,0,0.1,0c0.1,0,0.1,0,0.2,0c0.2,0,0.3-0.1,0.4-0.2
		s0.2-0.3,0.2-0.5c0-0.2,0-0.3,0-0.4s0-0.2,0-0.4v-0.4c0-0.2,0-0.4,0-0.5s0-0.3,0-0.5c0-0.1,0-0.2,0-0.3s0-0.2,0-0.3
		c0-0.2,0-0.3,0-0.4s0-0.2,0-0.4c0-0.3,0-0.6,0-0.8c0-0.2,0-0.4,0-0.8c0-0.1,0-0.2,0-0.2s0-0.1,0-0.2c0-0.1,0-0.2,0-0.3
		C37.6,6.7,37.6,6.6,37.5,6.5z"/>
	<path class="st1" d="M49,4.8c0.1-0.1,0.3-0.2,0.5-0.2c0.1,0,0.2,0,0.4,0c0.1,0,0.2,0,0.2,0c0,0,0.1,0,0.2,0c0.2,0,0.3,0,0.4,0
		s0.2,0,0.4,0c0.1,0,0.2,0,0.3,0s0.2,0,0.3,0c0.3,0,0.6,0,0.7,0s0.4,0,0.7,0c0.1,0,0.2,0,0.2,0c0,0,0.1,0,0.2,0c0.2,0,0.3,0,0.5,0
		c0.2,0,0.3,0,0.5,0.1c0.1,0.1,0.2,0.2,0.2,0.3c0,0.1,0,0.2,0,0.3c0,0.2,0,0.3,0,0.4s0,0.2,0,0.4c0,0.2,0,0.4,0,0.5s0,0.2,0,0.3
		c0,0.1,0,0.3,0,0.5c0,0.2,0,0.3,0,0.4s0,0.2,0,0.4c0,0.2-0.1,0.4-0.2,0.5c-0.1,0.1-0.3,0.2-0.5,0.2c-0.2,0-0.3,0-0.5-0.1
		c-0.1-0.1-0.2-0.2-0.2-0.3c0-0.1,0-0.2,0-0.3V7.7c0-0.1,0-0.2,0-0.2s0-0.1,0-0.2c0-0.1,0-0.2,0-0.2s0-0.1,0-0.2
		c0-0.2,0-0.3-0.1-0.4c-0.1-0.1-0.1-0.2-0.2-0.2c-0.1-0.1-0.2-0.1-0.4-0.1c-0.1,0-0.2,0-0.2,0s-0.1,0-0.2,0c-0.1,0-0.2,0-0.2,0
		s-0.1,0-0.2,0c-0.1,0-0.1,0-0.1,0c0,0-0.1,0-0.1,0c-0.1,0-0.1,0-0.2,0s-0.1,0-0.2,0c-0.1,0-0.2,0-0.2,0s-0.2,0.1-0.2,0.1
		c-0.1,0.1-0.1,0.1-0.2,0.2s-0.1,0.2-0.1,0.3c0,0.1,0,0.2,0,0.2s0,0.1,0,0.2c0,0.1,0,0.2,0,0.3c0,0.2,0,0.3,0,0.3c0,0.1,0,0.2,0,0.3
		c0,0.2,0,0.3,0,0.4s0,0.2,0,0.4c0,0.1,0,0.2,0,0.3s0,0.2,0,0.3c0,0.1,0,0.3,0,0.3s0,0.2,0,0.3c0,0.2,0,0.3,0,0.4s0,0.2,0,0.4
		s0,0.3,0,0.4c0,0.1,0,0.2,0,0.4c0,0.1,0,0.1,0,0.2s0,0.1,0,0.1s0,0.1,0,0.2c0,0.1,0,0.2,0,0.2s0,0.1,0,0.2c0,0.1,0,0.2,0,0.3
		c0,0.1,0,0.1,0.1,0.2c0,0.1,0.1,0.1,0.2,0.1c0,0,0.1,0.1,0.2,0.1s0.2,0,0.2,0c0.1,0,0.2,0,0.3,0s0.2,0,0.3,0c0.1,0,0.2,0,0.2,0
		c0.2,0,0.3,0,0.5,0c0.2,0,0.4,0,0.5,0s0.2,0,0.5,0c0.2,0,0.4,0,0.5,0s0.3,0,0.5,0c0.2,0,0.3,0,0.3,0c0.1,0,0.2,0,0.3,0
		c0.1,0,0.2,0,0.3,0c0.1,0,0.2,0,0.2,0s0.1,0,0.2,0c0.2,0,0.3,0,0.4,0.1c0.1,0.1,0.2,0.1,0.2,0.2c0,0.1,0.1,0.2,0.1,0.4
		c0,0.1,0,0.2,0,0.2c0,0.1,0,0.1-0.1,0.2C56.2,14.9,56.1,15,56,15c-0.1,0.1-0.2,0.1-0.4,0.1c-0.1,0-0.2,0-0.2,0s-0.1,0-0.2,0
		c-0.1,0-0.2,0-0.2,0s-0.1,0-0.2,0c-0.1,0-0.2,0-0.2,0s-0.1,0-0.2,0c-0.2,0-0.3,0-0.4,0s-0.2,0-0.3,0s-0.2,0-0.4,0
		c-0.2,0-0.3,0-0.5,0s-0.2,0-0.4,0c-0.1,0-0.2,0-0.2,0s-0.1,0-0.2,0c-0.2,0-0.4,0-0.5,0c-0.1,0-0.3,0-0.5,0c-0.1,0-0.2,0-0.3,0
		s-0.2,0-0.3,0h-0.3c-0.1,0-0.2,0-0.3,0s-0.2,0-0.3,0c-0.2,0-0.3,0-0.4-0.1s-0.2-0.1-0.2-0.2c0-0.1-0.1-0.2-0.1-0.4
		c0-0.2,0-0.4,0-0.5v-0.3c0-0.5,0-1,0-1.5c0-0.2,0-0.4,0-0.4s0-0.2,0-0.4c0-0.2,0-0.3,0-0.4c0-0.1,0-0.2,0-0.4c0-0.2,0-0.3,0-0.4
		c0-0.1,0-0.2,0-0.4c0-0.1,0-0.3,0-0.3s0-0.2,0-0.3s0-0.3,0-0.3s0-0.2,0-0.3c0-0.2,0-0.4,0-0.4c0-0.1,0-0.2,0-0.4c0-0.2,0-0.4,0-0.5
		s0-0.3,0-0.5c0-0.2,0-0.3,0-0.5c0-0.1,0-0.1,0-0.2s0-0.1,0-0.2c0-0.1,0-0.1,0-0.2c0,0,0-0.1,0-0.2C48.9,5.1,48.9,4.9,49,4.8z"/>
	<path class="st1" d="M58,5c0.1-0.1,0.1-0.2,0.2-0.3s0.2-0.1,0.4-0.1c0.2,0,0.4,0.1,0.5,0.2c0.1,0.1,0.2,0.3,0.2,0.6
		c0,0.1,0,0.1,0,0.1s0,0.1,0,0.1c0,0.1,0,0.2,0,0.2c0,0.1,0,0.1,0,0.2c0,0.3,0,0.6,0,0.8s0,0.4,0,0.7v0.1c0,0.3,0,0.5,0,0.7
		s0,0.4,0,0.7c0,0.1,0,0.3,0,0.3s0,0.2,0,0.3c0,0.2,0,0.4,0,0.4s0,0.2,0,0.4c0,0.2,0,0.4,0,0.5s0,0.3,0,0.5c0,0.2,0,0.3,0,0.5v0.8
		c0,0.1,0,0.2,0,0.3c0,0.1,0.1,0.2,0.2,0.2c0.1,0.1,0.3,0.2,0.5,0.2c0.2,0,0.3,0,0.3,0s0.2,0,0.2,0s0.2,0,0.3,0c0.2,0,0.3,0,0.4,0
		s0.2,0,0.4,0c0.1,0,0.2,0,0.3,0c0.1,0,0.2,0,0.3,0c0.2,0,0.3,0,0.4,0s0.2,0,0.4,0c0.2,0,0.3,0,0.4,0s0.2,0,0.4,0h0.8
		c0.2,0,0.3,0,0.4,0.1s0.2,0.1,0.2,0.3c0.1,0.1,0.1,0.2,0.1,0.4c0,0.1,0,0.3-0.1,0.4c0,0.1-0.1,0.2-0.2,0.2
		c-0.1,0.1-0.1,0.1-0.2,0.1c-0.1,0-0.2,0-0.3,0c-0.1,0-0.1,0-0.2,0s-0.1,0-0.2,0c-0.1,0-0.2,0-0.2,0s-0.1,0-0.2,0
		c-0.2,0-0.4,0-0.6,0c-0.1,0-0.3,0-0.5,0h-0.5c-0.2,0-0.3,0-0.4,0s-0.2,0-0.4,0s-0.3,0-0.4,0s-0.2,0-0.4,0c-0.1,0-0.2,0-0.3,0
		s-0.2,0-0.3,0c-0.1,0-0.2,0-0.3,0c-0.1,0-0.1,0-0.2,0s-0.2,0-0.3,0c-0.1,0-0.2,0-0.2,0s-0.1,0-0.2,0c-0.1,0-0.2,0-0.2,0
		s-0.1,0-0.2,0c-0.1,0-0.2,0-0.3,0C58.2,15,58.1,15,58,15c-0.1-0.1-0.1-0.1-0.1-0.2c0-0.1,0-0.2,0-0.3c0-0.1,0-0.2,0-0.2
		s0-0.1,0-0.2s0-0.1,0-0.2s0-0.1,0-0.2c0-0.2,0-0.4,0-0.5c0-0.1,0-0.3,0-0.5c0-0.2,0-0.3,0-0.5c0-0.2,0-0.4,0-0.4s0-0.2,0-0.4
		c0-0.2,0-0.4,0-0.6c0-0.3,0-0.5,0-0.6c0-0.1,0-0.3,0-0.6V9.1c0-0.2,0-0.3,0-0.4c0-0.1,0-0.2,0-0.4c0-0.1,0-0.3,0-0.3s0-0.2,0-0.3
		V6.1V5.4C57.9,5.2,57.9,5.1,58,5z"/>
	<path class="st1" d="M66.9,6.5c0-0.1,0.1-0.2,0.2-0.3c0.1-0.1,0.1-0.1,0.2-0.1s0.2,0,0.3,0c0.2,0,0.3,0,0.4-0.1
		c0.1-0.1,0.2-0.2,0.2-0.3s0.1-0.2,0.1-0.4c0-0.2,0.1-0.4,0.2-0.6c0.1-0.1,0.3-0.2,0.6-0.2c0.1,0,0.3,0,0.4,0c0.1,0,0.2,0,0.2,0
		s0.1,0,0.2,0c0.2,0,0.3,0,0.3,0c0.1,0,0.2,0,0.3,0s0.3,0,0.4,0s0.2,0,0.4,0c0.2,0,0.3,0,0.4,0s0.2,0,0.4,0c0.1,0,0.3,0,0.4,0.1
		c0.1,0.1,0.2,0.2,0.3,0.2c0.1,0.1,0.1,0.2,0.1,0.4c0,0.1,0,0.2,0,0.3c0,0.1,0.1,0.2,0.1,0.2C73.1,5.9,73.2,6,73.3,6
		s0.2,0.1,0.4,0.1s0.3,0,0.4,0.1s0.2,0.1,0.2,0.2c0.1,0.1,0.1,0.3,0.1,0.5c0,0.1,0,0.2,0,0.2c0,0.1,0,0.1,0,0.2c0,0.1,0,0.2,0,0.3
		c0,0.3,0,0.6,0,0.7s0,0.4,0,0.7v0c0,0.2,0,0.4,0,0.5s0,0.2,0,0.4s0,0.3,0,0.6c0,0.2,0,0.4,0,0.6s0,0.3,0,0.4s0,0.3,0,0.6
		c0,0.1,0,0.2,0,0.2c0,0.1,0,0.2,0,0.2s0,0.1,0,0.2c0,0.1,0,0.2,0,0.3s0,0.1-0.1,0.2c-0.1,0.1-0.1,0.2-0.2,0.2
		c-0.1,0.1-0.2,0.1-0.4,0.1c-0.2,0-0.3,0-0.4,0.1S73,13.9,73,14c-0.1,0.1-0.1,0.2-0.1,0.4c0,0.2,0,0.3-0.1,0.4S72.6,15,72.5,15
		s-0.2,0.1-0.4,0.1c-0.1,0-0.1,0-0.1,0s-0.1,0-0.1,0c-0.1,0-0.2,0-0.2,0c-0.1,0-0.1,0-0.2,0c-0.2,0-0.3,0-0.3,0s-0.2,0-0.3,0
		c-0.2,0-0.3,0-0.4,0s-0.2,0-0.4,0c-0.2,0-0.3,0-0.4,0s-0.2,0-0.4,0c-0.1,0-0.2,0-0.3-0.1c-0.1,0-0.2-0.1-0.2-0.2
		c-0.1-0.1-0.1-0.1-0.1-0.2s0-0.2,0-0.3c0-0.1,0-0.2-0.1-0.3s-0.1-0.2-0.2-0.2c-0.1-0.1-0.3-0.2-0.5-0.2c-0.2,0-0.3,0-0.4-0.1
		S67,13.4,67,13.3c-0.1-0.1-0.1-0.2-0.1-0.4c0-0.1,0-0.2,0-0.3c0-0.1,0-0.1,0-0.3c0-0.1,0-0.2,0-0.3c0-0.2,0-0.3,0-0.4
		c0-0.1,0-0.2,0-0.4c0-0.1,0-0.2,0-0.3s0-0.2,0-0.3c0-0.2,0-0.3,0-0.4s0-0.2,0-0.4c0-0.3,0-0.5,0-0.8c0-0.2,0-0.3,0-0.4s0-0.2,0-0.4
		c0-0.1,0-0.3,0-0.3c0-0.1,0-0.2,0-0.3c0-0.1,0-0.2,0-0.2c0-0.1,0-0.2,0-0.2c0-0.1,0-0.1,0-0.2C66.9,6.8,66.9,6.6,66.9,6.5z
		 M68.5,11.9c0.1,0.1,0.2,0.2,0.4,0.2c0,0,0.1,0,0.2,0c0.2,0,0.3,0,0.4,0.1c0.1,0.1,0.2,0.1,0.2,0.3c0.1,0.1,0.1,0.2,0.1,0.4
		c0,0.1,0,0.2,0,0.3s0.1,0.1,0.1,0.2c0.1,0.1,0.1,0.1,0.2,0.2c0.1,0,0.2,0.1,0.3,0.1c0.2,0,0.3,0,0.4-0.1c0.1-0.1,0.2-0.1,0.2-0.3
		c0.1-0.1,0.1-0.2,0.1-0.4c0-0.2,0.1-0.4,0.2-0.6c0.1-0.1,0.3-0.2,0.6-0.2c0.1,0,0.2,0,0.3,0c0.1,0,0.2-0.1,0.2-0.1
		c0.1-0.1,0.1-0.1,0.1-0.2c0-0.1,0.1-0.2,0.1-0.3s0-0.2,0-0.3s0-0.1,0-0.2s0-0.1,0-0.3c0-0.2,0-0.3,0-0.4s0-0.2,0-0.4s0-0.3,0-0.4
		s0-0.2,0-0.4c0-0.2,0-0.4,0-0.6V8.4c0-0.1,0-0.2,0-0.3S72.8,8,72.7,7.9c-0.1-0.1-0.1-0.2-0.2-0.2c-0.1,0-0.2-0.1-0.4-0.1
		c-0.2,0-0.3,0-0.4-0.1s-0.2-0.2-0.2-0.3c-0.1-0.1-0.1-0.2-0.1-0.4c0-0.2,0-0.3-0.1-0.4S71.1,6.3,71,6.2c-0.1-0.1-0.2-0.1-0.4-0.1
		c-0.2,0-0.4,0.1-0.5,0.2s-0.2,0.2-0.2,0.4c0,0,0,0.1,0,0.2c0,0.2,0,0.3-0.1,0.4s-0.2,0.2-0.2,0.3c-0.1,0.1-0.2,0.1-0.4,0.1
		s-0.3,0-0.4,0.1S68.5,7.9,68.5,8c-0.1,0.1-0.1,0.2-0.1,0.4c0,0.1,0,0.1,0,0.2s0,0.1,0,0.2c0,0.1,0,0.2,0,0.2s0,0.1,0,0.2
		c0,0.1,0,0.3,0,0.3s0,0.2,0,0.3c0,0.2,0,0.3,0,0.4s0,0.2,0,0.4c0,0.1,0,0.1,0,0.2s0,0.1,0,0.2s0,0.1,0,0.2s0,0.1,0,0.2
		C68.4,11.6,68.4,11.7,68.5,11.9z"/>
	<path class="st1" d="M76.1,4.8c0.1-0.1,0.3-0.2,0.6-0.2c0.2,0,0.3,0,0.4,0.1c0.1,0.1,0.2,0.2,0.2,0.3c0.1,0.1,0.1,0.2,0.1,0.4
		c0,0.1,0,0.1,0,0.2s0,0.1,0,0.2c0,0.1,0,0.2,0,0.2s0,0.1,0,0.2c0,0.2,0,0.3,0,0.4s0,0.2,0,0.4c0,0.2,0,0.3,0,0.4s0,0.2,0,0.4v1.4
		c0,0.2,0,0.3,0,0.4s0,0.2,0,0.4c0,0.2,0,0.3,0,0.4s0,0.2,0,0.4c0,0.2,0,0.3,0,0.4s0,0.2,0,0.4s0,0.3,0,0.4s0,0.2,0,0.4
		c0,0.1,0,0.1,0,0.2s0,0.1,0,0.2c0,0.1,0,0.1,0,0.2s0,0.1,0,0.2c0,0.2,0,0.4,0.1,0.5c0.1,0.1,0.2,0.2,0.4,0.3c0.1,0,0.2,0,0.3,0
		c0.2,0,0.4-0.1,0.6-0.2c0.1-0.1,0.2-0.3,0.2-0.6c0-0.1,0-0.2,0-0.3c0.1-0.1,0.1-0.2,0.3-0.3s0.3-0.1,0.5-0.1c0.1,0,0.2,0,0.3,0
		c0.1,0,0.2,0,0.3,0c0.1,0,0.1,0,0.1,0s0.1,0,0.1,0c0.1,0,0.2,0,0.2,0s0.1,0,0.2,0c0.1,0,0.1,0,0.1,0c0.2,0,0.4,0,0.5-0.1
		c0.1-0.1,0.2-0.2,0.2-0.4c0-0.1,0-0.2,0-0.2v-0.1c0-0.1,0-0.2,0-0.3c0-0.1,0-0.2,0-0.3c0-0.2,0-0.3,0-0.4c0-0.1,0-0.2,0-0.4
		s0-0.3,0-0.4s0-0.2,0-0.4c0-0.3,0-0.6,0-0.7s0-0.4,0-0.7c0-0.4,0-0.7,0-0.8s0-0.5,0-0.8c0-0.1,0-0.1,0-0.2s0-0.1,0-0.2s0-0.1,0-0.2
		s0-0.1,0-0.2c0-0.2,0-0.3,0.1-0.4c0.1-0.1,0.1-0.2,0.2-0.3c0.1,0,0.1-0.1,0.2-0.1s0.2,0,0.2,0c0.2,0,0.4,0.1,0.6,0.2
		c0.1,0.1,0.2,0.3,0.2,0.6v0.1c0,0.1,0,0.2,0,0.2c0,0.1,0,0.1,0,0.2c0,0.3,0,0.5,0,0.6s0,0.3,0,0.4c0,0.1,0,0.3,0,0.6
		c0,0.3,0,0.6,0,0.7s0,0.4,0,0.7c0,0.2,0,0.3,0,0.4s0,0.2,0,0.4s0,0.3,0,0.4c0,0.1,0,0.2,0,0.4c0,0.2,0,0.3,0,0.5c0,0.2,0,0.4,0,0.5
		s0,0.3,0,0.5c0,0.3,0,0.6,0,0.8s0,0.4,0,0.7v0.8c0,0.2-0.1,0.4-0.2,0.6s-0.3,0.2-0.6,0.2c-0.2,0-0.3,0-0.4-0.1S82,14.9,82,14.8
		c-0.1-0.1-0.1-0.2-0.1-0.4s0-0.3-0.1-0.4s-0.2-0.2-0.2-0.3c-0.1-0.1-0.2-0.1-0.4-0.1c-0.1,0-0.2,0-0.3,0c-0.1,0-0.2,0.1-0.2,0.1
		c-0.1,0.1-0.1,0.1-0.2,0.2s-0.1,0.2-0.1,0.3c0,0.2-0.1,0.4-0.2,0.6c-0.1,0.1-0.1,0.1-0.2,0.1c-0.1,0-0.2,0.1-0.3,0.1
		c-0.1,0-0.2,0-0.3,0s-0.2,0-0.3,0c-0.1,0-0.2,0-0.3,0c-0.1,0-0.2,0-0.3,0c-0.2,0-0.4,0-0.6,0s-0.3,0-0.6,0c-0.1,0-0.2,0-0.2,0
		c-0.1,0-0.2,0-0.2,0s-0.1,0-0.2,0c-0.1,0-0.3,0-0.4-0.1C76.1,15,76,14.9,76,14.8s-0.1-0.3-0.1-0.4c0-0.2,0-0.3,0-0.4s0-0.2,0-0.4
		c0-0.1,0-0.2,0-0.3s0-0.2,0-0.3c0-0.2,0-0.3,0-0.4c0-0.1,0-0.2,0-0.4c0-0.2,0-0.4,0-0.5c0-0.2,0-0.4,0-0.4s0-0.2,0-0.4
		c0-0.4,0-0.6,0-0.8s0-0.4,0-0.8c0-0.2,0-0.3,0-0.4s0-0.2,0-0.4c0-0.2,0-0.3,0-0.4s0-0.2,0-0.4c0-0.2,0-0.4,0-0.6s0-0.3,0-0.4
		s0-0.3,0-0.6V5.4C75.9,5.1,75.9,4.9,76.1,4.8z"/>
	<path class="st1" d="M85.1,4.8c0.1-0.1,0.3-0.2,0.6-0.2c0.1,0,0.2,0,0.2,0s0.1,0,0.2,0.1c0.1,0.1,0.2,0.2,0.2,0.3
		c0.1,0.1,0.1,0.2,0.1,0.4c0,0.1,0,0.2,0,0.3s0.1,0.2,0.1,0.2C86.6,6,86.7,6,86.8,6.1s0.2,0.1,0.3,0.1c0.1,0,0.2,0,0.3-0.1
		c0.1-0.1,0.2-0.1,0.3-0.2s0.1-0.3,0.1-0.4c0-0.2,0-0.3,0.1-0.5c0.1-0.1,0.1-0.2,0.2-0.2s0.2-0.1,0.4-0.1c0.1,0,0.2,0,0.3,0
		s0.2,0,0.3,0c0.1,0,0.2,0,0.3,0c0.3,0,0.6,0,0.7,0c0.2,0,0.4,0,0.7,0c0.1,0,0.2,0,0.2,0c0.1,0,0.1,0,0.2,0c0.1,0,0.2,0,0.2,0
		c0.2,0,0.4,0.1,0.6,0.2s0.2,0.3,0.2,0.6c0,0.2,0,0.3,0,0.5v0.2c0,0.2,0,0.3,0,0.4s0,0.2,0,0.4c0,0.2,0,0.3,0,0.3s0,0.2,0,0.3
		s0,0.3,0,0.3c0,0.1,0,0.2,0,0.3c0,0.1,0,0.2,0,0.2c0,0.1,0,0.1,0,0.2c0,0.4,0,0.7,0,0.8s0,0.5,0,0.8c0,0.2,0,0.3,0,0.4s0,0.2,0,0.4
		c0,0.2,0,0.3,0,0.4s0,0.2,0,0.4c0,0.2,0,0.3,0,0.4s0,0.2,0,0.3c0,0.2,0,0.3,0,0.4c0,0.1,0,0.2,0,0.4c0,0.1,0,0.1,0,0.2
		c0,0,0,0.1,0,0.2c0,0.1,0,0.1,0,0.2s0,0.1,0,0.2c0,0.2-0.1,0.4-0.2,0.6s-0.3,0.2-0.6,0.2c-0.1,0-0.2,0-0.3,0c-0.1,0-0.2,0-0.3,0
		s-0.1,0-0.3,0c-0.2,0-0.4,0-0.5,0c-0.1,0-0.2,0-0.3,0s-0.3,0-0.5,0h-0.8c-0.2,0-0.3,0-0.4-0.1S88,14.9,88,14.7
		c-0.1-0.1-0.1-0.2-0.1-0.4s0-0.3-0.1-0.4s-0.2-0.2-0.2-0.3c-0.1-0.1-0.2-0.1-0.4-0.1c-0.1,0-0.2,0-0.3,0.1c-0.1,0-0.2,0.1-0.2,0.1
		c-0.1,0.1-0.1,0.1-0.2,0.2s0,0.2,0,0.3l0,0.2c0,0.2-0.1,0.3-0.2,0.4c-0.1,0.1-0.3,0.1-0.5,0.1c-0.1,0-0.2,0-0.3,0
		c-0.1,0-0.2-0.1-0.2-0.1c-0.1-0.1-0.1-0.1-0.2-0.2s-0.1-0.2-0.1-0.4c0-0.1,0-0.2,0-0.2c0-0.1,0-0.2,0-0.2c0-0.1,0-0.1,0-0.2
		c0-0.1,0-0.3,0-0.4c0-0.2,0-0.4,0-0.5c0-0.1,0-0.3,0-0.5c0-0.2,0-0.3,0-0.4c0-0.1,0-0.2,0-0.4c0-0.1,0-0.3,0-0.3s0-0.2,0-0.3
		c0-0.2,0-0.3,0-0.4s0-0.2,0-0.4s0-0.3,0-0.4c0-0.1,0-0.2,0-0.4c0-0.2,0-0.3,0-0.4s0-0.2,0-0.4c0-0.3,0-0.5,0-0.8c0-0.2,0-0.3,0-0.4
		s0-0.2,0-0.4c0-0.2,0-0.3,0-0.3s0-0.2,0-0.3c0-0.1,0-0.2,0-0.3s0-0.1,0-0.2c0-0.1,0-0.2,0-0.3C84.9,5.1,84.9,4.9,85.1,4.8z
		 M86.6,11.9c0.1,0.1,0.3,0.2,0.6,0.2c0.5,0,1,0,1.5,0c0.1,0,0.2,0,0.2,0s0.1,0,0.2,0.1c0.1,0.1,0.2,0.1,0.2,0.2
		c0.1,0.1,0.1,0.2,0.1,0.4c0,0.1,0,0.2,0.1,0.3c0,0.1,0.1,0.2,0.2,0.2c0.1,0.1,0.2,0.1,0.2,0.1c0.1,0,0.2,0,0.3,0c0.1,0,0.2,0,0.2,0
		c0.2-0.1,0.3-0.1,0.4-0.3s0.1-0.3,0.1-0.5c0-0.2,0-0.3,0-0.4s0-0.2,0-0.4c0-0.2,0-0.5,0-0.7c0-0.2,0-0.3,0-0.4s0-0.2,0-0.3
		c0-0.2,0-0.3,0-0.5c0-0.2,0-0.4,0-0.5s0-0.3,0-0.5c0-0.2,0-0.4,0-0.5c0-0.1,0-0.3,0-0.5c0-0.2,0-0.3,0-0.4c0-0.1,0-0.1,0-0.1
		s0-0.1,0-0.1c0-0.1,0-0.2,0-0.3s0-0.2,0-0.3c0-0.1,0-0.2,0-0.3s-0.1-0.2-0.1-0.2c-0.1-0.1-0.1-0.2-0.2-0.2s-0.2-0.1-0.4-0.1
		c-0.1,0-0.2,0-0.3,0c-0.1,0-0.2,0.1-0.2,0.1c-0.1,0-0.1,0.1-0.1,0.2s-0.1,0.1-0.1,0.2c0,0.1,0,0.2,0,0.2c0,0.1,0,0.2-0.1,0.3
		c0,0.1-0.1,0.2-0.2,0.2c-0.1,0.1-0.2,0.1-0.2,0.1c-0.1,0-0.2,0-0.3,0c-0.2,0-0.3,0-0.4,0s-0.2,0-0.4,0c-0.2,0-0.3,0-0.3,0
		s-0.2,0-0.3,0c-0.2,0-0.4,0.1-0.6,0.2s-0.2,0.3-0.2,0.6c0,0.2,0,0.3,0,0.5c0,0.1,0,0.2,0,0.3c0,0.1,0,0.2,0,0.3s0,0.1,0,0.3
		c0,0.2,0,0.3,0,0.4s0,0.2,0,0.4c0,0.1,0,0.2,0,0.2c0,0,0,0.1,0,0.2c0,0.1,0,0.1,0,0.2s0,0.1,0,0.2C86.4,11.6,86.4,11.8,86.6,11.9z"
		/>
</g>
<g>
	<path class="st2" d="M8,4.9c0.1-0.1,0.3-0.2,0.5-0.2h0.6c0.2,0,0.3,0,0.4,0s0.2,0,0.3,0c0.2,0,0.3,0,0.4,0s0.2,0,0.4,0
		c0.1,0,0.3,0,0.3,0c0.1,0,0.2,0,0.3,0c0.2,0,0.3,0,0.4,0s0.2,0,0.4,0c0.1,0,0.3,0,0.3,0s0.2,0,0.3,0c0.2,0,0.4,0,0.7,0
		c0.1,0,0.1,0,0.2,0c0.1,0,0.2,0,0.3,0s0.2,0,0.3,0c0.1,0,0.2,0,0.3,0c0.1,0,0.1,0.1,0.2,0.1C14.7,5,14.8,5,14.8,5.1s0,0.2,0,0.3
		c0,0.2-0.1,0.4-0.2,0.5c-0.1,0.1-0.3,0.2-0.5,0.2c-0.2,0-0.4,0-0.7,0c-0.2,0-0.4,0-0.6,0c-0.2,0-0.4,0-0.5,0s-0.3,0-0.5,0
		c-0.2,0-0.4,0-0.6,0c-0.1,0-0.2,0-0.3,0c-0.1,0-0.2,0-0.3,0c-0.1,0-0.2,0-0.2,0s-0.1,0-0.2,0c-0.1,0-0.2,0-0.2,0s-0.1,0-0.2,0
		c-0.1,0-0.3,0-0.4,0.1C9.5,6.3,9.4,6.3,9.3,6.4C9.3,6.5,9.2,6.7,9.2,6.8c0,0.1,0,0.1,0,0.2s0,0.1,0,0.2s0,0.1,0,0.2
		c0,0,0,0.1,0,0.2c0,0.1,0,0.2,0,0.3c0,0.1,0,0.2,0,0.2s0,0.1,0,0.2c0,0.2,0,0.3,0.1,0.4c0.1,0.1,0.2,0.2,0.4,0.2c0,0,0.1,0,0.2,0
		c0.2,0,0.3,0,0.4,0c0.1,0,0.2,0,0.4,0c0.2,0,0.3,0,0.4,0c0.1,0,0.2,0,0.4,0c0.2,0,0.4-0.1,0.5-0.2C12,8.6,12,8.5,12,8.3V8.2
		c0-0.2,0-0.3,0.1-0.4c0-0.1,0.1-0.2,0.2-0.2c0.1,0,0.2-0.1,0.4-0.1c0.2,0,0.3,0,0.4,0.1c0.1,0.1,0.2,0.1,0.2,0.3
		c0,0.1,0.1,0.2,0.1,0.3c0,0.2,0,0.5,0,0.7c0,0.3,0,0.5,0,0.7c0,0.1,0,0.4,0,0.6v0.2c0,0.1,0,0.2,0,0.4c0,0.1,0,0.2,0,0.3
		c0,0.1,0,0.3-0.1,0.4c-0.1,0.1-0.1,0.2-0.2,0.2c-0.1,0.1-0.2,0.1-0.4,0.1c-0.1,0-0.2,0-0.3-0.1c-0.1,0-0.2-0.1-0.2-0.2
		c0-0.1-0.1-0.1-0.1-0.2c0-0.1,0-0.2,0-0.3c0-0.1,0-0.3-0.1-0.4c-0.1-0.1-0.1-0.2-0.2-0.2c-0.1,0-0.2-0.1-0.4-0.1
		c-0.2,0-0.4,0-0.6,0c-0.3,0-0.5,0-0.8,0c-0.1,0-0.3,0-0.4,0.1c-0.1,0.1-0.2,0.1-0.2,0.2c-0.1,0.1-0.1,0.2-0.1,0.4
		c0,0.1,0,0.3,0,0.3c0,0.1,0,0.2,0,0.3c0,0.1,0,0.2,0,0.3s0,0.2,0,0.3c0,0.2,0,0.3,0,0.4c0,0.1,0,0.2,0,0.4c0,0.1,0,0.2,0,0.3
		c0,0.1,0,0.2,0,0.2s0,0.1,0,0.2c0,0.2-0.1,0.4-0.2,0.5c-0.1,0.1-0.3,0.2-0.5,0.2c-0.5,0-0.7-0.2-0.7-0.7c0-0.1,0-0.1,0-0.2
		s0-0.1,0-0.2c0-0.1,0-0.2,0-0.2s0-0.1,0-0.2c0-0.3,0-0.6,0-0.7c0-0.2,0-0.4,0-0.7c0-0.2,0-0.5,0-0.7c0-0.2,0-0.3,0-0.4
		c0-0.1,0-0.2,0-0.3c0-0.2,0-0.5,0-0.7s0-0.4,0-0.7V7.5c0-0.2,0-0.3,0-0.4s0-0.2,0-0.4c0-0.2,0-0.4,0-0.6V5.9c0-0.2,0-0.3,0-0.5
		C7.9,5.2,7.9,5,8,4.9z"/>
	<path class="st2" d="M16.3,6.5c0-0.1,0.1-0.2,0.2-0.2c0.1,0,0.1-0.1,0.2-0.1c0.1,0,0.2,0,0.3,0c0.1,0,0.3,0,0.4-0.1
		c0.1-0.1,0.2-0.1,0.2-0.3c0-0.1,0.1-0.2,0.1-0.4c0-0.2,0.1-0.4,0.2-0.5c0.1-0.1,0.3-0.2,0.5-0.2c0.1,0,0.2,0,0.4,0
		c0.1,0,0.1,0,0.2,0s0.1,0,0.2,0c0.1,0,0.3,0,0.3,0c0.1,0,0.2,0,0.3,0s0.3,0,0.3,0s0.2,0,0.3,0c0.2,0,0.3,0,0.4,0c0.1,0,0.2,0,0.4,0
		c0.1,0,0.3,0,0.4,0.1c0.1,0.1,0.2,0.1,0.3,0.2c0.1,0.1,0.1,0.2,0.1,0.4c0,0.1,0,0.2,0,0.3c0,0.1,0.1,0.1,0.1,0.2
		C22,6,22.1,6,22.2,6.1c0.1,0,0.2,0.1,0.3,0.1c0.1,0,0.2,0,0.3,0.1s0.2,0.1,0.2,0.2c0.1,0.1,0.1,0.3,0.1,0.5c0,0.1,0,0.2,0,0.2
		s0,0.1,0,0.2c0,0.1,0,0.2,0,0.3c0,0.3,0,0.6,0,0.7c0,0.1,0,0.4,0,0.7v0c0,0.2,0,0.4,0,0.5c0,0.1,0,0.2,0,0.3s0,0.3,0,0.5
		c0,0.2,0,0.4,0,0.5c0,0.1,0,0.2,0,0.4c0,0.1,0,0.3,0,0.5c0,0.1,0,0.1,0,0.2c0,0.1,0,0.2,0,0.2s0,0.1,0,0.2c0,0.1,0,0.2,0,0.2
		c0,0.1,0,0.1-0.1,0.2c-0.1,0.1-0.1,0.2-0.2,0.2c-0.1,0-0.2,0.1-0.4,0.1c-0.2,0-0.3,0-0.4,0.1c-0.1,0.1-0.2,0.1-0.2,0.2
		c-0.1,0.1-0.1,0.2-0.1,0.4s0,0.3-0.1,0.4s-0.1,0.2-0.2,0.2c-0.1,0.1-0.2,0.1-0.4,0.1c0,0-0.1,0-0.1,0c0,0-0.1,0-0.1,0
		c-0.1,0-0.2,0-0.2,0s-0.1,0-0.2,0c-0.1,0-0.3,0-0.3,0c-0.1,0-0.2,0-0.3,0c-0.2,0-0.3,0-0.4,0c-0.1,0-0.2,0-0.4,0
		c-0.2,0-0.3,0-0.4,0s-0.2,0-0.4,0c-0.1,0-0.2,0-0.3,0c-0.1,0-0.2-0.1-0.2-0.2c0-0.1-0.1-0.1-0.1-0.2c0-0.1,0-0.2,0-0.3
		c0-0.1,0-0.2-0.1-0.3c0-0.1-0.1-0.2-0.2-0.2c-0.1-0.1-0.3-0.2-0.5-0.2c-0.1,0-0.3,0-0.4-0.1c-0.1-0.1-0.2-0.1-0.2-0.2
		c-0.1-0.1-0.1-0.2-0.1-0.4c0-0.1,0-0.2,0-0.2c0-0.1,0-0.1,0-0.2c0-0.1,0-0.2,0-0.3c0-0.2,0-0.3,0-0.4c0-0.1,0-0.2,0-0.3
		c0-0.1,0-0.2,0-0.3c0-0.1,0-0.2,0-0.3c0-0.2,0-0.3,0-0.4c0-0.1,0-0.2,0-0.4c0-0.2,0-0.5,0-0.7c0-0.2,0-0.3,0-0.4c0-0.1,0-0.2,0-0.4
		c0-0.1,0-0.2,0-0.3c0-0.1,0-0.2,0-0.3c0-0.1,0-0.1,0-0.2c0-0.1,0-0.2,0-0.2s0-0.1,0-0.2C16.2,6.7,16.3,6.6,16.3,6.5z M17.8,11.5
		c0.1,0.1,0.2,0.2,0.4,0.2c0,0,0.1,0,0.2,0c0.1,0,0.3,0,0.4,0.1c0.1,0.1,0.2,0.1,0.2,0.2c0.1,0.1,0.1,0.2,0.1,0.4c0,0.1,0,0.2,0,0.3
		c0,0.1,0.1,0.1,0.1,0.2c0.1,0.1,0.1,0.1,0.2,0.2s0.2,0.1,0.3,0.1c0.1,0,0.3,0,0.4-0.1c0.1-0.1,0.2-0.1,0.2-0.2
		c0.1-0.1,0.1-0.2,0.1-0.4c0-0.2,0.1-0.4,0.2-0.5c0.1-0.1,0.3-0.2,0.5-0.2c0.1,0,0.2,0,0.3,0c0.1,0,0.2-0.1,0.2-0.1
		c0.1-0.1,0.1-0.1,0.1-0.2c0-0.1,0-0.2,0-0.3c0-0.1,0-0.2,0-0.3s0-0.1,0-0.2c0-0.1,0-0.1,0-0.3c0-0.2,0-0.3,0-0.3s0-0.2,0-0.3
		c0-0.1,0-0.3,0-0.3c0-0.1,0-0.2,0-0.3c0-0.2,0-0.4,0-0.5V8.2c0-0.1,0-0.2,0-0.3s-0.1-0.1-0.1-0.2c-0.1-0.1-0.1-0.1-0.2-0.2
		c-0.1,0-0.2-0.1-0.3-0.1c-0.1,0-0.3,0-0.4-0.1c-0.1-0.1-0.2-0.1-0.2-0.2c-0.1-0.1-0.1-0.2-0.1-0.4c0-0.1,0-0.3-0.1-0.4
		c-0.1-0.1-0.1-0.2-0.2-0.2c-0.1-0.1-0.2-0.1-0.4-0.1c-0.2,0-0.4,0-0.5,0.1s-0.2,0.2-0.2,0.4c0,0,0,0.1,0,0.2C19,7,19,7.1,19,7.2
		c-0.1,0.1-0.1,0.2-0.2,0.2c-0.1,0.1-0.2,0.1-0.4,0.1s-0.3,0-0.4,0.1s-0.2,0.1-0.2,0.2s-0.1,0.2-0.1,0.4c0,0.1,0,0.1,0,0.2
		s0,0.1,0,0.2c0,0.1,0,0.2,0,0.2s0,0.1,0,0.2c0,0.1,0,0.2,0,0.3s0,0.2,0,0.3c0,0.2,0,0.3,0,0.4s0,0.2,0,0.4c0,0.1,0,0.1,0,0.2
		s0,0.1,0,0.2s0,0.1,0,0.2c0,0,0,0.1,0,0.2C17.6,11.2,17.7,11.4,17.8,11.5z"/>
	<path class="st2" d="M24.7,5.2c0-0.1,0.1-0.2,0.1-0.2c0.1-0.1,0.1-0.1,0.2-0.2c0.1,0,0.2-0.1,0.3-0.1c0.2,0,0.3,0,0.4,0
		s0.2,0,0.4,0c0.1,0,0.2,0,0.3,0c0.2,0,0.3,0,0.4,0s0.2,0,0.4,0c0.1,0,0.2,0,0.2,0c0.1,0,0.1,0,0.1,0c0,0,0.1,0,0.2,0
		c0.1,0,0.2,0,0.2,0c0.1,0,0.3,0,0.4,0.1c0.1,0.1,0.2,0.1,0.3,0.2c0.1,0.1,0.1,0.2,0.1,0.4v0.7c0,0.2,0,0.3,0,0.4c0,0.1,0,0.2,0,0.4
		s0,0.3,0,0.4s0,0.2,0,0.4s0,0.3,0,0.4s0,0.2,0,0.4s0,0.3,0,0.3c0,0.1,0,0.2,0,0.4c0,0.1,0,0.2,0,0.2s0,0.1,0,0.2c0,0.2,0,0.3,0,0.4
		s0,0.2,0,0.4c0,0.1,0,0.3,0,0.3c0,0.1,0,0.2,0,0.3c0,0.2,0,0.3,0,0.4c0,0.1,0,0.2,0,0.4c0,0.2,0,0.3,0,0.4c0,0.1,0,0.2,0,0.4
		c0,0.1,0,0.3,0.1,0.4c0.1,0.1,0.1,0.2,0.2,0.2c0.1,0.1,0.2,0.1,0.4,0.1h0.1c0.2,0,0.4-0.1,0.5-0.2c0.1-0.1,0.2-0.3,0.2-0.5
		c0-0.1,0-0.2,0-0.3c0-0.1,0-0.3,0-0.4c0-0.2,0-0.3,0-0.4c0-0.1,0-0.2,0-0.4c0-0.1,0-0.2,0-0.3s0-0.2,0-0.3v0c0-0.2,0-0.4,0-0.5
		s0-0.2,0-0.4s0-0.3,0-0.5c0-0.2,0-0.4,0-0.5s0-0.3,0-0.5c0-0.1,0-0.2,0-0.2s0-0.1,0-0.2c0-0.1,0-0.2,0-0.3c0-0.1,0-0.2,0-0.3
		c0-0.1,0-0.3,0-0.3s0-0.2,0-0.3V5.4c0-0.1,0-0.2,0.1-0.3c0-0.1,0.1-0.2,0.2-0.3c0.1-0.1,0.3-0.1,0.4-0.1c0.2,0,0.4,0.1,0.5,0.2
		c0.1,0.1,0.2,0.3,0.2,0.5c0,0.1,0,0.2,0,0.3s0,0.2,0,0.2s0,0.1,0,0.2v0.1c0,0.3,0,0.5,0,0.6c0,0.1,0,0.3,0,0.6c0,0.2,0,0.3,0,0.4
		c0,0.1,0,0.2,0,0.4c0,0.2,0,0.3,0,0.4s0,0.2,0,0.4v1.5c0,0.2,0,0.3,0,0.4s0,0.2,0,0.3c0,0.1,0,0.3,0,0.3c0,0.1,0,0.2,0,0.3
		c0,0.2,0,0.3,0,0.4s0,0.2,0,0.4c0,0.2,0,0.3,0,0.4s0,0.2,0,0.4c0,0.1,0,0.1,0,0.2c0,0,0,0.1,0,0.2c0,0.1,0,0.2,0,0.3
		c0,0.2,0,0.3-0.1,0.4c0,0.1-0.1,0.2-0.2,0.2c-0.1,0.1-0.2,0.1-0.4,0.1c-0.1,0-0.2,0-0.2,0s-0.1,0-0.2,0c-0.1,0-0.1,0-0.2,0
		s-0.1,0-0.2,0c-0.2,0-0.3,0-0.4,0s-0.2,0-0.3,0c-0.1,0-0.2,0-0.3,0s-0.2,0-0.3,0h-0.8c-0.1,0-0.2,0-0.3,0c-0.1,0-0.2-0.1-0.2-0.1
		c-0.1-0.1-0.1-0.1-0.2-0.2c0-0.1-0.1-0.2-0.1-0.3c0-0.1,0-0.3,0-0.3c0-0.1,0-0.2,0-0.3c0-0.2,0-0.4,0-0.6c0-0.2,0-0.4,0-0.5
		c0-0.1,0-0.3,0-0.5c0-0.3,0-0.5,0-0.6c0-0.1,0-0.3,0-0.6c0-0.2,0-0.4,0-0.7c0-0.2,0-0.3,0-0.4s0-0.2,0-0.4c0-0.2,0-0.3,0-0.4
		c0-0.1,0-0.2,0-0.4c0-0.1,0-0.2,0-0.3c0-0.1,0-0.2,0-0.3c0-0.1,0-0.1,0-0.1s0-0.1,0-0.1c0-0.1,0-0.1,0-0.1s0-0.1,0-0.1
		c0-0.2-0.1-0.4-0.2-0.5c-0.1-0.1-0.3-0.2-0.5-0.2c-0.1,0-0.3,0-0.4,0.1c-0.1,0.1-0.2,0.1-0.2,0.2C26.1,6.5,26,6.7,26,6.8
		C26,6.9,26,7,26,7s0,0.1,0,0.2c0,0.1,0,0.1,0,0.2c0,0,0,0.1,0,0.2c0,0.2,0,0.3,0,0.4s0,0.2,0,0.4s0,0.3,0,0.4c0,0.1,0,0.2,0,0.4
		c0,0.2,0,0.4,0,0.5s0,0.3,0,0.5c0,0.1,0,0.3,0,0.4c0,0.1,0,0.3,0,0.3s0,0.2,0,0.3c0,0.2,0,0.3,0,0.4s0,0.2,0,0.4c0,0.1,0,0.3,0,0.3
		s0,0.2,0,0.3s0,0.3,0,0.3c0,0.1,0,0.2,0,0.3c0,0.1,0,0.2,0,0.3c0,0.1,0,0.1,0,0.2s0,0.1,0,0.2c0,0.1,0,0.1,0,0.2
		c0,0.2-0.1,0.3-0.2,0.4c-0.1,0.1-0.3,0.1-0.4,0.1c-0.2,0-0.4-0.1-0.5-0.2c-0.1-0.1-0.2-0.3-0.2-0.5c0-0.1,0-0.3,0-0.4s0-0.3,0-0.4
		c0-0.2,0-0.4,0-0.6c0-0.1,0-0.3,0-0.3c0-0.1,0-0.2,0-0.3c0-0.2,0-0.4,0-0.7c0-0.1,0-0.3,0-0.3s0-0.2,0-0.3c0-0.2,0-0.3,0-0.4
		c0-0.1,0-0.2,0-0.3c0-0.2,0-0.3,0-0.3s0-0.2,0-0.3c0-0.3,0-0.5,0-0.7c0-0.1,0-0.4,0-0.7c0-0.2,0-0.4,0-0.5s0-0.2,0-0.4
		c0-0.1,0-0.3,0-0.5c0-0.2,0-0.4,0-0.7C24.6,5.3,24.7,5.2,24.7,5.2z"/>
	<path class="st2" d="M35.8,6.5c-0.1-0.1-0.1-0.2-0.2-0.2c-0.1-0.1-0.2-0.1-0.4-0.1s-0.3,0-0.4,0.1s-0.2,0.1-0.2,0.2
		c-0.1,0.1-0.1,0.2-0.1,0.4c0,0.1,0,0.2-0.1,0.3c0,0.1-0.1,0.2-0.1,0.2c-0.1,0.1-0.1,0.1-0.2,0.1s-0.2,0-0.3,0c-0.2,0-0.3,0-0.4-0.1
		c-0.1-0.1-0.2-0.2-0.2-0.3C33.1,7,33,6.9,33,6.8c0-0.2,0-0.3,0-0.5c0-0.1,0-0.2,0-0.3c0-0.1,0-0.2,0-0.3s0-0.2,0-0.3
		c0-0.1,0-0.2,0-0.3s0.1-0.2,0.1-0.2c0.1-0.1,0.1-0.1,0.2-0.2c0.1,0,0.2-0.1,0.3-0.1h0.8c0.2,0,0.4,0,0.6,0c0.1,0,0.2,0,0.3,0
		c0.1,0,0.2,0,0.3,0c0.2,0,0.3,0,0.4,0s0.2,0,0.4,0c0.2,0,0.4,0,0.6,0c0.1,0,0.3,0,0.3,0c0.1,0,0.2,0,0.3,0c0.1,0,0.3,0,0.3,0
		c0.1,0,0.2,0,0.3,0c0.1,0,0.1,0,0.2,0c0,0,0.1,0,0.2,0c0.1,0,0.2,0,0.3,0c0.1,0,0.1,0,0.3,0c0.1,0,0.3,0,0.4,0.1
		c0.1,0.1,0.2,0.1,0.2,0.2C40,5.2,40,5.3,40,5.4c0,0,0,0.1,0,0.1s0,0.1,0,0.1c0,0.1,0,0.2,0,0.2s0,0.1,0,0.2c0,0.1,0,0.1,0,0.1
		c0,0,0,0.1,0,0.1c0,0.1,0,0.2,0,0.2c0,0,0,0.1,0,0.2C40,7,40,7.1,40,7.2c-0.1,0.1-0.1,0.2-0.2,0.2s-0.2,0.1-0.4,0.1
		c-0.1,0-0.2,0-0.2,0c-0.1,0-0.1,0-0.2-0.1c-0.1-0.1-0.1-0.1-0.2-0.2c0-0.1-0.1-0.2-0.1-0.4c0-0.2-0.1-0.4-0.2-0.5
		c-0.1-0.1-0.3-0.2-0.5-0.2c-0.1,0-0.2,0-0.3,0s-0.2,0.1-0.2,0.1c-0.1,0.1-0.2,0.3-0.2,0.5c0,0,0,0.1,0,0.1s0,0.1,0,0.1
		c0,0.1,0,0.2,0,0.2c0,0,0,0.1,0,0.2c0,0.2,0,0.4,0,0.5c0,0.1,0,0.2,0,0.3s0,0.3,0,0.5v0.1c0,0.2,0,0.4,0,0.5s0,0.2,0,0.4
		s0,0.3,0,0.5c0,0.2,0,0.3,0,0.4s0,0.2,0,0.4c0,0.1,0,0.3,0,0.4c0,0.2,0,0.3,0,0.4s0,0.2,0,0.4c0,0.1,0,0.3,0.1,0.4
		c0.1,0.1,0.1,0.2,0.2,0.2c0.1,0.1,0.2,0.1,0.4,0.1c0.1,0,0.1,0,0.2,0c0.1,0,0.3,0.1,0.3,0.2c0.1,0.1,0.1,0.3,0.1,0.4
		c0,0.1,0,0.3-0.1,0.4c-0.1,0.1-0.1,0.2-0.2,0.2c-0.1,0.1-0.2,0.1-0.4,0.1c-0.1,0-0.2,0-0.2,0s-0.1,0-0.2,0c-0.1,0-0.2,0-0.2,0
		c-0.1,0-0.3,0-0.3,0c-0.1,0-0.2,0-0.3,0c-0.2,0-0.3,0-0.4,0c-0.1,0-0.2,0-0.4,0c-0.1,0-0.2,0-0.2,0c0,0-0.1,0-0.2,0
		c-0.1,0-0.2,0-0.3,0c-0.1,0-0.3,0-0.4-0.1c-0.1-0.1-0.2-0.1-0.2-0.2s-0.1-0.2-0.1-0.4c0-0.2,0-0.3,0.1-0.4c0.1-0.1,0.2-0.2,0.3-0.2
		c0,0,0.1,0,0.1,0c0,0,0.1,0,0.1,0c0.1,0,0.1,0,0.2,0c0.2,0,0.3-0.1,0.4-0.2c0.1-0.1,0.1-0.3,0.1-0.5c0-0.2,0-0.3,0-0.4
		c0-0.1,0-0.2,0-0.4v-0.4c0-0.2,0-0.4,0-0.5c0-0.1,0-0.3,0-0.5c0-0.1,0-0.2,0-0.3c0-0.1,0-0.2,0-0.3c0-0.2,0-0.3,0-0.4
		c0-0.1,0-0.2,0-0.4c0-0.3,0-0.6,0-0.7s0-0.4,0-0.7c0-0.1,0-0.2,0-0.2c0-0.1,0-0.1,0-0.2c0-0.1,0-0.2,0-0.3
		C35.8,6.7,35.8,6.6,35.8,6.5z"/>
	<path class="st2" d="M46.5,4.9c0.1-0.1,0.3-0.2,0.5-0.2h0.6c0.2,0,0.3,0,0.4,0s0.2,0,0.3,0c0.2,0,0.3,0,0.4,0s0.2,0,0.4,0
		c0.1,0,0.3,0,0.3,0c0.1,0,0.2,0,0.3,0c0.2,0,0.3,0,0.4,0s0.2,0,0.4,0c0.1,0,0.3,0,0.3,0c0.1,0,0.2,0,0.3,0c0.2,0,0.4,0,0.7,0
		c0.1,0,0.1,0,0.2,0c0.1,0,0.2,0,0.3,0s0.2,0,0.3,0c0.1,0,0.2,0,0.3,0c0.1,0,0.1,0.1,0.2,0.1C53.2,5,53.3,5,53.3,5.1s0,0.2,0,0.3
		c0,0.2-0.1,0.4-0.2,0.5c-0.1,0.1-0.3,0.2-0.5,0.2c-0.2,0-0.4,0-0.7,0c-0.2,0-0.4,0-0.6,0s-0.4,0-0.5,0s-0.3,0-0.5,0
		c-0.2,0-0.4,0-0.6,0c-0.1,0-0.2,0-0.3,0c-0.1,0-0.2,0-0.3,0c-0.1,0-0.2,0-0.2,0s-0.1,0-0.2,0c-0.1,0-0.2,0-0.2,0s-0.1,0-0.2,0
		c-0.1,0-0.3,0-0.4,0.1c-0.1,0.1-0.2,0.1-0.2,0.2c-0.1,0.1-0.1,0.2-0.1,0.4c0,0.1,0,0.1,0,0.2s0,0.1,0,0.2s0,0.1,0,0.2
		c0,0,0,0.1,0,0.2c0,0.1,0,0.2,0,0.3c0,0.1,0,0.2,0,0.2s0,0.1,0,0.2c0,0.2,0,0.3,0.1,0.4c0.1,0.1,0.2,0.2,0.4,0.2c0,0,0.1,0,0.2,0
		c0.2,0,0.3,0,0.4,0c0.1,0,0.2,0,0.4,0c0.2,0,0.3,0,0.4,0c0.1,0,0.2,0,0.4,0c0.2,0,0.4-0.1,0.5-0.2c0.1-0.1,0.2-0.3,0.2-0.5V8.2
		c0-0.2,0-0.3,0.1-0.4c0-0.1,0.1-0.2,0.2-0.2c0.1,0,0.2-0.1,0.4-0.1c0.2,0,0.3,0,0.4,0.1s0.2,0.1,0.2,0.3c0,0.1,0.1,0.2,0.1,0.3
		c0,0.2,0,0.5,0,0.7c0,0.3,0,0.5,0,0.7c0,0.1,0,0.4,0,0.6v0.2c0,0.1,0,0.2,0,0.4c0,0.1,0,0.2,0,0.3c0,0.1,0,0.3-0.1,0.4
		c-0.1,0.1-0.1,0.2-0.2,0.2c-0.1,0.1-0.2,0.1-0.4,0.1c-0.1,0-0.2,0-0.3-0.1c-0.1,0-0.2-0.1-0.2-0.2c0-0.1-0.1-0.1-0.1-0.2
		c0-0.1,0-0.2,0-0.3c0-0.1,0-0.3-0.1-0.4c-0.1-0.1-0.1-0.2-0.2-0.2c-0.1,0-0.2-0.1-0.4-0.1c-0.2,0-0.4,0-0.6,0c-0.3,0-0.5,0-0.8,0
		c-0.1,0-0.3,0-0.4,0.1c-0.1,0.1-0.2,0.1-0.2,0.2c-0.1,0.1-0.1,0.2-0.1,0.4c0,0.1,0,0.3,0,0.3c0,0.1,0,0.2,0,0.3c0,0.1,0,0.2,0,0.3
		s0,0.2,0,0.3c0,0.2,0,0.3,0,0.4c0,0.1,0,0.2,0,0.4c0,0.1,0,0.2,0,0.3c0,0.1,0,0.2,0,0.2s0,0.1,0,0.2c0,0.2-0.1,0.4-0.2,0.5
		c-0.1,0.1-0.3,0.2-0.5,0.2c-0.5,0-0.7-0.2-0.7-0.7c0-0.1,0-0.1,0-0.2s0-0.1,0-0.2c0-0.1,0-0.2,0-0.2s0-0.1,0-0.2c0-0.3,0-0.6,0-0.7
		c0-0.2,0-0.4,0-0.7c0-0.2,0-0.5,0-0.7c0-0.2,0-0.3,0-0.4c0-0.1,0-0.2,0-0.3c0-0.2,0-0.5,0-0.7s0-0.4,0-0.7V7.5c0-0.2,0-0.3,0-0.4
		s0-0.2,0-0.4c0-0.2,0-0.4,0-0.6V5.9c0-0.2,0-0.3,0-0.5C46.3,5.2,46.4,5,46.5,4.9z"/>
	<path class="st2" d="M54.8,5c0.1-0.1,0.1-0.2,0.2-0.2c0.1-0.1,0.2-0.1,0.4-0.1c0.2,0,0.4,0.1,0.5,0.2s0.2,0.3,0.2,0.5
		c0,0.1,0,0.1,0,0.1s0,0.1,0,0.1c0,0.1,0,0.2,0,0.2c0,0,0,0.1,0,0.2c0,0.3,0,0.6,0,0.7s0,0.4,0,0.7v0.1c0,0.3,0,0.5,0,0.6
		c0,0.1,0,0.3,0,0.6c0,0.1,0,0.2,0,0.3s0,0.2,0,0.3c0,0.2,0,0.3,0,0.4s0,0.2,0,0.4c0,0.2,0,0.4,0,0.5c0,0.1,0,0.2,0,0.4
		c0,0.1,0,0.3,0,0.4v0.8c0,0.1,0,0.2,0,0.3c0,0.1,0.1,0.2,0.1,0.2c0.1,0.1,0.3,0.2,0.5,0.2c0.1,0,0.2,0,0.3,0s0.1,0,0.2,0
		s0.2,0,0.3,0c0.2,0,0.3,0,0.4,0s0.2,0,0.3,0c0.1,0,0.2,0,0.3,0s0.1,0,0.3,0c0.2,0,0.3,0,0.4,0c0.1,0,0.2,0,0.4,0c0.1,0,0.3,0,0.3,0
		c0.1,0,0.2,0,0.3,0h0.7c0.1,0,0.3,0,0.4,0.1c0.1,0.1,0.2,0.1,0.2,0.2c0.1,0.1,0.1,0.2,0.1,0.4c0,0.1,0,0.2,0,0.3
		c0,0.1-0.1,0.2-0.1,0.2c-0.1,0-0.1,0.1-0.2,0.1s-0.2,0-0.3,0c-0.1,0-0.1,0-0.2,0s-0.1,0-0.2,0c-0.1,0-0.2,0-0.2,0s-0.1,0-0.2,0
		c-0.2,0-0.4,0-0.5,0c-0.1,0-0.3,0-0.5,0h-0.4c-0.2,0-0.3,0-0.4,0s-0.2,0-0.4,0s-0.3,0-0.3,0c-0.1,0-0.2,0-0.3,0c-0.1,0-0.2,0-0.3,0
		c-0.1,0-0.1,0-0.3,0c-0.1,0-0.2,0-0.3,0s-0.1,0-0.2,0s-0.2,0-0.3,0c-0.1,0-0.2,0-0.2,0s-0.1,0-0.2,0c-0.1,0-0.1,0-0.2,0
		s-0.1,0-0.2,0c-0.1,0-0.2,0-0.3,0c-0.1,0-0.2-0.1-0.2-0.1c-0.1-0.1-0.1-0.1-0.1-0.2c0-0.1,0-0.2,0-0.3c0-0.1,0-0.1,0-0.2
		s0-0.1,0-0.2s0-0.1,0-0.2s0-0.1,0-0.2c0-0.2,0-0.4,0-0.5s0-0.3,0-0.5c0-0.2,0-0.3,0-0.5c0-0.2,0-0.3,0-0.4c0-0.1,0-0.2,0-0.4
		c0-0.2,0-0.4,0-0.6c0-0.3,0-0.4,0-0.6s0-0.3,0-0.6V8.9c0-0.2,0-0.3,0-0.4c0-0.1,0-0.2,0-0.4c0-0.1,0-0.2,0-0.3s0-0.2,0-0.3V6.1V5.4
		C54.8,5.3,54.8,5.1,54.8,5z"/>
	<path class="st2" d="M63.2,6.5c0-0.1,0.1-0.2,0.2-0.2c0.1,0,0.1-0.1,0.2-0.1c0.1,0,0.2,0,0.3,0c0.1,0,0.3,0,0.4-0.1
		c0.1-0.1,0.2-0.1,0.2-0.3c0-0.1,0.1-0.2,0.1-0.4c0-0.2,0.1-0.4,0.2-0.5c0.1-0.1,0.3-0.2,0.5-0.2c0.1,0,0.2,0,0.4,0
		c0.1,0,0.1,0,0.2,0s0.1,0,0.2,0c0.1,0,0.3,0,0.3,0c0.1,0,0.2,0,0.3,0s0.3,0,0.3,0c0.1,0,0.2,0,0.3,0c0.2,0,0.3,0,0.4,0s0.2,0,0.4,0
		c0.1,0,0.3,0,0.4,0.1c0.1,0.1,0.2,0.1,0.3,0.2c0.1,0.1,0.1,0.2,0.1,0.4c0,0.1,0,0.2,0,0.3c0,0.1,0.1,0.1,0.1,0.2
		C68.9,6,69,6,69.1,6.1s0.2,0.1,0.3,0.1s0.2,0,0.3,0.1c0.1,0,0.2,0.1,0.2,0.2c0.1,0.1,0.1,0.3,0.1,0.5c0,0.1,0,0.2,0,0.2
		s0,0.1,0,0.2c0,0.1,0,0.2,0,0.3c0,0.3,0,0.6,0,0.7c0,0.1,0,0.4,0,0.7v0c0,0.2,0,0.4,0,0.5c0,0.1,0,0.2,0,0.3s0,0.3,0,0.5
		c0,0.2,0,0.4,0,0.5c0,0.1,0,0.2,0,0.4c0,0.1,0,0.3,0,0.5c0,0.1,0,0.1,0,0.2c0,0.1,0,0.2,0,0.2s0,0.1,0,0.2c0,0.1,0,0.2,0,0.2
		c0,0.1,0,0.1-0.1,0.2c-0.1,0.1-0.1,0.2-0.2,0.2c-0.1,0-0.2,0.1-0.4,0.1c-0.2,0-0.3,0-0.4,0.1c-0.1,0.1-0.2,0.1-0.2,0.2
		c-0.1,0.1-0.1,0.2-0.1,0.4s0,0.3-0.1,0.4c-0.1,0.1-0.1,0.2-0.2,0.2c-0.1,0.1-0.2,0.1-0.4,0.1c0,0-0.1,0-0.1,0c0,0-0.1,0-0.1,0
		c-0.1,0-0.2,0-0.2,0c0,0-0.1,0-0.2,0c-0.1,0-0.3,0-0.3,0c-0.1,0-0.2,0-0.3,0c-0.2,0-0.3,0-0.4,0s-0.2,0-0.4,0c-0.2,0-0.3,0-0.4,0
		s-0.2,0-0.4,0c-0.1,0-0.2,0-0.3,0c-0.1,0-0.2-0.1-0.2-0.2c0-0.1-0.1-0.1-0.1-0.2c0-0.1,0-0.2,0-0.3c0-0.1,0-0.2-0.1-0.3
		c0-0.1-0.1-0.2-0.2-0.2c-0.1-0.1-0.3-0.2-0.5-0.2c-0.1,0-0.3,0-0.4-0.1c-0.1-0.1-0.2-0.1-0.2-0.2c-0.1-0.1-0.1-0.2-0.1-0.4
		c0-0.1,0-0.2,0-0.2c0-0.1,0-0.1,0-0.2c0-0.1,0-0.2,0-0.3c0-0.2,0-0.3,0-0.4c0-0.1,0-0.2,0-0.3c0-0.1,0-0.2,0-0.3c0-0.1,0-0.2,0-0.3
		c0-0.2,0-0.3,0-0.4c0-0.1,0-0.2,0-0.4c0-0.2,0-0.5,0-0.7c0-0.2,0-0.3,0-0.4c0-0.1,0-0.2,0-0.4c0-0.1,0-0.2,0-0.3c0-0.1,0-0.2,0-0.3
		c0-0.1,0-0.1,0-0.2c0-0.1,0-0.2,0-0.2s0-0.1,0-0.2C63.1,6.7,63.2,6.6,63.2,6.5z M64.7,11.5c0.1,0.1,0.2,0.2,0.4,0.2
		c0,0,0.1,0,0.2,0c0.1,0,0.3,0,0.4,0.1c0.1,0.1,0.2,0.1,0.2,0.2c0.1,0.1,0.1,0.2,0.1,0.4c0,0.1,0,0.2,0,0.3c0,0.1,0.1,0.1,0.1,0.2
		c0.1,0.1,0.1,0.1,0.2,0.2s0.2,0.1,0.3,0.1c0.1,0,0.3,0,0.4-0.1s0.2-0.1,0.2-0.2c0.1-0.1,0.1-0.2,0.1-0.4c0-0.2,0.1-0.4,0.2-0.5
		s0.3-0.2,0.5-0.2c0.1,0,0.2,0,0.3,0c0.1,0,0.2-0.1,0.2-0.1c0.1-0.1,0.1-0.1,0.1-0.2c0-0.1,0-0.2,0-0.3c0-0.1,0-0.2,0-0.3
		s0-0.1,0-0.2c0-0.1,0-0.1,0-0.3c0-0.2,0-0.3,0-0.3s0-0.2,0-0.3c0-0.1,0-0.3,0-0.3c0-0.1,0-0.2,0-0.3c0-0.2,0-0.4,0-0.5V8.2
		c0-0.1,0-0.2,0-0.3c0-0.1-0.1-0.1-0.1-0.2c-0.1-0.1-0.1-0.1-0.2-0.2c-0.1,0-0.2-0.1-0.3-0.1c-0.1,0-0.3,0-0.4-0.1s-0.2-0.1-0.2-0.2
		c-0.1-0.1-0.1-0.2-0.1-0.4c0-0.1,0-0.3-0.1-0.4c-0.1-0.1-0.1-0.2-0.2-0.2s-0.2-0.1-0.4-0.1c-0.2,0-0.4,0-0.5,0.1
		C66.1,6.4,66,6.5,66,6.7c0,0,0,0.1,0,0.2c0,0.1,0,0.3-0.1,0.4c-0.1,0.1-0.1,0.2-0.2,0.2s-0.2,0.1-0.4,0.1s-0.3,0-0.4,0.1
		s-0.2,0.1-0.2,0.2c-0.1,0.1-0.1,0.2-0.1,0.4c0,0.1,0,0.1,0,0.2s0,0.1,0,0.2c0,0.1,0,0.2,0,0.2s0,0.1,0,0.2c0,0.1,0,0.2,0,0.3
		s0,0.2,0,0.3c0,0.2,0,0.3,0,0.4s0,0.2,0,0.4c0,0.1,0,0.1,0,0.2s0,0.1,0,0.2s0,0.1,0,0.2c0,0,0,0.1,0,0.2
		C64.5,11.2,64.6,11.4,64.7,11.5z"/>
	<path class="st2" d="M71.8,14.4c-0.1-0.1-0.2-0.2-0.2-0.4c0,0,0-0.1,0-0.1v-0.7c0-0.1,0-0.3,0-0.3c0-0.1,0-0.2,0-0.3
		c0-0.2,0-0.3,0-0.4c0-0.1,0-0.2,0-0.4s0-0.3,0-0.4c0-0.1,0-0.2,0-0.4c0-0.2,0-0.3,0-0.4c0-0.1,0-0.2,0-0.4c0-0.2,0-0.3,0-0.4
		s0-0.2,0-0.4c0-0.1,0-0.3,0-0.3c0-0.1,0-0.2,0-0.3c0-0.2,0-0.3,0-0.4c0-0.1,0-0.2,0-0.4c0-0.2,0-0.3,0-0.5c0-0.1,0-0.3,0-0.3
		s0-0.2,0-0.3s0-0.3,0-0.3s0-0.2,0-0.3c0-0.1,0-0.2,0-0.3c0-0.1,0-0.1,0-0.2c0,0,0-0.1,0-0.2c0-0.1,0-0.2,0-0.3
		c0-0.1,0.1-0.2,0.2-0.3c0.1-0.1,0.3-0.1,0.4-0.1c0.1,0,0.2,0,0.3,0s0.2,0.1,0.2,0.2c0,0.1,0.1,0.1,0.1,0.2c0,0.1,0,0.2,0,0.3
		c0,0.1,0,0.2,0,0.3s0,0.2,0,0.3c0,0,0,0.1,0,0.2c0,0.2,0,0.3,0,0.4c0,0.1,0,0.2,0,0.4c0,0.2,0,0.4,0,0.7c0,0.2,0,0.3,0,0.4
		s0,0.2,0,0.4c0,0.2,0,0.4,0,0.6c0,0.2,0,0.3,0,0.3c0,0.1,0,0.2,0,0.4c0,0.2,0,0.5,0,0.7c0,0.1,0,0.2,0,0.3c0,0.1,0,0.2,0,0.3
		c0,0.1,0,0.3,0,0.3s0,0.2,0,0.3v0.8c0,0.2,0.1,0.4,0.2,0.5c0.1,0.1,0.3,0.2,0.5,0.2c0.2,0,0.4-0.1,0.5-0.2c0.1-0.1,0.2-0.3,0.2-0.5
		c0-0.1,0-0.2,0-0.2s0-0.1,0-0.2s0-0.1,0-0.2s0-0.1,0-0.2v-0.3c0-0.2,0-0.3,0-0.4c0-0.1,0-0.2,0-0.3s0-0.2,0-0.4c0-0.2,0-0.4,0-0.6
		c0-0.2,0-0.3,0-0.4s0-0.2,0-0.4s0-0.3,0-0.4c0-0.1,0-0.2,0-0.3c0-0.2,0-0.3,0-0.4c0-0.1,0-0.2,0-0.3c0-0.2,0-0.5,0-0.7s0-0.5,0-0.7
		c0-0.1,0-0.1,0-0.2c0-0.2,0-0.3,0-0.5c0-0.2,0.1-0.4,0.2-0.5c0.1-0.1,0.3-0.2,0.5-0.2c0.1,0,0.2,0,0.3,0.1c0.1,0,0.2,0.1,0.2,0.2
		c0.1,0.1,0.1,0.1,0.1,0.2c0,0.1,0,0.2,0,0.3c0,0.1,0,0.1,0,0.2c0,0,0,0.1,0,0.2c0,0.1,0,0.2,0,0.2s0,0.1,0,0.2c0,0.2,0,0.3,0,0.4
		s0,0.2,0,0.4s0,0.4,0,0.6c0,0.2,0,0.4,0,0.7c0,0.2,0,0.3,0,0.4s0,0.2,0,0.3c0,0.1,0,0.2,0,0.2s0,0.1,0,0.2c0,0.2,0,0.3,0,0.4
		c0,0.1,0,0.2,0,0.2c0,0.1,0,0.2,0,0.4c0,0.4,0,0.7,0,1.1v0.2c0,0.1,0,0.2,0,0.3s0,0.1,0,0.2c0,0.1,0,0.2,0,0.3
		c0,0.2,0.1,0.4,0.2,0.5s0.3,0.2,0.5,0.2c0.1,0,0.2,0,0.3-0.1s0.2-0.1,0.2-0.2c0.1-0.1,0.1-0.1,0.1-0.2c0-0.1,0-0.2,0-0.3
		c0-0.1,0-0.2,0-0.2c0,0,0-0.1,0-0.2c0-0.1,0-0.2,0-0.3c0-0.2,0-0.3,0-0.4c0-0.1,0-0.2,0-0.4c0-0.1,0-0.2,0-0.3c0-0.1,0-0.1,0-0.3
		c0-0.3,0-0.5,0-0.7c0-0.1,0-0.4,0-0.7c0-0.1,0-0.2,0-0.3c0-0.1,0-0.1,0-0.3c0-0.2,0-0.4,0-0.5c0-0.1,0-0.3,0-0.5c0-0.3,0-0.4,0-0.6
		s0-0.3,0-0.5V6.1V5.5c0-0.2,0.1-0.4,0.2-0.5c0.1-0.1,0.3-0.2,0.5-0.2c0.1,0,0.3,0,0.4,0.1c0.1,0.1,0.2,0.1,0.2,0.2
		c0.1,0.1,0.1,0.2,0.1,0.4v0.7c0,0.1,0,0.3,0,0.3c0,0.1,0,0.2,0,0.3c0,0.1,0,0.3,0,0.3s0,0.2,0,0.3v1.4c0,0.2,0,0.5,0,0.7
		c0,0.2,0,0.5,0,0.7v1.4c0,0.2,0,0.5,0,0.7c0,0.2,0,0.5,0,0.7v0.7c0,0.1,0,0.2,0,0.3c0,0.1-0.1,0.2-0.2,0.2
		c-0.1,0.1-0.3,0.2-0.5,0.2c-0.1,0-0.3,0-0.3,0c-0.1,0-0.2,0-0.3,0c-0.2,0-0.3,0-0.4,0c-0.1,0-0.2,0-0.4,0c-0.1,0-0.3,0-0.3,0
		c-0.1,0-0.2,0-0.3,0c-0.2,0-0.5,0-0.7,0c-0.2,0-0.5,0-0.7,0c-0.1,0-0.2,0-0.3,0c-0.1,0-0.2,0-0.3,0c-0.1,0-0.3,0-0.3,0
		c-0.1,0-0.2,0-0.3,0c-0.1,0-0.1,0-0.2,0c-0.1,0-0.2,0-0.3,0s-0.1,0-0.3,0C72.1,14.5,71.9,14.5,71.8,14.4z"/>
	<path class="st2" d="M80.1,5c0.1-0.1,0.2-0.2,0.4-0.2c0.1,0,0.2,0,0.2,0c0.2,0,0.3,0,0.5,0s0.3,0,0.4,0c0.1,0,0.3,0,0.4,0
		c0.2,0,0.4,0,0.6,0c0.3,0,0.4,0,0.6,0c0.1,0,0.3,0,0.5,0c0.2,0,0.3,0,0.5,0c0.2,0,0.4,0,0.6,0c0.2,0,0.4,0,0.6,0c0.1,0,0.3,0,0.4,0
		c0.1,0,0.3,0,0.4,0c0.2,0,0.4,0.1,0.5,0.2c0.1,0.1,0.2,0.3,0.2,0.5c0,0.1,0,0.2-0.1,0.3c0,0.1-0.1,0.2-0.2,0.2
		c-0.1,0-0.1,0.1-0.2,0.1c-0.1,0-0.2,0-0.3,0c-0.1,0-0.2,0-0.4,0s-0.2,0-0.4,0c-0.2,0-0.3,0-0.4,0c-0.1,0-0.2,0-0.3,0
		c-0.2,0-0.3,0-0.4,0s-0.2,0-0.4,0c-0.1,0-0.2,0-0.4,0c-0.2,0-0.4,0-0.5,0s-0.3,0-0.5,0c-0.1,0-0.2,0-0.3,0c-0.1,0-0.2,0-0.2,0
		s-0.1,0-0.2,0c-0.1,0-0.2,0-0.2,0c-0.1,0-0.1,0-0.2,0.1c-0.1,0.1-0.2,0.1-0.2,0.2c-0.1,0.1-0.1,0.2-0.1,0.4c0,0.3,0,0.5,0,0.7
		s0,0.4,0,0.7c0,0.2,0.1,0.4,0.2,0.5c0.1,0.1,0.3,0.2,0.5,0.2c0.1,0,0.2,0,0.3,0c0.1,0,0.1,0,0.3,0c0.1,0,0.1,0,0.2,0
		c0.1,0,0.2,0,0.3,0c0.1,0,0.1,0,0.3,0c0.1,0,0.1,0,0.2,0c0.2,0,0.4-0.1,0.5-0.2s0.2-0.3,0.2-0.5c0-0.2,0.1-0.4,0.2-0.5
		s0.3-0.2,0.5-0.2c0.2,0,0.4,0.1,0.5,0.2s0.2,0.3,0.2,0.5c0,0.1,0,0.1,0,0.2c0,0,0,0.1,0,0.2c0,0.1,0,0.2,0,0.2c0,0,0,0.1,0,0.2
		c0,0.1,0,0.3,0,0.5c0,0.2,0,0.3,0,0.4c0,0.1,0,0.2,0,0.4c0,0.2,0,0.5,0,0.7c0,0.1,0,0.3-0.1,0.4c-0.1,0.1-0.1,0.2-0.2,0.2
		c-0.1,0.1-0.2,0.1-0.4,0.1c-0.2,0-0.4-0.1-0.5-0.2s-0.2-0.3-0.2-0.5c0-0.2,0-0.3-0.1-0.4s-0.2-0.2-0.3-0.2c-0.1,0-0.2,0-0.3,0
		c-0.1,0-0.1,0-0.1,0c0,0-0.1,0-0.1,0c-0.1,0-0.1,0-0.2,0s-0.1,0-0.2,0c-0.1,0-0.1,0-0.2,0c-0.1,0-0.2,0-0.3,0s-0.2,0-0.3,0
		c-0.2,0-0.4,0.1-0.5,0.2c-0.1,0.1-0.2,0.3-0.2,0.5c0,0.2,0,0.5,0,0.7c0,0.2,0,0.3,0,0.4c0,0.1,0,0.2,0,0.3c0,0.2,0.1,0.4,0.2,0.5
		c0.1,0.1,0.3,0.2,0.5,0.2h0.5c0.1,0,0.3,0,0.3,0c0.1,0,0.2,0,0.3,0c0.2,0,0.4,0,0.5,0c0.1,0,0.3,0,0.5,0c0.2,0,0.4,0,0.5,0
		c0.1,0,0.3,0,0.5,0c0.1,0,0.3,0,0.4,0c0.1,0,0.2,0,0.3,0c0.1,0,0.2,0,0.3,0h0.1c0.2,0,0.4,0.1,0.5,0.2c0.1,0.1,0.2,0.3,0.2,0.5
		c0,0.1,0,0.2-0.1,0.3c0,0.1-0.1,0.2-0.2,0.2c-0.1,0.1-0.3,0.1-0.4,0.1c-0.1,0-0.2,0-0.4,0c-0.1,0-0.2,0-0.3,0s-0.2,0-0.3,0
		c-0.1,0-0.2,0-0.3,0c-0.1,0-0.2,0-0.3,0c-0.1,0-0.3,0-0.3,0c-0.1,0-0.2,0-0.3,0c-0.1,0-0.3,0-0.3,0c-0.1,0-0.2,0-0.3,0
		s-0.3,0-0.3,0c-0.1,0-0.2,0-0.3,0h-1.3c-0.2,0-0.3,0-0.4,0c-0.1,0-0.2,0-0.4,0c-0.1,0-0.3,0-0.4-0.1c-0.1-0.1-0.2-0.1-0.2-0.2
		c-0.1-0.1-0.1-0.2-0.1-0.4c0-0.2,0-0.3,0-0.4s0-0.2,0-0.4c0-0.3,0-0.5,0-0.7s0-0.4,0-0.7c0-0.2,0-0.3,0-0.5c0-0.2,0-0.3,0-0.4
		s0-0.2,0-0.4c0-0.3,0-0.6,0-0.7c0-0.2,0-0.4,0-0.7c0-0.3,0-0.6,0-0.8c0-0.2,0-0.4,0-0.7c0-0.3,0-0.5,0-0.6s0-0.3,0-0.6
		c0-0.1,0-0.2,0-0.3c0-0.1,0-0.2,0-0.2s0-0.1,0-0.2C79.9,5.3,80,5.1,80.1,5z"/>
	<path class="st2" d="M88.4,5.1c0.1-0.1,0.1-0.2,0.2-0.2c0.1-0.1,0.2-0.1,0.4-0.1c0.1,0,0.2,0,0.3,0s0.2,0.1,0.2,0.1
		C89.6,5,89.7,5,89.7,5.1c0,0.1,0,0.2,0,0.3c0,0.2,0.1,0.4,0.2,0.5c0.1,0.1,0.3,0.2,0.5,0.2c0.2,0,0.4-0.1,0.5-0.2
		c0.1-0.1,0.2-0.3,0.2-0.5s0.1-0.4,0.2-0.5c0.1-0.1,0.3-0.2,0.5-0.2c0.2,0,0.3,0,0.4,0s0.2,0,0.4,0c0.2,0,0.3,0,0.4,0
		c0.1,0,0.2,0,0.4,0c0.2,0,0.4,0,0.7,0h0.6c0.2,0,0.4,0.1,0.5,0.2c0.1,0.1,0.2,0.3,0.2,0.5c0,0.1,0,0.1,0,0.2c0,0.1,0,0.2,0,0.2
		s0,0.1,0,0.2c0,0.1,0,0.3,0,0.3c0,0.1,0,0.2,0,0.3c0,0.2,0,0.3,0,0.4s0,0.2,0,0.4c0,0.2,0,0.4,0,0.5s0,0.3,0,0.5v0.4V9
		c0,0.1,0,0.2,0,0.3c0,0.1,0,0.2,0,0.3c0,0.2-0.1,0.4-0.2,0.5c-0.1,0.1-0.3,0.2-0.5,0.2c-0.1,0-0.1,0-0.1,0c0,0-0.1,0-0.1,0
		c-0.1,0-0.2,0-0.2,0s-0.1,0-0.2,0c-0.2,0-0.4,0-0.6,0c-0.2,0-0.3,0-0.4,0s-0.2,0-0.4,0c-0.1,0-0.2,0-0.3,0s-0.2,0-0.3,0
		c-0.2,0-0.3,0-0.4,0s-0.2,0-0.4,0c-0.1,0-0.1,0-0.2,0s-0.1,0-0.2,0c-0.1,0-0.1,0-0.2,0s-0.1,0-0.2,0c-0.1,0-0.2,0-0.3,0
		c-0.1,0-0.2,0.1-0.2,0.1c-0.1,0.1-0.1,0.1-0.1,0.2c0,0.1,0,0.2,0,0.3c0,0.1,0,0.3,0.1,0.4c0.1,0.1,0.1,0.2,0.2,0.2
		c0.1,0.1,0.2,0.1,0.4,0.1c0.1,0,0.2,0,0.3,0s0.1,0,0.2,0s0.1,0,0.1,0s0.1,0,0.2,0c0.3,0,0.5,0,0.6,0c0.1,0,0.4,0,0.6,0
		c0.1,0,0.2,0,0.3,0s0.2,0,0.3,0c0.2,0,0.3,0,0.4,0s0.2,0,0.4,0c0.1,0,0.2,0,0.3,0c0.1,0,0.2,0,0.2,0c0.1,0,0.1,0,0.2,0
		c0.1,0,0.3,0,0.4,0.1c0.1,0.1,0.2,0.1,0.2,0.2c0.1,0.1,0.1,0.2,0.1,0.4c0,0.2,0,0.3,0,0.4c0,0.1,0,0.2,0,0.4c0,0.1,0,0.2,0,0.2
		c0,0.1,0,0.1,0,0.2c0,0.1,0,0.3-0.1,0.4c-0.1,0.1-0.1,0.2-0.2,0.2c-0.1,0.1-0.2,0.1-0.4,0.1c-0.1,0-0.2,0-0.3,0
		c-0.1,0-0.2-0.1-0.2-0.1S94,14.2,94,14.1c0,0,0-0.1,0-0.1s0-0.1,0-0.2c0-0.2,0-0.4-0.1-0.5c-0.1-0.1-0.2-0.2-0.4-0.2
		c0,0-0.1,0-0.2,0h-0.7c-0.1,0-0.2,0-0.2,0c0,0-0.1,0-0.2,0c-0.2,0-0.3,0-0.4,0c-0.1,0-0.2,0-0.2,0c-0.1,0-0.2,0-0.4,0
		c-0.1,0-0.2,0-0.3,0s-0.2,0-0.3,0h-0.1c-0.2,0-0.4,0.1-0.5,0.2c-0.1,0.1-0.2,0.3-0.2,0.5c0,0.1,0,0.2,0,0.2c0,0.1,0,0.1-0.1,0.2
		c-0.1,0.1-0.1,0.1-0.2,0.2s-0.2,0.1-0.3,0.1c-0.1,0-0.3,0-0.4-0.1c-0.1-0.1-0.2-0.1-0.2-0.2c-0.1-0.1-0.1-0.2-0.1-0.4v-0.7v-1.4
		c0-0.2,0-0.3,0-0.4s0-0.2,0-0.4c0-0.2,0-0.3,0-0.4c0-0.1,0-0.2,0-0.4c0-0.2,0-0.3,0-0.4c0-0.1,0-0.2,0-0.4s0-0.4,0-0.5
		c0-0.1,0-0.2,0-0.2s0-0.1,0-0.2c0-0.2,0-0.3,0-0.4s0-0.2,0-0.4c0-0.2,0-0.4,0-0.5c0-0.1,0-0.3,0-0.5c0-0.1,0-0.3,0-0.5V5.4
		C88.3,5.3,88.4,5.2,88.4,5.1z M89.9,8.7c0.1,0.1,0.3,0.2,0.5,0.2c0.2,0,0.3,0,0.4,0s0.2,0,0.4,0c0.2,0,0.3,0,0.4,0s0.2,0,0.4,0
		c0.1,0,0.3,0,0.4,0c0.1,0,0.1,0,0.2,0c0,0,0.1,0,0.2,0c0.1,0,0.2,0,0.2,0c0,0,0.1,0,0.2,0c0.1,0,0.3,0,0.4-0.1
		c0.1,0,0.2-0.1,0.2-0.2c0-0.1,0.1-0.1,0.1-0.2s0-0.2,0-0.3c0-0.2,0-0.4,0-0.5c0-0.1,0-0.3,0-0.5V6.8c0-0.1,0-0.3-0.1-0.4
		c-0.1-0.1-0.1-0.2-0.2-0.2c-0.1-0.1-0.2-0.1-0.4-0.1c-0.2,0-0.4,0.1-0.5,0.2c-0.1,0.1-0.2,0.3-0.2,0.5c0,0.1,0,0.2,0,0.3
		c0,0.1-0.1,0.2-0.2,0.3S92,7.5,91.8,7.5h-0.6c-0.1,0-0.2,0-0.4,0s-0.2,0-0.4,0c-0.2,0-0.3,0-0.4,0.1s-0.2,0.1-0.2,0.2
		c-0.1,0.1-0.1,0.2-0.1,0.4C89.7,8.4,89.8,8.6,89.9,8.7z"/>
</g>
</svg>
