<svg xmlns="http://www.w3.org/2000/svg" viewBox="0 0 263.74 318.29"><defs><style>.cls-1,.cls-3{fill:none;}.cls-1{stroke:#000;}.cls-1,.cls-3,.cls-5,.cls-7{stroke-miterlimit:10;}.cls-2{fill:#ffe616;}.cls-3,.cls-5{stroke:#ff7900;}.cls-3{stroke-width:3px;}.cls-4{fill:#afafaf;}.cls-6{fill:#fff;}.cls-7{font-size:17px;stroke:#ff6700;stroke-width:0.5px;font-family:AvianoFutureBlackFast, Aviano Future;}.cls-8{letter-spacing:-0.02em;}.cls-9{letter-spacing:-0.07em;}.cls-10{letter-spacing:-0.01em;}.cls-11{letter-spacing:-0.07em;}.cls-12{letter-spacing:-0.01em;}</style></defs><g id="Calque_2" data-name="Calque 2"><g id="tracée"><line class="cls-1" x1="1.85" y1="300.99" x2="71.51" y2="301.64"/><rect class="cls-2" x="0.56" width="263.09" height="318.29"/><line class="cls-3" x1="0.89" y1="302.43" x2="263.73" y2="304.1"/><path d="M114.2,267.75s4.89,4.92-2.39,7.72Z"/><path d="M82.59,289.36l2.69-.12L86.84,287l3.7-.33s18.7-6.05,19.59-9l-.89-.45-20,9H88.07l-5-5.71Z"/><path class="cls-4" d="M.5,232.59H36.15l42.14,9.48L110,249.3s2.74-1.25,4.24,18.45c0,0,0,6-4,9L88.52,287l-3.74-4.24s-19.7-33.41-39.9,1.5l-44.63.25Z"/><circle class="cls-5" cx="65.08" cy="283.96" r="17.95"/><polygon points="78.29 242.07 96.74 240.82 115.69 231.35 120.18 245.56 119.43 253.04 112.7 255.78 109.96 249.3 78.29 242.07"/><path class="cls-6" d="M43.14,233.59s-.75,21.19,4.73,22.19,41.39.75,41.39.75L102.48,278l-4,1.75L87.77,260.27s-43.14,6-47.88-5.24l-.74-22.19Z"/><polygon points="47.87 291.94 45.88 293.43 0 293.93 0.25 284.46 44.88 284.21 46.13 281.46 47.87 291.94"/><path d="M26.67,251.11s3.8.22,4.61-4.61,0-7.26-4.61-8.18-26.12,0-26.12,0v12.79Z"/><text class="cls-7" transform="translate(7.24 29.46)">B<tspan class="cls-8" x="17.88" y="0">a</tspan><tspan x="32.8" y="0">ck</tspan><tspan class="cls-9" x="64.39" y="0"> </tspan><tspan class="cls-10" x="69.36" y="0">t</tspan><tspan x="83" y="0">o</tspan><tspan class="cls-11" x="98.84" y="0"> </tspan><tspan x="103.81" y="0">the futu</tspan><tspan class="cls-12" x="214.33" y="0">r</tspan><tspan x="229.98" y="0">e</tspan></text></g></g></svg>