<?xml version="1.0" encoding="UTF-8"?><svg xmlns="http://www.w3.org/2000/svg" xmlns:xlink="http://www.w3.org/1999/xlink" viewBox="0 0 315.21 761.15"><defs><style>.e{fill:url(#d);}.f{fill:none;}.g{fill:#0030ca;}.h{fill:#1d1d1b;}</style><pattern id="d" x="0" y="0" width="111.15" height="111.15" patternTransform="translate(-976.27 -268.7)" patternUnits="userSpaceOnUse" viewBox="0 0 111.15 111.15"><g><rect class="f" x="0" y="0" width="111.15" height="111.15"/><rect class="g" x="0" y="0" width="111.15" height="111.15"/></g></pattern></defs><g id="a"/><g id="b"><g id="c"><g><path class="e" d="M38.8,2.75c1.94,.57,4.7,1.62,5.51,2.02,.49,.24,.81,1.05,.81,1.94,0,.49,.49,3.56,.65,4.54,.24,1.05-.08,1.54-.32,1.54-.41,0-.49-.16-.97-1.3-2.43-5.83-6.97-9.07-15.55-9.07-6.16,0-12.15,2.67-15.88,6.64-3.89,4.21-6.97,10.77-6.97,19.68,0,9.56,5.51,16.93,9.8,20.41,3.89,3.08,8.83,4.78,13.2,4.78s8.1-1.7,10.12-3.73c1.05-1.21,1.05-2.51,1.21-4.45,.16-1.62,.32-6.56,.08-9.07-.24-2.83-1.21-3.73-4.78-4.21-.81-.08-1.38-.32-1.38-.65,0-.24,.32-.57,1.94-.49,1.3,0,3.4,.24,6.24,.24s4.05-.16,4.7-.16c.73,0,1.3,.16,1.3,.49,0,.4-.97,.65-1.54,.81-1.13,.24-1.62,.81-1.62,5.1,0,3.4,.41,9.23,.41,10.37,0,1.05,.08,1.62-.57,1.94s-2.02,1.05-3.81,1.94c-3.64,1.7-7.53,3.16-11.99,3.16-8.83,0-15.39-3-20.57-7.61C3.16,42.85,.16,36.2,.16,28.27,.16,19.92,3.4,12.88,11.02,7.05,14.74,4.29,19.6,1.21,29.81,1.21c3.97,0,7.13,1.13,8.99,1.54Z"/><path class="e" d="M216.64,710.31c.97,.32,1.62,.16,2.11-.08,.57-.41,1.21-.89,1.54-.89,.24,0,.24,.81-.16,1.78-1.54,2.75-2.51,5.99-3.08,8.1-.32,.97-.24,1.3-.73,1.3-.24,0-.65-.24-.49-1.46,.41-3.16,.16-4.29-1.05-5.91-1.46-1.78-4.21-3.08-10.04-3.08-7.13,0-15.47,4.46-19.36,9.15-5.51,6.64-8.42,14.74-8.42,22.27,0,5.75,1.7,10.04,4.46,13.04,3,3.08,7.53,4.78,11.74,4.78,4.7,0,7.61-1.38,9.15-4.46,1.62-2.75,3.97-12.15,4.29-13.53,.32-1.54-1.05-2.51-4.45-2.75-2.51-.24-2.03-1.3-.08-1.3s5.34,.16,7.61,.16,3.73-.32,4.7-.32c2.27,0,1.62,.89-.16,1.3-1.78,.41-2.35,.89-3.73,4.54-.57,1.54-1.54,4.94-2.35,7.94-.57,2.02-.97,4.21-.97,5.26,.08,.65-.32,.73-2.75,2.03-6.08,2.11-11.02,2.75-15.15,2.75-8.83,0-17.33-7.45-17.33-19.68,0-13.12,6.64-21.38,13.04-26,6.72-4.86,13.69-6.56,20.9-6.56,5.18,0,8.99,1.05,10.77,1.62Z"/><path class="e" d="M301.07,710.54c1.7,.49,2.11,.24,3.48,.57,1.21,.24,1.46,.4,1.86,1.62,.73,1.94,2.19,6.24,2.19,9.48,0,.65-.32,2.03-1.38,2.03-.81,0-1.46-.49-2.19-1.86-1.05-2.27-2.19-3.73-4.13-5.59-3-2.83-7.61-4.7-12.07-4.7-12.55,0-19.84,10.45-19.84,22.35s8.67,23.08,21.71,23.08c1.46,0,5.26-.24,7.05-1.62,.57-.41,2.19-2.83,2.19-5.83s-.08-7.45-.16-8.5c-.16-1.21-.89-1.7-3.81-2.27-3.16-.49-3.4-1.3-3.4-2.11,0-.49,1.05-1.3,2.75-1.3,2.27,0,4.37,.24,7.05,.24,2.43,0,6.72-.4,8.34-.4,1.3,0,2.11,.57,2.11,1.54,0,.49-.81,1.22-2.35,1.7-2.59,.89-2.92,1.94-3,3-.16,1.86-.16,4.54-.16,6.32,0,3.56,.32,5.18,.49,6.24,.08,.57,.16,.89,.16,1.46,0,.41-.65,1.21-1.13,1.38-2.43,.73-3.08,1.54-6.64,2.27-3.24,.73-6.56,1.46-10.53,1.46-11.66,0-20.17-4.62-24.62-10.61-3.4-4.45-5.02-10.04-5.02-15.96,0-8.18,3.81-14.9,10.12-19.68,4.78-3.64,12.23-6.16,19.44-6.16,5.02,0,8.1,.97,11.5,1.86Z"/><path class="e" d="M303.01,1.78c1.62,.32,2.19,.4,3.08,.65,.32,0,.97,.65,.97,1.94,.08,1.94,1.13,5.83,1.13,8.91,0,1.05-.49,1.78-1.05,1.78-.49,0-.97-.65-1.46-1.86-.81-2.19-1.86-4.13-3.08-5.67-1.78-2.19-6.48-5.02-12.96-5.02-13.85,0-22.03,11.34-22.03,24.14,0,5.75,1.3,10.85,3.64,14.74,4.29,7.29,12.07,11.18,19.6,11.18,.97,0,5.02-.49,7.29-1.94,.65-.4,1.7-3.16,1.7-4.21,0-2.83-.08-7.45-.24-8.42-.57-1.86-1.21-3.4-7.29-3.81-1.21-.08-2.11-.73-2.11-1.38,0-.57,.89-1.13,2.43-1.13,1.46,0,7.37,.32,9.72,.32,1.94,0,4.7-.32,7.29-.32,1.3,0,2.19,.4,2.19,1.05,0,.57-.89,1.05-1.86,1.38-2.43,.73-2.59,1.62-2.92,2.51-.32,.89-.4,6.72-.4,10.04,0,1.3,.73,2.11,1.13,2.35,1.46,.81,1.38,1.05,1.38,1.46,0,.32-.32,.89-1.21,1.13-1.46,.4-4.21,1.05-7.37,1.94-3.48,.97-8.5,1.46-11.18,1.46-9.07,0-16.6-2.92-21.54-7.37-3.73-3.56-8.34-10.21-8.34-19.92,0-7.21,2.51-14.58,9.15-20.41,5.1-4.54,12.88-7.29,20.73-7.29,5.91,0,10.21,1.05,13.61,1.78Z"/><path class="e" d="M52.08,177.53c1.13,.24,1.94,.08,2.83-.24,.65-.24,1.21-.57,1.46-.57,.49,0,.73,.89,.16,1.86-.97,1.62-2.59,5.02-3.56,9.8-.32,1.62-.97,2.02-1.21,2.02-.57,0-.81-.73-.65-2.67,.08-1.3,.16-3.4-.73-5.1-1.7-3.24-5.51-4.86-10.45-4.86-7.61,0-15.88,4.45-19.84,8.91-6.32,7.21-9.72,15.71-9.72,25.11,0,5.99,2.19,10.53,5.59,13.44,4.05,3.4,8.5,3.81,11.34,3.81,1.94,0,6.4-1.3,8.18-4.37,1.7-2.51,3.73-10.12,4.54-13.77,.41-1.78-.57-2.92-3.89-3.24-.97-.08-1.94-.57-1.94-.89,0-.49,.49-.81,2.02-.81,2.35,0,6.16,.24,8.42,.24,2.51,0,5.26-.24,6.32-.24,.73,0,1.7,.16,1.7,.65,0,.57-.73,.81-2.11,1.13-1.94,.49-2.83,.73-4.29,4.54-.57,1.7-1.78,5.26-2.59,8.26-.73,2.27-.97,3.81-.89,5.02,0,.32-.24,.81-1.21,1.13-1.21,.41-1.62,.49-2.92,1.05-4.37,1.94-10.12,3.48-15.15,3.48-11.66,0-20.25-7.69-20.25-20.33s7.21-22.92,14.17-27.78c7.13-5.1,13.85-7.13,23.41-7.13,5.51,0,9.56,1.13,11.26,1.54Z"/><path class="e" d="M133.03,180.4c.97,.32,1.62,.16,2.19-.16,.57-.32,1.13-.73,1.46-.73,.24,0,.32,.65-.16,1.7-1.38,2.43-2.51,5.51-3.24,8.26-.32,.97-.32,1.38-.73,1.38-.32,0-.65-.32-.49-1.54,.41-2.83,.16-4.13-.97-5.83-1.46-2.27-4.78-3.4-9.88-3.4-6.97,0-14.74,4.29-18.55,8.83-5.67,6.8-8.5,15.23-8.5,22.84,0,5.99,1.7,10.37,4.37,13.2,2.83,2.83,6.8,4.29,10.69,4.29s6.56-1.13,8.1-4.13c1.62-2.75,3.97-11.83,4.37-13.69,.32-1.78-1.05-2.75-4.37-3-2.19-.24-2.11-1.3,0-1.3s5.51,.16,7.78,.16,4.86-.32,5.83-.32c2.35,0,1.62,.97-.16,1.38-1.86,.4-2.51,.81-3.89,4.54-.65,1.7-1.62,5.18-2.35,8.1-.57,2.02-.89,4.05-.89,5.1,0,.65-.24,.73-2.75,1.94-6.07,2.19-10.93,2.83-15.07,2.83-9.56,0-18.06-7.53-18.06-19.76,0-12.96,6.64-21.22,13.12-25.84,6.72-4.86,13.61-6.56,21.14-6.56,5.18,0,9.07,1.13,11.01,1.7Z"/><path class="e" d="M211.06,180.64c1.7,.49,2.35,.4,3.73,.65,1.05,.16,1.38,.4,1.78,1.62,.65,1.94,2.03,6.24,2.03,9.48,0,.73-.32,2.27-1.38,2.27-.81,0-1.46-.57-2.27-2.02-1.13-2.19-2.19-3.81-4.13-5.67-3.16-2.92-7.78-4.62-11.99-4.62-12.31,0-19.2,10.53-19.2,22.03,0,12.64,8.58,23.08,21.14,23.08,1.3,0,4.86-.32,6.48-1.62,.65-.41,2.02-2.83,2.02-5.67,0-3.08-.08-7.29-.16-8.34-.16-1.22-.81-1.94-3.73-2.43-3.08-.57-3.48-1.38-3.48-2.27,0-.49,1.05-1.3,2.83-1.3,2.27,0,4.45,.24,7.13,.24,2.43,0,7.21-.4,8.83-.4,1.46,0,2.27,.57,2.27,1.54,0,.65-.97,1.3-2.43,1.86-2.59,.89-2.83,1.94-2.92,3.08-.16,1.86-.16,4.29-.16,6.07,0,3.32,.24,5.02,.4,6.07,.08,.57,.16,.97,.16,1.62,0,.32-.65,1.3-1.13,1.38-2.19,.73-3,1.54-6.56,2.35-3.24,.73-6.64,1.46-10.61,1.46-11.91,0-20.25-4.54-24.78-10.53-3.48-4.54-5.02-10.12-5.02-15.96,0-8.18,3.73-14.82,10.12-19.68,4.7-3.56,12.31-6.07,19.52-6.07,5.02,0,8.1,.89,11.5,1.78Z"/><path class="e" d="M303.09,178.26c1.54,.32,2.27,.49,3.24,.65,.24,0,.89,.65,.97,1.94,0,2.02,1.05,5.99,1.05,9.07,0,1.05-.4,1.86-1.05,1.86-.49,0-1.05-.73-1.46-1.94-.81-2.11-1.94-4.13-3.16-5.67-1.78-2.11-6.48-5.1-12.96-5.1-13.53,0-21.46,11.26-21.46,23.97,0,5.75,1.21,10.85,3.56,14.74,4.21,7.05,11.66,11.02,19.12,11.02,.97,0,4.7-.49,6.88-1.86,.65-.49,1.62-3.08,1.62-4.54,0-2.83-.08-7.21-.24-8.18-.57-1.86-1.21-3.32-7.05-3.81-1.21-.08-2.19-.73-2.19-1.38,0-.57,.97-1.21,2.51-1.21,1.78,0,7.37,.32,9.64,.32,1.94,0,5.1-.32,7.78-.32,1.38,0,2.19,.49,2.19,1.13,0,.49-.89,1.05-1.86,1.38-2.51,.73-2.59,1.62-2.92,2.59-.24,.89-.41,6.72-.41,10.04,0,1.21,.65,1.94,1.21,2.35,1.21,.73,1.3,.97,1.3,1.46,0,.32-.4,.89-1.21,1.13-1.46,.4-4.21,1.05-7.37,1.86-3.56,.97-8.91,1.54-11.42,1.54-8.99,0-16.68-2.83-21.54-7.29-3.73-3.56-8.34-10.12-8.34-20.01,0-7.37,2.67-14.58,9.07-20.17,5.1-4.54,13.04-7.29,20.98-7.29,5.75,0,10.12,.97,13.53,1.7Z"/><path class="e" d="M41.79,265.61c1.78,.4,3.89,.4,5.67,0,.24-.08,.81,.4,.73,.89-.32,3.73,.16,7.13,.32,10.93,.08,1.13-.32,1.94-.81,1.94-.57,0-.97-.89-1.21-2.35-.49-2.19-2.11-5.51-5.1-7.61-2.27-1.7-6.97-3.08-11.83-3-13.61,.08-20.49,10.29-20.49,23.65,0,14.17,8.5,27.21,23.16,27.21,3.89,0,6.48-.73,7.45-1.94,1.05-1.21,1.7-3.16,1.7-7.45,0-2.19-.08-4.7-.32-6.48-.4-2.35-1.78-3.16-6.56-3.81-1.21-.24-1.86-.57-1.86-1.13,0-.49,.89-.81,2.11-.73,2.83,0,5.26,.32,8.59,.32,2.83,0,5.91-.32,7.53-.32,1.46,0,1.54,.49,1.54,.89,0,.49-.73,.81-1.46,1.05-1.54,.4-1.86,1.13-2.03,2.27-.4,2.59-.32,5.02-.32,7.45,0,4.45,.24,6.24,1.7,7.05,.41,.32,.81,.57,.81,.89,0,.4-.41,.73-1.13,.97-2.27,.41-5.34,1.21-7.45,1.7-2.67,.57-7.78,1.46-10.77,1.46-10.69,0-18.79-3.65-23.89-8.59-3.97-3.81-7.69-9.72-7.69-19.11,0-8.91,5.1-16.85,11.18-21.3,5.18-3.97,12.15-6.07,20.49-6.07,3.4,0,7.37,.65,9.96,1.22Z"/><path class="e" d="M124.21,267.7c2.03,.57,4.46,1.46,5.43,1.86,.49,.16,.73,1.05,.81,1.78,.08,.89,.65,4.7,.81,5.75,.16,1.05-.16,1.54-.41,1.54-.41,0-.65-.24-1.05-1.38-2.19-5.83-7.05-9.72-15.55-9.72-5.43,0-10.77,2.27-14.42,6.24-3.89,4.21-6.64,11.1-6.64,19.6,0,9.56,4.86,16.77,9.07,20.41,3.64,3,7.78,4.62,11.91,4.62,2.92,0,6.48-1.21,8.5-3.24,.81-.97,1.05-2.27,1.13-4.37,.16-1.54,.32-6.88,.08-9.31-.24-2.75-1.22-3.64-4.54-4.13-.81-.16-1.54-.32-1.54-.73s.49-.65,2.03-.57c2.02,0,4.13,.24,7.69,.24,2.43,0,4.86-.16,5.43-.16,.89,0,1.46,.16,1.46,.49,0,.49-.81,.73-1.78,.97-1.3,.32-1.78,1.05-1.78,5.26s.41,9.07,.41,10.12,.08,1.62-.57,1.94c-.97,.49-2.35,1.13-4.05,1.86-3.64,1.54-8.34,3-12.31,3-8.58,0-15.55-2.92-20.41-7.21-5.75-4.94-8.75-11.66-8.75-19.28,0-8.42,3.4-15.47,10.93-21.3,3.64-2.67,8.91-5.75,18.71-5.75,3.97,0,7.21,.97,9.39,1.46Z"/><path class="e" d="M216.64,269.23c1.78,.49,3,.57,3.89,.57,.81,0,1.94-.24,2.19-.24,.4,0,1.3,1.7,.73,2.51-2.83,3.89-4.13,6.8-4.94,9.56-.32,1.05-1.13,1.78-1.86,1.78-.97,0-1.3-1.38-1.05-2.92,.32-2.51,1.13-3.48-.4-5.67-1.46-2.02-5.91-3.81-9.31-3.81-5.51,0-11.02,2.19-15.47,6.72-5.59,5.59-8.99,14.42-8.99,21.79,0,3.08,.89,7.61,2.75,10.61,2.51,3.97,7.45,6.72,11.83,6.72,1.86,0,5.26-.57,7.86-5.35,1.46-2.75,3-7.29,3.56-10.29,.65-3.65-2.35-3.56-6.08-4.45-1.3-.32-1.78-1.3-1.78-1.94s.89-1.13,1.94-1.13c2.92,0,6.88,.41,10.29,.41,3.08,0,7.78-.49,8.42-.49,.89,0,1.7,1.3,1.7,2.19,0,.4-.89,.65-1.94,.89-3.32,.81-3.97,1.94-4.21,2.83-.81,3-3.56,12.39-4.62,15.63-.16,.57-.73,1.78-2.03,2.27-5.51,1.86-9.64,2.59-14.5,2.59-14.17,0-22.27-9.56-22.27-21.22,0-7.05,4.37-19.28,14.9-25.84,5.43-3.4,10.77-5.18,19.68-5.18,2.75,0,7.21,.89,9.72,1.46Z"/><path class="e" d="M309.01,265.93c1.21,.32,2.75,.16,3.81-.08,.81-.16,1.38-.49,1.78-.49,.32,0,.81,1.13,.32,1.7-2.19,2.75-4.54,7.45-5.35,10.85-.32,1.21-.65,2.02-1.13,2.02-.73,0-1.13-.81-1.13-2.59,.16-2.67,.73-4.94-.08-6.4-1.21-2.35-4.62-4.29-9.31-4.29-7.45,0-13.28,4.37-17.49,8.83-5.83,6.32-9.48,16.12-9.48,24.14,0,9.31,4.21,17.74,15.15,17.74,1.86,0,2.75-.49,3.97-1.38,.65-.4,1.05-.89,1.46-1.46,1.38-2.35,3.32-7.78,4.62-12.31,.89-3.16,.73-5.1-4.54-5.51-1.3-.08-2.75-.41-2.75-1.13s1.54-1.05,2.83-1.05c1.86,0,4.46,.24,8.26,.24,4.29,0,7.13-.73,8.99-.73,1.54,0,2.02,.4,2.02,.97,0,.65-.81,.97-2.11,1.22-3.08,.73-3.73,1.78-4.78,3.97-.73,1.78-2.03,4.94-2.75,7.53-.65,2.43-1.38,5.26-1.54,7.37,0,.32-1.46,1.54-2.27,1.7-3.24,.89-8.26,2.83-13.28,2.83-16.44,0-21.54-10.85-21.54-20.81,0-5.83,2.59-15.79,9.8-23.41,6.56-6.88,15.55-10.85,26.32-10.85,4.29,0,8.5,.89,10.21,1.38Z"/><path class="e" d="M52.16,354.2c1.13,.24,1.94-.08,2.83-.4,.65-.24,1.13-.57,1.46-.57,.49,0,.65,.97,.08,1.94-.97,1.62-2.67,5.1-3.56,9.96-.32,1.46-.97,1.94-1.21,1.94-.57,0-.89-.73-.73-2.59,.08-1.46,.08-3.56-.73-5.27-1.54-3.08-5.35-4.94-10.29-4.94-7.61,0-15.39,4.37-19.36,8.83-6.32,7.29-9.56,15.96-9.56,25.11,0,5.91,2.03,10.53,5.35,13.53,3.73,3.08,7.86,3.64,10.69,3.64,1.86,0,5.99-1.13,7.69-4.21,1.62-2.51,3.73-10.21,4.54-13.85,.4-1.78-.49-2.83-3.81-3.24-.97-.16-1.94-.57-1.94-.97,0-.49,.49-.81,2.03-.81,2.35,0,6.16,.24,8.42,.24,2.51,0,5.83-.24,6.88-.24,.73,0,1.7,.16,1.7,.65,0,.57-.73,.89-2.02,1.22-2.02,.4-2.92,.73-4.29,4.62-.57,1.7-1.78,5.18-2.59,8.18-.73,2.27-1.05,3.81-.97,5.02,.08,.32-.24,.89-1.13,1.13-1.38,.41-2.11,.65-3.4,1.22-4.29,1.78-9.8,3.24-14.66,3.24-11.58,0-20.41-7.61-20.41-20.33s7.21-22.84,14.17-27.62c7.13-5.18,14.01-7.13,23.41-7.13,5.51,0,9.64,1.13,11.42,1.7Z"/><path class="e" d="M133.36,356.99c.97,.32,1.54,.08,2.27-.24,.49-.32,.97-.65,1.3-.65,.24,0,.41,.65-.16,1.7-1.3,2.19-2.43,5.18-3.32,8.34-.24,.97-.32,1.38-.73,1.38-.32,0-.65-.32-.49-1.54,.4-2.67,.16-4.05-.89-5.75-1.54-2.51-5.1-3.64-9.72-3.64-6.97,0-14.34,4.21-18.22,8.75-5.75,6.8-8.5,15.39-8.5,23.08,0,6.16,1.7,10.53,4.46,13.36,2.59,2.59,6.24,3.97,9.88,3.97,3.4,0,6.08-.97,7.61-3.97,1.54-2.75,3.89-11.66,4.37-13.77,.32-1.94-.97-2.84-4.29-3.16-2.02-.16-2.19-1.3,0-1.3s5.67,.16,7.86,.16c2.35,0,5.59-.24,6.56-.24,2.35,0,1.62,.97-.16,1.3-1.94,.49-2.67,.81-4.05,4.62-.65,1.78-1.7,5.26-2.35,8.1-.49,2.11-.81,4.05-.81,5.02,0,.65-.24,.81-2.75,1.94-6.07,2.19-10.85,2.83-14.98,2.83-9.96,0-18.47-7.61-18.47-19.84s6.64-20.98,13.04-25.67c6.72-4.86,13.69-6.56,21.38-6.56,5.18,0,9.15,1.21,11.18,1.78Z"/><path class="e" d="M211.79,356.9c1.7,.49,3,.57,4.21,.65,.73,.08,1.38,.73,1.7,1.7,.49,2.11,1.78,6.32,1.78,9.56,0,1.05-.65,2.83-1.86,2.83-.81,0-1.38-.4-2.43-2.27-1.05-2.02-1.94-4.05-3.97-5.83-3.81-3.4-8.67-4.46-11.58-4.46-11.66,0-16.77,10.69-16.77,20.9,0,13.12,8.02,22.84,18.55,22.84,.97,0,3.56-.41,4.7-1.3,.81-.49,1.54-3.16,1.54-5.43,0-3.08-.08-6.48-.16-7.53-.16-1.46-.65-2.59-3.64-3.24-2.83-.65-3.64-1.46-3.64-2.51,0-.65,.97-1.7,3.16-1.7s4.54,.41,7.21,.41c2.43,0,9.15-.41,10.77-.41,1.94,0,2.75,.73,2.75,1.7s-1.38,1.78-2.59,2.19c-2.75,.97-2.67,2.27-2.75,3.32-.16,1.86-.16,3.73-.16,5.35,0,2.51,.08,4.37,.24,5.59,.08,.57,.24,1.21,.24,2.03,0,.32-.89,1.38-1.13,1.46-1.46,.73-3,1.7-6.48,2.59-3.16,.89-6.97,1.62-10.93,1.62-12.72,0-20.57-4.13-25.51-10.37-3.56-4.46-5.02-10.29-5.02-15.71,0-8.59,3.73-14.9,10.12-19.68,4.7-3.64,12.8-6.16,20.09-6.16,5.18,0,8.18,.97,11.58,1.86Z"/><path class="e" d="M303.34,355.01c1.3,.32,2.92,.57,3.64,.57,.32,0,.89,.81,.97,1.94,.08,2.35,1.21,6.48,1.21,9.72,0,1.05-.49,2.02-1.38,2.02-.41,0-1.05-.89-1.54-2.11-.57-1.54-1.86-4.13-3.08-5.67-1.78-2.11-6.48-5.51-12.96-5.51-12.23,0-19.44,10.93-19.44,23.57,0,5.67,1.05,10.53,3.4,14.58,3.48,6.24,9.88,10.53,17.09,10.53,.97,0,3.32-.4,5.18-1.62,.89-.65,1.62-2.92,1.62-5.67s-.08-6.24-.32-7.21c-.49-1.86-1.13-3.48-6.48-3.97-1.21-.08-2.27-.81-2.27-1.54,0-.57,1.05-1.13,2.67-1.13,3,0,7.53,.32,9.72,.32,1.94,0,6.4-.49,9.4-.49,1.54,0,2.19,.57,2.19,1.21,0,.49-.89,1.21-1.86,1.54-2.75,.73-2.67,1.7-2.83,2.83-.16,.97-.41,6.72-.41,10.04,0,1.13,.32,1.46,1.3,2.43,.65,.49,.89,.81,.89,1.38,0,.41-.65,1.05-1.21,1.21-1.38,.41-4.13,1.13-7.37,1.78-3.48,.73-9.96,1.62-11.99,1.62-8.75,0-16.85-2.67-21.71-7.13-3.73-3.56-8.34-9.4-8.34-20.09,0-8.26,3.4-14.66,8.99-19.52,5.1-4.54,13.36-7.37,21.71-7.37,5.51,0,10.04,.89,13.2,1.7Z"/><path class="e" d="M42.93,446.97c1.46,.32,3.32,.08,4.78-.08,.24-.08,.73,.41,.73,1.21-.24,3.48,.16,7.05,.24,11.34,0,.89-.4,1.78-1.05,1.78-.4,0-.97-1.13-1.21-2.19-.81-3.89-3.16-6.97-6.24-8.91-2.19-1.46-5.67-2.51-9.8-2.43-12.55,0-18.79,9.88-18.79,23.73,0,12.15,7.53,26.16,20.09,26.16,2.43,0,3.97-.65,5.02-1.46,1.13-.97,2.02-2.59,2.02-7.21,0-2.67-.08-5.83-.32-7.29-.4-2.43-1.46-3.08-6.16-3.89-.97-.16-2.02-.49-2.02-1.21,0-.41,.89-.89,2.27-.89,3,0,5.99,.32,9.72,.32,4.05,0,5.59-.32,8.75-.32,1.21,0,1.78,.32,1.78,.97,0,.73-1.13,1.05-1.7,1.21-1.7,.41-2.27,1.54-2.35,2.67-.32,2.43-.32,5.35-.32,7.45,0,4.7,.49,5.75,1.62,6.56,.32,.32,.81,.81,.81,1.05s-.57,.81-1.13,1.05c-1.54,.4-4.78,1.13-7.69,1.78-3.24,.73-8.59,1.46-10.69,1.46-10.61,0-18.39-3.24-23.16-7.69-3.64-3.64-8.02-9.48-8.02-19.6,0-8.5,3.89-15.39,9.31-19.92,4.94-4.29,12.72-7.05,22.11-7.05,4.13,0,9.07,.89,11.42,1.38Z"/><path class="e" d="M124.45,448.41c2.19,.57,4.21,1.3,5.43,1.7,.49,.08,.73,1.05,.81,1.7,.24,1.3,.81,5.99,.97,7.05,.16,1.13-.24,1.62-.49,1.62-.41,0-.73-.32-1.05-1.46-1.94-5.99-7.21-10.53-15.63-10.53-4.54,0-9.15,1.78-12.72,5.83-3.89,4.21-6.4,11.42-6.4,19.36,0,9.72,4.21,16.68,8.34,20.41,3.32,3.08,6.64,4.46,10.37,4.46,1.62,0,4.7-.65,6.8-2.67,.41-.57,.97-1.94,1.05-4.21,.08-1.38,.32-7.21,.08-9.56-.24-2.67-1.21-3.56-4.29-4.21-.81-.08-1.7-.32-1.7-.73,0-.49,.65-.65,2.11-.65,2.83,0,4.94,.32,9.31,.32,1.94,0,5.75-.24,6.24-.24,1.05,0,1.62,.24,1.62,.49,0,.57-.73,.89-1.94,1.13-1.62,.4-2.02,1.3-2.02,5.51,0,5.43,.32,8.83,.32,9.88s.08,1.62-.57,1.94c-1.38,.65-2.75,1.13-4.29,1.78-3.56,1.38-9.15,2.75-12.72,2.75-8.26,0-15.63-2.83-20.25-6.72-5.83-5.1-8.75-11.91-8.75-19.28,0-8.5,3.48-15.55,11.02-21.3,3.56-2.67,9.31-5.67,18.55-5.67,3.97,0,7.37,.73,9.8,1.3Z"/><path class="e" d="M217.37,450.27c1.78,.49,2.59,.65,3.48,.65,.81,0,2.43-.24,2.67-.24,.49,0,1.46,1.46,.89,2.27-2.83,3.81-4.29,7.29-5.1,9.96-.32,1.05-1.3,1.94-2.19,1.94-.97,0-1.3-1.7-1.21-2.75,.08-2.43,.81-4.05-.57-5.91-1.38-1.94-5.26-4.05-8.75-4.05-4.45,0-9.23,1.7-13.77,6.16-5.67,5.43-8.83,15.31-8.83,21.87,0,3,.89,8.75,2.92,11.42,2.27,3,5.51,5.18,8.99,5.18,1.46,0,4.21-1.05,5.99-4.37,1.46-2.59,3.08-6.88,3.56-10.53,.57-3.56-2.02-3.4-5.75-4.29-1.3-.32-1.94-1.21-1.94-1.86,0-.81,1.21-1.46,2.27-1.46,2.83,0,8.5,.41,11.91,.41,3,0,8.5-.49,9.15-.49,1.05,0,1.94,1.38,1.94,2.43,0,.41-.81,.81-1.86,1.05-3.4,.81-4.05,1.78-4.62,3.16-.73,2.27-3.64,11.91-4.45,14.5-.16,.73-.65,1.7-2.19,2.35-5.43,1.78-10.12,2.59-14.9,2.59-14.01,0-22.84-8.91-22.84-20.82,0-7.13,3.97-18.87,14.42-25.43,6.07-3.81,12.88-5.43,20.17-5.43,3.4,0,7.86,.81,10.61,1.7Z"/><path class="e" d="M309.09,446.97c1.21,.32,2.35-.08,3.56-.4,.81-.16,1.3-.32,1.7-.32,.32,0,.89,1.21,.49,1.86-2.27,2.59-4.54,7.94-5.1,10.77-.24,1.21-.57,2.03-.97,2.03-.73,0-1.54-.81-1.54-2.51,.08-2.75,.49-4.62-.41-6.32-1.21-2.35-4.54-4.05-8.34-4.05-6.16,0-11.1,2.92-16.28,8.26-5.99,6.24-9.64,15.79-9.64,24.14s3.32,17.01,13.36,17.01c1.21,0,2.02-.41,3-.97,.81-.4,1.13-.89,1.7-1.86,1.46-2.11,3.24-7.78,4.62-12.31,.65-2.51,.65-4.29-4.86-4.86-1.21-.16-2.35-.65-2.35-1.38,0-.57,1.3-1.05,2.59-1.05,3.24,0,5.43,.32,9.23,.32,4.29,0,7.29-.81,9.8-.81,1.62,0,2.19,.49,2.19,1.05-.08,.57-.89,.97-2.11,1.3-3.32,.89-3.73,1.94-4.86,4.13-.81,1.78-1.7,4.54-2.43,7.05-.65,2.43-1.3,4.94-1.46,6.96,0,.24-1.54,1.7-2.67,2.03-3.08,.73-8.67,2.92-14.5,2.92-15.47,0-21.71-8.67-21.71-20.41,0-7.13,3.24-16.44,9.72-23.16,6.64-6.88,15.96-10.69,26.89-10.69,3.89,0,8.18,.73,10.37,1.3Z"/><path class="e" d="M52.32,531.44c1.05,.32,2.27-.32,2.92-.65,.57-.32,.89-.57,1.38-.57,.57,0,.49,1.13-.08,2.03-.97,1.62-2.75,5.43-3.64,10.29-.32,1.13-.81,1.94-1.05,1.94-.57,0-1.13-.73-1.05-2.35,.16-1.94,0-4.13-.73-5.83-1.13-2.43-4.62-5.02-9.88-5.02-7.45,0-13.69,4.13-17.66,8.5-6.16,7.13-9.07,16.6-9.07,24.87,0,5.75,1.86,10.85,4.78,13.61,2.51,2.27,5.35,3.48,8.34,3.48,1.46,0,4.37-.97,5.91-3.65,1.54-2.51,3.81-10.37,4.54-14.01,.32-2.02-.08-3.08-3.4-3.56-.97-.24-2.02-.57-2.02-1.13s.49-.89,2.27-.89c2.27,0,6.16,.32,8.42,.32,2.43,0,7.69-.32,8.75-.32,.73,0,1.7,.24,1.7,.81s-.73,.97-2.02,1.21c-2.11,.41-2.92,1.05-4.29,4.86-.57,1.62-1.7,5.18-2.51,8.02-.65,2.27-1.13,4.21-1.05,5.35,.08,.32-.41,.97-1.13,1.13-1.94,.49-3.32,.97-5.1,1.54-4.05,1.54-8.5,2.43-12.63,2.43-11.34,0-20.98-7.21-20.98-20.33s7.21-22.6,14.01-27.38c7.05-5.02,14.74-6.64,23.33-6.64,5.43,0,10.04,1.13,11.99,1.94Z"/><path class="e" d="M134.25,534c.97,.24,1.46,0,2.43-.4,.41-.24,.81-.49,1.13-.49,.24,0,.41,.49-.24,1.62-.97,1.62-2.35,4.29-3.56,8.67-.24,.89-.49,1.54-.81,1.54-.41,0-.65-.57-.41-1.7,.32-2.11,.16-3.89-.73-5.59-1.54-3.4-6.16-4.21-9.4-4.21-6.72,0-13.12,3.81-16.85,8.18-6.07,7.13-8.67,16.12-8.67,24.14,0,6.48,1.7,11.01,4.37,13.61,2.19,2.11,4.86,3.08,7.94,3.08,1.86,0,4.29-.49,5.83-3.48,1.54-2.75,3.81-11.02,4.37-14.01,.49-2.35-.89-3.24-3.97-3.56-1.54-.16-2.43-1.38,.08-1.38,2.27,0,5.91,.32,8.1,.32,2.35,0,7.61-.32,8.58-.32,2.51,0,1.62,1.13-.08,1.46-2.19,.49-3.08,.73-4.45,4.62-.73,2.03-1.78,5.67-2.35,8.34-.41,2.19-.73,3.81-.73,4.78,0,.65,0,.81-2.59,1.86-6.07,2.27-10.69,2.83-14.9,2.83-11.18,0-19.76-7.69-19.76-19.92s6.64-20.73,13.2-25.43c6.72-4.78,13.61-6.48,21.79-6.48,5.18,0,9.4,1.3,11.66,1.94Z"/><path class="e" d="M212.27,533.74c1.7,.49,3.4,.73,4.46,.73,.57,0,1.46,.89,1.62,1.78,.49,2.19,1.62,6.32,1.62,9.56,0,1.21-.81,3.16-2.02,3.16-.81,0-1.38-.24-2.59-2.43-1.05-1.94-1.86-4.13-3.89-5.91-4.21-3.73-9.15-4.29-11.34-4.29-11.26,0-15.23,10.69-15.23,20.17,0,13.36,7.61,22.68,16.93,22.68,.73,0,2.75-.49,3.65-1.13,.81-.57,1.13-3.32,1.13-5.18,0-3.08-.08-6.07-.16-7.13-.16-1.62-.49-3-3.48-3.73-2.75-.65-3.81-1.46-3.81-2.67,0-.73,.89-1.86,3.32-1.86,2.27,0,4.62,.4,7.29,.4,2.43,0,10.37-.4,11.99-.4,2.27,0,3,.89,3,1.86,0,1.13-1.54,2.03-2.59,2.43-2.83,.97-2.67,2.35-2.75,3.48-.16,1.86-.16,3.32-.16,4.86,0,2.02,.08,3.89,.24,5.18,.08,.57,.24,1.38,.24,2.35,0,.24-.97,1.46-1.13,1.54-.97,.73-3,1.78-6.4,2.75-3.16,.89-7.13,1.7-11.1,1.7-13.28,0-20.82-3.97-26-10.29-3.64-4.45-5.02-10.37-5.02-15.63,0-8.75,3.73-14.82,10.12-19.68,4.62-3.56,13.04-6.08,20.41-6.08,5.26,0,8.26,.89,11.66,1.78Z"/><path class="e" d="M303.5,532.17c1.13,.32,3.24,.57,3.89,.57,.41,0,.89,.89,.97,1.86,.16,2.59,1.3,6.8,1.3,10.21,0,.97-.57,2.11-1.54,2.11-.41,0-1.13-.97-1.54-2.19-.49-1.3-1.94-4.21-3.16-5.75-1.78-2.11-6.48-5.67-12.96-5.67-11.34,0-18.14,10.69-18.14,23.25,0,5.59,.89,10.37,3.24,14.5,3.16,5.75,8.91,10.21,15.88,10.21,.97,0,2.51-.32,4.13-1.46,1.13-.81,1.62-2.83,1.62-6.4,0-2.75-.08-5.59-.32-6.56-.49-1.86-1.13-3.56-6.08-4.05-1.21-.08-2.43-.89-2.43-1.62,0-.57,1.21-1.21,2.83-1.21,3.81,0,7.61,.32,9.8,.32,1.94,0,7.13-.49,10.37-.49,1.62,0,2.19,.65,2.19,1.3,0,.41-.89,1.3-1.86,1.54-2.92,.73-2.67,1.78-2.83,3.08-.08,.97-.4,6.64-.4,9.96,0,1.05,.16,1.21,1.38,2.51,.24,.32,.65,.65,.65,1.3,0,.49-.73,1.13-1.21,1.3-1.38,.41-4.13,1.13-7.37,1.7-3.4,.65-10.69,1.7-12.31,1.7-8.58,0-17.01-2.59-21.79-6.97-3.81-3.56-8.34-9.07-8.34-20.25,0-8.75,3.81-14.66,8.91-19.12,5.1-4.54,13.61-7.37,22.11-7.37,5.34,0,9.96,.81,13.04,1.7Z"/><path class="e" d="M43.57,619.8c1.21,.24,2.92-.16,4.29-.16,.24,0,.73,.41,.73,1.46-.16,3.4,.16,6.96,.16,11.58,0,.81-.49,1.7-1.21,1.7-.32,0-.97-1.3-1.21-2.19-1.05-4.86-3.73-7.69-6.88-9.56-2.19-1.3-4.94-2.19-8.59-2.19-11.99-.08-17.9,9.8-17.9,23.81,0,11.02,7.05,25.51,18.39,25.51,1.54,0,2.59-.49,3.64-1.13,1.21-.89,2.27-2.27,2.27-7.05,0-2.92-.16-6.4-.4-7.86-.41-2.43-1.3-3-5.99-3.81-.81-.16-2.02-.57-2.02-1.38,0-.32,.81-.89,2.27-.81,3.16,0,6.48,.32,10.37,.32,4.78,0,5.43-.32,9.48-.32,1.13,0,1.94,.24,1.94,.89,0,.89-1.3,1.21-1.86,1.38-1.78,.41-2.51,1.78-2.59,2.83-.24,2.43-.32,5.67-.32,7.53,0,4.78,.73,5.43,1.7,6.24,.24,.24,.81,.89,.81,1.05,0,.24-.73,.97-1.13,1.13-1.13,.4-4.46,1.13-7.86,1.94-3.64,.81-9.07,1.38-10.69,1.38-10.61,0-18.06-3-22.6-7.21-3.65-3.48-8.34-9.31-8.34-19.76,0-8.34,3.24-14.58,8.26-19.2,4.78-4.46,13.04-7.69,23.08-7.69,4.54,0,10.04,1.05,12.23,1.54Z"/><path class="e" d="M124.69,620.92c2.19,.57,4.05,1.21,5.35,1.62,.49,.08,.73,1.05,.81,1.62,.32,1.46,.81,6.64,.97,7.78,.24,1.13-.16,1.62-.41,1.62-.4,0-.81-.41-1.13-1.54-1.78-5.99-7.29-10.93-15.63-10.93-4.05,0-8.26,1.62-11.74,5.67-3.89,4.21-6.32,11.58-6.32,19.28,0,9.72,3.89,16.52,7.94,20.41,3.24,3,5.99,4.29,9.56,4.29,.81,0,3.64-.32,5.75-2.43,.32-.32,.97-1.7,1.05-4.13,0-1.3,.32-7.29,.08-9.64-.32-2.59-1.3-3.48-4.21-4.13-.81-.16-1.78-.32-1.78-.81,0-.57,.81-.65,2.19-.73,3.24,0,5.35,.41,10.21,.41,1.7,0,6.24-.32,6.72-.32,1.21,0,1.7,.32,1.7,.57,0,.57-.57,.89-2.11,1.21-1.78,.32-2.11,1.38-2.11,5.59,0,6.08,.32,8.75,.32,9.72,0,1.05,.08,1.62-.57,1.94-1.54,.73-2.92,1.21-4.45,1.78-3.48,1.21-9.64,2.59-12.96,2.59-8.02,0-15.71-2.75-20.09-6.48-5.91-5.18-8.83-11.99-8.83-19.28,0-8.5,3.64-15.63,11.1-21.3,3.48-2.67,9.56-5.67,18.47-5.67,3.97,0,7.45,.73,10.12,1.3Z"/><path class="e" d="M217.86,622.86c1.7,.57,2.35,.65,3.16,.65s2.75-.24,3-.24c.49,0,1.54,1.38,.97,2.19-2.75,3.81-4.37,7.53-5.18,10.21-.32,1.05-1.38,2.02-2.43,2.02-.97,0-1.3-1.94-1.3-2.59-.08-2.43,.65-4.37-.57-6.07-1.38-1.94-4.94-4.29-8.42-4.29-3.81,0-8.18,1.54-12.8,5.91-5.67,5.35-8.75,15.79-8.75,21.87,0,2.92,.89,9.48,3,11.91,2.19,2.43,4.45,4.21,7.29,4.21,1.21,0,3.56-1.3,4.94-3.73s3.08-6.64,3.56-10.69c.41-3.56-1.94-3.24-5.59-4.13-1.3-.32-2.03-1.21-2.03-1.86,0-.89,1.38-1.7,2.43-1.7,2.83,0,9.56,.49,12.88,.49,3,0,8.99-.49,9.64-.49,1.13,0,2.02,1.38,2.02,2.51,0,.49-.73,.97-1.78,1.21-3.48,.73-4.05,1.62-4.78,3.32-.73,1.86-3.73,11.66-4.37,13.85-.24,.81-.65,1.62-2.27,2.35-5.43,1.7-10.45,2.59-15.23,2.59-13.93,0-23.25-8.5-23.25-20.57,0-7.21,3.81-18.55,14.17-25.11,6.48-4.13,14.17-5.67,20.49-5.67,3.81,0,8.18,.81,11.18,1.86Z"/><path class="e" d="M309.09,619.56c1.21,.32,2.19-.16,3.48-.57,.81-.24,1.21-.32,1.62-.32,.32,0,.97,1.3,.57,2.02-2.35,2.51-4.54,8.26-4.94,10.69-.16,1.21-.49,2.03-.81,2.03-.73,0-1.86-.73-1.86-2.43,0-2.75,.4-4.46-.57-6.32-1.21-2.35-4.54-3.89-7.78-3.89-5.35,0-9.72,2.11-15.47,7.94-6.07,6.15-9.72,15.63-9.72,24.22,0,7.86,2.67,16.52,12.23,16.52,.73,0,1.54-.41,2.35-.81,.89-.41,1.21-.81,1.94-2.03,1.38-2.03,3.16-7.78,4.54-12.31,.49-2.11,.65-3.89-5.02-4.54-1.21-.16-2.19-.73-2.19-1.46,0-.49,1.21-1.05,2.51-1.05,4.05,0,6.07,.32,9.88,.32,4.21,0,7.37-.81,10.29-.81,1.62,0,2.19,.57,2.19,1.05,0,.57-.81,.97-2.03,1.38-3.48,1.05-3.81,2.11-4.94,4.29-.89,1.78-1.54,4.21-2.27,6.72-.57,2.43-1.13,4.62-1.38,6.72,0,.16-1.54,1.78-2.92,2.11-3,.73-8.83,3-15.23,3-14.9,0-21.87-7.29-21.87-20.17,0-7.94,3.64-16.77,9.72-23,6.64-6.8,16.2-10.53,27.29-10.53,3.56,0,7.94,.57,10.37,1.21Z"/><path class="e" d="M52.48,709.25c.97,.4,2.43-.57,2.92-.89,.57-.32,.73-.49,1.38-.49,.57,0,.32,1.21-.24,2.11-.97,1.62-2.83,5.67-3.73,10.45-.24,.97-.65,2.03-.97,2.03-.57,0-1.3-.81-1.21-2.27,.16-2.27-.08-4.54-.73-6.16-.89-2.02-4.13-5.1-9.64-5.1-7.37,0-12.72,4.05-16.68,8.42-6.07,7.05-8.67,16.93-8.67,24.7,0,5.59,1.62,11.01,4.29,13.69,1.86,1.78,3.97,3.24,7.05,3.24,1.3,0,3.4-.73,4.86-3.32,1.46-2.51,3.89-10.37,4.54-14.01,.32-2.19,.16-3.16-3.16-3.81-.89-.24-2.11-.57-2.11-1.21,0-.57,.57-.97,2.43-.97,2.27,0,6.16,.41,8.42,.41,2.43,0,8.83-.41,9.88-.41,.73,0,1.62,.32,1.62,.97,0,.57-.65,1.05-1.94,1.21-2.19,.41-2.92,1.3-4.29,5.02-.57,1.62-1.62,5.1-2.51,7.94-.57,2.27-1.13,4.29-1.05,5.51,.08,.32-.57,.89-1.13,1.13-2.35,.41-4.05,1.05-5.99,1.7-4.05,1.3-7.86,1.95-11.5,1.95-11.34,0-21.46-6.97-21.46-20.33s7.29-22.44,14.01-27.13c6.97-5.02,15.23-6.56,23.25-6.56,5.35,0,10.29,1.13,12.39,2.19Z"/><path class="e" d="M134.82,711.42c.89,.16,1.38,0,2.51-.49,.32-.16,.65-.41,.97-.41,.24,0,.49,.49-.24,1.54-.81,1.3-2.35,3.89-3.73,8.91-.24,.89-.57,1.62-.89,1.62-.49,0-.65-.65-.41-1.78,.32-1.86,.24-3.73-.57-5.43-1.62-3.89-6.72-4.62-9.15-4.62-6.72,0-12.47,3.64-16.2,7.86-6.24,7.29-8.75,16.52-8.75,24.7,0,6.72,1.7,11.26,4.37,13.85,2.03,1.78,4.13,2.59,6.88,2.59,.97,0,3.32-.32,4.86-3.24,1.46-2.75,3.64-10.69,4.37-14.17,.49-2.59-.81-3.4-3.81-3.81-1.3-.08-2.59-1.38,0-1.38,2.35,0,6.16,.32,8.34,.32,2.35,0,8.75-.24,9.8-.24,2.43,0,1.62,1.21-.16,1.46-2.27,.49-3.24,.65-4.62,4.62-.81,2.19-1.94,5.91-2.35,8.5-.4,2.19-.65,3.64-.65,4.62,0,.65,.08,.81-2.59,1.78-6.07,2.35-10.61,2.92-14.74,2.92-11.99,0-20.57-7.86-20.57-20.09s6.64-20.41,13.2-25.19c6.72-4.78,13.61-6.48,22.11-6.48,5.1,0,9.48,1.29,11.99,2.02Z"/><path class="e" d="M41.47,88.94c1.86,.4,4.05,.49,5.91,0,.24-.08,.81,.4,.73,.81-.41,3.73,.16,7.13,.32,10.77,.08,1.3-.24,2.02-.73,2.02-.57,0-.89-.81-1.21-2.35-.41-1.7-1.78-5.1-4.78-7.29-2.27-1.7-7.29-3.24-12.39-3.16-13.93,.16-20.98,10.45-20.98,23.65,0,14.74,8.75,27.54,24.05,27.54,4.29,0,7.13-.81,8.1-2.11,1.05-1.21,1.7-3.32,1.7-7.53,0-2.11-.08-4.46-.32-6.16-.41-2.35-1.94-3.24-6.72-3.89-1.3-.24-1.86-.49-1.86-1.13,0-.4,.97-.81,2.11-.73,2.75,.08,5.1,.32,8.26,.32,2.51,0,5.99-.32,7.21-.32,1.54,0,1.46,.57,1.46,.89,0,.49-.65,.81-1.38,1.05-1.54,.4-1.7,1.05-1.86,2.19-.49,2.59-.32,4.94-.32,7.45,0,4.37,.08,6.32,1.62,7.13,.41,.32,.81,.57,.81,.97,0,.32-.41,.65-1.13,.89-2.43,.41-5.51,1.21-7.37,1.62-2.51,.57-7.53,1.46-10.85,1.46-10.69,0-18.87-3.73-24.14-8.83-3.89-3.89-7.53-9.8-7.53-19.03s5.43-17.25,11.74-21.62c5.26-3.81,11.91-5.75,20-5.75,3.24,0,6.88,.57,9.56,1.13Z"/><path class="e" d="M216.48,92.33c1.7,.41,3.08,.57,3.97,.57,.81,0,1.86-.24,2.11-.24,.4,0,1.21,1.7,.65,2.51-2.84,3.89-4.05,6.64-4.86,9.4-.32,1.05-1.21,1.7-1.78,1.7-.97,0-1.29-1.13-.97-2.83,.32-2.59,1.13-3.4-.49-5.67-1.46-2.02-5.99-3.64-9.4-3.64-5.83,0-11.5,2.19-15.96,6.8-5.51,5.59-8.99,14.17-8.99,21.79,0,3.08,.89,7.29,2.67,10.29,2.59,4.29,7.94,7.21,12.63,7.21,1.94,0,5.51-.49,8.26-5.59,1.54-2.83,3-7.37,3.56-10.21,.73-3.65-2.35-3.65-6.07-4.54-1.38-.32-1.86-1.3-1.86-1.94s.89-.97,1.94-.97c2.92,0,6.4,.32,9.8,.32,3.08,0,7.61-.49,8.26-.49,.81,0,1.62,1.3,1.62,2.11,0,.41-.89,.65-1.94,.89-3.32,.73-3.97,1.94-4.13,2.75-.81,3.16-3.48,12.47-4.62,15.87-.16,.49-.81,1.86-2.02,2.27-5.51,1.86-9.48,2.59-14.34,2.59-14.26,0-22.11-9.8-22.11-21.3,0-7.05,4.46-19.44,15.06-26,5.18-3.24,10.12-5.1,19.52-5.1,2.51,0,7.05,.89,9.48,1.46Z"/><path class="e" d="M309.01,89.12c1.21,.24,2.83,.16,3.89,0,.81-.16,1.38-.49,1.78-.49,.32,0,.81,1.05,.32,1.62-2.19,2.75-4.54,7.29-5.51,10.85-.32,1.21-.65,2.02-1.13,2.02-.73,0-1.05-.81-.97-2.59,.16-2.67,.65-5.02-.08-6.48-1.21-2.35-4.62-4.29-9.56-4.29-7.78,0-13.85,4.7-17.82,8.99-5.83,6.32-9.48,16.2-9.48,24.06,0,9.64,4.46,17.9,15.71,17.9,2.02,0,2.92-.4,4.21-1.38,.57-.4,.97-.89,1.3-1.46,1.46-2.27,3.4-7.69,4.7-12.31,.97-3.24,.73-5.18-4.46-5.51-1.3-.16-2.83-.49-2.83-1.21s1.54-1.05,2.83-1.05c1.62,0,4.21,.24,8.02,.24,4.29,0,7.13-.65,8.83-.65,1.54,0,2.02,.32,2.02,.89-.08,.73-.89,.97-2.19,1.21-3.08,.65-3.65,1.7-4.7,3.89-.81,1.78-2.19,5.1-2.92,7.69-.65,2.43-1.38,5.43-1.54,7.45-.08,.41-1.46,1.46-2.11,1.7-3.32,.81-8.26,2.75-13.04,2.75-16.68,0-21.46-11.42-21.46-20.82,0-5.59,2.43-15.79,9.88-23.57,6.48-6.88,15.39-10.85,26.08-10.85,4.46,0,8.58,.89,10.21,1.38Z"/><path class="e" d="M124.04,91.12c2.02,.57,4.54,1.54,5.51,1.94,.49,.16,.81,1.05,.81,1.86,.08,.73,.57,4.29,.73,5.26,.24,1.05-.16,1.54-.4,1.54-.41,0-.49-.16-.97-1.3-2.27-5.91-7.05-9.56-15.55-9.56-5.67,0-11.26,2.43-14.98,6.48-3.89,4.21-6.8,10.93-6.8,19.52,0,9.64,5.18,16.85,9.4,20.41,3.73,3.08,8.18,4.7,12.39,4.7,3.4,0,7.05-1.38,9.07-3.4,.89-1.05,1.05-2.35,1.21-4.37,.16-1.54,.32-6.72,.08-9.23-.24-2.75-1.22-3.64-4.62-4.21-.81-.08-1.54-.32-1.54-.65s.49-.57,2.03-.57c1.78,0,3.89,.32,7.13,.32,2.67,0,4.62-.24,5.18-.24,.81,0,1.38,.24,1.38,.49,0,.49-.89,.73-1.62,.89-1.3,.32-1.78,.97-1.78,5.26,0,3.97,.4,9.07,.4,10.21,0,1.05,.08,1.62-.57,1.94-.89,.41-2.27,1.05-3.97,1.94-3.56,1.54-8.02,3-12.23,3-8.58,0-15.39-2.92-20.41-7.37-5.75-4.86-8.75-11.5-8.75-19.28,0-8.42,3.32-15.47,10.93-21.3,3.65-2.67,8.83-5.75,18.71-5.75,3.97,0,7.21,.97,9.23,1.46Z"/><g><path class="h" d="M101.2,34.71c0,.51,.08,.93,.25,1.27,.3,.62,.86,.92,1.66,.92,.49,0,.92-.17,1.29-.51s.55-.82,.55-1.45c0-.84-.34-1.4-1.02-1.68-.39-.16-.99-.24-1.82-.24v-1.79c.81-.01,1.38-.09,1.7-.24,.55-.25,.83-.74,.83-1.49,0-.49-.14-.88-.42-1.19-.28-.3-.68-.46-1.2-.46-.59,0-1.02,.19-1.3,.56-.28,.38-.41,.88-.4,1.5h-2.34c.02-.63,.13-1.23,.33-1.8,.2-.5,.53-.96,.97-1.38,.33-.3,.72-.53,1.17-.69,.45-.16,1-.24,1.66-.24,1.22,0,2.2,.31,2.95,.94s1.12,1.48,1.12,2.54c0,.75-.22,1.38-.67,1.9-.28,.32-.57,.54-.88,.66,.23,0,.56,.2,.98,.59,.64,.59,.96,1.4,.96,2.43,0,1.08-.37,2.03-1.12,2.84-.75,.82-1.85,1.23-3.31,1.23-1.8,0-3.06-.59-3.76-1.77-.37-.63-.57-1.45-.61-2.46h2.46Z"/><path class="h" d="M119.48,35.88h-1.44v2.74h-2.45v-2.74h-5.04v-2.19l4.68-7.73h2.81v7.96h1.44v1.96Zm-3.89-1.96v-5.49l-3.18,5.49h3.18Z"/><path class="h" d="M132,34.62c.08,.59,.25,1.03,.49,1.33,.45,.53,1.22,.8,2.31,.8,.65,0,1.18-.07,1.59-.21,.77-.27,1.16-.77,1.16-1.5,0-.43-.19-.76-.57-.99-.38-.23-.98-.43-1.8-.61l-1.4-.31c-1.38-.3-2.33-.64-2.84-.99-.87-.6-1.31-1.53-1.31-2.8,0-1.16,.43-2.12,1.28-2.89s2.11-1.15,3.76-1.15c1.38,0,2.56,.36,3.54,1.09,.98,.72,1.49,1.77,1.54,3.15h-2.6c-.05-.78-.4-1.33-1.04-1.66-.43-.22-.97-.33-1.61-.33-.71,0-1.29,.14-1.71,.42s-.64,.67-.64,1.18c0,.46,.21,.81,.63,1.04,.27,.15,.84,.33,1.72,.54l2.27,.54c1,.23,1.74,.55,2.24,.94,.77,.61,1.16,1.49,1.16,2.65s-.46,2.17-1.37,2.95-2.21,1.17-3.88,1.17-3.05-.39-4.02-1.16-1.47-1.83-1.47-3.18h2.58Z"/><path class="h" d="M153.27,25.67v2.29h-3.88v10.66h-2.72v-10.66h-3.89v-2.29h10.49Z"/><path class="h" d="M164.05,25.67h3.07l-4.33,8.1v4.86h-2.71v-4.86l-4.48-8.1h3.19l2.69,5.64,2.58-5.64Z"/><path class="h" d="M170.46,25.67h2.71v10.63h6.47v2.33h-9.18v-12.96Z"/><path class="h" d="M192.83,27.96h-6.86v2.75h6.29v2.25h-6.29v3.33h7.17v2.33h-9.82v-12.96h9.5v2.29Z"/><path class="h" d="M199.01,34.62c.08,.59,.25,1.03,.49,1.33,.45,.53,1.22,.8,2.31,.8,.65,0,1.18-.07,1.59-.21,.77-.27,1.16-.77,1.16-1.5,0-.43-.19-.76-.57-.99-.38-.23-.98-.43-1.8-.61l-1.4-.31c-1.38-.3-2.33-.64-2.84-.99-.87-.6-1.31-1.53-1.31-2.8,0-1.16,.43-2.12,1.28-2.89s2.11-1.15,3.76-1.15c1.38,0,2.56,.36,3.54,1.09,.98,.72,1.49,1.77,1.54,3.15h-2.6c-.05-.78-.4-1.33-1.04-1.66-.43-.22-.97-.33-1.61-.33-.71,0-1.29,.14-1.71,.42s-.64,.67-.64,1.18c0,.46,.21,.81,.63,1.04,.27,.15,.84,.33,1.72,.54l2.27,.54c1,.23,1.74,.55,2.24,.94,.77,.61,1.16,1.49,1.16,2.65s-.46,2.17-1.37,2.95-2.21,1.17-3.88,1.17-3.05-.39-4.02-1.16-1.47-1.83-1.47-3.18h2.58Z"/></g></g></g></g></svg>