<?xml version="1.0" encoding="UTF-8"?><svg xmlns="http://www.w3.org/2000/svg" viewBox="0 0 306.75 572.35"><defs><style>.d{fill:#0c35c3;}</style></defs><g id="a"/><g id="b"><g id="c"><g><path class="d" d="M34.35,1.37c1.73,.5,4.18,1.44,4.9,1.8,.43,.22,.72,.94,.72,1.73,0,.43,.43,3.17,.58,4.03,.22,.94-.07,1.37-.29,1.37-.36,0-.43-.14-.86-1.15-2.16-5.18-6.19-8.07-13.83-8.07-5.47,0-10.8,2.38-14.11,5.91-3.46,3.74-6.19,9.58-6.19,17.5,0,8.5,4.9,15.05,8.71,18.15,3.46,2.74,7.85,4.25,11.74,4.25s7.2-1.51,9-3.31c.94-1.08,.94-2.23,1.08-3.96,.14-1.44,.29-5.83,.07-8.06-.22-2.52-1.08-3.31-4.25-3.74-.72-.07-1.22-.29-1.22-.58,0-.22,.29-.5,1.73-.43,1.15,0,3.02,.22,5.54,.22s3.6-.14,4.18-.14c.65,0,1.15,.14,1.15,.43,0,.36-.86,.58-1.37,.72-1.01,.22-1.44,.72-1.44,4.54,0,3.02,.36,8.21,.36,9.22,0,.94,.07,1.44-.5,1.73s-1.8,.94-3.38,1.73c-3.24,1.51-6.7,2.81-10.66,2.81-7.85,0-13.68-2.66-18.29-6.77C2.66,37.01,0,31.11,0,24.05,0,16.63,2.88,10.37,9.65,5.18,12.96,2.74,17.28,0,26.35,0c3.53,0,6.34,1.01,7.99,1.37Z"/><path class="d" d="M127.88,2.74c.86,.29,1.44,.14,1.87-.07,.5-.36,1.08-.79,1.37-.79,.22,0,.22,.72-.14,1.58-1.37,2.45-2.23,5.33-2.74,7.2-.29,.86-.22,1.15-.65,1.15-.22,0-.58-.22-.43-1.3,.36-2.81,.14-3.82-.94-5.26-1.3-1.58-3.74-2.74-8.93-2.74-6.34,0-13.75,3.96-17.21,8.14-4.9,5.9-7.49,13.1-7.49,19.8,0,5.11,1.51,8.93,3.96,11.59,2.66,2.74,6.7,4.25,10.44,4.25,4.18,0,6.77-1.22,8.14-3.96,1.44-2.45,3.53-10.8,3.82-12.03,.29-1.37-.94-2.23-3.96-2.45-2.23-.22-1.8-1.15-.07-1.15s4.75,.14,6.77,.14,3.31-.29,4.18-.29c2.02,0,1.44,.79-.14,1.15-1.58,.36-2.09,.79-3.31,4.03-.5,1.37-1.37,4.39-2.09,7.06-.5,1.8-.86,3.74-.86,4.68,.07,.58-.29,.65-2.45,1.8-5.4,1.87-9.79,2.45-13.47,2.45-7.85,0-15.41-6.62-15.41-17.5,0-11.67,5.9-19.01,11.59-23.11,5.98-4.32,12.17-5.83,18.58-5.83,4.61,0,7.99,.94,9.58,1.44Z"/><path class="d" d="M208.6,1.87c1.51,.43,1.87,.22,3.1,.5,1.08,.22,1.3,.36,1.66,1.44,.65,1.73,1.94,5.54,1.94,8.42,0,.58-.29,1.8-1.22,1.8-.72,0-1.3-.43-1.94-1.66-.94-2.02-1.94-3.31-3.67-4.97-2.66-2.52-6.77-4.18-10.73-4.18-11.16,0-17.64,9.29-17.64,19.87s7.71,20.52,19.3,20.52c1.3,0,4.68-.22,6.26-1.44,.5-.36,1.94-2.52,1.94-5.18s-.07-6.62-.14-7.56c-.14-1.08-.79-1.51-3.38-2.02-2.81-.43-3.02-1.15-3.02-1.87,0-.43,.94-1.15,2.45-1.15,2.02,0,3.89,.22,6.26,.22,2.16,0,5.98-.36,7.42-.36,1.15,0,1.87,.5,1.87,1.37,0,.43-.72,1.08-2.09,1.51-2.3,.79-2.59,1.73-2.66,2.66-.14,1.66-.14,4.03-.14,5.62,0,3.17,.29,4.61,.43,5.54,.07,.5,.14,.79,.14,1.3,0,.36-.58,1.08-1.01,1.22-2.16,.65-2.74,1.37-5.9,2.02-2.88,.65-5.83,1.3-9.36,1.3-10.37,0-17.93-4.1-21.89-9.43-3.02-3.96-4.46-8.93-4.46-14.19,0-7.27,3.38-13.25,9-17.5,4.25-3.24,10.87-5.47,17.28-5.47,4.46,0,7.2,.86,10.23,1.66Z"/><path class="d" d="M296.17,2.02c1.44,.29,1.94,.36,2.74,.58,.29,0,.86,.58,.86,1.73,.07,1.73,1.01,5.18,1.01,7.92,0,.94-.43,1.58-.94,1.58-.43,0-.86-.58-1.3-1.66-.72-1.94-1.66-3.67-2.74-5.04-1.58-1.94-5.76-4.46-11.52-4.46-12.31,0-19.59,10.08-19.59,21.46,0,5.11,1.15,9.65,3.24,13.11,3.82,6.48,10.73,9.94,17.43,9.94,.86,0,4.46-.43,6.48-1.73,.58-.36,1.51-2.81,1.51-3.75,0-2.52-.07-6.62-.22-7.49-.5-1.66-1.08-3.02-6.48-3.38-1.08-.07-1.87-.65-1.87-1.22,0-.5,.79-1.01,2.16-1.01,1.3,0,6.55,.29,8.64,.29,1.73,0,4.18-.29,6.48-.29,1.15,0,1.94,.36,1.94,.94,0,.5-.79,.94-1.66,1.22-2.16,.65-2.3,1.44-2.59,2.23-.29,.79-.36,5.98-.36,8.93,0,1.15,.65,1.87,1.01,2.09,1.3,.72,1.22,.94,1.22,1.3,0,.29-.29,.79-1.08,1.01-1.3,.36-3.74,.94-6.55,1.73-3.1,.86-7.56,1.3-9.94,1.3-8.06,0-14.76-2.59-19.15-6.55-3.31-3.17-7.42-9.07-7.42-17.71,0-6.41,2.23-12.96,8.14-18.15,4.54-4.03,11.45-6.48,18.43-6.48,5.26,0,9.07,.94,12.1,1.58Z"/><path class="d" d="M37.45,374.92c1.66,.36,3.6,.43,5.26,0,.22-.07,.72,.36,.65,.72-.36,3.31,.14,6.34,.29,9.58,.07,1.15-.22,1.8-.65,1.8-.5,0-.79-.72-1.08-2.09-.36-1.51-1.58-4.54-4.25-6.48-2.02-1.51-6.48-2.88-11.02-2.81-12.38,.14-18.65,9.29-18.65,21.03,0,13.11,7.78,24.48,21.39,24.48,3.82,0,6.34-.72,7.2-1.87,.94-1.08,1.51-2.95,1.51-6.7,0-1.87-.07-3.96-.29-5.47-.36-2.09-1.73-2.88-5.98-3.46-1.15-.22-1.66-.43-1.66-1.01,0-.36,.86-.72,1.87-.65,2.45,.07,4.54,.29,7.34,.29,2.23,0,5.33-.29,6.41-.29,1.37,0,1.3,.5,1.3,.79,0,.43-.58,.72-1.22,.94-1.37,.36-1.51,.94-1.66,1.94-.43,2.3-.29,4.39-.29,6.62,0,3.89,.07,5.62,1.44,6.34,.36,.29,.72,.5,.72,.86,0,.29-.36,.58-1.01,.79-2.16,.36-4.9,1.08-6.55,1.44-2.23,.5-6.7,1.3-9.65,1.3-9.5,0-16.78-3.31-21.46-7.85-3.46-3.46-6.7-8.71-6.7-16.92s4.82-15.34,10.44-19.23c4.68-3.38,10.58-5.11,17.79-5.11,2.88,0,6.12,.5,8.5,1.01Z"/><path class="d" d="M121.05,374.7c1.8,.5,4.03,1.37,4.9,1.73,.43,.14,.72,.94,.72,1.66,.07,.65,.5,3.82,.65,4.68,.22,.94-.14,1.37-.36,1.37-.36,0-.43-.14-.86-1.15-2.02-5.26-6.26-8.5-13.83-8.5-5.04,0-10.01,2.16-13.32,5.76-3.46,3.74-6.05,9.72-6.05,17.35,0,8.57,4.61,14.98,8.35,18.15,3.31,2.74,7.27,4.18,11.02,4.18,3.02,0,6.26-1.22,8.06-3.02,.79-.94,.94-2.09,1.08-3.89,.14-1.37,.29-5.98,.07-8.21-.22-2.45-1.08-3.24-4.1-3.75-.72-.07-1.37-.29-1.37-.58s.43-.5,1.8-.5c1.58,0,3.46,.29,6.34,.29,2.38,0,4.1-.22,4.61-.22,.72,0,1.22,.22,1.22,.43,0,.43-.79,.65-1.44,.79-1.15,.29-1.58,.86-1.58,4.68,0,3.53,.36,8.07,.36,9.07,0,.94,.07,1.44-.5,1.73-.79,.36-2.02,.94-3.53,1.73-3.17,1.37-7.13,2.66-10.87,2.66-7.63,0-13.68-2.59-18.15-6.55-5.11-4.32-7.78-10.22-7.78-17.14,0-7.49,2.95-13.75,9.72-18.94,3.24-2.38,7.85-5.11,16.63-5.11,3.53,0,6.41,.86,8.21,1.3Z"/><path class="d" d="M214.3,374.99c1.51,.36,2.74,.5,3.53,.5,.72,0,1.66-.22,1.87-.22,.36,0,1.08,1.51,.58,2.23-2.52,3.46-3.6,5.9-4.32,8.35-.29,.94-1.08,1.51-1.58,1.51-.86,0-1.15-1.01-.86-2.52,.29-2.3,1.01-3.02-.43-5.04-1.3-1.8-5.33-3.24-8.35-3.24-5.18,0-10.23,1.94-14.19,6.05-4.9,4.97-7.99,12.6-7.99,19.37,0,2.74,.79,6.48,2.38,9.14,2.3,3.82,7.06,6.41,11.23,6.41,1.73,0,4.9-.43,7.34-4.97,1.37-2.52,2.66-6.55,3.17-9.07,.65-3.24-2.09-3.24-5.4-4.03-1.22-.29-1.66-1.15-1.66-1.73s.79-.86,1.73-.86c2.59,0,5.69,.29,8.71,.29,2.74,0,6.77-.43,7.34-.43,.72,0,1.44,1.15,1.44,1.87,0,.36-.79,.58-1.73,.79-2.95,.65-3.53,1.73-3.67,2.45-.72,2.81-3.1,11.09-4.1,14.11-.14,.43-.72,1.66-1.8,2.02-4.9,1.66-8.42,2.3-12.75,2.3-12.67,0-19.66-8.71-19.66-18.94,0-6.26,3.96-17.28,13.39-23.11,4.61-2.88,9-4.54,17.35-4.54,2.23,0,6.26,.79,8.42,1.3Z"/><path class="d" d="M46.16,75.01c1.01,.22,1.73,.07,2.52-.22,.58-.22,1.08-.5,1.3-.5,.43,0,.65,.79,.14,1.66-.86,1.44-2.3,4.46-3.17,8.71-.29,1.44-.86,1.8-1.08,1.8-.5,0-.72-.65-.58-2.38,.07-1.15,.14-3.02-.65-4.54-1.51-2.88-4.9-4.32-9.29-4.32-6.77,0-14.11,3.96-17.64,7.92-5.62,6.41-8.64,13.97-8.64,22.32,0,5.33,1.94,9.36,4.97,11.95,3.6,3.02,7.56,3.38,10.08,3.38,1.73,0,5.69-1.15,7.27-3.89,1.51-2.23,3.31-9,4.03-12.24,.36-1.58-.5-2.59-3.46-2.88-.86-.07-1.73-.5-1.73-.79,0-.43,.43-.72,1.8-.72,2.09,0,5.47,.22,7.49,.22,2.23,0,4.68-.22,5.62-.22,.65,0,1.51,.14,1.51,.58,0,.5-.65,.72-1.87,1.01-1.73,.43-2.52,.65-3.82,4.03-.5,1.51-1.58,4.68-2.3,7.34-.65,2.02-.86,3.38-.79,4.46,0,.29-.22,.72-1.08,1.01-1.08,.36-1.44,.43-2.59,.94-3.89,1.73-9,3.1-13.46,3.1-10.37,0-18-6.84-18-18.07s6.41-20.38,12.6-24.7c6.34-4.54,12.31-6.34,20.81-6.34,4.9,0,8.5,1.01,10.01,1.37Z"/><path class="d" d="M128.32,76.31c.86,.29,1.44,.14,1.94-.14,.5-.29,1.01-.65,1.3-.65,.22,0,.29,.58-.14,1.51-1.22,2.16-2.23,4.9-2.88,7.34-.29,.86-.29,1.22-.65,1.22-.29,0-.58-.29-.43-1.37,.36-2.52,.14-3.67-.86-5.18-1.3-2.02-4.25-3.02-8.78-3.02-6.19,0-13.11,3.82-16.49,7.85-5.04,6.05-7.56,13.54-7.56,20.31,0,5.33,1.51,9.22,3.89,11.74,2.52,2.52,6.05,3.82,9.5,3.82s5.83-1.01,7.2-3.67c1.44-2.45,3.53-10.51,3.89-12.17,.29-1.58-.94-2.45-3.89-2.66-1.94-.22-1.87-1.15,0-1.15s4.9,.14,6.91,.14,4.32-.29,5.18-.29c2.09,0,1.44,.86-.14,1.22-1.66,.36-2.23,.72-3.46,4.03-.58,1.51-1.44,4.61-2.09,7.2-.5,1.8-.79,3.6-.79,4.54,0,.58-.22,.65-2.45,1.73-5.4,1.94-9.72,2.52-13.39,2.52-8.5,0-16.06-6.7-16.06-17.57,0-11.52,5.9-18.87,11.67-22.97,5.98-4.32,12.1-5.83,18.79-5.83,4.61,0,8.06,1.01,9.79,1.51Z"/><path class="d" d="M208.75,75.44c1.51,.43,2.09,.36,3.31,.58,.94,.14,1.22,.36,1.58,1.44,.58,1.73,1.8,5.54,1.8,8.42,0,.65-.29,2.02-1.22,2.02-.72,0-1.3-.5-2.02-1.8-1.01-1.94-1.94-3.38-3.67-5.04-2.81-2.59-6.91-4.1-10.66-4.1-10.94,0-17.07,9.36-17.07,19.59,0,11.23,7.63,20.52,18.79,20.52,1.15,0,4.32-.29,5.76-1.44,.58-.36,1.8-2.52,1.8-5.04,0-2.74-.07-6.48-.14-7.42-.14-1.08-.72-1.73-3.31-2.16-2.74-.5-3.1-1.22-3.1-2.02,0-.43,.94-1.15,2.52-1.15,2.02,0,3.96,.22,6.34,.22,2.16,0,6.41-.36,7.85-.36,1.3,0,2.02,.5,2.02,1.37,0,.58-.86,1.15-2.16,1.66-2.3,.79-2.52,1.73-2.59,2.74-.14,1.66-.14,3.82-.14,5.4,0,2.95,.22,4.46,.36,5.4,.07,.5,.14,.86,.14,1.44,0,.29-.58,1.15-1.01,1.22-1.94,.65-2.66,1.37-5.83,2.09-2.88,.65-5.9,1.3-9.43,1.3-10.58,0-18-4.03-22.03-9.36-3.1-4.03-4.46-9-4.46-14.19,0-7.27,3.31-13.18,9-17.5,4.18-3.17,10.95-5.4,17.35-5.4,4.46,0,7.2,.79,10.23,1.58Z"/><path class="d" d="M296.24,75.66c1.37,.29,2.02,.43,2.88,.58,.22,0,.79,.58,.86,1.73,0,1.8,.94,5.33,.94,8.06,0,.94-.36,1.66-.94,1.66-.43,0-.94-.65-1.3-1.73-.72-1.87-1.73-3.67-2.81-5.04-1.58-1.87-5.76-4.54-11.52-4.54-12.02,0-19.08,10.01-19.08,21.31,0,5.11,1.08,9.65,3.17,13.11,3.74,6.26,10.37,9.79,16.99,9.79,.86,0,4.18-.43,6.12-1.66,.58-.43,1.44-2.74,1.44-4.03,0-2.52-.07-6.41-.22-7.27-.5-1.66-1.08-2.95-6.26-3.38-1.08-.07-1.94-.65-1.94-1.22,0-.5,.86-1.08,2.23-1.08,1.58,0,6.55,.29,8.57,.29,1.73,0,4.54-.29,6.91-.29,1.22,0,1.94,.43,1.94,1.01,0,.43-.79,.94-1.66,1.22-2.23,.65-2.3,1.44-2.59,2.3-.22,.79-.36,5.98-.36,8.93,0,1.08,.58,1.73,1.08,2.09,1.08,.65,1.15,.86,1.15,1.3,0,.29-.36,.79-1.08,1.01-1.3,.36-3.74,.94-6.55,1.66-3.17,.86-7.92,1.37-10.15,1.37-7.99,0-14.83-2.52-19.15-6.48-3.31-3.17-7.42-9-7.42-17.79,0-6.55,2.38-12.96,8.06-17.93,4.54-4.03,11.59-6.48,18.65-6.48,5.11,0,9,.86,12.03,1.51Z"/><path class="d" d="M37.73,448.63c1.58,.36,3.46,.36,5.04,0,.22-.07,.72,.36,.65,.79-.29,3.31,.14,6.34,.29,9.72,.07,1.01-.29,1.73-.72,1.73-.5,0-.86-.79-1.08-2.09-.43-1.94-1.87-4.9-4.54-6.77-2.02-1.51-6.19-2.74-10.51-2.66-12.1,.07-18.22,9.14-18.22,21.03,0,12.6,7.56,24.19,20.59,24.19,3.46,0,5.76-.65,6.62-1.73,.94-1.08,1.51-2.81,1.51-6.62,0-1.94-.07-4.18-.29-5.76-.36-2.09-1.58-2.81-5.83-3.38-1.08-.22-1.66-.5-1.66-1.01,0-.43,.79-.72,1.87-.65,2.52,0,4.68,.29,7.63,.29,2.52,0,5.26-.29,6.7-.29,1.3,0,1.37,.43,1.37,.79,0,.43-.65,.72-1.3,.94-1.37,.36-1.66,1.01-1.8,2.02-.36,2.3-.29,4.46-.29,6.62,0,3.96,.22,5.54,1.51,6.26,.36,.29,.72,.5,.72,.79,0,.36-.36,.65-1.01,.86-2.02,.36-4.75,1.08-6.62,1.51-2.38,.5-6.91,1.3-9.58,1.3-9.5,0-16.71-3.24-21.24-7.63-3.53-3.38-6.84-8.64-6.84-16.99,0-7.92,4.54-14.98,9.94-18.94,4.61-3.53,10.8-5.4,18.22-5.4,3.02,0,6.55,.58,8.86,1.08Z"/><path class="d" d="M128.61,448.63c1.58,.43,2.66,.5,3.46,.5,.72,0,1.73-.22,1.94-.22,.36,0,1.15,1.51,.65,2.23-2.52,3.46-3.67,6.05-4.39,8.5-.29,.94-1.01,1.58-1.66,1.58-.86,0-1.15-1.22-.94-2.59,.29-2.23,1.01-3.1-.36-5.04-1.3-1.8-5.26-3.38-8.28-3.38-4.9,0-9.79,1.94-13.75,5.98-4.97,4.97-7.99,12.82-7.99,19.37,0,2.74,.79,6.77,2.45,9.43,2.23,3.53,6.62,5.98,10.51,5.98,1.66,0,4.68-.5,6.98-4.75,1.3-2.45,2.66-6.48,3.17-9.14,.58-3.24-2.09-3.17-5.4-3.96-1.15-.29-1.58-1.15-1.58-1.73s.79-1.01,1.73-1.01c2.59,0,6.12,.36,9.14,.36,2.74,0,6.91-.43,7.49-.43,.79,0,1.51,1.15,1.51,1.94,0,.36-.79,.58-1.73,.79-2.95,.72-3.53,1.73-3.74,2.52-.72,2.67-3.17,11.02-4.1,13.9-.14,.5-.65,1.58-1.8,2.02-4.9,1.66-8.57,2.3-12.89,2.3-12.6,0-19.8-8.5-19.8-18.87,0-6.26,3.89-17.14,13.25-22.97,4.82-3.02,9.58-4.61,17.5-4.61,2.45,0,6.41,.79,8.64,1.3Z"/><path class="d" d="M216.38,448.92c1.08,.29,2.45,.14,3.38-.07,.72-.14,1.22-.43,1.58-.43,.29,0,.72,1.01,.29,1.51-1.94,2.45-4.03,6.62-4.75,9.65-.29,1.08-.58,1.8-1.01,1.8-.65,0-1.01-.72-1.01-2.3,.14-2.38,.65-4.39-.07-5.69-1.08-2.09-4.1-3.82-8.28-3.82-6.62,0-11.81,3.89-15.55,7.85-5.18,5.62-8.42,14.33-8.42,21.46,0,8.28,3.74,15.77,13.46,15.77,1.66,0,2.45-.43,3.53-1.22,.58-.36,.94-.79,1.3-1.3,1.22-2.09,2.95-6.91,4.1-10.94,.79-2.81,.65-4.54-4.03-4.9-1.15-.07-2.45-.36-2.45-1.01s1.37-.94,2.52-.94c1.66,0,3.96,.22,7.34,.22,3.82,0,6.34-.65,7.99-.65,1.37,0,1.8,.36,1.8,.86,0,.58-.72,.86-1.87,1.08-2.74,.65-3.31,1.58-4.25,3.53-.65,1.58-1.8,4.39-2.45,6.7-.58,2.16-1.22,4.68-1.37,6.55,0,.29-1.3,1.37-2.02,1.51-2.88,.79-7.34,2.52-11.81,2.52-14.62,0-19.15-9.65-19.15-18.51,0-5.18,2.3-14.04,8.71-20.81,5.83-6.12,13.83-9.65,23.4-9.65,3.82,0,7.56,.79,9.07,1.22Z"/><path class="d" d="M46.23,148.72c1.01,.22,1.73-.07,2.52-.36,.58-.22,1.01-.5,1.3-.5,.43,0,.58,.86,.07,1.73-.86,1.44-2.38,4.54-3.17,8.86-.29,1.3-.86,1.73-1.08,1.73-.5,0-.79-.65-.65-2.3,.07-1.3,.07-3.17-.65-4.68-1.37-2.74-4.75-4.39-9.15-4.39-6.77,0-13.68,3.89-17.21,7.85-5.62,6.48-8.5,14.18-8.5,22.32,0,5.26,1.8,9.36,4.75,12.03,3.31,2.74,6.98,3.24,9.5,3.24,1.66,0,5.33-1.01,6.84-3.74,1.44-2.23,3.31-9.07,4.03-12.31,.36-1.58-.43-2.52-3.38-2.88-.86-.14-1.73-.5-1.73-.86,0-.43,.43-.72,1.8-.72,2.09,0,5.47,.22,7.49,.22,2.23,0,5.18-.22,6.12-.22,.65,0,1.51,.14,1.51,.58,0,.5-.65,.79-1.8,1.08-1.8,.36-2.59,.65-3.82,4.1-.5,1.51-1.58,4.61-2.3,7.27-.65,2.02-.94,3.38-.86,4.46,.07,.29-.22,.79-1.01,1.01-1.22,.36-1.87,.58-3.02,1.08-3.82,1.58-8.71,2.88-13.03,2.88-10.3,0-18.15-6.77-18.15-18.07s6.41-20.31,12.6-24.55c6.34-4.61,12.46-6.34,20.81-6.34,4.9,0,8.57,1.01,10.15,1.51Z"/><path class="d" d="M128.6,149.95c.86,.29,1.37,.07,2.02-.22,.43-.29,.86-.58,1.15-.58,.22,0,.36,.58-.14,1.51-1.15,1.94-2.16,4.61-2.95,7.42-.22,.86-.29,1.22-.65,1.22-.29,0-.58-.29-.43-1.37,.36-2.38,.14-3.6-.79-5.11-1.37-2.23-4.54-3.24-8.64-3.24-6.19,0-12.75,3.74-16.2,7.78-5.11,6.05-7.56,13.68-7.56,20.52,0,5.47,1.51,9.36,3.96,11.88,2.3,2.3,5.54,3.53,8.78,3.53,3.02,0,5.4-.86,6.77-3.53,1.37-2.45,3.46-10.37,3.89-12.24,.29-1.73-.86-2.52-3.82-2.81-1.8-.14-1.94-1.15,0-1.15s5.04,.14,6.98,.14c2.09,0,4.97-.22,5.83-.22,2.09,0,1.44,.86-.14,1.15-1.73,.43-2.38,.72-3.6,4.1-.58,1.58-1.51,4.68-2.09,7.2-.43,1.87-.72,3.6-.72,4.46,0,.58-.22,.72-2.45,1.73-5.4,1.94-9.65,2.52-13.32,2.52-8.86,0-16.42-6.77-16.42-17.64s5.9-18.65,11.59-22.83c5.98-4.32,12.17-5.83,19.01-5.83,4.61,0,8.14,1.08,9.94,1.58Z"/><path class="d" d="M209.4,148.8c1.51,.43,2.66,.5,3.74,.58,.65,.07,1.22,.65,1.51,1.51,.43,1.87,1.58,5.62,1.58,8.5,0,.94-.58,2.52-1.66,2.52-.72,0-1.22-.36-2.16-2.02-.94-1.8-1.73-3.6-3.53-5.18-3.38-3.02-7.7-3.96-10.3-3.96-10.37,0-14.91,9.5-14.91,18.58,0,11.67,7.13,20.31,16.49,20.31,.86,0,3.17-.36,4.18-1.15,.72-.43,1.37-2.81,1.37-4.82,0-2.74-.07-5.76-.14-6.7-.14-1.3-.58-2.3-3.24-2.88-2.52-.58-3.24-1.3-3.24-2.23,0-.58,.86-1.51,2.81-1.51s4.03,.36,6.41,.36c2.16,0,8.14-.36,9.58-.36,1.73,0,2.45,.65,2.45,1.51s-1.22,1.58-2.3,1.94c-2.45,.86-2.38,2.02-2.45,2.95-.14,1.66-.14,3.31-.14,4.75,0,2.23,.07,3.89,.22,4.97,.07,.5,.22,1.08,.22,1.8,0,.29-.79,1.22-1.01,1.3-1.3,.65-2.66,1.51-5.76,2.3-2.81,.79-6.19,1.44-9.72,1.44-11.31,0-18.29-3.67-22.68-9.22-3.17-3.96-4.46-9.14-4.46-13.97,0-7.63,3.31-13.25,9-17.5,4.18-3.24,11.38-5.47,17.86-5.47,4.61,0,7.27,.86,10.3,1.66Z"/><path class="d" d="M296.45,149.44c1.15,.29,2.59,.5,3.24,.5,.29,0,.79,.72,.86,1.73,.07,2.09,1.08,5.76,1.08,8.64,0,.94-.43,1.8-1.22,1.8-.36,0-.94-.79-1.37-1.87-.5-1.37-1.66-3.67-2.74-5.04-1.58-1.87-5.76-4.9-11.52-4.9-10.87,0-17.28,9.72-17.28,20.95,0,5.04,.94,9.36,3.02,12.96,3.1,5.54,8.79,9.36,15.19,9.36,.86,0,2.95-.36,4.61-1.44,.79-.58,1.44-2.59,1.44-5.04s-.07-5.54-.29-6.41c-.43-1.66-1.01-3.1-5.76-3.53-1.08-.07-2.02-.72-2.02-1.37,0-.5,.94-1.01,2.38-1.01,2.66,0,6.7,.29,8.64,.29,1.73,0,5.69-.43,8.35-.43,1.37,0,1.94,.5,1.94,1.08,0,.43-.79,1.08-1.66,1.37-2.45,.65-2.38,1.51-2.52,2.52-.14,.86-.36,5.98-.36,8.93,0,1.01,.29,1.3,1.15,2.16,.58,.43,.79,.72,.79,1.22,0,.36-.58,.94-1.08,1.08-1.22,.36-3.67,1.01-6.55,1.58-3.1,.65-8.86,1.44-10.66,1.44-7.78,0-14.98-2.38-19.3-6.34-3.31-3.17-7.42-8.35-7.42-17.86,0-7.34,3.02-13.03,7.99-17.35,4.54-4.03,11.88-6.55,19.3-6.55,4.9,0,8.93,.79,11.74,1.51Z"/><path class="d" d="M38.74,522.56c1.3,.29,2.95,.07,4.25-.07,.22-.07,.65,.36,.65,1.08-.22,3.1,.14,6.26,.22,10.08,0,.79-.36,1.58-.94,1.58-.36,0-.86-1.01-1.08-1.94-.72-3.46-2.81-6.19-5.54-7.92-1.94-1.3-5.04-2.23-8.71-2.16-11.16,0-16.71,8.79-16.71,21.1,0,10.8,6.7,23.26,17.86,23.26,2.16,0,3.53-.58,4.46-1.3,1.01-.86,1.8-2.3,1.8-6.41,0-2.38-.07-5.18-.29-6.48-.36-2.16-1.3-2.74-5.47-3.46-.86-.14-1.8-.43-1.8-1.08,0-.36,.79-.79,2.02-.79,2.66,0,5.33,.29,8.64,.29,3.6,0,4.97-.29,7.78-.29,1.08,0,1.58,.29,1.58,.86,0,.65-1.01,.94-1.51,1.08-1.51,.36-2.02,1.37-2.09,2.38-.29,2.16-.29,4.75-.29,6.62,0,4.18,.43,5.11,1.44,5.83,.29,.29,.72,.72,.72,.94s-.5,.72-1.01,.94c-1.37,.36-4.25,1.01-6.84,1.58-2.88,.65-7.63,1.3-9.5,1.3-9.43,0-16.35-2.88-20.59-6.84-3.24-3.24-7.13-8.42-7.13-17.43,0-7.56,3.46-13.68,8.28-17.71,4.39-3.82,11.31-6.26,19.66-6.26,3.67,0,8.06,.79,10.15,1.22Z"/><path class="d" d="M121.41,521.69c1.94,.5,3.74,1.15,4.82,1.51,.43,.07,.65,.94,.72,1.51,.22,1.15,.72,5.33,.86,6.26,.14,1.01-.22,1.44-.43,1.44-.36,0-.65-.29-.94-1.3-1.73-5.33-6.41-9.36-13.9-9.36-4.03,0-8.14,1.58-11.31,5.18-3.46,3.74-5.69,10.15-5.69,17.21,0,8.64,3.74,14.83,7.42,18.15,2.95,2.74,5.9,3.96,9.22,3.96,1.44,0,4.18-.58,6.05-2.38,.36-.5,.86-1.73,.94-3.74,.07-1.22,.29-6.41,.07-8.5-.22-2.38-1.08-3.17-3.82-3.74-.72-.07-1.51-.29-1.51-.65,0-.43,.58-.58,1.87-.58,2.52,0,4.39,.29,8.28,.29,1.73,0,5.11-.22,5.54-.22,.94,0,1.44,.22,1.44,.43,0,.5-.65,.79-1.73,1.01-1.44,.36-1.8,1.15-1.8,4.9,0,4.82,.29,7.85,.29,8.78s.07,1.44-.5,1.73c-1.22,.58-2.45,1.01-3.82,1.58-3.17,1.22-8.14,2.45-11.31,2.45-7.34,0-13.9-2.52-18-5.98-5.18-4.54-7.78-10.58-7.78-17.14,0-7.56,3.1-13.83,9.79-18.94,3.17-2.38,8.28-5.04,16.49-5.04,3.53,0,6.55,.65,8.71,1.15Z"/><path class="d" d="M215.09,522.27c1.58,.43,2.3,.58,3.1,.58,.72,0,2.16-.22,2.38-.22,.43,0,1.3,1.3,.79,2.02-2.52,3.38-3.82,6.48-4.54,8.86-.29,.94-1.15,1.73-1.94,1.73-.86,0-1.15-1.51-1.08-2.45,.07-2.16,.72-3.6-.5-5.26-1.22-1.73-4.68-3.6-7.78-3.6-3.96,0-8.21,1.51-12.24,5.47-5.04,4.82-7.85,13.61-7.85,19.44,0,2.66,.79,7.78,2.59,10.15,2.02,2.66,4.9,4.61,7.99,4.61,1.3,0,3.74-.94,5.33-3.89,1.3-2.3,2.74-6.12,3.17-9.36,.5-3.17-1.8-3.02-5.11-3.82-1.15-.29-1.73-1.08-1.73-1.66,0-.72,1.08-1.3,2.02-1.3,2.52,0,7.56,.36,10.58,.36,2.66,0,7.56-.43,8.14-.43,.94,0,1.73,1.22,1.73,2.16,0,.36-.72,.72-1.66,.94-3.02,.72-3.6,1.58-4.1,2.81-.65,2.02-3.24,10.58-3.96,12.89-.14,.65-.58,1.51-1.94,2.09-4.82,1.58-9,2.3-13.25,2.3-12.46,0-20.31-7.92-20.31-18.51,0-6.34,3.53-16.78,12.82-22.61,5.4-3.38,11.45-4.82,17.93-4.82,3.02,0,6.98,.72,9.43,1.51Z"/><path class="d" d="M44.07,222.73c1.08,.29,2.09-.07,3.17-.36,.72-.14,1.15-.29,1.51-.29,.29,0,.79,1.08,.43,1.66-2.02,2.3-4.03,7.06-4.54,9.58-.22,1.08-.5,1.8-.86,1.8-.65,0-1.37-.72-1.37-2.23,.07-2.45,.43-4.1-.36-5.62-1.08-2.09-4.03-3.6-7.42-3.6-5.47,0-9.86,2.59-14.47,7.34-5.33,5.54-8.57,14.04-8.57,21.46s2.95,15.12,11.88,15.12c1.08,0,1.8-.36,2.66-.86,.72-.36,1.01-.79,1.51-1.66,1.3-1.87,2.88-6.91,4.1-10.94,.58-2.23,.58-3.82-4.32-4.32-1.08-.14-2.09-.58-2.09-1.22,0-.5,1.15-.94,2.3-.94,2.88,0,4.82,.29,8.21,.29,3.82,0,6.48-.72,8.71-.72,1.44,0,1.94,.43,1.94,.94-.07,.5-.79,.86-1.87,1.15-2.95,.79-3.31,1.73-4.32,3.67-.72,1.58-1.51,4.03-2.16,6.26-.58,2.16-1.15,4.39-1.3,6.19,0,.22-1.37,1.51-2.38,1.8-2.74,.65-7.7,2.59-12.89,2.59-13.75,0-19.3-7.71-19.3-18.15,0-6.34,2.88-14.62,8.64-20.59,5.9-6.12,14.19-9.5,23.91-9.5,3.46,0,7.27,.65,9.22,1.15Z"/><path class="d" d="M132.2,222.51c.94,.29,2.02-.29,2.59-.58,.5-.29,.79-.5,1.22-.5,.5,0,.43,1.01-.07,1.8-.86,1.44-2.45,4.82-3.24,9.14-.29,1.01-.72,1.73-.94,1.73-.5,0-1.01-.65-.94-2.09,.14-1.73,0-3.67-.65-5.18-1.01-2.16-4.1-4.46-8.78-4.46-6.62,0-12.17,3.67-15.7,7.56-5.47,6.34-8.06,14.76-8.06,22.11,0,5.11,1.66,9.65,4.25,12.1,2.23,2.02,4.75,3.1,7.42,3.1,1.3,0,3.89-.86,5.26-3.24,1.37-2.23,3.38-9.22,4.03-12.46,.29-1.8-.07-2.74-3.02-3.17-.86-.22-1.8-.5-1.8-1.01s.43-.79,2.02-.79c2.02,0,5.47,.29,7.49,.29,2.16,0,6.84-.29,7.78-.29,.65,0,1.51,.22,1.51,.72s-.65,.86-1.8,1.08c-1.87,.36-2.59,.94-3.82,4.32-.5,1.44-1.51,4.61-2.23,7.13-.58,2.02-1.01,3.74-.94,4.75,.07,.29-.36,.86-1.01,1.01-1.73,.43-2.95,.86-4.54,1.37-3.6,1.37-7.56,2.16-11.23,2.16-10.08,0-18.65-6.41-18.65-18.07s6.41-20.09,12.46-24.34c6.26-4.46,13.1-5.9,20.74-5.9,4.82,0,8.93,1.01,10.66,1.73Z"/><path class="d" d="M215.23,223.52c.86,.22,1.3,0,2.16-.36,.36-.22,.72-.43,1.01-.43,.22,0,.36,.43-.22,1.44-.86,1.44-2.09,3.82-3.17,7.7-.22,.79-.43,1.37-.72,1.37-.36,0-.58-.5-.36-1.51,.29-1.87,.14-3.46-.65-4.97-1.37-3.02-5.47-3.74-8.35-3.74-5.98,0-11.67,3.38-14.98,7.27-5.4,6.34-7.71,14.33-7.71,21.46,0,5.76,1.51,9.79,3.89,12.1,1.94,1.87,4.32,2.74,7.06,2.74,1.66,0,3.82-.43,5.18-3.1,1.37-2.45,3.38-9.79,3.89-12.46,.43-2.09-.79-2.88-3.53-3.17-1.37-.14-2.16-1.22,.07-1.22,2.02,0,5.26,.29,7.2,.29,2.09,0,6.77-.29,7.63-.29,2.23,0,1.44,1.01-.07,1.3-1.94,.43-2.74,.65-3.96,4.1-.65,1.8-1.58,5.04-2.09,7.42-.36,1.94-.65,3.38-.65,4.25,0,.58,0,.72-2.3,1.66-5.4,2.02-9.5,2.52-13.25,2.52-9.94,0-17.57-6.84-17.57-17.71s5.9-18.43,11.74-22.61c5.98-4.25,12.1-5.76,19.37-5.76,4.61,0,8.35,1.15,10.37,1.73Z"/><path class="d" d="M295.66,222.22c1.51,.43,3.02,.65,3.96,.65,.5,0,1.3,.79,1.44,1.58,.43,1.94,1.44,5.62,1.44,8.5,0,1.08-.72,2.81-1.8,2.81-.72,0-1.22-.22-2.3-2.16-.94-1.73-1.66-3.67-3.46-5.26-3.74-3.31-8.14-3.82-10.08-3.82-10.01,0-13.54,9.5-13.54,17.93,0,11.88,6.77,20.16,15.05,20.16,.65,0,2.45-.43,3.24-1.01,.72-.5,1.01-2.95,1.01-4.61,0-2.74-.07-5.4-.14-6.34-.14-1.44-.43-2.66-3.1-3.31-2.45-.58-3.38-1.3-3.38-2.38,0-.65,.79-1.66,2.95-1.66,2.02,0,4.1,.36,6.48,.36,2.16,0,9.22-.36,10.66-.36,2.02,0,2.66,.79,2.66,1.66,0,1.01-1.37,1.8-2.3,2.16-2.52,.86-2.38,2.09-2.45,3.1-.14,1.66-.14,2.95-.14,4.32,0,1.8,.07,3.46,.22,4.61,.07,.5,.22,1.22,.22,2.09,0,.22-.86,1.3-1.01,1.37-.86,.65-2.66,1.58-5.69,2.45-2.81,.79-6.34,1.51-9.87,1.51-11.81,0-18.51-3.53-23.11-9.15-3.24-3.96-4.46-9.22-4.46-13.9,0-7.78,3.31-13.18,9-17.5,4.1-3.17,11.59-5.4,18.15-5.4,4.68,0,7.34,.79,10.37,1.58Z"/><path class="d" d="M289.28,526.12c1.01,.29,2.88,.5,3.46,.5,.36,0,.79,.79,.86,1.66,.14,2.3,1.15,6.05,1.15,9.07,0,.86-.5,1.87-1.37,1.87-.36,0-1.01-.86-1.37-1.94-.43-1.15-1.73-3.75-2.81-5.11-1.58-1.87-5.76-5.04-11.52-5.04-10.08,0-16.13,9.5-16.13,20.67,0,4.97,.79,9.22,2.88,12.89,2.81,5.11,7.92,9.07,14.11,9.07,.86,0,2.23-.29,3.67-1.3,1.01-.72,1.44-2.52,1.44-5.69,0-2.45-.07-4.97-.29-5.83-.43-1.66-1.01-3.17-5.4-3.6-1.08-.07-2.16-.79-2.16-1.44,0-.5,1.08-1.08,2.52-1.08,3.38,0,6.77,.29,8.71,.29,1.73,0,6.34-.43,9.22-.43,1.44,0,1.94,.58,1.94,1.15,0,.36-.79,1.15-1.66,1.37-2.59,.65-2.38,1.58-2.52,2.74-.07,.86-.36,5.9-.36,8.86,0,.94,.14,1.08,1.22,2.23,.22,.29,.58,.58,.58,1.15,0,.43-.65,1.01-1.08,1.15-1.22,.36-3.67,1.01-6.55,1.51-3.02,.58-9.5,1.51-10.95,1.51-7.63,0-15.12-2.3-19.37-6.19-3.38-3.17-7.42-8.06-7.42-18,0-7.78,3.38-13.03,7.92-16.99,4.54-4.03,12.1-6.55,19.66-6.55,4.75,0,8.86,.72,11.59,1.51Z"/><path class="d" d="M290.31,450.29c1.08,.22,2.59-.14,3.82-.14,.22,0,.65,.36,.65,1.3-.14,3.02,.14,6.19,.14,10.3,0,.72-.43,1.51-1.08,1.51-.29,0-.86-1.15-1.08-1.94-.94-4.32-3.31-6.84-6.12-8.5-1.94-1.15-4.39-1.94-7.63-1.94-10.66-.07-15.91,8.71-15.91,21.17,0,9.79,6.26,22.68,16.35,22.68,1.37,0,2.3-.43,3.24-1.01,1.08-.79,2.02-2.02,2.02-6.26,0-2.59-.14-5.69-.36-6.98-.36-2.16-1.15-2.67-5.33-3.38-.72-.14-1.8-.5-1.8-1.22,0-.29,.72-.79,2.02-.72,2.81,0,5.76,.29,9.22,.29,4.25,0,4.82-.29,8.42-.29,1.01,0,1.73,.22,1.73,.79,0,.79-1.15,1.08-1.66,1.22-1.58,.36-2.23,1.58-2.3,2.52-.22,2.16-.29,5.04-.29,6.7,0,4.25,.65,4.82,1.51,5.54,.22,.22,.72,.79,.72,.94,0,.22-.65,.86-1.01,1.01-1.01,.36-3.96,1.01-6.98,1.73-3.24,.72-8.06,1.22-9.5,1.22-9.43,0-16.06-2.66-20.09-6.41-3.24-3.1-7.42-8.28-7.42-17.57,0-7.42,2.88-12.96,7.34-17.07,4.25-3.96,11.59-6.84,20.52-6.84,4.03,0,8.93,.94,10.87,1.37Z"/><path class="d" d="M289.87,375.06c1.94,.5,3.6,1.08,4.75,1.44,.43,.07,.65,.94,.72,1.44,.29,1.3,.72,5.9,.86,6.91,.22,1.01-.14,1.44-.36,1.44-.36,0-.72-.36-1.01-1.37-1.58-5.33-6.48-9.72-13.9-9.72-3.6,0-7.34,1.44-10.44,5.04-3.46,3.74-5.62,10.3-5.62,17.14,0,8.64,3.46,14.69,7.06,18.15,2.88,2.66,5.33,3.82,8.5,3.82,.72,0,3.24-.29,5.11-2.16,.29-.29,.86-1.51,.94-3.67,0-1.15,.29-6.48,.07-8.57-.29-2.3-1.15-3.1-3.74-3.67-.72-.14-1.58-.29-1.58-.72,0-.5,.72-.58,1.94-.65,2.88,0,4.75,.36,9.07,.36,1.51,0,5.54-.29,5.98-.29,1.08,0,1.51,.29,1.51,.5,0,.5-.5,.79-1.87,1.08-1.58,.29-1.87,1.22-1.87,4.97,0,5.4,.29,7.78,.29,8.64,0,.94,.07,1.44-.5,1.73-1.37,.65-2.59,1.08-3.96,1.58-3.1,1.08-8.57,2.3-11.52,2.3-7.13,0-13.97-2.45-17.86-5.76-5.26-4.61-7.85-10.66-7.85-17.14,0-7.56,3.24-13.9,9.86-18.94,3.1-2.38,8.5-5.04,16.42-5.04,3.53,0,6.62,.65,9,1.15Z"/><path class="d" d="M43.13,296.08c1.51,.5,2.09,.58,2.81,.58s2.45-.22,2.66-.22c.43,0,1.37,1.22,.86,1.94-2.45,3.38-3.89,6.7-4.61,9.07-.29,.94-1.22,1.8-2.16,1.8-.86,0-1.15-1.73-1.15-2.3-.07-2.16,.58-3.89-.5-5.4-1.22-1.73-4.39-3.82-7.49-3.82-3.38,0-7.27,1.37-11.38,5.26-5.04,4.75-7.78,14.04-7.78,19.44,0,2.59,.79,8.42,2.66,10.58,1.94,2.16,3.96,3.74,6.48,3.74,1.08,0,3.17-1.15,4.39-3.31s2.74-5.91,3.17-9.5c.36-3.17-1.73-2.88-4.97-3.67-1.15-.29-1.8-1.08-1.8-1.66,0-.79,1.22-1.51,2.16-1.51,2.52,0,8.5,.43,11.45,.43,2.66,0,7.99-.43,8.57-.43,1.01,0,1.8,1.22,1.8,2.23,0,.43-.65,.86-1.58,1.08-3.1,.65-3.6,1.44-4.25,2.95-.65,1.66-3.31,10.37-3.89,12.31-.22,.72-.58,1.44-2.02,2.09-4.82,1.51-9.29,2.3-13.54,2.3-12.39,0-20.67-7.56-20.67-18.29,0-6.41,3.38-16.49,12.6-22.32,5.76-3.67,12.6-5.04,18.22-5.04,3.38,0,7.27,.72,9.94,1.66Z"/><path class="d" d="M129.9,296.37c1.08,.29,1.94-.14,3.1-.5,.72-.22,1.08-.29,1.44-.29,.29,0,.86,1.15,.5,1.8-2.09,2.23-4.03,7.34-4.39,9.5-.14,1.08-.43,1.8-.72,1.8-.65,0-1.66-.65-1.66-2.16,0-2.45,.36-3.96-.5-5.62-1.08-2.09-4.03-3.46-6.91-3.46-4.75,0-8.64,1.87-13.75,7.06-5.4,5.47-8.64,13.9-8.64,21.53,0,6.98,2.38,14.69,10.87,14.69,.65,0,1.37-.36,2.09-.72,.79-.36,1.08-.72,1.73-1.8,1.22-1.8,2.81-6.91,4.03-10.95,.43-1.87,.58-3.46-4.46-4.03-1.08-.14-1.94-.65-1.94-1.3,0-.43,1.08-.94,2.23-.94,3.6,0,5.4,.29,8.78,.29,3.74,0,6.55-.72,9.15-.72,1.44,0,1.94,.5,1.94,.94,0,.5-.72,.86-1.8,1.22-3.1,.94-3.38,1.87-4.39,3.82-.79,1.58-1.37,3.74-2.02,5.98-.5,2.16-1.01,4.1-1.22,5.98,0,.14-1.37,1.58-2.59,1.87-2.66,.65-7.85,2.66-13.54,2.66-13.25,0-19.44-6.48-19.44-17.93,0-7.06,3.24-14.91,8.64-20.45,5.9-6.05,14.4-9.36,24.27-9.36,3.17,0,7.06,.5,9.22,1.08Z"/><path class="d" d="M218.18,296.22c.86,.36,2.16-.5,2.59-.79,.5-.29,.65-.43,1.22-.43,.5,0,.29,1.08-.22,1.87-.86,1.44-2.52,5.04-3.31,9.29-.22,.86-.58,1.8-.86,1.8-.5,0-1.15-.72-1.08-2.02,.14-2.02-.07-4.03-.65-5.47-.79-1.8-3.67-4.54-8.57-4.54-6.55,0-11.31,3.6-14.83,7.49-5.4,6.26-7.7,15.05-7.7,21.96,0,4.97,1.44,9.79,3.82,12.17,1.66,1.58,3.53,2.88,6.26,2.88,1.15,0,3.02-.65,4.32-2.95,1.3-2.23,3.46-9.22,4.03-12.46,.29-1.94,.14-2.81-2.81-3.38-.79-.22-1.87-.5-1.87-1.08,0-.5,.5-.86,2.16-.86,2.02,0,5.47,.36,7.49,.36,2.16,0,7.85-.36,8.78-.36,.65,0,1.44,.29,1.44,.86,0,.5-.58,.94-1.73,1.08-1.94,.36-2.59,1.15-3.82,4.46-.5,1.44-1.44,4.54-2.23,7.06-.5,2.02-1.01,3.82-.94,4.9,.07,.29-.5,.79-1.01,1.01-2.09,.36-3.6,.94-5.33,1.51-3.6,1.15-6.98,1.73-10.23,1.73-10.08,0-19.08-6.19-19.08-18.07s6.48-19.95,12.46-24.12c6.19-4.46,13.54-5.83,20.67-5.83,4.75,0,9.14,1.01,11.02,1.94Z"/><path class="d" d="M301.57,297.09c.79,.14,1.22,0,2.23-.43,.29-.14,.58-.36,.86-.36,.22,0,.43,.43-.22,1.37-.72,1.15-2.09,3.46-3.31,7.92-.22,.79-.5,1.44-.79,1.44-.43,0-.58-.58-.36-1.58,.29-1.66,.22-3.31-.5-4.82-1.44-3.46-5.98-4.1-8.14-4.1-5.98,0-11.09,3.24-14.4,6.99-5.54,6.48-7.78,14.69-7.78,21.96,0,5.98,1.51,10.01,3.89,12.31,1.8,1.58,3.67,2.3,6.12,2.3,.86,0,2.95-.29,4.32-2.88,1.3-2.45,3.24-9.5,3.89-12.6,.43-2.3-.72-3.02-3.38-3.38-1.15-.07-2.3-1.22,0-1.22,2.09,0,5.47,.29,7.42,.29,2.09,0,7.78-.22,8.71-.22,2.16,0,1.44,1.08-.14,1.3-2.02,.43-2.88,.58-4.1,4.1-.72,1.94-1.73,5.26-2.09,7.56-.36,1.94-.58,3.24-.58,4.1,0,.58,.07,.72-2.3,1.58-5.4,2.09-9.43,2.59-13.1,2.59-10.66,0-18.29-6.98-18.29-17.86s5.9-18.15,11.74-22.39c5.98-4.25,12.1-5.76,19.66-5.76,4.54,0,8.42,1.15,10.66,1.8Z"/></g></g></g></svg>