<?xml version="1.0" encoding="UTF-8"?><svg xmlns="http://www.w3.org/2000/svg" xmlns:xlink="http://www.w3.org/1999/xlink" viewBox="0 0 258.6 595.18"><defs><style>.k{fill:none;}.l{fill:#0030ca;}.m,.n,.o,.p{fill:#fff;}.q{fill:url(#g);}.q,.r,.s,.t{stroke:#fff;}.q,.r,.s,.t,.n,.o,.p{stroke-miterlimit:10;}.r{fill:url(#d);}.s{fill:url(#h);}.t{fill:url(#j);}.n{stroke:url(#f);}.o{stroke:url(#i);}.p{stroke:url(#e);}</style><pattern id="d" x="0" y="0" width="111.15" height="111.15" patternTransform="translate(-2799.74 -4530.47) scale(.76)" patternUnits="userSpaceOnUse" viewBox="0 0 111.15 111.15"><g><rect class="k" x="0" y="0" width="111.15" height="111.15"/><rect class="l" x="0" y="0" width="111.15" height="111.15"/></g></pattern><pattern id="e" patternTransform="translate(-1110.24 -2408.91)" xlink:href="#d"/><pattern id="f" patternTransform="translate(-1014.16 -2373.76)" xlink:href="#d"/><pattern id="g" patternTransform="translate(-1011.18 -2470.8)" xlink:href="#d"/><pattern id="h" patternTransform="translate(-1152.75 -2464.56)" xlink:href="#d"/><pattern id="i" patternTransform="translate(-3976.96 -5187.19) scale(.63)" xlink:href="#d"/><pattern id="j" patternTransform="translate(-3897.03 -5167.65) scale(.63)" xlink:href="#d"/></defs><g id="a"/><g id="b"><g id="c"><g><path class="m" d="M108,4.42c4.02,.8,5.43,1.01,7.64,1.61,.8,0,2.41,1.61,2.41,4.83,.2,4.83,2.82,14.48,2.82,22.12,0,2.62-1.21,4.42-2.62,4.42-1.21,0-2.41-1.61-3.62-4.63-2.01-5.43-4.63-10.26-7.64-14.08-4.42-5.43-16.09-12.47-32.18-12.47-34.39,0-54.71,28.16-54.71,59.94,0,14.28,3.22,26.95,9.05,36.6,10.66,18.1,29.97,27.76,48.67,27.76,2.41,0,12.47-1.21,18.1-4.83,1.61-1.01,4.22-7.84,4.22-10.46,0-7.04-.2-18.5-.6-20.92-1.41-4.63-3.02-8.45-18.1-9.45-3.02-.2-5.23-1.81-5.23-3.42,0-1.41,2.21-2.82,6.03-2.82,3.62,0,18.3,.8,24.13,.8,4.83,0,11.67-.8,18.1-.8,3.22,0,5.43,1,5.43,2.61,0,1.41-2.21,2.61-4.63,3.42-6.03,1.81-6.44,4.02-7.24,6.24-.8,2.21-1,16.69-1,24.94,0,3.22,1.81,5.23,2.82,5.83,3.62,2.01,3.42,2.61,3.42,3.62,0,.8-.8,2.21-3.02,2.82-3.62,1.01-10.46,2.62-18.3,4.83-8.65,2.41-21.12,3.62-27.75,3.62-22.53,0-41.23-7.24-53.5-18.3C11.46,109.41,0,92.92,0,68.79,0,50.88,6.23,32.58,22.73,18.1,35.4,6.84,54.71,0,74.22,0c14.68,0,25.34,2.61,33.79,4.42Z"/><path class="r" d="M138.29,104.64c3.51,4.91,4.68,9.59,4.68,19.42,0,9.13-.94,38.61-.94,41.18,0,10.76,7.49,11.7,9.36,11.7,.94,0,6.32-1.64,8.89-3.51,.7-.47,.94,0,1.4,.7,.7,.7,.7,2.11,.7,2.34,0,4.45-10.53,14.51-21.06,14.51-5.38,0-12.17-3.04-14.98-11.7,0-.23-.94-1.17-1.4-.94-8.66,6.08-18.72,10.06-21.06,10.76-2.57,.94-8.19,1.4-9.36,1.4-8.19,0-16.15-10.06-16.15-21.76,0-4.21,1.87-8.66,4.45-11.93,2.34-3.04,5.85-4.21,9.36-5.85,3.51-1.4,22.23-6.55,27.38-8.19,5.38-1.64,6.79-2.81,6.79-4.21,.23-2.11,.47-16.38,.47-19.19,0-5.85-6.79-15.68-18.25-15.68-4.91,0-7.96,1.4-9.59,2.57-1.4,.7-2.11,4.91-1.64,9.59,0,.7-.94,2.11-1.4,2.57-2.34,1.87-14.04,7.72-15.21,7.72-1.4,0-2.81-1.87-2.81-3.04,0-6.79,6.55-13.34,17.55-20.59,6.79-4.91,17.32-8.89,21.76-8.89,11.7,0,17.55,5.85,21.06,11Zm-15.44,69.73c1.4-.94,2.81-5.38,2.81-5.85,.47-5.62,.47-13.57,.47-18.25,0-.7-.94-1.87-1.87-1.87-6.55,0-17.78,3.98-24.1,7.02-2.34,1.64-4.68,3.28-4.68,8.89,0,10.3,9.83,14.04,14.74,14.04,3.51,0,8.19-1.64,12.64-3.98Z"/><path class="p" d="M70.6,267.99c4.68-1.87,15.21-7.96,17.78-9.59,.94-.7,1.4-.94,1.87-.94,1.17,.23,2.81,1.87,2.81,2.34,0,3.28-.94,9.83-.94,12.17,0,.7,.47,2.34,1.4,1.4,5.85-4.68,20.36-13.57,31.35-13.57,8.42,0,14.04,1.64,18.25,4.68s6.55,6.55,7.49,8.19c.47,.94,.94,1.4,1.87,.94,4.45-3.28,10.53-7.02,16.61-10.06,5.38-2.57,10.76-3.74,14.98-3.74,8.66,0,15.21,2.81,20.12,7.96,5.15,5.85,7.25,14.04,7.72,22.46,.94,12.17,.47,28.55,.47,47.73,.23,4.21,1.64,8.66,10.06,11,3.04,.94,4.45,1.87,4.45,3.28,0,1.64-2.11,2.57-6.55,2.57-4.68,0-11-.7-16.85-.7-7.02,0-10.53,.47-15.91,.47-4.45,0-5.85-1.4-5.85-3.04,0-1.4,2.57-2.34,5.15-3.04,7.49-2.34,8.42-5.15,8.42-13.34,0-5.62-.47-31.82-.47-39.54,0-8.19-1.4-11.47-3.74-15.68-2.81-4.45-7.96-8.19-17.78-8.19-10.53,0-14.74,4.45-18.02,7.25-.7,.7-2.34,5.15-2.34,6.79s-.47,45.86,0,51.01c.7,7.49,1.87,9.83,9.83,11.7,2.57,.7,4.91,2.11,4.91,3.28,0,1.64-1.87,2.81-5.62,2.81-5.15,0-12.17-.47-17.55-.47-4.91,0-11.7,.47-16.61,.47-5.38,0-6.08-1.87-6.08-2.81,0-.7,.94-2.34,4.68-3.28,7.96-1.87,8.89-4.21,8.89-12.64v-45.86c0-6.79-1.4-9.83-3.04-11.93-3.04-3.98-9.13-7.02-17.55-7.02-7.72,0-13.1,2.81-18.72,7.25-1.64,1.4-2.34,3.28-2.57,5.85-.47,6.08-.47,35.57-.47,53.35,0,4.45,.94,8.19,8.42,10.53,4.45,1.4,6.32,2.34,6.32,4.21,0,1.64-3.28,2.34-6.32,2.34-.94,0-9.59-.47-18.49-.47-7.72,0-12.4,.7-17.55,.7-3.51,0-5.85-.94-5.85-2.57,0-.94,1.4-2.57,5.62-3.51,7.49-1.87,8.89-5.38,9.83-15.44,.47-6.79,.7-30.19,.7-46.33,0-1.17,.47-4.21-1.64-6.32-6.55-6.08-8.19-7.25-8.19-8.42,0-1.4,2.11-2.81,4.68-4.21Z"/><path class="n" d="M122.08,370.52c3.98-1.4,12.4-4.45,15.68-6.79,2.34-1.4,4.45-2.57,5.62-2.57s2.34,2.57,2.34,3.51c0,3.98-.94,9.59-.94,11.7,0,1.17,1.17,.7,1.4,.7,9.36-6.32,21.53-12.87,31.36-12.87,11.47,0,18.02,5.15,21.29,8.89,5.15,6.08,8.19,16.85,8.19,28.55,0,4.45,.47,39.31,.7,42.59,.47,3.51,2.81,6.55,8.66,8.19,4.45,1.17,5.85,2.34,5.85,3.98s-3.28,2.57-7.02,2.57c-5.38,0-10.76-.47-17.32-.47-5.85,0-13.1,.47-16.15,.47-2.11,0-5.38-.94-5.38-2.81,0-1.64,2.57-3.04,5.38-3.98,5.62-2.11,6.79-3.98,7.25-11.7,.47-7.72,.7-36.04,.7-42.82,0-8.42-4.21-15.21-7.02-17.32-2.57-1.87-9.59-4.45-14.98-4.45-10.3,0-16.38,3.51-20.83,7.49-.7,.7-2.34,3.51-2.34,5.62,0,3.04,0,53.35,.23,56.16,.23,3.28,1.17,5.15,8.66,7.25,2.34,.7,4.21,2.11,4.21,3.51,0,1.64-2.57,2.81-5.85,2.81-2.81,0-9.36-.23-14.27-.23-8.66,0-15.44,.7-19.42,.7-3.51,0-6.08-.94-6.08-3.04,0-1.64,2.34-2.81,4.91-3.51,7.72-2.34,9.13-4.68,9.83-13.1,.7-7.02,1.17-27.38,1.17-51.25,0-2.57-.47-4.91-5.62-9.12-3.04-2.11-4.45-3.28-4.45-3.98,0-1.64,2.57-3.98,4.21-4.68Z"/><path class="q" d="M258.1,356.56c0,19.42-11.7,34.63-20.36,40.25-9.36,6.79-18.49,9.36-29.01,9.36s-22.46-4.91-31.12-12.17c-10.06-8.19-17.32-24.1-17.32-35.8,0-17.78,7.49-29.01,16.38-36.5,7.25-6.32,18.95-12.87,34.63-12.87,23.17,0,46.8,18.25,46.8,47.73Zm-66.45-33.93c-6.08,5.62-11.47,17.78-11.47,29.95,0,7.72,.94,14.98,2.81,20.83,5.85,17.55,19.19,25.97,30.42,25.97,2.57,0,7.72-1.17,14.27-7.72,5.85-6.32,10.53-20.83,10.53-30.89,0-12.17-2.81-25.5-11.7-35.8-5.15-5.62-13.57-9.13-19.66-9.13-4.91,0-10.3,2.57-15.21,6.79Z"/><path class="s" d="M156.18,496.4c.94,.23,1.64-1.4,1.87-2.57,1.17-6.32,.47-42.12-.23-47.74-.23-1.17-.23-3.98-11-9.59-2.11-1.17-2.34-1.64-2.34-2.11,0-.94,2.57-3.74,3.98-3.98,5.38-.7,17.78-4.21,23.87-6.55,1.4-.47,2.11-.7,3.04-.7,.7,0,2.11,1.64,1.87,3.74-1.17,12.4-2.11,20.83-2.11,92.43,0,45.16,.47,48.9,.47,53.35,.47,8.66,2.34,9.59,3.74,9.59,2.57,0,10.3-1.64,12.64-1.87,.94,0,1.4,1.17,1.4,1.4,0,1.64-2.81,5.62-3.98,5.85-4.45,.7-16.61,3.04-21.06,4.68-5.38,1.87-7.25,2.34-8.42,2.34-.94,0-2.57-1.87-2.57-3.04,0-2.11,.47-6.32,.47-9.59,0-.94-.94-1.4-1.4-1.4-10.76,9.59-22.7,11.7-30.42,11.7-11.23,0-22-5.15-29.25-12.87-7.49-8.42-11.23-20.36-11.23-32.06,0-22.93,13.34-36.27,24.8-43.05,10.76-6.55,24.57-8.89,30.89-8.89,8.42,0,12.17,.47,14.98,.94Zm-41.89,14.98c-4.45,4.45-9.83,16.38-9.83,29.48,0,18.72,13.1,40.25,33.23,40.25,7.49,0,12.87-2.57,17.08-5.62,.47-.47,3.51-7.96,3.74-15.44,.23-14.98,0-27.85-.7-38.84-.23-1.87-2.34-6.08-5.15-8.89-6.55-6.55-15.44-9.13-20.12-9.13-7.49,0-14.04,3.98-18.25,8.19Z"/><path class="o" d="M64.12,163.67c6.38-2.13,12.37-5.03,14.3-6.19,2.32-1.55,3.29-2.32,3.87-2.32,.77,0,1.74,1.74,1.74,2.32,0,3.48-.39,6.96-.39,10.63,0,.77,.97,.97,1.35,.77,7.54-7.15,16.04-11.98,22.03-11.98,7.92,0,9.66,4.83,9.66,6.57,0,.39-.58,1.74-1.16,2.71-2.13,3.09-6.76,8.31-7.92,8.89-.39,.19-2.13-.19-2.71-.58-2.13-1.93-6.77-4.25-10.63-4.25-3.29,0-6.57,.58-8.5,2.71-1.35,1.55-1.93,3.29-1.93,4.25,0,3.87,.97,38.85,1.16,41.75,.39,5.61,1.55,9.28,5.03,9.86,2.51,.58,5.99,1.55,8.89,2.32,3.09,.97,3.48,2.32,3.48,3.09,0,.97-1.74,1.74-4.64,1.74-4.83,0-11.6-.97-22.81-.97-5.8,0-8.12,.77-12.76,.77-2.13,0-4.06-.77-4.06-2.32,0-1.16,2.32-1.93,3.87-2.51,7.54-2.51,8.12-4.45,8.31-16.04v-36.92c0-1.93,0-4.45-2.13-5.8-4.64-3.67-6.57-4.45-6.57-5.22,0-.58,.39-2.51,2.51-3.29Z"/><path class="t" d="M105.99,210.89c3.51,4.91,4.68,9.59,4.68,19.42,0,9.13-.94,38.61-.94,41.18,0,10.76,7.49,11.7,9.36,11.7,.94,0,6.32-1.64,8.89-3.51,.7-.47,.94,0,1.4,.7,.7,.7,.7,2.11,.7,2.34,0,4.45-10.53,14.51-21.06,14.51-5.38,0-12.17-3.04-14.98-11.7,0-.23-.94-1.17-1.4-.94-8.66,6.08-18.72,10.06-21.06,10.76-2.57,.94-8.19,1.4-9.36,1.4-8.19,0-16.15-10.06-16.15-21.76,0-4.21,1.87-8.66,4.45-11.93,2.34-3.04,5.85-4.21,9.36-5.85,3.51-1.4,22.23-6.55,27.38-8.19,5.38-1.64,6.79-2.81,6.79-4.21,.23-2.11,.47-16.38,.47-19.19,0-5.85-6.79-15.68-18.25-15.68-4.91,0-7.96,1.4-9.59,2.57-1.4,.7-2.11,4.91-1.64,9.59,0,.7-.94,2.11-1.4,2.57-2.34,1.87-14.04,7.72-15.21,7.72-1.4,0-2.81-1.87-2.81-3.04,0-6.79,6.55-13.34,17.55-20.59,6.79-4.91,17.32-8.89,21.76-8.89,11.7,0,17.55,5.85,21.06,11Zm-15.44,69.73c1.4-.94,2.81-5.38,2.81-5.85,.47-5.62,.47-13.57,.47-18.25,0-.7-.94-1.87-1.87-1.87-6.55,0-17.78,3.98-24.1,7.02-2.34,1.64-4.68,3.28-4.68,8.89,0,10.3,9.83,14.04,14.74,14.04,3.51,0,8.19-1.64,12.64-3.98Z"/></g></g></g></svg>