<svg xmlns="http://www.w3.org/2000/svg" viewBox="0 0 306.16 511"><g id="Calque_2" data-name="Calque 2"><g id="Calque_1-2" data-name="Calque 1"><path d="M305.5.5V0H0V511H131.78V454.33H306.16V.5ZM43.59,510H1V454.32H43.59Zm0-56.66H1V397.65H43.59Zm0-56.67H1V341H43.59Zm0-56.66H1V284.32H43.59Zm0-56.67H1V227.66H43.59Zm0-56.66H1V171H43.59Zm0-56.67H1V114.33H43.59Zm0-56.66H1V57.66H43.59Zm0-56.67H1V1H43.59ZM87.19,510H44.59V454.32h42.6Zm0-56.66H44.59V397.65h42.6Zm0-56.67H44.59V341h42.6Zm0-56.66H44.59V284.32h42.6Zm0-56.67H44.59V227.66h42.6Zm0-56.66H44.59V171h42.6Zm0-56.67H44.59V114.33h42.6Zm0-56.66H44.59V57.66h42.6Zm0-56.67H44.59V1h42.6ZM130.78,510H88.19V454.32h42.59Zm0-56.66H88.19V397.65h42.59Zm0-56.67H88.19V341h42.59Zm0-56.66H88.19V284.32h42.59Zm0-56.67H88.19V227.66h42.59Zm0-56.66H88.19V171h42.59Zm0-56.67H88.19V114.33h42.59Zm0-56.66H88.19V57.66h42.59Zm0-56.67H88.19V1h42.59Zm43.59,396.66H131.78V397.65h42.59Zm0-56.67H131.78V341h42.59Zm0-56.66H131.78V284.32h42.59Zm0-56.67H131.78V227.66h42.59Zm0-56.66H131.78V171h42.59Zm0-56.67H131.78V114.33h42.59Zm0-56.66H131.78V57.66h42.59Zm0-56.67H131.78V1h42.59ZM218,453.32h-42.6V397.65H218Zm0-56.67h-42.6V341H218ZM218,340h-42.6V284.32H218Zm0-56.67h-42.6V227.66H218Zm0-56.66h-42.6V171H218ZM218,170h-42.6V114.33H218Zm0-56.66h-42.6V57.66H218Zm0-56.67h-42.6V1H218Zm43.59,396.66H219V397.65h42.59Zm0-56.67H219V341h42.59Zm0-56.66H219V284.32h42.59Zm0-56.67H219V227.66h42.59Zm0-56.66H219V171h42.59Zm0-56.67H219V114.33h42.59Zm0-56.66H219V57.66h42.59Zm0-56.67H219V1h42.59Zm43.6,396.66h-42.6V397.65h42.6Zm0-56.67h-42.6V341h42.6Zm0-56.66h-42.6V284.32h42.6Zm0-56.67h-42.6V227.66h42.6Zm0-56.66h-42.6V171h42.6Zm0-56.67h-42.6V114.33h42.6Zm0-56.66h-42.6V57.66h42.6Zm0-56.67h-42.6V1h42.6Z" style="fill:#fff"/><path d="M20.59,8.23H24.5L31,26.43H28.21L26,20.06H19.11L16.9,26.43H14.14Zm4.58,9.33-2.24-6.45-.18-1.35h-.39l-.18,1.35-2.24,6.45Z" style="fill:#0f9"/><path d="M17.88,48.73a3.83,3.83,0,0,1,0-5,5.16,5.16,0,0,1,3.46-1.25l3.51-.2v-1c0-1.48-.91-2.45-2.84-2.45-2.75,0-2.78,2.11-2.78,2.37v.13H16.65V41.2c0-.31,0-4.58,5.36-4.58,3.51,0,5.28,1.75,5.28,4.66v8.19H24.74l.6-3.38H25c-.63,2.52-2,3.74-4.32,3.74A3.81,3.81,0,0,1,17.88,48.73Zm2-1.54a1.94,1.94,0,0,0,1.38.47,3.68,3.68,0,0,0,3.59-3.48l-3.15.31a2.79,2.79,0,0,0-1.79.65,1.37,1.37,0,0,0-.42,1.06,1.34,1.34,0,0,0,.36,1Z" style="fill:#0f9"/><path d="M60.27,8.23H66.5c2.44,0,4.24.93,5.12,2.49a4.78,4.78,0,0,1,.6,2.4,4.27,4.27,0,0,1-.55,2.21,3.84,3.84,0,0,1-3,1.79v.44a3.84,3.84,0,0,1,3,1.79,4.27,4.27,0,0,1,.55,2.21,4.64,4.64,0,0,1-.6,2.39c-.88,1.56-2.68,2.5-5.12,2.5H60.27Zm6,7.93a3.27,3.27,0,0,0,3-1.25,2.74,2.74,0,0,0,.37-1.48A2.93,2.93,0,0,0,69.3,12c-.52-.86-1.53-1.25-3-1.25H62.87v5.46Zm0,7.8c1.46,0,2.47-.39,3-1.25a2.93,2.93,0,0,0,.34-1.48,2.74,2.74,0,0,0-.37-1.48,3.21,3.21,0,0,0-3-1.25H62.87V24Z" style="fill:#0f9"/><path d="M62.33,46.05h-.39l.65,3.38H60.12V31.23h2.47V37l-.65,3.38h.39c.7-2.47,2.29-3.75,4.57-3.75a5.31,5.31,0,0,1,4.53,2.32,8.64,8.64,0,0,1,0,8.58,5.32,5.32,0,0,1-4.53,2.31C64.62,49.79,63,48.56,62.33,46.05Zm1,.1a3.74,3.74,0,0,0,5.88,0,5.88,5.88,0,0,0,0-5.93,3.74,3.74,0,0,0-5.88,0A5.88,5.88,0,0,0,63.33,46.15Z" style="fill:#0f9"/><path d="M101.4,21.07a11.45,11.45,0,0,1,0-7.49,8.7,8.7,0,0,1,8.45-5.74c4.55,0,8,2.75,8.21,6.89h-2.65c-.28-2.63-2.52-4.42-5.54-4.42a6.11,6.11,0,0,0-5.9,4.21,8.59,8.59,0,0,0,0,5.62,6.08,6.08,0,0,0,5.8,4.21c3,0,5-1.74,5.36-4.42h2.65c-.34,4-3.41,6.89-8.17,6.89A8.59,8.59,0,0,1,101.4,21.07Z" style="fill:#0f9"/><path d="M104.72,47.45a7.18,7.18,0,0,1-1.14-4.18,7.5,7.5,0,0,1,1.2-4.32,5.78,5.78,0,0,1,5-2.37c3.25,0,5.59,2,5.67,4.92H113a3,3,0,0,0-3.2-2.71,3.31,3.31,0,0,0-2.84,1.38,5.36,5.36,0,0,0-.8,3.07,5.2,5.2,0,0,0,.78,3,3.15,3.15,0,0,0,2.73,1.35,2.84,2.84,0,0,0,3.06-2.6.34.34,0,0,0,0-.1h2.47c-.08,2.94-2.34,4.91-5.62,4.91A5.6,5.6,0,0,1,104.72,47.45Z" style="fill:#0f9"/><path d="M146,8.23h6.37c4.11,0,7.18,2,8.4,5.46a11.22,11.22,0,0,1,.57,3.64,10.5,10.5,0,0,1-.6,3.69c-1.22,3.43-4.26,5.41-8.37,5.41H146ZM152.62,24a5.61,5.61,0,0,0,5.51-3.85,7.53,7.53,0,0,0,.47-2.78,7.65,7.65,0,0,0-.49-2.84,5.58,5.58,0,0,0-5.49-3.79h-4V24Z" style="fill:#0f9"/><path d="M147.5,47.48a8.64,8.64,0,0,1,0-8.58A5.3,5.3,0,0,1,152,36.58c2.29,0,3.88,1.28,4.58,3.75H157L156.34,37V31.23h2.47v18.2h-2.47l.65-3.38h-.39c-.7,2.47-2.29,3.74-4.58,3.74A5.29,5.29,0,0,1,147.5,47.48Zm2.21-1.33a3.74,3.74,0,0,0,5.88,0,5.88,5.88,0,0,0,0-5.93,3.74,3.74,0,0,0-5.88,0A5.83,5.83,0,0,0,149.71,46.15Z" style="fill:#0f9"/><path d="M191.76,8.23h10.61V10.7h-8v5.35h7.75v2.51h-7.75V24h8v2.47H191.76Z" style="fill:#0f9"/><path d="M191.93,47.45a7.11,7.11,0,0,1-1.15-4.18A7.45,7.45,0,0,1,192.06,39a5.55,5.55,0,0,1,4.73-2.37c3.67,0,5.77,2.32,5.77,6.27v1h-9.2a4.76,4.76,0,0,0,.75,2.34A3.26,3.26,0,0,0,197,47.54a3,3,0,0,0,3-1.92h2.48A5.33,5.33,0,0,1,197,49.75,5.64,5.64,0,0,1,191.93,47.45Zm8-5.59a2.88,2.88,0,0,0-2.62-3.12,4.17,4.17,0,0,0-.5,0,3.3,3.3,0,0,0-2.7,1.41,4.42,4.42,0,0,0-.66,1.71Z" style="fill:#0f9"/><path d="M235.74,8.23h10.61V10.7h-8v5.35h7.49v2.51h-7.49v7.91h-2.6Z" style="fill:#0f9"/><path d="M242.64,30.84c2.74,0,4.16,1.43,4.16,4.13v.13h-2.46V35c0-1.3-.6-2-1.7-2s-1.82.8-1.82,2.15V37h4.68v2.21h-4.69V49.43h-2.47V39.16h-2.59V37h2.59v-1.8a4.06,4.06,0,0,1,3.79-4.31A4.34,4.34,0,0,1,242.64,30.84Z" style="fill:#0f9"/><path d="M275.67,21.33a12.11,12.11,0,0,1-.65-4,11.25,11.25,0,0,1,.62-3.77,8.7,8.7,0,0,1,8.53-5.74c4.6,0,7.85,2.83,8.14,6.81h-2.65c-.34-2.65-2.52-4.34-5.46-4.34a6.13,6.13,0,0,0-6,4.21,8.28,8.28,0,0,0-.47,2.83,9,9,0,0,0,.47,3.05,5.69,5.69,0,0,0,5.54,3.95,5.24,5.24,0,0,0,5.46-4.89h-5.7V17h8.19v9.41h-2.6l.67-4.24h-.39a5.9,5.9,0,0,1-6,4.63A8.08,8.08,0,0,1,275.67,21.33Z" style="fill:#0f9"/><path d="M277.55,49.43H280c.16,1.77,1.25,2.78,3.39,2.78a3.3,3.3,0,0,0,3.51-3.64v-.29l.85-3.4h-.39c-.75,2.73-2.36,3.77-4.31,3.77a5.16,5.16,0,0,1-4.42-2.19,7.26,7.26,0,0,1,0-7.69,5.16,5.16,0,0,1,4.42-2.19c1.95,0,3.56,1,4.31,3.77h.39l-.85-3.4h2.46V47.74c0,4.44-2,6.68-6,6.68C279.69,54.42,277.74,52.65,277.55,49.43Zm3.28-4.24a3.42,3.42,0,0,0,4.8.61,3.52,3.52,0,0,0,.61-.61,4.92,4.92,0,0,0,0-5.15,3.43,3.43,0,0,0-5.41,0A4.92,4.92,0,0,0,280.83,45.19Z" style="fill:#0f9"/><path d="M26.75,75.19H17.84V83.1h-2.6V64.89h2.6v7.83h8.91V64.89h2.6V83.1h-2.6Z" style="fill:#0f9"/><path d="M16.94,87.89h2.47v5.73L18.76,97h.39c.75-2.47,2.23-3.75,4.29-3.75,3,0,4.47,1.82,4.47,5.25v7.6H25.44V98.76c0-2.13-.93-3.22-2.73-3.22-2,0-3.3,1.56-3.3,4.06v6.5H16.94Z" style="fill:#0f9"/><path d="M64.59,64.89h2.6V83.1h-2.6Z" style="fill:#0f9"/><path d="M64.5,88.62h2.81v3.07H64.5Zm.15,5h2.47V106.1H64.65Z" style="fill:#0f9"/><path d="M103.24,77.35V73.76h2.6v3.59c0,2.68,1.07,3.67,3.1,3.67s3-1.3,3-4.11v-12h2.6v12c0,4.31-1.92,6.58-5.61,6.58S103.24,81.46,103.24,77.35Z" style="fill:#0f9"/><path d="M103.22,107.56h2.47a1.24,1.24,0,0,0,1.16,1.33.81.81,0,0,0,.22,0c.91,0,1.4-.68,1.4-1.92V93.62h2.47v12.87c0,3.06-1.3,4.6-3.93,4.6C104.59,111.09,103.35,109.81,103.22,107.56Zm5.09-19h2.81v3.07h-2.81Z" style="fill:#0f9"/><path d="M147.23,64.89h2.6v8.9L149,75.56h.39L158,64.89h3.12l-6.84,8.38L161,83.1h-3.28l-5.23-7.91-2.62,3.15V83.1h-2.6Z" style="fill:#0f9"/><path d="M148.5,87.89H151v10.9l-.83,1.58h.36l6.32-6.75h3l-5.18,5.56,5,6.92h-3.07l-3.75-5.28-1.92,2v3.23h-2.4Z" style="fill:#0f9"/><path d="M192.21,64.89h2.6V80.63h8V83.1h-10.6Z" style="fill:#0f9"/><path d="M195.44,87.89h2.47V106.1h-2.47Z" style="fill:#0f9"/><path d="M230.68,64.89h4.24l4.92,14.67.23,1.77h.43l.24-1.77,4.91-14.62h4.24V83.15H247.3V66.71h-.39l-.29,2.94L242.05,83.1H238.5l-4.58-13.45-.29-2.94h-.39V83.1h-2.55Z" style="fill:#0f9"/><path d="M231.34,93.62h2.47L233.16,97h.39c.65-2.4,1.84-3.75,3.92-3.75A3.41,3.41,0,0,1,241,96.59c0,.14,0,.27,0,.41h.39c.65-2.76,2.16-3.75,4-3.75,2.68,0,4.11,1.69,4.11,4.94v7.91H247V98.69c0-2.06-.81-3.15-2.37-3.15-1.92,0-3,1.53-3,3.95v6.61h-2.47V98.69c0-2.06-1-3.15-2.42-3.15-1.92,0-2.93,1.53-2.93,3.95v6.61H231.3Z" style="fill:#0f9"/><path d="M276.8,64.89h4.08l6.37,13.29.68,3.1h.39V64.89h2.6V83.1h-4.08L280.5,69.81l-.68-3.1h-.39V83.1h-2.6Z" style="fill:#0f9"/><path d="M278.5,93.62H281L280.32,97h.39c.76-2.47,2.19-3.75,4.24-3.75,3,0,4.53,1.82,4.53,5.25v7.6H287V98.76c0-2.13-.94-3.22-2.73-3.22-2,0-3.31,1.56-3.31,4.06v6.5H278.5Z" style="fill:#0f9"/><path d="M13.69,134.41a11.45,11.45,0,0,1,0-7.49,8.75,8.75,0,0,1,8.61-5.75,8.76,8.76,0,0,1,8.6,5.75,11.45,11.45,0,0,1,0,7.49,8.68,8.68,0,0,1-8.58,5.74A8.76,8.76,0,0,1,13.69,134.41Zm2.57-.94a6.43,6.43,0,0,0,12.07,0,8.59,8.59,0,0,0,0-5.62,6.43,6.43,0,0,0-12.07,0A8.86,8.86,0,0,0,16.26,133.47Z" style="fill:#0f9"/><path d="M17,160.5a7.46,7.46,0,0,1,0-8,6.63,6.63,0,0,1,9.27-1.28,6.47,6.47,0,0,1,1.28,1.28,7.46,7.46,0,0,1,0,8,6.61,6.61,0,0,1-10.55,0Zm2.18-1.17a3.81,3.81,0,0,0,6.19,0,5.45,5.45,0,0,0,0-5.62,3.82,3.82,0,0,0-5.33-.86,3.9,3.9,0,0,0-.86.86A5.45,5.45,0,0,0,19.2,159.33Z" style="fill:#0f9"/><path d="M60.81,121.56h6.47a5.57,5.57,0,0,1,5.1,2.52,6,6,0,0,1,0,5.52,5.57,5.57,0,0,1-5.1,2.54H63.41v7.62h-2.6Zm6.47,8.11a3,3,0,0,0,2.73-1.3,2.91,2.91,0,0,0,.39-1.53A3,3,0,0,0,70,125.3,3,3,0,0,0,67.28,124H63.41v5.64Z" style="fill:#0f9"/><path d="M60.12,150.28h2.47l-.65,3.38h.39c.7-2.47,2.29-3.74,4.57-3.74a5.32,5.32,0,0,1,4.53,2.31,8.64,8.64,0,0,1,0,8.58,5.31,5.31,0,0,1-4.53,2.32c-2.28,0-3.87-1.28-4.57-3.75h-.39l.65,3.38v4.68H60.12Zm3.22,9.21a3.74,3.74,0,0,0,5.88,0,5.88,5.88,0,0,0,0-5.93,3.74,3.74,0,0,0-5.88,0A5.88,5.88,0,0,0,63.34,159.49Z" style="fill:#0f9"/><path d="M100.88,126.92a9.31,9.31,0,0,1,17.21,0,11.58,11.58,0,0,1,0,7.49,8.57,8.57,0,0,1-7.23,5.66V141h4.73v2.47H111.9c-2.21,0-3.46-.78-3.46-3.17v-.18a8.61,8.61,0,0,1-7.56-5.69,11.45,11.45,0,0,1,0-7.49Zm14.62,6.55a8.86,8.86,0,0,0,0-5.62,6.43,6.43,0,0,0-12.07,0,8.59,8.59,0,0,0,0,5.62,6.43,6.43,0,0,0,12.07,0Z" style="fill:#0f9"/><path d="M112.79,162.76l.65-3.38h-.39c-.71,2.47-2.29,3.75-4.58,3.75a5.3,5.3,0,0,1-4.52-2.32,8.59,8.59,0,0,1,0-8.58,5.29,5.29,0,0,1,4.52-2.31c2.29,0,3.87,1.27,4.58,3.74h.39l-.65-3.38h2.47v17.16h-2.47Zm-6.63-3.27a3.74,3.74,0,0,0,5.24.63,3.42,3.42,0,0,0,.63-.63,5.83,5.83,0,0,0,0-5.93,3.74,3.74,0,0,0-5.24-.63,3.42,3.42,0,0,0-.63.63A5.83,5.83,0,0,0,106.16,159.49Z" style="fill:#0f9"/><path d="M147.55,121.56h6.24c2.6,0,4.45.73,5.36,2.31a5.53,5.53,0,0,1,.65,2.76,4.74,4.74,0,0,1-.6,2.47c-.86,1.48-2.73,2.19-5.07,2.26v.39l.65.37,5,7.64H156.5l-5.2-8.11h-1.15v8.11h-2.6Zm6.61,7.75a2.82,2.82,0,0,0,2.62-1.2,2.73,2.73,0,0,0,.37-1.45,2.51,2.51,0,0,0-2.36-2.67,2.3,2.3,0,0,0-.64,0h-4v5.28Z" style="fill:#0f9"/><path d="M149.06,150.28h2.44l-.73,3.59h.42c.49-2.65,1.9-4,3.74-4,2.37,0,3.49,1.53,3.49,4.08v2.56h-2.58v-1.7c0-1.82-.62-2.6-1.92-2.6-1.59,0-2.42,1.35-2.42,3.87v6.63H149Z" style="fill:#0f9"/><path d="M190.07,134.28v-.52h2.78v.31c0,2.39,1.35,3.64,3.72,3.64a3.5,3.5,0,0,0,3.25-1.48,3,3,0,0,0,.36-1.43,2.31,2.31,0,0,0-.28-1.18A3.93,3.93,0,0,0,197,132l-2-.36a5.63,5.63,0,0,1-4.16-2.53,4.84,4.84,0,0,1-.59-2.44A5.58,5.58,0,0,1,191,124c1-1.76,3.07-2.83,5.77-2.83,3.87,0,6.4,2.21,6.4,5.8v.52h-2.79v-.31c0-2.34-1.35-3.56-3.71-3.56a3.5,3.5,0,0,0-3.25,1.48,2.75,2.75,0,0,0-.37,1.43,2.28,2.28,0,0,0,.29,1.17,3.84,3.84,0,0,0,2.86,1.56l2,.39a5.65,5.65,0,0,1,4.16,2.55,4.85,4.85,0,0,1,.6,2.44,5.56,5.56,0,0,1-.68,2.73c-1,1.77-3.09,2.78-5.8,2.78C192.59,140.15,190.07,137.92,190.07,134.28Z" style="fill:#0f9"/><path d="M191.65,158.84v-.19h2.47v.19c0,1.48.86,2.21,2.53,2.21a2.5,2.5,0,0,0,1.84-.58,1.4,1.4,0,0,0,.42-1c0-.88-.5-1.43-1.82-1.69l-1.69-.34c-2.37-.47-3.56-1.66-3.56-3.69a3.42,3.42,0,0,1,1-2.55,5.36,5.36,0,0,1,3.85-1.27c3.07,0,4.89,1.66,4.89,4.31v.16h-2.47v-.16c0-1.45-.83-2.23-2.52-2.23a2.53,2.53,0,0,0-1.85.57,1.45,1.45,0,0,0-.41,1c0,.86.59,1.38,1.76,1.61l1.64.34c2.52.52,3.67,1.66,3.67,3.74a3.42,3.42,0,0,1-1,2.55,5.34,5.34,0,0,1-3.82,1.28C193.5,163.13,191.65,161.56,191.65,158.84Z" style="fill:#0f9"/><path d="M239.23,124h-5.67v-2.47H247.5V124h-5.66v15.73h-2.6Z" style="fill:#0f9"/><path d="M237.18,158.76v-6.27h-2.59v-2.21h2.59v-2.36l2.47-1.23v3.59h5.6v2.21h-5.6v6.27c0,1.45.6,2.16,1.54,2.16,1.17,0,1.58-.73,1.58-2.53v-1.77h2.48v1.8c0,3-1.44,4.71-4,4.71C238.5,163.13,237.18,161.67,237.18,158.76Z" style="fill:#0f9"/><path d="M276.89,133.18V121.56h2.73v11.55c0,2.8,1.59,4.49,4.24,4.49s4.24-1.69,4.24-4.49V121.56h2.73v11.62c0,4.32-2.65,7-7,7S276.89,137.5,276.89,133.18Z" style="fill:#0f9"/><path d="M278.37,157.87v-7.59h2.47v7.33c0,2.14.89,3.23,2.6,3.23,1.95,0,3.18-1.56,3.18-4.06v-6.5h2.47v12.48h-2.47l.65-3.38h-.39c-.73,2.47-2.11,3.75-4.11,3.75C279.83,163.13,278.37,161.31,278.37,157.87Z" style="fill:#0f9"/><path d="M14.5,178.23h2.89l4.86,15.55.08,1.09h.39l.08-1.09,4.86-15.55h2.89l-5.93,18.2H20.5Z" style="fill:#0f9"/><path d="M16.2,207h2.68l3.3,10.16.08.76h.39l.07-.76L26,207H28.7l-4.29,12.48H20.5Z" style="fill:#0f9"/><path d="M54.27,178.23h2.8l3.33,15,.11,1.67h.39l.07-1.67,3-15h4.29l3,15,.08,1.67h.39l.11-1.67,3.32-15H78l-4.18,18.2h-4.4l-3-15.08v-1.3H66v1.3l-3,15.08H58.5Z" style="fill:#0f9"/><path d="M56.41,207H59l2.39,10v.91h.39V217L64,207h4l2.14,10v.91h.39V217l2.39-10H75.5l-3.28,12.48H68.5l-2.26-10.17v-.75h-.39v.75L63.5,219.43H59.69Z" style="fill:#0f9"/><path d="M108.16,187.25l-6.29-9h3.25l4.42,6.52.13,1h.39l.1-1,4.47-6.52h3.25l-6.32,9,6.32,9.18h-3.27l-4.37-6.63-.16-1h-.39l-.15,1-4.4,6.63h-3.27Z" style="fill:#0f9"/><path d="M107.9,213.16,103.5,207h3l2.78,4.18V212h.39v-.91l2.78-4.18h3l-4.37,6.21,4.37,6.27h-3l-2.78-4.11v-.88h-.39v.88l-2.78,4.11h-3Z" style="fill:#0f9"/><path d="M152.28,189.56l-6.39-11.36H149l4.29,8,.1,1h.39l.11-1,4.29-8h3.12l-6.43,11.36v6.84h-2.6Z" style="fill:#0f9"/><path d="M146.71,220.91v-.26h2.47v.26a1.25,1.25,0,0,0,1.14,1.35.89.89,0,0,0,.23,0c.84,0,1.46-.44,1.83-1.61l.78-2.39h-1.72L146.92,207h2.83l3.59,9.49h.39L156.8,207h2.83L155,220.31c-1.07,3.1-2.32,4.11-4.43,4.11C148.22,224.42,146.71,223.2,146.71,220.91Z" style="fill:#0f9"/><path d="M190.28,192.4l10.89-11.31v-.39H190.28v-2.47h13.05v4.33l-10.71,11V194h10.71v2.47H190.28Z" style="fill:#0f9"/><path d="M191.6,215.56l8-6v-.39h-8V207h10.14v3.9l-8,6v.39h8v2.21H191.6Z" style="fill:#0f9"/><path d="M238.56,178.23h3.94l6.45,18.2h-2.76L244,190.06h-6.89l-2.21,6.37h-2.76Zm4.58,9.36-2.24-6.45-.18-1.35h-.39l-.18,1.35-2.24,6.42Zm-1.92-13.65H244l-2.26,2.86h-2.42Z" style="fill:#0f9"/><path d="M235.85,218.73a3.83,3.83,0,0,1,0-5,5.16,5.16,0,0,1,3.46-1.25l3.51-.2v-1c0-1.48-.91-2.45-2.84-2.45-2.75,0-2.78,2.11-2.78,2.37v.13h-2.55v-.13c0-.31,0-4.58,5.36-4.58,3.51,0,5.28,1.75,5.28,4.66v8.19h-2.55l.6-3.38H243c-.63,2.52-2,3.74-4.32,3.74A3.8,3.8,0,0,1,235.85,218.73Zm2-1.54a1.94,1.94,0,0,0,1.38.47,3.68,3.68,0,0,0,3.59-3.48l-3.15.31a2.79,2.79,0,0,0-1.79.65,1.37,1.37,0,0,0-.42,1.06,1.34,1.34,0,0,0,.36,1ZM241,201.38h2.88l-2.54,3.9h-2.19Z" style="fill:#0f9"/><path d="M282.16,178.23h3.92l6.45,18.2h-2.75l-2.21-6.37h-6.89l-2.18,6.37h-2.76Zm.44-4.16c0,.67.7,1.17,1.56,1.17s1.56-.5,1.56-1.17h2.34c-.52,2-1.74,2.86-3.9,2.86s-3.38-.89-3.9-2.86Zm4.13,13.49-2.23-6.42-.18-1.35h-.39l-.19,1.35-2.24,6.42Z" style="fill:#0f9"/><path d="M279.44,218.73a3.85,3.85,0,0,1,0-5,5.16,5.16,0,0,1,3.46-1.25l3.51-.2v-1c0-1.48-.91-2.45-2.83-2.45-2.76,0-2.78,2.11-2.78,2.37v.13h-2.55v-.13c0-.31,0-4.58,5.35-4.58,3.52,0,5.28,1.75,5.28,4.66v8.19H286.3l.6-3.38h-.4c-.62,2.52-2,3.74-4.31,3.74A3.85,3.85,0,0,1,279.44,218.73Zm2.37-17.35a2,2,0,0,0,3.92.8,2.15,2.15,0,0,0,0-.8h2c0,2.66-1.74,3.85-4,3.85s-4-1.22-4-3.85Zm-.39,15.81a1.91,1.91,0,0,0,1.37.47,3.68,3.68,0,0,0,3.59-3.48l-3.14.31a2.82,2.82,0,0,0-1.8.65,1.39,1.39,0,0,0-.41,1.06,1.31,1.31,0,0,0,.39,1Z" style="fill:#0f9"/><path d="M20.59,234.89H24.5L31,253.09H28.21L26,246.72H19.11l-2.21,6.37H14.14Zm.57-4.29H24l3,2.86H24.26l-1.67-1.56-1.69,1.56H18.17Zm4,13.65-2.24-6.44-.18-1.36h-.39l-.18,1.36-2.24,6.44Z" style="fill:#0f9"/><path d="M17.88,275.39a3.8,3.8,0,0,1,0-5,5.11,5.11,0,0,1,3.46-1.25l3.51-.21v-1c0-1.48-.91-2.44-2.84-2.44-2.75,0-2.78,2.11-2.78,2.37V268H16.65v-.13c0-.32,0-4.58,5.36-4.58,3.51,0,5.28,1.74,5.28,4.65v8.19H24.74l.6-3.38H25c-.63,2.53-2,3.75-4.32,3.75A3.81,3.81,0,0,1,17.88,275.39Zm3.06-17.26h2.47L26.74,262H24.09l-1.9-2.5L20.27,262H17.59Zm-1.09,15.73a1.94,1.94,0,0,0,1.38.47,3.68,3.68,0,0,0,3.59-3.49l-3.15.31a2.93,2.93,0,0,0-1.79.65,1.42,1.42,0,0,0-.42,1.07A1.31,1.31,0,0,0,19.85,273.86Z" style="fill:#0f9"/><path d="M64.19,234.89h3.92l6.45,18.2H71.8l-2.21-6.37H62.7l-2.2,6.37H57.74Zm-2.11-4.33H65v2.88H62.08Zm6.68,13.67-2.26-6.42-.19-1.36h-.39l-.18,1.36-2.24,6.44Zm-1.43-13.67h2.94v2.88H67.33Z" style="fill:#0f9"/><path d="M61.5,275.39a3.83,3.83,0,0,1,0-5A5.11,5.11,0,0,1,65,269.14l3.51-.21v-1c0-1.48-.91-2.44-2.83-2.44-2.76,0-2.78,2.11-2.78,2.37V268H60.25v-.13c0-.32,0-4.58,5.35-4.58,3.51,0,5.28,1.74,5.28,4.65v8.19H68.33l.6-3.38H68.5c-.62,2.53-2,3.75-4.32,3.75A3.79,3.79,0,0,1,61.5,275.39ZM62,258.75h2.79v2.73H62Zm1.51,15.11a1.86,1.86,0,0,0,1.37.47,3.66,3.66,0,0,0,3.59-3.49l-3.15.31a2.93,2.93,0,0,0-1.79.65,1.42,1.42,0,0,0-.42,1.07A1.28,1.28,0,0,0,63.5,273.86Zm3.35-15.11h2.78v2.73H66.8Z" style="fill:#0f9"/><path d="M108,234.89H119.2v2.47H112v5.39h7v2.47h-7v5.4h7.23v2.47h-9.83v-6.63h-4.61l-3.19,6.63H98.73Zm1.41,9.23v-7.28H109l-.26,1.41-2.84,5.87Z" style="fill:#0f9"/><path d="M101,275.39a3.42,3.42,0,0,1-1-2.49,3.36,3.36,0,0,1,.94-2.55,5.16,5.16,0,0,1,3.46-1.25l3.51-.21v-1c0-1.48-.91-2.44-2.84-2.44-1.69,0-2.78.94-2.78,2.37V268H99.77v-.13c0-2.79,2.11-4.58,5.36-4.58,2.16,0,3.61.73,4.39,2a5.39,5.39,0,0,1,4.21-2c3.51,0,5.52,2.31,5.52,6.27v1H110.6a4.88,4.88,0,0,0,.76,2.34A3.14,3.14,0,0,0,114,274.2a2.74,2.74,0,0,0,2.78-1.93h2.47a5.11,5.11,0,0,1-5.2,4.14,5.61,5.61,0,0,1-4.89-2.34l-.21-.34c-.93,1.8-2.62,2.68-5.17,2.68A3.85,3.85,0,0,1,101,275.39Zm2-1.53a1.94,1.94,0,0,0,1.38.47,3.73,3.73,0,0,0,3.59-3.49l-3.15.31a2.93,2.93,0,0,0-1.79.65,1.42,1.42,0,0,0-.42,1.07,1.29,1.29,0,0,0,.37,1Zm13.6-5.3c-.07-2-1.09-3.12-2.86-3.12a2.93,2.93,0,0,0-2.39,1.22,4.6,4.6,0,0,0-.7,1.9Z" style="fill:#0f9"/><path d="M151.56,234.89h11.23v2.47h-7.23v5.39h7v2.47h-7v5.4h7.23v2.47H153v-6.63h-4.6l-3.2,6.63h-2.83Zm1.4,9.23v-7.28h-.39l-.26,1.41-2.81,5.87Zm4.16-13.56h2.81l-2.26,2.86h-2.42Z" style="fill:#0f9"/><path d="M144.63,275.39a3.83,3.83,0,0,1,0-5,5.21,5.21,0,0,1,3.46-1.25l3.51-.21v-1c0-1.48-.91-2.44-2.83-2.44-1.69,0-2.79.94-2.79,2.37V268h-2.54v-.13c0-2.79,2.1-4.58,5.35-4.58,2.16,0,3.62.73,4.4,2a5.39,5.39,0,0,1,4.21-2c3.51,0,5.51,2.31,5.51,6.27v1H154.2a4.76,4.76,0,0,0,.75,2.34,3.17,3.17,0,0,0,2.65,1.35,2.74,2.74,0,0,0,2.78-1.93h2.47a5.1,5.1,0,0,1-5.2,4.14,5.6,5.6,0,0,1-4.88-2.34l-.21-.34c-.94,1.8-2.63,2.68-5.18,2.68A3.81,3.81,0,0,1,144.63,275.39Zm2-1.53a1.94,1.94,0,0,0,1.38.47,3.73,3.73,0,0,0,3.59-3.49l-3.15.31a2.93,2.93,0,0,0-1.79.65,1.42,1.42,0,0,0-.42,1.07,1.34,1.34,0,0,0,.36,1Zm7.13-15.81h2.88L154.1,262h-2.19Zm6.5,10.48c-.08-2-1.09-3.12-2.86-3.12a2.9,2.9,0,0,0-2.39,1.22,4.62,4.62,0,0,0-.71,1.9Z" style="fill:#0f9"/><path d="M195,234.89h3.92l6.45,18.2h-2.75l-2.21-6.37H193.5l-2.21,6.37H188.5Zm1.3-4.29,1.87,2.86h-2.42l-2.57-2.9Zm3.28,13.65-2.24-6.44-.18-1.36h-.39l-.19,1.36-2.23,6.44Z" style="fill:#0f9"/><path d="M192.25,275.39a3.42,3.42,0,0,1-1-2.49,3.36,3.36,0,0,1,.94-2.55,5.06,5.06,0,0,1,3.45-1.25l3.51-.21v-1c0-1.48-.91-2.44-2.83-2.44-2.76,0-2.78,2.11-2.78,2.37V268H191v-.13c0-.32,0-4.58,5.36-4.58,3.51,0,5.27,1.74,5.27,4.65v8.19h-2.54l.59-3.38h-.39c-.62,2.53-2,3.75-4.31,3.75A3.82,3.82,0,0,1,192.25,275.39Zm3.59-17.34,1.82,3.9H195.5l-2.57-3.9Zm-1.61,15.81a1.94,1.94,0,0,0,1.38.47,3.66,3.66,0,0,0,3.58-3.49l-3.14.31a2.94,2.94,0,0,0-1.8.65,1.43,1.43,0,0,0-.41,1.07A1.31,1.31,0,0,0,194.23,273.86Z" style="fill:#0f9"/><path d="M238.56,234.89h3.94l6.45,18.2h-2.76L244,246.72h-6.89l-2.21,6.37h-2.76Zm-1.71-3.66h7.41v1.82h-7.41Zm6.29,13-2.24-6.44-.18-1.36h-.39l-.18,1.36-2.24,6.44Z" style="fill:#0f9"/><path d="M235.85,275.39a3.8,3.8,0,0,1,0-5,5.11,5.11,0,0,1,3.46-1.25l3.51-.21v-1c0-1.48-.91-2.44-2.84-2.44-2.75,0-2.78,2.11-2.78,2.37V268h-2.55v-.13c0-.32,0-4.58,5.36-4.58,3.51,0,5.28,1.74,5.28,4.65v8.19h-2.55l.6-3.38H243c-.63,2.53-2,3.75-4.32,3.75A3.8,3.8,0,0,1,235.85,275.39Zm.23-16.22h8.16v1.69h-8.16Zm1.74,14.69a1.94,1.94,0,0,0,1.38.47,3.68,3.68,0,0,0,3.59-3.49l-3.15.31a2.93,2.93,0,0,0-1.79.65,1.42,1.42,0,0,0-.42,1.07,1.31,1.31,0,0,0,.39,1Z" style="fill:#0f9"/><path d="M282.16,234.89h3.92l6.45,18.2h-1.14c-1.07.45-1.59.91-1.59,1.64S290.53,256,292,256v2.08c-3,0-4.42-1.3-4.42-2.84a2.89,2.89,0,0,1,2-2.6l-2-5.93h-6.89l-2.15,6.37h-2.76Zm4.57,9.36-2.23-6.44-.18-1.36h-.39l-.19,1.36-2.24,6.44Z" style="fill:#0f9"/><path d="M279.44,275.39a3.83,3.83,0,0,1,0-5,5.11,5.11,0,0,1,3.46-1.25l3.51-.21v-1c0-1.48-.91-2.44-2.83-2.44-2.76,0-2.78,2.11-2.78,2.37V268h-2.55v-.13c0-.32,0-4.58,5.35-4.58,3.52,0,5.28,1.74,5.28,4.65v8.19h-1.14c-1.07.45-1.59.91-1.59,1.64s.73,1.28,2.21,1.28v2.08c-3,0-4.42-1.3-4.42-2.84,0-1.27.91-2.23,2.5-2.81l.49-2.73h-.43c-.62,2.53-2,3.75-4.31,3.75A3.81,3.81,0,0,1,279.44,275.39Zm2-1.53a1.91,1.91,0,0,0,1.37.47,3.66,3.66,0,0,0,3.59-3.49l-3.14.31a2.94,2.94,0,0,0-1.8.65,1.43,1.43,0,0,0-.41,1.07,1.29,1.29,0,0,0,.37,1Z" style="fill:#0f9"/><path d="M20.59,291.56H24.5L31,309.76H28.21L26,303.39H19.11l-2.21,6.37H14.14Zm2-7a2.88,2.88,0,1,1-3,2.89,2.85,2.85,0,0,1,2.81-2.89ZM25.17,301l-2.24-6.45-.18-1.35h-.39l-.18,1.35L19.94,301Zm-2.58-12.22a1.65,1.65,0,1,1,0-.05h0Z" style="fill:#0f9"/><path d="M17.88,332.06a3.8,3.8,0,0,1,0-5,5.11,5.11,0,0,1,3.46-1.25l3.51-.21v-1c0-1.48-.91-2.44-2.84-2.44-2.75,0-2.78,2.1-2.78,2.36v.13H16.65v-.13c0-.31,0-4.57,5.36-4.57,3.51,0,5.28,1.74,5.28,4.65v8.19H24.74l.6-3.38H25c-.63,2.52-2,3.75-4.32,3.75A3.81,3.81,0,0,1,17.88,332.06Zm4.31-19.22a2.87,2.87,0,1,1-2.91,2.87A2.79,2.79,0,0,1,22,312.84Zm-2.34,17.72a1.89,1.89,0,0,0,1.38.46,3.67,3.67,0,0,0,3.59-3.46l-3.15.31a2.93,2.93,0,0,0-1.79.65,1.43,1.43,0,0,0-.38,1A1.31,1.31,0,0,0,19.85,330.56ZM22.19,317a1.3,1.3,0,1,0-1.27-1.33v0a1.23,1.23,0,0,0,1.2,1.26h.07Z" style="fill:#0f9"/><path d="M64.19,291.56h3.92l6.45,18.2H71.8l-2.21-6.37H62.7l-2.2,6.37H57.74Zm.28-4.29c1.43,0,2,1,3.43,1a1,1,0,0,0,1.16-.82,1.09,1.09,0,0,0,0-.18h1.77a2.71,2.71,0,0,1-2.52,2.87H67.9c-1.43,0-2-1-3.43-1a1.08,1.08,0,0,0-1.17,1v0H61.5A2.71,2.71,0,0,1,64,287.26a2.36,2.36,0,0,1,.46,0Zm4.29,13.65-2.26-6.45-.19-1.35h-.39l-.18,1.35-2.24,6.45Z" style="fill:#0f9"/><path d="M61.5,332.06a3.83,3.83,0,0,1,0-5A5.11,5.11,0,0,1,65,325.81l3.51-.21v-1c0-1.48-.91-2.44-2.83-2.44-2.76,0-2.78,2.1-2.78,2.36v.13H60.25v-.13c0-.31,0-4.57,5.35-4.57,3.51,0,5.28,1.74,5.28,4.65v8.19H68.33l.6-3.38H68.5c-.62,2.52-2,3.75-4.32,3.75A3.79,3.79,0,0,1,61.5,332.06Zm2.6-17c1.43,0,2,1,3.43,1,.63,0,1.17-.33,1.17-1h1.77A2.71,2.71,0,0,1,68,317.93h-.42c-1.43,0-2-1-3.43-1a1.08,1.08,0,0,0-1.17,1v0h-1.8a2.7,2.7,0,0,1,2.58-2.82h.36Zm-.6,15.5a1.86,1.86,0,0,0,1.37.46,3.65,3.65,0,0,0,3.59-3.48l-3.15.31a2.93,2.93,0,0,0-1.79.65,1.42,1.42,0,0,0-.42,1.07A1.32,1.32,0,0,0,63.5,330.56Z" style="fill:#0f9"/><path d="M101.4,304.41a11.45,11.45,0,0,1,0-7.49,8.67,8.67,0,0,1,8.45-5.75c4.55,0,8,2.76,8.21,6.89h-2.65c-.28-2.62-2.52-4.42-5.54-4.42a6.11,6.11,0,0,0-5.9,4.21,8.59,8.59,0,0,0,0,5.62,6.08,6.08,0,0,0,5.8,4.21c3,0,5-1.74,5.36-4.42h2.65c-.34,4.06-3.41,6.89-8.17,6.89A8.61,8.61,0,0,1,101.4,304.41Zm9.23-17.14h2.81l-2.27,2.86h-2.41Z" style="fill:#0f9"/><path d="M104.72,330.79a7.3,7.3,0,0,1-1.14-4.19,7.5,7.5,0,0,1,1.2-4.32,5.8,5.8,0,0,1,5-2.36c3.25,0,5.59,2,5.67,4.91H113a3,3,0,0,0-3.2-2.7,3.31,3.31,0,0,0-2.84,1.38,5.33,5.33,0,0,0-.8,3.06,5.2,5.2,0,0,0,.78,3,3.18,3.18,0,0,0,2.73,1.36,2.85,2.85,0,0,0,3.06-2.62.28.28,0,0,0,0-.09h2.47c-.08,2.94-2.34,4.92-5.62,4.92A5.6,5.6,0,0,1,104.72,330.79Zm5.83-16.07h2.89l-2.55,3.9H108.7Z" style="fill:#0f9"/><path d="M145,304.41a11.58,11.58,0,0,1,0-7.49,8.72,8.72,0,0,1,8.45-5.75c4.55,0,8,2.76,8.22,6.89H159c-.29-2.62-2.53-4.42-5.54-4.42a6.1,6.1,0,0,0-5.9,4.21,8.59,8.59,0,0,0,0,5.62,6.06,6.06,0,0,0,5.79,4.21c3,0,5-1.74,5.36-4.42h2.65c-.34,4.06-3.4,6.89-8.16,6.89A8.61,8.61,0,0,1,145,304.41Zm6.89-17.14,1.69,1.56,1.67-1.56H158l-3,2.86h-2.84l-3-2.86Z" style="fill:#0f9"/><path d="M148.32,330.79a7.3,7.3,0,0,1-1.14-4.19,7.51,7.51,0,0,1,1.19-4.32,5.8,5.8,0,0,1,5-2.36c3.25,0,5.59,2,5.67,4.91h-2.47a2.94,2.94,0,0,0-3.16-2.7h0a3.28,3.28,0,0,0-2.87,1.43,6.17,6.17,0,0,0,0,6.06A3.18,3.18,0,0,0,153.2,331a2.84,2.84,0,0,0,3.06-2.6.41.41,0,0,0,0-.11h2.47c-.08,2.94-2.34,4.92-5.61,4.92A5.6,5.6,0,0,1,148.32,330.79Zm3.09-16.07,1.93,2.57,1.9-2.57h2.65l-3.33,3.9h-2.47l-3.35-3.9Z" style="fill:#0f9"/><path d="M193.11,312h1.82c.13.93.62,1.22,1.22,1.22a.89.89,0,0,0,1-.77.41.41,0,0,0,0-.11.79.79,0,0,0-.78-.78l-.55-.76.19-.67a8.63,8.63,0,0,1-7.41-5.72,11.45,11.45,0,0,1,0-7.49,8.67,8.67,0,0,1,8.45-5.75c4.55,0,8,2.76,8.21,6.89H202.6c-.29-2.62-2.52-4.42-5.54-4.42a6.11,6.11,0,0,0-5.9,4.21,8.59,8.59,0,0,0,0,5.62,6.07,6.07,0,0,0,5.8,4.21c3,0,5-1.74,5.35-4.42H205c-.32,3.77-3,6.5-7.21,6.84l-.07.39a2,2,0,0,1,1.27,1.85,2.49,2.49,0,0,1-2.56,2.42h-.17a2.81,2.81,0,0,1-3.1-2.5A2.29,2.29,0,0,1,193.11,312Z" style="fill:#0f9"/><path d="M193,335h1.82c.13.93.63,1.22,1.23,1.22a.89.89,0,0,0,1-.77.41.41,0,0,0,0-.11.79.79,0,0,0-.78-.78l-.54-.76.21-.73a5.33,5.33,0,0,1-4-2.28,7.3,7.3,0,0,1-1.14-4.19,7.5,7.5,0,0,1,1.2-4.32,5.8,5.8,0,0,1,5-2.36c3.25,0,5.59,2,5.67,4.91h-2.47a3,3,0,0,0-3.2-2.7,3.31,3.31,0,0,0-2.84,1.38,5.31,5.31,0,0,0-.8,3.06,5.2,5.2,0,0,0,.78,3,3.18,3.18,0,0,0,2.73,1.36,2.85,2.85,0,0,0,3.06-2.62.28.28,0,0,0,0-.09h2.47a5,5,0,0,1-4.76,4.86l-.08.42a2,2,0,0,1,1.27,1.85,2.49,2.49,0,0,1-2.56,2.42h-.17a2.83,2.83,0,0,1-3.1-2.51C193,335.16,193,335.08,193,335Z" style="fill:#0f9"/><path d="M232.18,304.41a11.58,11.58,0,0,1,0-7.49,8.72,8.72,0,0,1,8.45-5.75c4.55,0,8,2.76,8.22,6.89h-2.66c-.28-2.62-2.52-4.42-5.53-4.42a6.12,6.12,0,0,0-5.91,4.21,8.86,8.86,0,0,0,0,5.62,6.08,6.08,0,0,0,5.8,4.21c3,0,5-1.74,5.36-4.42h2.65c-.34,4.06-3.41,6.89-8.16,6.89A8.61,8.61,0,0,1,232.18,304.41Zm7.15-17.14h2.83l3,2.86h-2.73l-1.67-1.57-1.69,1.56h-2.73Z" style="fill:#0f9"/><path d="M235.5,330.79a7.24,7.24,0,0,1-1.15-4.19,7.52,7.52,0,0,1,1.2-4.32,5.8,5.8,0,0,1,5-2.36c3.25,0,5.59,2,5.67,4.91h-2.47a2.94,2.94,0,0,0-3.16-2.7h0a3.29,3.29,0,0,0-2.83,1.38,6.17,6.17,0,0,0,0,6.06,3.18,3.18,0,0,0,2.73,1.36,2.84,2.84,0,0,0,3.06-2.6.41.41,0,0,0,0-.11H246c-.08,2.94-2.34,4.92-5.62,4.92A5.58,5.58,0,0,1,235.5,330.79Zm3.77-16h2.47l3.33,3.83h-2.66l-1.89-2.5-1.93,2.5h-2.68Z" style="fill:#0f9"/><path d="M275.77,304.41a11.58,11.58,0,0,1,0-7.49,8.72,8.72,0,0,1,8.45-5.75c4.55,0,8,2.76,8.22,6.89h-2.65c-.29-2.62-2.52-4.42-5.54-4.42a6.1,6.1,0,0,0-5.9,4.21,8.59,8.59,0,0,0,0,5.62,6.07,6.07,0,0,0,5.8,4.21c3,0,5-1.74,5.35-4.42h2.65c-.33,4.06-3.4,6.89-8.16,6.89A8.61,8.61,0,0,1,275.77,304.41Zm7.1-17.16h3v2.91h-3Z" style="fill:#0f9"/><path d="M279.1,330.79A7.3,7.3,0,0,1,278,326.6a7.51,7.51,0,0,1,1.19-4.32,5.8,5.8,0,0,1,5-2.36c3.25,0,5.59,2,5.66,4.91h-2.47a2.93,2.93,0,0,0-3.14-2.7h-.05a3.31,3.31,0,0,0-2.84,1.38,6.15,6.15,0,0,0,0,6.05,3.18,3.18,0,0,0,2.73,1.36,2.84,2.84,0,0,0,3.05-2.61.34.34,0,0,0,0-.1h2.47c-.07,2.94-2.34,4.92-5.61,4.92A5.62,5.62,0,0,1,279.1,330.79Zm3.62-15.5h2.78v3.07h-2.8Z" style="fill:#0f9"/><path d="M12.57,361a11.5,11.5,0,0,1-.57-3.64,11,11,0,0,1,.6-3.69c1.22-3.44,4.26-5.41,8.37-5.41H32.2v2.47H24.74v5.35h7.2v2.51h-7.2V364H32.2v2.47H21C16.86,366.43,13.79,364.43,12.57,361Zm2.65-.81a5.58,5.58,0,0,0,5.49,3.8h1.43V350.7H20.71a5.6,5.6,0,0,0-5.51,3.86,8.41,8.41,0,0,0,0,5.6Z" style="fill:#0f9"/><path d="M12.9,387.27a8,8,0,0,1,0-8.16,5.91,5.91,0,0,1,5-2.53,6,6,0,0,1,4.91,2.34,5.48,5.48,0,0,1,4.49-2.36c3.51,0,5.51,2.32,5.51,6.27v1H24.13a5,5,0,0,0,.75,2.34,3.16,3.16,0,0,0,2.62,1.39,2.74,2.74,0,0,0,2.79-1.92h2.47a5.11,5.11,0,0,1-5.2,4.13,5.57,5.57,0,0,1-4.78-2.21,6,6,0,0,1-4.84,2.23A6,6,0,0,1,12.9,387.27Zm2.18-1.17a3.5,3.5,0,0,0,5.72,0,6,6,0,0,0,0-5.82,3.49,3.49,0,0,0-5.72,0A6,6,0,0,0,15.08,386.1Zm15.08-4.24c-.08-2-1.09-3.12-2.86-3.12A2.9,2.9,0,0,0,24.91,380a4.6,4.6,0,0,0-.7,1.9Z" style="fill:#0f9"/><path d="M60.4,365.18,59,366.82H56.22l2.65-3a8.71,8.71,0,0,1-1.59-2.71,11.58,11.58,0,0,1,0-7.49,8.75,8.75,0,0,1,8.61-5.74,9.4,9.4,0,0,1,5.46,1.61l1.43-1.61H75.5l-2.63,3a8.88,8.88,0,0,1,1.63,2.68,11.58,11.58,0,0,1,0,7.49,8.69,8.69,0,0,1-8.58,5.75A9.42,9.42,0,0,1,60.4,365.18Zm-.54-5a7.56,7.56,0,0,0,.8,1.58l9-10.29a6.47,6.47,0,0,0-3.74-1.12,6.14,6.14,0,0,0-6,4.21,8.59,8.59,0,0,0,0,5.62Zm6,4.21a6.1,6.1,0,0,0,6-4.21,8.59,8.59,0,0,0,0-5.62A6.64,6.64,0,0,0,71,353l-9,10.29a6.32,6.32,0,0,0,3.86,1.11Z" style="fill:#0f9"/><path d="M62.28,388.8l-.81.94H59.26l1.74-2c-.13-.19-.26-.34-.39-.52a7.5,7.5,0,0,1,0-8,6.15,6.15,0,0,1,5.28-2.63,6.58,6.58,0,0,1,3.61,1l.84-1h2.21l-1.77,2.11c.13.16.26.34.39.52a7.5,7.5,0,0,1,0,8,6.14,6.14,0,0,1-5.28,2.62A6.6,6.6,0,0,1,62.28,388.8Zm.36-3.06L68,379.39a3.74,3.74,0,0,0-2.08-.6,3.63,3.63,0,0,0-3.09,1.59,4.93,4.93,0,0,0-.79,2.81A5.26,5.26,0,0,0,62.64,385.74Zm3.25,1.84A3.63,3.63,0,0,0,69,386a4.92,4.92,0,0,0,.78-2.81,5.15,5.15,0,0,0-.62-2.55L63.78,387a3.74,3.74,0,0,0,2.11.58Z" style="fill:#0f9"/><path d="M103.88,348.23h2.62v3.2h4a5.94,5.94,0,1,1,0,11.88h-4v3.2h-2.6Zm6.62,12.53a3.17,3.17,0,0,0,2.84-1.53,4.08,4.08,0,0,0,0-3.8,3.15,3.15,0,0,0-2.84-1.53h-4v6.86Z" style="fill:#0f9"/><path d="M105.92,386.05h-.42l.65,3.38v4.68h-2.47V371.23h2.47V377l-.65,3.38h.39c.7-2.47,2.29-3.75,4.58-3.75A5.3,5.3,0,0,1,115,378.9a8.59,8.59,0,0,1,0,8.58,5.29,5.29,0,0,1-4.52,2.31C108.21,389.79,106.62,388.56,105.92,386.05Zm1,.1a3.74,3.74,0,0,0,5.24.63,3.42,3.42,0,0,0,.63-.63,5.83,5.83,0,0,0,0-5.93,3.74,3.74,0,0,0-5.24-.63,3.42,3.42,0,0,0-.63.63A5.83,5.83,0,0,0,106.92,386.15Z" style="fill:#0f9"/><path d="M153.18,377.93H151.5v-3.37h3.43v3c0,2.89-1.11,4.29-3.43,4.29v-1.92C152.79,379.93,153.18,379.49,153.18,377.93Z" style="fill:#0f9"/><path d="M195.09,374.56h3.41v3.36h-3.43Z" style="fill:#0f9"/><path d="M236.37,369.14h7.8v2.34h-7.8Z" style="fill:#0f9"/><path d="M277.72,374a17.85,17.85,0,0,1,0-10.24,6.51,6.51,0,0,1,12.28,0A17.85,17.85,0,0,1,290,374a6.51,6.51,0,0,1-12.28,0Zm2.47-.86a3.78,3.78,0,0,0,7.34,0,16.24,16.24,0,0,0,0-8.53,3.78,3.78,0,0,0-7.34,0A16.24,16.24,0,0,0,280.19,373.09Z" style="fill:#0f9"/><path d="M22.85,418.89H22.5c0,3.22-1.43,4.68-4.08,4.68H17v-2.73h1.85c2,0,3-1.61,3-4.45h3.48v18.17h-2.5Z" style="fill:#0f9"/><path d="M60.18,430.25,66.45,426c2-1.41,2.7-2.73,2.7-4.34a3.34,3.34,0,0,0-.91-2.4,3.23,3.23,0,0,0-2.31-.88,3.39,3.39,0,0,0-3.57,3.18c0,.16,0,.31,0,.46v.91h-2.6V422a5.81,5.81,0,0,1,5.61-6h.55a5.92,5.92,0,0,1,4.29,1.66,5.61,5.61,0,0,1,1.53,4c0,2.5-.91,4.24-3.46,6l-6,4.08v.39h9.46v2.42H60.18Z" style="fill:#0f9"/><path d="M103.22,429.08v-.31h2.6v.31a3.26,3.26,0,0,0,3,3.55,3.64,3.64,0,0,0,.66,0,3.45,3.45,0,0,0,2.5-.91,2.59,2.59,0,0,0,.75-1.9,2.69,2.69,0,0,0-.73-2,3.77,3.77,0,0,0-2.7-.91h-.86v-2.81h.86a3.77,3.77,0,0,0,2.7-.91,2.69,2.69,0,0,0,.73-2,2.59,2.59,0,0,0-.75-1.9,3.45,3.45,0,0,0-2.5-.91,3.26,3.26,0,0,0-3.6,2.88,2.91,2.91,0,0,0,0,.66v.31h-2.6v-.31c0-3.64,2.36-5.88,6.21-5.88a6.25,6.25,0,0,1,4.53,1.64,4.76,4.76,0,0,1,1.32,3.43,4,4,0,0,1-1.14,3,4.27,4.27,0,0,1-2.84,1.23v.41a4.4,4.4,0,0,1,2.84,1.22,4.12,4.12,0,0,1,1.14,3,4.76,4.76,0,0,1-1.32,3.43,6.25,6.25,0,0,1-4.53,1.64C105.58,435,103.22,432.72,103.22,429.08Z" style="fill:#0f9"/><path d="M154.79,428.46h-8.37v-4.08l6.79-8h4v9.73h3v2.34h-3v6.11h-2.47Zm0-2.34v-7.75h-.39l-6.05,7.36v.39Z" style="fill:#0f9"/><path d="M190.86,429.65v-.15h2.64v.06a3.16,3.16,0,0,0,3.31,3h0a3.43,3.43,0,0,0,2.48-.91,3.81,3.81,0,0,0,1-2.73,3.73,3.73,0,0,0-.93-2.71,2.9,2.9,0,0,0-2.11-.83,2.82,2.82,0,0,0-2.65,1.54H191.5V416.39h11.41v2.47h-9v6.24h.39a3.79,3.79,0,0,1,3.67-2,4.64,4.64,0,0,1,3.3,1.35,6.36,6.36,0,0,1,1.66,4.55,5.9,5.9,0,0,1-1.66,4.29,6.14,6.14,0,0,1-4.4,1.67C193.25,435,190.86,432.83,190.86,429.65Z" style="fill:#0f9"/><path d="M234.9,431a14.53,14.53,0,0,1-.7-4.81,18.11,18.11,0,0,1,.8-5.8,5.93,5.93,0,0,1,6-4.34c3.46,0,5.7,2.16,5.7,5.49v.15h-2.6v-.11a2.89,2.89,0,0,0-2.59-3.15,4.34,4.34,0,0,0-.51,0c-2.81,0-4.29,2.6-4.29,7.54h.39a4.42,4.42,0,0,1,4.11-2.81,5.44,5.44,0,0,1,3.88,1.59,5.68,5.68,0,0,1,1.61,4.11,6,6,0,0,1-5.84,6.16h-.3A5.6,5.6,0,0,1,234.9,431Zm3.14.65a3.78,3.78,0,0,0,5.1,0,3.91,3.91,0,0,0,0-5.2,3.78,3.78,0,0,0-5.1,0A3.91,3.91,0,0,0,238,431.63Z" style="fill:#0f9"/><path d="M287.89,419.25v-.39H278v-2.47h11.89v4.17l-7.26,14h-2.94Z" style="fill:#0f9"/><path d="M17.61,490a4.76,4.76,0,0,1-1.32-3.43,4.12,4.12,0,0,1,1.14-3,4.32,4.32,0,0,1,2.73-1.22v-.42a4.32,4.32,0,0,1-2.73-1.22,4.12,4.12,0,0,1-1.14-3,4.77,4.77,0,0,1,1.32-3.44,6.41,6.41,0,0,1,4.69-1.63A6.36,6.36,0,0,1,27,474.26a4.73,4.73,0,0,1,1.33,3.44,4.12,4.12,0,0,1-1.14,3,4.32,4.32,0,0,1-2.73,1.22v.42a4.32,4.32,0,0,1,2.73,1.22,4.12,4.12,0,0,1,1.14,3A4.71,4.71,0,0,1,27,490a6.33,6.33,0,0,1-4.67,1.64A6.42,6.42,0,0,1,17.61,490Zm2-10.14a4.4,4.4,0,0,0,5.35,0,2.69,2.69,0,0,0,.73-2,2.59,2.59,0,0,0-.75-1.9,4.34,4.34,0,0,0-5.31,0,2.59,2.59,0,0,0-.75,1.9,2.7,2.7,0,0,0,.74,2Zm0,8.53a4.34,4.34,0,0,0,5.31,0,2.59,2.59,0,0,0,.75-1.9,2.69,2.69,0,0,0-.73-2,4.4,4.4,0,0,0-5.35,0,2.69,2.69,0,0,0-.73,2,2.61,2.61,0,0,0,.78,1.9Z" style="fill:#0f9"/><path d="M71.26,476.67a14.63,14.63,0,0,1,.7,4.82,17.49,17.49,0,0,1-.81,5.79,5.94,5.94,0,0,1-6,4.35c-3.46,0-5.69-2.16-5.69-5.49V486h2.6v.16a2.86,2.86,0,0,0,2.57,3.14,3,3,0,0,0,.52,0c2.81,0,4.29-2.6,4.29-7.54h-.39a4.41,4.41,0,0,1-4.11,2.8A5.44,5.44,0,0,1,61.07,483a5.76,5.76,0,0,1-1.61-4.11,6,6,0,0,1,6.13-6.16A5.61,5.61,0,0,1,71.26,476.67ZM63,481.23a3.79,3.79,0,0,0,5.09,0,3.61,3.61,0,0,0,1-2.61,3.57,3.57,0,0,0-1-2.59A3.77,3.77,0,0,0,63,476a3.57,3.57,0,0,0-1,2.59A3.61,3.61,0,0,0,63,481.23Z" style="fill:#0f9"/><path d="M113.94,471.86H105v7.9h-2.59V466.63h-.84v-2.34h.84v-2.73H105v2.73h8.92v-2.73h2.56v2.73h.84v2.34h-.84v13.13h-2.6Zm0-2.47v-2.76H105v2.76Z" style="fill:#0f9"/><path d="M104.13,488.2h-1.28v-1.64h1.28v-2h2.47v2h3v1.69h-3v2.08l-.65,3.38h.39c.75-2.47,2.23-3.74,4.29-3.74,3,0,4.47,1.82,4.47,5.25v7.59h-2.47v-7.33c0-2.13-.94-3.22-2.73-3.22-2,0-3.3,1.56-3.3,4v6.5h-2.47Z" style="fill:#0f9"/></g></g></svg>