<?xml version="1.0" encoding="utf-8"?>
<!-- Generator: Adobe Illustrator 26.1.0, SVG Export Plug-In . SVG Version: 6.00 Build 0)  -->
<svg version="1.1" id="Calque_1" xmlns="http://www.w3.org/2000/svg" xmlns:xlink="http://www.w3.org/1999/xlink" x="0px" y="0px"
	 viewBox="0 0 375 217" style="enable-background:new 0 0 375 217;" xml:space="preserve">
<style type="text/css">
	.st0{fill:#AFABD4;}
	.st1{opacity:0.14;}
	.st2{fill:#5C63A7;}
	.st3{opacity:0.18;}
</style>
<rect x="0.21" y="-0.57" class="st0" width="375" height="218.47"/>
<g class="st1">
	<path class="st2" d="M18,30.45c-0.03,0.04-0.05,0.09-0.05,0.14v0.26l19.93-2.64c3.16-0.42,5.97,2.04,5.97,5.23v0
		c0,3-2.62,5.33-5.6,4.97L17.95,36v0.26c0,0.05,0.02,0.1,0.05,0.14l12.46,15.57c2.08,2.6,1.35,6.44-1.54,8.09l0,0
		c-2.83,1.61-6.43,0.41-7.71-2.58c-3.04-7.09-7.88-18.39-7.88-18.39h-0.34L4.31,57.9C3,60.74-0.52,61.78-3.16,60.11l0,0
		c-2.56-1.62-3.17-5.09-1.31-7.48L8.3,36.23c0.03-0.04,0.05-0.09,0.05-0.14v-0.26l-19.64,2.52c-3.04,0.39-5.74-1.98-5.74-5.05v0
		c0-3.11,2.74-5.52,5.83-5.12l19.38,2.51v-0.26c0-0.05-0.02-0.1-0.05-0.14L-4.34,14.1c-1.91-2.48-1.19-6.07,1.52-7.62l0,0
		c2.86-1.64,6.5-0.45,7.84,2.56l8.13,18.22h0.34L21.36,9.2c1.39-3.18,5.23-4.47,8.25-2.75l0,0c2.45,1.39,3.12,4.63,1.41,6.87
		L18,30.45z"/>
</g>
<g class="st3">
	<path class="st2" d="M342.34,101.4c-0.06,0.08-0.09,0.18-0.09,0.28v0.53l39.86-5.28c6.32-0.84,11.93,4.08,11.93,10.46v0
		c0,6-5.24,10.66-11.2,9.95l-40.58-4.84v0.52c0,0.11,0.04,0.21,0.1,0.29l24.91,31.14c4.15,5.19,2.69,12.87-3.08,16.17v0
		c-5.65,3.23-12.85,0.82-15.42-5.17c-6.08-14.19-15.77-36.79-15.77-36.79h-0.69l-17.35,37.63c-2.62,5.69-9.65,7.76-14.94,4.42v0
		c-5.12-3.23-6.33-10.18-2.61-14.96l25.54-32.8c0.06-0.08,0.1-0.18,0.1-0.28v-0.53l-39.28,5.04c-6.09,0.78-11.48-3.96-11.48-10.1v0
		c0-6.23,5.47-11.04,11.65-10.24l38.77,5.01v-0.53c0-0.1-0.03-0.2-0.1-0.28L297.66,68.7c-3.81-4.95-2.38-12.13,3.04-15.24l0,0
		c5.71-3.28,13-0.9,15.68,5.11L332.64,95h0.69l15.73-36.1c2.77-6.37,10.45-8.93,16.49-5.51l0,0c4.91,2.78,6.24,9.25,2.82,13.74
		L342.34,101.4z"/>
</g>
</svg>
