<?xml version="1.0" encoding="utf-8"?>
<!-- Generator: Adobe Illustrator 26.2.1, SVG Export Plug-In . SVG Version: 6.00 Build 0)  -->
<svg version="1.1" id="Calque_1" xmlns="http://www.w3.org/2000/svg" xmlns:xlink="http://www.w3.org/1999/xlink" x="0px" y="0px"
	 viewBox="0 0 375 80" style="enable-background:new 0 0 375 80;" xml:space="preserve">
<style type="text/css">
	.st0{fill:#B3B3D1;}
</style>
<g>
	<path class="st0" d="M72.11,36.37c-0.03,0.04-0.05,0.09-0.05,0.14v0.26l19.93-2.64c3.16-0.42,5.97,2.04,5.97,5.23l0,0
		c0,3-2.62,5.33-5.6,4.97l-20.3-2.41v0.26c0,0.05,0.02,0.1,0.05,0.14l12.46,15.57c2.08,2.6,1.35,6.44-1.54,8.09l0,0
		c-2.83,1.61-6.43,0.41-7.71-2.58c-3.04-7.09-7.88-18.39-7.88-18.39H67.1l-8.68,18.81c-1.31,2.84-4.83,3.88-7.47,2.21l0,0
		c-2.56-1.62-3.17-5.09-1.31-7.48l12.77-16.4c0.03-0.04,0.05-0.09,0.05-0.14v-0.26l-19.64,2.52c-3.04,0.39-5.74-1.98-5.74-5.05l0,0
		c0-3.11,2.74-5.52,5.83-5.12l19.38,2.51v-0.26c0-0.05-0.02-0.1-0.05-0.14L49.77,20.02c-1.91-2.48-1.19-6.07,1.52-7.62l0,0
		c2.86-1.64,6.5-0.45,7.84,2.56l8.13,18.22h0.34l7.87-18.06c1.39-3.18,5.23-4.47,8.25-2.75l0,0c2.45,1.39,3.12,4.63,1.41,6.87
		L72.11,36.37z"/>
</g>
<g>
	<path class="st0" d="M153.67,36.37c-0.03,0.04-0.05,0.09-0.05,0.14v0.26l19.93-2.64c3.16-0.42,5.97,2.04,5.97,5.23l0,0
		c0,3-2.62,5.33-5.6,4.97l-20.3-2.41v0.26c0,0.05,0.02,0.1,0.05,0.14l12.46,15.57c2.08,2.6,1.35,6.44-1.54,8.09l0,0
		c-2.83,1.61-6.43,0.41-7.71-2.58c-3.04-7.09-7.88-18.39-7.88-18.39h-0.34l-8.68,18.81c-1.31,2.84-4.83,3.88-7.47,2.21l0,0
		c-2.56-1.62-3.17-5.09-1.31-7.48l12.77-16.4c0.03-0.04,0.05-0.09,0.05-0.14v-0.26l-19.64,2.52c-3.04,0.39-5.74-1.98-5.74-5.05l0,0
		c0-3.11,2.74-5.52,5.83-5.12l19.38,2.51v-0.26c0-0.05-0.02-0.1-0.05-0.14l-12.47-16.19c-1.91-2.48-1.19-6.07,1.52-7.62l0,0
		c2.86-1.64,6.5-0.45,7.84,2.56l8.13,18.22h0.34l7.87-18.06c1.39-3.18,5.23-4.47,8.25-2.75l0,0c2.45,1.39,3.12,4.63,1.41,6.87
		L153.67,36.37z"/>
</g>
<g>
	<path class="st0" d="M235.24,36.37c-0.03,0.04-0.05,0.09-0.05,0.14v0.26l19.93-2.64c3.16-0.42,5.97,2.04,5.97,5.23l0,0
		c0,3-2.62,5.33-5.6,4.97l-20.3-2.41v0.26c0,0.05,0.02,0.1,0.05,0.14l12.46,15.57c2.08,2.6,1.35,6.44-1.54,8.09l0,0
		c-2.83,1.61-6.43,0.41-7.71-2.58c-3.04-7.09-7.88-18.39-7.88-18.39h-0.34l-8.68,18.81c-1.31,2.84-4.83,3.88-7.47,2.21l0,0
		c-2.56-1.62-3.17-5.09-1.31-7.48l12.77-16.4c0.03-0.04,0.05-0.09,0.05-0.14v-0.26l-19.64,2.52c-3.04,0.39-5.74-1.98-5.74-5.05l0,0
		c0-3.11,2.74-5.52,5.83-5.12l19.38,2.51v-0.26c0-0.05-0.02-0.1-0.05-0.14L212.9,20.02c-1.91-2.48-1.19-6.07,1.52-7.62l0,0
		c2.86-1.64,6.5-0.45,7.84,2.56l8.13,18.22h0.34l7.87-18.06c1.39-3.18,5.23-4.47,8.25-2.75l0,0c2.45,1.39,3.12,4.63,1.41,6.87
		L235.24,36.37z"/>
</g>
<g>
	<path class="st0" d="M316.8,36.37c-0.03,0.04-0.05,0.09-0.05,0.14v0.26l19.93-2.64c3.16-0.42,5.97,2.04,5.97,5.23l0,0
		c0,3-2.62,5.33-5.6,4.97l-20.3-2.41v0.26c0,0.05,0.02,0.1,0.05,0.14l12.46,15.57c2.08,2.6,1.35,6.44-1.54,8.09l0,0
		c-2.83,1.61-6.43,0.41-7.71-2.58c-3.04-7.09-7.88-18.39-7.88-18.39h-0.34l-8.68,18.81c-1.31,2.84-4.83,3.88-7.47,2.21l0,0
		c-2.56-1.62-3.17-5.09-1.31-7.48l12.77-16.4c0.03-0.04,0.05-0.09,0.05-0.14v-0.26l-19.64,2.52c-3.04,0.39-5.74-1.98-5.74-5.05l0,0
		c0-3.11,2.74-5.52,5.83-5.12l19.38,2.51v-0.26c0-0.05-0.02-0.1-0.05-0.14l-12.47-16.19c-1.91-2.48-1.19-6.07,1.52-7.62l0,0
		c2.86-1.64,6.5-0.45,7.84,2.56l8.13,18.22h0.34l7.87-18.06c1.39-3.18,5.23-4.47,8.25-2.75l0,0c2.45,1.39,3.12,4.63,1.41,6.87
		L316.8,36.37z"/>
</g>
</svg>
