<svg xmlns="http://www.w3.org/2000/svg" viewBox="0 0 162 55"><defs><style>.cls-1{fill:none;stroke:#000;stroke-miterlimit:10;}</style></defs><g id="Calque_2" data-name="Calque 2"><g id="Calque_1-2" data-name="Calque 1"><path d="M5.84,12.65h6v6h-6Z"/><path d="M35.19,12.65h6v6h-6Zm5.22,5.22V13.42H36v4.45Z"/><path d="M65.08,15.67a2.46,2.46,0,1,1,2.47,2.48A2.46,2.46,0,0,1,65.08,15.67Zm4.29,0a1.81,1.81,0,1,0-1.82,1.92A1.89,1.89,0,0,0,69.37,15.64Zm-2.73,0a.93.93,0,0,1,.91-.94.91.91,0,0,1,.91.93.94.94,0,0,1-.91,1A.92.92,0,0,1,66.64,15.67Z"/><path d="M93.21,15.74l3.17-2v4Z"/><path d="M120.41,13.79l3.18,2-3.18,2Z"/><path d="M145.65,15.64l3.6-3.59,3.59,3.61-3.61,3.58Z"/><path d="M21.06,41.55v.09l-3.26,2.2-.09,0,.58-1.8H7.93l-.09.1v1H7.07V40h.77v1l.09.09H18.26l-.55-1.7.09,0Z"/><path d="M48.71,40.08v3.14h-.77v-1l-.09-.09H37.5l.55,1.7-.08,0L34.7,41.66v-.09L38,39.37l.08,0-.58,1.8H47.85l.09-.1v-1Z"/><path d="M69,37.37V47.75l.1.09h1v.77H67v-.77h1l.08-.09V37.4l-1.7.55,0-.09,2.18-3.26h.09l2.19,3.26,0,.09Z"/><path d="M97.22,45.51l-2,3H95.1l-2-3,0-.09,1.69.55V36.28l-.1-.08h-1v-.72h2.93v.72h-1l-.08.08v9.66l1.59-.52Z"/><path d="M123.57,36.68l-.75,3.86-.09,0-.86-1.69-7.33,7.33,0,.14.72.72-.55.55-2.21-2.21.55-.55.72.72h.12l7.31-7.32-1.6-.8,0-.09,3.86-.75Z"/><path d="M152.27,45.48l-2.21,2.22-.55-.55.74-.72v-.12L142.92,39l-.81,1.6-.09,0-.77-3.84.07-.07,3.86.75,0,.09-1.69.86,7.33,7.34H151l.74-.72Z"/><rect class="cls-1" x="0.5" y="0.5" width="161" height="54"/><line class="cls-1" x1="0.5" y1="27.5" x2="161.5" y2="27.5"/><line class="cls-1" x1="134.67" y1="0.5" x2="134.67" y2="54.5"/><line class="cls-1" x1="107.83" y1="0.5" x2="107.83" y2="54.5"/><line class="cls-1" x1="81" y1="0.5" x2="81" y2="54.5"/><line class="cls-1" x1="54.17" y1="0.5" x2="54.17" y2="54.5"/><line class="cls-1" x1="27.33" y1="0.5" x2="27.33" y2="54.5"/></g></g></svg>