<?xml version="1.0" encoding="utf-8"?>
<!-- Generator: Adobe Illustrator 25.4.1, SVG Export Plug-In . SVG Version: 6.00 Build 0)  -->
<svg version="1.1" id="Calque_1" xmlns="http://www.w3.org/2000/svg" xmlns:xlink="http://www.w3.org/1999/xlink" x="0px" y="0px"
	 viewBox="0 0 162 55" style="enable-background:new 0 0 162 55;" xml:space="preserve">
<style type="text/css">
	.st0{fill:none;stroke:#000000;stroke-miterlimit:10;}
</style>
<g>
	<path d="M5.8,12.7h6v6h-6V12.7z"/>
	<path d="M35.2,12.7h6v6h-6V12.7z M40.4,17.9v-4.4H36v4.4H40.4z"/>
	<path d="M65.1,15.7c0-1.4,1.1-2.5,2.5-2.5c1.4,0,2.5,1.1,2.5,2.5c0,1.4-1.1,2.5-2.5,2.5C66.2,18.1,65.1,17,65.1,15.7z M69.4,15.6
		c0-1-0.8-1.8-1.8-1.8c-1,0-1.8,0.9-1.8,1.9c0,1,0.8,1.9,1.8,1.9C68.6,17.6,69.4,16.7,69.4,15.6z M66.6,15.7c0-0.5,0.4-0.9,0.9-0.9
		c0.5,0,0.9,0.4,0.9,0.9c0,0.5-0.4,1-0.9,1C67,16.6,66.6,16.2,66.6,15.7z"/>
	<path d="M93.2,15.7l3.2-2v4L93.2,15.7z"/>
	<path d="M120.4,13.8l3.2,2l-3.2,2V13.8z"/>
	<path d="M145.6,15.6l3.6-3.6l3.6,3.6l-3.6,3.6L145.6,15.6z"/>
</g>
<g>
	<path d="M21.1,41.6L21.1,41.6l-3.3,2.3l-0.1,0l0.6-1.8H7.9l-0.1,0.1v1H7.1V40h0.8v1l0.1,0.1h10.3l-0.5-1.7l0.1,0L21.1,41.6z"/>
	<path d="M48.7,40.1v3.1h-0.8v-1l-0.1-0.1H37.5l0.5,1.7l-0.1,0l-3.3-2.2v-0.1l3.3-2.2l0.1,0l-0.6,1.8h10.4l0.1-0.1v-1H48.7z"/>
	<path d="M69,37.4v10.4l0.1,0.1h1v0.8H67v-0.8h1l0.1-0.1V37.4l-1.7,0.5l0-0.1l2.2-3.3h0.1l2.2,3.3l0,0.1L69,37.4z"/>
	<path d="M97.2,45.5l-2,3h-0.1l-2.1-3l0-0.1l1.7,0.5v-9.7l-0.1-0.1h-1v-0.7h2.9v0.7h-1l-0.1,0.1v9.7L97.2,45.5L97.2,45.5z"/>
	<path d="M123.6,36.7l-0.8,3.9l-0.1,0l-0.9-1.7l-7.3,7.3l0,0.1l0.7,0.7l-0.5,0.5l-2.2-2.2l0.5-0.5l0.7,0.7h0.1l7.3-7.3l-1.6-0.8
		l0-0.1L123.6,36.7L123.6,36.7z"/>
	<path d="M152.3,45.5l-2.2,2.2l-0.5-0.5l0.7-0.7v-0.1l-7.3-7.3l-0.8,1.6l-0.1,0l-0.8-3.8l0.1-0.1l3.9,0.8l0,0.1l-1.7,0.9l7.3,7.3
		l0.1,0l0.7-0.7L152.3,45.5z"/>
</g>
<g>
	<rect x="0.5" y="0.5" class="st0" width="161" height="54"/>
	<line class="st0" x1="0.5" y1="27.5" x2="161.5" y2="27.5"/>
	<line class="st0" x1="134.7" y1="0.5" x2="134.7" y2="54.5"/>
	<line class="st0" x1="107.8" y1="0.5" x2="107.8" y2="54.5"/>
	<line class="st0" x1="81" y1="0.5" x2="81" y2="54.5"/>
	<line class="st0" x1="54.2" y1="0.5" x2="54.2" y2="54.5"/>
	<line class="st0" x1="27.3" y1="0.5" x2="27.3" y2="54.5"/>
</g>
</svg>
