<?xml version="1.0" encoding="utf-8"?>
<!-- Generator: Adobe Illustrator 25.4.1, SVG Export Plug-In . SVG Version: 6.00 Build 0)  -->
<svg version="1.1" id="Calque_1" xmlns="http://www.w3.org/2000/svg" xmlns:xlink="http://www.w3.org/1999/xlink" x="0px" y="0px"
	 viewBox="0 0 320 916" style="enable-background:new 0 0 320 916;" xml:space="preserve">
<style type="text/css">
	.st0{opacity:0.3;}
	.st1{fill:#7DF451;}
</style>
<g class="st0">
	<path class="st1" d="M0.1,515.1l70.8-70.4l70.4,70.8l-70.8,70.4L0.1,515.1z"/>
</g>
<g class="st0">
	<path class="st1" d="M176.9,299v21.6h-72.5V299h15.2l1.7-1.7V130.1l-9.4-10.1c-12.8-13.5-22.6-20.6-34.4-20.6
		c-14.8,0-23.6,12.1-23.6,38.8v39.1l1.7,1.7h36.1v21.6H55.6l-1.7,2v94.7l1.7,1.7h15.2v21.6H-1.7V299h15.2l1.7-1.7v-94.7l-1.7-2H-1.7
		V179h15.2l1.7-1.7v-10.8c0-64,27.3-87.6,67.4-87.6c16.5,0,33,5.4,45.2,12.5l27.6-13.5l4.7,2.4v217l1.7,1.7H176.9z"/>
</g>
<g class="st0">
	<path class="st1" d="M134.3,812c0,41.8-33.4,73.1-77.2,73.1c-22.2,0-40.8-4.4-58.6-12.1v-58.6h5.4l9.1,14.2
		c18.5,28.6,28,36.4,46.2,36.4c19.5,0,33.4-15.8,33.4-44.1c0-32-17.5-49.5-49.2-49.5c-13.8,0-25.3,2.4-35.4,5.4l-4.4-3L11.3,661
		h113.2v76.2h-5.1l-23.9-40.8H29.5l-4.7,59c12.5-5.7,27-9.4,38.8-9.4C108,746,134.3,770.9,134.3,812z"/>
</g>
</svg>
