<?xml version="1.0" encoding="utf-8"?>
<!-- Generator: Adobe Illustrator 25.4.1, SVG Export Plug-In . SVG Version: 6.00 Build 0)  -->
<svg version="1.1" id="Calque_1" xmlns="http://www.w3.org/2000/svg" xmlns:xlink="http://www.w3.org/1999/xlink" x="0px" y="0px"
	 viewBox="0 0 162.5 82" style="enable-background:new 0 0 162.5 82;" xml:space="preserve">
<style type="text/css">
	.st0{enable-background:new    ;}
	.st1{fill:none;stroke:#000000;stroke-miterlimit:10;}
</style>
<g id="Calque_1-2">
	<g class="st0">
		<path d="M21.4,72.4v0.8H18v-0.8h1l0.1-0.1V67h-3.6l-0.1,0.1v5.2l0.1,0.1h1v0.8h-3.4v-0.8h1l0.1-0.1v-5.2L14.2,67h-1v-0.8h1
			l0.1-0.1v-0.5c0-3.5,1.1-4.8,3.4-4.8c0.6,0,1.5,0.1,2,0.3v2.6h-0.1l-0.9-1.2c-0.4-0.5-0.9-0.9-1.5-0.9c-1,0-1.6,0.8-1.6,2.4v2.1
			l0.1,0.1h4.8v6.1l0.1,0.1H21.4z"/>
		<path d="M46,72.4v0.8h-3.4v-0.8h1l0.1-0.1v-9.5l-0.4-0.3c-0.5-0.5-1.1-0.8-1.8-0.8c-1.1,0-1.6,0.9-1.6,2.4v2.1l0.1,0.1h2.3V67H40
			l-0.1,0.1v5.2l0.1,0.1h1v0.8h-3.4v-0.8h1l0.1-0.1v-5.2L38.6,67h-1v-0.8h1l0.1-0.1v-0.5c0-3.4,1-4.8,3.1-4.8c0.7,0,1.3,0.2,1.8,0.5
			l1.1-0.5l0.1,0.1v11.5l0.1,0.1H46z"/>
		<path d="M71.7,72.7c-0.5,0.3-1.2,0.6-2,0.6c-1.2,0-1.8-0.5-1.8-2.2v-4.1L67.8,67h-3.6v3.2c0,1.7,0.3,2.3,1.3,2.3
			c0.4,0,0.8-0.1,1.1-0.2l0.2,0.4c-0.5,0.3-1.2,0.6-2,0.6c-1.2,0-1.8-0.5-1.8-2.2v-4.1L62.9,67h-1v-0.1l2.2-2.9h0.1v2.2h3.2L69,64
			h0.1v2.2h2.3V67h-2.3v3.2c0,1.7,0.3,2.3,1.3,2.3c0.4,0,0.8-0.1,1.1-0.2L71.7,72.7z"/>
		<path d="M98.2,61.2v2.1h-0.1L97.2,62c-0.3-0.2-0.6-0.4-1.1-0.4c-0.9,0-1.4,0.8-1.4,2.4v2.1l0.1,0.1h2.5V67h-2.5l-0.1,0.1v5.2
			l0.1,0.1h1.3v0.8h-3.7v-0.8h1l0.1-0.1v-5.2L93.4,67H90l-0.1,0.1v5.2l0.1,0.1h1v0.8h-3.4v-0.8h1l0.1-0.1v-5.2L88.6,67h-1v-0.8h1
			l0.1-0.1v-0.5c0-3.2,1.2-4.7,3.4-4.7c0.9,0,1.7,0.3,2.4,0.6c0.5-0.5,1.2-0.8,2.1-0.8C97.2,60.9,97.7,61,98.2,61.2z M93.5,65.7
			c0-1.1,0.1-1.9,0.3-2.6l0,0c-0.4-0.6-0.9-1.3-1.8-1.3c-1.4,0-2,1-2,3.2v1.2l0.1,0.1h3.4l0.1-0.1V65.7z"/>
		<path d="M125.9,72.4v0.8h-3.4v-0.8h1l0.1-0.1V67h-3.4l-0.1,0.1v5.2l0.1,0.1h1v0.8h-3.4v-0.8h1l0.1-0.1v-5.2l-0.1-0.1h-3.4
			l-0.1,0.1v5.2l0.1,0.1h1v0.8h-3.4v-0.8h1l0.1-0.1v-5.2l-0.1-0.1h-1v-0.8h1l0.1-0.1v-0.5c0-3.2,1.2-4.7,3.3-4.7
			c1,0,1.8,0.3,2.5,0.6c0.5-0.6,1.3-0.8,2.2-0.8c0.6,0,1.4,0.1,1.9,0.3v2.6h-0.1l-0.9-1.2c-0.4-0.5-0.8-0.9-1.4-0.9
			c-1,0-1.5,0.8-1.5,2.4v2.1l0.1,0.1h4.6v6.1l0.1,0.1H125.9z M118.8,65.7c0-1.1,0.1-2,0.3-2.7c-0.4-0.6-1-1.2-2-1.2
			c-1.4,0-2,1-2,3.2v1.2l0.1,0.1h3.4l0.1-0.1V65.7z"/>
		<path d="M155.2,72.4v0.8h-3.4v-0.8h1l0.1-0.1v-9.5l-0.4-0.3c-0.5-0.4-1.1-0.8-1.8-0.8c-1.1,0-1.6,0.8-1.6,2.4v2.1l0.1,0.1h2.3V67
			h-2.3l-0.1,0.1v5.2l0.1,0.1h1v0.8h-3.4v-0.8h1l0.1-0.1v-5.2l-0.1-0.1h-3.4l-0.1,0.1v5.2l0.1,0.1h1v0.8H142v-0.8h1l0.1-0.1v-5.2
			L143,67h-1v-0.8h1l0.1-0.1v-0.5c0-3.2,1.2-4.7,3.3-4.7c1,0,1.8,0.3,2.5,0.7c0.5-0.6,1.2-0.8,2.1-0.8c0.7,0,1.3,0.2,1.8,0.5
			l1.1-0.5l0.1,0.1v11.5l0.1,0.1H155.2z M147.9,65.7c0-1,0.1-1.9,0.3-2.6l-0.1-0.1c-0.4-0.6-1-1.3-1.9-1.3c-1.3,0-1.9,1-1.9,3.2v1.2
			l0.1,0.1h3.4l0.1-0.1V65.7z"/>
	</g>
	<g class="st0">
		<path d="M13.2,37.1v2.1l0.1,0.1h1.8V40h-1.8l-0.1,0.1v5.2l0.1,0.1h1.3v0.8h-3.7v-0.8h1l0.1-0.1v-5.2L12,40H8.5l-0.1,0.1v5.2
			l0.1,0.1h1v0.8H6.1v-0.8h1l0.1-0.1v-5.2L7.2,40h-1v-0.8h1l0.1-0.1v-0.5c0-3.2,1.2-4.7,3.4-4.7c0.9,0,1.7,0.3,2.4,0.6
			c0.5-0.5,1.2-0.8,2.1-0.8c0.6,0,1.1,0.1,1.6,0.3v2.1h-0.1L15.7,35c-0.3-0.2-0.6-0.4-1.1-0.4C13.7,34.6,13.2,35.4,13.2,37.1z
			 M12,38.7c0-1.1,0.1-1.9,0.3-2.6l0,0c-0.4-0.6-0.9-1.3-1.8-1.3c-1.4,0-2,1-2,3.2v1.2l0.1,0.1H12l0.1-0.1V38.7z M20.6,45.7
			c-0.5,0.3-1.2,0.6-2,0.6c-1.2,0-1.8-0.5-1.8-2.2v-4.1L16.8,40h-1v-0.1L18,37h0.1v2.2h2.3V40h-2.3v3.2c0,1.7,0.3,2.3,1.3,2.3
			c0.4,0,0.8-0.1,1.1-0.2L20.6,45.7z"/>
		<path d="M49.6,45.4v0.8h-3.5v-0.8h1.1l0.1-0.1V42c0-1.5-0.3-2-1.6-2c-0.6,0-1.3,0.1-1.9,0.2v5l0.1,0.1H45v0.8h-3.5v-0.8h1l0.1-0.1
			v-9.5l-0.4-0.3c-0.5-0.5-1.1-0.8-1.8-0.8c-1.1,0-1.6,0.9-1.6,2.4v2.1l0.1,0.1h2.3V40h-2.3l-0.1,0.1v5.2l0.1,0.1h1v0.8h-3.4v-0.8h1
			l0.1-0.1v-5.2L37.6,40h-1v-0.8h1l0.1-0.1v-0.5c0-3.4,1-4.8,3.1-4.8c0.7,0,1.3,0.2,1.8,0.5l1.1-0.5l0.1,0.1V40c1-0.6,1.8-1,2.5-1
			c1.5,0,2.2,0.7,2.2,2v4.3l0.1,0.1H49.6z"/>
		<path d="M73.1,45.4h1v0.8h-3.4v-0.8h1l0.1-0.1V40h-3.6l-0.1,0.1v5.2l0.1,0.1h1v0.8h-3.4v-0.8h1l0.1-0.1v-5.2L66.8,40h-1v-0.8h1
			l0.1-0.1v-0.5c0-3.5,0.9-4.8,3.1-4.8c0.5,0,1,0.1,1.4,0.3v2.1h-0.1L70.4,35c-0.3-0.2-0.5-0.4-1-0.4c-0.8,0-1.3,0.8-1.3,2.4v2.1
			l0.1,0.1H73L73.1,45.4L73.1,45.4z M74.4,34.8v0.1l-2.7,3h-0.6l1.6-3.2H74.4z"/>
		<path d="M97.4,39.2v6.5c0,3.2-0.8,3.8-2.7,4.4l-0.2-0.4c1.5-0.6,1.7-1.5,1.7-3.3V40h-3.5l-0.1,0.1v5.2l0.1,0.1h1.3v0.8h-3.7v-0.8
			h1l0.1-0.1v-5.2L91.3,40h-1v-0.8h1l0.1-0.1v-0.5c0-3.5,1.1-4.8,3.4-4.8c0.6,0,1.5,0.1,2,0.3v2.6h-0.1l-0.9-1.2
			c-0.4-0.5-0.9-0.9-1.5-0.9c-1,0-1.6,0.8-1.6,2.4v2.1l0.1,0.1H97.4z"/>
		<path d="M121.5,45.4h1v0.8h-3.4v-0.8h1l0.1-0.1v-9.5l-0.4-0.3c-0.5-0.5-1.1-0.8-1.8-0.8c-1.1,0-1.6,0.9-1.6,2.4v2.1l0.1,0.1h2.3
			V40h-2.3l-0.1,0.1v5.2l0.1,0.1h1v0.8h-3.4v-0.8h1l0.1-0.1v-5.2l-0.1-0.1h-1v-0.8h1l0.1-0.1v-0.5c0-3.4,1-4.8,3.1-4.8
			c0.7,0,1.3,0.2,1.8,0.5l1.1-0.5l0.1,0.1L121.5,45.4L121.5,45.4z M126.8,45.4v0.8h-2l-3.2-3.8l2.6-2.1l-1-0.9v-0.1h3.4v0.1
			l-3.8,2.8c0.4,0.4,3,3.3,3,3.3H126.8z"/>
		<path d="M145.2,37.1v2.1l0.1,0.1h1.8V40h-1.8l-0.1,0.1v5.2l0.1,0.1h1.3v0.8h-3.7v-0.8h1l0.1-0.1v-5.2l-0.1-0.1h-1v-0.8h1l0.1-0.1
			v-0.5c0-3.5,0.9-4.8,3.1-4.8c0.5,0,1.1,0.1,1.5,0.3v2.1h-0.1l-0.9-1.2c-0.3-0.2-0.6-0.4-1-0.4C145.6,34.6,145.2,35.4,145.2,37.1z
			 M152.7,45.7c-0.5,0.3-1.2,0.6-2,0.6c-1.2,0-1.8-0.5-1.8-2.2v-4.1l-0.1-0.1h-1v-0.1L150,37h0.1v2.2h2.3V40h-2.3v3.2
			c0,1.7,0.3,2.3,1.3,2.3c0.4,0,0.8-0.1,1.1-0.2L152.7,45.7z"/>
	</g>
	<g class="st0">
		<path d="M8.2,20.6h1l0.1-0.1v-4.7l-1.1-0.5v-0.1l2.2-1l0.1,0.1v6.3l0.1,0.1h1v0.8H8.2V20.6z M8.8,11.5c0-0.5,0.4-0.9,0.9-0.9
			c0.5,0,0.9,0.4,0.9,0.9c0,0.5-0.4,0.9-0.9,0.9C9.3,12.4,8.8,12,8.8,11.5z M11.8,24.9c1.5-0.6,1.7-1.5,1.7-3.3v-5.7l-1.1-0.5v-0.1
			l2.2-1l0.1,0.1v6.7c0,3.2-0.8,3.8-2.7,4.4L11.8,24.9z M13.1,11.5c0-0.5,0.4-0.9,0.9-0.9c0.5,0,0.9,0.4,0.9,0.9
			c0,0.5-0.4,0.9-0.9,0.9C13.5,12.4,13.1,12,13.1,11.5z"/>
		<path d="M44.3,17.7c0,2-1.1,3.9-3.6,3.9c-1.1,0-2.2-0.2-2.9-0.6V11l-0.4-0.3c-0.5-0.5-1.1-0.8-1.8-0.8c-1.1,0-1.6,0.9-1.6,2.4v2.1
			l0.1,0.1h2.3v0.8h-2.3l-0.1,0.1v5.2l0.1,0.1h1.3v0.8h-3.7v-0.8h1l0.1-0.1v-5.2l-0.1-0.1h-1v-0.8h1l0.1-0.1v-0.5
			c0-3.4,1-4.8,3.1-4.8c0.7,0,1.3,0.2,1.8,0.5L38.9,9L39,9.1v6.1c0.8-0.5,1.7-1,2.6-1C43.4,14.2,44.3,15.9,44.3,17.7z M43,18.1
			c0-1.6-0.6-2.8-2.1-2.8c-0.7,0-1.4,0.1-1.9,0.2v4.4c0,0.8,1,1.1,1.9,1.1C42.5,20.9,43,19.8,43,18.1z"/>
		<path d="M74.3,17.7c0,2-1.1,3.9-3.6,3.9c-1.2,0-2.3-0.2-2.9-0.6V11l-0.4-0.3c-0.5-0.4-1.1-0.8-1.8-0.8c-1.1,0-1.6,0.8-1.6,2.4v2.1
			l0.1,0.1h2.3v0.8h-2.3L64,15.3v5.2l0.1,0.1h1.3v0.8h-3.7v-0.8h1l0.1-0.1v-5.2l-0.1-0.1h-3.4l-0.1,0.1v5.2l0.1,0.1h1v0.8h-3.4v-0.8
			h1l0.1-0.1v-5.2l-0.1-0.1h-1v-0.8h1l0.1-0.1v-0.5c0-3.2,1.2-4.7,3.3-4.7c1,0,1.8,0.3,2.5,0.7c0.5-0.6,1.2-0.8,2.1-0.8
			c0.7,0,1.3,0.2,1.8,0.5L68.9,9L69,9.1v6.1c0.8-0.5,1.7-1,2.6-1C73.3,14.2,74.3,15.9,74.3,17.7z M62.8,13.9c0-1,0.1-1.9,0.3-2.6
			l-0.1-0.1c-0.4-0.6-1-1.3-1.9-1.3c-1.3,0-1.9,1-1.9,3.2v1.2l0.1,0.1h3.4l0.1-0.1V13.9z M73,18.1c0-1.6-0.6-2.8-2.1-2.8
			c-0.7,0-1.4,0.1-1.9,0.2v4.4c0,0.8,1,1.1,1.9,1.1C72.4,20.9,73,19.8,73,18.1z"/>
		<path d="M104.8,20.6v0.8h-3.5v-0.8h1.1l0.1-0.1v-3.3c0-1.5-0.3-2-1.6-2c-0.6,0-1.3,0.1-1.9,0.2v5l0.1,0.1h1.1v0.8h-3.5v-0.8h1
			l0.1-0.1V11l-0.4-0.3c-0.5-0.4-1.1-0.8-1.8-0.8c-1.1,0-1.6,0.8-1.6,2.4v2.1l0.1,0.1h2.3v0.8h-2.3L94,15.3v5.2l0.1,0.1h1v0.8h-3.4
			v-0.8h1l0.1-0.1v-5.2l-0.1-0.1h-3.4l-0.1,0.1v5.2l0.1,0.1h1v0.8h-3.4v-0.8h1l0.1-0.1v-5.2l-0.1-0.1h-1v-0.8h1l0.1-0.1v-0.5
			c0-3.2,1.2-4.7,3.3-4.7c1,0,1.8,0.3,2.5,0.7c0.5-0.6,1.2-0.8,2.1-0.8c0.7,0,1.3,0.2,1.8,0.5L98.9,9L99,9.1v6.1c1-0.6,1.8-1,2.5-1
			c1.5,0,2.2,0.7,2.2,2v4.3l0.1,0.1H104.8z M92.8,13.9c0-1,0.1-1.9,0.3-2.6L93,11.3c-0.4-0.6-1-1.3-1.9-1.3c-1.3,0-1.9,1-1.9,3.2
			v1.2l0.1,0.1h3.4l0.1-0.1V13.9z"/>
		<path d="M129,14.5v6.5c0,3.2-0.8,3.8-2.7,4.4l-0.2-0.4c1.5-0.6,1.7-1.5,1.7-3.3v-6.4h-3.4l-0.1,0.1v5.2l0.1,0.1h1.3v0.8h-3.7v-0.8
			h1l0.1-0.1v-5.2l-0.1-0.1h-3.4l-0.1,0.1v5.2l0.1,0.1h1v0.8h-3.4v-0.8h1l0.1-0.1v-5.2l-0.1-0.1h-1v-0.8h1l0.1-0.1v-0.5
			c0-3.2,1.2-4.7,3.3-4.7c1,0,1.8,0.3,2.5,0.6c0.5-0.6,1.3-0.8,2.2-0.8c0.6,0,1.4,0.1,1.9,0.3V12h-0.1l-0.9-1.2
			c-0.4-0.5-0.8-0.9-1.4-0.9c-1,0-1.5,0.8-1.5,2.4v2.1l0.1,0.1H129z M123.1,13.9c0-1.1,0.1-2,0.3-2.7c-0.4-0.6-1-1.2-2-1.2
			c-1.4,0-2,1-2,3.2v1.2l0.1,0.1h3.4l0.1-0.1V13.9z"/>
		<path d="M154.2,20.6h1v0.8h-3.4v-0.8h1l0.1-0.1V11l-0.4-0.3c-0.5-0.4-1.1-0.8-1.8-0.8c-1.1,0-1.6,0.8-1.6,2.4v2.1l0.1,0.1h2.3v0.8
			h-2.3l-0.1,0.1v5.2l0.1,0.1h1v0.8h-3.4v-0.8h1l0.1-0.1v-5.2l-0.1-0.1h-3.4l-0.1,0.1v5.2l0.1,0.1h1v0.8H142v-0.8h1l0.1-0.1v-5.2
			l-0.1-0.1h-1v-0.8h1l0.1-0.1v-0.5c0-3.2,1.2-4.7,3.3-4.7c1,0,1.8,0.3,2.5,0.7c0.5-0.6,1.2-0.8,2.1-0.8c0.7,0,1.3,0.2,1.8,0.5
			L154,9l0.1,0.1L154.2,20.6L154.2,20.6z M147.9,13.9c0-1,0.1-1.9,0.3-2.6l-0.1-0.1c-0.4-0.6-1-1.3-1.9-1.3c-1.3,0-1.9,1-1.9,3.2
			v1.2l0.1,0.1h3.4l0.1-0.1V13.9z M159.5,20.6v0.8h-2l-3.2-3.8l2.6-2.1l-1-0.9v-0.1h3.4v0.1l-3.8,2.8c0.4,0.4,3,3.3,3,3.3H159.5z"/>
	</g>
	<rect x="0.5" y="0.5" class="st1" width="161.5" height="81"/>
	<line class="st1" x1="0.5" y1="54.5" x2="162" y2="54.5"/>
	<line class="st1" x1="0.5" y1="27.5" x2="162" y2="27.5"/>
	<line class="st1" x1="135.1" y1="0.5" x2="135.1" y2="81.5"/>
	<line class="st1" x1="108.2" y1="0.5" x2="108.2" y2="81.5"/>
	<line class="st1" x1="81.2" y1="0.5" x2="81.2" y2="81.5"/>
	<line class="st1" x1="54.3" y1="0.5" x2="54.3" y2="81.5"/>
	<line class="st1" x1="27.4" y1="0.5" x2="27.4" y2="81.5"/>
</g>
</svg>
