<svg xmlns="http://www.w3.org/2000/svg" viewBox="0 0 178.62 807.26"><defs><style>.cls-1{opacity:0.3;}.cls-2{fill:#7df451;}</style></defs><g id="Calque_2" data-name="Calque 2"><g id="Calque_1-2" data-name="Calque 1"><g class="cls-1"><path class="cls-2" d="M1.83,437.15l70.78-70.44L143,437.49,72.27,507.92Z"/></g><g class="cls-1"><path class="cls-2" d="M178.62,221.09v21.56H106.16V221.09h15.17L123,219.4V52.24l-9.43-10.11C100.77,28.65,91,21.57,79.2,21.57c-14.83,0-23.59,12.13-23.59,38.76V99.42l1.68,1.69H93.35v21.57H57.29l-1.68,2v94.7l1.68,1.69H72.46v21.56H0V221.09H15.17l1.68-1.69V124.7l-1.68-2H0V101.11H15.17l1.68-1.69V88.64C16.85,24.6,44.15,1,84.26,1c16.51,0,33,5.39,45.16,12.47L157.05,0l4.72,2.36v217l1.69,1.69Z"/></g><g class="cls-1"><path class="cls-2" d="M136,734.12c0,41.79-33.36,73.14-77.18,73.14A142.44,142.44,0,0,1,.13,795.12V736.48H5.52l9.1,14.16C33.16,779.28,42.6,787,60.8,787c19.54,0,33.36-15.84,33.36-44.15,0-32-17.52-49.54-49.2-49.54a120.32,120.32,0,0,0-35.39,5.39l-4.38-3,7.75-112.56H126.18V659.3h-5.06L97.19,618.52h-66l-4.72,59c12.47-5.73,27-9.43,38.76-9.43C109.66,668.07,136,693,136,734.12Z"/></g></g></g></svg>