<?xml version="1.0" encoding="utf-8"?>
<!-- Generator: Adobe Illustrator 25.4.1, SVG Export Plug-In . SVG Version: 6.00 Build 0)  -->
<svg version="1.1" id="Calque_1" xmlns="http://www.w3.org/2000/svg" xmlns:xlink="http://www.w3.org/1999/xlink" x="0px" y="0px"
	 viewBox="0 0 162.5 162.5" style="enable-background:new 0 0 162.5 162.5;" xml:space="preserve">
<style type="text/css">
	.st0{fill:none;stroke:#000000;stroke-miterlimit:10;}
	.st1{enable-background:new    ;}
</style>
<g id="Calque_1-2">
	<rect x="0.5" y="0.5" class="st0" width="161.5" height="161.5"/>
	<line class="st0" x1="0.5" y1="135.1" x2="162" y2="135.1"/>
	<line class="st0" x1="0.5" y1="108.2" x2="162" y2="108.2"/>
	<line class="st0" x1="0.5" y1="81.2" x2="162" y2="81.2"/>
	<line class="st0" x1="0.5" y1="54.3" x2="162" y2="54.3"/>
	<line class="st0" x1="0.5" y1="27.4" x2="162" y2="27.4"/>
	<line class="st0" x1="135.1" y1="0.5" x2="135.1" y2="162"/>
	<line class="st0" x1="108.2" y1="0.5" x2="108.2" y2="162"/>
	<line class="st0" x1="81.2" y1="0.5" x2="81.2" y2="162"/>
	<line class="st0" x1="54.3" y1="0.5" x2="54.3" y2="162"/>
	<line class="st0" x1="27.4" y1="0.5" x2="27.4" y2="162"/>
	<g class="st1">
		<path d="M7.7,16.3c0-2.7,1.7-4.3,3.9-4.3c2.3,0,3.9,1.5,3.9,4.3c0,2.8-1.7,4.4-3.9,4.4C9.3,20.6,7.7,19.1,7.7,16.3z M14.1,16.3
			c0-2.2-0.8-3.6-2.5-3.6c-1.6,0-2.5,1.5-2.5,3.6c0,2.2,0.8,3.7,2.5,3.7C13.3,19.9,14.1,18.5,14.1,16.3z"/>
		<path d="M36.6,19.6h1.8l0.1-0.1V13l-0.1-0.1h-1.8v-0.8h3.2v7.4l0.1,0.1h2v0.8h-5.3V19.6z"/>
		<path d="M68.2,18.2v2.2h-6v-0.6l1.4-1.3c1.3-1.3,2.8-2.6,2.8-4.2c0-0.9-0.5-1.6-1.5-1.6c-0.7,0-1.2,0.4-1.7,1.2L62.5,15h-0.1v-2.4
			C63,12.4,64,12,65,12c1.5,0,2.7,0.9,2.7,2.3c0,1.8-1.6,3-3.3,4.4l-0.8,0.6h3.7l0.1-0.1v-1H68.2z"/>
		<path d="M94.6,19.2c0,2.1-1.5,3.3-3.4,3.3c-0.9,0-1.7-0.3-2.5-0.7v-2.4h0.1l0.7,1.1c0.5,0.8,1,1.3,1.8,1.3c1.3,0,2-0.9,2-2.4
			c0-1.3-0.8-2.1-2.4-2.1H90v-0.8h0.6c1.4,0,2.3-0.9,2.3-2.1c0-1.2-0.6-1.8-1.5-1.8c-0.9,0-1.3,0.6-2,1.6L89,15H89v-2.4
			c0.6-0.3,1.4-0.7,2.5-0.7c1.7,0,2.7,1,2.7,2.4c0,1.2-0.7,2-1.7,2.4C93.8,17,94.6,17.9,94.6,19.2z"/>
		<path d="M120.4,19.7v1.7l0.1,0.1h1.2v0.8h-4v-0.8h1.5l0.1-0.1v-1.7h-4.6v-0.4l5-7.1h0.7v6.6h2.2l-0.3,0.9H120.4z M119.3,18.7V14
			l-3.4,4.8H119.3z"/>
	</g>
	<g class="st1">
		<path d="M153.1,18.9c0,2.3-1.5,3.7-3.6,3.7c-1,0-1.9-0.2-2.9-0.6v-2.5h0.1l0.7,1.1c0.6,1,1.2,1.4,2.3,1.4c1.1,0,2.1-0.9,2.1-2.7
			c0-1.5-0.8-2.6-2.4-2.6c-0.8,0-1.6,0.3-2.2,0.5l-0.3-0.2l0.4-5.2h5.3v2.7h-0.1l-1.1-1.4H148l-0.3,3.2c0.6-0.4,1.3-0.6,2.1-0.6
			C151.9,15.6,153.1,17.1,153.1,18.9z"/>
	</g>
	<g class="st1">
		<path d="M14.3,43.8c0,2.1-1.4,3.6-3.3,3.6c-2,0-3.3-1.6-3.3-4.1c0-3.3,2.3-6.1,5.9-7.3l0.2,0.6c-2,0.7-3.9,2.3-4.6,4.9
			c0.6-0.4,1.3-0.7,2.1-0.7C13.2,40.7,14.3,42.1,14.3,43.8z M13,44.2c0-1.5-0.7-2.5-2.2-2.5c-0.6,0-1.1,0.2-1.6,0.4
			C9.1,42.4,9,42.8,9,43.2c0,1.8,0.6,3.5,2,3.5C12.1,46.7,13,45.7,13,44.2z"/>
		<path d="M41.5,38.8L41.5,38.8l-4.1,10.3l-1.3-0.6l4.1-8.5H36l-1,1.8h-0.1v-2.9H41.5z"/>
		<path d="M68.4,44c0,1.9-1.4,3.3-3.5,3.3c-2.1,0-3.4-1.2-3.4-3c0-1.6,1-2.8,2.5-3.2c-0.9-0.6-1.8-1.5-1.8-2.7
			c0-1.6,1.3-2.8,2.9-2.8c1.9,0,2.8,1.1,2.8,2.4c0,1.2-0.8,2.1-2.1,2.7l0.3,0.2C67.5,41.8,68.4,42.8,68.4,44z M67.1,44.5
			c0-1-0.5-1.8-1.7-2.5l-0.9-0.6c-1.1,0.6-1.6,1.5-1.6,2.6c0,1.8,1,2.6,2.2,2.6S67.1,45.8,67.1,44.5z M64.9,40.1l0.5,0.3
			c0.8-0.7,1.2-1.4,1.2-2.4c0-1-0.6-1.7-1.6-1.7c-1,0-1.7,0.7-1.7,1.6C63.4,38.9,63.9,39.5,64.9,40.1z"/>
	</g>
	<g class="st1">
		<path d="M97.5,43c0,3-2.3,5.3-5.7,6.1l-0.2-0.5c2.4-0.9,3.6-2.1,4.1-3.6c-0.5,0.3-1.2,0.5-2.1,0.5c-1.6,0-2.7-1.2-2.7-2.9
			c0-1.8,1.3-3.4,3.2-3.4C96.7,39.2,97.5,41.2,97.5,43z M96,44.4c0.1-0.5,0.1-1,0.1-1.5c0-1.6-0.6-3.1-1.9-3.1
			c-1.1,0-1.9,1.1-1.9,2.4c0,1.4,0.6,2.4,2,2.4C94.9,44.7,95.5,44.6,96,44.4z"/>
	</g>
	<g class="st1">
		<path d="M118.3,43c0-2.7,1.7-4.3,3.9-4.3c2.3,0,3.9,1.5,3.9,4.3c0,2.8-1.7,4.4-3.9,4.4C120,47.3,118.3,45.8,118.3,43z M124.7,43
			c0-2.2-0.8-3.6-2.5-3.6c-1.6,0-2.5,1.5-2.5,3.6c0,2.2,0.8,3.7,2.5,3.7C123.9,46.7,124.7,45.2,124.7,43z"/>
		<path d="M147.3,46.3h1.8l0.1-0.1v-6.5l-0.1-0.1h-1.8v-0.8h3.2v7.4l0.1,0.1h2v0.8h-5.3V46.3z"/>
	</g>
	<g class="st1">
		<path d="M14.3,68.7v2.2h-6v-0.6L9.7,69c1.3-1.3,2.8-2.6,2.8-4.2c0-0.9-0.5-1.6-1.5-1.6c-0.7,0-1.2,0.4-1.7,1.2l-0.7,1.2H8.6v-2.4
			c0.5-0.3,1.5-0.7,2.5-0.7c1.5,0,2.7,0.9,2.7,2.3c0,1.8-1.6,3-3.3,4.4l-0.8,0.6h3.7l0.1-0.1v-1H14.3z"/>
		<path d="M40.7,69.7c0,2.1-1.5,3.3-3.4,3.3c-0.9,0-1.7-0.3-2.5-0.7v-2.4h0.1l0.7,1.1c0.5,0.8,1,1.3,1.8,1.3c1.3,0,2-0.9,2-2.4
			c0-1.3-0.8-2.1-2.4-2.1h-0.9V67h0.6c1.4,0,2.3-0.9,2.3-2.1c0-1.2-0.6-1.8-1.5-1.8s-1.3,0.6-2,1.6l-0.4,0.8H35v-2.4
			c0.6-0.3,1.4-0.7,2.5-0.7c1.7,0,2.7,1,2.7,2.4c0,1.2-0.7,2-1.7,2.4C39.8,67.5,40.7,68.4,40.7,69.7z"/>
		<path d="M66.5,70.2v1.7l0.1,0.1h1.2v0.8h-4V72h1.5l0.1-0.1v-1.7h-4.6v-0.4l5-7.1h0.7v6.6h2.2l-0.3,0.9H66.5z M65.4,69.2v-4.8
			L62,69.2H65.4z"/>
		<path d="M94.9,69.5c0,2.1-1.4,3.6-3.5,3.6c-0.9,0-1.9-0.2-2.7-0.6V70h0.1l0.6,1c0.6,1,1.2,1.4,2.2,1.4c1.1,0,2-0.8,2-2.6
			c0-1.5-0.8-2.5-2.3-2.5c-0.8,0-1.5,0.3-2.1,0.5l-0.3-0.2l0.4-4.9h5.1v2.6h-0.1l-1-1.4H90l-0.3,3.1c0.6-0.4,1.3-0.6,2-0.6
			C93.8,66.3,94.9,67.7,94.9,69.5z"/>
		<path d="M121.7,67.5c0,2.1-1.4,3.6-3.3,3.6c-2,0-3.3-1.6-3.3-4.1c0-3.3,2.3-6.1,5.9-7.3l0.2,0.6c-2,0.7-3.9,2.3-4.6,4.9
			c0.6-0.4,1.3-0.7,2.1-0.7C120.6,64.5,121.7,65.9,121.7,67.5z M120.4,67.9c0-1.5-0.7-2.5-2.2-2.5c-0.6,0-1.1,0.2-1.6,0.4
			c-0.1,0.4-0.1,0.8-0.1,1.2c0,1.8,0.6,3.5,2,3.5C119.5,70.4,120.4,69.5,120.4,67.9z"/>
		<path d="M148.9,62.6L148.9,62.6l-4.1,10.3l-1.3-0.6l4.1-8.5h-4.3l-1,1.8h-0.1v-2.9H148.9z"/>
	</g>
	<g class="st1">
		<path d="M15.9,95.8c0,1.9-1.4,3.3-3.5,3.3c-2.1,0-3.4-1.2-3.4-3c0-1.6,1-2.8,2.5-3.2c-0.9-0.6-1.8-1.5-1.8-2.7
			c0-1.6,1.3-2.8,2.9-2.8c1.9,0,2.8,1.1,2.8,2.4c0,1.2-0.8,2.1-2.1,2.7l0.3,0.2C15,93.6,15.9,94.5,15.9,95.8z M14.6,96.3
			c0-1-0.5-1.8-1.7-2.5l-0.9-0.6c-1.1,0.6-1.6,1.5-1.6,2.6c0,1.8,1,2.6,2.2,2.6S14.6,97.5,14.6,96.3z M12.4,91.9l0.5,0.3
			c0.8-0.7,1.2-1.4,1.2-2.4c0-1-0.6-1.7-1.6-1.7c-1,0-1.7,0.7-1.7,1.6C10.9,90.7,11.4,91.2,12.4,91.9z"/>
		<path d="M43.5,94.5c0,3.2-2.4,5.7-6.1,6.5l-0.2-0.5c2.5-1,3.9-2.2,4.4-3.8c-0.5,0.3-1.3,0.6-2.2,0.6c-1.7,0-2.9-1.3-2.9-3.1
			c0-1.9,1.4-3.7,3.5-3.7C42.6,90.4,43.5,92.5,43.5,94.5z M41.8,96c0.1-0.5,0.2-1,0.2-1.6c0-1.7-0.6-3.3-2-3.3c-1.2,0-2,1.1-2,2.6
			c0,1.5,0.6,2.6,2.2,2.6C40.6,96.3,41.3,96.2,41.8,96z"/>
		<path d="M66.4,97.7c-0.2,0-0.3,0-0.5,0l-0.3,1.1h-0.6l0.3-1.2c-1-0.4-1.6-1.3-1.6-2.4c0-1.8,1.3-2.9,2.9-2.9h0.1l0.3-1h0.6
			l-0.3,1.1c0.3,0.1,0.5,0.1,0.8,0.2v1.7h-0.1l-0.8-1.1c0,0-0.1-0.1-0.1-0.1l-1.1,3.8c0.2,0.1,0.5,0.2,0.8,0.2
			c0.5,0,0.9-0.1,1.3-0.3l0.2,0.3C67.9,97.4,67.2,97.7,66.4,97.7z M65.7,96.5l1-3.7c-0.1,0-0.2,0-0.3,0c-0.8,0-1.4,0.6-1.4,1.9
			C65.1,95.5,65.3,96.1,65.7,96.5z"/>
		<path d="M91.4,99v1.1h-0.8v-1c-0.8,0-1.6-0.3-2.2-0.6v-2.1h0.1l0.6,1.1c0.4,0.6,0.9,0.9,1.5,0.9v-3.2c-1.1-0.5-2.2-1.1-2.2-2.5
			c0-1.2,0.9-2,2.2-2.2v-0.9h0.8v0.8c0.6,0,1.3,0.2,1.8,0.5V93h-0.1l-0.6-1c-0.3-0.5-0.7-0.7-1.2-0.9v3c1.1,0.5,2.2,1.2,2.2,2.6
			C93.7,98,92.8,98.8,91.4,99z M90.7,93.7v-2.6c-0.7,0.1-1.1,0.5-1.1,1.2C89.6,93,90,93.3,90.7,93.7z M92.6,97.1
			c0-0.7-0.5-1.1-1.2-1.5v2.8C92.2,98.2,92.6,97.8,92.6,97.1z"/>
		<path d="M120.7,96.1v2.3c-0.6,0.3-1.4,0.6-2.4,0.6c-1.8,0-3.2-1.1-3.6-3.1h-1.3l0.1-0.7h1.1c0-0.1,0-0.3,0-0.4c0-0.2,0-0.4,0-0.6
			h-1l0.1-0.7h1c0.5-2,2-3.1,3.7-3.1c0.9,0,1.5,0.2,2.1,0.4v2.2h-0.1l-0.5-0.8c-0.4-0.8-0.9-1.2-1.7-1.2c-1.2,0-1.9,1-2.1,2.4h3
			l-0.1,0.7h-3c0,0.1,0,0.3,0,0.4c0,0.2,0,0.4,0,0.5h2.8l-0.1,0.7h-2.7c0.3,1.6,1.1,2.5,2.2,2.5c0.9,0,1.4-0.4,1.8-1.2l0.5-1.1
			H120.7z"/>
		<path d="M146.4,90.1v1.6h-0.1l-0.7-0.7c-0.2-0.2-0.4-0.4-0.7-0.4c-0.6,0-0.8,0.5-0.9,2.1l-0.1,0.8h1.7v0.7h-1.7l-0.4,3.1
			c-0.3,2.4-0.8,3.5-2.2,3.5c-0.4,0-0.8-0.1-1.1-0.2v-1.6h0.1l0.5,0.6c0.3,0.3,0.5,0.5,0.8,0.5c0.5,0,0.6-0.6,0.8-1.7l0.5-4.2h-1
			v-0.7h1.1v-0.1c0.3-2.5,1-3.5,2.4-3.5C145.7,89.9,146.1,90,146.4,90.1z"/>
	</g>
	<g class="st1">
		<path d="M14.9,123.6v2.3H8.8v-0.7h0.7c0.7-0.3,1-0.8,1-1.5c0-0.5-0.2-1-0.4-1.3H8.9v-0.7h0.8c-0.4-0.5-0.7-1-0.7-1.8
			c0-1.5,1.2-2.4,3-2.4c0.7,0,1.4,0.1,2,0.4v2.1h-0.1l-0.3-0.4c-0.5-0.8-1-1.4-1.9-1.4c-0.9,0-1.5,0.6-1.5,1.5c0,0.8,0.4,1.4,0.8,2
			h2.4v0.7h-2.1c0.1,0.3,0.2,0.7,0.2,1c0,0.7-0.4,1.4-1,1.8h3.3l0.9-1.6H14.9z"/>
		<path d="M42.4,117.6v0.2l-1.2,0.7l-1.6,2.3h1.3v0.7h-1.8l-0.4,0.5v0.5h2.2v0.7h-2.2v2l0.1,0.1h1v0.7h-3.4v-0.7h1l0.1-0.1v-2h-2.1
			v-0.7h2.1v-0.4l-0.4-0.6h-1.7v-0.7h1.3l-1.6-2.3l-1.1-0.7v-0.2h3.8v0.2l-1.2,0.7l1.9,2.9h0l2-2.9l-1.1-0.7v-0.2H42.4z"/>
		<path d="M63.9,124.7c-0.2,0-0.3,0-0.5,0l-0.3,1.1h-0.6l0.3-1.2c-1-0.4-1.6-1.3-1.6-2.4c0-1.8,1.3-2.9,2.9-2.9h0.1l0.3-1h0.6
			l-0.3,1.1c0.3,0.1,0.5,0.1,0.8,0.2v1.7h-0.1l-0.8-1.1c0,0-0.1-0.1-0.1-0.1l-1.1,3.8c0.2,0.1,0.5,0.2,0.8,0.2
			c0.5,0,0.9-0.1,1.3-0.3L66,124C65.4,124.4,64.7,124.7,63.9,124.7z M63.2,123.5l1-3.7c-0.1,0-0.2,0-0.3,0c-0.8,0-1.4,0.6-1.4,1.9
			C62.6,122.5,62.8,123.1,63.2,123.5z"/>
		<path d="M89,126v1.1h-0.8v-1c-0.8,0-1.6-0.3-2.2-0.6v-2.1H86l0.6,1.1c0.4,0.6,0.9,0.9,1.5,0.9v-3.2c-1.1-0.5-2.2-1.1-2.2-2.5
			c0-1.2,0.9-2,2.2-2.2v-0.9H89v0.8c0.6,0,1.3,0.2,1.8,0.5v2.1h-0.1l-0.6-1c-0.3-0.5-0.7-0.7-1.1-0.9v3c1.1,0.5,2.2,1.2,2.2,2.6
			C91.2,125,90.3,125.8,89,126z M88.2,120.7v-2.6c-0.7,0.1-1.1,0.5-1.1,1.2C87.1,120,87.5,120.3,88.2,120.7z M90.1,124.1
			c0-0.7-0.5-1.1-1.2-1.5v2.8C89.7,125.2,90.1,124.8,90.1,124.1z"/>
		<path d="M118.2,123.1v2.3c-0.6,0.3-1.4,0.6-2.4,0.6c-1.8,0-3.2-1.1-3.6-3.1h-1.3l0.1-0.7h1.1c0-0.1,0-0.3,0-0.4c0-0.2,0-0.4,0-0.6
			h-1l0.1-0.7h1c0.5-2,2-3.1,3.7-3.1c0.9,0,1.5,0.2,2.1,0.4v2.2h-0.1l-0.5-0.8c-0.4-0.8-0.9-1.2-1.7-1.2c-1.2,0-1.9,1-2.1,2.4h3
			l-0.1,0.7h-3c0,0.1,0,0.3,0,0.4c0,0.2,0,0.4,0,0.5h2.8l-0.1,0.7h-2.7c0.3,1.6,1.1,2.5,2.2,2.5c0.9,0,1.4-0.4,1.8-1.2l0.5-1.1
			H118.2z"/>
		<path d="M143.9,117.1v1.6h-0.1l-0.7-0.7c-0.2-0.2-0.4-0.4-0.7-0.4c-0.6,0-0.8,0.5-0.9,2.1l-0.1,0.8h1.7v0.7h-1.7l-0.4,3.1
			c-0.3,2.4-0.8,3.5-2.2,3.5c-0.4,0-0.8-0.1-1.1-0.2v-1.6h0.1l0.5,0.6c0.3,0.3,0.5,0.5,0.8,0.5c0.5,0,0.6-0.6,0.8-1.7l0.5-4.2h-1
			v-0.7h1.1v-0.1c0.3-2.5,1-3.5,2.4-3.5C143.2,116.9,143.6,117,143.9,117.1z"/>
	</g>
	<g class="st1">
		<path d="M15.9,149.6v2.3H9.8v-0.7h0.7c0.7-0.3,1-0.8,1-1.5c0-0.5-0.2-1-0.4-1.3H9.9v-0.7h0.8c-0.4-0.5-0.7-1-0.7-1.8
			c0-1.5,1.2-2.4,3-2.4c0.7,0,1.4,0.1,2,0.4v2.1h-0.1l-0.3-0.4c-0.5-0.8-1-1.4-1.9-1.4c-0.9,0-1.5,0.6-1.5,1.5c0,0.8,0.4,1.4,0.8,2
			h2.4v0.7h-2.1c0.1,0.3,0.2,0.7,0.2,1c0,0.7-0.4,1.4-1,1.8h3.3l0.9-1.6H15.9z"/>
		<path d="M43.4,143.6v0.2l-1.2,0.7l-1.6,2.3h1.3v0.7h-1.8l-0.4,0.5v0.5h2.2v0.7h-2.2v2l0.1,0.1h1v0.7h-3.4v-0.7h1l0.1-0.1v-2h-2.1
			v-0.7h2.1v-0.4l-0.4-0.6h-1.7v-0.7h1.3l-1.6-2.3l-1.1-0.7v-0.2h3.8v0.2l-1.2,0.7l1.9,2.9h0l2-2.9l-1.1-0.7v-0.2H43.4z"/>
	</g>
</g>
</svg>
