<svg xmlns="http://www.w3.org/2000/svg" viewBox="0 0 70.04 70.04"><g id="Calque_2" data-name="Calque 2"><g id="Calque_1-2" data-name="Calque 1"><circle cx="35.02" cy="35.02" r="35.02"/><path d="M14.84,41.87a16.86,16.86,0,0,1-.89-5.5,15.24,15.24,0,0,1,.86-5.31,12.18,12.18,0,0,1,11.93-8c6.47,0,11,3.88,11.43,9.45h-4.6c-.47-3.27-3.2-5.28-6.83-5.28a7.69,7.69,0,0,0-7.51,5.28,11.47,11.47,0,0,0-.61,3.81,11.91,11.91,0,0,0,.61,4.06,7.25,7.25,0,0,0,7,5,6.49,6.49,0,0,0,6.87-5.92H25.88v-3.9H37.3V48.82H33.1l1-5.57h-.61a8,8,0,0,1-8.16,6.14A11,11,0,0,1,14.84,41.87Z" style="fill:#0f9"/><path d="M45.23,27.82H37.54V23.65H57.38v4.17H49.69v21H45.23Z" style="fill:#0f9"/><path d="M13.63,40.66a16.87,16.87,0,0,1-.9-5.5,15.54,15.54,0,0,1,.87-5.32,12.19,12.19,0,0,1,11.93-8c6.47,0,11,3.88,11.43,9.45h-4.6C31.89,28,29.16,26,25.53,26A7.68,7.68,0,0,0,18,31.29a11.47,11.47,0,0,0-.61,3.81A12.16,12.16,0,0,0,18,39.16a7.25,7.25,0,0,0,7,5,6.5,6.5,0,0,0,6.83-5.93H24.63V34.32H36.1V47.56H31.93l1-5.57h-.61a8,8,0,0,1-8.16,6.14A11,11,0,0,1,13.63,40.66Z" style="fill:#fff"/><path d="M44,26.61H36.33V22.44H56.17v4.17H48.48v21H44Z" style="fill:#fff"/></g></g></svg>