<svg xmlns="http://www.w3.org/2000/svg" viewBox="0 0 268.91 54.45"><g id="Calque_2" data-name="Calque 2"><g id="Calque_1-2" data-name="Calque 1"><path d="M1.91,47.4a9.44,9.44,0,0,1,0-6.21c2.46-6.61,12.56-9.08,22.27-9.08,11.61,0,18.68,2.73,19.53,8.18H29.32c-.61-1.1-2.79-1.8-5.28-1.8-3.54,0-7,1.48-7.92,4.18a4.36,4.36,0,0,0-.26,1.51,4.45,4.45,0,0,0,.26,1.54c.67,1.94,2.78,3.19,5.69,3.19s4.72-1.13,5.3-2.06H20.85l1-4.93H41.76L39.53,53.43H27l2.87-4.9h-.76c-2.23,3.19-5,5.92-12.5,5.92C9.71,54.45,3.65,52.24,1.91,47.4Z" style="fill:#0f9"/><path d="M54.31,39.51h-10l1.25-6.38H79.72l-1.25,6.38h-10l-2.7,13.92H51.61Z" style="fill:#0f9"/><path d="M89.47,33.13h30l-1.13,5.8H102.47l-.4,2.17h15.4l-1,5.52H101l-1.33,6.81H85.47Z" style="fill:#0f9"/><path d="M123.13,33.13h14.15l-2.7,13.92h15.47l-1.25,6.38H119.18Z" style="fill:#0f9"/><path d="M156.3,33.13h30.08l-1.13,5.8H169.33L169,40.52h15.46l-1,5.52H168l-.32,1.59h15.93l-1.1,5.8H152.36Z" style="fill:#0f9"/><path d="M197.77,43.19l-9.3-10.06h14.24l3.8,5,.06,2.61h.76l.66-2.61,5.69-5h15.4L215.93,43.19l9.23,10.24H210.77l-3.63-5.13V45.69h-.76l-.58,2.61-5.66,5.13H184.55Z" style="fill:#0f9"/><path d="M241.47,33.13h19.37l8.07,20.3H254.7l-1.23-4.49h-10l-3,4.49H225.52Zm10.21,9.66-.57-2.07.11-3.92h-.75l-1.36,3.92-1.42,2.09Z" style="fill:#0f9"/><path d="M1,46.44a9.25,9.25,0,0,1-.49-3A9,9,0,0,1,1,40.28c2.46-6.66,12.46-9.12,22.22-9.12,11.6,0,18.68,2.72,19.52,8.18H28.36c-.61-1.11-2.78-1.8-5.28-1.8-3.54,0-7,1.48-7.92,4.17a4.54,4.54,0,0,0,0,3c.67,2,2.79,3.19,5.69,3.19s4.73-1.13,5.31-2.06H19.89l1-4.93h20L38.57,52.48H26l2.87-4.91h-.75c-2.24,3.19-5,5.92-12.5,5.92C8.75,53.49,2.69,51.29,1,46.44Z"/><path d="M53.35,38.55h-10l1.24-6.38H78.77l-1.25,6.38h-10l-2.7,13.93H50.66Z"/><path d="M88.47,32.17h30.08L117.47,38h-16l-.41,2.18h15.46l-1,5.51H100l-1.34,6.82H84.53Z"/><path d="M122.17,32.17h14.16l-2.7,13.93h15.46l-1.25,6.38H118.23Z"/><path d="M155.35,32.17h30.12L184.33,38h-16l-.32,1.6h15.42l-1,5.51H167l-.32,1.6h15.92l-1.14,5.8H151.4Z"/><path d="M196.82,42.24l-9.29-10.07h14.25l3.8,5,.06,2.61h.75l.67-2.61,5.68-5h15.4L215,42.24l9.22,10.24H209.81l-3.62-5.14-.06-2.62h-.76l-.58,2.61-5.65,5.14H183.59Z"/><path d="M240.52,32.17H259.9L268,52.48H253.75L252.47,48h-9.92l-3.08,4.5h-14.9Zm10.21,9.66-.58-2.11.12-3.91h-.8l-1.32,3.91-1.42,2.09Z"/><path d="M7.67,6.84H0V.44H23.9v6.4H16.23V27.92H7.67Z"/><path d="M45.62,19.22,35.67.44h9l5.11,11.14h.16L55.05.44h9l-10,18.78v8.7H45.62Z"/><path d="M77,.44h8.55V27.92H77Zm4.3,14H88a5,5,0,0,0,3.32-1,3.64,3.64,0,0,0,1.2-3h0a3.6,3.6,0,0,0-1.2-3,5.12,5.12,0,0,0-3.32-1H81.31v-6H90a13.12,13.12,0,0,1,5.91,1.28A9.25,9.25,0,0,1,99.78,5.2a10,10,0,0,1,1.37,5.3h0a9.82,9.82,0,0,1-1.37,5.27,9,9,0,0,1-3.85,3.44A13.36,13.36,0,0,1,90,20.42H81.31Z"/><path d="M120.58,26.72a12.08,12.08,0,0,1-5.11-4.95,15.27,15.27,0,0,1-1.79-7.58h0a15.16,15.16,0,0,1,1.8-7.57,12.34,12.34,0,0,1,5.12-4.9,18.57,18.57,0,0,1,15.6,0,12.2,12.2,0,0,1,5.08,4.91,15.12,15.12,0,0,1,1.79,7.56h0a15.17,15.17,0,0,1-1.79,7.53,12.1,12.1,0,0,1-5.07,5A18.42,18.42,0,0,1,120.58,26.72Zm11-5.8a5.89,5.89,0,0,0,2.06-2.64,10.43,10.43,0,0,0,.73-4.06h0a10.29,10.29,0,0,0-.74-4.06,5.9,5.9,0,0,0-2.08-2.63,5.79,5.79,0,0,0-6.27,0,5.93,5.93,0,0,0-2.08,2.62,10.39,10.39,0,0,0-.74,4.08h0a10.33,10.33,0,0,0,.74,4.08,5.59,5.59,0,0,0,8.38,2.63Z"/><path d="M154.47.44h8.84l3.36,16.82h.16L171,.44h7l4.14,16.82h.16L185.62.44h8.85l-7.54,27.48h-8.46l-3.93-14.8h-.16l-3.91,14.8H162Z"/><path d="M207.52.44h20.55v6.4h-12v4.38h11.24v5.94H216.08v4.36h12v6.4H207.52Z"/><path d="M242.32.44h8.56V27.92h-8.56Zm4.28,22h7.93a5.17,5.17,0,0,0,3.06-.77,2.55,2.55,0,0,0,1.08-2.22h0a2.64,2.64,0,0,0-.5-1.6,3.07,3.07,0,0,0-1.45-1,7.31,7.31,0,0,0-2.37-.34H246.6v-5h7.34a4.69,4.69,0,0,0,2.91-.77,2.49,2.49,0,0,0,1-2.1h0a2.35,2.35,0,0,0-1-2A4.14,4.14,0,0,0,254.32,6h-7.71V.44h10a14.51,14.51,0,0,1,5.14.83A7.18,7.18,0,0,1,265,3.65a6.21,6.21,0,0,1,1.13,3.72h0a5.3,5.3,0,0,1-.79,2.88,6,6,0,0,1-2.15,2.08,7.57,7.57,0,0,1-3.06,1v.15a8.24,8.24,0,0,1,3.61.9,7.12,7.12,0,0,1,2.65,2.34,5.58,5.58,0,0,1,1,3.23h0a7,7,0,0,1-1.27,4.16,8.21,8.21,0,0,1-3.58,2.77,13.46,13.46,0,0,1-5.43,1H246.6Z"/></g></g></svg>