<svg xmlns="http://www.w3.org/2000/svg" viewBox="0 0 47.93 18.08"><defs><style>.cls-1{fill:#fff;}</style></defs><g id="Calque_2" data-name="Calque 2"><g id="Calque_1-2" data-name="Calque 1"><path class="cls-1" d="M5,4.9A4.59,4.59,0,0,1,9.75,9.49,8.32,8.32,0,0,1,9.64,11H2.43a2.41,2.41,0,0,0,2.66,2.65,2,2,0,0,0,2.17-1.33h2.4a4.34,4.34,0,0,1-4.57,3.32C1.68,15.61,0,13,0,10.25,0,7.19,1.81,4.9,5,4.9Zm2.4,4.3A2.25,2.25,0,0,0,5,6.89,2.27,2.27,0,0,0,2.45,9.2Z"/><path class="cls-1" d="M13,0a1.59,1.59,0,1,1-1.57,1.6A1.59,1.59,0,0,1,13,0ZM11.82,15.35V5.16h2.39V15.35Z"/><path class="cls-1" d="M16.8,15.35V0h2.39V9.66l3.73-4.5h3l-4.24,5.09,4.24,5.1h-3l-3.73-4.49v4.49Z"/><path class="cls-1" d="M31.13,4.9a5.25,5.25,0,0,1,5.4,5.35,5.38,5.38,0,0,1-10.76,0A5.23,5.23,0,0,1,31.13,4.9Zm0,8.59a3.06,3.06,0,0,0,3-3.24,3.05,3.05,0,0,0-3-3.23,3,3,0,0,0-3,3.23A3,3,0,0,0,31.13,13.49Z"/><path class="cls-1" d="M38.28,15.35V5.16h2.38V6.58A3.58,3.58,0,0,1,44,4.9a3.49,3.49,0,0,1,3.07,1.37,5.16,5.16,0,0,1,.65,3v6.06H45.32V10.08c0-1.75-.53-3.09-2.21-3.09s-2.45,1.34-2.45,3.09v5.27Z"/><polygon class="cls-1" points="20.94 16.99 0.35 16.99 0.35 18.08 21.45 18.08 20.94 16.99"/><polygon class="cls-1" points="22.44 16.99 22.95 18.08 47.93 18.08 47.93 16.99 22.44 16.99"/></g></g></svg>