<svg xmlns="http://www.w3.org/2000/svg" viewBox="0 0 35.41 34.97"><defs><style>.cls-1{fill:#e3d5b6;}.cls-2,.cls-3,.cls-4{fill:#567d4d;}.cls-2{stroke:#567d4d;}.cls-2,.cls-4{stroke-miterlimit:10;stroke-width:0.25px;}.cls-4{stroke:#e3d5b6;}</style></defs><g id="Calque_2" data-name="Calque 2"><g id="Header"><rect class="cls-1" width="35.41" height="34.97"/><rect class="cls-2" x="6.27" y="6.29" width="23.85" height="0.02"/><rect class="cls-2" x="5.69" y="28.53" width="23.85" height="0.02"/><path class="cls-3" d="M25.89,17.06a6.28,6.28,0,0,0-.52.38l-5.09,3.82-2.42,1.82-.08.06a.09.09,0,0,1-.13,0c-.26-.2-.52-.4-.79-.59l-5.54-4.16L9.64,17.12l-.09-.06,0,0c.05,0,0-.09,0-.13V8.19a.26.26,0,0,1,.09.05l3.84,2.89,3.94,3,.24.18c.07.05.07.05.14,0l1.07-.81,4.86-3.65,2.09-1.57a.16.16,0,0,1,.08-.05v8.87Z"/><path class="cls-3" d="M9.51,17l0,0a.76.76,0,0,0,0,.15V28.5c0,.17,0,.15-.14.15-1.54,0-3.08,0-4.62,0a2,2,0,0,1-1.85-1.16,1.84,1.84,0,0,1-.2-.86V12.06a.25.25,0,0,1,0-.12l.08.06,6,4.55Z"/><path class="cls-3" d="M25.89,17.06v0L26,17l2.33-1.75,3.47-2.6.93-.7a.25.25,0,0,1,0,.12V26.63a2,2,0,0,1-1.63,2,3.13,3.13,0,0,1-.43,0H26c-.15,0-.13,0-.13-.13V17.06Z"/><path class="cls-4" d="M32.69,12l-.93.7-3.47,2.6L26,17l-.07,0V8.19c.18-.16.37-.29.56-.43l1.36-1A3,3,0,0,1,30,6.15a3.07,3.07,0,0,1,2.69,2.5,3.52,3.52,0,0,1,0,.56v2.62A.25.25,0,0,1,32.69,12Z"/><path class="cls-4" d="M9.51,17l-.64-.47L2.82,12l-.08-.06a.17.17,0,0,1,0-.1c0-.88,0-1.76,0-2.64A3,3,0,0,1,4.44,6.45a3,3,0,0,1,3.16.27c.64.46,1.26,1,1.9,1.42,0,0,0,0,0,0v8.7S9.56,17,9.51,17Z"/></g></g></svg>