<svg xmlns="http://www.w3.org/2000/svg" viewBox="0 0 402.28 565.1"><defs><style>.cls-1{fill:#837565;}</style></defs><g id="Calque_2" data-name="Calque 2"><g id="Calque_1-2" data-name="Calque 1"><path class="cls-1" d="M208.22,36.1c0,.31.07.69.11,1.11A.87.87,0,0,0,208.22,36.1Z"/><path class="cls-1" d="M257.08,373.11a15.46,15.46,0,0,1,3,.08c.58.12,1,1,1.61,1.09a22.08,22.08,0,0,0,3.36.29,22.94,22.94,0,0,0-1-5.11c-.31-.72-1.88-.75-2.78-1.27-5.75-3.33-11.25-7-12.27-14.66-.41-3.07.37-6.53-.68-9.24-1.38-3.56-2.59-6.47.24-9.79.28-.32-1-2.12-1.54-3.24a22.47,22.47,0,0,0-1.4,2c-1.14,2.1-2.06,4.37-3.39,6.32-1.61,2.36-3.6,4.43-5.34,6.7-.37.49-.26,1.36-.57,1.94-.18.32-.76.39-1.16.57l.22-1.92c-.43.06-1-.06-1.26.19-7.12,6.29-14.12,12.71-21.33,18.88-2.49,2.12-4.8,5-8.7,4.33a13.72,13.72,0,0,0-5.4-.23c-3.05.74-3.85-.85-3.83-3.43,0-3-4.63-2.64-3.81-6.11a.84.84,0,0,0-.38-.06c-3.25.85-3.14-1.43-3.18-3.71a24.65,24.65,0,0,0-.51-3.38c-3.09,2.31-3.53-2.49-6-2.55-1.59-.05-2.87-6.18-2.07-8.07a4.83,4.83,0,0,0,.14-1.44,14.74,14.74,0,0,1-1.77-.15,19.82,19.82,0,0,1-2.82-.79c.46-2.56-.39-3.43-2.83-3-.38.06-1-1.11-1.45-1.79-2.9-4.67-4.9-10-7-14.92-3.21-7.45-5.1-15.62-8.64-23.06a10,10,0,0,1-.54-3.19c-.3-3-.55-5.92-.82-8.89a6.21,6.21,0,0,0-.89,3.92c0,2.34.24,4.69.12,7,0,.78-.83,1.52-1.28,2.28a11.77,11.77,0,0,1-1.7-1.44,22.12,22.12,0,0,1-1.48-2.31l-2.43,4.52a9.39,9.39,0,0,1,1.61,1c1,.89,1.86,1.88,2.79,2.82-.93.21-1.95.79-2.78.57-3.07-.81-6.09-1.82-9.09-2.89a10.93,10.93,0,0,1-2.34-1.6,21.4,21.4,0,0,1,1.73-1.93c2.86-2.46,3-4.76,1.33-8.27a20.28,20.28,0,0,1-1.74-7.56c-.15-3.48,1.68-4.74,4.88-3.52,2.54,1,4.86,1.27,7.39,0,2.37-1.22,4.88-1.94,7.09.76-.35.15-.67.26-1,.41-.69.36-1.79.61-1.94,1.15a3.06,3.06,0,0,0,.5,2.59c.47.39,1.68,0,2.47-.28,3-1.14,5.71-2.59,5.28-6.85a3.52,3.52,0,0,1,1.3-2.36c4.62-4,8.69-8.95,15.44-9a10.89,10.89,0,0,0,5.88-1.59c3.95-2.73,8.14-2.52,12.45-2.13.68.06,1.37,0,2.06,0-.43-.64-.74-1.57-1.32-1.87-1-.52-2.57-.3-3.26-1-.87-.95-1.9-3.31-1.51-3.75,3.86-4.41-.51-3-2-3.24-5.11-.91-10.26-1.63-15.36-2.6-.83-.16-2.21-1.38-2.12-1.86a60.92,60.92,0,0,1,1.92-6.8l.65.25,5.88,2.14.42-1c-1-.66-2.05-1.29-3-2-.59-.42-1.11-.94-1.66-1.41a13.18,13.18,0,0,0,2.17-.84c.33-.2.36-.88.67-1.19,1.12-1.15,2.29-2.25,3.48-3.31.18-.16.83-.11.89,0,1,2.33,1.85,4.77,3,7a7.39,7.39,0,0,0,2.75,2.9,14.52,14.52,0,0,0,4.35,1.24,13.86,13.86,0,0,0,2.58,0c-.66-.62-1.29-1.73-2-1.78-4-.25-4.85-3.46-5.75-6.61a5.74,5.74,0,0,1,.16-2c.75.27,1.52.49,2.25.82a10.78,10.78,0,0,1,1.43.91c1.6-3.71,6-5.81,5.38-10.85a7.4,7.4,0,0,1,.63-4.43c2.64-4.19,1-7.22-1.06-11.08-1-1.83-6.47-7.38,1.49-8.68.15,0,.25-.42.38-.64-.43-.15-.88-.47-1.28-.42-3,.4-5.35,0-7.81-2.63-1.88-2-5-4-8.41-2.29-.5.26-1.31-.17-2-.28.48-.47.89-1.17,1.46-1.37,4-1.42,7.2.6,10.29,2.89,2.84,2.1,5.09,2.53,7.19-1.38s3.73-3.87,7-.77c1.13,1.09,3.38,2.46,4.24,2,3-1.69,2.54,1.6,3.7,2.41.32.22.23,1.09.33,1.66.7-.36,1.63-.55,2-1.14a3.15,3.15,0,0,0-.08-2.17c-.52-1.73-1.18-3.42-1.76-5.14-1-3-2.1-6.07-3-9.15a69.61,69.61,0,0,1-2.8-10,31.77,31.77,0,0,1,.24-8.7c.11-.81,1.57-1.53,2.52-2.07.63-.36,1.59-.11,2.17-.51,3.79-2.58,6.26-8.08,4.88-12.69-1.88-6.28.38-11,3.54-16,3.47-5.47,8.67-6.1,13.75-5.7s9.82,2.37,14.72,3.65c1.63.43,3.27.83,4.91,1.25,0-1.71.06-3.43-.09-5.12a16.5,16.5,0,0,0-.79-3c-1,1-2.06,2-3.12,3-.79.71-1.66,2-2.43,2-3.24-.21-6.2-1-6.05-5.61,0-1.3-.68-2.61-.78-4-.32-4-1.46-8.27-.48-11.9,1.12-4.08,4.29-7.51,6.32-11.38.38-.72-.4-2.13-.65-3.22-.47.35-1,.67-1.41,1-1.26,1.06-2.5,2.15-3.74,3.23-.77-1.1-1.48-2.25-2.32-3.29s-1.86-2.84-2.71-2.79c-2.65.17-2.25-1.74-2.92-3.29-.84-1.91-2.66-5.11-3.51-4.93-3,.66-3.11-1.15-3.54-3.13-.06-.29-.45-.5-.69-.75-.16.46-.59,1.09-.44,1.35,1.51,2.61,3.22,5.11,4.67,7.76a70.35,70.35,0,0,1,4.32,8.91c.65,1.71.07,3.94.72,5.64.87,2.24,3,4,3.51,6.3.92,4.31,1,8.81,1.54,13.75-1.75-1.57-3.24-3-4.79-4.28-.89-.75-2.61-1.28-2.72-2.09-.91-7-1.51-14-2.28-21.07a8.56,8.56,0,0,0-.95-2.85c-.11-.23-1.39-.12-1.4,0a23.15,23.15,0,0,1-.24,2.92c-.72,2.46-1.59,4.88-2.5,7.26-.07.19-1.36.17-1.41,0-.75-2.48-1.4-5-2-7.49,0-.19.29-.46.35-.72.42-1.74,1.14-3.67-1.83-3.42-.26,0-.55-.4-.82-.61.36-.34.67-.87,1.08-1,1.63-.44,3.3-.68,4.92-1.16.51-.15.91-.77,1.32-1.23,0,0-.26-.62-.39-.62-.53,0-1.05.22-1.58.24-3.5.08-7.13.72-10.47,0-1.71-.38-2.91-3.28-4.93-5.78.89,2.13,1.42,3.37,1.93,4.61a30.6,30.6,0,0,1,2,5.26c.15.72-.76,1.84-1.42,2.54-.37.39-1.2.3-1.82.43a9.39,9.39,0,0,0,0-2.42c-.29-1.18-.74-3.19-1.29-3.26-3.44-.43-4.06-3.31-3.85-5.7.13-1.41,2.34-2.92,3.9-3.83,4.67-2.72,4.73-2.62,5.09-6.43l5.33,4.7c-1.3-2.71-2.95-4.86-4.26-7.22-.23-.43.74-2.18,1.46-2.47s1.85.46,2.8.76c-.17.43-.34,1.23-.5,1.23a7,7,0,0,1-1.8-.44,15.85,15.85,0,0,0,1.05,2.15,42.08,42.08,0,0,0,2.61,3.48c1,1.15,2,2.21,3,3.31-.5-1.3-1-2.59-1.47-3.9-.06-.18.1-.44.18-.78L227,74.49l1-.86c-2.77-3.5-5-7.73-8.42-10.33-6.53-5-9.56-11.63-10.6-19.67-.31-2.39-.53-4.77-.68-6.42-.88,1.71-5.33,3.9-1.39,6.7.05,0-.09.65-.23.69-3.07.94-1.65,3.47-1.19,5,1.38,4.56,1.63,10.08,7.52,11.56.68.17,1.59,2.3,1.33,3.15A55.32,55.32,0,0,1,211,72.07a10.89,10.89,0,0,1-1.8,2.12c-.4-.79-.78-1.58-1.2-2.36-.59-1.08-1.22-2.14-1.83-3.21h-1.41c5.75,6.17-2.72,8.21-2.29,12.84,0,0-.6.22-.63.16-1.21-2.29-2.73-1.9-4.45-.71-.15.11-1.11-.58-1.23-1a49.55,49.55,0,0,1-1.46-7.11c-.09-.89.79-1.91,1.32-2.82a14.45,14.45,0,0,1,1.39.7c-.27-.55-.51-1.12-.81-1.65-.63-1.14-1.29-2.26-1.95-3.38l-2.52-4.26v4.34c-1-1.47-2.26-2.52-2.5-3.79-.89-4.74-1.48-9.54-2.1-14.34-.05-.34.53-.77.81-1.16a5.11,5.11,0,0,1,.58,1.32c.31,2.45.5,4.92.87,7.36a16,16,0,0,0,1,2.92c.21-.94.42-1.89.65-2.83.39-1.56.81-3.12,1.19-4.68.63-2.54,1.45-4.36,3.83-1.32.21.26.79.2,1.21.29.14-1,.35-1.89.4-2.84,0-.24-.41-.62-.71-.76a20,20,0,0,0-2-.67c.75-1,1.61-3,2.23-2.88,2.84.39,1.54-1.05.83-1.9a23.3,23.3,0,0,0-2.89-2.52,19.73,19.73,0,0,1-3.35-3.16c-.23-.32.92-1.73,1.44-2.64.39.47.8.91,1.16,1.4,1,1.4,2.09,2.83,3.13,4.24,1.11-1.23,2.26-2.42,3.31-3.71a5.6,5.6,0,0,0,.88-1.84c.25-.81.38-1.66.57-2.49l-1.94,2.11-2.55,2.8c-.61-.84-1.24-1.67-1.83-2.52-2.37-3.42-3.56-8.69-9.4-6.52-.32.12-.75-.21-1.14-.22-6-.16-11.93-.44-17.89-.31-.8,0-1.76,1.94-2.32,3.14-1,2.2-3.06,2.63-4.52.84a7.51,7.51,0,0,0-1.63-1.19c-1.44-1-2.91-1.91-4.32-2.94-2.05-1.5-3.87-3.89-6.11-4.44-6.89-1.69-13.42-7.5-21-2.65-.08,0-.25-.06-.37-.1l-9-2.83-1.57,1.58c.74.51,1.61,1.58,2.2,1.43,3.33-.84,6.24-.7,8.42,2.57.22.33,1.1.4,1.58.26,4.39-1.31,8.84-3.25,12,2.33.12.2.71.37.82.26,2-1.95,3-.63,3.62,1.32.8,2.51-.76,3.93-2.69,4-3.77.21-8,1-11.27-.5-6.16-2.84-13.58-4.06-17.2-11.49-.27-.56-2.52-.16-3.83,0-.43.05-.8.72-1.2,1.1.9.72,1.76,1.48,2.7,2.13,1.79,1.25,3.81,2.21,5.4,3.7,1.89,1.76,3.1,4.51,5.17,5.85,6.64,4.29,13,9,18.31,14.95a84.67,84.67,0,0,1,8.54,11A67.87,67.87,0,0,1,154.55,66,105.14,105.14,0,0,1,158.5,76.9c.5,1.73.43,3.5,2.59,3.94a8.92,8.92,0,0,1,.08,2c-5.83-.85-2.53,4-3.39,6.18-.15.39.2,1,.32,1.51a15.41,15.41,0,0,1,1.18-1.24c.55-.48,1.15-.88,1.73-1.31a6.85,6.85,0,0,1,.55,2.44c-.51,2.82-1.22,5.59-1.85,8.38-.61,2.63-1.9,5.34-1.63,7.87.26,2.35,2.18,4.5,3.77,7.5,0-2.12.36-3.67-.06-5-1.69-5.12-.83-10.09,0-15.23.71-4.57.56-9.28.88-13.92a19.71,19.71,0,0,1,.78-3.23,26.86,26.86,0,0,1,2.35,1.65c4,3.49,7.88,7.34,12.19,10.42,2.69,1.93,6.12,2.68,9.19,4a5.58,5.58,0,0,1,2.2,1.52c1.5,1.92,6.79,1.83,8.13-.25,2.63-4.07,5.77-5,7.84-1.93.82,1.2,1.3,3.66.67,4.73-.93,1.61-3,2.49-4.55,3.68-.08-1.26-.09-2.54-.28-3.78a12.5,12.5,0,0,0-.78-2.25,8.39,8.39,0,0,1-1,2c-.92,1-2,2.71-3,2.63a19.09,19.09,0,0,1-7.06-2c-2.22-1.16-2.25-.2-2,1.52.58,3.24,1.49,6.42,1.82,9.67.25,2.36,1.31,2.93,3.15,2.84-.37,2-1.26,4.09-1,6,2,13.41,4.24,26.78,6.42,40.17a9.28,9.28,0,0,0,.65,1.7,10.32,10.32,0,0,0,1-1.9c.46-1.63.73-3.33,1.23-5s1.49-3.29,1.77-5-.24-3.58-.06-5.34c.26-2.67,1.76-4.16,4.41-4.2s2.78,1.83,2.74,3.92c-.05,2.44-.44,5,.13,7.29.75,3-.41,4.68-2,6.88-2.12,2.91-3.52,6.42-5.11,9.73a9.26,9.26,0,0,0-.37,2.74,33.41,33.41,0,0,1-1.48-3.29c-.15-.45.35-1.18.16-1.58A15.25,15.25,0,0,0,199.2,161a7.42,7.42,0,0,0-1.31,2.25c-.68,4.19-1.18,8.42-1.79,12.62-.71,4.94-2.35,8.43-8.14,8.42-4.9,0-9.81,1.75-14.6-.77a11.32,11.32,0,0,0-2.5-.64,17.24,17.24,0,0,0,1.38,2.75c2.13,2.9,4.74,5.47,2.52,9.84-.45.88,1.24,3,1.94,4.52a26.15,26.15,0,0,0,2.28-2.31,6.92,6.92,0,0,0,.76-1.87c.66,1,1.79,1.89,1.84,2.89,0,.81-1.37,2.49-1.89,2.39-2.16-.42-5.12-.71-6.12-2.26-1.74-2.68-3.94-3.39-6.47-4-2.79-.61-5.59-1.17-8.41-1.59a17.26,17.26,0,0,0-3.43.14c1,.43,2,.85,3.06,1.29,4.55,2,9.84,1.14,13.86,5.66,4.18,4.71,9.59,8.19,14.42,12.27,3.67,3.1,4.32,7.13,1.14,10.54-4,4.26-8.42,8-12.71,11.95-.46.42-1.23.45-1.77.8-1.92,1.22-4.37,2.07-5.6,3.84-2.68,3.86-4.7,8.22-7,12.33-2.26,3.95-4.53,7.89-7,11.73-1.06,1.68-2.62,3-3.75,4.64-.87,1.27-1.07,3.39-2.17,4.09-4.34,2.78-8.83,5-14.32,3.87s-7.39.17-10.16,5.49c-.13.27-.92.5-1.09.35-2-1.73-3.88-3.54-5.81-5.33a34.31,34.31,0,0,1-.6-4.82,30.21,30.21,0,0,1,.69-4.68c.21-1.19.78-2.44.61-3.56-.57-3.95,1.16-6.13,4.45-4.62,3.72,1.7,3.52-.66,2.88-2.76-2-6.76-4.38-13.41-6.7-20.06-.21-.61-1.19-.86-1.69-1.41a7.23,7.23,0,0,1-1.84-2.47c-1.41-4.81-2.65-9.68-4-14.52a13.84,13.84,0,0,0-.55-1.39c-.33.38-.59.88-1,1.1a23.74,23.74,0,0,1-2.43,1.05c.21-1.83.36-3.66.66-5.47.08-.46.66-1.19,1-1.18,2.73.12,2.67.17,2.54-2.73-.15-3.24-.27-6.48-.26-9.73,0-4.41-.9-5.23-5.12-4.26-1,.23-2.13.9-3,.65a10.2,10.2,0,0,1-3.91-2.25c-.21-.18.65-2.11,1.34-2.94,3.25-4,6.65-7.77,9.91-11.71a16.38,16.38,0,0,0,1.61-3.05c-.8.28-1.6.62-2.43.83a1.3,1.3,0,0,1-1-.29,14.58,14.58,0,0,0-1.59-1.79c-.35-.24-1,.07-1.58.13.32.65,1.06,1.63.88,1.9a69.49,69.49,0,0,1-4.63,6.11c-1.52,1.77-3.22,3.36-4.85,5-.63-2.1-.87-4.51-2-6.22-1-1.39-3-2.1-4.61-2.78-.38-.16-1.42,1-1.88,1.68A6.4,6.4,0,0,0,86.8,183c-.58-.67-1.14-1.35-1.73-2s-1.19-1.26-1.78-1.88a10.33,10.33,0,0,0,.18,2.75c.89,2.53,2.11,4.94,2.88,7.5.46,1.51.26,3.22.44,4.83.22,1.89.63,3.76.8,5.66.26,2.82.32,5.67.6,8.49,0,.51.7,1,1.07,1.43a4.4,4.4,0,0,0,.39-1.48c-.44-4.62-1-9.22-1.38-13.84a17.69,17.69,0,0,1,.31-3.37c1.65.74,4.37,1.09,4.76,2.29,1.14,3.44,1.27,7.25,1.94,10.88a5,5,0,0,0,1.41,2.31c.11.12,1-.82,1.67-1,.85-.23,2.11-.58,2.57-.14a4.89,4.89,0,0,1,.73,2.71c-2.45,1-.53,1.88-.12,2.92a8.2,8.2,0,0,1,.36,2.73c0,1.52-.05,3-.09,4.56,3.4-.87,3,2,3.7,4,.21.59,1.32.9,2.08,1.15.27.09.71-.4,1.07-.63-.09.5,0,1.13-.29,1.49-2.23,3.06-2.81,5.82.8,8.31a33.16,33.16,0,0,1,5.57,4.67c.88,1,1.12,2.59,1.56,4,.09.28-.24.71-.38,1.08a23.66,23.66,0,0,0-2.09-2.63,11.47,11.47,0,0,0-2.56-1.77c-.16-.09-1,.52-.92.72.43,3,1,6,1.43,9a6.59,6.59,0,0,1-.28,1.88,4.54,4.54,0,0,1-1.71-.56,9.18,9.18,0,0,1-1.32-1.92A9.64,9.64,0,0,0,110,251c1,1.73,4.06,3.2.64,5.53-.1.06.23,1,.24,1,1.75-.43,2.66-.38,1.54,1.94-.58,1.19-.32,2.84-.92,4A56.41,56.41,0,0,1,108,268.8c-1.24,1.86-2.21,4-3.73,5.55-3.51,3.59-7.3,6.86-10.92,10.32A34.42,34.42,0,0,0,91,287.43c-.64.74-1.32,1.45-2,2.18C88.32,288.74,87.2,288,87,287c-1.34-5.27-2.29-10.67-3.75-15.9a15.2,15.2,0,0,0-3.3-5.59c-2.25-2.58-5.88-4.35-7.06-7.3-1.67-4.2-1.92-9.13-2.29-13.79-.28-3.55.57-7.24-3.82-8.77a20.53,20.53,0,0,1-4.26-2.6c-5.38-3.54-11.22-6.71-10.68-15,0-.52-.61-1.08-.94-1.62-.61.68-1.59,1.26-1.78,2.06-.66,2.83-1,5.73-1.6,8.58,0,.17-1,.14-1.49.2,1.55-3.16-1.44-5.1-2-7.69-.4-1.76-2.41-3.1-3.7-4.63-.25.4-.8.92-.71,1.2,2,6,4.09,12.1,6.27,18.1.54,1.5,2,2.72,2.27,4.23,1.47,7.09,2.94,14.2,3.91,21.38.57,4.19,1.27,8.19,3.41,11.79.22.38,1.29.72,1.39.59,1.08-1.43,2.64-2.85,2.94-4.49.89-5,1.36-10.16,1.85-15.27a66.86,66.86,0,0,0,.21-7.63,7,7,0,0,0-.83-2.19l-1.11,2c-1.12,2-2.16,4.12-3.39,6.08-.42.68-1.29,1.05-2,1.56a7.32,7.32,0,0,1-.66-2.66c.86-5.41,1.84-10.8,2.88-16.19.09-.49,1.12-1.28,1.22-1.2a6.69,6.69,0,0,1,2,2c1.2,2.24.54,5.89,4.81,5.71,1,0,4.69,2.1,1.3,5-.4.34.06,1.9.29,2.86,0,.22.84.49,1.17.37,1.4-.51,1.47-.55,1.23.77a38.55,38.55,0,0,1-1,3.93c-.68,2.36-2.37,4.82,1.49,6.18,1.15.4,1.88,2.18,2.75,3.38a3.1,3.1,0,0,1,.23,1.15,5.12,5.12,0,0,1-1.39.16,12.73,12.73,0,0,0-2.26-.58,19.63,19.63,0,0,0-3.1.57,8.32,8.32,0,0,0,.8,2.89c.66.91,1.81,1.41,2.66,2.2.31.29.62,1.11.47,1.36-1.81,2.94-1.63,3.74,1.28,6.09.38.31.28,1.28.4,1.94-2.53-.06-.92,1.37-1,2.5A65,65,0,0,1,68.27,289c-2.55-.7-5.09-1.42-7.64-2.1-.85-.22-1.94-.78-2.54-.44-1.3.75-3.3,1.94-3.34,3a36.34,36.34,0,0,0,1.06,9.39,77.24,77.24,0,0,0,14.93,30.6,14.91,14.91,0,0,0,5.45,4.33c3.19,1.41,3.29,3.38,1.49,5.74-7.83,10.24-7.08,22.5-6.59,34.32.21,5.23-.3,9.42-3.15,13.44-2.33,3.28-4.7,6.52-6.92,9.86-2.53,3.81-4.93,7.71-7.38,11.57l.81.59c1.71-2.39,3.39-4.8,5.14-7.16a12.77,12.77,0,0,1,1.65-1.55c0,.77-.27,1.92.1,2.25,1,.93,3.26,2.35,3.44,2.13,3.92-4.76,5.29,3.84,8.55,1.75.11.35.41.77.31,1-.72,2-1,5-2.39,5.91C68,415.7,67,418.72,65.78,422.1c-.52,1.46-3.61,3.48-4,3.16-3.78-3-5.87.9-8.23,2.22s-.62,3.12,1.12,3A55,55,0,0,1,71,432.08c5.5,1.41,7.31,1.89,7.81,7.94.38,4.47-.62,9.28,3.38,12.68a1.72,1.72,0,0,1,.33,1.54c-2.25,3.47.68,4.94,2.43,6.5,3.7,3.29,7.74,6.15,11.46,9.41,1.64,1.45,2.78,3.51,4.29,5.15s3.34,4.6,5,4.6c2.93,0,3.79,2.4,5.7,3.44.58.32.86,1.27,1.28,1.93a20.65,20.65,0,0,1-2.49-.06,10.25,10.25,0,0,1-2.11-1.17,29.05,29.05,0,0,1,1.73,3c1,2.54,3.08,5.31,2.71,7.64a11.21,11.21,0,0,0,1.88,8.28,5.37,5.37,0,0,1,.86,2.68c-.14,5.35-1.81,11,3.38,15.07.29.22.24.93.35,1.42a6.75,6.75,0,0,1-1.11-.44c-2.53-1.44-4.45-.08-6.45,1.41-1.45,1.07-3.36,2.9-4.56,2.53-1.39-.42-2.88-2.75-3.18-4.48-1.21-7-2-14.09-2.9-21.15-.21-1.6-1.16-3.72-.52-4.7,1.63-2.5.05-3.71-1.34-4.52a16.59,16.59,0,0,0-6.58-2.4c-2.3-.21-4.7,1.05-7,.94-4.16-.2-7.06,1.26-9.33,5.06-1,1.66-3.07,3.47-5.2.68-.35-.46-1.48-.9-1.76-.68-2.84,2.26-4.91.1-7.05-1.29-3.48-2.26-6.91-4.62-10.32-7a4.66,4.66,0,0,1-1.78-2c-2.85-8.74-1.41-18.3-4.7-27.06-1.19-3.17-.83-7-1.19-10.51a14.12,14.12,0,0,1-.32-2.78q.42-4.39,1.09-8.75c.42-2.72,2.94-5.23.66-8.2,3.13-2.15,1.25-7.81,5.7-9.14.26-.08.15-1.56.22-2.39-3,.19-6.24-2.17-8.9,1.93-2.51,3.86-3.75,3.53-6.72-.15-.25-.3-.29-.83-.58-1.05a4.44,4.44,0,0,0-1.3-.45,4.48,4.48,0,0,0-.23,1.11c.06.83.22,1.65.33,2.47a15.39,15.39,0,0,1-3.6-1.44,12.36,12.36,0,0,1-2.19-2.87l3.11-.64,1-.22c-.09-.49,0-1.31-.3-1.43a8.12,8.12,0,0,1-4.85-6.11c-.55-2.37-2.71-4.28-3.49-6.64a59.42,59.42,0,0,0-12.29-21.62,5.74,5.74,0,0,0,.14,1.52c1.82,3.72,3.72,7.4,5.48,11.16.25.55-.09,1.41-.15,2.13-.41-.1-1,0-1.22-.31-1.71-1.91-3.39-3.85-5.07-5.78v9.59c.14.14.28.28.44.42.81.7,1.13,2,1.68,3.09-.71-.08-1.42-.13-2.12-.22V402c6,3.26,10.49,8.18,14.05,14.72,2.13,3.89,3.46,8.81,8.12,11.15,3,1.53,5.51,4.36,8.25,6.59,1.82,1.48,2.49,3,.84,5.23a9.05,9.05,0,0,0-1.64,3.69c-1.09,5.75-2.35,11.5-2.92,17.32A28.73,28.73,0,0,1,28.13,479a1.85,1.85,0,0,0-.07,1.72c.46.4,1.66.71,1.85.47,2.6-3.46,5.67-2.47,8.57-.91,4.49,2.4,8.86,5,13.2,7.72a7.21,7.21,0,0,1,2.61,2.84c2.89,6,5.6,12.09,8.44,18.11a6.8,6.8,0,0,0,1.89,2.24c1.75,1.43,3.69,2.6,5.35,4.12a21.3,21.3,0,0,1,2.59,3.55,34,34,0,0,1,.93-4.76,20,20,0,0,1,2-3.51l2.66,2.51c3.09,3,3.32,6.47,2.46,10.59-.48,2.31.18,4.87.29,7.33,0,.87,0,1.75,0,2.62-.77-.57-1.83-1-2.25-1.76-1.16-2.18-2-4.51-3-6.78,1,6.6,2.23,13,3.42,19.38.43,2.35.26,4.94,1.13,7.07,1.88,4.63,4.25,9,6.41,13.52h4.71a13,13,0,0,0-.17-2.43c-.92-3.46,1-8.33,4.19-9.62a2.84,2.84,0,0,1,2.52,1c1.68,2.22,3.06,4.7,4.7,7,.49.68,1.46,1,2.21,1.41a17.24,17.24,0,0,0-.18-2.28c-.19-.91-.28-2.08-.84-2.63-6-5.87-8.68-13.85-11.9-21.39-1.26-3-1.47-7.29,1.91-8.84,2.29-1.06,5.76-.45,8.25.61,1.82.77,2.89,1.68,4.8.34,1.09-.76,2.81-.39,4.11-.92,2.24-.9,4.62-.58,7-2.33,1.62-1.22,5.36.55,8.09,1.25,1.48.38,2.8,1.37,4.24,2a7.13,7.13,0,0,0,2.52.63c2-5,7.48.19,9.87-3.78.21-.35,2.5.15,3.25.9.54.54.52,2.34.1,3.23-2.2,4.61-3.53,4.73-7.72,1.4-.8-.64-2.11-.59-3.18-.86.66.71,1.29,1.43,2,2.12,1.74,1.75,3.83,3.24,5.17,5.28s2.45,1.79,3.54.16c2.26-3.4,4.33-.86,5.89.51.51.45-.66,3.16-1.21,4.79-.2.6-.92,1-1.21,1.59a7.7,7.7,0,0,0-.38,1.84c.58,0,1.43.18,1.69-.14,1.26-1.55,2.39-2.12,3.73-.11.06.08,1.17-.28,1.27-.61.35-1.1-.31-4.3,1.73-.69a1,1,0,0,0,.92.21c1.56-1.5,3.11-3,4.57-4.62a2.16,2.16,0,0,0,.28-1.51c0-.23-.73-.63-.9-.53-1,.58-1.88,1.29-2.81,1.95-.26-.82-.51-1.65-.76-2.48-2.53,1.57-3.56-.86-5-2.11-.56-.47-1.06-1-1.58-1.51a13.38,13.38,0,0,1,2.05-.44,23,23,0,0,1,5.56,0c1.72.34,3.25,1.84,5,2.1,3.33.51,2,2.54,2.24,4.66.31,2.5.48,6,4.55,6.43,3.11.3,4.53,2.8,4.52,6.15,0,4.14.06,8.27.1,12.41H197q-1.8-13.73-3.55-27.45c-.09-.77.41-1.62.35-2.41-.28-3.52.08-7.37-1.22-10.43a17,17,0,0,1-1.74-8.13c.11-1.49-.06-3-.09-4.51-.18-8.78-4.59-17.26-1.63-26.28a5.37,5.37,0,0,0,.08-2.46c-.77-4.27,1.26-6.66,4.63-8.41,1.62-.84,3-2.07,3.86.8a7,7,0,0,0,2.54-.32c.31-.07.81-.71.75-.88-1.54-3.93.9-2.49,2.68-2.44,1,0,2.72-.77,2.78-1.35.7-6.42-1.47-12-5.14-17-.37-.51-2.57-.36-2.62-.16-.66,2.81-2.39,1-3.66,1.09s-2.63.51-4,.6c-2.47.16-5.76,1.27-7.24,0-2.66-2.24-4.26-5.91-6.24-9-.12-.18.27-.8.51-1.16,3.42-5.06,7.62-5.91,12.09-2.17,1.73,1.45,2,1.3,2.07-1,0-.67.87-1.33,1.34-2,.36.64.77,1.26,1.09,1.92.46.94.85,1.92,1.27,2.88.33-1,1-2,.94-2.91-.28-5.25.88-9.68,4.4-13.76,1.91-2.21,3.58-5.93,3.24-8.68a18.76,18.76,0,0,1,1.13-8.65c1.08-3.43,2.2-7.08,2.16-10.62-.07-6,1.77-9.64,7-12.28,1.15-.57,2.55-2.55,2.42-3.7-1-9.12,4.24-15.62,8.08-22.7.54-1,2.15-1.28,3.07-2.12,2.22-2,7.7-.56,6.32-6.61-.13-.55,1.49-1.55,2.29-2.35a6.29,6.29,0,0,0,0,2.32,3.15,3.15,0,0,0,1.5,1.28,21.18,21.18,0,0,0,3.3-3.91c.79-1.38,1-3.14,1.72-4.56.3-.58,1.4-.7,2.13-1a8.66,8.66,0,0,1,.81,2.84c0,.57-1,1.12-1.62,1.59-1.55,1.17-1.8,2.07-.44,4,4.45,6.2,8.93,12.41,10.56,20.32.77,3.76,2.9,6.36,7.63,6a40.89,40.89,0,0,1-4.35-3.5C257.55,375.23,257.43,374.05,257.08,373.11ZM170.71,48.8c2.49-.92,3.25-1.82,3.82-4.58.09-.39.4-1,.25-1.15-4.1-5.48,3.45-1,2.71-3.57.46.66.93,1.33,1.38,2,1,1.41,1.94,2.82,2.88,4.25a13.79,13.79,0,0,1,1.78,2.95c3.19,9.71,6.26,19.46,9.47,29.17A25,25,0,0,0,195.39,82c-.57.31-1,.8-1.47.76-5.5-.59-9.76-4-14.18-7.06-.28-.19-.65-.81-.56-1,3.08-5-2.27-4.84-3.79-7-2.11-3-4.12-6.13-6.09-9.25-.5-.79-.64-1.82-1.1-2.63A4.65,4.65,0,0,1,170.71,48.8ZM162.6,71.93c-.26,0-.49-.85-.74-1.3l1.43-.63.33.94c2.43-.88,4.92-1.6,7.26-2.67,3.46-1.58,4.65,1.27,5.54,3.46,1.21,3-1.63,2.53-3.14,3.57C168.2,78.79,166.4,72,162.6,71.93Zm37,16.79c-2.16,1.11-4.6,1.59-7.31,2.46-4-1.12-8.34-1.88-12.29-3.63-2.2-1-4-3.39-5.48-5.53a4.35,4.35,0,0,1,.2-4c.62-.75,2.7-.87,3.72-.35,2.89,1.48,5.44,3.7,8.35,5.1,3.54,1.7,7.24,2.79,11.3,1.34,1.12-.4,2.73.77,4.11,1.22C201.31,86.49,200.68,88.15,199.56,88.72Zm8.33,46.15a10.77,10.77,0,0,1-3.21,0c0-1.66-.41-3.61.25-4.93a12.37,12.37,0,0,0,.58-10.36c-.89-2.26-1.08-6-5.39-4.84-1.1.29-2.69-1.93-4.19-2.7a14.48,14.48,0,0,0-3.45-.91c.64-1,1.27-2,1.9-3.06.75.77,1.53,1.51,2.25,2.32a17.54,17.54,0,0,1,1.11,1.56c.27-.64.6-1.26.82-1.93a13.06,13.06,0,0,1,.48-2c.54-1,1.24-2,1.88-3,.91.87,1.88,1.7,2.74,2.64s1.86,2.21,2.76,3.34c.64.81,1.88,1.79,1.75,2.45-1.1,5.59,2.15,3.49,4.89,3.72,3.73.32,7.35,1.39,11-.28.16-.08,1,.88.95,1-1.59,3.37-1.4,7.72-6,9.38-3,1.09-5.48,3.77-8.21,5.71A11.29,11.29,0,0,1,207.89,134.87ZM73.64,323.64c-1.66-2.13-4.4-4.09-4.7-6.41-.33-2.6,2.45-4.37,5.25-4,1.07.14,2,1.31,3.68,2.47C76.13,319,74.89,321.29,73.64,323.64Zm66.6,21.81c2.9-1.21,5.49-3.27,8.2-5,.83-.52,2-1.79,2.33-1.57a8.34,8.34,0,0,1,1.82,2.57c-.87,5-4.38,7.08-7.43,9.51-.71.56-2.45-.24-1.33,2,.29.57-1.05,2.55-2.05,3.19-.71.45-3-.11-3-.46a6.93,6.93,0,0,1,.54-4c.61-1.15,2.35-1.48,0-2.94C137.57,347.61,138,346.38,140.24,345.45Zm2.37,40.17a9.12,9.12,0,0,1-.48,2.07l-1.49.54-7.43-10.53c1.61-1,3.19-2.63,4.86-2.73,2.21-.12,4.5,1,6.74,1.54.54.14,1.06.37,1.58.56-.24.46-.39,1.19-.75,1.35C142.37,379.79,142.6,382.72,142.61,385.62Zm3.6-14.17c-1,.26-2,.88-2.87.7-2-.42-3.93-1.67-5.92-1.77-3.49-.16-3.16-3.24-4.22-5.28,2.05-1,4.08-2,6.18-2.83.24-.1.85.71,1.25,1.14,1.09,1.17,2.15,2.38,3.23,3.56.87.95,1.74,1.88,2.61,2.81Zm-25-84.61c-.08.69.75,1.49,1.16,2.24.33-.51.79-1.52,1-1.46a33.48,33.48,0,0,1,6.54,2.55c.72.43.75,2.19,1.18,3.59l-3.77-2.09a24.61,24.61,0,0,0,1.9,3.85c1.55,2.14,3.25,4.17,5,6.14,2.7,3-.78,5.1-1,7.66a11.29,11.29,0,0,1-1.76-.21,28.29,28.29,0,0,0-4.11-1.14,7.86,7.86,0,0,0-2.77.79A8,8,0,0,0,126,311c.49.38,1.38.14,2.1.21,1.34.14,2.68.28,4,.46.22,0,.39.38.62.48,2.79,1.25,6.28,1.8,5.47,6.47-.53,3.05-1.09,6.09-1.48,9.16a75,75,0,0,0-1,10.93c.07,3.54.95,7.05,1.45,10.58.09.67.37,1.75.1,2-2.86,2.21-1.92,5.37-2,8.27,0,.53-.16,1.37-.48,1.53-4.71,2.36-6.37,8.86-12,9.89a18.48,18.48,0,0,1-3.49,0,8.78,8.78,0,0,0-1.91-.06c-1.79.38-4.51,1.85-5.17,1.14-1.92-2.07-3-5-4.42-7.59-.2-.36-.24-.81-.46-1.14-.56-.82-1.17-1.61-1.77-2.41-.22,1-.51,1.93-.64,2.92-.08.65.19,1.36.07,2-.34,2-2.66,5,2.1,4.09.18,0,.48.57.7.9,2.56,3.91-.06,11.51-4.13,13.09-2.78,1.07-3.83.2-4.55-2.44-.2-.73-1.13-1.9-1.48-1.81a29.08,29.08,0,0,0-4.31,1.79c.74,1,1.29,2.45,2.26,2.92a12.78,12.78,0,0,0,4.86,1.06c3.07.15,4.42,1.44,3.19,4.67-.15.39-1.17.66-1.74.58-2-.27-4-.73-6-1.05-.24,0-.8.47-.76.61.14.58.35,1.53.71,1.62,3.35.85,2.55,4,2.38,5.94-.24,2.79-.1,4.21,2.92,4a3.5,3.5,0,0,1,2.21.89,34.26,34.26,0,0,1-1.08,4.53,10,10,0,0,0-2.5-.73,27.81,27.81,0,0,0-5.07.39c-.52.09-.86,1.06-1.41,1.36-1.2.66-2.49,1.14-3.74,1.7-.25-.85-1-2.13-.66-2.48a30.34,30.34,0,0,1,3.8-3.44c.28-.24.93-.43.91-.57-.5-3.89-1-7.78-1.68-11.65,0-.28-.91-.7-1.26-.59-2.93,1-3.55,4.07-1.41,6.46a2.88,2.88,0,0,1,.79,2.16,12.88,12.88,0,0,1-1.84,2.88c-.5-1.06-1.4-2.11-1.43-3.18-.06-2.27-.49-2.15-2.31-1.34a5.22,5.22,0,0,1-4.53-.5c-1.71-1.25-1.17-3.13.24-4.71a3.29,3.29,0,0,0,.31-2c-.21-6.44,1.56-9,7.28-8.66,3.48.22,4.33-1.5,5-4.14q2.1-8.64,4-17.32c1.35-6,1.32-6,7-4.45.27.08,1.23-1.16,1.15-1.3-5-8.08-.83-16.9-1.86-25.28-.35-2.86-.16-5.88-1-8.58-1.44-4.91.35-7.83,4.23-10.08a12.2,12.2,0,0,0,2.36-2.53,7.65,7.65,0,0,1-2.43-.44,2.2,2.2,0,0,1-.26-1.76c2.87-1.82,4.91-3.45,3.19-7.87-.62-1.6,1.45-5,3-6.82,2-2.31,4.89-3.76,7.23-5.79C121,284.64,121.57,284.13,121.26,286.84ZM125,387.16c0-1.08,0-2.15,0-3.16,3-.19,5,4.16,4.1,6.71a6.84,6.84,0,0,0,.25,3.17c.29,1.42,1,2.82,1,4.18,0,.68-1.45,1.38-2.34,1.85-.3.15-.93-.61-1.38-.58-5.66.42-3-1.67-1.66-4.51C125.89,392.76,125,389.75,125,387.16Zm-18.39-113.1c1.11-1.43,1.73-3.27,2.69-4.84.51-.84,1.53-2.2,1.91-2.07a4.61,4.61,0,0,1,2.5,2.22c1.07,2.43,1.8,5,2.66,7.57l0,0c.2,1.05,0,2.62.64,3.05,3,2.16.58,3.62-.48,5.16-.41.58-1.27.82-1.92,1.22-.08-.74-.15-1.47-.25-2.2-.3-2.09.56-5.29-3.41-3.87-.25.09-.92-1.31-1.47-1.94-.73-.83-1.49-2.2-2.32-2.27C104.49,275.83,105.62,275.29,106.59,274.06Zm-14,17.51c.77-2.51.39-7.22,5.23-6.6.43,0,1-.72,1.42-1.13,1.23-1.09,2.72-3.32,3.63-3.09,2.67.69,3.79,3.11,3.82,6.3-1.22,4.55-2.38,9.13-3.71,13.65-.66,2.28-2.13,2.55-3.92,1.18-1.48-1.14-3.42-1.95-4.32-3.46C93.5,296.39,92,293.45,92.57,291.57Zm8.75,38.27c-.36.29-1.48,1.54-1.71,1.37-2.15-1.52-4.5-3-5.94-5.15-.42-.61-1.46-5,2.12-5.42C98.15,320.37,101.42,325.55,101.32,329.84ZM86.15,302c.52,0,1,.44,1.58.69a8.91,8.91,0,0,0,.09-2.76c-.12-.44-1.09-.71-1.72-.87-.92-.23-1.87-.29-2.81-.43.24-.92.24-2.36.79-2.66a4,4,0,0,1,3.14-.13,18.51,18.51,0,0,1,3.47,2.44l-1,1.32c.35.42.63,1,1.07,1.22,2.5,1.31,3,3.57.63,4.88a12.84,12.84,0,0,1-6.91,1.19c-.68-.05-1.18-2.83-1.77-4.35A27,27,0,0,1,86.15,302ZM72.56,367.05c-.6-3.07,2.35-8.73,4.87-10.28A4,4,0,0,0,78.91,354c.26-6,2.44-8.93,8.14-10a57.52,57.52,0,0,1,10-1c1.23,0,2.51,1.34,3.68,2.22a2.17,2.17,0,0,1,.33,1.44c-3.79,1.75-4.22,7.74-9.25,8a16.87,16.87,0,0,0-6,1.63c-2.07.95-5.67,1.12-3.62,5.44.17.35-1.1,1.74-1.93,2.21-.36.21-1.28-.66-2-1a17.94,17.94,0,0,0,.13,2.32c.67,3.6-1.7,3.31-4.8,3.35A3.71,3.71,0,0,1,72.56,367.05Zm21.78,76.44c-2.42,2.62-6.89,2-9.54-1.4s-4.79-7.21-7.14-10.85a7.76,7.76,0,0,1-.56-1.39l1.09-.36c2.45,1.26,4.81,2.67,7.3,3.74,3.56,1.54,5.21,6.09,9.41,6.54C94.74,441,95,442.76,94.34,443.49Zm6.45-25.28a5.17,5.17,0,0,1-6.36,3.45c-2.64-.66-5.22-1.59-7.86-2.26-1.86-.47-3.29-.54-2.8,2.53.43,2.72.09,5.59.09,8.39l-.88.09c-.25-2.59-1.08-5.3-.63-7.75.64-3.53-.42-5.17-3.51-5.81-2.76-.58-2-1.65-.73-3.45,1.56-2.17,2.55-4.81,4-7.12.45-.73,1.52-1,2.3-1.53a10.83,10.83,0,0,1,.76,2.86,38,38,0,0,1-.58,4.58c2.23-.15,5,.52,6.59-.6,3.25-2.22,5.73-1.62,7.81,1.08C100.1,414.15,101.3,416.77,100.79,418.21Zm9.12,60.88a58.28,58.28,0,0,1-8.23-6.09c-.08-.07.5-1.65,1-1.8,1.58-.47,3.78.55,4-2.62,0-.85,7-.48,7.15.42s.38,2.55.06,2.71c-3.2,1.58-1.85,3-.08,4.6.17.15.18.5.46,1.37C112.77,478.19,110.87,479.61,109.91,479.09ZM185.48,549c-.44-.4-1.17-.72-1.28-1.21-1.27-5.15-2.5-10.32-3.59-15.51-.51-2.4-.59-4.91-1.06-7.32-1.18-6-3.31-11.36-9.61-13.37a10.26,10.26,0,0,1-2.62-1.95,14.28,14.28,0,0,1,3.37.51c2.53,1,5,2.25,7.44,3.52a3.09,3.09,0,0,1,1.45,1.71c1,4,1.83,8.12,2.73,12.19l-.45.09c.55,2.67.94,5.39,1.69,8s2.55,4.84.89,7.87c-.39.7.87,2.35,1.21,3.61A5.56,5.56,0,0,1,185.48,549Zm-4.11-39c-3.62.43-6.8-2.17-6.56-5,.37-4.44,5-2.28,6.82-4.52l4.12,5.53C183.85,507.8,182.71,509.83,181.37,510Zm9.68-52.51.63,1c2.47,0,5.08-.5,7.35.19,1.31.4,2.7,2.66,2.9,4.24.15,1.18-1.55,2.62-2.45,3.92-.06.08-.44-.09-.66-.14a17.78,17.78,0,0,1,.48-2.19,15.32,15.32,0,0,1,.87-1.89,25.65,25.65,0,0,0-3.4.09,5.51,5.51,0,0,0-.1,2c.13,1.1.39,2.18.59,3.27-1-.39-2.08-.75-3.11-1.17a26.89,26.89,0,0,1-4.29-1.87,29.83,29.83,0,0,1-3.58-3ZM186.78,484c0,1.23.32,2.59-.09,3.64a14.11,14.11,0,0,1-2.41,3.22,17.83,17.83,0,0,1-2.25-2.77c-1.14-2.17-2.13-4.25-5-2.37a4.46,4.46,0,0,1-1.76.27,5.26,5.26,0,0,1,.17-1.85c1.39-2.61,1.52-6.31,5.37-6.84C185.09,476.69,186.74,478.48,186.78,484Zm-4.24-20.21c.58.55.47,2.17.29,3.23a8.4,8.4,0,0,1-1.31,2.51c-3.14,5.54-6.45,11-9.32,16.65a19.48,19.48,0,0,0-1.5,7.15c-.32,4.59-.69,8.92-6,10.22-.76.19-1.4,1.16-2,1.87a61.58,61.58,0,0,0-5.78,7.14c-.89,1.41-1.68,4.38-1,5.15,3,3.31-.41,6.2,0,9.22-.69,0-1.63.36-2,0-5.16-4.38-10.34-8.76-15.31-13.37-2.38-2.2-7.41-3.62-10.31-2.27-.28.13-.67.44-.68.68,0,1.07-1.89,5.66-2.69,6.17-.39.24-1.26.43-1.33.3-.55-1-1.44-2.24-1.28-3.22.19-1.15,1.65-2,2-3.2a8.56,8.56,0,0,0-.21-3.88c-.06-.25-1.31-.34-2-.28a5.13,5.13,0,0,0-1.5.68c0-.85,0-2.39.18-2.43,2.9-.61,1.16-1.82.45-3a122.55,122.55,0,0,1-6.35-10.83c-.72-1.52-.43-3.8-.11-5.63.54-3.09,1.46-6.09,1.87-7.7-1.11-7.77-1.79-14.11-3-20.33-.48-2.41-2.17-4.56-3.38-6.78-4-7.33-2.46-15.87-4.65-23.65-1-3.68-1-7.92,2.91-11,3.34-2.65,2.84-4.32-1-5.79-2.65-1-2.39-2.58-.84-4.31,3.33-3.73,3.31-3.62-.33-7.08-1-1-2.39-3-2-3.7.61-1.37,2.36-2.18,3.65-3.2.6-.48,1.83-1.06,1.77-1.36-.85-4.09,2.84-.65,3.37-2.32.63,1.64,1.88,3.34,1.78,4.93a46.55,46.55,0,0,1-1.89,9.14c-.7,2.54.3,2.84,2.29,2.53a48.7,48.7,0,0,1,5.79-.56c.44,0,.91.74,1.36,1.14-.39.49-.69,1.21-1.18,1.44-1.75.81-3.65,1.28-5.32,2.23-.84.48-1.3,1.71-1.93,2.61.89.33,2.24,1.23,2.6.91,5.86-5.27,9.93.07,14.45,2.6a22.76,22.76,0,0,1,9,9.54c.38.74,1.3,1.17,2,1.73,2.09,1.73,4.16,3.48,6.26,5.19,1.11.9,2.25,1.76,3.4,2.59.83.59,2.11.9,2.5,1.71,2.36,4.93,6.68,6.87,11.15,8.74a6.88,6.88,0,0,1,2,1.83c1,1.08,1.06,3.88,3.58,2.19.52,1.13,1,2.3,1.56,3.4a12.62,12.62,0,0,0,2.13,3.52C177.08,459.23,180,461.3,182.54,463.77ZM177,433.64c-1.19,3.76-3,.86-4.51,1.19-4.22.93-7-2.22-10.45-3.06-.7-.17-1.25-1.07-1.87-1.63a19.86,19.86,0,0,1,2.18.55c1.81.66,3.63,1.29,5.38,2.11,2.41,1.12,7.69-1.78,8.79-4.75.32-.88,1.3-2.05,2-2.07,1.06,0,2.14.83,3.52,1.45C179.5,430.47,177.58,431.82,177,433.64Zm1.85-18.59c-.91-.12-1.81-.34-2.72-.52-.09,1.17-.22,2.33-.26,3.5,0,1.46.33,3-.08,4.35a22.79,22.79,0,0,1-2.46,4.4,31.24,31.24,0,0,0-3.31-3.3c-2-1.48-4-3.22-6.2-4-2.53-.82-3.17-2.37-3.35-4.74-.38-4.81-.83-9.62-1.29-14.42,0-.31-.37-.59-.56-.89-2.43,1.91-4.43-2.78-7.52-.22-1.47,1.22-3.64-2-3.59-4.58.07-3.71.79-7.49-2.48-10.26.69-.8,1.61-2.41,2-2.27,3.75,1.2,3.13-1.58,3-3.63-.11-1.87-.13-4-1-5.5-2.37-3.9-1.83-7.68-.66-11.71,1.11-3.85,1.91-7.8,3-11.65a32.27,32.27,0,0,1,2.05-4.53c.87,1.6,1.81,3.17,2.59,4.82a2.31,2.31,0,0,1-.18,1.61c-1.86,4.2-1.36,8.21.46,12.31,1.61,3.59,2.88,7.34,4.3,11l1.06-.46c-1.61-4.65-3.28-9.27-4.79-14-.39-1.24-.88-3.24-.3-3.9,4.16-4.79,1-8.17-1.62-11.8-.43-.59-.74-2.06-.45-2.33a4.89,4.89,0,0,1,2.88-1.31,6.31,6.31,0,0,1,3.21,1c3.61,2.08,7.44,3.91,10.58,6.62,1.34,1.17,2,4.48,1.56,6.46-1.67,7.52.33,14.75.78,22.1.42,6.79.43,13.61.56,20.43,0,.58-.5,1.18-.78,1.77-.49-.31-1-.6-1.48-.92s-1-.68-1.49-1a7.68,7.68,0,0,0,.32,2.08,37.92,37.92,0,0,0,9.85,12.5c.88.76,1.27,2.14,1.88,3.24C181.22,415.26,180,415.2,178.85,415.05Zm1.7-26.38c-1.85-1.35-3.13-3.59-4.62-5.47a2.47,2.47,0,0,1-.6-1.39c.14-4.93.42-9.86.45-14.78,0-1.09-1-2.14-1.23-3.28-.34-1.93-1-4.16-.32-5.76.35-.87,3-.84,4.65-1s4-1.21,3.31,3.14a4.89,4.89,0,0,1-.54,1.46c-2.14,3.47-.17,5.45,2.26,7.3,1-2,2.21,6.21,3-.1.39.19,1,.27,1.12.58a79.68,79.68,0,0,1,3.78,9.83c.33,1.22-.9,2.9-1.36,4.39-.27.91-.84,2.05-.55,2.75.95,2.29-.24,5.61-2.42,5.28A16.6,16.6,0,0,1,180.55,388.67Zm23.39,14.27c-2.81.54-5.66.91-8.38,1.3,1,1.49,2.65,3.77,4.15,6.16a10.43,10.43,0,0,1,.81,2.64,20.33,20.33,0,0,1-2.47-.11c-.49-.08-1-.71-1.41-.61-1.43.35-2.81.9-4.2,1.37a11,11,0,0,0,2.94,1.4c2.91.43,2.86,2.86,3.08,5s-1.06,2.39-2.93,2.63c-1.61.21-3.07,1.82-4.58,2.85-1.78,1.21-2.72,1.06-3-1.51-.36-3.3.89-7.27-3-9.36a.86.86,0,0,1-.26-.74c1-4.63,2-9.26,3.14-13.86.12-.5.89-.82,1.36-1.22a3.71,3.71,0,0,0,.64,1.29c.49.43,1.43,1.06,1.66.88a3.24,3.24,0,0,0,1.22-2.05c0-1-.63-2-.62-3a12.38,12.38,0,0,1,.75-3c.84.67,1.7,1.31,2.51,2,.35.31.67,1.15.86,1.1,3.78-1,4.85,3.3,7.57,4.39C204.1,400.62,204.05,402.92,203.94,402.94Z"/><path class="cls-1" d="M12.08,565.1c.25-4.17.24-8.1-4.19-10.27-.95-.47-1.27-2.35-1.88-3.58,1.58-.25,3.16-.56,4.75-.73,3.42-.35,7.81,3.87,10-2.43.12-.34,1.24-.28,1.9-.41-.18.55-.21,1.36-.57,1.6-3,2-.55,1.48.65,1.83,2.63.76,4.57,7.08,3.13,9.54a46,46,0,0,0-2.05,4.45Z"/><path class="cls-1" d="M60.46,48.59C64,51.87,64.22,56.65,65.38,61c.41,1.54.55,2.36-1.49,1.86a5.16,5.16,0,0,0-3.35.62c-2.6,1.33-4.11-.23-6.23-1.58-3.53-2.23-3.06-6.4-5-9.32-.49-.72.6-2.63,1-4Z"/><path class="cls-1" d="M367,0c-2.28,1.29-4.58,2.55-6.83,3.88-2.83,1.67-4.38,6.59-4.42,10,0,3.2-1.42,6.37-2,9.6-.26,1.45-.62,3.55.1,4.41,1.68,2,1.55,4.06,1.82,6.51a22.63,22.63,0,0,0,7.86,14.68,8.26,8.26,0,0,1,1.24,2,14.15,14.15,0,0,1-2-.81c-4.33-2.53-7.09-6.1-7.58-11.59-.19-2.06-1.62-4-2.34-6-1.37-3.85-2.76-7.63-1.37-11.94a71.3,71.3,0,0,0,2.72-11.35c.81-5.57,5.27-6.92,8.84-9.38Z"/><path class="cls-1" d="M275.54,358.11c.66-1.73,1.42-3.42,1.95-5.19s.45-1.82,2.48-1.29a1.7,1.7,0,0,0,1.37-.71,40.42,40.42,0,0,1,2.2-3.4c1.79-2,2.52-3.47-.51-4.94-.53-.26-.29-2.05-.64-3-.42-1.24-1.15-2.36-1.61-3.58a6,6,0,0,1-.13-1.82c.45.23.9.46,1.35.67,1.85.86,3.65,1.82,5.54,2.53a24.34,24.34,0,0,0,3.9.82,20.13,20.13,0,0,0-1.59-4.12,17.12,17.12,0,0,0-3.49-3.72c-.54-.44-1.55-.22-2.35-.31.78-.72,1.47-1.81,2.37-2.06,1.25-.36,3.06-.67,3.93,0,2.94,2.29,3.79.7,4.46-2.06a7.09,7.09,0,0,1,1.09-1.81c.21.7.77,1.53.59,2.09-1.37,4.2-.55,8,1.13,11.95,1.37,3.23-1.16,6.28-3.95,8.17-2.13,1.44-3.22,4.58-4.78,7a7.89,7.89,0,0,0,2.42,0,11.67,11.67,0,0,0,2.46-1.4c-.33,1-.68,2-1,3-.24.78-.76,1.67-.58,2.34.54,2,1.88,3.88,1.81,5.76,0,.8-3.27,0-4.19,2.72-.6,1.81-3.23,1.9-3.44-.82-.28-3.47.24-7,.37-10.52a10.82,10.82,0,0,0-.55-4.45c-.79,2.9-1.54,5.82-2.4,8.7a18.78,18.78,0,0,1-1.3,2.67c-.67-.9-1.36-1.78-2-2.71a9.88,9.88,0,0,1-.68-1.43,5.75,5.75,0,0,0-1,1.13c-1.74,3.39,1.08,8,4.8,8.08.52,0,1,.81,1.55,1.25-.72.77,2.23,3.12-1.16,2.85a9.81,9.81,0,0,0-4.53.78c-.89.38-1.45,1.65-2.15,2.52.77.32,1.55.65,2.33.95,3.9,1.53,7.12.29,10-2.66a6.32,6.32,0,0,1,2.12-1,23,23,0,0,0-.44,2.43,20.64,20.64,0,0,0-.23,4.88A18.17,18.17,0,0,1,288,392.05c-1.46,2.15.79,5.88,3.81,6,2,.07,2.73.69,2.41,2.52-.09.5-1.64,1.31-1.93,1.09-2.43-1.78-5.12-3.43-6.91-5.81-1.5-2-3-1.79-4.87-2.16a17,17,0,0,1-7.19-3.53c-3-2.51-5.62-5.63-8.37-8.52a14.42,14.42,0,0,1-1.1-1.47c3.85-2.26,1.4-6.52,2.68-9.72s2.83-4,5.51-2.84c3.22,1.44,3.34-.71,2.49-2.63s-.44-6.55-4.85-4c-.06,0-.54-.43-.52-.65a9.41,9.41,0,0,1,.38-2.88c.5-1.26,1.63-2.32,1.9-3.6,1.2-5.76,2.2-11.58,3.27-17.37a5.61,5.61,0,0,1,.51-2,10.62,10.62,0,0,1,1.91-2,1.94,1.94,0,0,1,.74.56c-.39,1-.92,1.85-1.29,2.81a12.67,12.67,0,0,0-1.1,3.55c-.35,6.11-.55,12.23-.81,18.35Zm15.26,24.45c-.81-1.35-1.33-3.3-2.26-3.56-2.76-.75-7.66,4.36-8.42,7-1.11,3.88,2.36,3.35,3.63,4.65.53.54,3.51-.64,4.51-1.84C289.52,387.31,289.88,385,290.8,382.56Z"/><path class="cls-1" d="M245,328.76c-1.4-5.78-2.72-11.59-4.25-17.33-.43-1.62-1.1-3.58-2.28-4.49-6.67-5.13-11.08-12.18-15.63-19.22a35.77,35.77,0,0,1-5.9-20.09,5.92,5.92,0,0,0-2.24-4.3,77,77,0,0,0-8.79-4.32,5.82,5.82,0,0,1-.9-.69c.49-.57.87-1.37,1.47-1.65a8.43,8.43,0,0,0,5.1-8.54c-.11-2.93-.6-5.85-.89-8.77-.32-3.21.47-5.18,4.11-5.38,2.48-.14,4.47-1.54,2-4.65-1.41-1.76-2.67-3.65-4-5.49-.21-.3-.65-.74-.57-.91,2-4.36-2.39-7.23-2.39-11.24,0-1.15-2.46-2.29-4-3.64,3.54,1.47,5.38.19,5.64-3.7,0-.63.89-1.19,1.37-1.78.31.66.87,1.32.88,2,0,3.22,0,6.46-.25,9.66-.46,5.22,4.28,14.49,8.69,16.9a7.73,7.73,0,0,1,2.15,2.49c4,5.94,8.27,11.7,11.71,18,1.21,2.21.29,5.72.35,8.63a25.39,25.39,0,0,1-5.05-1.14c-1.44-.64-2.64-4-3.95.1,0,.12-1.58-.05-1.62-.25-.47-2.66-5.74.68-4.46-4,.25-.92.93-2.21.59-2.7a21,21,0,0,0-3.36-3.23,20.6,20.6,0,0,1-1.22,2.55,8.11,8.11,0,0,1-1.5,1.42c-1.35,1.2-3.71,2.33-3.77,3.59s2,2.91,3.11,4.34q1.34,1.68,2.76,3.29c.41.46,1.08,1.29,1.37,1.18,4.2-1.6,2.43,1.1,1.88,2.87s-1.2,3.59-1.79,5.4a3.84,3.84,0,0,0-.2,1.21c.08,2.07,6.51,9.44,8.56,9.7.55.06,1.59-.31,1.66-.65a4.75,4.75,0,0,0-.25-2.55c-.51-1.37-1.37-2.6-1.84-4a6.5,6.5,0,0,1,.2-2.36,10.8,10.8,0,0,1,2.24,1.24c.64.58,1,2,1.57,2.09,5.08.79,3.53,4.49,2.45,7.14a7.51,7.51,0,0,0,.26,6.89c1.31,2.8,1.7,6.06,2.62,9.08a2.05,2.05,0,0,0,1.51,1c1.05.13,2.61-.49,3.08.06.68.77.6,2.3.78,3.52.65,4.3,1.16,8.63,1.95,12.91.58,3.19,1.52,6.31,2.3,9.46Z"/><path class="cls-1" d="M324.81,292.18c3.8.72,4,3.8,5.11,7.07,2.5,7.33,2.32,7.8,3.34,16.25.64,5.25,4,10.15,6.31,15.12.26.58,1.54.63,2.35.92-.05-1,.25-2.28-.23-3a28.91,28.91,0,0,0-3.62-3.76c4.65,1.11,5.69,2.82,5,7.6a7.91,7.91,0,0,0,.58,3,16.93,16.93,0,0,0,.9,2.11,22.48,22.48,0,0,1-2.68-1.1c-1.1-.62-2.11-1.4-3.17-2.11-.08,1.42-.62,3-.16,4.22a78.64,78.64,0,0,0,4.76,10.13c2.23,3.93,5.29,7.4,7.06,11.52,1.36,3.16,1.24,7,1.84,10.55.25,1.44.3,3.21,1.11,4.19,2.11,2.52,2.19,5.34,2.17,8.42,0,4.71-.68,9.47,3.21,13.46,1.28,1.32,1.1,4.67.92,7-.38,5.34-.15,10,4.75,13.48,1.13.8,1,4.85.31,7-1.55,4.59.5,8.2,1.79,12.14.66,2,.91,4.2,1.37,6.3.66,3,1.46,6,2,9,.57,3.36.81,6.78,1.35,10.15.6,3.71,1.72,7.36,2,11.08a44.52,44.52,0,0,1-.86,12q-1.28-8.31-2.55-16.61a24.24,24.24,0,0,1-.35-3.6c0-4.83.22-9.65-2.52-14a5.15,5.15,0,0,1-.77-3.57c1.2-4.69-.85-8.43-2.41-12.52a21.09,21.09,0,0,1-.86-8.66c.22-3.2-.5-4.19-3.41-3.06-2.4.94-4.79,2.34-7.26,2.54s-4.82-.87-7.23-1.43c-.79-.18-1.55-.55-2.33-.78a11.22,11.22,0,0,0-1.41-.24c.29-.37.61-.72.88-1.11s.6-1,.9-1.44c-.43-.22-.94-.72-1.27-.61-2.95,1-1.95-1.45-1.78-2.52.51-3.21,1.28-6.37,2-9.54.07-.32.4-.57.62-.86.43.42,1.17.78,1.26,1.27.69,3.6,1.92,7.29,1.64,10.83-.29,3.72,1.3,4.47,3.84,4.39a38.46,38.46,0,0,0,8.1-1.19c2.82-.71,3.73-4.6,2.46-8-.82-2.18-1-4.63-1.58-6.92-.88-3.34-2.31-6.58-2.79-10-.79-5.63-4.24-11.05-1.57-17.06a1.08,1.08,0,0,0-.22-1c-5.44-2.49-4.17-8.45-4.44-12.44-.48-6.93-3.71-12.4-7.3-16.83-4.28-5.28-6.12-10.73-7.05-17.16-.23-1.53-1.92-3.92-3-4-2.57-.15-2.65-1.77-2.88-3.48a15.88,15.88,0,0,1,.2-3.21,23.78,23.78,0,0,0,1.78,2.18,19.07,19.07,0,0,0,2,1.56,17.68,17.68,0,0,0-.08-2.73c-.58-3.2-3.08-5.76-2.64-9.33.31-2.45.23-5,.56-7.41.45-3.28-1.27-4.7-3.79-5.79-3.88-1.69-7.16-4-7.41-9.08Z"/><path class="cls-1" d="M326.36,406.1a4.36,4.36,0,0,1-1.48.24c-2.52-.54-4-1.77-4.34-4.9-.2-2.08-1.55-4.1-2.65-6-2.3-3.89-4.78-7.67-7.17-11.51-.33-.53-.57-1.13-.89-1.67s-.66-1-1-1.49c.56,0,1.12-.05,1.68,0s.89.08,1.33.11c-.13-.49-.1-1.15-.4-1.44a15.94,15.94,0,0,0-3.31-2.86c-2.27-1.25-4.19-2.41-4.26-5.68,0-1.34-1.08-3.47-3.15-1.1a3,3,0,0,1-2.94.48c-.7-.41-.83-1.9-1.18-2.93,0-.07.17-.21.2-.34.24-1.24,2.65-2,4-1.36,4.46,2.26,9.69,4.67,11,9.62,1.6,5.89,7.48,9.6,6.79,16.4-.07.68,1.06,1.43,1.46,2.25,1.05,2.17,2,4.42,3,6.6a27.24,27.24,0,0,0,2,3.68c.34.5,1.09.69,1.65,1Z"/><path class="cls-1" d="M251.4,231.36c3.71,1.88,8.21,2.95,10.88,5.88,2.36,2.6,5.42,3.92,7.64,6.48.46.54,1.51,1.14,2,.94,2.54-1.12,3.19.59,3.68,2.55a11.37,11.37,0,0,1,.11,2.27c-.88-.28-2.35-.33-2.55-.89-.92-2.59-1.51-1.17-2.53-.09-2.94,3.1-6,6.07-9,9.08-.17.17-.54.35-.66.27a1.39,1.39,0,0,1-.63-.81,41.32,41.32,0,0,1-.66-6.34c0-.6,1.39-1.17,2.14-1.75a25,25,0,0,0-2.77-2.32,6.2,6.2,0,0,0-2.11-.46,13,13,0,0,1,2.09-1.35c2.19-.91,4.38-1.72,6.17,1,.28.42,1.23.34,1.87.49-.13-.7,0-1.68-.45-2.06-3.06-2.9-6.11-5.84-9.39-8.45a46.77,46.77,0,0,0-6.34-3.68Z"/><path class="cls-1" d="M269.38,162.51a29.32,29.32,0,0,0-1.59-5.69c-.94-1.9-2.86-3.38-.66-5.67.28-.29,0-1.18,0-1.79.41.62,1.16,1.23,1.18,1.87.17,4.92,3.41,7.89,5.83,11.57,2.83,4.3,4.56,9.41,6.72,14.2.27.59.14,1.38.38,2,.38,1,.91,2,1.38,3-1.11-.25-2.21-.55-3.32-.75a4.7,4.7,0,0,0-1.28.12c.2.49.41,1,.61,1.49l1.26,3.15c-.82-.95-2-1.75-2.4-2.86-1.76-4.49-3.18-9.13-5-13.59-.69-1.72-2.13-3.08-3.15-4.67a10.57,10.57,0,0,1-.78-2.06Z"/><path class="cls-1" d="M324.81,292.18l-5.14-.43c-1.49-2.24-2.95-4.49-4.47-6.7-.57-.84-1.29-1.57-1.94-2.35-.36,1-.69,2.06-1.09,3.06s-.77,1.72-1.15,2.58c-.1-1.06-.54-2.26-.22-3.15,1.17-3.29,2.82-6.39,3.85-9.71.87-2.8,1.08-5.82,1.73-8.71.14-.61.92-1.06,1.41-1.59a6.14,6.14,0,0,1,.28,1.81c-.69,4.41-1.45,8.81-2.16,13.21-.07.46-.18,1.11,0,1.38C318.87,285.14,321.85,288.65,324.81,292.18Z"/><path class="cls-1" d="M283.53,308.65l1.37,1.57c3.39,3.78,4.47,3.72,8.59.69a36.93,36.93,0,0,1,9-5.34c3.5-1.27,7.34-1.48,11-2.13.51-.09,1,0,1.56-.06,1.32-.13,2.65-.29,4-.44a24.14,24.14,0,0,1-4.22,2c-4.46,1.17-9,1.89-13.45,3.23-4.23,1.28-5.28,4.52-3.5,8.69.31.74-.31,1.92-.5,2.89a7.92,7.92,0,0,0-1.12-1.78c-1.2-1.09-2.39-2.55-3.81-2.94-2.33-.65-4.92-.25-7.22-.94-.88-.27-1.33-2.29-1.87-3.56C283.2,310.16,283.42,309.63,283.53,308.65Z"/><path class="cls-1" d="M380,50c-.21,2.28-.08,4.3-.67,6-.5,1.48-.91,6.19-3.57.94-.57-1.12-2.69-1.35-4.06-2.06a13.48,13.48,0,0,1-1.63-1.12,5.61,5.61,0,0,1,2-.78c1.63,0,4,1.14,4.72.39,2.06-2.29.7-5-.28-7.61-1.81-4.77-3.44-9.6-5.1-14.43a1.45,1.45,0,0,1,.36-.9c.61.14,1.5.2,1.72.62a26.75,26.75,0,0,1,1.85,4.45C377,40.5,378.54,45.46,380,50Z"/><path class="cls-1" d="M303.39,228.92q-1.38-5.23-2.74-10.47l.32-.24c.74,1.53,2.06,3,2.14,4.6.33,6.38,4.72,10.61,7.14,15.84,2.5,5.4,4.94,10.7,5.24,16.81a6,6,0,0,1-.44,1.64c-.31-.38-.76-.7-.92-1.14a16.11,16.11,0,0,1-1.15-3.88c-.75-8.83-4.74-15.76-10.71-21.76-1.58-1.59-2.36-4.08-3.41-6.2-.16-.31.19-.91.31-1.37.38.34.92.6,1.11,1,.78,1.82,1.45,3.69,2.16,5.53Z"/><path class="cls-1" d="M253.08,309.12c-1.23-.15-3.25-1.3-2.1-3.78,2.76-5.9-.92-10.74-1.73-16l-.33-2.24c.58.48,1.35.83,1.69,1.45.75,1.36,1.77,2.83,1.81,4.28.14,6.11,2.49,10.79,7.24,14.21a8.32,8.32,0,0,1,1.41,1.77,10.13,10.13,0,0,0-2.29-.37C257.2,308.51,255.63,308.79,253.08,309.12Z"/><path class="cls-1" d="M274.73,134.49a4.58,4.58,0,0,1,0-.83c.22-1.08.46-2.15.7-3.22.11,1,.25,2,.34,3,.05.51-.16,1.38.05,1.49,3.78,2.11,2.51,6.05,2.51,9.08a27.93,27.93,0,0,0,2.39,12.11,12.47,12.47,0,0,1,.8,3.18,4.65,4.65,0,0,1-.29,1.55c-.4-.41-1.05-.75-1.18-1.24-2.12-8.28-4.17-16.59-6.24-24.89Z"/><path class="cls-1" d="M185.39,328.67a6.61,6.61,0,0,1,.63-1.37,1.75,1.75,0,0,1,1.14.51c2.29,3.32,5.34,4.21,9.06,3.65,1.65-.26,1.57,0,1,1.69-.15.5.6,1.31.94,2s1.14,1.55,1,2.05c-.26.76-1.17,1.28-1.8,1.9-.21-.6-.26-1.4-.66-1.76-1.3-1.19-2.83-2.11-4.1-3.33-2-2-3.12-.39-4.41,1-.2.22-1.41-.07-1.48-.33C186.21,332.85,185.87,331,185.39,328.67Z"/><path class="cls-1" d="M338.89,250.73c3.82-3.24,8.21-5.1,9.22-8.19,2.29-7,10.49-7.14,11.93-14.4l1,.87c-1.77,3-3.49,6-5.34,9-.74,1.17-1.38,3.27-3.43,1.38a12.73,12.73,0,0,0-2.34,2.3c-2.05,2.63-3.85,5.52-6.12,7.92C343,250.45,341.09,250.26,338.89,250.73Z"/><path class="cls-1" d="M372.44,497.41c-.34,2.82-.43,5.17-.94,7.41-1.84,8.12,1.26,15.64,2.34,23.4a18.51,18.51,0,0,1-.24,3.69,35.68,35.68,0,0,1-1.1-3.75c-.36-2,0-4.36-.88-6-3.27-6.14-1.19-12.6-1.46-18.9-.18-4.2,0-8.41,0-12.62a7.92,7.92,0,0,1,.63-2,5.93,5.93,0,0,1,.81,1.66C372,492.81,372.22,495.39,372.44,497.41Z"/><path class="cls-1" d="M166.44,314.19c3.21-.68,4.51,1.41,4.68,4.92a4.48,4.48,0,0,0,.41,1.14l1.15,3.15c-.8-.72-1.52-1.78-2.44-2a4.29,4.29,0,0,0-3.29.33c-1.77,1.23-2.26.33-2.59-1.25-.2-.91,0-2-.48-2.74C161.88,314.64,163,313.93,166.44,314.19Z"/><path class="cls-1" d="M358.91,533.31c-1.44-2,.41-6.07-2.41-8.78-.48-.46,1.48-3.78,2.32-5.78,1.08,1.32,2.58,2.47,3.14,4a26.46,26.46,0,0,1,1,6.47,2.24,2.24,0,0,1-.78,1.44C361.2,531.52,360.18,532.28,358.91,533.31Z"/><path class="cls-1" d="M305.94,294.65c-2.66-1.19-4.89-2.09-7-3.22-.41-.22-.67-1.43-.51-2,.58-2.19,2-4.35,1.93-6.45-.15-3.35-1.38-6.63-2-10a8.37,8.37,0,0,1,.55-3.29c.07-.27.62-.41,1-.61,0,.36.09.73.16,1.1.79,4.51,1.58,9,2.4,13.55.07.39.53.91.42,1.11C300.31,289.13,304.48,291.18,305.94,294.65Z"/><path class="cls-1" d="M281.68,55.77c.14-2,4.17,2.29,2.4-2.2.3-.11.76-.4.85-.3,4.19,4.55,10.55,6.95,12.34,13.85a7.22,7.22,0,0,1-.1,2.16,8.87,8.87,0,0,1-1.69-1.4C289.17,59.33,289.18,59.32,281.68,55.77Z"/><path class="cls-1" d="M245.73,553.06l-.73,1.21c-.27-.27-.69-.49-.77-.81-.39-1.43-1.27-3.08-.92-4.32,2.07-7.24-.15-12.8-5.47-17.35-.2-.17-.48-.3-.6-.52-.54-1.08-1-2.17-1.5-3.29a2.7,2.7,0,0,1,.78-.57c.72.87,1.38,1.8,2.07,2.7.56.73,1.22,1.38,1.7,2.15,2.12,3.38,4.19,6.78,6.26,10.18a1.83,1.83,0,0,1,.35,1.14c-.76,3-1.59,6-2.39,9Z"/><path class="cls-1" d="M14.66,132.43c2.92,2.28,5.68,4.55,8.57,6.63s3.11,4.11,1.4,7.46c-.91,1.76.2,4.67.42,7.06,0,.11.24.19.25.3.95,7.87,7.26,13.13,9.06,20.47,1.41,5.73,1.78,11.73,2.84,17.56.38,2.1,1.5,4.05,2.11,6.12a8.71,8.71,0,0,1-.05,2.64,15.39,15.39,0,0,1-3.19-1,27.88,27.88,0,0,1-3.44-2.56c-.51-.39-1.27-.73-1.45-1.27-3.43-10.29-6.91-20.58-10-31-.47-1.55.64-3.72,1.24-5.52,1.42-4.25-.49-7.91-1.61-11.75-1.43-4.89-2-10.24-7-13a1.54,1.54,0,0,1-.34-1.4C13.54,132.86,14.17,132.71,14.66,132.43Z"/><path class="cls-1" d="M162.92,124.32c.35,3.94.73,7.87,1,11.81a4.24,4.24,0,0,1-.24,2.38c-3.57,5.53-2.34,11.86-2.88,17.92-.37,4.06-1.35,8.07-2.1,12.09-.06.29-.48.5-.74.75-.31-.39-.9-.78-.89-1.16,0-1.76.18-3.52.33-5.27.1-1.28,1-3.47-1.53-1.23-.32.29-1.1,0-1.67,0a8.9,8.9,0,0,0,.64-1.5c.11-.45.19-1.22,0-1.4-4.65-3.69.67-8.39-1.11-12.36-.11-.25.34-1.06.38-1,4.84,1.51,2.07-2.92,3-4.4.8-1.24,1.19-2.79,2.06-3.94,3.06-4,2.74-8.5-.77-12.44-.45-.52,0-2.17.35-3.21.5-1.64,1.24-3.2,1.87-4.79.94,1.89,1.91,3.76,2.78,5.67a10,10,0,0,1,.43,2Z"/><path class="cls-1" d="M104.45,153.78h-3c.22-.44.35-1.16.69-1.29,1.85-.7,3.84-2,5.62-1.7a25.26,25.26,0,0,1,8.14,2.85,11.41,11.41,0,0,1,4.9,4.3c1.35,2.64,2.9,2.38,5.11,2.16,1.39-.14,2.91.82,4.29,1.48a2.15,2.15,0,0,1,0,1.82c-1.9,2.49-3.85,4.94-6,7.24a3.05,3.05,0,0,1-2.32.46c-2.63-.26-5.81.75-7-3.1-.52.45-1.25.8-1.49,1.38-.49,1.15-.54,2.51-1.09,3.6-.27.54-1.26.67-1.92,1a6.13,6.13,0,0,1,.49-2.29c1.71-2.37.8-6.9,5.17-7.11.12,0,.36-.43.32-.52-1.29-2.6-2.12-5.77-4.07-7.6s-5-2.31-7.61-3.38Z"/><path class="cls-1" d="M81.23,146.17c2,3.37,4.19,6.65,6,10.12A18,18,0,0,1,89.62,163c.37,4.9,3.1,6.85,7.11,7.8a6.63,6.63,0,0,1,1.52.86c-.39.29-1,.47-1.16.87-1.46,3.07-3.89,2.82-6.52,2.37a7.2,7.2,0,0,1-6.08-5c-.46-1.39-.19-3.07-.15-4.61,0-1.83.79-4,.15-5.43a80.19,80.19,0,0,0-6.12-11.37c-.84-1.32-1.82-2-.62-3.64.42-.59.26-1.76.16-2.64A10.39,10.39,0,0,0,77.2,140c.84.17,2,0,2.48.55,3.27,3.31,6.48,6.71,9.52,10.25.49.56.08,2,.08,3-.82-.47-1.9-.72-2.41-1.43-1.63-2.23-3.05-4.63-4.54-7Z"/><path class="cls-1" d="M144.64,169c1.14-.45,2.27-1,3.43-1.33.35-.12.8.11,1.21.18-1.23,1.61.71,4.81-2.47,5.47-.23.05-.54.7-.49,1a13.88,13.88,0,0,0,.73,2.11,9.92,9.92,0,0,1-2.63-.2,37.72,37.72,0,0,1-4.76-2,3.57,3.57,0,0,1-1.77-1.62,2.35,2.35,0,0,1,.76-2.06c1.8-1,3.73-1.7,5.61-2.52Z"/><path class="cls-1" d="M1,114.54c2,1.29,4,2.17,5.42,3.63a22.9,22.9,0,0,1,5.06,6.6c.68,1.54-.28,3.89-.51,5.87-.38-.38-.91-.7-1.11-1.17-.71-1.61-1.27-3.29-1.93-4.93-.79-1.93-1.47-3.5-4.21-3.15-2.5.33-4.33-3.07-3.53-5.66A5,5,0,0,1,1,114.54Z"/><path class="cls-1" d="M67.76,130.8a43.89,43.89,0,0,1,3,3.25c.7.91.93,2.38,1.76,3,2.6,1.81,1.06,4.18,1.08,6.34l-6.18-2.44c.89-1.09,1-1.4,1.15-1.39,1,.1,2,.26,2.94.4-.05-.33,0-.88-.15-.95A41,41,0,0,0,67,137.14c-.86-.29-1.93-.08-2.69-.51-.54-.31-.74-1.31-1.08-2a6.68,6.68,0,0,1,2-.49c2.53.19,2.87-1.32,2.55-3.44C67.85,130.7,67.76,130.8,67.76,130.8Z"/><path class="cls-1" d="M397.92,193a.92.92,0,0,0-.17.22c-1.92,3.68-3.12,1.81-4.69-.29-1.77-2.38-3.85-4.5-5.7-6.81a6,6,0,0,1-1.51-2.8c-.45-4.75,2.23-9.31.29-14.39-.78-2,1-5.11,1.58-7.73.67-3.25,1.93-6.57,1.71-9.77-.43-6.19-1.72-12.32-2.58-18.49,0-.15,1-.77,1.2-.63a35.51,35.51,0,0,1,5.49,4.57c.31.36-1.05,2.3-1.51,3.56a28.1,28.1,0,0,0-1.1,3.87c-.08.42.24.94.38,1.41,1.25-.85,3.48-1.6,3.56-2.56.25-3,1-3.25,3.24-1.77a4.35,4.35,0,0,0,2.22.25,18.33,18.33,0,0,0,1.95-.17,14.63,14.63,0,0,1-1.49-1c-.8-.66-2.33-1.74-2.21-2,2.06-4.92,1.37-9.72.1-14.68-.52-2-.06-4.38,0-6.58s.67-4.36.06-6.18A39.26,39.26,0,0,1,397,92.56c.44-3.06.66-7.1-3.42-8.61a8,8,0,0,0-1.85-.23c.23.59.44,1.19.68,1.76.55,1.29,1.11,2.56,1.66,3.84-1.45.22-3.13,1-4.3.5-1.33-.59-2.2-2.34-3.12-3.42,0-.11-.09.27-.19.67-.94,3.79-1.92,7.18,3.13,9.17,2.66,1,5.58,3.47,5.2,7.51-.31,3.35-1,6.64.36,10,.27.67-.51,2-1.06,2.8-1.92,2.87-4.32,5.46-5.84,8.53-1.27,2.55-1.72,1.94-2.95.21a46.92,46.92,0,0,0-3.63-4.12c1.34,3.61,3,6.85,3.69,10.31.66,3.3-.21,7,.5,10.24,2,9.17,2,18.06-1.44,26.87-.33.85.32,2.08.3,3.14-.07,3.13-.25,6.27-.38,9.4L379,178.5a5.82,5.82,0,0,1-1.08-.48c-5.61-4.39-11.39-8.56-16.74-13.28-3.95-3.47-7.26-7.72-11-11.47a7.11,7.11,0,0,0-4-2.21c-5-.35-7.28-4.17-8-9.6-.08-.54-.78-1-1.19-1.47-.28.58-.83,1.19-.8,1.76.34,6.68,2.95,9.74,9.15,11.06a6.57,6.57,0,0,1,3.24,1.21c2.82,2.84,5.87,5.6,8.06,8.95,5.07,7.74,12.35,12.66,19.76,17,6.24,3.66,11.19,8,14.24,14.77a4.57,4.57,0,0,0,2.52,2.4c2,.52,1.47.81.25,1.73-2.06,1.57-4.06,3.23-6,5-.45.42-.43,1.42-.63,2.16a11.88,11.88,0,0,0,1.48-.93c1.91-1.67,3.71-3.49,5.71-5a2.62,2.62,0,0,1,2.59-.13l1.29,1.26Zm-5-72.59c1.26-1.51,2.43-3.1,3.82-4.88.51,5.18,1.17,10.31,1.41,15.46.05,1.16-1.13,2.69-2.14,3.48-.61.48-2.18.18-3-.34C388.35,131.13,388.37,125.8,392.88,120.42Z"/></g></g></svg>