<svg xmlns="http://www.w3.org/2000/svg" viewBox="0 0 341 159"><defs><style>.cls-1{fill:#f8f6fb;opacity:0.5;}.cls-2{opacity:0.8;}.cls-3{font-size:28.39px;fill:#070400;}.cls-3,.cls-8{font-family:MilkmanLight, Milkman;}.cls-4{letter-spacing:-0.01em;}.cls-5{letter-spacing:-0.02em;}.cls-6{letter-spacing:-0.01em;}.cls-7{letter-spacing:0em;}.cls-8{font-size:20px;}.cls-9{letter-spacing:-0.02em;}.cls-10{letter-spacing:-0.02em;}.cls-11{letter-spacing:0em;}.cls-12{letter-spacing:0em;}.cls-13{letter-spacing:-0.04em;}.cls-14{letter-spacing:-0.02em;}.cls-15{letter-spacing:-0.02em;}.cls-16{letter-spacing:-0.02em;}.cls-17{letter-spacing:-0.01em;}.cls-18{letter-spacing:-0.04em;}.cls-19{letter-spacing:0.01em;}.cls-20{letter-spacing:-0.02em;}.cls-21{letter-spacing:-0.01em;}.cls-22{letter-spacing:0.01em;}.cls-23{letter-spacing:-0.04em;}.cls-24{letter-spacing:-0.03em;}.cls-25{letter-spacing:-0.05em;}.cls-26{font-family:MyriadPro-Regular, Myriad Pro;}</style></defs><g id="Calque_2" data-name="Calque 2"><g id="Calque_6" data-name="Calque 6"><rect class="cls-1" width="341" height="159"/><g class="cls-2"><text class="cls-3" transform="translate(6.04 31.13)">milkman <tspan class="cls-4" x="122.73" y="0">L</tspan><tspan class="cls-5" x="137.92" y="0">i</tspan><tspan x="144.33" y="0">g</tspan><tspan class="cls-6" x="158.52" y="0">h</tspan><tspan class="cls-7" x="175.06" y="0">t</tspan></text></g><text class="cls-8" transform="translate(14.36 71.69)">abc<tspan class="cls-9" x="30.45" y="0">d</tspan><tspan class="cls-10" x="40.93" y="0">e</tspan><tspan class="cls-11" x="50.17" y="0">f</tspan><tspan x="55.49" y="0">ghij</tspan><tspan class="cls-12" x="86.75" y="0">k</tspan><tspan x="97.74" y="0">lm</tspan><tspan class="cls-13" x="120.84" y="0">n</tspan><tspan class="cls-14" x="132.22" y="0">o</tspan><tspan x="142.26" y="0">pq</tspan><tspan class="cls-15" x="163.4" y="0">r</tspan><tspan x="171.15" y="0">s</tspan><tspan class="cls-16" x="180.59" y="0">t</tspan><tspan class="cls-17" x="186.46" y="0">u</tspan><tspan x="197.14" y="0">vwx</tspan><tspan class="cls-18" x="235.49" y="0">y</tspan><tspan x="246.46" y="0">z</tspan><tspan class="cls-19" x="0" y="24">A</tspan><tspan x="12.91" y="24">B</tspan><tspan class="cls-20" x="24.1" y="24">C</tspan><tspan class="cls-9" x="36.86" y="24">D</tspan><tspan x="49.13" y="24">E</tspan><tspan class="cls-21" x="60.83" y="24">F</tspan><tspan class="cls-10" x="71.39" y="24">G</tspan><tspan x="84.9" y="24">HIJ</tspan><tspan class="cls-22" x="107.81" y="24">K</tspan><tspan x="120.34" y="24">LM</tspan><tspan class="cls-23" x="152.87" y="24">N</tspan><tspan class="cls-9" x="165.24" y="24">O</tspan><tspan x="178.28" y="24">P</tspan><tspan class="cls-9" x="189.07" y="24">Q</tspan><tspan x="202.05" y="24">RSTUVWXYZ</tspan><tspan class="cls-9" x="0" y="48">0</tspan><tspan x="11.11" y="48">12</tspan><tspan class="cls-24" x="26.64" y="48">3</tspan><tspan x="35.3" y="48">45</tspan><tspan class="cls-25" x="54.97" y="48">6</tspan><tspan x="64.27" y="48">7</tspan><tspan class="cls-14" x="74.96" y="48">8</tspan><tspan x="84.41" y="48">9.:,;()*!?</tspan><tspan class="cls-26" x="142.2" y="48">&apos;</tspan><tspan x="145.96" y="48">@#&lt;&gt;$%&amp;^+-=~ </tspan></text></g></g></svg>