<svg xmlns="http://www.w3.org/2000/svg" viewBox="0 0 341 159"><defs><style>.cls-1{fill:#f8f6fb;opacity:0.5;}.cls-2{opacity:0.8;}.cls-3{font-size:28.39px;fill:#fff;}.cls-3,.cls-8{font-family:MilkmanLight, Milkman;}.cls-4{letter-spacing:-0.01em;}.cls-5{letter-spacing:-0.02em;}.cls-6{letter-spacing:-0.01em;}.cls-7{letter-spacing:0em;}.cls-8{font-size:18.46px;}.cls-9{letter-spacing:-0.02em;}.cls-10{letter-spacing:-0.02em;}.cls-11{letter-spacing:0em;}.cls-12{letter-spacing:0em;}.cls-13{letter-spacing:-0.04em;}.cls-14{letter-spacing:-0.02em;}.cls-15{letter-spacing:-0.02em;}.cls-16{letter-spacing:0em;}.cls-17{letter-spacing:-0.02em;}.cls-18{letter-spacing:-0.01em;}.cls-19{letter-spacing:-0.04em;}.cls-20{letter-spacing:0.01em;}.cls-21{letter-spacing:-0.02em;}.cls-22{letter-spacing:0em;}.cls-23{letter-spacing:-0.01em;}.cls-24{letter-spacing:0.01em;}.cls-25{letter-spacing:-0.04em;}.cls-26{letter-spacing:-0.03em;}.cls-27{letter-spacing:-0.05em;}.cls-28{font-family:MyriadPro-Regular, Myriad Pro;}</style></defs><g id="Calque_2" data-name="Calque 2"><g id="Calque_6" data-name="Calque 6"><rect class="cls-1" width="341" height="159"/><g class="cls-2"><text class="cls-3" transform="translate(6.04 31.13)">milkman <tspan class="cls-4" x="122.73" y="0">L</tspan><tspan class="cls-5" x="137.92" y="0">i</tspan><tspan x="144.33" y="0">g</tspan><tspan class="cls-6" x="158.52" y="0">h</tspan><tspan class="cls-7" x="175.06" y="0">t</tspan></text></g><text class="cls-8" transform="translate(24.36 69.69)">abc<tspan class="cls-9" x="28.11" y="0">d</tspan><tspan class="cls-10" x="37.78" y="0">e</tspan><tspan class="cls-11" x="46.31" y="0">f</tspan><tspan x="51.23" y="0">ghij</tspan><tspan class="cls-12" x="80.08" y="0">k</tspan><tspan x="90.23" y="0">lm</tspan><tspan class="cls-13" x="111.56" y="0">n</tspan><tspan class="cls-14" x="122.06" y="0">o</tspan><tspan x="131.33" y="0">pq</tspan><tspan class="cls-15" x="150.84" y="0">r</tspan><tspan class="cls-16" x="158" y="0">s</tspan><tspan class="cls-17" x="166.71" y="0">t</tspan><tspan class="cls-18" x="172.14" y="0">u</tspan><tspan x="181.99" y="0">vwx</tspan><tspan class="cls-19" x="217.4" y="0">y</tspan><tspan class="cls-16" x="227.53" y="0">z</tspan><tspan class="cls-20" x="0" y="22.16">A</tspan><tspan x="11.92" y="22.16">B</tspan><tspan class="cls-21" x="22.25" y="22.16">C</tspan><tspan class="cls-9" x="34.02" y="22.16">D</tspan><tspan class="cls-22" x="45.36" y="22.16">E</tspan><tspan class="cls-23" x="56.16" y="22.16">F</tspan><tspan class="cls-10" x="65.9" y="22.16">G</tspan><tspan x="78.38" y="22.16">HIJ</tspan><tspan class="cls-24" x="99.53" y="22.16">K</tspan><tspan x="111.1" y="22.16">LM</tspan><tspan class="cls-25" x="141.13" y="22.16">N</tspan><tspan class="cls-9" x="152.55" y="22.16">O</tspan><tspan x="164.58" y="22.16">P</tspan><tspan class="cls-9" x="174.55" y="22.16">Q</tspan><tspan x="186.53" y="22.16">RSTUVWXYZ</tspan><tspan class="cls-9" x="0" y="44.31">0</tspan><tspan class="cls-22" x="10.26" y="44.31">12</tspan><tspan class="cls-26" x="24.59" y="44.31">3</tspan><tspan x="32.59" y="44.31">45</tspan><tspan class="cls-27" x="50.75" y="44.31">6</tspan><tspan x="59.33" y="44.31">7</tspan><tspan class="cls-14" x="69.2" y="44.31">8</tspan><tspan x="77.93" y="44.31">9.:,;()*!?</tspan><tspan class="cls-28" x="131.27" y="44.31">&apos;</tspan><tspan x="134.74" y="44.31">@#&lt;&gt;$%&amp;^+-=~ </tspan></text></g></g></svg>