<svg xmlns="http://www.w3.org/2000/svg" viewBox="0 0 341 159"><defs><style>.cls-1{fill:#f8f6fb;opacity:0.5;}.cls-2{opacity:0.8;}.cls-3{font-size:28.39px;fill:#fff;}.cls-27,.cls-3{font-family:MilkmanLight, Milkman;}.cls-4{letter-spacing:-0.02em;}.cls-5{font-size:18.46px;font-family:MilkmanBold, Milkman;}.cls-6{letter-spacing:-0.02em;}.cls-7{letter-spacing:-0.02em;}.cls-8{letter-spacing:0em;}.cls-9{letter-spacing:0em;}.cls-10{letter-spacing:-0.04em;}.cls-11{letter-spacing:-0.02em;}.cls-12{letter-spacing:-0.02em;}.cls-13,.cls-26{letter-spacing:0em;}.cls-14{letter-spacing:-0.02em;}.cls-15{letter-spacing:-0.01em;}.cls-16{letter-spacing:-0.04em;}.cls-17{letter-spacing:0.01em;}.cls-18{letter-spacing:-0.02em;}.cls-19{letter-spacing:-0.02em;}.cls-20{letter-spacing:-0.01em;}.cls-21{letter-spacing:-0.02em;}.cls-22{letter-spacing:0.01em;}.cls-23{letter-spacing:-0.04em;}.cls-24{letter-spacing:-0.03em;}.cls-25{letter-spacing:-0.05em;}.cls-26{font-family:MyriadPro-Regular, Myriad Pro;}</style></defs><g id="Calque_2" data-name="Calque 2"><g id="Calque_6" data-name="Calque 6"><rect class="cls-1" width="341" height="159"/><g class="cls-2"><text class="cls-3" transform="translate(6.04 31.13)">milkman B<tspan class="cls-4" x="138.62" y="0">o</tspan><tspan x="152.98" y="0">ld</tspan></text></g><text class="cls-5" transform="translate(24.36 69.69)">abc<tspan class="cls-6" x="28.55" y="0">d</tspan><tspan class="cls-7" x="38.35" y="0">e</tspan><tspan class="cls-8" x="47.06" y="0">f</tspan><tspan x="52.26" y="0">ghij</tspan><tspan class="cls-9" x="82.15" y="0">k</tspan><tspan x="92.35" y="0">lm</tspan><tspan class="cls-10" x="113.82" y="0">n</tspan><tspan class="cls-11" x="124.36" y="0">o</tspan><tspan x="133.77" y="0">pq</tspan><tspan class="cls-12" x="153.56" y="0">r</tspan><tspan class="cls-13" x="160.95" y="0">s</tspan><tspan class="cls-14" x="169.87" y="0">t</tspan><tspan class="cls-15" x="175.62" y="0">u</tspan><tspan class="cls-13" x="185.58" y="0">vwx</tspan><tspan class="cls-16" x="220.99" y="0">y</tspan><tspan x="231.18" y="0">z</tspan><tspan class="cls-17" x="0" y="22.16">A</tspan><tspan x="11.92" y="22.16">B</tspan><tspan class="cls-18" x="22.37" y="22.16">C</tspan><tspan class="cls-19" x="34.14" y="22.16">D</tspan><tspan x="45.51" y="22.16">E</tspan><tspan class="cls-20" x="56.38" y="22.16">F</tspan><tspan class="cls-21" x="66.24" y="22.16">G</tspan><tspan x="78.68" y="22.16">HIJ</tspan><tspan class="cls-22" x="100.58" y="22.16">K</tspan><tspan x="112.17" y="22.16">LM</tspan><tspan class="cls-23" x="141.87" y="22.16">N</tspan><tspan class="cls-6" x="153.27" y="22.16">O</tspan><tspan x="165.31" y="22.16">P</tspan><tspan class="cls-19" x="175.38" y="22.16">Q</tspan><tspan x="187.37" y="22.16">RSTUVWXYZ</tspan><tspan class="cls-19" x="0" y="44.31">0</tspan><tspan x="10.39" y="44.31">12</tspan><tspan class="cls-24" x="25.3" y="44.31">3</tspan><tspan x="33.51" y="44.31">45</tspan><tspan class="cls-25" x="52.1" y="44.31">6</tspan><tspan x="60.84" y="44.31">7</tspan><tspan class="cls-11" x="70.87" y="44.31">8</tspan><tspan x="79.8" y="44.31">9.:,;()*!?</tspan><tspan class="cls-26" x="137.49" y="44.31">&apos;</tspan><tspan x="140.96" y="44.31">@#&lt;&gt;$%&amp;^+-=~</tspan><tspan class="cls-27" x="250.59" y="44.31"> </tspan></text></g></g></svg>