<svg xmlns="http://www.w3.org/2000/svg" viewBox="0 0 341 159"><defs><style>.cls-1{fill:#f8f6fb;opacity:0.5;}.cls-2{font-size:18.46px;font-family:MilkmanRegular, Milkman;}.cls-3{letter-spacing:-0.02em;}.cls-4{letter-spacing:-0.02em;}.cls-5{letter-spacing:0em;}.cls-6{letter-spacing:0em;}.cls-7{letter-spacing:-0.05em;}.cls-8{letter-spacing:-0.02em;}.cls-9{letter-spacing:-0.02em;}.cls-10{letter-spacing:-0.02em;}.cls-11{letter-spacing:-0.01em;}.cls-12{letter-spacing:0em;}.cls-13{letter-spacing:-0.04em;}.cls-14{letter-spacing:0.01em;}.cls-15{letter-spacing:-0.02em;}.cls-16{letter-spacing:-0.02em;}.cls-17{letter-spacing:0em;}.cls-18{letter-spacing:-0.01em;}.cls-19{letter-spacing:-0.02em;}.cls-20{letter-spacing:0.01em;}.cls-21{letter-spacing:-0.04em;}.cls-22{letter-spacing:-0.03em;}.cls-23{letter-spacing:-0.05em;}.cls-24{letter-spacing:-0.02em;}.cls-25{font-family:MyriadPro-Regular, Myriad Pro;}.cls-26{opacity:0.8;}.cls-27{font-size:28.39px;fill:#fff;font-family:MilkmanLight, Milkman;}</style></defs><g id="Calque_2" data-name="Calque 2"><g id="Calque_6" data-name="Calque 6"><rect class="cls-1" width="341" height="159"/><text class="cls-2" transform="translate(29.95 73.05)">abc<tspan class="cls-3" x="28.66" y="0">d</tspan><tspan class="cls-4" x="38.5" y="0">e</tspan><tspan class="cls-5" x="47.22" y="0">f</tspan><tspan x="52.19" y="0">ghij</tspan><tspan class="cls-6" x="81.77" y="0">k</tspan><tspan x="91.97" y="0">lm</tspan><tspan class="cls-7" x="113.57" y="0">n</tspan><tspan class="cls-8" x="124.14" y="0">o</tspan><tspan x="133.59" y="0">pq</tspan><tspan class="cls-9" x="153.45" y="0">r</tspan><tspan x="160.79" y="0">s</tspan><tspan class="cls-10" x="169.72" y="0">t</tspan><tspan class="cls-11" x="175.33" y="0">u</tspan><tspan class="cls-12" x="185.31" y="0">vwx</tspan><tspan class="cls-13" x="221.08" y="0">y</tspan><tspan x="231.27" y="0">z</tspan><tspan class="cls-14" x="0" y="22.16">A</tspan><tspan x="12.03" y="22.16">B</tspan><tspan class="cls-15" x="22.55" y="22.16">C</tspan><tspan class="cls-16" x="34.51" y="22.16">D</tspan><tspan class="cls-17" x="45.99" y="22.16">E</tspan><tspan class="cls-18" x="56.95" y="22.16">F</tspan><tspan class="cls-19" x="66.87" y="22.16">G</tspan><tspan x="79.47" y="22.16">HIJ</tspan><tspan class="cls-20" x="101.08" y="22.16">K</tspan><tspan x="112.82" y="22.16">LM</tspan><tspan class="cls-21" x="143.07" y="22.16">N</tspan><tspan class="cls-16" x="154.55" y="22.16">O</tspan><tspan x="166.75" y="22.16">P</tspan><tspan class="cls-16" x="176.9" y="22.16">Q</tspan><tspan x="189.04" y="22.16">RSTUVWXYZ</tspan><tspan class="cls-16" x="0" y="44.31">0</tspan><tspan x="10.48" y="44.31">12</tspan><tspan class="cls-22" x="25.31" y="44.31">3</tspan><tspan x="33.52" y="44.31">45</tspan><tspan class="cls-23" x="52.25" y="44.31">6</tspan><tspan x="61.01" y="44.31">7</tspan><tspan class="cls-24" x="71.18" y="44.31">8</tspan><tspan x="80.13" y="44.31">9.:,;()*!?</tspan><tspan class="cls-25" x="137.17" y="44.31">&apos;</tspan><tspan x="140.64" y="44.31">@#&lt;&gt;$%&amp;^+-=~ </tspan></text><g class="cls-26"><text class="cls-27" transform="translate(11.47 31.06)">milkman</text></g></g></g></svg>