<svg xmlns="http://www.w3.org/2000/svg" viewBox="0 0 341 159"><defs><style>.cls-1{fill:#f8f6fb;opacity:0.5;}.cls-2{opacity:0.8;}.cls-3{font-size:28.39px;fill:#070301;font-family:MilkmanLight, Milkman;}.cls-4{letter-spacing:-0.02em;}.cls-5{font-size:20px;font-family:MilkmanBold, Milkman;}.cls-6{letter-spacing:-0.02em;}.cls-7{letter-spacing:-0.02em;}.cls-8{letter-spacing:0em;}.cls-9{letter-spacing:0em;}.cls-10{letter-spacing:-0.04em;}.cls-11{letter-spacing:-0.02em;}.cls-12{letter-spacing:-0.02em;}.cls-13{letter-spacing:-0.02em;}.cls-14{letter-spacing:-0.01em;}.cls-15{letter-spacing:-0.04em;}.cls-16{letter-spacing:0.01em;}.cls-17{letter-spacing:-0.02em;}.cls-18{letter-spacing:-0.01em;}.cls-19{letter-spacing:0.01em;}.cls-20{letter-spacing:-0.04em;}.cls-21{letter-spacing:-0.03em;}.cls-22{letter-spacing:-0.05em;}.cls-23{font-family:MyriadPro-Regular, Myriad Pro;}</style></defs><g id="Calque_2" data-name="Calque 2"><g id="Calque_6" data-name="Calque 6"><rect class="cls-1" width="341" height="159"/><g class="cls-2"><text class="cls-3" transform="translate(6.04 31.13)">milkman B<tspan class="cls-4" x="138.62" y="0">o</tspan><tspan x="152.98" y="0">ld</tspan></text></g><text class="cls-5" transform="translate(16.36 75.69)">abc<tspan class="cls-6" x="30.93" y="0">d</tspan><tspan class="cls-7" x="41.54" y="0">e</tspan><tspan class="cls-8" x="50.98" y="0">f</tspan><tspan x="56.61" y="0">ghij</tspan><tspan class="cls-9" x="88.98" y="0">k</tspan><tspan x="100.04" y="0">lm</tspan><tspan class="cls-10" x="123.29" y="0">n</tspan><tspan class="cls-11" x="134.71" y="0">o</tspan><tspan x="144.9" y="0">pq</tspan><tspan class="cls-12" x="166.34" y="0">r</tspan><tspan x="174.35" y="0">s</tspan><tspan class="cls-13" x="184" y="0">t</tspan><tspan class="cls-14" x="190.23" y="0">u</tspan><tspan x="201.03" y="0">vwx</tspan><tspan class="cls-15" x="239.38" y="0">y</tspan><tspan x="250.42" y="0">z</tspan><tspan class="cls-16" x="0" y="24">A</tspan><tspan x="12.91" y="24">B</tspan><tspan class="cls-17" x="24.23" y="24">C</tspan><tspan class="cls-6" x="36.98" y="24">D</tspan><tspan x="49.3" y="24">E</tspan><tspan class="cls-18" x="61.07" y="24">F</tspan><tspan class="cls-7" x="71.75" y="24">G</tspan><tspan x="85.22" y="24">HIJ</tspan><tspan class="cls-19" x="108.96" y="24">K</tspan><tspan x="121.5" y="24">LM</tspan><tspan class="cls-20" x="153.67" y="24">N</tspan><tspan class="cls-6" x="166.03" y="24">O</tspan><tspan x="179.06" y="24">P</tspan><tspan class="cls-6" x="189.98" y="24">Q</tspan><tspan x="202.96" y="24">RSTUVWXYZ</tspan><tspan class="cls-6" x="0" y="48">0</tspan><tspan x="11.25" y="48">12</tspan><tspan class="cls-21" x="27.4" y="48">3</tspan><tspan x="36.3" y="48">45</tspan><tspan class="cls-22" x="56.44" y="48">6</tspan><tspan x="65.91" y="48">7</tspan><tspan class="cls-11" x="76.77" y="48">8</tspan><tspan x="86.45" y="48">9.:,;()*!?</tspan><tspan class="cls-23" x="148.94" y="48">&apos;</tspan><tspan x="152.7" y="48">@#&lt;&gt;$%&amp;^+-=~ </tspan></text></g></g></svg>