<?xml version="1.0" encoding="utf-8"?>
<!-- Generator: Adobe Illustrator 26.1.0, SVG Export Plug-In . SVG Version: 6.00 Build 0)  -->
<svg version="1.1" id="Calque_1" xmlns="http://www.w3.org/2000/svg" xmlns:xlink="http://www.w3.org/1999/xlink" x="0px" y="0px"
	 viewBox="0 0 289.5 21.1" style="enable-background:new 0 0 289.5 21.1;" xml:space="preserve">
<style type="text/css">
	.st0{fill:#FFFFFF;}
</style>
<g>
	<path class="st0" d="M1,10C1,6.9,3.7,5,8.3,5c4.5,0,7.3,1.9,7.3,5.1c0,3.2-2.7,5.1-7.3,5.1C3.7,15.2,1,13.2,1,10z M14.4,10
		c0-2.5-2.3-4.1-6.1-4.1C4.4,6,2.1,7.5,2.1,10c0,2.6,2.3,4.2,6.1,4.2C12.1,14.2,14.4,12.6,14.4,10z"/>
	<path class="st0" d="M27.3,14h6.5V8.6h-4.1V7.8l2.9,0C33.9,7.7,34,7.5,34,5H35v9h5.4v1H27.3V14z"/>
	<path class="st0" d="M58.7,11.4c5.5-1,5.9-1.8,5.9-3c0-1.3-1.6-2.4-5.1-2.4c-3.6,0-5.6,1.1-5.6,2.8c0,0.4,0.1,0.8,0.2,1h-1.1
		c-0.1-0.2-0.2-0.6-0.2-1.2C52.7,6.6,55,5,59.4,5c4.3,0,6.2,1.7,6.2,3.4c0,1.5-0.7,2.8-6.5,3.8c-5.4,0.9-5.4,1.2-5.4,1.9H66v1H52.6
		C52.6,12.9,52.7,12.4,58.7,11.4z"/>
	<path class="st0" d="M77.7,11.9c0-0.2,0-0.5,0.1-0.6h1.1c0,0.1,0,0.3,0,0.5c0,1.2,1.4,2.4,6,2.4c4.6,0,6.3-1.1,6.3-2.4
		c0-0.9-0.9-1.5-3.8-1.5h-3.6V9.5h3.1c2.5,0,3.5-0.6,3.5-1.5c0-1.2-1.8-2-5.3-2c-4.4,0-5.8,1.1-5.8,2.4c0,0.2,0,0.3,0.1,0.4h-1
		c0-0.1-0.1-0.3-0.1-0.6C78.1,6.7,79.8,5,85,5c4.2,0,6.3,1.2,6.3,2.8c0,0.8-0.5,1.7-2.3,1.9v0c2.2,0.2,3.2,1,3.2,2.2
		c0,1.8-2.2,3.3-7.5,3.3C79.2,15.2,77.7,13.4,77.7,11.9z"/>
	<path class="st0" d="M114.1,12.7h-11v-1.1L114,5.1h1.2v6.6h3.2v1h-3.2V15h-1.2V12.7z M114.1,11.7V6.2h0l-9.2,5.5v0H114.1z"/>
	<path class="st0" d="M129.1,12.4c0,0,0-0.1,0-0.2h1.1v0.1c0,0.9,1.3,1.9,6.2,1.9c4.1,0,5.5-1.2,5.5-2.5c0-1.3-1.5-2.3-5.5-2.3
		c-3.7,0-5.2,0.8-5.7,1.3l-1.2-0.2l0.7-5.5h11.6v1h-10.7l-0.5,3.9h0c0.7-0.8,2.3-1.5,5.9-1.5c4.9,0,6.5,1.4,6.5,3.1
		c0,1.8-1.7,3.5-6.7,3.5C130.6,15.2,129.1,13.6,129.1,12.4z"/>
	<path class="st0" d="M154.3,10.2c0-3.1,2.5-5.2,7.5-5.2c4.6,0,6.5,1.5,6.5,3.1c0,0.1,0,0.2,0,0.3h-1.1c0-0.1,0-0.2,0-0.3
		c0-1.2-1.3-2.2-5.4-2.2c-4.3,0-6.4,1.6-6.4,4.2c0,0.4,0,0.8,0.2,1.3h0c0.4-1.6,2.6-2.3,6.6-2.3c5.4,0,6.7,1.3,6.7,2.8
		c0,1.6-1.5,3.2-7.1,3.2C155.5,15.2,154.3,12.7,154.3,10.2z M167.8,12c0-1.1-1-1.9-5.7-1.9c-4.7,0-6.1,1.1-6.1,2.2
		c0.1,0.3,0.7,2,5.9,2C166.5,14.2,167.8,13.2,167.8,12z"/>
	<path class="st0" d="M192.8,6.2L192.8,6.2l-12.7,0v-1h14.2v0.9c-4,2.1-7.8,5.5-9.8,8.9h-1.4C185.4,11.2,189.1,8.1,192.8,6.2z"/>
	<path class="st0" d="M205.5,12.3c0-1.2,1.1-2.2,4.3-2.4v0c-2.5-0.2-3.4-1-3.4-2.2c0-1.4,1.9-2.7,6.4-2.7c4.5,0,6.4,1.3,6.4,2.7
		c0,1.1-0.9,1.9-3.4,2.2v0c3.2,0.2,4.3,1.2,4.3,2.4c0,1.7-2.2,2.9-7.3,2.9C207.7,15.2,205.5,13.9,205.5,12.3z M218.9,12.2
		c0-1.1-1.7-1.8-6.1-1.8c-4.5,0-6.1,0.8-6.1,1.8c0,1.3,2,2,6.1,2C216.9,14.2,218.9,13.5,218.9,12.2z M218,7.8c0-1.1-1.6-1.8-5.3-1.8
		c-3.7,0-5.3,0.8-5.3,1.8c0,1.1,1.6,1.7,5.3,1.7C216.5,9.5,218,8.8,218,7.8z"/>
	<path class="st0" d="M231.5,12.2c0-0.1,0-0.1,0-0.3h1.1v0.2c0,1.1,1.2,2.1,5.5,2.1c4.3,0,6.4-1.5,6.4-4.2c0-0.4,0-0.9-0.2-1.3h0
		c-0.2,1.2-1.5,2.5-6.6,2.5c-5.3,0-6.6-1.5-6.6-2.9c0-1.5,1.5-3.4,7-3.4c6.3,0,7.6,2.5,7.6,5c0,3.3-2.4,5.2-7.5,5.2
		C233.1,15.2,231.5,13.8,231.5,12.2z M244,7.9c-0.3-0.5-1.3-1.9-5.9-1.9c-4.7,0-5.9,1.3-5.9,2.4c0,1,1,2.1,5.6,2.1
		C242,10.4,244,9.4,244,7.9z"/>
</g>
</svg>
