<svg xmlns="http://www.w3.org/2000/svg" viewBox="0 0 263.09 318.29"><defs><style>.cls-1{fill:#3f8ecc;}.cls-2{font-size:35px;font-family:AvianoFutureRegular, Aviano Future;}.cls-2,.cls-3,.cls-6{fill:#fff;}.cls-4,.cls-6{stroke:#fff;stroke-miterlimit:10;}.cls-5{fill:red;}.cls-6{stroke-width:0.5px;}</style></defs><g id="Calque_2" data-name="Calque 2"><g id="tracée"><rect class="cls-1" width="263.09" height="318.29"/><text class="cls-2" transform="translate(30.34 62.94)">Oblivion</text><circle class="cls-3" cx="130.52" cy="242.97" r="55.63"/><path class="cls-4" d="M158.93,217.18l-17,9.62-21.43-.4L103,216.34s-10.17-4.66-15.56,3.94c-2.65,4.23-2.17,8.13-.75,10.35a11.31,11.31,0,0,0,3.58,3.44l15.18,9.56,0,1.86L91,255.45s-8.21,3.81-5.41,13A10.56,10.56,0,0,0,90.92,275a13,13,0,0,0,12.38-.33l17.76-9.95,21.64.2s12.82,7.81,16.83,9.42,5.81.8,5.81.8,5.81-.8,8.21-7.62a11,11,0,0,0,.56-5.34,10.87,10.87,0,0,0-4.64-7.25l-12.15-8.45V244l13.43-8.41a8.42,8.42,0,0,0,3.17-10.46C171.22,218.21,165.61,214,158.93,217.18Z"/><ellipse class="cls-4" cx="102.52" cy="228.6" rx="7.11" ry="7.61"/><ellipse class="cls-5" cx="102.42" cy="228.72" rx="2.91" ry="2.5"/><path class="cls-6" d="M119,240.37v2.46h1.39v9.65h3.16V240.37S118.79,240.12,119,240.37Z"/><path class="cls-6" d="M129.08,240.31h2.84L128,246.24v2.52l.92.92h3.25l.63-.92-.88-1.7H130l1.58-2.65s4.48-.32,4,4.6c0,0-.13,3.6-3.1,3.35h-5L125,249.9v-4.8Z"/><path class="cls-6" d="M141.13,240.21H144l-3.91,5.93v2.52l.91.92h3.25l.63-.92L144,247h-1.9l1.58-2.65s4.48-.32,4,4.6c0,0-.13,3.6-3.09,3.35h-5L137,249.8V245Z"/></g></g></svg>