<svg xmlns="http://www.w3.org/2000/svg" viewBox="0 0 132.4 138.07"><defs><style>.cls-1{stroke:#fff;stroke-miterlimit:10;stroke-width:2px;}.cls-2{fill:#fff;}</style></defs><g id="Calque_2" data-name="Calque 2"><g id="Calque_1-2" data-name="Calque 1"><rect class="cls-1" x="1" y="1" width="130.4" height="136.07"/><path class="cls-2" d="M112.38,28.76c.11.24.11.31-.08.39a2.58,2.58,0,0,0-.4,1.62,1.45,1.45,0,0,0,1.54,1.65,1.52,1.52,0,0,0,1.49-1.5,3.57,3.57,0,0,0-.47-1.65c-.2-.2-.12-.27.2-.27a2.34,2.34,0,0,1,1.88,2.36,3.46,3.46,0,0,1-1.1,2.55c-.74.59-2.12,2.05-3,2.79a6.71,6.71,0,0,1-3.61,1.22,9.86,9.86,0,0,1-4-1.77,36.63,36.63,0,0,1-3.15-2.79c-.23-.24-.35-.24-.43-.12-.32.4-.39.95-.39,2.09,0,2.83,1.69,3.81,2.91,4.52,1.84,1.1,2.08,2.28,2.08,3.1s-.63,1.34-1.57,1.73a2.13,2.13,0,0,0-1.38-.39,1.72,1.72,0,0,0-1.65,1.77,1.07,1.07,0,0,0,1.06,1.14,2.11,2.11,0,0,0,1.26-.47c.12,0,.2.08.2.23a1.5,1.5,0,0,1-.44.91,5.48,5.48,0,0,1-3.1,1,7.07,7.07,0,0,1-6.45-6.33,7.84,7.84,0,0,1,1.93-4.91,13.34,13.34,0,0,0,1.77-4.25c.11-.51.11-.75,0-.82-.08-.28-.63-.52-1.42-.52-1.49,0-2.71,1.93-4.72,4a4.48,4.48,0,0,1-2.79,1.34,7.52,7.52,0,0,1-5.07-2.56c-.59-.78-.83-1-1.46-1.73a6.23,6.23,0,0,1-1.37-3.53,3.9,3.9,0,0,1,.16-1.18.43.43,0,0,1,.47-.28A12.18,12.18,0,0,1,83,29a.18.18,0,0,1,0,.27A2.81,2.81,0,0,0,82.5,31a1.31,1.31,0,0,0,1.33,1.46c.87,0,2.09-.71,2.09-1.73A3.92,3.92,0,0,0,85.45,29a2.11,2.11,0,0,1-.36-1.26,4.19,4.19,0,0,1,1.38-3.23c.39-.43.7-.51,1.53-.51a19.85,19.85,0,0,1,4.64,1,2.44,2.44,0,0,1,1.14,1.45c.59,2,1.57,3,2.79,3a4.05,4.05,0,0,0,2.64-1.1,3.92,3.92,0,0,0,1.06-2.6v-.55c-3.42.24-6.84-1.37-6.84-5.07a4.57,4.57,0,0,1,1.1-3.11c-2.79-.19-6.73.71-6.73,1.85,0,.79-.39,3.07-.86,3.07-.12,0-1-.51-1-1a5.69,5.69,0,0,0,.47-4.6c-.16-.36-.16-.44,0-.55s1.34-1.22,1.41-1.22a7.08,7.08,0,0,0,3,.74,16.28,16.28,0,0,0,5.58-1A6,6,0,0,0,99.09,11a1.24,1.24,0,0,1,.82-.71c.08,0,1.89,1.14,2,1.22s.15.87.08,1-3.19,3.11-3.86,3.62c-.19.2-.27.4-.19.47,1.57,1.1,3.3,3.07,3.93,7.2a8.25,8.25,0,0,0,2.24-1.1.94.94,0,0,0,.47-.83c0-.51-.2-1.1-1.22-2.2a3.06,3.06,0,0,1-.82-2A2.94,2.94,0,0,1,104.51,15a19.53,19.53,0,0,0,3.07-1.3,2.18,2.18,0,0,0,.67-1.85c0-.11.08-.11.19-.11s.91.9.91,1.88a2.9,2.9,0,0,1-.95,2.17c-.78.78-.74,1.06-.74,1.41,0,.51,1,1.1,1.65,1.57a1.46,1.46,0,0,1,.79,1.26c0,1.34-2.09,3.15-2.84,3.15a2.88,2.88,0,0,1-1.41-.28,9.47,9.47,0,0,1-3.78,2.24,16.39,16.39,0,0,1-.07,1.69,7,7,0,0,1-1,3c-.08.08,0,.24.24.24a5.22,5.22,0,0,0,2.2-1.14c.59-.47,1.65-1.54,2.48-2.09a2.9,2.9,0,0,1,2-.63A5.38,5.38,0,0,1,112.38,28.76Zm-12.19-5c-.24-3.07-2.09-6.49-4-6.49A3.35,3.35,0,0,0,95,20C95,22.75,97.75,23.77,100.19,23.81Z"/><path class="cls-2" d="M82.28,85a11,11,0,0,0-7.36-1.19.77.77,0,0,1-.57-.88,33.42,33.42,0,0,0,1.56-6.32,6.29,6.29,0,0,1-2.28-1.24,5.73,5.73,0,0,1,1.71-3.11c.31-.31.72-.15,1.55.57A10.61,10.61,0,0,1,87,66.55a16.09,16.09,0,0,1,4.51.83c.15-6.16-3-6-3.58-6a7,7,0,0,0-2,.42,9.13,9.13,0,0,1-3.37.62,3,3,0,0,1-3.26-2.9c0-3.31,4.14-5.59,7.77-4.92A3.38,3.38,0,0,0,86,57.33a2.36,2.36,0,0,0,2,2.59A3.6,3.6,0,0,0,90.15,59c.88-.57,1-.67,1.71-.67a2.82,2.82,0,0,1,1.61.52.67.67,0,0,1,.31.77,11.71,11.71,0,0,0-.47,3.58,36,36,0,0,1,.1,4.92,51.36,51.36,0,0,1,5.08,2.59,14,14,0,0,1-1.14-5.65,3.64,3.64,0,0,1,1-2.59c2.13-2.48,4.92-3,7.93-3a3.22,3.22,0,0,1,2.79,1.81A33,33,0,0,1,112,67.54c1.19,3.16,3.52,3.78,4.76,3.78,2.43,0,5.18-1.19,5.18-3.47a4.8,4.8,0,0,0-3-4.2v-1a5.83,5.83,0,0,1,3.15-1.61,6.63,6.63,0,0,1,2.28,5c0,1.19-1.29,4.14-3.47,8.6-1.86,3.78-2.12,4.29-4.61,6.52s-8.18,4-12.17,4A12.81,12.81,0,0,1,96,82.35a12.36,12.36,0,0,1-1.65-5.07c0-.83.31-1.2,1.29-1.92s2.69-1.66,3-2.33A17.7,17.7,0,0,0,93,70c-2.28,8-10.88,8-11.92,8a22,22,0,0,1-2.69-.46c-.31,4.29,1.55,5.17,4,5.64Zm8.8-15.48a11.22,11.22,0,0,0-4-.52,7.89,7.89,0,0,0-7.77,5.33,5.9,5.9,0,0,0,3.32.83C84.09,75.15,89.42,74.74,91.08,69.51Z"/><path class="cls-2" d="M31.54,13.94a9.08,9.08,0,0,1,3.31-2.61c.78-.26,1,0,1.65.43a9.64,9.64,0,0,1,1.91,3.39c.09.35-.69.79-1.21,1.14C41.46,19.76,43,26.9,43,29.94c0,1.65,0,3-.09,3.91h1c1.22,0,4.26-.87,5-1.56.52-.44.52-.44.17-.87a9.08,9.08,0,0,1-1.74-4.79,13.24,13.24,0,0,1,3.31-8.78,11.63,11.63,0,0,1,8.6-4.35c4.87,0,6.87,4.52,6.87,6.87,0,.79-.43,1.13-.78.79a6.86,6.86,0,0,0-3.56-1.05c-1.74,0-3,2.09-3,4.26A11.44,11.44,0,0,0,59.89,29a2.66,2.66,0,0,1,0,2c-.35.61-3.56,3.31-4.26,3.31s-2.09-.35-2.87-.44a3.16,3.16,0,0,0-1.48.26,15.74,15.74,0,0,1-8.87,2.52A30.82,30.82,0,0,1,41,41.85a6.18,6.18,0,0,0-.35,4c5.22-4.61,8.35-5.13,10.61-5.13a8.35,8.35,0,0,1,6.52,2.52c1.92,2,2.7,5.83,2.7,9.13,0,4.78-3,10.61-5.13,11.57C46.5,63.94,40,67.33,40,76c0,5.39,3.56,6.87,7.13,6.87C54.93,82.89,60,75.24,60,70.2a3.34,3.34,0,0,1,2.17-.78c.18,1,1.65,5.21,1.65,6,0,5-6.87,11.22-15.91,11.22A21.29,21.29,0,0,1,38.5,84.2c-.87-.44-1.3-.7-4.09-.7-8.26,0-26.34-8.26-26.34-25.56,0-5.74,2.08-12.09,5.47-15.31a15.6,15.6,0,0,1,10-4.6c4.26,0,10,5.47,11.31,6.26A4.64,4.64,0,0,0,36.5,43,26.75,26.75,0,0,0,39.19,36C33.72,34.72,28.5,30.29,28.5,23.24c0-2.17.35-4.43.87-5.22a15.89,15.89,0,0,0-3.57-.34c-3.39,0-6.87,1.21-8.43,3.39a6.09,6.09,0,0,0-.44,2.43c.18,1.05,1.22,4.27,1.48,6.09l-1.65.17c-1.82-4.08-3.91-4.78-4.61-5.21-.87-.52-.87-.52-.87-1.05a37.14,37.14,0,0,1,1.31-5.13c1.82-2.52,7.39-5.22,13.21-5.22A16.94,16.94,0,0,1,31.54,13.94Zm8,19.39c.09-1.13.18-2.35.18-3,0-5.39-2.35-9.57-5.92-11.22-1.21,1.56-1.21,4.09-1.21,5.21A9.35,9.35,0,0,0,39.54,33.33Z"/><path class="cls-2" d="M29.08,122.68c0,.57-5,5.15-5.72,5.15-.47,0-5.14-5.15-5.14-6,0-.28,5.43-5.23,5.9-5.23C25.65,116.59,29.08,122.39,29.08,122.68Zm.66-20.29c0,.67-5.43,4.38-6.19,4.38-.47,0-3.43-6.38-3.43-7,0-1.42,5.72-4.47,6.38-4.47S29.74,101.44,29.74,102.39Zm14.2,6.38c3.62,2.48,7.71,4.58,10.47,4.58,2.39,0,3.15-1.15,3.15-3a14.75,14.75,0,0,0-1.43-5,2.92,2.92,0,0,1,1.33-1.63c.77,0,4.1,2.58,4.77,4a2.64,2.64,0,0,1-.38,3.23c-1.62,2.19-7.34,7.53-10.39,7.53-1.81,0-4.09-.57-8.28-3.15-4.86-2.85-7-3.71-9.53-3.71-2,0-4.67,1.33-5.43,1.62,0-1.14,0-2.48.76-3,.95-.67,6.1-3.72,8.58-3.72A12.5,12.5,0,0,1,43.94,108.77Z"/><path class="cls-2" d="M94.89,106.68a12.07,12.07,0,0,0,5.24,1.43c.38,0,.38.57.38,1.52a4.49,4.49,0,0,1-3.52,4c-2.2,0-7-2.67-9.63-4a19.45,19.45,0,0,0-8.19-1.9,3.2,3.2,0,0,0-3.52,3.14c0,2.76,1.62,4.57,2.95,6a1.55,1.55,0,0,1,.48,1.33c0,1.34-2.1,3.34-2.67,3.34-1,0-5-2.48-5-7.62,0-2.1,1.53-5.62,5-8.29s5.53-2.86,6.57-2.86C87.55,102.77,92.22,105.63,94.89,106.68ZM114,121.92c0,.67-5.91,5.33-6.58,5.33-.95,0-4.66-4.66-4.66-5.9,0-.76,5.33-5.34,5.81-5.34C110.13,116,114,121.35,114,121.92Zm0-21c0,2.47-3.62,5.52-5.05,5.52a14.73,14.73,0,0,1-4.86-4.38c-.67-1.05.09-1.71.48-2.38.85-1.14,5.33-3.62,6.38-3.62C112.23,96,114,100.2,114,100.87Z"/></g></g></svg>