<svg xmlns="http://www.w3.org/2000/svg" viewBox="0 0 51.71 66.85"><defs><style>.cls-1{fill:#fff;}</style></defs><g id="Calque_2" data-name="Calque 2"><g id="Calque_1-2" data-name="Calque 1"><path class="cls-1" d="M0,33.36C0,24,0,14.62,0,5.25,0,1.1,1,.13,5.23.13c7.73,0,15.45,0,23.17,0,1,0,2.56-.56,2.52,1.08,0,1.48-1.59,1.16-2.61,1.16-7.4,0-14.8.09-22.19,0-2.52,0-3.44.79-3.42,3.39q.12,27.78,0,55.56c0,2.67,1,3.32,3.43,3.3q19.74-.14,39.48,0c2.67,0,3.61-.82,3.59-3.56-.12-12.2-.06-24.4,0-36.6a22,22,0,0,1,.14-2.93,1.16,1.16,0,0,1,1.35-1.09c.67,0,.9.58,1,1.13a19.23,19.23,0,0,1,.11,2.28q0,18.8,0,37.58c0,4.55-.87,5.42-5.25,5.42q-20.55,0-41.11,0C.94,66.85,0,66,0,61.47,0,52.1,0,42.73,0,33.36Z"/><path class="cls-1" d="M43.53,18.13c-10.1,0-10.1,0-10.1-10.14,0-2-.08-3.92,0-5.87C33.59-.17,35-.61,36.47.83q7.28,7,14.28,14.31c1.49,1.57.84,2.85-1.36,3C47.44,18.21,45.48,18.13,43.53,18.13Zm2.37-2.89L36.55,5.1c-1.49,10.05-1,10.56,8.69,10.22A3,3,0,0,0,45.9,15.24Z"/></g></g></svg>