<?xml version="1.0" encoding="UTF-8"?><svg xmlns="http://www.w3.org/2000/svg" viewBox="0 0 375.24 299.28"><defs><style>.d{fill:#f60000;}.e{fill:#fff;}.f{fill:#e20613;}</style></defs><g id="a"/><g id="b"><g id="c"><g><path class="d" d="M375.24,115.2v71.38l-234.01,70.41h-.06l-5.9,1.77s-.04,0-.05,.01l-2.31,.7h0l-3.06,.93h-.01l-7.4,2.22-2.26,.68-12.41,3.73-4.21,1.27-4.99,1.5-1.89,.57-8.7,2.62-4.69,1.41-20.77,6.25-4.31,1.29-16.55,4.98-3.36,1.02h-.02L.56,299.28,0,0,106.68,32.75l1.46,.45,1.32,.41h0l4.46,1.37,18.56,5.69,13.82,4.25,17.72,5.44,2.01,.62,14.4,4.42,7.55,2.31h.01l86.04,26.42s.01,.01,.02,0c.01,.01,.01,0,.01,0l4.28,1.35s.03,0,.05,0t.02,0l4.53,1.39,6.24,1.91,10.57,3.25,3.62,1.11,22.63,6.95,4.6,1.41,44.63,13.7Z"/><g><path class="e" d="M38.28,29.01c0,4.08-4.56,5.71-5.33,5.71-.48,0-.86-.1-.86-.48,0-.34,.38-.58,.62-.77,1.63-.86,2.88-2.11,2.88-3.41,0-1.54-.72-1.73-2.06-2.21-.43-.1-1.15-.19-1.15-1.39,0-1.06,1.06-1.92,2.16-1.92,2.5,0,3.74,2.11,3.74,4.46Z"/><path class="e" d="M54.16,29.01c0,4.08-4.56,5.71-5.33,5.71-.48,0-.86-.1-.86-.48,0-.34,.38-.58,.62-.77,1.63-.86,2.88-2.11,2.88-3.41,0-1.54-.72-1.73-2.06-2.21-.43-.1-1.15-.19-1.15-1.39,0-1.06,1.06-1.92,2.16-1.92,2.5,0,3.74,2.11,3.74,4.46Z"/><path class="e" d="M86.13,26.8c.96,.19,1.3,.24,1.82,.38,.19,0,.58,.38,.58,1.15,.05,1.15,.67,3.46,.67,5.28,0,.62-.29,1.06-.62,1.06-.29,0-.58-.38-.86-1.1-.48-1.3-1.1-2.45-1.82-3.36-1.06-1.3-3.84-2.98-7.68-2.98-8.21,0-13.06,6.72-13.06,14.31,0,3.41,.77,6.43,2.16,8.74,2.54,4.32,7.15,6.62,11.62,6.62,.58,0,2.98-.29,4.32-1.15,.38-.24,1.01-1.87,1.01-2.5,0-1.68-.05-4.42-.14-4.99-.34-1.1-.72-2.02-4.32-2.26-.72-.05-1.25-.43-1.25-.82,0-.34,.53-.67,1.44-.67,.86,0,4.37,.19,5.76,.19,1.15,0,2.78-.19,4.32-.19,.77,0,1.3,.24,1.3,.62,0,.34-.53,.62-1.1,.82-1.44,.43-1.54,.96-1.73,1.49-.19,.53-.24,3.98-.24,5.95,0,.77,.43,1.25,.67,1.39,.86,.48,.82,.62,.82,.86,0,.19-.19,.53-.72,.67-.86,.24-2.5,.62-4.37,1.15-2.06,.58-5.04,.86-6.62,.86-5.38,0-9.84-1.73-12.77-4.37-2.21-2.11-4.95-6.05-4.95-11.81,0-4.27,1.49-8.64,5.42-12.1,3.02-2.69,7.63-4.32,12.29-4.32,3.5,0,6.05,.62,8.06,1.06Z"/><path class="e" d="M111.09,27c.38,1.3,1.2,3.46,2.11,5.95,2.5,7.01,6.1,16.51,6.91,18.48,1.58,3.94,2.35,4.32,4.51,4.85,.77,.24,1.15,.48,1.15,.82s-.34,.62-1.54,.62c-1.58,0-3.94-.24-6.05-.24-1.54,0-2.21,.1-3.41,.1s-1.49-.34-1.49-.58,.29-.62,1.15-.77c2.3-.48,2.11-1.44,1.92-2.45-.38-1.97-1.58-5.14-2.69-8.21-.05-.19-.24-.48-1.63-.48-2.64,0-6.86,.05-7.87,.19-.19,0-.43,.24-.53,.38-1.25,3.12-2.5,7.2-2.5,8.4,0,.58,.19,1.39,2.35,2.06,.82,.24,1.3,.53,1.3,.86,0,.48-.72,.62-1.34,.62-.82,0-2.02-.14-3.79-.14s-4.27,.24-4.99,.24c-.86,0-1.1-.19-1.1-.48s.34-.72,1.06-.96c2.4-.82,3.02-.96,4.42-4.08,1.1-2.45,6.58-16.95,8.59-21.84,.29-.67,.34-.96,.43-1.25,.05-.14,.14-.43,.34-.82,.29-.48,.82-1.39,1.15-1.92,.34-.38,.53-.62,.77-.62,.19,0,.38,.19,.77,1.25Zm1.54,15.55c-.82-2.45-3.31-9.65-3.74-10.32-.14-.29-.24-.34-.38,0-.86,2.3-3.36,9.02-3.74,10.51-.05,.19,.05,.34,.24,.34,1.92-.05,5.9,0,7.49-.14,.05,0,.19-.24,.14-.38Z"/><path class="e" d="M157.9,56.93c-.09-.2-.41-.48-.73-.56-2.11-.43-3.41-1.29-4.7-2.83-2.04-2.27-4.62-6.12-6.16-8.62l-13.82-4.25c.01,1.04,.01,2.17,.01,3.37,0,2.88-.19,7.97-.29,9.45-.14,1.83-1.01,2.12-3.12,2.79-.62,.24-1.06,.33-1.06,.72,0,.48,.63,.67,1.25,.67,.53,0,3.03-.19,3.89-.19,3.26,0,4.18,.29,6.19,.29,.24,0,1.15-.15,1.15-.63,0-.24-.33-.57-1.15-.81-2.25-.53-2.78-1.2-2.88-3.22-.14-2.78-.24-8.88-.19-9.7,0-.14,.24-.57,.58-.57,1.44,0,3.21,.43,3.41,.62,.28,.19,1.24,1.39,1.92,2.4,1.92,3.03,4.36,6.72,6.04,9.03,1.4,1.77,4.13,3.12,6.39,3.12,1.01,0,2.06-.1,2.64-.34,.18-.09,.4-.2,.53-.34,.09-.08,.14-.18,.14-.28,0-.04-.01-.08-.04-.12Z"/><path class="f" d="M147.86,28.39c-1.92-1.59-4.51-2.02-7.82-2.02-2.6,0-6.01,.24-7.78,.24h-2.69c-1.06,0-1.3,.24-1.3,.58,0,.38,.44,.62,1.16,.81,2.16,.53,2.59,.63,2.78,2.4,.16,1.57,.26,4.89,.28,10.27l13.82,4.25c-.66-1.09-1.13-1.92-1.28-2.27-.1-.2,.05-.63,.19-.72,.34-.24,1.25-.68,1.49-.82,2.35-1.44,3.89-4.13,3.89-6.72,0-2.31-1.16-4.71-2.74-6Zm-4.7,12.05c-.68,.43-3.22,1.25-6,1.25-.29,0-.68-.34-.77-.73-.15-.81,0-10.08,.14-11.76,0-.19,.34-.91,.58-1,.52-.24,2.06-.34,2.3-.34,1.54,0,3.6,.72,4.75,1.82,1.4,1.4,2.16,3.65,2.16,4.8,0,3.03-1.87,5.14-3.16,5.96Z"/><path class="e" d="M167.73,56.13c-2.16-.67-2.35-1.48-2.35-2.06,0-.55,.26-1.7,.66-3.09l-2.01-.62c-.33,.84-.6,1.47-.76,1.84-1.4,3.12-2.02,3.26-4.42,4.08-.49,.16-.81,.42-.95,.65-.08,.11-.11,.22-.11,.31,0,.03,0,.06,.01,.09,.05,.24,.33,.39,1.1,.39,.72,0,3.21-.24,4.99-.24s2.98,.14,3.79,.14c.63,0,1.35-.14,1.35-.62,0-.34-.48-.63-1.3-.87Zm12.71-.73c-.27,.34-.8,.63-1.77,.83-.86,.14-1.15,.53-1.15,.77s.29,.57,1.49,.57,1.87-.09,3.41-.09c1.91,0,4.01,.2,5.57,.23l-7.55-2.31Z"/><path class="f" d="M188.85,56.28c-2.16-.53-2.93-.91-4.51-4.85-.82-1.97-4.42-11.47-6.91-18.48-.92-2.5-1.73-4.66-2.12-5.95-.38-1.06-.57-1.25-.76-1.25-.24,0-.44,.24-.77,.62-.34,.53-.87,1.44-1.15,1.92-.2,.39-.29,.67-.34,.82-.1,.29-.14,.57-.43,1.25-1.72,4.16-5.93,15.27-7.83,20l2.01,.62c.48-1.64,1.16-3.62,1.83-5.31,.1-.14,.34-.38,.53-.38,1.01-.15,5.23-.2,7.87-.2,1.4,0,1.59,.29,1.64,.48,1.1,3.08,2.3,6.24,2.68,8.21,.12,.58,.23,1.15-.15,1.62l7.55,2.31h.01c.16,.01,.32,.01,.47,.01,1.2,0,1.53-.29,1.53-.63s-.38-.57-1.15-.81Zm-12.14-13.35c-1.59,.15-5.57,.1-7.49,.15-.19,0-.29-.15-.24-.34,.38-1.49,2.88-8.21,3.74-10.51,.15-.34,.24-.29,.39,0,.43,.67,2.92,7.87,3.74,10.32,.05,.14-.1,.38-.14,.38Z"/><path class="f" d="M231.72,57.09c0,.39-.68,.63-1.4,.63-.52,0-4.22-.24-6-.24-.91,0-2.49,.14-3.65,.14-.52,0-1.29-.19-1.29-.67,0-.43,.58-.67,1.25-.86,1.96-.58,2.06-1.68,2.2-3.46,.2-2.16,.1-16.08-.04-18.53,0-.34-.2-.62-.48-.14-.53,.91-5.91,11.47-7.78,15.41-1.15,2.49-2.26,4.99-2.98,6.86-.52,1.39-.76,1.34-1.1,1.34-.29,0-.58-.38-.72-.91-.34-1.2-.86-2.78-1.78-5.09-2.59-6.33-6.52-13.92-8.3-18-.15-.33-.29-.38-.34,.15-.38,2.01-.91,14.11-.77,18.53,.1,2.44,.49,3.12,2.93,3.88,1.06,.29,1.3,.48,1.3,.92,0,.38-.53,.57-1.3,.57-1.53,0-3.55-.14-4.8-.14-1.15,0-2.64,.14-3.84,.14-.72,0-1.25-.14-1.25-.67,0-.19,.34-.53,.96-.67,2.98-.87,3.27-1.68,3.65-4.42,.48-3.31,1.54-17.14,1.64-20.74,0-.38-.1-2.2-2.16-2.78-.82-.24-1.45-.43-2.07-.58-.34-.09-.77-.43-.77-.76,0-.48,.34-.48,1.39-.48,3.12,0,3.65,.09,6.44,.09,.09,0,.48,.39,.53,.63,.57,1.77,.86,2.3,1.82,4.36,2.69,5.67,8.26,17.19,8.93,18.1,.09,.15,.38,.29,.48,.15,.43-.82,9.41-17.77,10.17-19.78,.05-.19,.82-1.83,1.11-2.79,.05-.24,.43-.67,.53-.67,1.73,0,5.61-.14,6.05-.14,.62,0,1.24,.09,1.24,.53,0,.33-.38,.62-1.24,.76-.77,.15-1.44,.34-2.16,.63-.72,.29-1.49,1.2-1.49,3.69,0,13.35,.53,19.45,.67,20.79,.29,2.16,.82,2.64,3.12,3.31,.86,.19,1.3,.58,1.3,.91Z"/><path class="f" d="M251.73,25.75c-3.36,0-7.49,1.44-9.84,3.36-3.65,2.93-6.24,7.01-6.24,12.91,0,4.13,1.44,8.02,3.98,10.85,2.93,3.36,7.59,5.47,12.48,5.47,2.45,0,6.44-.67,9.46-2.78,3.5-2.5,6.82-7.2,6.82-13.92,0-9.12-7.44-15.89-16.66-15.89Zm7.87,28.66c-.53,.57-2.35,2.3-6.34,2.3-7.68,0-12.96-8.21-12.96-15.36,0-5.62,1.64-9.22,3.75-11.28,1.68-1.68,4.61-2.74,6.62-2.74,2.21,0,5.24,1.01,7.2,2.59,3.56,2.88,5.81,7.92,5.81,13.16,0,5.71-2.16,9.6-4.08,11.33Z"/><path class="f" d="M273.47,26.47c1.06,0,3.41,.14,5.86,.14,.29,0,.72,.34,1.01,.62,.72,.86,1.92,2.3,3.79,4.75,2.16,2.74,12.72,14.26,15.94,17.76,.29,.29,.48-.19,.48-.34,.24-1.54,.1-6.72,.1-13.63,0-1.63-.1-3.31-.24-4.8-.05-1.01-.38-2.16-3.02-2.93-.96-.29-1.3-.67-1.3-1.06,0-.34,.67-.43,1.25-.43,1.25,0,2.59,.05,4.13,.05,1.73,0,3.26-.19,4.51-.19,.82,0,1.1,.14,1.1,.53,0,.29-.29,.72-1.15,.96-2.06,.48-2.93,.91-3.07,3.5-.1,1.73-.53,11.19-.53,19.44,0,2.02,.34,5.62,.34,6.38,0,.48-.24,1.01-.67,1.01-.67,0-1.73-.96-2.16-1.54-.82-1.01-1.68-2.26-2.98-3.84-4.51-5.38-12.82-14.74-17.14-19.92-.19-.24-.53-.14-.53,.1-.05,1.3-.19,2.64-.24,6.38,0,4.32-.14,11.71-.05,13.2,.19,2.21,.72,2.93,3.02,3.6,1.01,.24,1.2,.58,1.2,.86,0,.48-.62,.62-1.54,.62-1.39,0-3.41-.24-5.14-.24-1.06,0-2.3,.1-3.12,.1-.67,0-1.25-.05-1.25-.53,0-.38,.48-.67,.96-.82,2.26-.77,3.17-.96,3.36-4.51,.24-3.89,.91-15.41,.91-19.39,0-1.73-.24-2.16-.34-2.3-1.34-1.58-1.87-1.63-4.03-2.21-.53-.14-1.06-.38-1.06-.77s.48-.58,1.58-.58Z"/><path class="f" d="M338.13,30.84c2.59,2.5,4.37,6.82,4.37,10.61,0,6.96-4.32,12-7.68,13.87-2.83,1.63-6.82,2.69-11.43,2.69-1.97,0-6.24-.14-9.41-.38-.91-.05-1.78-.05-2.54-.05-1.1,0-1.54-.34-1.54-.72s.48-.62,1.06-.67c3.31-.38,3.55-1.3,3.7-5.09,.1-2.26,.14-3.74,.14-6.58s-.1-8.4-.24-12.34c-.1-3.07-.14-3.74-3.07-4.18-.53-.1-1.1-.43-1.1-.77,0-.38,.43-.62,1.15-.62h1.34c2.4,0,7.83-.43,11.95-.43,6.72,0,11.38,2.88,13.3,4.66Zm-18.72-2.78c-.34,.24-.43,.34-.48,.62-.1,.58-.19,4.85-.19,9.12v6.96c0,3.36,.05,6.19,.19,8.3,.14,1.49,.91,2.16,1.06,2.26,.91,.67,2.88,1.25,3.94,1.25,2.21,0,6.29-.86,8.98-3.12,2.88-2.45,4.94-6.62,4.94-12,0-4.13-2.06-8.64-5.14-10.95-2.4-1.78-6.43-2.83-9.99-2.83-1.73,0-2.88,.14-3.31,.38Z"/><path class="e" d="M39.43,85.22c-.53,0-1.01,.19-1.39,.43-.19,.14-.43,.72-.48,1.87-.05,1.01-.05,6.96-.1,12.48,0,4.37,.1,8.35,.1,9.55,.05,3.12,.43,3.5,2.88,4.22,.91,.24,1.3,.48,1.3,.91s-.86,.58-1.58,.58c-1.2,0-2.93-.19-5.04-.19-1.39,0-3.36,.19-4.85,.19-.82,0-1.34-.24-1.34-.67,0-.34,.48-.62,.96-.77,2.69-.58,3.22-1.54,3.36-3.5,.14-2.35,.24-6.29,.24-8.69,0-1.58-.1-11.76-.14-13.3-.05-1.73,0-2.4-2.69-2.78-.96-.14-1.49-.43-1.49-.72,0-.38,.48-.62,1.1-.67,.34-.05,1.15,0,1.58,0,1.92,0,5.62-.38,8.02-.38,4.37,0,7.2,1.15,8.98,2.83,2.3,2.21,2.78,4.94,2.78,6.53,0,4.27-1.97,6.24-3.36,7.44-1.25,1.06-3.46,2.11-5.52,2.11-.53,0-1.78-.05-2.54-.34-.58-.24-.82-.48-.82-.77,0-.19,.19-.43,.58-.43h1.2c2.54,0,6.1-2.26,6.1-7.78,0-4.37-3.31-8.16-7.82-8.16Z"/><path class="e" d="M74.23,98.71c-.24,.14-1.15,.58-1.49,.82-.14,.1-.29,.53-.19,.72,.48,1.15,4.51,7.63,7.44,10.9,1.3,1.54,2.59,2.4,4.71,2.83,.38,.1,.77,.48,.77,.67,0,.29-.38,.48-.67,.62-.58,.24-1.63,.34-2.64,.34-2.26,0-4.99-1.34-6.38-3.12-1.68-2.3-4.13-6-6.05-9.02-.67-1.01-1.63-2.21-1.92-2.4-.19-.19-1.97-.62-3.41-.62-.34,0-.58,.43-.58,.58-.05,.82,.05,6.91,.19,9.7,.1,2.02,.62,2.69,2.88,3.22,.82,.24,1.15,.58,1.15,.82,0,.48-.91,.62-1.15,.62-2.02,0-2.93-.29-6.19-.29-.86,0-3.36,.19-3.89,.19-.62,0-1.25-.19-1.25-.67,0-.38,.43-.48,1.06-.72,2.11-.67,2.98-.96,3.12-2.78,.1-1.49,.29-6.58,.29-9.46,0-7.39-.1-11.76-.29-13.63-.19-1.78-.62-1.87-2.78-2.4-.72-.19-1.15-.43-1.15-.82,0-.34,.24-.58,1.3-.58h2.69c1.78,0,5.18-.24,7.78-.24,3.31,0,5.9,.43,7.82,2.02,1.58,1.3,2.74,3.7,2.74,6,0,2.59-1.54,5.28-3.89,6.72Zm-2.54-11.42c-1.15-1.1-3.22-1.82-4.75-1.82-.24,0-1.78,.1-2.3,.34-.24,.1-.58,.82-.58,1.01-.14,1.68-.29,10.94-.14,11.76,.1,.38,.48,.72,.77,.72,2.78,0,5.33-.82,6-1.25,1.3-.82,3.17-2.93,3.17-5.95,0-1.15-.77-3.41-2.16-4.8Z"/><path class="e" d="M102.36,84.21c1.58,0,3.7-.05,4.42-.14,.14-.05,.38,.29,.43,.53,0,2.21,.1,3.6,.1,4.56,0,.67-.29,1.25-.72,1.25s-.67-.67-.77-1.15c-.62-2.54-1.68-3.02-3.22-3.26-1.25-.19-4.7-.29-6.82-.19-.1,0-.62,.24-.72,1.34-.1,1.2-.24,10.23-.14,10.94,.05,.19,.1,.48,.34,.48h3.12c4.51,0,4.7-.19,5.57-2.4,.29-.72,.58-1.01,.86-1.01,.34,0,.43,.67,.38,1.06-.1,1.34-.14,2.3-.14,3.46,0,1.3,.1,1.97,.14,2.93,.05,.86-.19,1.39-.53,1.39s-.67-.53-.82-1.06c-.67-2.21-.86-2.35-3.79-2.5-1.54-.1-3.46-.1-4.75-.1-.19,0-.43,.34-.43,.43-.19,1.01-.14,5.47-.14,7.54,0,1.39,.19,3.22,.48,3.98,.19,.58,.58,.96,.91,1.06,.82,.14,2.45,.34,4.37,.34,.58,0,3.5-.05,4.56-.34,1.54-.38,2.83-1.3,3.98-3.55,.53-1.06,.82-1.34,1.1-1.34,.34,0,.48,.77,.38,1.3-.05,.38-1.39,4.7-1.73,5.14-.14,.19-.58,.58-.82,.58-.53,0-7.78-.38-15.6-.38-2.54,0-3.6,.24-5.42,.24-.91,0-1.44-.1-1.44-.62,0-.34,.58-.58,1.34-.77,2.4-.58,3.31-.91,3.5-3.5,.14-2.02,.38-7.68,.38-13.63s.05-6.72-.05-8.11c-.1-2.11-.58-2.69-2.69-3.17-1.01-.24-1.39-.43-1.39-.82,0-.43,.67-.67,1.34-.67,2.26,0,4.13,.19,7.34,.19h7.06Z"/><path class="e" d="M115.75,84.12c3.12,0,3.65,.1,6.43,.1,.1,0,.48,.38,.53,.62,.58,1.78,.86,2.3,1.82,4.37,2.69,5.66,8.26,17.19,8.93,18.1,.1,.14,.38,.29,.48,.14,.43-.82,9.41-17.76,10.18-19.78,.05-.19,.82-1.82,1.1-2.78,.05-.24,.43-.67,.53-.67,1.73,0,5.62-.14,6.05-.14,.62,0,1.25,.1,1.25,.53,0,.34-.38,.62-1.25,.77-.77,.14-1.44,.34-2.16,.62-.72,.29-1.49,1.2-1.49,3.7,0,13.35,.53,19.44,.67,20.79,.29,2.16,.82,2.64,3.12,3.31,.86,.19,1.3,.58,1.3,.91,0,.38-.67,.62-1.39,.62-.53,0-4.22-.24-6-.24-.91,0-2.5,.14-3.65,.14-.53,0-1.3-.19-1.3-.67,0-.43,.58-.67,1.25-.86,1.97-.58,2.06-1.68,2.21-3.46,.19-2.16,.1-16.08-.05-18.53,0-.34-.19-.62-.48-.14-.53,.91-5.91,11.47-7.78,15.41-1.15,2.5-2.26,4.99-2.98,6.86-.53,1.39-.77,1.34-1.1,1.34-.29,0-.58-.38-.72-.91-.34-1.2-.86-2.78-1.78-5.09-2.59-6.34-6.53-13.92-8.3-18-.14-.34-.29-.38-.34,.14-.38,2.02-.91,14.11-.77,18.53,.1,2.45,.48,3.12,2.93,3.89,1.06,.29,1.3,.48,1.3,.91,0,.38-.53,.58-1.3,.58-1.54,0-3.55-.14-4.8-.14-1.15,0-2.64,.14-3.84,.14-.72,0-1.25-.14-1.25-.67,0-.19,.34-.53,.96-.67,2.98-.86,3.26-1.68,3.65-4.42,.48-3.31,1.54-17.14,1.63-20.74,0-.38-.1-2.21-2.16-2.78-.82-.24-1.44-.43-2.06-.58-.34-.1-.77-.43-.77-.77,0-.48,.34-.48,1.39-.48Z"/><path class="e" d="M161.25,88.92c-.14-2.21-.14-2.93-2.83-3.41-1.06-.19-1.34-.53-1.34-.86,0-.38,.53-.58,1.2-.58,1.25,0,3.65,.14,5.23,.14,2.35,0,3.46-.14,5.14-.14,.77,0,1.2,.19,1.2,.58s-.48,.67-1.25,.82c-2.78,.58-2.74,1.78-2.93,3.07-.24,1.58-.29,4.7-.29,14.11,0,2.64,.05,5.62,.14,7.15,.14,2.59,.38,3.5,3.5,4.13,.86,.14,1.25,.48,1.25,.82,0,.38-.72,.62-1.3,.62-2.45,0-5.86-.29-7.15-.29-1.44,0-1.87,.1-3.65,.1-.91,0-1.25-.34-1.25-.67s.48-.62,1.44-.82c2.4-.53,2.59-1.25,2.78-3.5,.14-1.68,.24-6.67,.24-10.75,0-2.98-.05-8.93-.14-10.51Z"/><path class="e" d="M189.71,84.21c1.58,0,3.7-.05,4.42-.14,.14-.05,.38,.29,.43,.53,0,2.21,.1,3.6,.1,4.56,0,.67-.29,1.25-.72,1.25s-.67-.67-.77-1.15c-.62-2.54-1.68-3.02-3.22-3.26-1.25-.19-4.7-.29-6.82-.19-.1,0-.62,.24-.72,1.34-.1,1.2-.24,10.23-.14,10.94,.05,.19,.1,.48,.34,.48h3.12c4.51,0,4.7-.19,5.57-2.4,.29-.72,.58-1.01,.86-1.01,.34,0,.43,.67,.38,1.06-.1,1.34-.14,2.3-.14,3.46,0,1.3,.1,1.97,.14,2.93,.05,.86-.19,1.39-.53,1.39s-.67-.53-.82-1.06c-.67-2.21-.86-2.35-3.79-2.5-1.54-.1-3.46-.1-4.75-.1-.19,0-.43,.34-.43,.43-.19,1.01-.14,5.47-.14,7.54,0,1.39,.19,3.22,.48,3.98,.19,.58,.58,.96,.91,1.06,.82,.14,2.45,.34,4.37,.34,.58,0,3.5-.05,4.56-.34,1.54-.38,2.83-1.3,3.98-3.55,.53-1.06,.82-1.34,1.1-1.34,.34,0,.48,.77,.38,1.3-.05,.38-1.39,4.7-1.73,5.14-.14,.19-.58,.58-.82,.58-.53,0-7.78-.38-15.6-.38-2.54,0-3.6,.24-5.42,.24-.91,0-1.44-.1-1.44-.62,0-.34,.58-.58,1.34-.77,2.4-.58,3.31-.91,3.5-3.5,.14-2.02,.38-7.68,.38-13.63s.05-6.72-.05-8.11c-.1-2.11-.58-2.69-2.69-3.17-1.01-.24-1.39-.43-1.39-.82,0-.43,.67-.67,1.34-.67,2.26,0,4.13,.19,7.34,.19h7.06Z"/><path class="e" d="M219.57,98.71c-.24,.14-1.15,.58-1.49,.82-.14,.1-.29,.53-.19,.72,.48,1.15,4.51,7.63,7.44,10.9,1.3,1.54,2.59,2.4,4.71,2.83,.38,.1,.77,.48,.77,.67,0,.29-.38,.48-.67,.62-.58,.24-1.63,.34-2.64,.34-2.26,0-4.99-1.34-6.38-3.12-1.68-2.3-4.13-6-6.05-9.02-.67-1.01-1.63-2.21-1.92-2.4-.19-.19-1.97-.62-3.41-.62-.34,0-.58,.43-.58,.58-.05,.82,.05,6.91,.19,9.7,.1,2.02,.62,2.69,2.88,3.22,.82,.24,1.15,.58,1.15,.82,0,.48-.91,.62-1.15,.62-2.02,0-2.93-.29-6.19-.29-.86,0-3.36,.19-3.89,.19-.62,0-1.25-.19-1.25-.67,0-.38,.43-.48,1.06-.72,2.11-.67,2.98-.96,3.12-2.78,.1-1.49,.29-6.58,.29-9.46,0-7.39-.1-11.76-.29-13.63-.19-1.78-.62-1.87-2.78-2.4-.72-.19-1.15-.43-1.15-.82,0-.34,.24-.58,1.3-.58h2.69c1.78,0,5.18-.24,7.78-.24,3.31,0,5.9,.43,7.82,2.02,1.58,1.3,2.74,3.7,2.74,6,0,2.59-1.54,5.28-3.89,6.72Zm-2.54-11.42c-1.15-1.1-3.22-1.82-4.75-1.82-.24,0-1.78,.1-2.3,.34-.24,.1-.58,.82-.58,1.01-.14,1.68-.29,10.94-.14,11.76,.1,.38,.48,.72,.77,.72,2.78,0,5.33-.82,6-1.25,1.3-.82,3.17-2.93,3.17-5.95,0-1.15-.77-3.41-2.16-4.8Z"/><path class="e" d="M251.2,85.22c-.53,0-1.01,.19-1.39,.43-.19,.14-.43,.72-.48,1.87-.05,1.01-.05,6.96-.1,12.48,0,4.37,.1,8.35,.1,9.55,.05,3.12,.43,3.5,2.88,4.22,.91,.24,1.3,.48,1.3,.91s-.86,.58-1.58,.58c-1.2,0-2.93-.19-5.04-.19-1.39,0-3.36,.19-4.85,.19-.82,0-1.34-.24-1.34-.67,0-.34,.48-.62,.96-.77,2.69-.58,3.22-1.54,3.36-3.5,.14-2.35,.24-6.29,.24-8.69,0-1.58-.1-11.76-.14-13.3-.05-1.73,0-2.4-2.69-2.78-.96-.14-1.49-.43-1.49-.72,0-.38,.48-.62,1.1-.67,.34-.05,1.15,0,1.58,0,1.92,0,5.62-.38,8.02-.38,4.37,0,7.2,1.15,8.98,2.83,2.3,2.21,2.78,4.94,2.78,6.53,0,4.27-1.97,6.24-3.36,7.44-1.25,1.06-3.46,2.11-5.52,2.11-.53,0-1.78-.05-2.54-.34-.58-.24-.82-.48-.82-.77,0-.19,.19-.43,.58-.43h1.2c2.54,0,6.1-2.26,6.1-7.78,0-4.37-3.31-8.16-7.82-8.16Z"/><path class="e" d="M286,98.71c-.24,.14-1.15,.58-1.49,.82-.14,.1-.29,.53-.19,.72,.48,1.15,4.51,7.63,7.44,10.9,1.3,1.54,2.59,2.4,4.7,2.83,.38,.1,.77,.48,.77,.67,0,.29-.38,.48-.67,.62-.58,.24-1.63,.34-2.64,.34-2.26,0-4.99-1.34-6.38-3.12-1.68-2.3-4.13-6-6.05-9.02-.67-1.01-1.63-2.21-1.92-2.4-.19-.19-1.97-.62-3.41-.62-.34,0-.58,.43-.58,.58-.05,.82,.05,6.91,.19,9.7,.1,2.02,.62,2.69,2.88,3.22,.82,.24,1.15,.58,1.15,.82,0,.48-.91,.62-1.15,.62-2.02,0-2.93-.29-6.19-.29-.86,0-3.36,.19-3.89,.19-.62,0-1.25-.19-1.25-.67,0-.38,.43-.48,1.06-.72,2.11-.67,2.98-.96,3.12-2.78,.1-1.49,.29-6.58,.29-9.46,0-7.39-.1-11.76-.29-13.63-.19-1.78-.62-1.87-2.78-2.4-.72-.19-1.15-.43-1.15-.82,0-.34,.24-.58,1.3-.58h2.69c1.78,0,5.18-.24,7.78-.24,3.31,0,5.91,.43,7.83,2.02,1.58,1.3,2.74,3.7,2.74,6,0,2.59-1.54,5.28-3.89,6.72Zm-2.54-11.42c-1.15-1.1-3.22-1.82-4.75-1.82-.24,0-1.78,.1-2.3,.34-.24,.1-.58,.82-.58,1.01-.14,1.68-.29,10.94-.14,11.76,.1,.38,.48,.72,.77,.72,2.78,0,5.33-.82,6-1.25,1.3-.82,3.17-2.93,3.17-5.95,0-1.15-.77-3.41-2.16-4.8Z"/><path class="e" d="M326.01,100.09c.02,.2,.02,.39,.02,.59,0,5.71-2.16,9.6-4.08,11.33-.53,.57-2.35,2.3-6.33,2.3-7.68,0-12.96-8.21-12.96-15.36,0-2.25,.26-4.18,.72-5.81l-3.62-1.11c-1.11,2.13-1.76,4.63-1.76,7.59,0,4.13,1.44,8.02,3.98,10.85,2.93,3.36,7.59,5.47,12.48,5.47,2.45,0,6.44-.67,9.46-2.78,3.1-2.21,6.05-6.14,6.69-11.66l-4.6-1.41Z"/><path class="e" d="M330.74,99.24c0,.78-.04,1.53-.13,2.26l-4.6-1.41c-.15-5.03-2.36-9.8-5.79-12.57-1.96-1.58-4.99-2.59-7.2-2.59-2.01,0-4.94,1.06-6.62,2.74-1.27,1.24-2.36,3.03-3.02,5.47l-3.62-1.11c1.1-2.11,2.66-3.86,4.48-5.32,2.35-1.92,6.48-3.36,9.84-3.36,9.22,0,16.66,6.77,16.66,15.89Z"/><path class="e" d="M33.24,146.52c-.14-2.21-.14-2.93-2.83-3.41-1.06-.19-1.34-.53-1.34-.86,0-.38,.53-.58,1.2-.58,1.25,0,3.65,.14,5.23,.14,2.35,0,3.46-.14,5.14-.14,.77,0,1.2,.19,1.2,.58s-.48,.67-1.25,.82c-2.78,.58-2.74,1.78-2.93,3.07-.24,1.58-.29,4.7-.29,14.11,0,2.64,.05,5.62,.14,7.15,.14,2.59,.38,3.5,3.5,4.13,.86,.14,1.25,.48,1.25,.82,0,.38-.72,.62-1.3,.62-2.45,0-5.86-.29-7.15-.29-1.44,0-1.87,.1-3.65,.1-.91,0-1.25-.34-1.25-.67s.48-.62,1.44-.82c2.4-.53,2.59-1.25,2.78-3.5,.14-1.68,.24-6.67,.24-10.75,0-2.98-.05-8.93-.14-10.51Z"/><path class="e" d="M62.8,141.81c.29,.1,.58,.82,.58,.91,.1,.91,.48,3.7,.48,3.89,0,.82,0,1.3-.34,1.3-.38,0-.96-.34-1.15-1.01-.58-1.73-1.87-3.17-2.35-3.46-.86-.67-2.02-1.1-3.41-1.1-3.22,0-5.52,2.4-5.52,5.62,0,3.41,2.45,4.9,6.67,7.73,3.7,2.5,6.62,4.99,6.62,9.31,0,2.4-1.34,5.09-3.94,6.77-1.54,1.01-4.37,1.73-6.53,1.73-1.54,0-4.8-.53-6.29-1.25-.48-.29-1.1-1.34-1.1-1.54-.24-1.63-.72-3.74-.72-4.51,0-.19,.48-.91,.67-.91,.38,0,1.1,1.25,1.78,2.74,1.25,2.64,4.42,3.84,6.24,3.84,3.31,0,5.81-2.35,5.81-5.81,0-2.02-.96-4.18-6-7.39-4.08-2.64-6.96-5.42-6.96-9.5,0-2.26,1.01-4.42,2.64-5.86,1.49-1.34,3.74-2.35,7.1-2.35,2.35,0,4.85,.72,5.71,.86Z"/><path class="e" d="M77.63,141.57c.72,0,3.22,.24,5.47,.24,1.34,0,1.73-.1,3.65-.1,.77,0,1.06,.19,1.06,.48,0,.34-.34,.77-1.06,.96-1.73,.38-1.39,.96-.72,2.21,.58,1.1,4.13,7.01,6.29,10.51,.1,.14,.38,.1,.48-.1,1.34-1.92,4.99-7.92,6.19-9.89,1.01-1.73,.48-2.3-1.39-2.74-.72-.19-1.01-.62-1.01-.96s.58-.43,1.1-.43c1.25,0,2.02,.05,3.12,.05,1.78,0,4.56-.19,5.33-.19,.53,0,1.01,.19,1.01,.48,0,.38-.43,.62-1.25,.86-2.26,.58-3.65,1.78-5.23,3.74-2.26,2.83-4.75,7.06-6.38,9.41-.53,.77-1.2,2.3-1.2,2.93,0,2.69,.1,8.64,.29,10.18,.19,1.01,.72,1.58,3.41,2.26,.96,.24,1.3,.53,1.3,.86,0,.38-.48,.53-1.44,.53-.72,0-3.07-.19-4.18-.19-2.88,0-6,.29-6.72,.29-.82,0-1.2-.24-1.2-.53s.34-.67,1.34-.86c2.59-.58,3.07-1.63,3.12-2.3,.14-1.97,.14-7.15,.14-9.94,0-.24-.29-1.34-.43-1.73-.82-1.73-3.79-6.58-6.1-10.08-2.26-3.36-2.83-4.03-4.94-4.51-.91-.19-1.34-.58-1.34-.96,0-.29,.48-.48,1.3-.48Z"/><path class="e" d="M140.13,156.84c0,6.72-3.31,11.42-6.82,13.92-3.02,2.11-7.01,2.78-9.46,2.78-4.9,0-9.55-2.11-12.48-5.47-2.54-2.83-3.98-6.72-3.98-10.85,0-5.9,2.59-9.98,6.24-12.91,2.35-1.92,6.48-3.36,9.84-3.36,9.22,0,16.66,6.77,16.66,15.89Zm-24.34-11.57c-2.11,2.06-3.74,5.66-3.74,11.28,0,7.15,5.28,15.36,12.96,15.36,3.98,0,5.81-1.73,6.34-2.3,1.92-1.73,4.08-5.62,4.08-11.33,0-5.23-2.26-10.27-5.81-13.15-1.97-1.58-4.99-2.59-7.2-2.59-2.02,0-4.94,1.06-6.62,2.74Z"/><path class="e" d="M146.08,141.67c2.02,0,3.17,.14,4.94,.14s3.6-.1,4.66-.1c.91,0,1.49,.14,1.49,.53s-.53,.72-1.44,.91c-1.73,.34-2.64,.82-2.93,2.74-.24,1.58-.19,6.58-.19,13.39,0,5.42,1.2,7.49,2.69,9.17,1.34,1.49,4.46,2.64,6.96,2.64,3.12,0,7.78-1.44,8.98-6.72,.58-2.54,1.06-6.58,1.06-12.05,0-3.12-.14-5.62-.19-6.19-.14-1.82-.48-2.5-3.17-3.12-.48-.1-1.01-.53-1.01-.86,0-.29,.29-.48,1.1-.48,1.2,0,2.54,.14,4.08,.14,1.97,0,2.98-.1,4.32-.1,.77,0,1.2,.14,1.2,.53,0,.29-.38,.62-1.06,.86-2.06,.58-3.02,1.39-3.12,4.42-.05,2.06-.34,7.39-.43,9.89-.24,8.35-2.54,12.58-6,14.5-2.21,1.25-4.8,1.54-6.91,1.54-4.32,0-7.54-1.78-8.69-2.83-2.69-2.54-3.84-6.05-3.84-14.11,0-6.91-.14-10.75-.19-11.38-.1-.91-.77-1.68-2.59-2.06-.58-.14-1.1-.38-1.1-.82,0-.38,.62-.58,1.39-.58Z"/><path class="e" d="M200.27,156.31c-.24,.14-1.15,.58-1.49,.82-.14,.1-.29,.53-.19,.72,.48,1.15,4.51,7.63,7.44,10.9,1.3,1.54,2.59,2.4,4.71,2.83,.38,.1,.77,.48,.77,.67,0,.29-.38,.48-.67,.62-.58,.24-1.63,.34-2.64,.34-2.26,0-4.99-1.34-6.38-3.12-1.68-2.3-4.13-6-6.05-9.02-.67-1.01-1.63-2.21-1.92-2.4-.19-.19-1.97-.62-3.41-.62-.34,0-.58,.43-.58,.58-.05,.82,.05,6.91,.19,9.7,.1,2.02,.62,2.69,2.88,3.22,.82,.24,1.15,.58,1.15,.82,0,.48-.91,.62-1.15,.62-2.02,0-2.93-.29-6.19-.29-.86,0-3.36,.19-3.89,.19-.62,0-1.25-.19-1.25-.67,0-.38,.43-.48,1.06-.72,2.11-.67,2.98-.96,3.12-2.78,.1-1.49,.29-6.58,.29-9.46,0-7.39-.1-11.76-.29-13.63-.19-1.78-.62-1.87-2.78-2.4-.72-.19-1.15-.43-1.15-.82,0-.34,.24-.58,1.3-.58h2.69c1.78,0,5.18-.24,7.78-.24,3.31,0,5.9,.43,7.82,2.02,1.58,1.3,2.74,3.7,2.74,6,0,2.59-1.54,5.28-3.89,6.72Zm-2.54-11.42c-1.15-1.1-3.22-1.82-4.75-1.82-.24,0-1.78,.1-2.3,.34-.24,.1-.58,.82-.58,1.01-.14,1.68-.29,10.94-.14,11.76,.1,.38,.48,.72,.77,.72,2.78,0,5.33-.82,6-1.25,1.3-.82,3.17-2.93,3.17-5.95,0-1.15-.77-3.41-2.16-4.8Z"/><path class="e" d="M41.97,199.41c2.88,0,7.3-.14,7.68-.14,.24-.05,.58,.19,.58,.48-.1,1.39,.1,3.07,.14,4.7,.05,.62-.24,1.3-.67,1.3-.38,0-.77-.53-1.06-1.49-.77-2.35-1.3-2.78-2.88-3.02-1.63-.24-6.43-.19-7.44-.1-.48,.05-.77,.48-.77,.62-.1,1.15-.19,7.44-.19,10.61,0,1.3,.24,1.78,.48,1.78,1.87,0,5.76,.05,6.91-.05,1.49-.14,1.92-.58,2.59-2.21,.29-.67,.48-1.15,.91-1.15,.34,0,.43,.48,.43,1.06,0,.62-.24,2.16-.24,3.02,0,2.3,.1,2.74,.1,3.79,0,.53-.24,1.1-.72,1.1-.24,0-.53-.34-.72-1.01-.48-1.82-1.06-2.06-1.97-2.3-.53-.1-2.26-.24-3.22-.24s-3.22,0-4.22,.14c-.14,0-.34,.38-.38,.58-.05,.91,.14,7.63,.19,9.02,.05,1.49,.14,2.45,3.26,3.02,.72,.14,1.15,.48,1.15,.91,0,.29-.43,.58-1.34,.58-1.25,0-2.74-.14-4.56-.14-1.92,0-4.7,.29-5.71,.29s-1.34-.19-1.34-.48c0-.38,.53-.77,1.3-.96,2.59-.62,2.69-1.73,2.74-2.35,.14-1.49,.38-5.04,.38-14.54,0-4.51,0-7.34-.1-8.59-.1-1.63-.91-2.45-3.02-2.98-.96-.24-1.2-.48-1.2-.82,0-.38,.58-.58,1.34-.58,2.11,0,3.84,.14,5.33,.14h6.24Z"/><path class="e" d="M56.18,199.27c2.02,0,3.17,.14,4.94,.14s3.6-.1,4.66-.1c.91,0,1.49,.14,1.49,.53s-.53,.72-1.44,.91c-1.73,.34-2.64,.82-2.93,2.74-.24,1.58-.19,6.58-.19,13.39,0,5.42,1.2,7.49,2.69,9.17,1.34,1.49,4.46,2.64,6.96,2.64,3.12,0,7.78-1.44,8.98-6.72,.58-2.54,1.06-6.58,1.06-12.05,0-3.12-.14-5.62-.19-6.19-.14-1.82-.48-2.5-3.17-3.12-.48-.1-1.01-.53-1.01-.86,0-.29,.29-.48,1.1-.48,1.2,0,2.54,.14,4.08,.14,1.97,0,2.98-.1,4.32-.1,.77,0,1.2,.14,1.2,.53,0,.29-.38,.62-1.06,.86-2.06,.58-3.02,1.39-3.12,4.42-.05,2.06-.34,7.39-.43,9.89-.24,8.35-2.54,12.58-6,14.5-2.21,1.25-4.8,1.54-6.91,1.54-4.32,0-7.54-1.78-8.69-2.83-2.69-2.54-3.84-6.05-3.84-14.11,0-6.91-.14-10.75-.19-11.38-.1-.91-.77-1.68-2.59-2.06-.58-.14-1.1-.38-1.1-.82,0-.38,.62-.58,1.39-.58Z"/><path class="e" d="M117.91,199.32c1.73-.1,2.59-.38,3.26-.86,.34-.19,.48-.29,.67-.29,.24,0,.43,.43,.19,1.1-.48,1.49-.77,3.02-1.06,5.52-.05,.43-.43,.91-.82,.91-.34,0-.53-.34-.67-1.54-.29-2.5-.91-2.74-3.89-2.88-.82-.05-6.14-.05-6.72,.1-.24,.05-.43,.53-.43,.62v11.76c0,5.57,0,10.13,.19,11.9,.24,2.16,.48,2.74,3.46,3.41,.62,.14,1.3,.53,1.3,.86,0,.53-.86,.58-1.34,.58-.38,0-3.36-.24-5.47-.24-2.4,0-4.85,.34-5.47,.34-.96,0-1.44-.29-1.44-.58,0-.34,.48-.72,.91-.82,3.36-.77,3.46-1.58,3.6-5.18,.1-2.83,.34-12.62,.34-16.32v-5.71c0-.38-.24-.62-.38-.62-.96-.14-5.18-.24-5.95-.24-1.82,0-2.83,.29-3.55,1.1-.19,.14-.77,.91-1.58,2.5-.43,1.01-.72,.96-.91,.96-.29,0-.48-.62-.48-1.1,0-.91,.91-3.55,.91-6.38,0-.29,.43-.77,.72-.77,.24,0,.24,.34,.77,.77,.14,.14,.91,.86,1.63,.91,1.25,.14,5.09,.29,11.23,.29,2.5,0,9.02-.05,10.99-.1Z"/><path class="e" d="M126.21,199.27c2.02,0,3.17,.14,4.94,.14s3.6-.1,4.66-.1c.91,0,1.49,.14,1.49,.53s-.53,.72-1.44,.91c-1.73,.34-2.64,.82-2.93,2.74-.24,1.58-.19,6.58-.19,13.39,0,5.42,1.2,7.49,2.69,9.17,1.34,1.49,4.46,2.64,6.96,2.64,3.12,0,7.78-1.44,8.98-6.72,.58-2.54,1.06-6.58,1.06-12.05,0-3.12-.14-5.62-.19-6.19-.14-1.82-.48-2.5-3.17-3.12-.48-.1-1.01-.53-1.01-.86,0-.29,.29-.48,1.1-.48,1.2,0,2.54,.14,4.08,.14,1.97,0,2.98-.1,4.32-.1,.77,0,1.2,.14,1.2,.53,0,.29-.38,.62-1.06,.86-2.06,.58-3.02,1.39-3.12,4.42-.05,2.06-.34,7.39-.43,9.89-.24,8.35-2.54,12.58-6,14.5-2.21,1.25-4.8,1.54-6.91,1.54-4.32,0-7.54-1.78-8.69-2.83-2.69-2.54-3.84-6.05-3.84-14.11,0-6.91-.14-10.75-.19-11.38-.1-.91-.77-1.68-2.59-2.06-.58-.14-1.1-.38-1.1-.82,0-.38,.62-.58,1.39-.58Z"/><path class="e" d="M180.4,213.91c-.24,.14-1.15,.58-1.49,.82-.14,.1-.29,.53-.19,.72,.48,1.15,4.51,7.63,7.44,10.9,1.3,1.54,2.59,2.4,4.71,2.83,.38,.1,.77,.48,.77,.67,0,.29-.38,.48-.67,.62-.58,.24-1.63,.34-2.64,.34-2.26,0-4.99-1.34-6.38-3.12-1.68-2.3-4.13-6-6.05-9.02-.67-1.01-1.63-2.21-1.92-2.4-.19-.19-1.97-.62-3.41-.62-.34,0-.58,.43-.58,.58-.05,.82,.05,6.91,.19,9.7,.1,2.02,.62,2.69,2.88,3.22,.82,.24,1.15,.58,1.15,.82,0,.48-.91,.62-1.15,.62-2.02,0-2.93-.29-6.19-.29-.86,0-3.36,.19-3.89,.19-.62,0-1.25-.19-1.25-.67,0-.38,.43-.48,1.06-.72,2.11-.67,2.98-.96,3.12-2.78,.1-1.49,.29-6.58,.29-9.46,0-7.39-.1-11.76-.29-13.63-.19-1.78-.62-1.87-2.78-2.4-.72-.19-1.15-.43-1.15-.82,0-.34,.24-.58,1.3-.58h2.69c1.78,0,5.18-.24,7.78-.24,3.31,0,5.9,.43,7.82,2.02,1.58,1.3,2.74,3.7,2.74,6,0,2.59-1.54,5.28-3.89,6.72Zm-2.54-11.42c-1.15-1.1-3.22-1.82-4.75-1.82-.24,0-1.78,.1-2.3,.34-.24,.1-.58,.82-.58,1.01-.14,1.68-.29,10.94-.14,11.76,.1,.38,.48,.72,.77,.72,2.78,0,5.33-.82,6-1.25,1.3-.82,3.17-2.93,3.17-5.95,0-1.15-.77-3.41-2.16-4.8Z"/><path class="e" d="M41.97,257.01c2.88,0,7.3-.14,7.68-.14,.24-.05,.58,.19,.58,.48-.1,1.39,.1,3.07,.14,4.7,.05,.62-.24,1.3-.67,1.3-.38,0-.77-.53-1.06-1.49-.77-2.35-1.3-2.78-2.88-3.02-1.63-.24-6.43-.19-7.44-.1-.48,.05-.77,.48-.77,.62-.1,1.15-.19,7.44-.19,10.61,0,1.3,.24,1.78,.48,1.78,1.87,0,5.76,.05,6.91-.05,1.49-.14,1.92-.58,2.59-2.21,.29-.67,.48-1.15,.91-1.15,.34,0,.43,.48,.43,1.06,0,.62-.24,2.16-.24,3.02,0,2.3,.1,2.74,.1,3.79,0,.53-.24,1.1-.72,1.1-.24,0-.53-.34-.72-1.01-.48-1.82-1.06-2.06-1.97-2.3-.53-.1-2.26-.24-3.22-.24s-3.22,0-4.22,.14c-.14,0-.34,.38-.38,.58-.05,.91,.14,7.63,.19,9.02,.05,1.49,.14,2.45,3.26,3.02,.72,.14,1.15,.48,1.15,.91,0,.29-.43,.58-1.34,.58-1.25,0-2.74-.14-4.56-.14-1.92,0-4.7,.29-5.71,.29s-1.34-.19-1.34-.48c0-.38,.53-.77,1.3-.96,2.59-.62,2.69-1.73,2.74-2.35,.14-1.49,.38-5.04,.38-14.55,0-4.51,0-7.34-.1-8.59-.1-1.63-.91-2.45-3.02-2.98-.96-.24-1.2-.48-1.2-.82,0-.38,.58-.58,1.34-.58,2.11,0,3.84,.14,5.33,.14h6.24Z"/><path class="e" d="M71.35,256.15c-3.36,0-7.49,1.44-9.84,3.36-3.65,2.93-6.24,7.01-6.24,12.91,0,3.52,1.04,6.86,2.93,9.52l4.31-1.29c-1.65-2.69-2.59-5.89-2.59-8.9,0-5.62,1.63-9.22,3.75-11.28,1.68-1.68,4.61-2.74,6.62-2.74,2.21,0,5.23,1.01,7.2,2.59,3.55,2.88,5.81,7.93,5.81,13.16,0,.31-.01,.62-.02,.92l4.69-1.41c.02-.31,.03-.63,.03-.95,0-9.12-7.44-15.89-16.65-15.89Z"/><path class="f" d="M87.97,272.99c-.29,6.22-3.45,10.59-6.78,12.97-3.03,2.11-7.01,2.78-9.46,2.78-4.9,0-9.55-2.11-12.48-5.47-.38-.42-.73-.87-1.05-1.33l4.31-1.29c2.28,3.71,5.92,6.46,10.37,6.46,3.99,0,5.81-1.73,6.34-2.3,1.81-1.64,3.84-5.2,4.06-10.41l4.69-1.41Z"/><path class="e" d="M103.75,262.39c-1.88-2.45-3.08-3.89-3.8-4.75-.28-.29-.72-.63-1-.63-2.45,0-4.81-.14-5.86-.14-1.11,0-1.59,.19-1.59,.57s.53,.63,1.06,.77c2.16,.58,2.69,.63,4.03,2.21,.1,.14,.34,.58,.34,2.3,0,1.63-.11,4.53-.26,7.65l1.89-.57c.05-3.72,.19-5.06,.24-6.36,0-.24,.34-.33,.53-.09,1.17,1.4,2.62,3.1,4.22,4.95l4.21-1.27c-1.83-2.06-3.33-3.78-4.01-4.64Zm21.84-5.57c-1.25,0-2.79,.19-4.51,.19-1.54,0-2.89-.05-4.13-.05-.58,0-1.25,.1-1.25,.44,0,.38,.33,.76,1.3,1.05,2.63,.77,2.97,1.92,3.02,2.93,.06,.61,.11,1.26,.15,1.92l2.26-.68c.01-.35,.03-.63,.04-.81,.14-2.59,1.01-3.02,3.07-3.5,.86-.24,1.15-.67,1.15-.96,0-.39-.29-.53-1.1-.53Z"/><path class="f" d="M102.74,287.5c0,.48-.63,.62-1.54,.62-1.39,0-3.41-.24-5.14-.24-1.05,0-2.3,.1-3.12,.1-.67,0-1.24-.05-1.24-.53,0-.39,.48-.68,.96-.82,2.25-.77,3.17-.96,3.36-4.51,.14-2.3,.43-7.25,.65-11.75l1.89-.57v.03c0,4.32-.14,11.71-.05,13.2,.2,2.21,.72,2.93,3.03,3.6,1.01,.24,1.2,.58,1.2,.87Z"/><path class="f" d="M121.94,281.25c0,2.02,.34,5.62,.34,6.39,0,.48-.24,1.01-.68,1.01-.67,0-1.73-.96-2.16-1.54-.81-1.01-1.68-2.26-2.97-3.84-3.3-3.93-8.61-9.98-12.92-14.97l4.21-1.27c4.04,4.53,9.71,10.72,11.92,13.12,.29,.29,.48-.19,.48-.34,.24-1.53,.1-6.72,.1-13.63,0-.96-.03-1.94-.09-2.88l2.26-.68c-.15,2.93-.49,11.26-.49,18.63Z"/><path class="e" d="M133.55,256.72c-.72-.04-1.49-.76-1.63-.91-.53-.43-.53-.77-.77-.77-.29,0-.72,.48-.72,.77,0,1.71-.33,3.36-.59,4.59l3.06-.93h0c.55-.43,1.27-.64,2.31-.7,.01-.01,.03-.01,.05-.01l5.9-1.77c-4.05-.04-6.64-.15-7.62-.27Z"/><path class="d" d="M132.9,259.47c-.14,.11-.28,.23-.4,.37-.2,.15-.77,.92-1.59,2.5-.43,1.01-.72,.96-.91,.96-.29,0-.48-.62-.48-1.1,0-.36,.14-.99,.31-1.8h.01l3.06-.93Z"/><path class="f" d="M159.91,256.87c-.48,1.49-.77,3.02-1.06,5.52-.05,.43-.43,.91-.82,.91-.33,0-.52-.34-.67-1.54-.29-2.49-.91-2.73-3.89-2.88-.81-.04-6.14-.04-6.72,.1-.24,.05-.43,.53-.43,.62v11.77c0,5.56,0,10.12,.19,11.9,.24,2.16,.48,2.74,3.46,3.41,.62,.14,1.3,.53,1.3,.86,0,.53-.87,.58-1.35,.58-.38,0-3.36-.24-5.47-.24-2.4,0-4.85,.33-5.47,.33-.96,0-1.44-.28-1.44-.57,0-.34,.48-.72,.91-.82,3.36-.77,3.46-1.58,3.6-5.18,.09-2.83,.33-12.63,.33-16.32v-5.72c0-.38-.24-.62-.38-.62-.96-.14-5.18-.24-5.95-.24-.28,0-.54,.01-.78,.02l5.9-1.77h.06c1.08,.01,2.27,.02,3.56,.02,2.49,0,9.02-.05,10.99-.09,1.73-.1,2.59-.39,3.26-.87,.34-.19,.48-.29,.67-.29,.24,0,.44,.44,.2,1.11Z"/><path class="f" d="M173.54,259.41c0,4.08-4.56,5.72-5.33,5.72-.48,0-.87-.1-.87-.48,0-.34,.39-.58,.63-.77,1.63-.87,2.88-2.12,2.88-3.41,0-1.54-.72-1.73-2.07-2.21-.43-.1-1.15-.19-1.15-1.39,0-1.06,1.06-1.92,2.16-1.92,2.5,0,3.75,2.11,3.75,4.46Z"/><path class="f" d="M189.42,259.41c0,4.08-4.56,5.72-5.32,5.72-.48,0-.87-.1-.87-.48,0-.34,.39-.58,.63-.77,1.63-.87,2.88-2.12,2.88-3.41,0-1.54-.72-1.73-2.07-2.21-.43-.1-1.15-.19-1.15-1.39,0-1.06,1.06-1.92,2.16-1.92,2.5,0,3.74,2.11,3.74,4.46Z"/></g></g></g></g></svg>