<?xml version="1.0" encoding="utf-8"?>
<!-- Generator: Adobe Illustrator 26.1.0, SVG Export Plug-In . SVG Version: 6.00 Build 0)  -->
<svg version="1.1" id="Calque_1" xmlns="http://www.w3.org/2000/svg" xmlns:xlink="http://www.w3.org/1999/xlink" x="0px" y="0px"
	 viewBox="0 0 121.5 144.8" style="enable-background:new 0 0 121.5 144.8;" xml:space="preserve">
<style type="text/css">
	.st0{fill:#F0838F;}
</style>
<g>
	<path class="st0" d="M0,0l68.9,0c40.6,0,53.2,16.9,53.2,42.9c0,14.5-4.7,28.6-19.8,34.6v0.4c17.3,5.3,19.1,21.4,19.1,36.5l0,30.4
		l-31.9,0l0-30.4c0-15-4.3-21.8-18-21.8l-39.6,0l0,52.2l-31.9,0L0,0z M70.4,68c15.8,0,21.5-7.7,21.5-18.9c0-10.3-5.8-17.8-24.3-17.8
		l-35.6,0l0,36.8L70.4,68z"/>
</g>
</svg>
