<svg xmlns="http://www.w3.org/2000/svg" viewBox="0 0 132.4 138.07"><defs><style>.cls-1{stroke:#fff;stroke-miterlimit:10;stroke-width:2px;}.cls-2{fill:#fff;}</style></defs><g id="Calque_2" data-name="Calque 2"><g id="Calque_1-2" data-name="Calque 1"><rect class="cls-1" x="1" y="1" width="130.4" height="136.07" rx="0.8"/><path class="cls-2" d="M34.54,109.51a34.43,34.43,0,0,1,1.25,3.58c.68,1.79,1.51,2.48,4.82,3.44,1.1.28,2.2,2.75,2.2,3.31,0,1-.83,1.51-1.79,1.65-2.89.82-5.37,2.61-6.2,5-.55,1.65-1.24,1.92-3.17,2.2-.68.14-1-.28-1.37-1.24-1.79-4.13-2.48-4.82-7.44-6.33-.69-.14-.83-.83-.69-1.52.14-2.06,1.38-2.89,3.72-3.72,2.75-1.24,3.44-3,4.68-5.78.28-.83,2.07-1.52,3-1.52C34.13,108.54,34.41,109.09,34.54,109.51Zm74.93,11.84a43.21,43.21,0,0,0-7.3,5.92,2.12,2.12,0,0,1-1.52.83,5.62,5.62,0,0,1-2.61-.69c-5.65-2.07-10.47-2.62-16.8-3.44-6.48-1.11-25.35-2.76-27.27-3-.69,0-1.52-.28-1.66-.69a13.76,13.76,0,0,1-.55-2.75c0-.69,0-.83.83-.83s15.15-.55,25.2-1.24c9.64-.69,17.35-1.93,20.25-3.72a5.14,5.14,0,0,1,2.47-.83,1.24,1.24,0,0,1,1,.42c3,3.16,4.82,5.09,8.12,6.88a2.24,2.24,0,0,1,.69,1.93C110.29,120.66,110.15,120.94,109.47,121.35Z"/><path class="cls-2" d="M24.41,74.68a39,39,0,0,1,3.58-17c3-7,7.85-8,10.47-8.12,1.51-.27,6.88-.55,8.12-.55,3.72,0,4.54-2.07,3.86-10.19.82-.55,1.65-1.24,2.34-1.79,1-.42,1-.42,1.1.55.55,1.65,2.62,10.74,2.62,15.7,0,1.65-4.27,7.29-5.1,7.29H45.75c-7.71,0-15.83,2.08-15.83,9.51S34.6,81.28,44,81.56c1.24,0,3.58,2.21,3.58,4.14,0,3.85-4,7.71-7.57,7.71C30.47,93.41,24.41,81.28,24.41,74.68Zm20-47.52c-.82-1.93-1.65-3.44-3.85-4.27-1.79-.69-2.34-1-2.48-2.34-.55-1.93-.41-2.07,1.93-3.17a9,9,0,0,0,4.4-5.92c.42-1.37,2.35-2.07,3.73-2.07.82,0,1.23.7,1.65,1.66a9.12,9.12,0,0,0,4,5.5A6.23,6.23,0,0,1,56.91,19c.69,1.66.55,1.93-.69,2.76-4.41,1.93-5.65,3-6.34,5.23s-1,2.48-1.78,2.48C46.17,29.5,45.06,29.09,44.37,27.16Z"/><path class="cls-2" d="M88,81c.83,1.93,1.52,3.3,3.86,4.27,1.79.55,2.2,1,2.48,2.33.41,1.93.27,1.93-1.93,3.17S88.85,93.57,88,96.73c-.41,1.38-2.48,2.07-3.71,2.07-.83,0-1.24-.69-1.79-1.66-.56-1.92-1.66-4.26-4-5.36a7.39,7.39,0,0,1-3-2.62c-.82-1.52-.69-1.79.69-2.75,4.41-1.93,5.37-3,6.2-5.24s1.1-2.47,1.93-2.47C86.1,78.7,87.2,79.11,88,81Zm20-47.52a41.06,41.06,0,0,1-3.58,16.94c-3.3,7-8,8-10.47,8.13-1.51.13-6.88.55-8.26.55-3.72,0-4.54,1.93-3.72,10.19a17.62,17.62,0,0,0-2.34,1.79c-1,.41-1,.41-1.24-.55C77.83,68.91,75.9,59.82,75.9,55c0-1.78,4.28-7.43,5-7.43h5.65c8,0,16.11-2.07,16.11-9.37,0-8-4.82-11.29-14.18-11.57-1.1,0-3.72-2.2-3.72-4.13,0-4,4-7.71,7.57-7.71C101.93,14.79,108,26.91,108,33.52Z"/></g></g></svg>