<?xml version="1.0" encoding="utf-8"?>
<!-- Generator: Adobe Illustrator 25.4.1, SVG Export Plug-In . SVG Version: 6.00 Build 0)  -->
<svg version="1.1" id="Calque_1" xmlns="http://www.w3.org/2000/svg" xmlns:xlink="http://www.w3.org/1999/xlink" x="0px" y="0px"
	 viewBox="0 0 380 278" style="enable-background:new 0 0 380 278;" xml:space="preserve">
<style type="text/css">
	.st0{fill:#274C77;}
	.st1{opacity:0.92;fill:#F8EDE3;}
	.st2{fill:#F8EDE3;}
	.st3{fill:#F7ECE2;}
	.st4{fill:#DEDEDF;}
</style>
<g>
	
		<image style="overflow:visible;opacity:0.6;" width="1734" height="1310" xlink:href="942E28906A37C9D4.png"  transform="matrix(0.24 0 0 0.24 -18 -18.24)">
	</image>
	<g>
		<rect x="0" y="0" class="st0" width="380" height="278"/>
	</g>
</g>
<path class="st1" d="M105.1,152.9l-6,1.8L47.2,77.8h-0.9l3.8,64c2.5,3.1,7.7,5.4,10.9,6.4l-1.6,5c-4.9-0.2-10.9-0.4-15.3-0.4
	c-2.3,0-6.5,0.1-11.8,0.4l-1.5-5c3-1.1,7-2.7,9.3-4.4V76.6c-2.6-1.7-6.2-3.3-9.3-4.4l1.5-5c2.2,0.2,6.6,0.4,9.8,0.4
	c4.3,0,4.9-0.1,9.6-0.4l46.9,69h0.6l-3.7-58.5c-3.3-2.3-6.8-4.4-10-5.4l1.5-5c4.9,0.2,8.4,0.4,13.3,0.4c3.4,0,7.3-0.1,12.5-0.4
	l1.5,5c-2.5,1-6,2.6-9.3,4.4V152.9z"/>
<path class="st1" d="M175.2,140.6c-3.6,7.6-13.3,14.1-24,14.1c-15.3,0-26.8-13.2-26.8-30.3s12.1-31.7,28.9-31.7
	c12.7,0,23.1,10.5,23.2,26.9l-0.4,0.4H135c0.1,18.7,10.2,25.7,22.1,25.7c4.7,0,10.8-1.6,15.6-7.6h0.4L175.2,140.6z M135.2,115.1h30
	c-0.4-11.2-5.4-17-13.4-17C141.4,98.1,135.9,105,135.2,115.1z"/>
<path class="st1" d="M235.7,197.6c-2.3,7-11.4,14.1-21.5,14.1c-14.6,0-26.3-12.3-26.3-30.1c0-17.1,12.8-31.9,28.9-31.9
	c6.5,0,13,1,18.3,3l0.5,1.1c-0.9,4.4-2.1,12.2-2.1,19.1h-3.7l-6.4-16.5c-2.7-0.6-5-0.7-7.9-0.7c-12.5,0-17.1,8-17.1,21.6
	c0,17,9.1,25.5,20.7,25.5c4.9,0,10.6-1.7,14.1-7.4l0.5-0.1L235.7,197.6z"/>
<path class="st1" d="M244.5,180.3c0-17.1,12.5-30.6,29.2-30.6c18,0,29.3,10.8,29.3,31.4c0,17.1-12.7,30.6-29.3,30.6
	C255.7,211.7,244.5,200.8,244.5,180.3z M292.1,184c0-17.7-9.2-28.8-19.9-28.8c-10.6,0-16.9,6.9-16.9,22c0,17.7,9.6,28.8,19.9,28.8
	C285.7,206.1,292.1,199.3,292.1,184z"/>
<path class="st1" d="M323.6,118h10.3l-3.4,17.2l0.1,0.1l15.7-8.6l3.2,10.1l-17.7,2.1l-0.1,0.2l14.5,11.6l-10.9,8.2l-6.3-17.6h-0.2
	l-6.4,17.6l-10.9-8.2l14.5-11.6l-0.1-0.2l-17.7-2.1l3.2-10.1l15.7,8.6l0.1-0.1L323.6,118z"/>
<g>
	<path class="st2" d="M62.5,187.2c-0.8,0-1.6-0.1-2.5-0.1c-0.9,0-1.5,0-2.3,0.1l-0.1-0.5c0.5-0.2,1-0.4,1.5-0.7l3.4-12.6h-3.3
		l-2.3,3.4h-0.6c0.3-0.9,0.5-2.1,0.5-2.9c0-0.4,0-0.8-0.1-1.1l0.3-0.3c2.2,0.1,5.6,0.1,6.9,0.1c1.1,0,4.7-0.1,7-0.1l0.1,0.3
		c-0.7,0.7-1.4,2.6-1.6,4.1h-0.6l-0.6-3.4h-3.3l-3.4,12.5c0.4,0.4,0.8,0.6,1.3,0.8L62.5,187.2z"/>
	<path class="st2" d="M76.1,187.2c-0.7,0-1.7,0-2.5,0c-0.8,0-1.5,0-2.2,0l-0.1-0.5c0.5-0.2,1-0.3,1.4-0.6l1-3.6l-1.7-5.4
		c-0.3-0.3-0.9-0.6-1.4-0.8l0.2-0.5c0.7,0,1.5,0,2.3,0c0.8,0,1.9,0,2.5,0l0.1,0.5c-0.4,0.1-1,0.3-1.4,0.5l1.4,4.9h0.1l3.5-4.7
		c-0.3-0.3-0.8-0.5-1.2-0.7l0.2-0.4c0.6,0,1.4,0,2.1,0c0.6,0,1.5,0,2,0l0.1,0.5c-0.5,0.2-0.9,0.4-1.4,0.6l-5,5.5l-0.9,3.6
		c0.3,0.3,0.8,0.5,1.2,0.7L76.1,187.2z"/>
	<path class="st2" d="M85.5,187.2c-0.7,0-1.7,0-2.5,0c-0.9,0-1.5,0-2.2,0l-0.1-0.5c0.5-0.2,1-0.4,1.5-0.6l2.4-9.1
		c-0.4-0.3-0.7-0.5-1.1-0.7l0.2-0.4c0.7,0,1.6,0.1,2.3,0.1c1,0,2,0,2.9,0c2.4,0,3.5,0.8,3.5,2.4c0,2.4-2.8,4.2-5.9,4.2h-0.5l0.1-0.7
		h0.5c1.8,0,3.2-1.3,3.2-3.3c0-1.3-0.8-1.8-2-1.8h-0.7l-2.6,9.5c0.4,0.3,0.8,0.4,1.2,0.6L85.5,187.2z"/>
	<path class="st2" d="M101.1,187l-0.2,0.2c-1.3,0-6.2,0-6.8,0c-0.9,0-1.4,0-2.2,0l-0.1-0.5c0.4-0.1,0.8-0.3,1.4-0.6l2.5-9.1
		c-0.4-0.4-0.9-0.5-1.2-0.7l0.2-0.5c0.9,0.1,1.7,0.1,2.5,0.1c0.9,0,4.9,0,6.8-0.1l0.1,0.2c-0.6,0.6-1.4,1.7-1.6,3H102l-0.4-2.4h-3.5
		L97,181h1.9c0.8-0.4,1.3-0.8,1.7-1.3l0.5,0.1c-0.6,1.1-1,2.1-1,3.4h-0.5c-0.2-0.5-0.5-1.1-1-1.6h-1.8l-1.3,4.6h3.5l1.8-2.4h0.5
		c-0.3,0.9-0.4,1.7-0.4,2.2C101.1,186.5,101.1,186.8,101.1,187z"/>
	<path class="st2" d="M108.1,187.2c-0.8,0-1.6-0.1-2.5-0.1c-0.9,0-1.5,0-2.2,0.1l-0.1-0.5c0.4-0.1,0.9-0.3,1.5-0.6l2.5-9.1
		c-0.5-0.3-0.9-0.5-1.2-0.7l0.2-0.5c0.9,0.1,1.6,0.1,2.4,0.1c0.9,0,4.7,0,6.6-0.1l0.1,0.2c-0.6,0.6-1.3,1.7-1.6,3h-0.5l-0.4-2.4
		h-3.2l-1.3,4.7h1.8c0.9-0.5,1.4-0.9,1.8-1.3l0.4,0.1c-0.6,1-0.8,2.3-0.9,3.5h-0.4c-0.2-0.5-0.4-1-1.1-1.6h-1.8l-1.1,4.2
		c0.4,0.2,0.8,0.4,1.2,0.5L108.1,187.2z"/>
	<path class="st2" d="M125.1,187.2c-0.7,0-1.7,0-2.5,0c-0.7,0-1.6,0-2.2,0l-0.1-0.5c0.4-0.1,0.8-0.3,1.3-0.5l-0.2-2.9h-4l-1.6,2.8
		c0.4,0.3,0.7,0.5,1.1,0.7l-0.2,0.4c-0.7,0-1.2,0-1.8,0c-0.5,0-1.3,0-1.9,0l-0.1-0.5c0.4-0.1,0.8-0.3,1.4-0.6l5.9-9.2l-1.9-0.6
		l0.2-0.5c1.1,0,3.4,0,4.7-0.1l0.9,10.4c0.5,0.4,0.9,0.5,1.4,0.7L125.1,187.2z M120.8,177.2l-3,5.3h3.5L120.8,177.2L120.8,177.2z"/>
	<path class="st2" d="M135.2,185.4c-0.8,0.9-2.4,2.1-4.5,2.1c-2.5,0-4.1-1.4-4.1-4.2c0-4.2,3.8-7.6,7.3-7.6c1.2,0,2.1,0.1,2.9,0.5
		v0.2c-0.6,0.6-1.5,1.9-1.6,3h-0.5l-0.3-2.1c-0.5-0.4-1.1-0.5-1.8-0.5c-1.7,0-3.5,2.1-3.5,5.6c0,2.5,1,3.7,2.9,3.7
		c1.2,0,2.3-0.5,3-1.3L135.2,185.4z"/>
	<path class="st2" d="M145.8,187l-0.2,0.2c-1.3,0-6.2,0-6.8,0c-0.9,0-1.4,0-2.2,0l-0.1-0.5c0.4-0.1,0.8-0.3,1.4-0.6l2.5-9.1
		c-0.4-0.4-0.9-0.5-1.2-0.7l0.2-0.5c0.9,0.1,1.7,0.1,2.5,0.1c0.9,0,4.8,0,6.8-0.1l0.1,0.2c-0.6,0.6-1.4,1.7-1.6,3h-0.5l-0.4-2.4
		h-3.5l-1.2,4.3h1.9c0.8-0.4,1.3-0.8,1.7-1.3l0.5,0.1c-0.6,1.1-1,2.1-1,3.4h-0.5c-0.2-0.5-0.5-1.1-1-1.6h-1.8l-1.3,4.6h3.5l1.8-2.4
		h0.5c-0.3,0.9-0.4,1.7-0.4,2.2C145.7,186.5,145.7,186.8,145.8,187z"/>
</g>
<g>
	<line class="st3" x1="207" y1="118" x2="281" y2="118"/>
	<rect x="207" y="116" class="st4" width="74" height="4"/>
</g>
</svg>
