<svg xmlns="http://www.w3.org/2000/svg" viewBox="0 0 323.68 37.89"><defs><style>.cls-1{fill:#837565;}</style></defs><g id="Calque_2" data-name="Calque 2"><g id="Calque_1-2" data-name="Calque 1"><path class="cls-1" d="M5.2,2.93A3.17,3.17,0,0,0,2.83,5.37a6.61,6.61,0,0,0-.34,2.08,1.15,1.15,0,0,0,0,.2c0,.06,0,.19,0,.38H5.2v5.32H0V8.45A9.26,9.26,0,0,1,1.44,2.88,5.37,5.37,0,0,1,5.2.63Zm8.23,0a2.73,2.73,0,0,0-2,1.51,6.27,6.27,0,0,0-.7,3,2.64,2.64,0,0,0,0,.29,1,1,0,0,0,.06.32h2.66v5.32H8.2V8.45A10.87,10.87,0,0,1,9.42,3.26a5,5,0,0,1,4-2.63Z"/><path class="cls-1" d="M21.73,25.27a10,10,0,0,0,1.39,4.95q2.32,3.57,8.2,3.57a14.05,14.05,0,0,0,4.8-.78q4.18-1.51,4.19-5.42a4.73,4.73,0,0,0-1.78-4.18,17.59,17.59,0,0,0-5.63-2.12l-4.7-1.1a20.79,20.79,0,0,1-6.53-2.37,7.55,7.55,0,0,1-3.31-6.71,10.49,10.49,0,0,1,3.25-7.94Q24.87.08,30.83.07A15.68,15.68,0,0,1,40.16,2.8Q44,5.52,44,11.5H39.43a9.26,9.26,0,0,0-1.5-4.42Q35.8,4.28,30.7,4.27c-2.75,0-4.72.61-5.92,1.81A5.73,5.73,0,0,0,23,10.28a4.13,4.13,0,0,0,2.13,3.86,30.63,30.63,0,0,0,6.32,1.95l4.87,1.15a14.57,14.57,0,0,1,5.44,2.27A8.59,8.59,0,0,1,45,26.81q0,6-4.22,8.52A18.55,18.55,0,0,1,31,37.89q-6.53,0-10.22-3.42a11.67,11.67,0,0,1-3.62-9.2Z"/><path class="cls-1" d="M52.37,1h26V5.37H57.1V16.26H76.78v4.15H57.1V32.57H78.76v4.27H52.37Z"/><path class="cls-1" d="M85.13,1h7L102.4,31.3,112.64,1h6.92V36.84h-4.64V15.67c0-.73,0-1.94,0-3.63s0-3.51,0-5.45L104.78,36.84H100L89.62,6.59v1.1c0,.88,0,2.22.08,4s.07,3.12.07,4V36.84H85.13Z"/><path class="cls-1" d="M127.37,1h16a10.91,10.91,0,0,1,7.68,2.69A9.81,9.81,0,0,1,154,11.25a11.06,11.06,0,0,1-2.61,7.32q-2.61,3.11-8,3.11H132.23V36.84h-4.86Zm18.84,4.93a10.31,10.31,0,0,0-4.38-.76h-9.6V17.58h9.6a9.19,9.19,0,0,0,5.27-1.39q2-1.4,2-4.91Q149.12,7.32,146.21,5.91Z"/><path class="cls-1" d="M160.25,1h4.86V32.57h18v4.27H160.25Z"/><path class="cls-1" d="M189.16,1h4.91V36.84h-4.91Z"/><path class="cls-1" d="M227.32,3.59a12.74,12.74,0,0,1,4.13,8.15h-4.74a9.92,9.92,0,0,0-3.15-5.49,9.9,9.9,0,0,0-6.63-2A10.58,10.58,0,0,0,208.52,8q-3.2,3.72-3.2,11.42c0,4.21,1,7.61,2.89,10.23s4.8,3.92,8.62,3.92a9.05,9.05,0,0,0,8-4.13,15.88,15.88,0,0,0,2.18-5.71h4.74a16.35,16.35,0,0,1-4.15,9.5q-4.23,4.6-11.39,4.61A15,15,0,0,1,205.87,34q-5.53-5-5.53-15.47,0-7.93,4.15-13Q209,0,216.87,0,223.61,0,227.32,3.59Z"/><path class="cls-1" d="M239.16,1h4.91V36.84h-4.91Z"/><path class="cls-1" d="M278,1V5.25H265.94V36.84H261V5.25H249V1Z"/><path class="cls-1" d="M289.23,1h5.5l13,35.86h-5.32L298.78,26.1H284.59l-3.88,10.74h-5Zm8,21.16L291.77,6.3,286,22.14Z"/><path class="cls-1" d="M315.45,2.93a3.15,3.15,0,0,0-2.36,2.44,6.63,6.63,0,0,0-.35,2.08,1,1,0,0,0,0,.2c0,.06,0,.19,0,.38h2.66v5.32h-5.2V8.45a9.26,9.26,0,0,1,1.44-5.57A5.39,5.39,0,0,1,315.45.63Zm8.23,0a2.77,2.77,0,0,0-2,1.51,6.27,6.27,0,0,0-.69,3,2.71,2.71,0,0,0,0,.29A2,2,0,0,0,321,8h2.66v5.32h-5.22V8.45a10.75,10.75,0,0,1,1.22-5.19,4.94,4.94,0,0,1,4-2.63Z"/></g></g></svg>