<svg xmlns="http://www.w3.org/2000/svg" viewBox="0 0 267.38 28.43"><g id="Calque_2" data-name="Calque 2"><g id="Calque_1-2" data-name="Calque 1"><path d="M7.67,6.92H0V.53H23.9V6.92H16.23v21H7.67Z"/><path d="M45.62,19.25,35.62.48h9l5.21,11.14H50L55.1.48h9l-10,18.77V28H45.62Z"/><path d="M77,.48h8.56V27.92H77Zm4.3,14H88a5.06,5.06,0,0,0,3.32-1,3.63,3.63,0,0,0,1.2-3h0a3.58,3.58,0,0,0-1.2-3,5.08,5.08,0,0,0-3.32-1H81.31V.41H90a13.06,13.06,0,0,1,5.9,1.23,9.11,9.11,0,0,1,3.86,3.49,10.09,10.09,0,0,1,1.36,5.29h0a10.08,10.08,0,0,1-1.36,5.28,9.09,9.09,0,0,1-3.86,3.43A13.49,13.49,0,0,1,90,20.34H81.31Z"/><path d="M120.59,26.73a12.08,12.08,0,0,1-5.08-4.93,15.3,15.3,0,0,1-1.79-7.58h0a15.11,15.11,0,0,1,1.8-7.57,12.13,12.13,0,0,1,5.09-4.92,18.4,18.4,0,0,1,15.59,0,12.25,12.25,0,0,1,5.09,4.92,15.16,15.16,0,0,1,1.78,7.56h0a15.25,15.25,0,0,1-1.78,7.57,12.37,12.37,0,0,1-5.08,4.93,18.54,18.54,0,0,1-15.62,0Zm11-5.8a6.23,6.23,0,0,0,2.06-2.65,10.49,10.49,0,0,0,.72-4.06h0a10.09,10.09,0,0,0-.73-4.07,6,6,0,0,0-2.08-2.63,5.39,5.39,0,0,0-3.16-.92,5.33,5.33,0,0,0-3.12.91,5.89,5.89,0,0,0-2.08,2.62,10.37,10.37,0,0,0-.74,4.09h0a10.39,10.39,0,0,0,.74,4.08,6,6,0,0,0,2.07,2.64,5.8,5.8,0,0,0,6.3,0Z"/><path d="M154.43.48h8.85l3.35,16.81h.2L171,.48h7l4.14,16.81h.16L185.62.48h8.84l-7.53,27.44h-8.47l-3.94-14.79h-.16l-3.94,14.79h-8.48Z"/><path d="M207.52.48h20.55V6.92h-12V11.3h11.24v5.94H216.08v4.37h12v6.31H207.52Z"/><path d="M242.32.48h8.56V27.92h-8.56Zm4.28,22h7.93a5.32,5.32,0,0,0,3.06-.77,2.55,2.55,0,0,0,1.08-2.22h0a2.54,2.54,0,0,0-.5-1.6,2.94,2.94,0,0,0-1.45-1,6.82,6.82,0,0,0-2.37-.35H246.6V11.69H254a4.65,4.65,0,0,0,2.9-.78,2.52,2.52,0,0,0,1-2.11h0a2.35,2.35,0,0,0-1-2,4.14,4.14,0,0,0-2.58-.71h-7.71V.57h10a14.06,14.06,0,0,1,5.14.82A7.21,7.21,0,0,1,265,3.76a6.22,6.22,0,0,1,1.13,3.73h0a5.3,5.3,0,0,1-.79,2.88,6,6,0,0,1-2.15,2.08,7.57,7.57,0,0,1-3.06,1v.16a8.09,8.09,0,0,1,3.61.89,7.2,7.2,0,0,1,2.63,2.3,5.55,5.55,0,0,1,1,3.22h0a6.93,6.93,0,0,1-1.27,4.16A8.24,8.24,0,0,1,262.54,27a13.63,13.63,0,0,1-5.43,1H246.6Z"/></g></g></svg>