<svg xmlns="http://www.w3.org/2000/svg" viewBox="0 0 102.13 69.04"><defs><style>.cls-1{fill:#fff;}</style></defs><g id="Calque_2" data-name="Calque 2"><g id="Calque_1-2" data-name="Calque 1"><path class="cls-1" d="M50.74,69Q28.33,69,5.92,69C.79,69,0,68.22,0,63Q0,34.52,0,6C0,.87.86,0,5.94,0H96c5.38,0,6.11.76,6.11,6.21q0,28.52,0,57c0,4.87-.9,5.78-5.73,5.78Q73.58,69.06,50.74,69Zm.54-65.93C36.62,3.11,22,3.2,7.31,3,3.9,3,2.82,4,2.85,7.44q.21,27.06,0,54.13c0,3.4,1,4.44,4.43,4.43q43.77-.18,87.54,0c3.41,0,4.48-1,4.46-4.4q-.21-27.06,0-54.13c0-3.4-1-4.47-4.43-4.43C80.33,3.2,65.81,3.11,51.28,3.11Z"/><path class="cls-1" d="M42,34.07V30c0-6.9.52-7.2,6.4-4C52.21,28.08,56.12,30,60,32.12c1,.57,2.34,1.16,2.34,2.57S60.82,36.51,59.75,37c-4.43,2.12-8.85,4.26-13.34,6.26C42.59,45,42,44.56,42,40.21,42,38.17,42,36.12,42,34.07Zm2.43.21c0,7.5,0,7.55,6.32,4.32,2.37-1.22,6.58-1.9,6.61-4,0-2.83-4.18-3.15-6.6-4.43C44.46,26.9,44.41,27,44.41,34.28Z"/></g></g></svg>