<svg xmlns="http://www.w3.org/2000/svg" viewBox="0 0 103.75 55.41"><defs><style>.cls-1{fill:#fff;}</style></defs><g id="Calque_2" data-name="Calque 2"><g id="Calque_1-2" data-name="Calque 1"><path class="cls-1" d="M35.06,0Q50,0,65,0c3.94,0,5,1,5,5q0,8.22,0,16.44c0,1,.24,2.44-1.21,2.4s-1.26-1.43-1.26-2.47c0-5.27-.09-10.54,0-15.81.05-2.19-.5-3.12-2.93-3.11Q35,2.55,5.41,2.42c-2.26,0-2.79.81-2.78,2.89.08,10.44.12,20.88,0,31.32,0,2.73,1,3.23,3.47,3.22,14.11-.09,28.22-.05,42.33-.05.73,0,1.46,0,2.18,0s2.08-.16,2,1.26c-.07,1.13-1,1.1-1.89,1.1H5.26C1.2,42.18,0,41.07,0,37.09Q0,21,0,4.84C0,1.19,1.23,0,4.87,0Q20,0,35.06,0Z"/><path class="cls-1" d="M77.34,26.14c5.91,0,11.83,0,17.74,0,3.38,0,4.46,1.11,4.48,4.48,0,6.41,0,12.81,0,19.22,0,1,.32,2.36-1.2,2.33s-1.26-1.39-1.26-2.4c0-6-.08-12,0-18,0-2.33-.56-3.34-3.11-3.31q-16.8.17-33.6,0c-2.46,0-3,1-3,3.1.09,5.27,0,10.54,0,15.81a15.56,15.56,0,0,1,0,2.16c-.15,1.05.11,2.66-1.45,2.61-1.25,0-1.16-1.5-1.2-2.5-.05-1.34,0-2.69,0-4V32c0-4.92.91-5.85,5.71-5.85Z"/><path class="cls-1" d="M76.56,55.29c-8.2,0-16.39,0-24.58,0-.85,0-2.45.72-2.39-.95,0-1.21,1.46-.84,2.33-.84q24.74,0,49.47,0c.86,0,2.45-.65,2.36,1-.07,1.31-1.5.74-2.3.74C93.15,55.31,84.85,55.29,76.56,55.29Z"/><path class="cls-1" d="M33.85,55.29c-3,0-6,0-9,0-.59,0-1.66.42-1.58-.79a1.12,1.12,0,0,1,1.37-1c5,1,3.79-2.61,4-5.28.1-1.29-.78-3.55,1.2-3.58s1,2.23,1.21,3.49a12,12,0,0,1,0,2.16c0,2.93,2,4.17,4.76,3.12,1-.36.85-1,.86-1.74,0-1.76,0-3.51,0-5.27,0-.87.11-1.8,1.16-1.87S39,45.45,39,46.27a16.13,16.13,0,0,1,0,2.78c-.34,2.93,0,5.15,3.88,4.45.69-.12,1.63.11,1.62,1,0,1.12-1.06.73-1.68.74C39.86,55.32,36.85,55.29,33.85,55.29Z"/></g></g></svg>