<svg xmlns="http://www.w3.org/2000/svg" viewBox="0 0 377.58 214.23"><defs><style>.cls-1{fill:#ff7900;}.cls-10,.cls-11,.cls-12,.cls-13,.cls-14,.cls-2,.cls-3,.cls-4,.cls-5,.cls-6,.cls-7,.cls-9{font-size:99.7px;}.cls-2{font-family:AvianoFutureThin, Aviano Future;}.cls-3{font-family:AvianoFutureLight, Aviano Future;}.cls-4{font-family:AvianoFutureRegular, Aviano Future;}.cls-5{font-family:AvianoFutureBold, Aviano Future;}.cls-6{font-family:AvianoFutureBlack, Aviano Future;}.cls-7{font-family:AvianoFutureHeavy, Aviano Future;}.cls-8{font-size:16.62px;fill:#fff;font-family:Cairo-Light, Cairo;font-weight:300;}.cls-9{font-family:AvianoFutureThinFast, Aviano Future;}.cls-10{font-family:AvianoFutureLightFast, Aviano Future;}.cls-11{font-family:AvianoFutureRegularFast, Aviano Future;}.cls-12{font-family:AvianoFutureBoldFast, Aviano Future;}.cls-13{font-family:AvianoFutureBlackFast, Aviano Future;}.cls-14{font-family:AvianoFutureHeavyFast, Aviano Future;}.cls-15{letter-spacing:0em;}.cls-16{letter-spacing:-0.01em;}.cls-17{letter-spacing:0em;}.cls-18{letter-spacing:-0.04em;}</style></defs><g id="Calque_2" data-name="Calque 2"><g id="texte"><rect class="cls-1" width="111.65" height="108.24"/><text class="cls-2" transform="translate(10.92 82.34)">c</text><rect class="cls-1" x="43.6" y="0.15" width="111.65" height="108.24"/><text class="cls-3" transform="translate(54.41 82.39)">c</text><rect class="cls-1" x="99.87" y="0.15" width="111.65" height="108.24"/><text class="cls-4" transform="translate(110.83 82.66)">c</text><rect class="cls-1" x="151.86" y="0.15" width="111.65" height="108.24"/><text class="cls-5" transform="translate(165.05 82.19)">c</text><rect class="cls-1" x="206.62" y="0.43" width="111.65" height="108.24"/><text class="cls-6" transform="translate(219.92 81.66)">c</text><rect class="cls-1" x="263.96" y="0.26" width="111.65" height="108.24"/><text class="cls-7" transform="translate(278.09 85.17)">c</text><text class="cls-8" transform="translate(2.83 15.63)">100</text><text class="cls-8" transform="translate(55.17 15.63)">300</text><text class="cls-8" transform="translate(110.66 14.79)">400</text><text class="cls-8" transform="translate(161.18 14.79)">700</text><text class="cls-8" transform="translate(216.82 14.79)">800</text><text class="cls-8" transform="translate(267.94 15.06)">900</text><text class="cls-8" transform="translate(111.27 118.35) scale(0.99 1)">400</text><text class="cls-8" transform="translate(161.35 118.35) scale(0.99 1)">700</text><text class="cls-8" transform="translate(216.52 118.35) scale(0.99 1)">800</text><text class="cls-8" transform="translate(267.19 118.62) scale(0.99 1)">900</text><rect class="cls-1" y="105.3" width="111.68" height="108.24"/><text class="cls-9" transform="translate(10.92 187.64)">c</text><rect class="cls-1" x="43.61" y="105.45" width="111.68" height="108.24"/><text class="cls-10" transform="translate(54.43 187.69)">c</text><rect class="cls-1" x="99.9" y="105.45" width="111.68" height="108.24"/><text class="cls-11" transform="translate(110.87 187.96)">c</text><rect class="cls-1" x="151.9" y="105.45" width="111.68" height="108.24"/><text class="cls-12" transform="translate(165.09 187.49)">c</text><rect class="cls-1" x="206.68" y="105.72" width="111.68" height="108.24"/><text class="cls-13" transform="translate(219.98 186.96)">c</text><rect class="cls-1" x="264.03" y="105.55" width="111.68" height="108.24"/><text class="cls-14" transform="translate(278.17 190.47)">c</text><text class="cls-8" transform="translate(1.49 207.9)">Thin</text><text class="cls-8" transform="translate(51.15 207.4)">Lig<tspan class="cls-15" x="19.91" y="0">h</tspan><tspan x="28.7" y="0">t</tspan></text><text class="cls-8" transform="translate(99 207.09)"><tspan class="cls-16">R</tspan><tspan x="10.07" y="0">egular</tspan></text><text class="cls-8" transform="translate(161.44 207.45)">Bold</text><text class="cls-8" transform="translate(212.79 207.65)">Black</text><text class="cls-8" transform="translate(264.29 207.84)"><tspan class="cls-17">H</tspan><tspan x="11.13" y="0">e</tspan><tspan class="cls-15" x="19.51" y="0">a</tspan><tspan x="27.73" y="0">vy</tspan></text><text class="cls-8" transform="translate(329.55 119.56)">(<tspan class="cls-18" x="4.19" y="0">F</tspan><tspan x="12.3" y="0">ast)</tspan></text></g></g></svg>