<svg xmlns="http://www.w3.org/2000/svg" viewBox="0 0 378.98 109.58"><defs><style>.cls-1{fill:#ff7900;}.cls-2,.cls-3,.cls-4,.cls-5,.cls-6,.cls-7{font-size:99.7px;}.cls-2{font-family:AvianoFutureThinFast, Aviano Future;}.cls-3{font-family:AvianoFutureLightFast, Aviano Future;}.cls-4{font-family:AvianoFutureRegularFast, Aviano Future;}.cls-5{font-family:AvianoFutureBoldFast, Aviano Future;}.cls-6{font-family:AvianoFutureBlackFast, Aviano Future;}.cls-7{font-family:AvianoFutureHeavyFast, Aviano Future;}.cls-8{font-size:16.62px;fill:#fff;font-family:Cairo-Light, Cairo;font-weight:300;}.cls-9{letter-spacing:0em;}.cls-10{letter-spacing:-0.01em;}.cls-11{letter-spacing:0em;}.cls-12{letter-spacing:-0.04em;}</style></defs><g id="Calque_2" data-name="Calque 2"><g id="texte"><rect class="cls-1" width="111.54" height="108.24"/><text class="cls-2" transform="translate(10.91 82.34)">c</text><rect class="cls-1" x="43.56" y="0.15" width="111.54" height="108.24"/><text class="cls-3" transform="translate(54.36 82.39)">c</text><rect class="cls-1" x="99.77" y="0.15" width="111.54" height="108.24"/><text class="cls-4" transform="translate(110.72 82.66)">c</text><rect class="cls-1" x="151.71" y="0.15" width="111.54" height="108.24"/><text class="cls-5" transform="translate(164.88 82.19)">c</text><rect class="cls-1" x="206.41" y="0.43" width="111.54" height="108.24"/><text class="cls-6" transform="translate(219.7 81.66)">c</text><rect class="cls-1" x="263.69" y="0.26" width="111.54" height="108.24"/><text class="cls-7" transform="translate(277.82 85.17)">c</text><text class="cls-8" transform="translate(2.82 15.63)">100</text><text class="cls-8" transform="translate(55.12 15.63)">300</text><text class="cls-8" transform="translate(110.55 14.79)">400</text><text class="cls-8" transform="translate(161.02 14.79)">700</text><text class="cls-8" transform="translate(216.6 14.79)">800</text><text class="cls-8" transform="translate(267.67 15.06)">900</text><text class="cls-8" transform="translate(2.23 103.35)">Thin</text><text class="cls-8" transform="translate(51.82 102.85)">Lig<tspan class="cls-9" x="19.91" y="0">h</tspan><tspan x="28.7" y="0">t</tspan></text><text class="cls-8" transform="translate(99.62 102.54)"><tspan class="cls-10">R</tspan><tspan x="10.07" y="0">egular</tspan></text><text class="cls-8" transform="translate(161.98 102.9)">Bold</text><text class="cls-8" transform="translate(213.26 103.1)">Black</text><text class="cls-8" transform="translate(264.69 103.28)"><tspan class="cls-11">H</tspan><tspan x="11.13" y="0">e</tspan><tspan class="cls-9" x="19.51" y="0">a</tspan><tspan x="27.73" y="0">vy</tspan></text><text class="cls-8" transform="translate(330.87 15)">(<tspan class="cls-12" x="4.19" y="0">F</tspan><tspan x="12.3" y="0">ast)</tspan></text></g></g></svg>