<svg id="Calque_1" data-name="Calque 1" xmlns="http://www.w3.org/2000/svg" viewBox="0 0 375 2474.81"><rect y="85.21" width="375" height="2201.08" style="fill:#0f9"/><path d="M366.68,9.31V75.44H8.32V9.31H366.68m2-2H6.32V77.44H368.68V7.31Z"/><text transform="translate(17.58 69.71)" style="font-size:29px;fill:#0f9;font-family:GTFlexaTrial-XExpBlIt, GT Flexa Trial;font-style:italic"><tspan style="letter-spacing:-0.02498653017241379em">G</tspan><tspan x="42.54" y="0" style="letter-spacing:-0.02000269396551724em">T</tspan><tspan x="77.02" y="0" xml:space="preserve"> FLEX</tspan><tspan x="226.78" y="0" style="letter-spacing:-0.019969019396551723em">A</tspan></text><text transform="translate(16.62 68.76)" style="font-size:29px;font-family:GTFlexaTrial-XExpBlIt, GT Flexa Trial;font-style:italic"><tspan style="letter-spacing:-0.02498653017241379em">G</tspan><tspan x="42.54" y="0" style="letter-spacing:-0.02000269396551724em">T</tspan><tspan x="77.02" y="0" xml:space="preserve"> FLEX</tspan><tspan x="226.78" y="0" style="letter-spacing:-0.019969019396551723em">A</tspan></text><path d="M25.2,23.12H17.53v-6.4h23.9v6.4H33.76V44.2H25.2Z"/><path d="M63.15,35.5,53.2,16.72h9l5.11,11.14h.16l5.11-11.14h9l-10,18.78v8.7H63.15Z"/><path d="M94.54,16.72h8.55V44.2H94.54Zm4.29,14h6.69a5.08,5.08,0,0,0,3.32-1,3.65,3.65,0,0,0,1.2-3v0a3.59,3.59,0,0,0-1.2-3,5.07,5.07,0,0,0-3.32-1H98.83V16.72h8.73a13.06,13.06,0,0,1,5.9,1.24,9.1,9.1,0,0,1,3.85,3.48,10,10,0,0,1,1.37,5.3v0a9.87,9.87,0,0,1-1.37,5.27,9,9,0,0,1-3.85,3.44,13.47,13.47,0,0,1-5.9,1.21H98.83Z"/><path d="M138.11,43A12.15,12.15,0,0,1,133,38.05a15.31,15.31,0,0,1-1.79-7.58v0a15.17,15.17,0,0,1,1.8-7.57A12.27,12.27,0,0,1,138.13,18a18.5,18.5,0,0,1,15.6,0,12.15,12.15,0,0,1,5.08,4.91,15.1,15.1,0,0,1,1.79,7.56v0A15.17,15.17,0,0,1,158.81,38,12.15,12.15,0,0,1,153.74,43a18.47,18.47,0,0,1-15.63,0Zm11-5.8a6,6,0,0,0,2.05-2.64,10.29,10.29,0,0,0,.73-4.06v0a10.19,10.19,0,0,0-.74-4.06,5.88,5.88,0,0,0-2.08-2.63,5.78,5.78,0,0,0-6.27,0,5.85,5.85,0,0,0-2.08,2.62,10.25,10.25,0,0,0-.74,4.08v0a10.36,10.36,0,0,0,.74,4.08,5.93,5.93,0,0,0,2.07,2.63,5.33,5.33,0,0,0,3.13.93A5.39,5.39,0,0,0,149.1,37.17Z"/><path d="M172,16.72h8.85l3.35,16.82h.16l4.14-16.82h7l4.14,16.82h.16l3.35-16.82H212L204.46,44.2H196l-3.93-14.8h-.16L188,44.2h-8.48Z"/><path d="M225.05,16.72H245.6v6.4h-12V27.5h11.24v5.94H233.61V37.8h12v6.4H225.05Z"/><path d="M259.85,16.72h8.56V44.2h-8.56Zm4.28,22h7.93a5.24,5.24,0,0,0,3.06-.77,2.57,2.57,0,0,0,1.08-2.22v0a2.61,2.61,0,0,0-.5-1.6,3,3,0,0,0-1.45-1,7.07,7.07,0,0,0-2.37-.34h-7.75V27.84h7.34a4.7,4.7,0,0,0,2.91-.77,2.51,2.51,0,0,0,1-2.1v0a2.33,2.33,0,0,0-.95-2,4.1,4.1,0,0,0-2.58-.73h-7.71V16.72h10a14.27,14.27,0,0,1,5.14.83,7.12,7.12,0,0,1,3.26,2.38,6.17,6.17,0,0,1,1.13,3.72v0a5.41,5.41,0,0,1-.79,2.88,6.13,6.13,0,0,1-2.15,2.08,7.8,7.8,0,0,1-3.06,1v.15a8.06,8.06,0,0,1,3.6.9A7.09,7.09,0,0,1,283.93,33a5.58,5.58,0,0,1,1,3.23v0a7,7,0,0,1-1.27,4.16,8.26,8.26,0,0,1-3.58,2.77,13.64,13.64,0,0,1-5.43,1H264.13Z"/><polygon points="295.16 26.88 298.52 17.4 357.9 17.4 354.54 26.88 295.16 26.88"/><path d="M357.19,17.9l-3,8.48H295.87l3-8.48h58.32m1.42-1H298.17l-3.72,10.48h60.44l3.72-10.48Z" style="fill:#fff"/><polygon points="295.16 47.96 298.52 38.48 357.9 38.48 354.54 47.96 295.16 47.96"/><path d="M357.19,39l-3,8.48H295.87l3-8.48h58.32m1.42-1H298.17l-3.72,10.48h60.44L358.61,38Z" style="fill:#fff"/><polygon points="295.16 69.03 298.52 59.56 357.9 59.56 354.54 69.03 295.16 69.03"/><path d="M357.19,60.06l-3,8.47H295.87l3-8.47h58.32m1.42-1H298.17l-3.72,10.47h60.44l3.72-10.47Z" style="fill:#fff"/><rect x="6.32" y="91.89" width="362.37" height="1014.99"/><rect x="62.96" y="175.04" width="249.13" height="33.67" style="fill:#0f9"/><text transform="translate(62.91 172.36)" style="font-size:37px;fill:#0f9;font-family:GTFlexaTrial-Rg, GT Flexa Trial">FLEXIBILI<tspan x="156.51" y="0" style="letter-spacing:0.00998997043918919em">T</tspan><tspan x="177.45" y="0" style="letter-spacing:-0.03999947212837838em">Y</tspan><tspan x="198.65" y="0" xml:space="preserve"> IS</tspan><tspan style="font-family:GTFlexaTrial-RgIt, GT Flexa Trial;font-style:italic;fill!:#000"><tspan x="0" y="32" xml:space="preserve"> RELIGION</tspan></tspan></text><line y1="85.21" x2="375" y2="85.21" style="fill:none;stroke:#000;stroke-miterlimit:10"/><rect x="35.28" y="253.24" width="304.72" height="239.36" style="fill:#0f9"/><text transform="translate(47.06 353.29)" style="font-size:11px;font-family:GTFlexaTrial-Rg, GT Flexa Trial">Instead <tspan x="40.88" y="0" style="letter-spacing:-0.007990056818181818em">o</tspan><tspan x="47.1" y="0" style="letter-spacing:-0.02800958806818182em">f</tspan><tspan x="51.25" y="0" style="letter-spacing:-0.010964133522727272em"> </tspan><tspan x="53.88" y="0">the</tspan><tspan x="71.17" y="0" style="letter-spacing:-0.011008522727272728em"> </tspan><tspan x="73.8" y="0">traditional</tspan><tspan x="128.42" y="0" style="letter-spacing:-0.011985085227272728em"> </tspan><tspan x="131.04" y="0">vi</tspan><tspan x="139.47" y="0" style="letter-spacing:-0.008966619318181818em">e</tspan><tspan x="145.23" y="0" style="letter-spacing:-0.010031960227272728em">w</tspan><tspan x="153.8" y="0"> </tspan><tspan x="156.55" y="0" style="letter-spacing:-0.007990056818181818em">o</tspan><tspan x="162.77" y="0" style="letter-spacing:-0.027965198863636364em">f</tspan><tspan x="166.92" y="0" xml:space="preserve"> a</tspan><tspan x="175.44" y="0" style="letter-spacing:-0.011008522727272728em"> </tspan><tspan x="178.06" y="0">typ</tspan><tspan x="195.59" y="0" style="letter-spacing:-0.007990056818181818em">e</tspan><tspan x="201.36" y="0" style="letter-spacing:-0.004971590909090909em">f</tspan><tspan x="205.76" y="0">ace as a </tspan><tspan x="0" y="14">collection </tspan><tspan x="52.83" y="14" style="letter-spacing:-0.007990056818181818em">o</tspan><tspan x="59.06" y="14" style="letter-spacing:-0.02800958806818182em">f</tspan><tspan x="63.2" y="14" xml:space="preserve"> st</tspan><tspan x="76.44" y="14" style="letter-spacing:-0.005992542613636364em">a</tspan><tspan x="82.13" y="14">tic style</tspan><tspan x="123.59" y="14" style="letter-spacing:-0.009987571022727272em">s,</tspan><tspan x="131.27" y="14"> </tspan><tspan x="134.02" y="14" style="letter-spacing:-0.025035511363636364em">G</tspan><tspan x="142.21" y="14" style="letter-spacing:-0.019975142045454544em">T</tspan><tspan x="148.11" y="14" xml:space="preserve"> Fl</tspan><tspan x="159.47" y="14" style="letter-spacing:-0.020951704545454544em">e</tspan><tspan x="165.11" y="14" style="letter-spacing:-0.019975142045454544em">x</tspan><tspan x="170.55" y="14">a embraces</tspan><tspan x="228.89" y="14" style="letter-spacing:-0.010919744318181818em"> </tspan><tspan x="231.52" y="14">the idea </tspan><tspan x="0" y="28" style="letter-spacing:-0.007990056818181818em">o</tspan><tspan x="6.23" y="28" style="letter-spacing:-0.02800958806818182em">f</tspan><tspan x="10.37" y="28" xml:space="preserve"> a</tspan><tspan x="18.89" y="28" style="letter-spacing:-0.010964133522727272em"> </tspan><tspan x="21.52" y="28">fluid design spac</tspan><tspan x="106.81" y="28" style="letter-spacing:-0.010031960227272728em">e.</tspan><tspan x="115" y="28" style="letter-spacing:-0.019975142045454544em"> </tspan><tspan x="117.53" y="28" style="letter-spacing:-0.009987571022727272em">A</tspan><tspan x="124.98" y="28">s a dynamic</tspan><tspan x="184.03" y="28" style="letter-spacing:-0.011008522727272728em"> </tspan><tspan x="186.66" y="28">tool</tspan><tspan x="207.22" y="28" style="letter-spacing:-0.009943181818181818em">,</tspan><tspan x="209.67" y="28" xml:space="preserve"> it enables </tspan><tspan x="0" y="42">j</tspan><tspan x="2.99" y="42" style="letter-spacing:-0.007990056818181818em">o</tspan><tspan x="9.22" y="42">y</tspan><tspan x="14.96" y="42" style="letter-spacing:-0.024014559659090908em">f</tspan><tspan x="19.15" y="42" style="letter-spacing:0.00004438920454545455em">ul</tspan><tspan x="28.14" y="42" style="letter-spacing:-0.011008522727272728em"> </tspan><tspan x="30.77" y="42">types</tspan><tspan x="59.5" y="42" style="letter-spacing:-0.007990056818181818em">e</tspan><tspan x="65.27" y="42">tting</tspan><tspan x="90.97" y="42" style="letter-spacing:-0.011008522727272728em"> </tspan><tspan x="93.6" y="42">th</tspan><tspan x="105.03" y="42" style="letter-spacing:-0.005992542613636364em">a</tspan><tspan x="110.72" y="42">t all</tspan><tspan x="129.98" y="42" style="letter-spacing:-0.008966619318181818em">o</tspan><tspan x="136.2" y="42" style="letter-spacing:-0.0029740767045454545em">w</tspan><tspan x="144.84" y="42">s</tspan><tspan x="150.19" y="42" style="letter-spacing:-0.011008522727272728em"> </tspan><tspan x="152.82" y="42" style="letter-spacing:-0.022993607954545456em">f</tspan><tspan x="157.02" y="42">or</tspan><tspan x="168.49" y="42" style="letter-spacing:-0.011008522727272728em"> </tspan><tspan x="171.12" y="42" style="letter-spacing:-0.023970170454545456em">f</tspan><tspan x="175.31" y="42">ull</tspan><tspan x="187.11" y="42" style="letter-spacing:-0.011985085227272728em">y</tspan><tspan x="192.72" y="42" xml:space="preserve"> responsi</tspan><tspan x="239.23" y="42" style="letter-spacing:-0.010031960227272728em">v</tspan><tspan x="244.74" y="42">e </tspan><tspan x="0" y="56">design</tspan><tspan x="33.27" y="56" style="letter-spacing:-0.009987571022727272em">s.</tspan><tspan x="40.95" y="56" xml:space="preserve"> Its cre</tspan><tspan x="76.91" y="56" style="letter-spacing:-0.005992542613636364em">a</tspan><tspan x="82.61" y="56">tor</tspan><tspan x="99.22" y="56" style="letter-spacing:-0.010031960227272728em">s,</tspan><tspan x="106.9" y="56" xml:space="preserve"> Domini</tspan><tspan x="145.15" y="56" style="letter-spacing:-0.009943181818181818em">k</tspan><tspan x="150.83" y="56" xml:space="preserve"> and Marc</tspan><tspan x="201.91" y="56" style="letter-spacing:-0.010031960227272728em">,</tspan><tspan x="204.35" y="56" xml:space="preserve"> spe</tspan><tspan x="224.96" y="56" style="letter-spacing:-0.006036931818181818em">n</tspan><tspan x="231.18" y="56">t si</tspan><tspan x="247.22" y="56" style="letter-spacing:-0.006924715909090909em">x</tspan><tspan x="252.81" y="56"> </tspan><tspan x="0" y="70" style="letter-spacing:-0.011985085227272728em">y</tspan><tspan x="5.61" y="70">ears</tspan><tspan x="27.74" y="70" style="letter-spacing:-0.011008522727272728em"> </tspan><tspan x="30.37" y="70">fine-tuning </tspan><tspan x="90.08" y="70" style="letter-spacing:-0.024991122159090908em">G</tspan><tspan x="98.27" y="70" style="letter-spacing:-0.019975142045454544em">T</tspan><tspan x="104.17" y="70" xml:space="preserve"> Fl</tspan><tspan x="115.53" y="70" style="letter-spacing:-0.02099609375em">e</tspan><tspan x="121.16" y="70" style="letter-spacing:-0.019975142045454544em">x</tspan><tspan x="126.61" y="70">a</tspan><tspan x="132.37" y="70" style="font-family:MyriadPro-Regular, Myriad Pro">’</tspan><tspan x="134.65" y="70">s conce</tspan><tspan x="172.96" y="70" style="letter-spacing:-0.007990056818181818em">p</tspan><tspan x="179.52" y="70">t and characte</tspan><tspan x="254.58" y="70" style="letter-spacing:-0.07998934659090909em">r</tspan><tspan x="258.86" y="70" style="letter-spacing:-0.010031960227272728em">.</tspan><tspan x="261.3" y="70"> </tspan><tspan x="0" y="84">The result is an impressi</tspan><tspan x="123.25" y="84" style="letter-spacing:-0.009987571022727272em">v</tspan><tspan x="128.76" y="84">el</tspan><tspan x="137.43" y="84" style="letter-spacing:-0.012029474431818182em">y</tspan><tspan x="143.04" y="84"> </tspan><tspan x="145.79" y="84" style="letter-spacing:-0.020951704545454544em">e</tspan><tspan x="151.42" y="84">xtensi</tspan><tspan x="182.53" y="84" style="letter-spacing:-0.010031960227272728em">v</tspan><tspan x="188.04" y="84">e</tspan><tspan x="193.9" y="84" style="letter-spacing:-0.010919744318181818em"> </tspan><tspan x="196.53" y="84">typographic </tspan><tspan x="0" y="98" style="letter-spacing:-0.015003551136363636em">s</tspan><tspan x="5.18" y="98" style="letter-spacing:-0.007990056818181818em">y</tspan><tspan x="10.83" y="98">stem</tspan><tspan x="36.5" y="98" style="letter-spacing:-0.009987571022727272em"> </tspan><tspan x="39.14" y="98">with a unique personalit</tspan><tspan x="162.16" y="98" style="letter-spacing:-0.049982244318181816em">y</tspan><tspan x="167.35" y="98" style="letter-spacing:-0.009943181818181818em">.</tspan><tspan x="169.79" y="98" style="letter-spacing:-0.015003551136363636em"> </tspan><tspan x="172.38" y="98" style="letter-spacing:-0.03897372159090909em">W</tspan><tspan x="182.61" y="98">e</tspan><tspan x="188.47" y="98" style="font-family:MyriadPro-Regular, Myriad Pro">’</tspan><tspan x="190.75" y="98">re proud</tspan><tspan x="235.46" y="98" style="letter-spacing:-0.011008522727272728em"> </tspan><tspan x="238.09" y="98">to </tspan><tspan x="0" y="112">publish</tspan><tspan x="36.72" y="112" style="letter-spacing:-0.010964133522727272em"> </tspan><tspan x="39.35" y="112">this beauti</tspan><tspan x="94.07" y="112" style="letter-spacing:-0.023970170454545456em">f</tspan><tspan x="98.26" y="112">ul piece </tspan><tspan x="139.8" y="112" style="letter-spacing:-0.007990056818181818em">o</tspan><tspan x="146.02" y="112" style="letter-spacing:-0.027965198863636364em">f</tspan><tspan x="150.17" y="112" xml:space="preserve"> design and pr</tspan><tspan x="222.2" y="112" style="letter-spacing:-0.011008522727272728em">o</tspan><tspan x="228.39" y="112" style="letter-spacing:-0.010031960227272728em">v</tspan><tspan x="233.9" y="112">e</tspan><tspan x="239.76" y="112" style="letter-spacing:-0.010919744318181818em"> </tspan><tspan x="242.39" y="112">to</tspan><tspan x="253.84" y="112" style="letter-spacing:-0.008078835227272728em"> </tspan><tspan x="256.5" y="112" style="letter-spacing:-0.011985085227272728em">y</tspan><tspan x="262.11" y="112">ou </tspan><tspan x="0" y="126">th</tspan><tspan x="11.43" y="126" style="letter-spacing:-0.005992542613636364em">a</tspan><tspan x="17.13" y="126">t a gr</tspan><tspan x="45.01" y="126" style="letter-spacing:-0.007990056818181818em">o</tspan><tspan x="51.24" y="126">tes</tspan><tspan x="67.58" y="126" style="letter-spacing:-0.009987571022727272em">k</tspan><tspan x="73.26" y="126" style="letter-spacing:-0.011008522727272728em"> </tspan><tspan x="75.89" y="126">typ</tspan><tspan x="93.41" y="126" style="letter-spacing:-0.007990056818181818em">e</tspan><tspan x="99.18" y="126" style="letter-spacing:-0.004971590909090909em">f</tspan><tspan x="103.58" y="126">ace can still be</tspan><tspan x="178.67" y="126" style="letter-spacing:-0.011008522727272728em"> </tspan><tspan x="181.3" y="126" style="letter-spacing:-0.023970170454545456em">f</tspan><tspan x="185.49" y="126">un</tspan><tspan x="197.96" y="126" style="letter-spacing:-0.010031960227272728em">.</tspan></text><text transform="translate(45.9 272.44)" style="font-size:9px;font-family:GTFlexaTrial-ExtMdIt, GT Flexa Trial;font-weight:500;font-style:italic">DESIGNED <tspan x="57.24" y="0" style="letter-spacing:-0.039984809027777776em">B</tspan><tspan x="63.83" y="0" style="letter-spacing:-0.041015625em">Y</tspan><tspan x="70.46" y="0"> </tspan><tspan x="72.95" y="0" style="font-size:10px;font-family:GTFlexaTrial-ExtBd, GT Flexa Trial;font-weight:400;font-style:normal">DOMINI</tspan><tspan x="119.35" y="0" style="font-size:10px;font-family:GTFlexaTrial-ExtBd, GT Flexa Trial;font-weight:400;font-style:normal;letter-spacing:-0.014990234375em">K</tspan><tspan x="127.55" y="0" xml:space="preserve" style="font-size:10px;font-family:GTFlexaTrial-ExtBd, GT Flexa Trial;font-weight:400;font-style:normal"> HUBER </tspan><tspan style="font-size:10px;font-family:GTFlexaTrial-ExtBd, GT Flexa Trial;font-weight:400;font-style:normal"><tspan x="0" y="9">WITH MA</tspan><tspan x="55.2" y="9" style="letter-spacing:-0.006005859375em">R</tspan><tspan x="62.97" y="9">C </tspan><tspan x="74.89" y="9" style="letter-spacing:0.00400390625em">K</tspan><tspan x="83.28" y="9">APPELER</tspan><tspan x="136.03" y="9" style="font-family:GTFlexaTrial-ExtMdIt, GT Flexa Trial;font-weight:500;font-style:italic"> </tspan><tspan x="138.8" y="9" style="font-size:9px;font-family:GTFlexaTrial-ExtMdIt, GT Flexa Trial;font-weight:500;font-style:italic;letter-spacing:-0.008029513888888888em">2</tspan><tspan x="144.83" y="9" style="font-size:9px;font-family:GTFlexaTrial-ExtMdIt, GT Flexa Trial;font-weight:500;font-style:italic">015</tspan><tspan x="163.28" y="9" style="font-size:9px;font-family:GTFlexaTrial-ExtMdIt, GT Flexa Trial;font-weight:500;font-style:italic;letter-spacing:-0.021918402777777776em"> </tspan><tspan x="165.57" y="9" style="font-size:9px;font-family:GTFlexaTrial-ExtMdIt, GT Flexa Trial;font-weight:500;font-style:italic;letter-spacing:-0.015082465277777778em">T</tspan><tspan x="171.9" y="9" style="font-size:9px;font-family:GTFlexaTrial-ExtMdIt, GT Flexa Trial;font-weight:500;font-style:italic">O </tspan></tspan><tspan x="0" y="18" style="letter-spacing:-0.007975260416666666em">2</tspan><tspan x="6.03" y="18">0</tspan><tspan x="13.07" y="18" style="letter-spacing:-0.008029513888888888em">2</tspan><tspan x="19.1" y="18">0</tspan><tspan x="0" y="27">PUBLISHED </tspan><tspan x="61.83" y="27" style="letter-spacing:-0.039984809027777776em">B</tspan><tspan x="68.42" y="27" style="letter-spacing:-0.041015625em">Y</tspan><tspan x="75.05" y="27" xml:space="preserve"> GRILLI</tspan><tspan x="110.82" y="27" style="letter-spacing:-0.02197265625em"> </tspan><tspan x="113.11" y="27" style="letter-spacing:0.011990017361111112em">T</tspan><tspan x="119.68" y="27">YPE IN JU</tspan><tspan x="169.81" y="27" style="letter-spacing:-0.12608506944444445em">L</tspan><tspan x="174.58" y="27" style="letter-spacing:-0.04090711805555555em">Y</tspan><tspan x="181.22" y="27"> </tspan><tspan x="0" y="36" style="letter-spacing:-0.007975260416666666em">2</tspan><tspan x="6.03" y="36">0</tspan><tspan x="13.07" y="36" style="letter-spacing:-0.008029513888888888em">2</tspan><tspan x="19.1" y="36">0</tspan><tspan x="0" y="45" style="letter-spacing:-0.03797743055555555em">F</tspan><tspan x="5.68" y="45">AMI</tspan><tspan x="26.65" y="45" style="letter-spacing:-0.1260308159722222em">L</tspan><tspan x="31.42" y="45" style="letter-spacing:-0.040961371527777776em">Y</tspan><tspan x="38.05" y="45" xml:space="preserve"> OF</tspan><tspan x="55.27" y="45" style="letter-spacing:-0.039008246527777776em"> </tspan><tspan x="57.41" y="45">112 </tspan><tspan x="76.34" y="45" style="letter-spacing:-0.008951822916666666em">S</tspan><tspan x="83.07" y="45" style="letter-spacing:0.011990017361111112em">T</tspan><tspan x="89.64" y="45">YLES</tspan><tspan x="115.64" y="45" style="letter-spacing:-0.023003472222222224em"> </tspan><tspan x="117.93" y="45" style="letter-spacing:-0.05398220486111111em">A</tspan><tspan x="125.18" y="45">C</tspan><tspan x="133.45" y="45" style="letter-spacing:-0.008029513888888888em">R</tspan><tspan x="140.26" y="45">OSS 8 </tspan><tspan x="0" y="54" style="letter-spacing:-0.03797743055555555em">F</tspan><tspan x="5.68" y="54">AMILIES</tspan><tspan x="48.72" y="54" style="letter-spacing:-0.023003472222222224em"> </tspan><tspan x="51" y="54">AND 2</tspan><tspan x="83.28" y="54" style="letter-spacing:-0.023003472222222224em"> </tspan><tspan x="85.56" y="54" style="letter-spacing:-0.04600694444444445em">V</tspan><tspan x="92.43" y="54">ARIABLE FON</tspan><tspan x="162.23" y="54" style="letter-spacing:-0.009006076388888888em">T</tspan><tspan x="168.61" y="54">S</tspan></text><circle cx="292.92" cy="300.46" r="35.02"/><path d="M272.74,307.31a16.77,16.77,0,0,1-.89-5.5,15.41,15.41,0,0,1,.86-5.31c1.83-4.89,6.18-8,11.93-8,6.47,0,11,3.88,11.43,9.45h-4.6c-.47-3.27-3.2-5.28-6.83-5.28a7.69,7.69,0,0,0-7.51,5.28,11.49,11.49,0,0,0-.61,3.81,12,12,0,0,0,.61,4.06,7.25,7.25,0,0,0,7,5A6.49,6.49,0,0,0,291,304.9h-7.22V301H295.2v13.26H291l1-5.57h-.61a8,8,0,0,1-8.16,6.14A11,11,0,0,1,272.74,307.31Z" style="fill:#0f9"/><path d="M303.13,293.26h-7.69v-4.17h19.84v4.17h-7.69v21h-4.46Z" style="fill:#0f9"/><path d="M271.53,306.1a16.78,16.78,0,0,1-.9-5.5,15.5,15.5,0,0,1,.87-5.32c1.83-4.88,6.18-8,11.93-8,6.47,0,11,3.88,11.43,9.45h-4.6c-.47-3.27-3.2-5.28-6.83-5.28a7.68,7.68,0,0,0-7.51,5.28,11.49,11.49,0,0,0-.61,3.81,12.06,12.06,0,0,0,.61,4.06,7.25,7.25,0,0,0,7,5,6.5,6.5,0,0,0,6.83-5.93h-7.22v-3.91H294V313h-4.17l1-5.57h-.61a8,8,0,0,1-8.16,6.14A11,11,0,0,1,271.53,306.1Z" style="fill:#fff"/><path d="M301.92,292.05h-7.69v-4.17h19.84v4.17h-7.69v21h-4.46Z" style="fill:#fff"/><path d="M340,565.94v-.5H34.5v511H166.28v-56.67H340.66V565.94ZM78.09,1075.42H35.5v-55.66H78.09Zm0-56.66H35.5V963.09H78.09Zm0-56.67H35.5V906.43H78.09Zm0-56.66H35.5V849.76H78.09Zm0-56.67H35.5V793.1H78.09Zm0-56.66H35.5V736.43H78.09Zm0-56.67H35.5V679.77H78.09Zm0-56.66H35.5V623.1H78.09Zm0-56.67H35.5V566.44H78.09Zm43.6,453.32H79.09v-55.66h42.6Zm0-56.66H79.09V963.09h42.6Zm0-56.67H79.09V906.43h42.6Zm0-56.66H79.09V849.76h42.6Zm0-56.67H79.09V793.1h42.6Zm0-56.66H79.09V736.43h42.6Zm0-56.67H79.09V679.77h42.6Zm0-56.66H79.09V623.1h42.6Zm0-56.67H79.09V566.44h42.6Zm43.59,453.32H122.69v-55.66h42.59Zm0-56.66H122.69V963.09h42.59Zm0-56.67H122.69V906.43h42.59Zm0-56.66H122.69V849.76h42.59Zm0-56.67H122.69V793.1h42.59Zm0-56.66H122.69V736.43h42.59Zm0-56.67H122.69V679.77h42.59Zm0-56.66H122.69V623.1h42.59Zm0-56.67H122.69V566.44h42.59Zm43.59,396.66H166.28V963.09h42.59Zm0-56.67H166.28V906.43h42.59Zm0-56.66H166.28V849.76h42.59Zm0-56.67H166.28V793.1h42.59Zm0-56.66H166.28V736.43h42.59Zm0-56.67H166.28V679.77h42.59Zm0-56.66H166.28V623.1h42.59Zm0-56.67H166.28V566.44h42.59Zm43.6,396.66h-42.6V963.09h42.6Zm0-56.67h-42.6V906.43h42.6Zm0-56.66h-42.6V849.76h42.6Zm0-56.67h-42.6V793.1h42.6Zm0-56.66h-42.6V736.43h42.6Zm0-56.67h-42.6V679.77h42.6Zm0-56.66h-42.6V623.1h42.6Zm0-56.67h-42.6V566.44h42.6Zm43.59,396.66H253.47V963.09h42.59Zm0-56.67H253.47V906.43h42.59Zm0-56.66H253.47V849.76h42.59Zm0-56.67H253.47V793.1h42.59Zm0-56.66H253.47V736.43h42.59Zm0-56.67H253.47V679.77h42.59Zm0-56.66H253.47V623.1h42.59Zm0-56.67H253.47V566.44h42.59Zm43.6,396.66h-42.6V963.09h42.6Zm0-56.67h-42.6V906.43h42.6Zm0-56.66h-42.6V849.76h42.6Zm0-56.67h-42.6V793.1h42.6Zm0-56.66h-42.6V736.43h42.6Zm0-56.67h-42.6V679.77h42.6Zm0-56.66h-42.6V623.1h42.6Zm0-56.67h-42.6V566.44h42.6Z" style="fill:#fff"/><text transform="translate(35 550.46)" style="font-size:37px;fill:#0f9;font-family:GTFlexaTrial-ExtRgIt, GT Flexa Trial;font-style:italic"><tspan style="letter-spacing:0.00998997043918919em">T</tspan><tspan x="25.97" y="0">YPE</tspan><tspan x="105.23" y="0" style="letter-spacing:-0.046993771114864864em">F</tspan><tspan x="127.68" y="0" style="letter-spacing:-0.055993982263513514em">A</tspan><tspan x="156.17" y="0" style="letter-spacing:-0.000013196790540540541em">CE </tspan><tspan x="226.18" y="0" style="font-family:MyriadPro-Regular, Myriad Pro;font-style:normal">:</tspan></text><text transform="translate(35 2004.72)" style="font-size:37px;font-family:GTFlexaTrial-ExtRgIt, GT Flexa Trial;font-style:italic"><tspan style="letter-spacing:0.00998997043918919em">T</tspan><tspan x="25.97" y="0">YPETE</tspan><tspan x="156.28" y="0" style="letter-spacing:-0.011995882601351354em">S</tspan><tspan x="183.7" y="0">TER </tspan><tspan x="272.87" y="0" style="font-family:MyriadPro-Regular, Myriad Pro;font-style:normal">:</tspan></text><text transform="translate(48.12 591.87)" style="font-size:26px;fill:#0f9;font-family:GTFlexaTrial-Rg, GT Flexa Trial"><tspan style="letter-spacing:-0.019981971153846152em">A</tspan><tspan x="1.86" y="23">a</tspan></text><text transform="translate(92.43 591.87)" style="font-size:26px;fill:#0f9;font-family:GTFlexaTrial-Rg, GT Flexa Trial">B<tspan x="0.1" y="23">b</tspan></text><text transform="translate(134.1 591.87)" style="font-size:26px;fill:#0f9;font-family:GTFlexaTrial-Rg, GT Flexa Trial">C<tspan x="2.94" y="23">c</tspan></text><text transform="translate(178.15 591.87)" style="font-size:26px;fill:#0f9;font-family:GTFlexaTrial-Rg, GT Flexa Trial">D<tspan x="1.57" y="23">d</tspan></text><text transform="translate(223.92 591.87)" style="font-size:26px;fill:#0f9;font-family:GTFlexaTrial-Rg, GT Flexa Trial">E<tspan x="0.33" y="23">e</tspan></text><text transform="translate(267.9 591.87)" style="font-size:26px;fill:#0f9;font-family:GTFlexaTrial-Rg, GT Flexa Trial">F<tspan style="letter-spacing:-0.028001051682692308em"><tspan x="1.96" y="23">f</tspan></tspan></text><text transform="translate(308.35 591.87)" style="font-size:26px;fill:#0f9;font-family:GTFlexaTrial-Rg, GT Flexa Trial">G<tspan x="2.53" y="23">g</tspan></text><text transform="translate(47.4 648.54)" style="font-size:26px;fill:#0f9;font-family:GTFlexaTrial-Rg, GT Flexa Trial">H<tspan x="1.96" y="23">h</tspan></text><text transform="translate(96.75 648.54)" style="font-size:26px;fill:#0f9;font-family:GTFlexaTrial-Rg, GT Flexa Trial">I<tspan x="0.33" y="23">i</tspan></text><text transform="translate(136.83 648.54)" style="font-size:26px;fill:#0f9;font-family:GTFlexaTrial-Rg, GT Flexa Trial">J<tspan x="3.61" y="23">j</tspan></text><text transform="translate(179.39 648.54)" style="font-size:26px;fill:#0f9;font-family:GTFlexaTrial-Rg, GT Flexa Trial;letter-spacing:-0.009990985576923076em">K<tspan x="1.48" y="23">k</tspan></text><text transform="translate(224.37 648.54)" style="font-size:26px;fill:#0f9;font-family:GTFlexaTrial-Rg, GT Flexa Trial">L<tspan x="3.48" y="23">l</tspan></text><text transform="translate(262.85 648.54)" style="font-size:26px;fill:#0f9;font-family:GTFlexaTrial-Rg, GT Flexa Trial">M<tspan x="0.91" y="23">m</tspan></text><text transform="translate(308.96 648.54)" style="font-size:26px;fill:#0f9;font-family:GTFlexaTrial-Rg, GT Flexa Trial">N<tspan x="1.96" y="23">n</tspan></text><text transform="translate(46.4 705.2)" style="font-size:26px;fill:#0f9;font-family:GTFlexaTrial-Rg, GT Flexa Trial">O<tspan x="2.94" y="23">o</tspan></text><text transform="translate(92.97 705.2)" style="font-size:26px;fill:#0f9;font-family:GTFlexaTrial-Rg, GT Flexa Trial"><tspan style="letter-spacing:-0.019981971153846152em">P</tspan><tspan x="-0.43" y="23">p</tspan></text><text transform="translate(133.58 705.2)" style="font-size:26px;fill:#0f9;font-family:GTFlexaTrial-Rg, GT Flexa Trial">Q<tspan x="2.55" y="23">q</tspan></text><text transform="translate(179.71 705.2)" style="font-size:26px;fill:#0f9;font-family:GTFlexaTrial-Rg, GT Flexa Trial">R<tspan x="1.77" y="23">r</tspan></text><text transform="translate(223.14 705.2)" style="font-size:26px;fill:#0f9;font-family:GTFlexaTrial-Rg, GT Flexa Trial">S<tspan x="1.72" y="23">s</tspan></text><text transform="translate(267.8 705.2)" style="font-size:26px;fill:#0f9;font-family:GTFlexaTrial-Rg, GT Flexa Trial"><tspan style="letter-spacing:-0.019981971153846152em">T</tspan><tspan x="0.9" y="23">t</tspan></text><text transform="translate(309.31 705.2)" style="font-size:26px;fill:#0f9;font-family:GTFlexaTrial-Rg, GT Flexa Trial">U<tspan x="1.74" y="23">u</tspan></text><text transform="translate(48.77 761.87)" style="font-size:26px;fill:#0f9;font-family:GTFlexaTrial-Rg, GT Flexa Trial;letter-spacing:-0.019981971153846152em">V<tspan style="letter-spacing:-0.012000450721153846em"><tspan x="1.53" y="23">v</tspan></tspan></text><text transform="translate(87.99 761.87)" style="font-size:26px;fill:#0f9;font-family:GTFlexaTrial-Rg, GT Flexa Trial;letter-spacing:-0.015005258413461538em">W<tspan style="letter-spacing:-0.009990985576923076em"><tspan x="2.28" y="23">w</tspan></tspan></text><text transform="translate(135.98 761.87)" style="font-size:26px;fill:#0f9;font-family:GTFlexaTrial-Rg, GT Flexa Trial;letter-spacing:-0.029991736778846152em">X<tspan style="letter-spacing:-0.006986177884615385em"><tspan x="1.4" y="23">x</tspan></tspan></text><text transform="translate(180.13 761.87)" style="font-size:26px;fill:#0f9;font-family:GTFlexaTrial-Rg, GT Flexa Trial;letter-spacing:-0.04000150240384615em">Y<tspan style="letter-spacing:-0.012000450721153846em"><tspan x="0.82" y="23">y</tspan></tspan></text><text transform="translate(223.48 761.87)" style="font-size:26px;fill:#0f9;font-family:GTFlexaTrial-Rg, GT Flexa Trial"><tspan style="letter-spacing:-0.009990985576923076em">Z</tspan><tspan x="1.33" y="23">z</tspan></text><text transform="translate(266.09 761.87)" style="font-size:26px;fill:#0f9;font-family:GTFlexaTrial-Rg, GT Flexa Trial"><tspan style="letter-spacing:-0.019981971153846152em">Á</tspan><tspan x="1.86" y="23">á</tspan></text><text transform="translate(309.69 761.87)" style="font-size:26px;fill:#0f9;font-family:GTFlexaTrial-Rg, GT Flexa Trial"><tspan style="letter-spacing:-0.019981971153846152em">Ă</tspan><tspan x="1.86" y="23">ă</tspan></text><text transform="translate(48.12 818.54)" style="font-size:26px;fill:#0f9;font-family:GTFlexaTrial-Rg, GT Flexa Trial"><tspan style="letter-spacing:-0.019981971153846152em">Â</tspan><tspan x="1.86" y="23">â</tspan></text><text transform="translate(91.72 818.54)" style="font-size:26px;fill:#0f9;font-family:GTFlexaTrial-Rg, GT Flexa Trial"><tspan style="letter-spacing:-0.019981971153846152em">Ä</tspan><tspan x="1.86" y="23">ä</tspan></text><text transform="translate(132.71 818.54)" style="font-size:26px;fill:#0f9;font-family:GTFlexaTrial-Rg, GT Flexa Trial">Æ<tspan x="0.43" y="23">æ</tspan></text><text transform="translate(176.31 818.54)" style="font-size:26px;fill:#0f9;font-family:GTFlexaTrial-Rg, GT Flexa Trial">Ǽ<tspan x="0.43" y="23">ǽ</tspan></text><text transform="translate(222.5 818.54)" style="font-size:26px;fill:#0f9;font-family:GTFlexaTrial-Rg, GT Flexa Trial"><tspan style="letter-spacing:-0.019981971153846152em">À</tspan><tspan x="1.86" y="23">à</tspan></text><text transform="translate(266.09 818.54)" style="font-size:26px;fill:#0f9;font-family:GTFlexaTrial-Rg, GT Flexa Trial"><tspan style="letter-spacing:-0.019981971153846152em">Ā</tspan><tspan x="1.86" y="23">ā</tspan></text><text transform="translate(309.69 818.54)" style="font-size:26px;fill:#0f9;font-family:GTFlexaTrial-Rg, GT Flexa Trial"><tspan style="letter-spacing:-0.019981971153846152em">Ą</tspan><tspan x="1.86" y="23">ą</tspan></text><text transform="translate(48.12 875.2)" style="font-size:26px;fill:#0f9;font-family:GTFlexaTrial-Rg, GT Flexa Trial"><tspan style="letter-spacing:-0.019981971153846152em">Å</tspan><tspan x="1.86" y="23">å</tspan></text><text transform="translate(91.72 875.2)" style="font-size:26px;fill:#0f9;font-family:GTFlexaTrial-Rg, GT Flexa Trial"><tspan style="letter-spacing:-0.019981971153846152em">Ã</tspan><tspan x="1.86" y="23">ã</tspan></text><text transform="translate(134.1 875.2)" style="font-size:26px;fill:#0f9;font-family:GTFlexaTrial-Rg, GT Flexa Trial">Ć<tspan x="2.94" y="23">ć</tspan></text><text transform="translate(177.7 875.2)" style="font-size:26px;fill:#0f9;font-family:GTFlexaTrial-Rg, GT Flexa Trial">Č<tspan x="2.94" y="23">č</tspan></text><text transform="translate(221.29 875.2)" style="font-size:26px;fill:#0f9;font-family:GTFlexaTrial-Rg, GT Flexa Trial">Ç<tspan x="2.94" y="23">ç</tspan></text><text transform="translate(264.89 875.2)" style="font-size:26px;fill:#0f9;font-family:GTFlexaTrial-Rg, GT Flexa Trial">Ĉ<tspan x="2.94" y="23">ĉ</tspan></text><text transform="translate(308.48 875.2)" style="font-size:26px;fill:#0f9;font-family:GTFlexaTrial-Rg, GT Flexa Trial">Ċ<tspan x="2.94" y="23">ċ</tspan></text><text transform="translate(45.33 931.87)" style="font-size:26px;fill:#0f9;font-family:GTFlexaTrial-Rg, GT Flexa Trial">Œ<tspan x="-0.09" y="23">œ</tspan></text><text transform="translate(89.99 931.87)" style="font-size:26px;fill:#0f9;font-family:GTFlexaTrial-Rg, GT Flexa Trial">Ø<tspan x="2.94" y="23">ø</tspan></text><text transform="translate(136.04 931.87)" style="font-size:26px;fill:#0f9;font-family:GTFlexaTrial-Rg, GT Flexa Trial">Þ<tspan x="0.09" y="23">þ</tspan></text><text transform="translate(184.69 943.37)" style="font-size:26px;fill:#0f9;font-family:GTFlexaTrial-Rg, GT Flexa Trial;letter-spacing:-0.009990985576923076em">,</text><text transform="translate(228.29 943.37)" style="font-size:26px;fill:#0f9;font-family:GTFlexaTrial-Rg, GT Flexa Trial;letter-spacing:-0.009990985576923076em">.</text><text transform="translate(269.44 943.37)" style="font-size:26px;fill:#0f9;font-family:GTFlexaTrial-Rg, GT Flexa Trial">-</text><text transform="translate(310.04 943.37)" style="font-size:26px;fill:#0f9;font-family:GTFlexaTrial-Rg, GT Flexa Trial">0</text><text transform="translate(51.14 1000.03)" style="font-size:26px;fill:#0f9;font-family:GTFlexaTrial-Rg, GT Flexa Trial">1</text><text transform="translate(93.36 1000.03)" style="font-size:26px;fill:#0f9;font-family:GTFlexaTrial-Rg, GT Flexa Trial">2</text><text transform="translate(136.89 1000.03)" style="font-size:26px;fill:#0f9;font-family:GTFlexaTrial-Rg, GT Flexa Trial">3</text><text transform="translate(180.01 1000.03)" style="font-size:26px;fill:#0f9;font-family:GTFlexaTrial-Rg, GT Flexa Trial">4</text><text transform="translate(224.06 1000.03)" style="font-size:26px;fill:#0f9;font-family:GTFlexaTrial-Rg, GT Flexa Trial">5</text><text transform="translate(267.27 1000.03)" style="font-size:26px;fill:#0f9;font-family:GTFlexaTrial-Rg, GT Flexa Trial">6</text><text transform="translate(312.09 1000.03)" style="font-size:26px;fill:#0f9;font-family:GTFlexaTrial-Rg, GT Flexa Trial;letter-spacing:-0.009990985576923076em">7</text><text transform="translate(49.49 1056.7)" style="font-size:26px;fill:#0f9;font-family:GTFlexaTrial-Rg, GT Flexa Trial">8</text><text transform="translate(92.89 1056.7)" style="font-size:26px;fill:#0f9;font-family:GTFlexaTrial-Rg, GT Flexa Trial">9</text><text transform="translate(134.58 1045.2)" style="font-size:26px;fill:#0f9;font-family:GTFlexaTrial-Rg, GT Flexa Trial">Ħ<tspan x="1.96" y="23">ħ</tspan></text><rect x="166.28" y="1076.42" width="0.48" height="0.08" style="fill:#fff"/><rect x="166.28" y="1076.42" width="0.48" height="0.08" style="fill:#fff"/><rect x="7.32" y="2018.51" width="360.37" height="170.26" style="fill:#fff"/><path d="M366.68,2019.51v168.26H8.32V2019.51H366.68m2-2H6.32v172.26H368.68V2017.51Z"/><path d="M366.68,1964.74v53.58H8.32v-53.58H366.68m2-2H6.32v57.58H368.68v-57.58Z"/><text transform="translate(35.08 1155.07)" style="font-size:37px;font-family:GTFlexaTrial-ExtRgIt, GT Flexa Trial;font-style:italic">WEIGH<tspan x="147.74" y="0" style="letter-spacing:-0.019993137668918918em">T </tspan><tspan x="182.56" y="0">AXIS </tspan><tspan x="292.26" y="0" style="font-family:MyriadPro-Regular, Myriad Pro;font-style:normal">:</tspan></text><path d="M366.76,1115.09v53.58H8.4v-53.58H366.76m2-2H6.4v57.58H368.76v-57.58Z"/><rect x="6.32" y="1178.1" width="362.37" height="357.14"/><text transform="translate(35.08 1231.76)" style="font-size:37px;fill:#fff;font-family:GTFlexaTrial-Lz, GT Flexa Trial"><tspan style="letter-spacing:0.019993137668918918em">L</tspan><tspan x="19.35" y="0">AZER</tspan></text><text transform="translate(35.08 1270.72)" style="font-size:37px;fill:#fff;font-family:GTFlexaTrial-Th, GT Flexa Trial">THIN</text><text transform="translate(35.08 1309.69)" style="font-size:37px;fill:#fff;font-family:GTFlexaTrial-Lt, GT Flexa Trial">LIGH<tspan x="84.21" y="0" style="letter-spacing:-0.019993137668918918em">T</tspan></text><text transform="translate(35.08 1348.66)" style="font-size:37px;fill:#fff;font-family:GTFlexaTrial-Rg, GT Flexa Trial">REGU<tspan x="97.27" y="0" style="letter-spacing:0.015004750844594595em">L</tspan><tspan x="117.18" y="0">AR</tspan></text><text transform="translate(35.08 1387.62)" style="font-size:37px;fill:#fff;font-family:GTFlexaTrial-Md, GT Flexa Trial;font-weight:500">MEDIUM</text><text transform="translate(35.08 1426.59)" style="font-size:37px;fill:#fff;font-family:GTFlexaTrial-Bd, GT Flexa Trial">BOLD</text><text transform="translate(35.08 1465.56)" style="font-size:37px;fill:#fff;font-family:GTFlexaTrial-Bl, GT Flexa Trial">B<tspan x="23.98" y="0" style="letter-spacing:0.00998997043918919em">L</tspan><tspan x="44.62" y="0" style="letter-spacing:-0.02298880912162162em">A</tspan><tspan x="72.11" y="0">C</tspan><tspan x="99.68" y="0" style="letter-spacing:-0.02999630489864865em">K</tspan></text><text transform="translate(35.08 1586.51)" style="font-size:37px;font-family:GTFlexaTrial-ExtRgIt, GT Flexa Trial;font-style:italic">WI<tspan x="55.02" y="0" style="letter-spacing:-0.0599926097972973em">D</tspan><tspan x="84.95" y="0">TH</tspan><tspan x="143.11" y="0" style="letter-spacing:-0.019993137668918918em"> </tspan><tspan x="153.07" y="0" style="letter-spacing:-0.000013196790540540541em">AXIS </tspan><tspan x="262.77" y="0" style="font-family:MyriadPro-Regular, Myriad Pro;font-style:normal">:</tspan></text><path d="M366.76,1546.53v53.58H8.4v-53.58H366.76m2-2H6.4v57.58H368.76v-57.58Z"/><rect x="6.32" y="1609.54" width="362.37" height="346.06"/><text transform="translate(35.08 1663.34)" style="font-size:38px;fill:#fff;font-family:GTFlexaTrial-XCmRg, GT Flexa Trial;letter-spacing:0.2000025699013158em">LAZER</text><text transform="translate(35.08 1702.31)" style="font-size:38px;fill:#fff;font-family:GTFlexaTrial-CmRg, GT Flexa Trial;letter-spacing:0.2000025699013158em">THIN</text><text transform="translate(35.08 1741.28)" style="font-size:38px;fill:#fff;font-family:GTFlexaTrial-CnRg, GT Flexa Trial;letter-spacing:0.07500256990131579em">LIGH<tspan x="84.51" y="0" style="letter-spacing:0.05400647615131579em">T</tspan></text><text transform="translate(35.08 1780.1)" style="font-size:37px;fill:#fff;font-family:GTFlexaTrial-Rg, GT Flexa Trial">REGU<tspan x="97.27" y="0" style="letter-spacing:0.015004750844594595em">L</tspan><tspan x="117.18" y="0">AR</tspan></text><text transform="translate(35.08 1819.06)" style="font-size:37px;fill:#fff;font-family:GTFlexaTrial-ExtRg, GT Flexa Trial">MEDIUM</text><text transform="translate(35.08 1858.03)" style="font-size:37px;fill:#fff;font-family:GTFlexaTrial-ExpRg, GT Flexa Trial">BOLD</text><text transform="translate(35.08 1897)" style="font-size:37px;fill:#fff;font-family:GTFlexaTrial-XExpRg, GT Flexa Trial">B<tspan x="44.18" y="0" style="letter-spacing:0.019993137668918918em">L</tspan><tspan x="81.77" y="0" style="letter-spacing:-0.01900337837837838em">A</tspan><tspan x="127.39" y="0" style="letter-spacing:0.000013196790540540541em">CK</tspan></text><rect x="35.16" y="1485.35" width="304.84" height="27.01" style="fill:#0f9"/><text transform="translate(134.39 1507.61) scale(1.06 1)" style="font-size:25px;font-family:GTFlexaTrial-RgIt, GT Flexa Trial;font-style:italic;letter-spacing:0.1999926405128969em">I<tspan x="12.05" y="0" style="letter-spacing:0.1240050184864378em">T</tspan><tspan x="29.05" y="0" style="letter-spacing:0.2000294919299805em">ALIC</tspan></text><rect x="35.16" y="1907.84" width="304.84" height="27.01" style="fill:#0f9"/><text transform="translate(134.4 1930.1) scale(1.06 1)" style="font-size:25px;font-family:GTFlexaTrial-RgIt, GT Flexa Trial;font-style:italic;letter-spacing:0.1999926405128969em">I<tspan x="12.05" y="0" style="letter-spacing:0.1240050184864378em">T</tspan><tspan x="29.05" y="0" style="letter-spacing:0.2000294919299805em">ALIC</tspan></text><rect x="7.4" y="2188.68" width="120.2" height="44.21" style="fill:#fff"/><path d="M126.59,2189.68v42.21H8.4v-42.21H126.59m2-2H6.4v46.21H128.59v-46.21Z"/><rect x="127.05" y="2188.68" width="120.2" height="44.21" style="fill:#fff"/><path d="M246.25,2189.68v42.21H128.05v-42.21h118.2m2-2H126.05v46.21h122.2v-46.21Z"/><rect x="7.32" y="2232.94" width="360.37" height="44.21" style="fill:#fff"/><path d="M366.68,2233.94v42.21H8.32v-42.21H366.68m2-2H6.32v46.21H368.68v-46.21Z"/><rect x="247.49" y="2188.68" width="120.2" height="44.21" style="fill:#fff"/><path d="M366.68,2189.68v42.21H248.49v-42.21H366.68m2-2H246.49v46.21H368.68v-46.21Z"/><text transform="translate(21.42 2224.45) scale(1.06 1)" style="font-size:40px;font-family:GTFlexaTrial-CmRg, GT Flexa Trial">WI<tspan x="33.4" y="0" style="letter-spacing:-0.029999356719648075em">D</tspan><tspan x="50.92" y="0">TH</tspan></text><text transform="translate(133.05 2224.45) scale(1.06 1)" style="font-size:40px;font-family:GTFlexaTrial-CmRg, GT Flexa Trial">WEIGH<tspan x="86.96" y="0" style="letter-spacing:-0.01999189376787296em">T</tspan></text><text transform="translate(263.91 2224.45) scale(1.06 1)" style="font-size:40px;font-family:GTFlexaTrial-CmRg, GT Flexa Trial">I<tspan x="8.68" y="0" style="letter-spacing:-0.052996944193405164em">T</tspan><tspan x="22.48" y="0">ALIC</tspan></text><rect x="13.24" y="2250.57" width="197.68" height="8.95"/><path d="M209.92,2251.57v6.95H14.24v-6.95H209.92m2-2H12.24v10.95H211.92v-10.95Z"/><rect x="212.92" y="2250.57" width="148.59" height="8.95" style="fill:#fff"/><path d="M360.51,2251.57v6.95H213.92v-6.95H360.51m2-2H211.92v10.95H362.51v-10.95Z"/><rect x="211.92" y="2242.15" width="25.59" height="25.59"/><line x1="-0.35" y1="2286.29" x2="374.65" y2="2286.29" style="fill:none;stroke:#000;stroke-miterlimit:10"/><path d="M366.33,2295.28v66.13H8v-66.13H366.33m2-2H6v70.13H368.33v-70.13Z"/><path d="M57.84,2321H50.17v-6.39h23.9V2321H66.4V2342H57.84Z"/><path d="M95.79,2333.33l-10-18.77h9L100,2325.7h.16l5.11-11.14h9l-10,18.77v8.7H95.79Z"/><path d="M127.18,2314.56h8.56V2342h-8.56Zm4.3,14h6.68a5,5,0,0,0,3.32-1,3.63,3.63,0,0,0,1.2-3v0a3.59,3.59,0,0,0-1.2-3,5.13,5.13,0,0,0-3.32-1h-6.68v-6.07h8.72a13.2,13.2,0,0,1,5.9,1.23,9.21,9.21,0,0,1,3.86,3.49,10.08,10.08,0,0,1,1.36,5.29v0a10,10,0,0,1-1.36,5.28,9,9,0,0,1-3.86,3.43,13.33,13.33,0,0,1-5.9,1.21h-8.72Z"/><path d="M170.76,2340.81a12.08,12.08,0,0,1-5.08-4.93,15.31,15.31,0,0,1-1.79-7.58v0a15.14,15.14,0,0,1,1.8-7.57,12.2,12.2,0,0,1,5.09-4.92,18.47,18.47,0,0,1,15.59,0,12.32,12.32,0,0,1,5.09,4.92,15.2,15.2,0,0,1,1.78,7.56v0a15.24,15.24,0,0,1-1.78,7.57,12.32,12.32,0,0,1-5.08,4.93,18.54,18.54,0,0,1-15.62,0Zm11-5.8a6,6,0,0,0,2-2.65,10.23,10.23,0,0,0,.73-4.06v0a10.24,10.24,0,0,0-.73-4.07,6.07,6.07,0,0,0-2.08-2.63,5.49,5.49,0,0,0-3.16-.92,5.38,5.38,0,0,0-3.12.91,5.9,5.9,0,0,0-2.08,2.62,10.31,10.31,0,0,0-.74,4.09v0a10.29,10.29,0,0,0,.74,4.08,6,6,0,0,0,2.07,2.64,5.4,5.4,0,0,0,3.13.92A5.45,5.45,0,0,0,181.74,2335Z"/><path d="M204.6,2314.56h8.85l3.35,16.81H217l4.14-16.81h7l4.14,16.81h.16l3.35-16.81h8.84L237.1,2342h-8.47l-3.94-14.79h-.16L220.59,2342h-8.48Z"/><path d="M257.69,2314.56h20.55V2321h-12v4.38h11.24v5.94H266.25v4.37h12V2342H257.69Z"/><path d="M292.49,2314.56h8.56V2342h-8.56Zm4.28,22h7.93a5.24,5.24,0,0,0,3.06-.77,2.55,2.55,0,0,0,1.08-2.22v0a2.63,2.63,0,0,0-.5-1.6,3,3,0,0,0-1.45-1,7.05,7.05,0,0,0-2.37-.35h-7.75v-4.85h7.35a4.62,4.62,0,0,0,2.9-.78,2.51,2.51,0,0,0,1-2.1v0a2.32,2.32,0,0,0-.95-2,4.16,4.16,0,0,0-2.58-.72h-7.71v-5.52h10a14.25,14.25,0,0,1,5.14.82,7.19,7.19,0,0,1,3.26,2.38,6.2,6.2,0,0,1,1.13,3.73v0a5.33,5.33,0,0,1-.79,2.88,6,6,0,0,1-2.15,2.08,7.65,7.65,0,0,1-3.06,1v.16a8,8,0,0,1,3.61.89,7.16,7.16,0,0,1,2.63,2.3,5.55,5.55,0,0,1,1,3.22v0a6.93,6.93,0,0,1-1.27,4.16,8.26,8.26,0,0,1-3.58,2.77,13.62,13.62,0,0,1-5.42,1H296.77Z"/><path d="M61.34,2385.49H63v12.68H61.34Z"/><path d="M65.62,2385.49h1.63l8.83,11.94L74,2395.5h.75v-10h1.66v12.68H74.73l-8.83-11.94,2.13,1.93h-.75v10H65.62Z"/><path d="M80.8,2398a4.18,4.18,0,0,1-1.75-1.22,3.32,3.32,0,0,1-.73-1.87v-.13H80l0,.13a2,2,0,0,0,.55,1.09,2.8,2.8,0,0,0,1.19.71,5.22,5.22,0,0,0,1.71.25,4.69,4.69,0,0,0,1.67-.26,2.46,2.46,0,0,0,1.1-.74,1.79,1.79,0,0,0,.38-1.13h0a1.64,1.64,0,0,0-.61-1.34,4.81,4.81,0,0,0-2-.79l-1.5-.31a6.07,6.07,0,0,1-2.91-1.27,2.88,2.88,0,0,1-.94-2.24h0a3,3,0,0,1,.61-1.84,4,4,0,0,1,1.68-1.25,6.21,6.21,0,0,1,2.44-.45,6,6,0,0,1,2.35.44,4.1,4.1,0,0,1,1.65,1.24,3.27,3.27,0,0,1,.7,1.82v.14H86.41l0-.13a2.19,2.19,0,0,0-.5-1.1,2.64,2.64,0,0,0-1-.71,4.31,4.31,0,0,0-1.51-.24,4.4,4.4,0,0,0-1.56.25,2.44,2.44,0,0,0-1,.71,1.67,1.67,0,0,0-.37,1.08h0a1.56,1.56,0,0,0,.63,1.28,4.62,4.62,0,0,0,1.93.77l1.49.31a6.48,6.48,0,0,1,3,1.27,3,3,0,0,1,.92,2.29h0a3.23,3.23,0,0,1-.6,1.95,3.78,3.78,0,0,1-1.72,1.27,7,7,0,0,1-2.65.45A7.19,7.19,0,0,1,80.8,2398Z"/><path d="M93.31,2386.91H89.07v-1.42H99.23v1.42H95v11.26H93.31Z"/><path d="M103.07,2385.49h1.24v1.9h-.43l-4.06,10.78H98.06Zm-2.16,7.71h6l.56,1.34h-7.09Zm3-5.81v-1.9h.81l5,12.68H108Z"/><path d="M113.26,2397.57a5.54,5.54,0,0,1-2.14-2.3,7.57,7.57,0,0,1-.76-3.51h0a7.26,7.26,0,0,1,.76-3.43,5.47,5.47,0,0,1,2.14-2.25,7.2,7.2,0,0,1,5.94-.28,5.14,5.14,0,0,1,1.86,1.4,5.34,5.34,0,0,1,1,2l0,.16h-1.76l0-.09a3.89,3.89,0,0,0-1.44-1.87,4.12,4.12,0,0,0-2.38-.66,4.55,4.55,0,0,0-2.38.6,4,4,0,0,0-1.53,1.72,6.18,6.18,0,0,0-.54,2.69h0a6.31,6.31,0,0,0,.55,2.75,4.09,4.09,0,0,0,1.53,1.79,4.36,4.36,0,0,0,2.37.62,4.7,4.7,0,0,0,2.1-.45,3.42,3.42,0,0,0,1.42-1.26,3.51,3.51,0,0,0,.5-1.87v-.23h-3.79v-1.39h5.47v1.2a6,6,0,0,1-.68,2.94,4.52,4.52,0,0,1-2,1.87,6.72,6.72,0,0,1-3.07.65A6.36,6.36,0,0,1,113.26,2397.57Z"/><path d="M124.36,2385.49h5a5.12,5.12,0,0,1,2.26.47,3.51,3.51,0,0,1,1.5,1.32,3.7,3.7,0,0,1,.53,2v0a3.73,3.73,0,0,1-.72,2.28,3.78,3.78,0,0,1-2,1.34l3.11,5.26h-2l-2.88-5H126v5h-1.68Zm4.89,6.26a2.89,2.89,0,0,0,2-.63,2.29,2.29,0,0,0,.71-1.8v0a2.24,2.24,0,0,0-.74-1.77,3.07,3.07,0,0,0-2-.63H126v4.85Z"/><path d="M139.73,2385.49H141v1.9h-.43l-4.06,10.78h-1.76Zm-2.16,7.71h6l.56,1.34H137Zm3-5.81v-1.9h.81l5,12.68h-1.76Z"/><path d="M147.92,2385.49h1.93l4.66,10.69h.06l4.66-10.69h1.93v12.68H159.6v-9.8h-.77l1.82-2.53-5.4,12.33h-1.42l-5.4-12.33,1.81,2.53h-.76v9.8h-1.56Z"/><path d="M217.34,2385.49h8.17v1.42H219v4.36h6v1.41h-6v5.49h-1.68Z"/><path d="M230.42,2385.49h1.24v1.9h-.43l-4.06,10.78h-1.76Zm-2.16,7.71h6l.56,1.34h-7.08Zm3-5.81v-1.9h.81l5,12.68h-1.76Z"/><path d="M240.6,2397.57a5.54,5.54,0,0,1-2.14-2.28,7.55,7.55,0,0,1-.75-3.47h0a7.55,7.55,0,0,1,.75-3.47,5.58,5.58,0,0,1,2.14-2.27,6.39,6.39,0,0,1,3.25-.8,6.16,6.16,0,0,1,2.54.5,5.14,5.14,0,0,1,1.92,1.4,4.59,4.59,0,0,1,1,2.1l0,.08h-1.7l-.06-.19a3.57,3.57,0,0,0-.78-1.31,3.51,3.51,0,0,0-1.26-.83,4.56,4.56,0,0,0-1.7-.29,4.34,4.34,0,0,0-2.33.62,4.1,4.1,0,0,0-1.54,1.77,6.24,6.24,0,0,0-.55,2.69h0a6.24,6.24,0,0,0,.55,2.69,4.19,4.19,0,0,0,1.54,1.78,4.28,4.28,0,0,0,2.33.63,4.42,4.42,0,0,0,1.68-.29,3.38,3.38,0,0,0,1.27-.85,3.78,3.78,0,0,0,.82-1.41l0-.07h1.7l0,.08a4.72,4.72,0,0,1-1,2.12,5.08,5.08,0,0,1-1.91,1.39,6.91,6.91,0,0,1-5.8-.32Z"/><path d="M251.32,2385.49h8.33v1.42H253V2391h6.31v1.41H253v4.36h6.65v1.42h-8.33Z"/><path d="M261.86,2385.49h1.68v12.68h-1.68Zm.84,11.28h4a4,4,0,0,0,2.3-.56,1.91,1.91,0,0,0,.79-1.66v0a2,2,0,0,0-.37-1.23,2.18,2.18,0,0,0-1.08-.74,5.74,5.74,0,0,0-1.79-.24H262.7V2391h3.35a4,4,0,0,0,2.28-.55,1.81,1.81,0,0,0,.79-1.57v0a1.67,1.67,0,0,0-.67-1.44,3.07,3.07,0,0,0-1.88-.49H262.7v-1.4H267a4.93,4.93,0,0,1,2,.39,3.37,3.37,0,0,1,1.35,1.11,2.92,2.92,0,0,1,.48,1.66v0a2.57,2.57,0,0,1-.32,1.26,3.06,3.06,0,0,1-.86,1,2.66,2.66,0,0,1-1.25.51v0a4.06,4.06,0,0,1,1.67.53,2.94,2.94,0,0,1,1.07,1.09,3,3,0,0,1,.37,1.5v0a3.3,3.3,0,0,1-.54,1.91,3.49,3.49,0,0,1-1.56,1.22,6.24,6.24,0,0,1-2.45.43H262.7Z"/><path d="M275.77,2397.58a5.42,5.42,0,0,1-2.15-2.27,7.51,7.51,0,0,1-.75-3.48h0a7.44,7.44,0,0,1,.76-3.48,5.39,5.39,0,0,1,2.15-2.26,6.45,6.45,0,0,1,3.3-.8,6.38,6.38,0,0,1,3.28.8,5.39,5.39,0,0,1,2.15,2.26,7.57,7.57,0,0,1,.75,3.48h0a7.51,7.51,0,0,1-.75,3.48,5.46,5.46,0,0,1-2.14,2.27,6.39,6.39,0,0,1-3.29.8A6.47,6.47,0,0,1,275.77,2397.58Zm5.69-1.29a4,4,0,0,0,1.55-1.77,6.21,6.21,0,0,0,.54-2.69h0a6.11,6.11,0,0,0-.55-2.7,4,4,0,0,0-1.55-1.76,4.36,4.36,0,0,0-2.37-.62,4.43,4.43,0,0,0-2.39.62,4.15,4.15,0,0,0-1.56,1.75,6.27,6.27,0,0,0-.55,2.71h0a6.25,6.25,0,0,0,.55,2.7,4.21,4.21,0,0,0,1.56,1.77,4.41,4.41,0,0,0,2.39.62A4.36,4.36,0,0,0,281.46,2396.29Z"/><path d="M289.73,2397.58a5.36,5.36,0,0,1-2.15-2.27,7.51,7.51,0,0,1-.75-3.48h0a7.44,7.44,0,0,1,.76-3.48,5.33,5.33,0,0,1,2.15-2.26,7.17,7.17,0,0,1,6.58,0,5.31,5.31,0,0,1,2.14,2.26,7.44,7.44,0,0,1,.76,3.48h0a7.39,7.39,0,0,1-.76,3.48,5.34,5.34,0,0,1-2.14,2.27,7.19,7.19,0,0,1-6.59,0Zm5.69-1.29a4,4,0,0,0,1.54-1.77,6.21,6.21,0,0,0,.54-2.69h0a6.25,6.25,0,0,0-.54-2.7,4.1,4.1,0,0,0-1.55-1.76,4.88,4.88,0,0,0-4.76,0,4.15,4.15,0,0,0-1.56,1.75,6.12,6.12,0,0,0-.55,2.71h0a6.11,6.11,0,0,0,.55,2.7,4.21,4.21,0,0,0,1.56,1.77,4.86,4.86,0,0,0,4.77,0Z"/><path d="M301.3,2385.49H303v12.68H301.3Zm1.54,6.22h.2l5.7-6.22h2.1l-5.34,5.72h-.09l-2.57,2.67Zm1.48.41,1.19-1.12,5.83,7.17H309.2Z"/><path d="M91.42,2413.06h1.94L98,2423.75h0l4.66-10.69h1.94v12.68H103.1V2416h-.76l1.82-2.54-5.41,12.33H97.34l-5.41-12.33,1.82,2.54H93v9.79H91.42Z"/><path d="M111.21,2413.06h1.24v1.9H112l-4,10.78h-1.76Zm-2.15,7.71h6l.56,1.35H108.5Zm3-5.81v-1.9h.81l5,12.68H116.1Z"/><path d="M119.4,2413.06h1.67v12.68H119.4Z"/><path d="M123.68,2413.06h1.68v11.26h6.48v1.42h-8.16Z"/><path d="M43.55,2452.73a3.56,3.56,0,0,1-.32,1.49,3.68,3.68,0,0,1-.85,1.21,3.92,3.92,0,0,1-1.29.81,4.08,4.08,0,0,1-1.58.3h0a4.12,4.12,0,0,1-1.58-.3,3.92,3.92,0,0,1-1.29-.81,3.68,3.68,0,0,1-.85-1.21,3.56,3.56,0,0,1-.32-1.49v0a3.53,3.53,0,0,1,.32-1.49,3.58,3.58,0,0,1,.85-1.21,3.92,3.92,0,0,1,1.29-.81,4.12,4.12,0,0,1,1.58-.3h0a4.08,4.08,0,0,1,1.58.3,3.92,3.92,0,0,1,1.29.81,3.58,3.58,0,0,1,.85,1.21,3.53,3.53,0,0,1,.32,1.49Zm-.91-1.3a3.27,3.27,0,0,0-.72-1,3.54,3.54,0,0,0-1.08-.68,3.61,3.61,0,0,0-1.33-.24h0a3.61,3.61,0,0,0-1.33.24,3.54,3.54,0,0,0-1.08.68,3.27,3.27,0,0,0-.72,1,3,3,0,0,0-.26,1.26v0a3,3,0,0,0,.26,1.26,3.12,3.12,0,0,0,.72,1,3.38,3.38,0,0,0,1.08.69,3.61,3.61,0,0,0,1.33.24h0a3.61,3.61,0,0,0,1.33-.24,3.38,3.38,0,0,0,1.08-.69,3.12,3.12,0,0,0,.72-1,3,3,0,0,0,.26-1.26v0A3,3,0,0,0,42.64,2451.43Zm-4.33,2.51a1.64,1.64,0,0,1-.46-1.23h0a1.64,1.64,0,0,1,.46-1.23,2,2,0,0,1,2-.29,1.41,1.41,0,0,1,.55.44,1.16,1.16,0,0,1,.24.62v0h-.7v0a.73.73,0,0,0-.29-.42.94.94,0,0,0-.57-.17,1,1,0,0,0-.71.28,1.26,1.26,0,0,0,0,1.56.92.92,0,0,0,.71.28.89.89,0,0,0,.56-.16.73.73,0,0,0,.3-.44v0h.7v0a1.22,1.22,0,0,1-.24.63,1.47,1.47,0,0,1-.55.43,2,2,0,0,1-2-.29Z"/><path d="M44.7,2449.19h4.54v.79h-3.6v2.42h3.3v.78h-3.3v3.05H44.7Z"/><path d="M50.3,2449.19h2.8a2.71,2.71,0,0,1,1.25.26,2,2,0,0,1,.84.73,2.08,2.08,0,0,1,.29,1.11h0a2,2,0,0,1-.4,1.26,2.06,2.06,0,0,1-1.1.75l1.73,2.92H54.62l-1.6-2.79H51.23v2.79H50.3Zm2.72,3.48a1.62,1.62,0,0,0,1.11-.35,1.3,1.3,0,0,0,.39-1h0a1.26,1.26,0,0,0-.41-1A1.72,1.72,0,0,0,53,2450H51.23v2.7Z"/><path d="M58.83,2449.19h.69v1h-.24l-2.25,6h-1Zm-1.19,4.28H61l.31.75H57.33Zm1.67-3.23v-1h.45l2.77,7h-1Z"/><path d="M63.38,2449.19h.91l4.9,6.63L68,2454.75h.42v-5.56h.92v7h-.91l-4.9-6.63,1.18,1.07h-.41v5.56h-.93Z"/><path d="M72.11,2455.9a3,3,0,0,1-1.18-1.27,4.12,4.12,0,0,1-.42-1.92h0a4.12,4.12,0,0,1,.42-1.92,2.88,2.88,0,0,1,1.18-1.26,3.5,3.5,0,0,1,1.81-.45,3.41,3.41,0,0,1,1.41.28,2.85,2.85,0,0,1,1.06.77,2.57,2.57,0,0,1,.57,1.17v.05H76l0-.11a1.91,1.91,0,0,0-.43-.73,2,2,0,0,0-.7-.46,2.54,2.54,0,0,0-.94-.16,2.41,2.41,0,0,0-1.3.35,2.26,2.26,0,0,0-.85,1,3.31,3.31,0,0,0-.31,1.49h0a3.33,3.33,0,0,0,.31,1.49,2.35,2.35,0,0,0,.85,1,2.41,2.41,0,0,0,1.3.35,2.66,2.66,0,0,0,.93-.16,1.94,1.94,0,0,0,.71-.48,2.13,2.13,0,0,0,.45-.78l0,0H77v.05a2.55,2.55,0,0,1-.56,1.17,2.91,2.91,0,0,1-1.07.78,3.84,3.84,0,0,1-3.22-.18Zm1.31,2.52a1.1,1.1,0,0,1-.33-.09v-.53l.24.06.33,0a1,1,0,0,0,.36-.06.24.24,0,0,0,.16-.24h0a.27.27,0,0,0-.16-.26.89.89,0,0,0-.45-.09h-.24v-.43l.47-.65h.57v.09l-.33.46a1.17,1.17,0,0,1,.67.24.77.77,0,0,1,.26.63h0a.72.72,0,0,1-.16.49,1,1,0,0,1-.4.3,1.41,1.41,0,0,1-.54.11A2.15,2.15,0,0,1,73.42,2458.42Z"/><path d="M79.39,2455.9a2.93,2.93,0,0,1-1.19-1.25,4.2,4.2,0,0,1-.42-1.94h0a4.16,4.16,0,0,1,.42-1.93,3,3,0,0,1,1.2-1.26,4,4,0,0,1,3.65,0,3,3,0,0,1,1.19,1.26,4.16,4.16,0,0,1,.42,1.93h0a4.2,4.2,0,0,1-.42,1.94,2.93,2.93,0,0,1-1.19,1.25,3.53,3.53,0,0,1-1.82.45A3.61,3.61,0,0,1,79.39,2455.9Zm3.16-.71a2.29,2.29,0,0,0,.86-1,3.52,3.52,0,0,0,.3-1.5h0a3.52,3.52,0,0,0-.3-1.5,2.31,2.31,0,0,0-.87-1,2.44,2.44,0,0,0-1.31-.34,2.51,2.51,0,0,0-1.33.34,2.29,2.29,0,0,0-.86,1,3.32,3.32,0,0,0-.31,1.5h0a3.32,3.32,0,0,0,.31,1.5,2.29,2.29,0,0,0,.86,1,2.68,2.68,0,0,0,2.65,0Z"/><path d="M85.82,2449.19h.93v7h-.93Z"/><path d="M89.22,2456.11a2.28,2.28,0,0,1-1-.67,1.83,1.83,0,0,1-.4-1v-.07h.93v.07a1.09,1.09,0,0,0,.31.6,1.45,1.45,0,0,0,.66.4,3,3,0,0,0,1,.14,2.84,2.84,0,0,0,.93-.14,1.45,1.45,0,0,0,.61-.42,1,1,0,0,0,.21-.63h0a.89.89,0,0,0-.34-.74,2.53,2.53,0,0,0-1.11-.44l-.83-.18a3.39,3.39,0,0,1-1.62-.7A1.6,1.6,0,0,1,88,2451h0a1.64,1.64,0,0,1,.34-1,2.23,2.23,0,0,1,.93-.69,3.37,3.37,0,0,1,1.36-.25,3.17,3.17,0,0,1,1.3.25,2.29,2.29,0,0,1,.92.68,1.77,1.77,0,0,1,.38,1v.07h-.93V2451a1.19,1.19,0,0,0-.28-.61,1.42,1.42,0,0,0-.58-.39,2.38,2.38,0,0,0-.84-.14,2.56,2.56,0,0,0-.87.14,1.4,1.4,0,0,0-.58.4.94.94,0,0,0-.2.59h0a.87.87,0,0,0,.35.71,2.64,2.64,0,0,0,1.07.42l.83.18a3.53,3.53,0,0,1,1.66.7,1.64,1.64,0,0,1,.51,1.27h0a1.78,1.78,0,0,1-.33,1.08,2.11,2.11,0,0,1-.95.71,3.87,3.87,0,0,1-1.47.25A3.93,3.93,0,0,1,89.22,2456.11Z"/><path d="M96.66,2449.19h2.51a4.13,4.13,0,0,1,1.9.41,2.88,2.88,0,0,1,1.21,1.21,3.94,3.94,0,0,1,.42,1.89h0a4,4,0,0,1-.42,1.9,2.8,2.8,0,0,1-1.21,1.2,4,4,0,0,1-1.9.42H96.66Zm2.45,6.25a2.89,2.89,0,0,0,1.44-.32,2.08,2.08,0,0,0,.89-.92,3.2,3.2,0,0,0,.31-1.48h0a3.19,3.19,0,0,0-.31-1.49,2.06,2.06,0,0,0-.89-.93,3,3,0,0,0-1.44-.31H97.6v5.46Z"/><path d="M103.86,2449.19h4.63v.79h-3.7v2.26h3.5v.78h-3.5v2.42h3.7v.79h-4.63Z"/><path d="M109.12,2449.19h1l2.22,6h0l2.23-6h1l-2.76,7h-.92Z"/><path d="M117.76,2449.19h.68v1h-.23l-2.26,6h-1Zm-1.2,4.28h3.31l.31.75h-3.93Zm1.67-3.23v-1h.45l2.77,7h-1Z"/><path d="M122.31,2449.19h.9l4.9,6.63-1.18-1.07h.42v-5.56h.92v7h-.91l-4.9-6.63,1.18,1.07h-.41v5.56h-.92Z"/><path d="M131.61,2450h-2.36v-.79h5.64v.79h-2.35v6.25h-.93Z"/><path d="M137,2449.19h.68v1h-.23l-2.26,6h-1Zm-1.2,4.28h3.31l.31.75h-3.93Zm1.67-3.23v-1H138l2.77,7h-1Z"/><path d="M142.7,2453.2l-2.65-4h1.06l2,3.16h0l2-3.16h1.06l-2.65,4v3h-.93Z"/><path d="M289.36,2452.73a3.55,3.55,0,0,1-.31,1.49,3.71,3.71,0,0,1-.86,1.21,3.87,3.87,0,0,1-1.28.81,4.15,4.15,0,0,1-1.58.3h-.05a4.15,4.15,0,0,1-1.58-.3,3.87,3.87,0,0,1-1.28-.81,3.71,3.71,0,0,1-.86-1.21,3.55,3.55,0,0,1-.31-1.49v0a3.52,3.52,0,0,1,.31-1.49,3.61,3.61,0,0,1,.86-1.21,3.87,3.87,0,0,1,1.28-.81,4.15,4.15,0,0,1,1.58-.3h.05a4.15,4.15,0,0,1,1.58.3,3.87,3.87,0,0,1,1.28.81,3.61,3.61,0,0,1,.86,1.21,3.52,3.52,0,0,1,.31,1.49Zm-.9-1.3a3.27,3.27,0,0,0-.72-1,3.54,3.54,0,0,0-1.08-.68,3.65,3.65,0,0,0-1.33-.24h-.05a3.65,3.65,0,0,0-1.33.24,3.54,3.54,0,0,0-1.08.68,3.27,3.27,0,0,0-.72,1,3.12,3.12,0,0,0-.26,1.26v0a3.06,3.06,0,0,0,1,2.27,3.38,3.38,0,0,0,1.08.69,3.65,3.65,0,0,0,1.33.24h.05a3.65,3.65,0,0,0,1.33-.24,3.38,3.38,0,0,0,1.08-.69,3.06,3.06,0,0,0,1-2.27v0A3.12,3.12,0,0,0,288.46,2451.43Zm-4.33,2.51a1.6,1.6,0,0,1-.46-1.23h0a1.6,1.6,0,0,1,.46-1.23,1.71,1.71,0,0,1,1.25-.45,1.77,1.77,0,0,1,.77.16,1.46,1.46,0,0,1,.54.44,1.26,1.26,0,0,1,.25.62v0h-.7v0a.69.69,0,0,0-.29-.42.89.89,0,0,0-.56-.17,1,1,0,0,0-.72.28,1.3,1.3,0,0,0,0,1.56.94.94,0,0,0,.72.28.93.93,0,0,0,.56-.16.73.73,0,0,0,.3-.44v0h.7v0a1.33,1.33,0,0,1-.25.63,1.39,1.39,0,0,1-.55.43,1.93,1.93,0,0,1-2-.29Z"/><path d="M290.4,2455.63,293,2453a9.92,9.92,0,0,0,.77-.82,2.24,2.24,0,0,0,.37-.59,1.42,1.42,0,0,0,.1-.55h0a1.17,1.17,0,0,0-.18-.64,1.31,1.31,0,0,0-.49-.44,1.66,1.66,0,0,0-.72-.15,1.84,1.84,0,0,0-.83.18,1.48,1.48,0,0,0-.58.49,1.2,1.2,0,0,0-.22.69v0h-.9v0a1.9,1.9,0,0,1,.34-1.09,2.25,2.25,0,0,1,.91-.75,2.77,2.77,0,0,1,1.26-.28,2.73,2.73,0,0,1,1.21.26,2,2,0,0,1,.83.7,1.76,1.76,0,0,1,.3,1h0a1.92,1.92,0,0,1-.15.74,3.38,3.38,0,0,1-.53.82,14.46,14.46,0,0,1-1.07,1.11l-2.05,2,.28-.55v.55l-.28-.25h3.93v.78H290.4Z"/><path d="M297.53,2455.9a2.75,2.75,0,0,1-.94-1.25,5.18,5.18,0,0,1-.33-1.94h0a5.13,5.13,0,0,1,.33-1.93,2.84,2.84,0,0,1,.94-1.26,2.69,2.69,0,0,1,3,0,2.84,2.84,0,0,1,.94,1.26,5.13,5.13,0,0,1,.33,1.93h0a5.18,5.18,0,0,1-.33,1.94,2.75,2.75,0,0,1-.94,1.25,2.64,2.64,0,0,1-3,0Zm2.45-.67a2.13,2.13,0,0,0,.62-1,5,5,0,0,0,.21-1.53h0a4.85,4.85,0,0,0-.21-1.52,2.13,2.13,0,0,0-.62-1,1.47,1.47,0,0,0-1-.35,1.44,1.44,0,0,0-1,.35,2.13,2.13,0,0,0-.62,1,4.85,4.85,0,0,0-.21,1.52h0a5,5,0,0,0,.21,1.53,2.13,2.13,0,0,0,.62,1,1.4,1.4,0,0,0,1,.35A1.42,1.42,0,0,0,300,2455.23Z"/><path d="M302.72,2455.63l2.63-2.59c.34-.33.6-.61.78-.82a2.17,2.17,0,0,0,.36-.59,1.42,1.42,0,0,0,.1-.55h0a1.16,1.16,0,0,0-.17-.64,1.34,1.34,0,0,0-.5-.44,1.59,1.59,0,0,0-.72-.15,1.84,1.84,0,0,0-.83.18,1.48,1.48,0,0,0-.58.49,1.2,1.2,0,0,0-.21.69v0h-.9v0a1.89,1.89,0,0,1,.33-1.09,2.32,2.32,0,0,1,.91-.75,2.79,2.79,0,0,1,1.27-.28,2.71,2.71,0,0,1,1.2.26,2,2,0,0,1,.83.7,1.69,1.69,0,0,1,.31,1h0a1.76,1.76,0,0,1-.16.74,3.11,3.11,0,0,1-.53.82,14,14,0,0,1-1.06,1.11l-2,2,.27-.55v.55l-.27-.25h3.92v.78h-4.93Z"/><path d="M308.72,2455.63l2.63-2.59a9.92,9.92,0,0,0,.77-.82,2.24,2.24,0,0,0,.37-.59,1.42,1.42,0,0,0,.1-.55h0a1.25,1.25,0,0,0-.17-.64,1.34,1.34,0,0,0-.5-.44,1.66,1.66,0,0,0-.72-.15,1.84,1.84,0,0,0-.83.18,1.48,1.48,0,0,0-.58.49,1.2,1.2,0,0,0-.21.69v0h-.9v0a1.89,1.89,0,0,1,.33-1.09,2.32,2.32,0,0,1,.91-.75,2.79,2.79,0,0,1,1.27-.28,2.71,2.71,0,0,1,1.2.26,2,2,0,0,1,.83.7,1.77,1.77,0,0,1,.31,1h0a1.93,1.93,0,0,1-.16.74,3.38,3.38,0,0,1-.53.82c-.25.3-.61.67-1.06,1.11l-2,2,.27-.55v.55l-.27-.25h3.92v.78h-4.93Z"/><path d="M317.76,2456a2.2,2.2,0,0,1-.85-.91,3,3,0,0,1-.3-1.39h0a3.06,3.06,0,0,1,.3-1.39,2.23,2.23,0,0,1,.84-.93,2.44,2.44,0,0,1,1.28-.33,2.37,2.37,0,0,1,1.27.32,2.12,2.12,0,0,1,.81.89,3,3,0,0,1,.29,1.34v.31h-4.34v-.66H321l-.45.61v-.32a2.31,2.31,0,0,0-.19-1,1.26,1.26,0,0,0-.52-.57,1.48,1.48,0,0,0-.76-.19,1.41,1.41,0,0,0-.77.2,1.32,1.32,0,0,0-.54.58,2.13,2.13,0,0,0-.2,1v.32a2,2,0,0,0,.19.92,1.39,1.39,0,0,0,.56.59,1.71,1.71,0,0,0,.84.2,1.66,1.66,0,0,0,.61-.1,1.13,1.13,0,0,0,.45-.27.93.93,0,0,0,.26-.39l0,0h.88v0a1.67,1.67,0,0,1-.26.58,1.82,1.82,0,0,1-.48.48,2.46,2.46,0,0,1-.67.33,3.12,3.12,0,0,1-.82.11A2.67,2.67,0,0,1,317.76,2456Z"/><path d="M322.41,2450.14a.53.53,0,0,1,0-.76.59.59,0,0,1,.4-.15.57.57,0,0,1,.4.15.53.53,0,0,1,0,.76.58.58,0,0,1-.4.16A.59.59,0,0,1,322.41,2450.14Zm-.05,1h.9v5.08h-.9Z"/><path d="M324.56,2449.19h.9v7h-.9Zm.7,4.21h.22l2.36-2.25h1.09l-2.55,2.4h-.07l-1.05.95Zm.65.41.6-.57,2.5,3H328Z"/><path d="M330.3,2456a2.23,2.23,0,0,1-.88-.92,2.92,2.92,0,0,1-.31-1.4h0a3,3,0,0,1,.31-1.4,2.18,2.18,0,0,1,.88-.9,2.48,2.48,0,0,1,1.3-.32,2.57,2.57,0,0,1,1.31.32,2.22,2.22,0,0,1,.87.9,3,3,0,0,1,.31,1.4h0a2.92,2.92,0,0,1-.31,1.4,2.27,2.27,0,0,1-.87.92,2.82,2.82,0,0,1-2.61,0Zm2.13-.65a1.47,1.47,0,0,0,.55-.65,2.41,2.41,0,0,0,.19-1h0a2.4,2.4,0,0,0-.19-1,1.39,1.39,0,0,0-.55-.64,1.51,1.51,0,0,0-.83-.22,1.48,1.48,0,0,0-.82.22,1.44,1.44,0,0,0-.55.64,2.39,2.39,0,0,0-.2,1h0a2.41,2.41,0,0,0,.2,1,1.47,1.47,0,0,0,.55.65,1.58,1.58,0,0,0,.83.22A1.54,1.54,0,0,0,332.43,2455.36Z"/><path d="M335,2451.15h.9v.73h0a1.63,1.63,0,0,1,.63-.59,2,2,0,0,1,1-.23,1.84,1.84,0,0,1,1.37.5,1.89,1.89,0,0,1,.49,1.38v3.29h-.9v-3.14a1.31,1.31,0,0,0-.31-1,1.2,1.2,0,0,0-.93-.33,1.47,1.47,0,0,0-.74.18,1.24,1.24,0,0,0-.49.5,1.6,1.6,0,0,0-.17.75v3H335Z"/><path d="M218.52,2425.14a5.54,5.54,0,0,1-2.14-2.3,7.65,7.65,0,0,1-.76-3.5h0a7.4,7.4,0,0,1,.76-3.44,5.5,5.5,0,0,1,2.14-2.24,6.46,6.46,0,0,1,3.26-.8,6.34,6.34,0,0,1,2.68.52,5.11,5.11,0,0,1,1.86,1.39,5.34,5.34,0,0,1,1,2l.05.17h-1.76l0-.1a4,4,0,0,0-1.43-1.87,4.17,4.17,0,0,0-2.39-.66,4.55,4.55,0,0,0-2.38.6,4,4,0,0,0-1.53,1.73,6.18,6.18,0,0,0-.53,2.69h0a6.49,6.49,0,0,0,.54,2.75,4.06,4.06,0,0,0,1.53,1.78,4.37,4.37,0,0,0,2.37.63,4.51,4.51,0,0,0,2.1-.46,3.42,3.42,0,0,0,1.42-1.26,3.51,3.51,0,0,0,.5-1.87v-.23H222v-1.39h5.47v1.21a6,6,0,0,1-.68,2.93,4.54,4.54,0,0,1-2,1.88,6.72,6.72,0,0,1-3.07.65A6.27,6.27,0,0,1,218.52,2425.14Z"/><path d="M229.62,2413.06h5a5.12,5.12,0,0,1,2.26.47,3.59,3.59,0,0,1,1.5,1.32,3.72,3.72,0,0,1,.53,2v0a3.64,3.64,0,0,1-2.7,3.62l3.11,5.26h-2l-2.87-5H231.3v5h-1.68Zm4.9,6.27a2.88,2.88,0,0,0,2-.63,2.32,2.32,0,0,0,.71-1.8v0a2.21,2.21,0,0,0-.74-1.77,3,3,0,0,0-2-.64H231.3v4.86Z"/><path d="M241.06,2413.06h1.67v12.68h-1.67Z"/><path d="M245.34,2413.06H247v11.26h6.48v1.42h-8.16Z"/><path d="M255.35,2413.06H257v11.26h6.49v1.42h-8.16Z"/><path d="M265.35,2413.06H267v12.68h-1.68Z"/><path d="M273,2414.49H268.8v-1.43H279v1.43h-4.24v11.25H273Z"/><path d="M284.42,2420.29l-4.77-7.23h1.91l3.67,5.7h.06l3.67-5.7h1.91l-4.77,7.23v5.45h-1.68Z"/><path d="M292.41,2413.06h1.67v12.68h-1.67Zm.84,6.75h3.52a3.22,3.22,0,0,0,2.23-.7,2.51,2.51,0,0,0,.8-2v0a2.48,2.48,0,0,0-.8-2,3.22,3.22,0,0,0-2.23-.7h-3.52v-1.41h3.95a4.7,4.7,0,0,1,2.23.51A3.84,3.84,0,0,1,301,2415a4,4,0,0,1,.55,2.11v0a4.07,4.07,0,0,1-.55,2.13,3.93,3.93,0,0,1-1.53,1.44,4.59,4.59,0,0,1-2.23.52h-3.95Z"/><path d="M303.43,2413.06h8.33v1.43h-6.65v4.07h6.3v1.4h-6.3v4.36h6.65v1.42h-8.33Z"/><rect x="187.5" y="2405.62" width="152.5" height="27.57" style="fill:none;stroke:#000;stroke-miterlimit:10"/><rect x="187.5" y="2378.04" width="152.5" height="27.57" style="fill:none;stroke:#000;stroke-miterlimit:10"/><rect x="35" y="2405.62" width="152.5" height="27.57" style="fill:none;stroke:#000;stroke-miterlimit:10"/><rect x="35" y="2378.04" width="152.5" height="27.57" style="fill:none;stroke:#000;stroke-miterlimit:10"/><line x1="153.14" y1="2452.71" x2="272.21" y2="2452.71" style="fill:none;stroke:#000;stroke-miterlimit:10"/><text transform="translate(17.32 2048.02)" style="opacity:0.19;font-size:27px;font-family:GTFlexaTrial-XExpBlIt, GT Flexa Trial;font-style:italic">WRITE <tspan x="0" y="32.4">AN</tspan><tspan x="79.84" y="32.4" style="letter-spacing:0.01000072337962963em">Y</tspan><tspan x="118.21" y="32.4">THING..</tspan><tspan x="316.3" y="32.4" style="letter-spacing:-0.009982638888888888em">.</tspan></text></svg>