<?xml version="1.0" encoding="UTF-8"?><svg xmlns="http://www.w3.org/2000/svg" viewBox="0 0 221.01 189.51"><defs><style>.d{fill:#ffec00;}.d,.e{stroke:#e20613;stroke-miterlimit:10;}.e{fill:#e20613;}</style></defs><g id="a"/><g id="b"><g id="c"><g><rect class="d" x=".5" y=".5" width="220.01" height="188.51"/><polygon class="e" points="34.37 .5 .5 34.57 .5 66.38 65.99 .5 34.37 .5"/><polygon class="e" points="5.59 .5 .5 5.62 .5 .5 5.59 .5"/><polygon class="e" points="123.46 .5 .5 124.17 .5 92.37 91.83 .5 123.46 .5"/><polygon class="e" points="184.51 .5 .5 185.58 .5 153.78 152.88 .5 184.51 .5"/><polygon class="e" points="220.51 .5 220.51 23.99 56.44 189.01 24.81 189.01 212.23 .5 220.51 .5"/><polygon class="e" points="220.51 51.86 220.51 83.67 115.79 189.01 84.17 189.01 220.51 51.86"/><polygon class="e" points="143.52 189.01 220.51 111.55 220.51 143.37 175.15 189.01 143.52 189.01"/><polygon class="e" points="220.51 168.06 220.51 189.01 199.69 189.01 220.51 168.06"/></g></g></g></svg>